<svg xmlns="http://www.w3.org/2000/svg" width="154.5" height="115.121" viewBox="0 0 154.5 115.121">
  <g id="Learning-rafiki" transform="translate(0 -55)">
    <g id="freepik--background-complete--inject-5" transform="translate(0 55)">
      <rect id="Rectangle_288" data-name="Rectangle 288" width="154.5" height="0.077" transform="translate(0 101.167)" fill="#ebebeb"/>
      <rect id="Rectangle_289" data-name="Rectangle 289" width="17.066" height="0.077" transform="translate(121.953 106.138)" fill="#ebebeb"/>
      <rect id="Rectangle_290" data-name="Rectangle 290" width="2.685" height="0.077" transform="translate(99.439 104.519)" fill="#ebebeb"/>
      <rect id="Rectangle_291" data-name="Rectangle 291" width="5.93" height="0.077" transform="translate(115.093 103.271)" fill="#ebebeb"/>
      <rect id="Rectangle_292" data-name="Rectangle 292" width="13.346" height="0.077" transform="translate(16.21 103.79)" fill="#ebebeb"/>
      <rect id="Rectangle_293" data-name="Rectangle 293" width="14.127" height="0.077" transform="translate(66.537 105.786)" fill="#ebebeb"/>
      <rect id="Rectangle_294" data-name="Rectangle 294" width="28.947" height="0.077" transform="translate(43.402 104.479)" fill="#ebebeb"/>
      <path id="Path_3013" data-name="Path 3013" d="M101.4,140.621a1.764,1.764,0,0,1-1.767,1.764H39.971a1.764,1.764,0,0,1-1.761-1.764V56.749A1.764,1.764,0,0,1,39.971,55H99.636a1.764,1.764,0,0,1,1.764,1.764m-.077,0a1.69,1.69,0,0,0-1.687-1.7H39.971a1.687,1.687,0,0,0-1.684,1.687v83.872a1.687,1.687,0,0,0,1.684,1.687H99.636a1.69,1.69,0,0,0,1.687-1.687" transform="translate(-26.403 -55)" fill="#ebebeb"/>
      <path id="Path_3014" data-name="Path 3014" d="M315.932,142.385H256.264a1.768,1.768,0,0,1-1.764-1.764V56.749A1.768,1.768,0,0,1,256.264,55h59.668a1.764,1.764,0,0,1,1.758,1.749v83.872A1.764,1.764,0,0,1,315.932,142.385ZM256.264,55.062a1.69,1.69,0,0,0-1.687,1.687v83.872a1.69,1.69,0,0,0,1.687,1.687h59.668a1.69,1.69,0,0,0,1.687-1.687V56.749a1.69,1.69,0,0,0-1.687-1.687Z" transform="translate(-175.859 -55)" fill="#ebebeb"/>
      <rect id="Rectangle_295" data-name="Rectangle 295" width="20.502" height="23.771" transform="translate(84.406 21.568)" fill="#e6e6e6"/>
      <rect id="Rectangle_296" data-name="Rectangle 296" width="21.624" height="23.771" transform="translate(84.715 21.568)" fill="#f0f0f0"/>
      <rect id="Rectangle_297" data-name="Rectangle 297" width="20.15" height="17.999" transform="translate(104.529 23.382) rotate(90)" fill="#fff"/>
      <path id="Path_3015" data-name="Path 3015" d="M303.343,157.636h-4.672a4.267,4.267,0,0,1-4.261-4.264V148.7a.173.173,0,0,1,.173-.173h4.672a4.267,4.267,0,0,1,4.264,4.264v4.672A.173.173,0,0,1,303.343,157.636Zm-8.587-8.76v4.5a3.921,3.921,0,0,0,3.915,3.915h4.5v-4.493a3.918,3.918,0,0,0-3.915-3.915Z" transform="translate(-203.437 -119.629)" fill="#f0f0f0"/>
      <path id="Path_3016" data-name="Path 3016" d="M382.885,115.2H359.41l2.08-17.224h19.316Z" transform="translate(-248.352 -84.699)" fill="#ebebeb"/>
      <rect id="Rectangle_298" data-name="Rectangle 298" width="0.377" height="6.597" transform="translate(114.568 30.501)" fill="#e0e0e0"/>
      <circle id="Ellipse_145" data-name="Ellipse 145" cx="0.451" cy="0.451" r="0.451" transform="translate(114.305 36.647)" fill="#e0e0e0"/>
      <path id="Path_3017" data-name="Path 3017" d="M407.771,115.2h-4.036L402.88,97.98H406.6Z" transform="translate(-278.39 -84.699)" fill="#f5f5f5"/>
      <rect id="Rectangle_299" data-name="Rectangle 299" width="2.348" height="70.662" transform="translate(121.622 30.501)" fill="#f0f0f0"/>
      <path id="Path_3018" data-name="Path 3018" d="M392.8,378.855H385.37a1.585,1.585,0,0,1,1.582-1.585h4.267A1.585,1.585,0,0,1,392.8,378.855Z" transform="translate(-266.291 -277.689)" fill="#f0f0f0"/>
      <rect id="Rectangle_300" data-name="Rectangle 300" width="2.348" height="1.434" transform="translate(121.622 30.501)" fill="#e0e0e0"/>
      <path id="Path_3019" data-name="Path 3019" d="M370.5,274.33h0c-.189,0-.377,0-.569.019a8.077,8.077,0,0,0-7.237,10.166,40.534,40.534,0,0,1,1.267,10.528v10.339a1.353,1.353,0,0,0,1.357,1.357h22.248V274.33Z" transform="translate(-250.428 -206.557)" fill="#f0f0f0"/>
      <path id="Path_3020" data-name="Path 3020" d="M433.846,282.408a8.083,8.083,0,1,0-15.889,2.1,40.531,40.531,0,0,1,1.267,10.528v10.339a1.353,1.353,0,0,0,1.357,1.357h10.364a1.357,1.357,0,0,0,1.357-1.357V294.434a36.882,36.882,0,0,1,1.236-9.866A8.034,8.034,0,0,0,433.846,282.408Z" transform="translate(-288.616 -206.555)" fill="#f5f5f5"/>
      <rect id="Rectangle_301" data-name="Rectangle 301" width="36.851" height="19.677" transform="translate(96.192 80.504)" fill="#f0f0f0"/>
      <path id="Path_3021" data-name="Path 3021" d="M282.454,232.1H255.262a5.525,5.525,0,0,0-5.593,6.115l2.07,24.1h39.416l-2.07-24.1A6.8,6.8,0,0,0,282.454,232.1Z" transform="translate(-172.499 -177.374)" fill="#e0e0e0"/>
      <path id="Path_3022" data-name="Path 3022" d="M307.624,232.1H279.845a5.253,5.253,0,0,0-5.324,5.822l2.1,24.411h39.435l-2.1-24.411a6.464,6.464,0,0,0-6.331-5.822Z" transform="translate(-189.672 -177.374)" fill="#f5f5f5"/>
      <path id="Path_3023" data-name="Path 3023" d="M311.878,309.72H347.5a2.024,2.024,0,0,1,2.024,2.024v3.964a2.024,2.024,0,0,1-2.024,2.024H311.878a.618.618,0,0,1-.618-.618v-6.8A.618.618,0,0,1,311.878,309.72Z" transform="translate(-215.081 -231.012)" fill="#e0e0e0"/>
      <path id="Path_3024" data-name="Path 3024" d="M228.975,274.33h0q-.284,0-.565.019a8.086,8.086,0,0,0-7.24,10.166,40.4,40.4,0,0,1,1.267,10.528v10.339a1.357,1.357,0,0,0,1.356,1.357h22.248V274.33Z" transform="translate(-152.637 -206.557)" fill="#f0f0f0"/>
      <path id="Path_3025" data-name="Path 3025" d="M292.286,282.46a8.083,8.083,0,1,0-15.895,2.1,40.4,40.4,0,0,1,1.267,10.528v10.339a1.357,1.357,0,0,0,1.36,1.356h10.361a1.353,1.353,0,0,0,1.356-1.357V294.486a36.889,36.889,0,0,1,1.255-9.866,8.15,8.15,0,0,0,.3-2.16Z" transform="translate(-190.798 -206.607)" fill="#f5f5f5"/>
      <path id="Path_3026" data-name="Path 3026" d="M302.836,380.2H246.716a.986.986,0,0,1-.986-.986h58.092A.986.986,0,0,1,302.836,380.2Z" transform="translate(-169.799 -279.029)" fill="#e0e0e0"/>
      <rect id="Rectangle_302" data-name="Rectangle 302" width="6.773" height="90.404" transform="translate(14.248 10.762)" fill="#e6e6e6"/>
      <rect id="Rectangle_303" data-name="Rectangle 303" width="59.442" height="90.404" transform="translate(80.461 101.167) rotate(180)" fill="#f5f5f5"/>
      <rect id="Rectangle_304" data-name="Rectangle 304" width="89.072" height="57.221" transform="translate(79.351 12.094) rotate(90)" fill="#e6e6e6"/>
      <rect id="Rectangle_305" data-name="Rectangle 305" width="89.072" height="4.789" transform="translate(26.92 12.094) rotate(90)" fill="#e0e0e0"/>
      <rect id="Rectangle_306" data-name="Rectangle 306" width="1.329" height="57.823" transform="translate(79.954 83.958) rotate(90)" fill="#f5f5f5"/>
      <rect id="Rectangle_307" data-name="Rectangle 307" width="1.329" height="57.823" transform="translate(79.954 65.295) rotate(90)" fill="#f5f5f5"/>
      <rect id="Rectangle_308" data-name="Rectangle 308" width="1.332" height="57.823" transform="translate(79.954 46.631) rotate(90)" fill="#f5f5f5"/>
      <rect id="Rectangle_309" data-name="Rectangle 309" width="1.329" height="57.823" transform="translate(79.954 27.968) rotate(90)" fill="#f5f5f5"/>
      <rect id="Rectangle_310" data-name="Rectangle 310" width="8.599" height="12.678" transform="translate(35.829 27.971) rotate(180)" fill="#fafafa"/>
      <rect id="Rectangle_311" data-name="Rectangle 311" width="2.589" height="12.678" rx="1.295" transform="translate(34.623 15.289)" fill="#f0f0f0"/>
      <rect id="Rectangle_312" data-name="Rectangle 312" width="8.599" height="12.678" transform="translate(32.93 27.971) rotate(180)" fill="#fafafa"/>
      <rect id="Rectangle_313" data-name="Rectangle 313" width="2.589" height="12.678" rx="1.295" transform="translate(31.731 15.289)" fill="#e6e6e6"/>
      <path id="Path_3027" data-name="Path 3027" d="M71.62,104.48h7.422l-.59,12.681H71.62Z" transform="translate(-49.489 -89.191)" fill="#fafafa"/>
      <path id="Path_3028" data-name="Path 3028" d="M92.629,104.48H90.9a.5.5,0,0,0-.451.513L89.9,116.648a.454.454,0,0,0,.4.513h1.733a.507.507,0,0,0,.451-.513l.544-11.655a.451.451,0,0,0-.4-.513Z" transform="translate(-62.119 -89.191)" fill="#f0f0f0"/>
      <rect id="Rectangle_314" data-name="Rectangle 314" width="6.52" height="10.704" transform="translate(73.517 27.968) rotate(180)" fill="#fafafa"/>
      <rect id="Rectangle_315" data-name="Rectangle 315" width="1.962" height="10.704" rx="0.981" transform="translate(72.606 17.267)" fill="#f0f0f0"/>
      <rect id="Rectangle_316" data-name="Rectangle 316" width="6.52" height="10.704" transform="translate(71.32 27.968) rotate(180)" fill="#fafafa"/>
      <rect id="Rectangle_317" data-name="Rectangle 317" width="1.962" height="10.704" rx="0.981" transform="translate(70.412 17.267)" fill="#e6e6e6"/>
      <path id="Path_3029" data-name="Path 3029" d="M204.31,110.88h5.627l-.448,10.7H204.31Z" transform="translate(-141.178 -93.613)" fill="#fafafa"/>
      <path id="Path_3030" data-name="Path 3030" d="M220.247,110.88h-1.313c-.179,0-.331.195-.343.433l-.411,9.839c0,.238.127.433.309.433h1.316c.179,0,.331-.195.34-.433l.414-9.839C220.565,111.075,220.426,110.88,220.247,110.88Z" transform="translate(-150.762 -93.613)" fill="#f0f0f0"/>
      <rect id="Rectangle_318" data-name="Rectangle 318" width="6.52" height="10.704" transform="translate(65.109 27.968) rotate(180)" fill="#fafafa"/>
      <rect id="Rectangle_319" data-name="Rectangle 319" width="1.962" height="10.704" rx="0.981" transform="translate(64.198 17.267)" fill="#f0f0f0"/>
      <rect id="Rectangle_320" data-name="Rectangle 320" width="6.52" height="10.704" transform="translate(62.915 27.968) rotate(180)" fill="#fafafa"/>
      <rect id="Rectangle_321" data-name="Rectangle 321" width="1.962" height="10.704" rx="0.981" transform="translate(62.004 17.267)" fill="#e6e6e6"/>
      <path id="Path_3031" data-name="Path 3031" d="M177.11,110.88h5.624l-.445,10.7H177.11Z" transform="translate(-122.383 -93.613)" fill="#fafafa"/>
      <path id="Path_3032" data-name="Path 3032" d="M193.061,110.88h-1.316c-.179,0-.331.195-.34.433l-.4,9.839c0,.238.13.433.309.433h1.313c.179,0,.331-.195.343-.433l.411-9.839C193.376,111.075,193.24,110.88,193.061,110.88Z" transform="translate(-131.981 -93.613)" fill="#f0f0f0"/>
      <rect id="Rectangle_322" data-name="Rectangle 322" width="4.545" height="11.504" transform="translate(50.852 27.971) rotate(180)" fill="#fafafa"/>
      <rect id="Rectangle_323" data-name="Rectangle 323" width="1.369" height="11.504" rx="0.684" transform="translate(50.219 16.464)" fill="#f0f0f0"/>
      <rect id="Rectangle_324" data-name="Rectangle 324" width="5.009" height="12.678" transform="translate(47.53 27.971) rotate(180)" fill="#fafafa"/>
      <rect id="Rectangle_325" data-name="Rectangle 325" width="1.508" height="12.678" rx="0.754" transform="translate(46.832 15.289)" fill="#f5f5f5"/>
      <path id="Path_3033" data-name="Path 3033" d="M133.46,104.48h4.323l-.343,12.681h-3.98Z" transform="translate(-92.221 -89.191)" fill="#fafafa"/>
      <path id="Path_3034" data-name="Path 3034" d="M145.729,104.48h-1.007c-.136,0-.256.229-.263.513l-.309,11.655c0,.281.1.513.235.513h1.01c.136,0,.253-.232.263-.513l.309-11.655C145.958,104.709,145.865,104.48,145.729,104.48Z" transform="translate(-99.608 -89.191)" fill="#f0f0f0"/>
      <rect id="Rectangle_326" data-name="Rectangle 326" width="8.599" height="12.678" transform="translate(58.722 46.634) rotate(180)" fill="#fafafa"/>
      <rect id="Rectangle_327" data-name="Rectangle 327" width="2.589" height="12.678" rx="1.295" transform="translate(57.52 33.953)" fill="#f0f0f0"/>
      <rect id="Rectangle_328" data-name="Rectangle 328" width="8.599" height="12.678" transform="translate(55.83 46.634) rotate(180)" fill="#fafafa"/>
      <rect id="Rectangle_329" data-name="Rectangle 329" width="2.589" height="12.678" rx="1.295" transform="translate(54.625 33.953)" fill="#e6e6e6"/>
      <path id="Path_3035" data-name="Path 3035" d="M145.72,164.88h7.419l-.59,12.681H145.72Z" transform="translate(-100.693 -130.927)" fill="#fafafa"/>
      <path id="Path_3036" data-name="Path 3036" d="M166.721,164.88h-1.733a.5.5,0,0,0-.451.513l-.547,11.655a.451.451,0,0,0,.4.513h1.734a.507.507,0,0,0,.451-.513l.541-11.655a.448.448,0,0,0-.4-.513Z" transform="translate(-113.314 -130.927)" fill="#f0f0f0"/>
      <rect id="Rectangle_330" data-name="Rectangle 330" width="5.268" height="10.704" transform="translate(68.573 46.631) rotate(180)" fill="#fafafa"/>
      <rect id="Rectangle_331" data-name="Rectangle 331" width="1.585" height="10.704" rx="0.793" transform="translate(67.838 35.931)" fill="#f0f0f0"/>
      <rect id="Rectangle_332" data-name="Rectangle 332" width="5.268" height="10.704" transform="translate(66.8 46.631) rotate(180)" fill="#fafafa"/>
      <rect id="Rectangle_333" data-name="Rectangle 333" width="1.585" height="10.704" rx="0.793" transform="translate(66.064 35.931)" fill="#e6e6e6"/>
      <path id="Path_3037" data-name="Path 3037" d="M194.76,171.28h4.548l-.362,10.7H194.76Z" transform="translate(-134.579 -135.349)" fill="#fafafa"/>
      <path id="Path_3038" data-name="Path 3038" d="M207.662,171.28H206.6c-.145,0-.269.195-.275.433L206,181.551c0,.238.1.433.247.433h1.063c.145,0,.269-.195.275-.433l.334-9.839C207.919,171.475,207.808,171.28,207.662,171.28Z" transform="translate(-142.346 -135.349)" fill="#f0f0f0"/>
      <rect id="Rectangle_334" data-name="Rectangle 334" width="4.363" height="8.865" transform="translate(76.459 46.634) rotate(180)" fill="#fafafa"/>
      <rect id="Rectangle_335" data-name="Rectangle 335" width="1.313" height="8.865" rx="0.657" transform="translate(75.847 37.766)" fill="#f0f0f0"/>
      <rect id="Rectangle_336" data-name="Rectangle 336" width="4.363" height="8.865" transform="translate(74.988 46.634) rotate(180)" fill="#fafafa"/>
      <rect id="Rectangle_337" data-name="Rectangle 337" width="1.313" height="8.865" rx="0.657" transform="translate(74.379 37.766)" fill="#e6e6e6"/>
      <path id="Path_3039" data-name="Path 3039" d="M224.94,177.22h3.767l-.3,8.868H224.94Z" transform="translate(-155.434 -139.454)" fill="#fafafa"/>
      <path id="Path_3040" data-name="Path 3040" d="M235.614,177.22h-.881c-.121,0-.223.161-.229.358l-.275,8.151c0,.2.083.358.2.358h.881c.117,0,.222-.161.229-.358l.275-8.151C235.824,177.381,235.732,177.22,235.614,177.22Z" transform="translate(-161.853 -139.454)" fill="#f0f0f0"/>
      <rect id="Rectangle_338" data-name="Rectangle 338" width="6.52" height="10.704" transform="translate(42.858 46.631) rotate(180)" fill="#fafafa"/>
      <rect id="Rectangle_339" data-name="Rectangle 339" width="1.962" height="10.704" rx="0.981" transform="translate(41.95 35.931)" fill="#f0f0f0"/>
      <rect id="Rectangle_340" data-name="Rectangle 340" width="6.52" height="10.704" transform="translate(40.667 46.631) rotate(180)" fill="#fafafa"/>
      <rect id="Rectangle_341" data-name="Rectangle 341" width="1.962" height="10.704" rx="0.981" transform="translate(39.753 35.931)" fill="#e6e6e6"/>
      <path id="Path_3041" data-name="Path 3041" d="M105.1,171.28h5.627l-.448,10.7H105.1Z" transform="translate(-72.624 -135.349)" fill="#fafafa"/>
      <path id="Path_3042" data-name="Path 3042" d="M121.058,171.28h-1.313a.411.411,0,0,0-.343.433l-.4,9.839c0,.238.127.433.309.433h1.313a.411.411,0,0,0,.343-.433l.411-9.839C121.376,171.475,121.237,171.28,121.058,171.28Z" transform="translate(-82.229 -135.349)" fill="#f0f0f0"/>
      <rect id="Rectangle_342" data-name="Rectangle 342" width="4.545" height="11.504" transform="translate(31.744 46.634) rotate(180)" fill="#fafafa"/>
      <rect id="Rectangle_343" data-name="Rectangle 343" width="1.369" height="11.504" rx="0.684" transform="translate(31.107 35.127)" fill="#f0f0f0"/>
      <rect id="Rectangle_344" data-name="Rectangle 344" width="5.009" height="12.678" transform="translate(28.422 46.634) rotate(180)" fill="#fafafa"/>
      <rect id="Rectangle_345" data-name="Rectangle 345" width="1.508" height="12.678" rx="0.754" transform="translate(27.72 33.953)" fill="#f5f5f5"/>
      <path id="Path_3043" data-name="Path 3043" d="M71.62,164.88h4.323L75.6,177.561H71.62Z" transform="translate(-49.489 -130.927)" fill="#fafafa"/>
      <path id="Path_3044" data-name="Path 3044" d="M83.882,164.88h-1.01c-.139,0-.256.229-.263.513L82.3,177.048c0,.281.1.513.238.513h1c.139,0,.256-.232.263-.513l.309-11.655C84.123,165.109,84.018,164.88,83.882,164.88Z" transform="translate(-56.869 -130.927)" fill="#f0f0f0"/>
      <rect id="Rectangle_346" data-name="Rectangle 346" width="8.599" height="12.678" transform="translate(35.829 65.298) rotate(180)" fill="#fafafa"/>
      <rect id="Rectangle_347" data-name="Rectangle 347" width="2.589" height="12.678" rx="1.295" transform="translate(34.623 52.617)" fill="#f0f0f0"/>
      <rect id="Rectangle_348" data-name="Rectangle 348" width="8.599" height="12.678" transform="translate(32.93 65.298) rotate(180)" fill="#fafafa"/>
      <rect id="Rectangle_349" data-name="Rectangle 349" width="2.589" height="12.678" rx="1.295" transform="translate(31.731 52.617)" fill="#e6e6e6"/>
      <path id="Path_3045" data-name="Path 3045" d="M71.62,225.28h7.422l-.59,12.681H71.62Z" transform="translate(-49.489 -172.663)" fill="#fafafa"/>
      <path id="Path_3046" data-name="Path 3046" d="M92.629,225.28H90.9a.5.5,0,0,0-.451.513L89.9,237.448a.454.454,0,0,0,.4.513h1.733a.507.507,0,0,0,.451-.513l.544-11.655a.451.451,0,0,0-.4-.513Z" transform="translate(-62.119 -172.663)" fill="#f0f0f0"/>
      <rect id="Rectangle_350" data-name="Rectangle 350" width="6.52" height="10.704" transform="translate(73.517 65.295) rotate(180)" fill="#fafafa"/>
      <rect id="Rectangle_351" data-name="Rectangle 351" width="1.962" height="10.704" rx="0.981" transform="translate(72.606 54.594)" fill="#f0f0f0"/>
      <rect id="Rectangle_352" data-name="Rectangle 352" width="6.52" height="10.704" transform="translate(71.32 65.295) rotate(180)" fill="#fafafa"/>
      <rect id="Rectangle_353" data-name="Rectangle 353" width="1.962" height="10.704" rx="0.981" transform="translate(70.412 54.594)" fill="#e6e6e6"/>
      <path id="Path_3047" data-name="Path 3047" d="M204.31,231.68h5.627l-.448,10.7H204.31Z" transform="translate(-141.178 -177.086)" fill="#fafafa"/>
      <path id="Path_3048" data-name="Path 3048" d="M220.247,231.68h-1.313c-.179,0-.331.195-.343.433l-.411,9.839c0,.238.127.433.309.433h1.316c.179,0,.331-.195.34-.433l.414-9.839C220.565,231.875,220.426,231.68,220.247,231.68Z" transform="translate(-150.762 -177.086)" fill="#f0f0f0"/>
      <rect id="Rectangle_354" data-name="Rectangle 354" width="6.52" height="10.704" transform="translate(65.109 65.295) rotate(180)" fill="#fafafa"/>
      <rect id="Rectangle_355" data-name="Rectangle 355" width="1.962" height="10.704" rx="0.981" transform="translate(64.198 54.594)" fill="#f0f0f0"/>
      <rect id="Rectangle_356" data-name="Rectangle 356" width="6.52" height="10.704" transform="translate(62.915 65.295) rotate(180)" fill="#fafafa"/>
      <rect id="Rectangle_357" data-name="Rectangle 357" width="1.962" height="10.704" rx="0.981" transform="translate(62.004 54.594)" fill="#e6e6e6"/>
      <path id="Path_3049" data-name="Path 3049" d="M177.11,231.68h5.624l-.445,10.7H177.11Z" transform="translate(-122.383 -177.086)" fill="#fafafa"/>
      <path id="Path_3050" data-name="Path 3050" d="M193.061,231.68h-1.316c-.179,0-.331.195-.34.433l-.4,9.839c0,.238.13.433.309.433h1.313c.179,0,.331-.195.343-.433l.411-9.839C193.376,231.875,193.24,231.68,193.061,231.68Z" transform="translate(-131.981 -177.086)" fill="#f0f0f0"/>
      <rect id="Rectangle_358" data-name="Rectangle 358" width="4.545" height="11.504" transform="translate(50.852 65.298) rotate(180)" fill="#fafafa"/>
      <rect id="Rectangle_359" data-name="Rectangle 359" width="1.369" height="11.504" rx="0.684" transform="translate(50.219 53.791)" fill="#f0f0f0"/>
      <rect id="Rectangle_360" data-name="Rectangle 360" width="5.009" height="12.678" transform="translate(47.53 65.298) rotate(180)" fill="#fafafa"/>
      <rect id="Rectangle_361" data-name="Rectangle 361" width="1.508" height="12.678" rx="0.754" transform="translate(46.832 52.617)" fill="#f5f5f5"/>
      <path id="Path_3051" data-name="Path 3051" d="M133.46,225.28h4.323l-.343,12.681h-3.98Z" transform="translate(-92.221 -172.663)" fill="#fafafa"/>
      <path id="Path_3052" data-name="Path 3052" d="M145.729,225.28h-1.007c-.136,0-.256.229-.263.513l-.309,11.655c0,.281.1.513.235.513h1.01c.136,0,.253-.232.263-.513l.309-11.655C145.958,225.5,145.865,225.28,145.729,225.28Z" transform="translate(-99.608 -172.663)" fill="#f0f0f0"/>
      <rect id="Rectangle_362" data-name="Rectangle 362" width="5.509" height="12.678" transform="translate(30.903 101.167) rotate(180)" fill="#fafafa"/>
      <rect id="Rectangle_363" data-name="Rectangle 363" width="1.659" height="12.678" rx="0.83" transform="translate(30.134 88.485)" fill="#f0f0f0"/>
      <rect id="Rectangle_364" data-name="Rectangle 364" width="5.509" height="12.678" transform="translate(29.052 101.167) rotate(180)" fill="#fafafa"/>
      <rect id="Rectangle_365" data-name="Rectangle 365" width="1.659" height="12.678" rx="0.83" transform="translate(28.28 88.485)" fill="#e6e6e6"/>
      <path id="Path_3053" data-name="Path 3053" d="M71.62,341.37h4.752L76,354.048H71.62Z" transform="translate(-49.489 -252.882)" fill="#fafafa"/>
      <path id="Path_3054" data-name="Path 3054" d="M85.089,341.36H83.977c-.151,0-.281.232-.29.513l-.346,11.655c0,.284.108.513.26.513h1.109c.151,0,.281-.229.29-.513l.346-11.662C85.355,341.592,85.237,341.36,85.089,341.36Z" transform="translate(-57.588 -252.875)" fill="#f0f0f0"/>
      <rect id="Rectangle_366" data-name="Rectangle 366" width="5.744" height="10.704" transform="translate(77.235 101.167) rotate(180)" fill="#fafafa"/>
      <rect id="Rectangle_367" data-name="Rectangle 367" width="1.73" height="10.704" rx="0.865" transform="translate(76.431 90.463)" fill="#f0f0f0"/>
      <rect id="Rectangle_368" data-name="Rectangle 368" width="5.744" height="10.704" transform="translate(75.3 101.167) rotate(180)" fill="#fafafa"/>
      <rect id="Rectangle_369" data-name="Rectangle 369" width="1.73" height="10.704" rx="0.865" transform="translate(74.497 90.463)" fill="#e6e6e6"/>
      <path id="Path_3055" data-name="Path 3055" d="M220.34,347.76H225.3l-.4,10.7H220.34Z" transform="translate(-152.255 -257.297)" fill="#fafafa"/>
      <path id="Path_3056" data-name="Path 3056" d="M234.383,347.76h-1.159c-.158,0-.309.195-.309.433l-.355,9.839c0,.238.111.433.269.433h1.159c.158,0,.294-.195.309-.433l.362-9.839C234.661,347.955,234.55,347.76,234.383,347.76Z" transform="translate(-160.699 -257.297)" fill="#f0f0f0"/>
      <rect id="Rectangle_370" data-name="Rectangle 370" width="5.744" height="10.704" transform="translate(69.825 101.167) rotate(180)" fill="#fafafa"/>
      <rect id="Rectangle_371" data-name="Rectangle 371" width="1.73" height="10.704" rx="0.865" transform="translate(69.021 90.463)" fill="#f0f0f0"/>
      <rect id="Rectangle_372" data-name="Rectangle 372" width="5.744" height="10.704" transform="translate(67.89 101.167) rotate(180)" fill="#fafafa"/>
      <rect id="Rectangle_373" data-name="Rectangle 373" width="1.73" height="10.704" rx="0.865" transform="translate(67.087 90.463)" fill="#e6e6e6"/>
      <path id="Path_3057" data-name="Path 3057" d="M196.36,347.76h4.956l-.392,10.7H196.36Z" transform="translate(-135.685 -257.297)" fill="#fafafa"/>
      <path id="Path_3058" data-name="Path 3058" d="M210.4,347.76h-1.159c-.158,0-.294.195-.309.433l-.355,9.839c0,.238.111.433.269.433h1.159c.158,0,.309-.195.309-.433l.362-9.839C210.681,347.955,210.564,347.76,210.4,347.76Z" transform="translate(-144.129 -257.297)" fill="#f0f0f0"/>
      <rect id="Rectangle_374" data-name="Rectangle 374" width="4.005" height="11.504" transform="translate(62.186 101.167) rotate(180)" fill="#fafafa"/>
      <path id="Path_3059" data-name="Path 3059" d="M199.739,345.17h.6a.309.309,0,0,1,.309.309v10.9a.309.309,0,0,1-.309.309h-.6a.309.309,0,0,1-.309-.309v-10.9A.309.309,0,0,1,199.739,345.17Z" transform="translate(-137.806 -255.507)" fill="#f0f0f0"/>
      <rect id="Rectangle_375" data-name="Rectangle 375" width="4.413" height="12.678" transform="translate(59.26 101.167) rotate(180)" fill="#fafafa"/>
      <rect id="Rectangle_376" data-name="Rectangle 376" width="1.329" height="12.678" rx="0.664" transform="translate(58.642 88.485)" fill="#f5f5f5"/>
      <path id="Path_3060" data-name="Path 3060" d="M173.84,341.37h3.81l-.3,12.678H173.84Z" transform="translate(-120.123 -252.882)" fill="#fafafa"/>
      <path id="Path_3061" data-name="Path 3061" d="M184.63,341.36h-.89c-.121,0-.226.232-.232.513l-.278,11.655c0,.284.087.513.207.513h.89c.121,0,.226-.229.232-.513l.278-11.655C184.843,341.592,184.75,341.36,184.63,341.36Z" transform="translate(-126.612 -252.875)" fill="#f0f0f0"/>
      <rect id="Rectangle_377" data-name="Rectangle 377" width="8.599" height="12.678" transform="translate(58.722 83.961) rotate(180)" fill="#fafafa"/>
      <rect id="Rectangle_378" data-name="Rectangle 378" width="2.589" height="12.678" rx="1.295" transform="translate(57.52 71.28)" fill="#f0f0f0"/>
      <rect id="Rectangle_379" data-name="Rectangle 379" width="8.599" height="12.678" transform="translate(55.83 83.961) rotate(180)" fill="#fafafa"/>
      <rect id="Rectangle_380" data-name="Rectangle 380" width="2.589" height="12.678" rx="1.295" transform="translate(54.625 71.28)" fill="#e6e6e6"/>
      <path id="Path_3062" data-name="Path 3062" d="M145.72,285.68h7.419l-.59,12.681H145.72Z" transform="translate(-100.693 -214.4)" fill="#fafafa"/>
      <path id="Path_3063" data-name="Path 3063" d="M166.721,285.68h-1.733a.5.5,0,0,0-.451.513l-.547,11.655a.451.451,0,0,0,.4.513h1.734a.507.507,0,0,0,.451-.513l.541-11.655a.451.451,0,0,0-.4-.513Z" transform="translate(-113.314 -214.4)" fill="#f0f0f0"/>
      <rect id="Rectangle_381" data-name="Rectangle 381" width="5.268" height="10.704" transform="translate(68.573 83.958) rotate(180)" fill="#fafafa"/>
      <rect id="Rectangle_382" data-name="Rectangle 382" width="1.585" height="10.704" rx="0.793" transform="translate(67.838 73.258)" fill="#f0f0f0"/>
      <rect id="Rectangle_383" data-name="Rectangle 383" width="5.268" height="10.704" transform="translate(66.8 83.958) rotate(180)" fill="#fafafa"/>
      <rect id="Rectangle_384" data-name="Rectangle 384" width="1.585" height="10.704" rx="0.793" transform="translate(66.064 73.258)" fill="#e6e6e6"/>
      <path id="Path_3064" data-name="Path 3064" d="M194.76,292.08h4.548l-.362,10.7H194.76Z" transform="translate(-134.579 -218.822)" fill="#fafafa"/>
      <path id="Path_3065" data-name="Path 3065" d="M207.662,292.08H206.6c-.145,0-.269.195-.275.433L206,302.351c0,.238.1.433.247.433h1.063c.145,0,.269-.195.275-.433l.334-9.839C207.919,292.275,207.808,292.08,207.662,292.08Z" transform="translate(-142.346 -218.822)" fill="#f0f0f0"/>
      <rect id="Rectangle_385" data-name="Rectangle 385" width="4.363" height="8.865" transform="translate(76.459 83.961) rotate(180)" fill="#fafafa"/>
      <rect id="Rectangle_386" data-name="Rectangle 386" width="1.313" height="8.865" rx="0.657" transform="translate(75.847 75.093)" fill="#f0f0f0"/>
      <rect id="Rectangle_387" data-name="Rectangle 387" width="4.363" height="8.865" transform="translate(74.988 83.961) rotate(180)" fill="#fafafa"/>
      <rect id="Rectangle_388" data-name="Rectangle 388" width="1.313" height="8.865" rx="0.657" transform="translate(74.379 75.093)" fill="#e6e6e6"/>
      <path id="Path_3066" data-name="Path 3066" d="M224.94,298.02h3.767l-.3,8.868H224.94Z" transform="translate(-155.434 -222.927)" fill="#fafafa"/>
      <path id="Path_3067" data-name="Path 3067" d="M235.614,298h-.881c-.121,0-.223.161-.229.358l-.275,8.151c0,.2.083.358.2.358h.881c.117,0,.222-.161.229-.358l.275-8.151C235.824,298.167,235.732,298,235.614,298Z" transform="translate(-161.853 -222.913)" fill="#f0f0f0"/>
      <rect id="Rectangle_389" data-name="Rectangle 389" width="6.52" height="10.704" transform="translate(42.858 83.958) rotate(180)" fill="#fafafa"/>
      <rect id="Rectangle_390" data-name="Rectangle 390" width="1.962" height="10.704" rx="0.981" transform="translate(41.95 73.258)" fill="#f0f0f0"/>
      <rect id="Rectangle_391" data-name="Rectangle 391" width="6.52" height="10.704" transform="translate(40.667 83.958) rotate(180)" fill="#fafafa"/>
      <rect id="Rectangle_392" data-name="Rectangle 392" width="1.962" height="10.704" rx="0.981" transform="translate(39.753 73.258)" fill="#e6e6e6"/>
      <path id="Path_3068" data-name="Path 3068" d="M105.1,292.08h5.627l-.448,10.7H105.1Z" transform="translate(-72.624 -218.822)" fill="#fafafa"/>
      <path id="Path_3069" data-name="Path 3069" d="M121.058,292.08h-1.313a.411.411,0,0,0-.343.433l-.4,9.839c0,.238.127.433.309.433h1.313a.411.411,0,0,0,.343-.433l.411-9.839C121.376,292.275,121.237,292.08,121.058,292.08Z" transform="translate(-82.229 -218.822)" fill="#f0f0f0"/>
      <rect id="Rectangle_393" data-name="Rectangle 393" width="4.545" height="11.504" transform="translate(31.744 83.961) rotate(180)" fill="#fafafa"/>
      <rect id="Rectangle_394" data-name="Rectangle 394" width="1.369" height="11.504" rx="0.684" transform="translate(31.107 72.454)" fill="#f0f0f0"/>
      <rect id="Rectangle_395" data-name="Rectangle 395" width="5.009" height="12.678" transform="translate(28.422 83.961) rotate(180)" fill="#fafafa"/>
      <rect id="Rectangle_396" data-name="Rectangle 396" width="1.508" height="12.678" rx="0.754" transform="translate(27.72 71.28)" fill="#f5f5f5"/>
      <path id="Path_3070" data-name="Path 3070" d="M71.62,285.68h4.323L75.6,298.361H71.62Z" transform="translate(-49.489 -214.4)" fill="#fafafa"/>
      <path id="Path_3071" data-name="Path 3071" d="M83.882,285.68h-1.01c-.139,0-.256.232-.263.513L82.3,297.848c0,.281.1.513.238.513h1c.139,0,.256-.232.263-.513l.309-11.655C84.123,285.912,84.018,285.68,83.882,285.68Z" transform="translate(-56.869 -214.4)" fill="#f0f0f0"/>
      <rect id="Rectangle_397" data-name="Rectangle 397" width="6.375" height="13.695" transform="translate(54.066 101.167) rotate(180)" fill="#fafafa"/>
      <rect id="Rectangle_398" data-name="Rectangle 398" width="1.919" height="13.695" rx="0.959" transform="translate(53.176 87.472)" fill="#f0f0f0"/>
      <rect id="Rectangle_399" data-name="Rectangle 399" width="6.375" height="13.695" transform="translate(51.921 101.167) rotate(180)" fill="#fafafa"/>
      <rect id="Rectangle_400" data-name="Rectangle 400" width="1.919" height="13.695" rx="0.959" transform="translate(51.028 87.472)" fill="#e6e6e6"/>
      <path id="Path_3072" data-name="Path 3072" d="M142.11,338.08h5.5l-.436,13.695H142.11Z" transform="translate(-98.198 -250.608)" fill="#fafafa"/>
      <path id="Path_3073" data-name="Path 3073" d="M157.694,338.08h-1.285c-.176,0-.328.247-.337.553l-.4,12.589c0,.309.124.553.309.553h1.285c.176,0,.309-.247.334-.553l.4-12.589C158,338.327,157.867,338.08,157.694,338.08Z" transform="translate(-107.568 -250.608)" fill="#f0f0f0"/>
      <rect id="Rectangle_401" data-name="Rectangle 401" width="5.509" height="11.921" transform="translate(43.696 101.167) rotate(180)" fill="#fafafa"/>
      <rect id="Rectangle_402" data-name="Rectangle 402" width="1.659" height="11.921" rx="0.83" transform="translate(42.926 89.245)" fill="#f0f0f0"/>
      <rect id="Rectangle_403" data-name="Rectangle 403" width="5.509" height="11.921" transform="translate(41.842 101.167) rotate(180)" fill="#fafafa"/>
      <rect id="Rectangle_404" data-name="Rectangle 404" width="1.659" height="11.921" rx="0.83" transform="translate(41.072 89.245)" fill="#e6e6e6"/>
      <path id="Path_3074" data-name="Path 3074" d="M113.02,343.82h4.752l-.377,11.921H113.02Z" transform="translate(-78.097 -254.575)" fill="#fafafa"/>
      <path id="Path_3075" data-name="Path 3075" d="M126.486,343.82h-1.109c-.151,0-.281.216-.29.482l-.346,10.957c0,.266.105.482.256.482h1.112c.151,0,.281-.216.287-.482l.349-10.957C126.755,344.036,126.637,343.82,126.486,343.82Z" transform="translate(-86.195 -254.575)" fill="#f0f0f0"/>
    </g>
    <g id="freepik--Shadow--inject-5" transform="translate(17.338 163.125)">
      <ellipse id="freepik--path--inject-5" cx="59.912" cy="3.498" rx="59.912" ry="3.498" fill="#f5f5f5"/>
    </g>
    <g id="freepik--Books--inject-5" transform="translate(24.903 134.144)">
      <path id="Path_3076" data-name="Path 3076" d="M130.237,395.853a.618.618,0,0,1-.618.81H86.576c-1.344,0-1.344-8.754,0-8.754h43.056a.618.618,0,0,1,.618.806A16.176,16.176,0,0,0,130.237,395.853Z" transform="translate(-84.03 -364.183)" fill="#5c9179"/>
      <path id="Path_3077" data-name="Path 3077" d="M169.794,391.22h-26.12c-1.029,0-1.029,6.708,0,6.708h26.12A17.14,17.14,0,0,1,169.794,391.22Z" transform="translate(-123.648 -366.472)" fill="#fff" opacity="0.8"/>
      <path id="Path_3078" data-name="Path 3078" d="M102.755,395.853a.618.618,0,0,1-.618.81H86.576c-1.344,0-1.344-8.754,0-8.754h15.574a.618.618,0,0,1,.618.806A16.177,16.177,0,0,0,102.755,395.853Z" transform="translate(-84.03 -364.183)" opacity="0.2"/>
      <path id="Path_3079" data-name="Path 3079" d="M100.1,387.91H96.546c-1.344,0-1.344,8.754,0,8.754H100.1C98.77,396.664,98.77,387.91,100.1,387.91Z" transform="translate(-90.919 -364.185)" fill="#5c9179"/>
      <path id="Path_3080" data-name="Path 3080" d="M114,387.91h-1.4c-1.344,0-1.344,8.754,0,8.754H114C112.649,396.664,112.649,387.91,114,387.91Z" transform="translate(-102.017 -364.185)" fill="#5c9179"/>
      <path id="Path_3081" data-name="Path 3081" d="M80.628,369.584c-.148.358.216.726.711.726h38.712c1.579,0,1.579-7.87,0-7.87H81.336c-.494,0-.859.365-.711.726A11.367,11.367,0,0,1,80.628,369.584Z" transform="translate(-80.592 -346.585)" fill="#263238"/>
      <path id="Path_3082" data-name="Path 3082" d="M80.628,369.584c-.148.358.216.726.711.726h18.982c1.579,0,1.579-7.87,0-7.87H81.336c-.494,0-.859.365-.711.726A11.367,11.367,0,0,1,80.628,369.584Z" transform="translate(-80.592 -346.585)" opacity="0.2"/>
      <path id="Path_3083" data-name="Path 3083" d="M80.93,365.41H99.779c1.208,0,1.208,6.032,0,6.032H80.93A11.875,11.875,0,0,0,80.93,365.41Z" transform="translate(-80.825 -348.638)" fill="#fff" opacity="0.8"/>
      <path id="Path_3084" data-name="Path 3084" d="M162.138,366.579c-.117-.349.222-.689.692-.689h10.837c1.15,0,1.15,5.735,0,5.735H162.83c-.47,0-.81-.337-.692-.686A8.683,8.683,0,0,0,162.138,366.579Z" transform="translate(-136.924 -348.969)" fill="#fff" opacity="0.2"/>
      <path id="Path_3085" data-name="Path 3085" d="M310.2,353.495a.72.72,0,0,1-.64.942H264.076c-1.421,0-1.421-10.2,0-10.2h45.485a.72.72,0,0,1,.64.927A21.1,21.1,0,0,0,310.2,353.495Z" transform="translate(-206.643 -334.009)" fill="#5c9179"/>
      <path id="Path_3086" data-name="Path 3086" d="M310.2,353.495a.72.72,0,0,1-.64.942H264.076c-1.421,0-1.421-10.2,0-10.2h45.485a.72.72,0,0,1,.64.927A21.1,21.1,0,0,0,310.2,353.495Z" transform="translate(-206.643 -334.009)" fill="#fff" opacity="0.5"/>
      <path id="Path_3087" data-name="Path 3087" d="M351.993,348.12H324.4c-1.088,0-1.088,7.805,0,7.805h27.6A21.656,21.656,0,0,1,351.993,348.12Z" transform="translate(-248.497 -336.69)" fill="#fff" opacity="0.8"/>
      <path id="Path_3088" data-name="Path 3088" d="M281.167,353.495a.72.72,0,0,1-.64.942H264.076c-1.421,0-1.421-10.2,0-10.2h16.451a.72.72,0,0,1,.64.927A21.339,21.339,0,0,0,281.167,353.495Z" transform="translate(-206.643 -334.009)" fill="#5c9179" opacity="0.6"/>
      <path id="Path_3089" data-name="Path 3089" d="M282.722,345.024a.55.55,0,0,0-.464-.754h-6.273c-1.421,0-1.421,10.2,0,10.2h6.273a.553.553,0,0,0,.464-.757A20.087,20.087,0,0,1,282.722,345.024Z" transform="translate(-214.873 -334.03)" fill="#fff" opacity="0.5"/>
      <path id="Path_3090" data-name="Path 3090" d="M294.07,388.145a.884.884,0,0,1-.908,1.112H245.9c-2.018,0-2.021-12.051,0-12.051H293.18a.884.884,0,0,1,.908,1.112A20.523,20.523,0,0,0,294.07,388.145Z" transform="translate(-193.775 -356.787)" fill="#5c9179"/>
      <path id="Path_3091" data-name="Path 3091" d="M294.07,388.145a.884.884,0,0,1-.908,1.112H245.9c-2.018,0-2.021-12.051,0-12.051H293.18a.884.884,0,0,1,.908,1.112A20.523,20.523,0,0,0,294.07,388.145Z" transform="translate(-193.775 -356.787)" fill="#fff" opacity="0.2"/>
      <path id="Path_3092" data-name="Path 3092" d="M338.382,381.77H309.809c-1.545,0-1.545,9.233,0,9.233h28.576A21.783,21.783,0,0,1,338.382,381.77Z" transform="translate(-238.18 -359.942)" fill="#fff" opacity="0.8"/>
      <path id="Path_3093" data-name="Path 3093" d="M263.451,388.165a.881.881,0,0,1-.905,1.112H245.9c-2.018,0-2.021-12.051,0-12.051h16.643a.884.884,0,0,1,.908,1.112A20.758,20.758,0,0,0,263.451,388.165Z" transform="translate(-193.775 -356.801)" fill="#5c9179" opacity="0.6"/>
      <path id="Path_3094" data-name="Path 3094" d="M263.524,377.655a.278.278,0,0,0-.266-.417h-2.827c-2.015,0-2.015,12.051,0,12.051h2.84a.278.278,0,0,0,.266-.417C262.31,387.008,262.31,379.515,263.524,377.655Z" transform="translate(-203.817 -356.809)" fill="#fff" opacity="0.5"/>
      <path id="Path_3095" data-name="Path 3095" d="M277.8,377.648a.281.281,0,0,0-.266-.42h-2.827c-2.015,0-2.015,12.051,0,12.051h2.827a.278.278,0,0,0,.263-.417C276.59,387,276.59,379.505,277.8,377.648Z" transform="translate(-213.684 -356.803)" fill="#fff" opacity="0.5"/>
      <path id="Path_3096" data-name="Path 3096" d="M402.336,317.646a7.513,7.513,0,0,0-.6-2.491l.278-.136a7.817,7.817,0,0,1,.618,2.6Z" transform="translate(-302.505 -313.818)" fill="#5c9179"/>
      <rect id="Rectangle_405" data-name="Rectangle 405" width="7.676" height="0.309" transform="translate(90.218)" fill="#5c9179"/>
      <path id="Path_3097" data-name="Path 3097" d="M235.43,322.945c-.158.42.229.844.751.844h49.273c1.666,0,1.666-9.159,0-9.159H236.181c-.522,0-.908.426-.751.847A14.57,14.57,0,0,1,235.43,322.945Z" transform="translate(-187.561 -313.548)" fill="#5c9179"/>
      <path id="Path_3098" data-name="Path 3098" d="M235.43,322.945c-.158.42.229.844.751.844h28.428c1.669,0,1.669-9.159,0-9.159H236.181c-.522,0-.908.426-.751.847A14.57,14.57,0,0,1,235.43,322.945Z" transform="translate(-187.561 -313.548)" opacity="0.2"/>
      <path id="Path_3099" data-name="Path 3099" d="M235.75,318.1h28.28c1.279,0,1.279,7.017,0,7.017H235.75A15.211,15.211,0,0,0,235.75,318.1Z" transform="translate(-187.806 -315.946)" fill="#fff" opacity="0.8"/>
      <path id="Path_3100" data-name="Path 3100" d="M348.635,319.457a.668.668,0,0,1,.729-.8h11.452c1.214,0,1.214,6.671,0,6.671H349.364a.669.669,0,0,1-.729-.8A10.75,10.75,0,0,0,348.635,319.457Z" transform="translate(-265.793 -316.333)" fill="#fff" opacity="0.2"/>
    </g>
    <g id="freepik--Character--inject-5" transform="translate(53.52 64.478)">
      <path id="Path_3101" data-name="Path 3101" d="M195.437,89.482c-1.394,1.492-4.8,0-5.315,4.11-.562,4.431,1.57,6.56-1.183,7.725-4.326,1.808-7.416,9.032-1.409,11.742s18.8-.13,17.36-5.652-1.156-8.485.544-11.087c2.24-3.439,1.761-7.858-.065-9.459C202.526,84.359,198.6,86.083,195.437,89.482Z" transform="translate(-180.792 -85.673)" fill="#263238"/>
      <path id="Path_3102" data-name="Path 3102" d="M244.443,109.918a.1.1,0,0,1-.015-.192,3.181,3.181,0,0,0,2.237-.927c.414-.584.235-1.452,0-2.552a10.027,10.027,0,0,1,.739-7.336c1.95-3.754,1.236-7.87-.59-9.217a.1.1,0,0,1-.022-.133.1.1,0,0,1,.136-.022c1.9,1.394,2.639,5.621.646,9.462a9.876,9.876,0,0,0-.72,7.209c.235,1.143.42,2.049-.043,2.7a3.328,3.328,0,0,1-2.364,1.007Z" transform="translate(-222.363 -88.333)" fill="#263238"/>
      <path id="Path_3103" data-name="Path 3103" d="M192.745,115.4a4.943,4.943,0,0,1-.584-.037.1.1,0,1,1,.025-.192,2.392,2.392,0,0,0,1.944-.4c.8-.708.816-2.188.825-3.9,0-1.941.028-4.138,1.285-5.636a.1.1,0,0,1,.148.124c-1.214,1.446-1.236,3.606-1.236,5.516,0,1.758-.022,3.278-.89,4.045A2.206,2.206,0,0,1,192.745,115.4Z" transform="translate(-186.245 -99.165)" fill="#263238"/>
      <path id="Path_3104" data-name="Path 3104" d="M277.734,308.453c-2.061-.025-2.871-.155-3.819-.139s-1.174.182-2.163.139c-.667-.028-.671-.822-.414-1.366.2-.426.448-.856.677-1.387l2.614.192c.352.995,2.1,1.421,3.634,1.774C278.871,307.81,278.559,308.462,277.734,308.453Z" transform="translate(-240.905 -237.712)" fill="#5c9179"/>
      <path id="Path_3105" data-name="Path 3105" d="M228.393,190.7s6.915,5.948,13.9,12.258c2.954,2.673-3.241,23.051-3.241,23.051-.13.436-2.435-.185-2.781-.528,0,0-.352-15.818,1.146-19-15.5-3.918-17.922-11.529-17.922-11.529l1.112-4.722Z" transform="translate(-205.195 -157.922)" fill="#263238"/>
      <path id="Path_3106" data-name="Path 3106" d="M222.81,208.249a16.49,16.49,0,0,0,3.056,3.238c1.545-1.808,1.112-4.728,1.112-4.728Z" transform="translate(-207.482 -169.344)" opacity="0.2"/>
      <path id="Path_3107" data-name="Path 3107" d="M276.314,301.733c-.043.309-.117.856-.158,1.261a.26.26,0,0,1-.266.235,16.586,16.586,0,0,1-3.059-.531.232.232,0,0,1-.17-.219l-.022-1.128a.263.263,0,0,1,.287-.263l3.189.386a.226.226,0,0,1,.2.26Z" transform="translate(-241.914 -234.524)" fill="#263238"/>
      <path id="Path_3108" data-name="Path 3108" d="M276.314,301.733c-.043.309-.117.856-.158,1.261a.26.26,0,0,1-.266.235,16.586,16.586,0,0,1-3.059-.531.232.232,0,0,1-.17-.219l-.022-1.128a.263.263,0,0,1,.287-.263l3.189.386a.226.226,0,0,1,.2.26Z" transform="translate(-241.914 -234.524)" fill="#fff" opacity="0.3"/>
      <path id="Path_3109" data-name="Path 3109" d="M179.775,353.588c-2.1,0-2.781-.788-3.952-1-.989-.185-1.251-.1-2.049-.238-.667-.117-.72-.575-.309-1.251a9.423,9.423,0,0,0,.68-1.465l3.177.21c.331.85,1.094,2.577,2.259,2.781C180.678,352.834,180.61,353.588,179.775,353.588Z" transform="translate(-173.204 -268.067)" fill="#5c9179"/>
      <path id="Path_3110" data-name="Path 3110" d="M197.9,190.256s-7.308,12.993-10.25,21.031c-3.09,8.442-8.009,22.248-8.365,27.98a5.8,5.8,0,0,1-3.177-.21s-.859-19.776,5.089-27.7c1.418-16.967,3.773-19.68,6.276-21.747Z" transform="translate(-175.185 -157.494)" fill="#263238"/>
      <path id="Path_3111" data-name="Path 3111" d="M179.141,345.316a8.364,8.364,0,0,0-.031,1.177.26.26,0,0,1-.241.275,11.919,11.919,0,0,1-3.356-.4.229.229,0,0,1-.173-.216l-.04-1.106a.263.263,0,0,1,.281-.266l3.35.287a.229.229,0,0,1,.21.25Z" transform="translate(-174.652 -264.715)" fill="#263238"/>
      <path id="Path_3112" data-name="Path 3112" d="M179.141,345.316a8.364,8.364,0,0,0-.031,1.177.26.26,0,0,1-.241.275,11.919,11.919,0,0,1-3.356-.4.229.229,0,0,1-.173-.216l-.04-1.106a.263.263,0,0,1,.281-.266l3.35.287a.229.229,0,0,1,.21.25Z" transform="translate(-174.652 -264.715)" fill="#fff" opacity="0.3"/>
      <path id="Path_3113" data-name="Path 3113" d="M245.715,148.5c.309.584.643,1.236.983,1.854s.683,1.236,1.029,1.839c.7,1.214,1.428,2.4,2.209,3.526l-.42-.374a3.687,3.687,0,0,0,1.014.5,8.685,8.685,0,0,0,1.341.334c.476.087.97.145,1.474.192s1.032.074,1.514.105h.065a.865.865,0,0,1,.226,1.684,11.777,11.777,0,0,1-1.69.426,12.851,12.851,0,0,1-1.743.189,9.462,9.462,0,0,1-1.854-.111,6.146,6.146,0,0,1-1.978-.655,1.183,1.183,0,0,1-.337-.275l-.083-.1c-.491-.587-.97-1.187-1.409-1.8s-.868-1.236-1.267-1.854-.785-1.276-1.15-1.928-.711-1.3-1.041-2.012a1.73,1.73,0,0,1,3.09-1.545Z" transform="translate(-221.058 -128.482)" fill="#ffb573"/>
      <path id="Path_3114" data-name="Path 3114" d="M243.582,142.38c2.018.664,2.345,1.57,3.452,4.913-.735,2.005-3.708,3.022-3.708,3.022S239.815,144.6,243.582,142.38Z" transform="translate(-220.63 -124.858)" fill="#5c9179"/>
      <path id="Path_3115" data-name="Path 3115" d="M225.21,143.9a45.048,45.048,0,0,1-.995,5.018c-.464,2.2-.47,6.489-1.211,6.715-1.424.7-4.99.433-11.214-1.489a46.524,46.524,0,0,0-.5-12.768,2.639,2.639,0,0,1,2.688-3.09c.451,0,.927.037,1.412.08a35.687,35.687,0,0,1,5.092.677c.547.124,1.112.269,1.65.417A4.258,4.258,0,0,1,225.21,143.9Z" transform="translate(-199.496 -122.028)" fill="#5c9179"/>
      <path id="Path_3116" data-name="Path 3116" d="M180.488,187.863l.618-.565a.973.973,0,0,0,.309-.84l-.17-1.474a1.836,1.836,0,0,0-.927-1.4l-.309-.176a6.24,6.24,0,0,0-1.656,2.617l-.213.482a.816.816,0,0,0,.392,1.094l.949.433A.942.942,0,0,0,180.488,187.863Z" transform="translate(-176.559 -153.209)" fill="#ffb573"/>
      <path id="Path_3117" data-name="Path 3117" d="M282.557,172.968l-.791-.309a.976.976,0,0,0-.893.105l-1.236.828a1.826,1.826,0,0,0-.807,1.474v.368a6.24,6.24,0,0,0,3.09.266l.525-.031a.819.819,0,0,0,.791-.853l-.049-1.041A.927.927,0,0,0,282.557,172.968Z" transform="translate(-246.192 -145.737)" fill="#ffb573"/>
      <path id="Path_3118" data-name="Path 3118" d="M193.388,143.981l-.4.182-.433.2c-.287.139-.572.284-.856.433-.572.309-1.128.618-1.675.942s-1.075.686-1.588,1.054a18.042,18.042,0,0,0-1.452,1.18l.2-.26a4.912,4.912,0,0,0-.4.7c-.136.281-.263.587-.386.9-.247.618-.488,1.279-.711,1.944s-.448,1.338-.667,2.012l-.667,2.03h0a.865.865,0,0,1-1.687-.309c.034-.745.1-1.468.185-2.2s.188-1.455.309-2.185a22.34,22.34,0,0,1,.479-2.2c.1-.371.207-.742.343-1.131a7.107,7.107,0,0,1,.55-1.236,1.31,1.31,0,0,1,.133-.182l.074-.077a17.453,17.453,0,0,1,1.632-1.579,19.612,19.612,0,0,1,1.786-1.35,20.505,20.505,0,0,1,1.9-1.143c.328-.173.658-.337,1-.5.17-.077.337-.158.513-.232s.337-.139.556-.222a1.727,1.727,0,1,1,1.335,3.186Z" transform="translate(-179.75 -123.637)" fill="#ffb573"/>
      <path id="Path_3119" data-name="Path 3119" d="M213.175,139.075c-1.514-1.085-2.435-1.2-6.1.389-.436,2.305.992,5.689.992,5.689S212.943,142.614,213.175,139.075Z" transform="translate(-196.552 -122.014)" fill="#5c9179"/>
      <path id="Path_3120" data-name="Path 3120" d="M226.4,120.11c.226,1.7.371,4.771-.84,5.723,0,0,1.582-.028,4.607,2.447,1.134-1.236.485-1.771.485-1.771-1.8-.683-1.675-2.046-1.282-3.291Z" transform="translate(-209.382 -109.469)" fill="#ffb573"/>
      <path id="Path_3121" data-name="Path 3121" d="M227.945,139.4c-1.1,0-1.662,1.6-1.662,1.6s-2.651-2.114-3.013-3.6a11.127,11.127,0,0,0,1.032-.479A22.758,22.758,0,0,1,227.945,139.4Z" transform="translate(-207.8 -121.085)" fill="#fff"/>
      <path id="Path_3122" data-name="Path 3122" d="M240.942,141.539a2.053,2.053,0,0,1,1.109,1.545c.565-2.355-.538-2.725-.538-2.725a1.391,1.391,0,0,0-.964-.272A1.171,1.171,0,0,1,240.942,141.539Z" transform="translate(-219.74 -123.269)" fill="#fff"/>
      <path id="Path_3123" data-name="Path 3123" d="M231.98,124.21l1.755,1.854a5.082,5.082,0,0,0-.207.89,2.508,2.508,0,0,1-1.638-1.854A2.441,2.441,0,0,1,231.98,124.21Z" transform="translate(-213.751 -112.302)" opacity="0.2"/>
      <path id="Path_3124" data-name="Path 3124" d="M221.856,102.331c.618,2.639.844,3.767,2.429,4.972,2.382,1.811,5.476.637,5.642-2.1.148-2.472-.908-6.365-3.708-7.107a3.479,3.479,0,0,0-4.363,4.23Z" transform="translate(-206.741 -94.159)" fill="#ffb573"/>
      <path id="Path_3125" data-name="Path 3125" d="M218.917,101.933c.97-.476,2-2.815.618-3.921a4.608,4.608,0,0,0,3.655-1.026c1.576-1.236,3.9,1.832,3.133.031-1.1-2.6-4.416-3.244-7.416-1.088S216.12,100.709,218.917,101.933Z" transform="translate(-203.286 -91.864)" fill="#263238"/>
      <path id="Path_3126" data-name="Path 3126" d="M221.031,113.968a.049.049,0,0,1-.019-.093c.773-.334,4.051-1.032,4.19-1.06a.046.046,0,0,1,.059.037.049.049,0,0,1-.037.056c-.034,0-3.4.726-4.175,1.057Z" transform="translate(-206.221 -104.428)" fill="#fff"/>
      <path id="Path_3127" data-name="Path 3127" d="M231.664,112.74a1.372,1.372,0,0,0-1.044-.025A2.706,2.706,0,0,0,231.664,112.74Z" transform="translate(-212.879 -104.297)" opacity="0.2"/>
      <path id="Path_3128" data-name="Path 3128" d="M231.837,113.705a1.131,1.131,0,0,0-.927.213,2.281,2.281,0,0,0,.927-.213Z" transform="translate(-213.079 -105.027)" opacity="0.2"/>
      <path id="Path_3129" data-name="Path 3129" d="M235.834,111.9c.043.226.195.392.34.374s.226-.213.182-.439-.2-.389-.34-.374S235.791,111.674,235.834,111.9Z" transform="translate(-216.474 -103.49)" fill="#263238"/>
      <path id="Path_3130" data-name="Path 3130" d="M244.614,110.946c.043.222.2.389.34.374s.226-.216.182-.439-.195-.392-.34-.374S244.571,110.72,244.614,110.946Z" transform="translate(-222.54 -102.832)" fill="#263238"/>
      <path id="Path_3131" data-name="Path 3131" d="M245,110.082l.5-.222S245.309,110.314,245,110.082Z" transform="translate(-222.815 -102.386)" fill="#263238"/>
      <path id="Path_3132" data-name="Path 3132" d="M243,113.32a6.766,6.766,0,0,0,.983,1.394.927.927,0,0,1-.769.2Z" transform="translate(-221.433 -104.777)" fill="#ed893e"/>
      <path id="Path_3133" data-name="Path 3133" d="M236.928,120.215a2.2,2.2,0,0,0,.374,0,.062.062,0,0,0,.053-.074.071.071,0,0,0-.077-.059,1.9,1.9,0,0,1-1.545-.516.065.065,0,0,0-.093,0,.068.068,0,0,0,0,.093A1.987,1.987,0,0,0,236.928,120.215Z" transform="translate(-216.334 -109.08)" fill="#263238"/>
      <path id="Path_3134" data-name="Path 3134" d="M219.476,115.927a1.872,1.872,0,0,0,1.289.782c.643.053.782-.7.454-1.36-.294-.6-.983-1.347-1.545-1.088A1.117,1.117,0,0,0,219.476,115.927Z" transform="translate(-204.989 -105.392)" fill="#ffb573"/>
      <path id="Path_3135" data-name="Path 3135" d="M232.73,105.839a.114.114,0,0,0,.09-.043.98.98,0,0,1,.847-.374.124.124,0,0,0,.142-.111.148.148,0,0,0-.121-.151,1.236,1.236,0,0,0-1.075.46.139.139,0,0,0,.117.219Z" transform="translate(-214.238 -99.135)" fill="#263238"/>
      <path id="Path_3136" data-name="Path 3136" d="M243.718,105.348a.124.124,0,0,0,.093-.028.13.13,0,0,0,0-.185,1.394,1.394,0,0,0-1.119-.525.121.121,0,0,0-.108.145.142.142,0,0,0,.148.121,1.109,1.109,0,0,1,.884.423A.133.133,0,0,0,243.718,105.348Z" transform="translate(-221.144 -98.758)" fill="#263238"/>
      <path id="Path_3137" data-name="Path 3137" d="M235.692,109.963c-.652,0-1.217-.692-1.279-1.579a1.978,1.978,0,0,1,.275-1.2,1.094,1.094,0,0,1,.837-.553c.683-.046,1.282.661,1.347,1.579a1.5,1.5,0,0,1-1.115,1.746Zm-.1-3.217h-.056a1.011,1.011,0,0,0-.766.51,1.876,1.876,0,0,0-.26,1.137c.059.862.618,1.526,1.236,1.486s1.085-.782,1.026-1.644S236.192,106.746,235.59,106.746Z" transform="translate(-215.494 -100.156)" fill="#fff"/>
      <path id="Path_3138" data-name="Path 3138" d="M245.036,109.43a1.529,1.529,0,0,1-1.282-1.576,2,2,0,0,1,.275-1.2,1.1,1.1,0,0,1,.84-.553c.677-.046,1.282.661,1.344,1.576a2,2,0,0,1-.275,1.2,1.094,1.094,0,0,1-.84.553Zm-.1-3.229h-.059a1.011,1.011,0,0,0-.766.51,1.919,1.919,0,0,0-.26,1.137c.059.834.584,1.486,1.187,1.486h.056a1,1,0,0,0,.766-.51,1.891,1.891,0,0,0,.26-1.134c-.059-.837-.584-1.489-1.183-1.489Z" transform="translate(-221.949 -99.79)" fill="#fff"/>
      <path id="Path_3139" data-name="Path 3139" d="M242.7,111.728a.049.049,0,0,1-.04-.025c-.117-.185-.46.015-.464.015a.046.046,0,0,1-.065-.015.049.049,0,0,1,0-.065c.019,0,.426-.253.593,0a.043.043,0,0,1-.015.065A.034.034,0,0,1,242.7,111.728Z" transform="translate(-220.826 -103.537)" fill="#fff"/>
      <path id="Path_3140" data-name="Path 3140" d="M236.25,111.039l.5-.219S236.559,111.274,236.25,111.039Z" transform="translate(-216.769 -103.05)" fill="#263238"/>
    </g>
  </g>
</svg>
