<svg xmlns="http://www.w3.org/2000/svg" xmlns:xlink="http://www.w3.org/1999/xlink" width="130.571" height="119.601" viewBox="0 0 130.571 119.601">
  <defs>
    <clipPath id="clip-path">
      <path id="Intersection_3" data-name="Intersection 3" d="M.438,6.634A12.788,12.788,0,0,1,.438,0H14.292c-1.457,2.426,0,6.634,0,6.634Zm.124-.162H14.068C13.8,5.6,12.916,2.345,14.015.162H.545A12.926,12.926,0,0,0,.561,6.472Z" transform="translate(0 0)" fill="none"/>
    </clipPath>
    <clipPath id="clip-path-2">
      <path id="Intersection_4" data-name="Intersection 4" d="M.436,6.635A12.826,12.826,0,0,1,.436,0h13.64c-1.457,2.426,0,6.635,0,6.635Zm.127-.166H13.852C13.582,5.594,12.7,2.342,13.8.159H.56A12.926,12.926,0,0,0,.563,6.469Z" transform="translate(0)" fill="none"/>
    </clipPath>
  </defs>
  <g id="Book_lover-bro" data-name="Book lover-bro" transform="translate(-53.858 -56.372)">
    <g id="freepik--background-simple--inject-33" transform="translate(54.238 56.372)">
      <path id="Path_3141" data-name="Path 3141" d="M170.8,74.414s-7.948-15.448-25.5-17.738-29.787,8.869-42.711,14.593c-6.765,3-14.492,1.831-21.673,3.281C57.944,79.189,49.3,108.244,58.868,124.768c8.28,14.31,22.85,21.744,45.04,23.461s37.755,3.717,57.629-10.3S180.081,94.728,170.8,74.414Z" transform="translate(-55.026 -56.372)" fill="#57795d"/>
      <path id="Path_3142" data-name="Path 3142" d="M170.8,74.414s-7.948-15.448-25.5-17.738-29.787,8.869-42.711,14.593c-6.765,3-14.492,1.831-21.673,3.281C57.944,79.189,49.3,108.244,58.868,124.768c8.28,14.31,22.85,21.744,45.04,23.461s37.755,3.717,57.629-10.3S180.081,94.728,170.8,74.414Z" transform="translate(-55.026 -56.372)" fill="#fff" opacity="0.8"/>
    </g>
    <g id="freepik--Books--inject-33" transform="translate(61.167 60.556)">
      <path id="Path_3143" data-name="Path 3143" d="M360.173,168.067h0c-.133,0-13.3-.237-13.659-.237a3.152,3.152,0,0,1-2-.517,22.775,22.775,0,0,1-1.665-2.14.176.176,0,0,1-.026-.133l3.415-14.245a.163.163,0,0,1,.2-.12.159.159,0,0,1,.12.2l-3.392,14.173c.215.3,1.181,1.626,1.587,2.039a2.924,2.924,0,0,0,1.769.423c.335,0,12,.208,13.516.234l2.6-17.282a.164.164,0,1,1,.325.046l-2.618,17.425A.163.163,0,0,1,360.173,168.067Z" transform="translate(-256.152 -123.947)" fill="#263238"/>
      <path id="Path_3144" data-name="Path 3144" d="M360.006,143.425h0l-1.083-.02a.166.166,0,0,1-.163-.166.176.176,0,0,1,.166-.159l1.086.02a.163.163,0,0,1,0,.325Z" transform="translate(-266.909 -119.065)" fill="#263238"/>
      <path id="Path_3145" data-name="Path 3145" d="M345.163,160.681a.163.163,0,1,1,0-.325l14.228-.046,3-16.586-10.345-.189a.163.163,0,0,1-.159-.163.182.182,0,0,1,.166-.163l10.534.192a.163.163,0,0,1,.124.062.169.169,0,0,1,.036.13l-3.06,16.911a.159.159,0,0,1-.159.133l-14.365.049Z" transform="translate(-257.624 -119.153)" fill="#263238"/>
      <path id="Path_3146" data-name="Path 3146" d="M362.64,167.242h0l-13.773-.351a.182.182,0,0,1-.117-.055l-1.177-1.3a.166.166,0,0,1,0-.231.159.159,0,0,1,.228,0l1.132,1.242,13.562.348,2.459-14.9-1.011-1.421a.159.159,0,0,1,.036-.228.163.163,0,0,1,.228.039l1.08,1.493a.166.166,0,0,1,.026.124l-2.491,15.1a.163.163,0,0,1-.179.137Z" transform="translate(-259.329 -123.949)" fill="#263238"/>
      <path id="Path_3147" data-name="Path 3147" d="M352.68,199.09h1.994s-.325,1.581-.5,3.073-.25,3.408-.25,3.408l-1.161-2.163-1.415,1.831Z" transform="translate(-261.909 -156.86)" fill="#263238"/>
      <path id="Path_3148" data-name="Path 3148" d="M84.062,181.138a.159.159,0,0,1-.15-.1.166.166,0,0,1,.088-.215l8.42-3.392a14.841,14.841,0,0,0,.452-1.509,1.584,1.584,0,0,0-.413-1.008c-.12-.169-4.1-5.987-4.748-6.924L78.019,172.9a.159.159,0,0,1-.218-.068.163.163,0,0,1,.072-.221l9.818-4.976a.166.166,0,0,1,.208.052c.049.068,4.7,6.862,4.823,7.038a1.89,1.89,0,0,1,.472,1.249,16.293,16.293,0,0,1-.488,1.626.169.169,0,0,1-.094.1l-8.488,3.418A.15.15,0,0,1,84.062,181.138Z" transform="translate(-77.311 -135.623)" fill="#263238"/>
      <path id="Path_3149" data-name="Path 3149" d="M89.747,207.6a.163.163,0,0,1-.133-.072l-.384-.559a.164.164,0,1,1,.27-.185l.384.563a.166.166,0,0,1-.042.224A.169.169,0,0,1,89.747,207.6Z" transform="translate(-85.016 -162.003)" fill="#263238"/>
      <path id="Path_3150" data-name="Path 3150" d="M80.212,184.212a.163.163,0,0,1-.133-.072l-3.717-5.434a.163.163,0,0,1-.023-.133.166.166,0,0,1,.088-.1l9.714-4.553a.159.159,0,0,1,.2.052l5.226,7.295a.166.166,0,0,1-.036.228.163.163,0,0,1-.228-.039l-5.148-7.194-9.431,4.423,3.61,5.278a.163.163,0,0,1-.046.224A.153.153,0,0,1,80.212,184.212Z" transform="translate(-76.333 -139.861)" fill="#263238"/>
      <path id="Path_3151" data-name="Path 3151" d="M93.628,178.172H93.6a.166.166,0,0,1-.127-.192l.221-1-4.68-6.969-8.391,4.108-.348,1.028a.166.166,0,0,1-.208.1.163.163,0,0,1-.1-.2l.371-1.093a.166.166,0,0,1,.081-.094l8.592-4.2a.163.163,0,0,1,.208.055l4.807,7.155a.153.153,0,0,1,.026.124l-.234,1.07A.163.163,0,0,1,93.628,178.172Z" transform="translate(-78.777 -136.985)" fill="#263238"/>
      <path id="Path_3152" data-name="Path 3152" d="M119.032,184.592l-.722-1.015s.924-.4,1.746-.862,1.824-1.106,1.824-1.106l-.68,1.376,1.441.055Z" transform="translate(-104.658 -145.065)" fill="#263238"/>
      <path id="Path_3153" data-name="Path 3153" d="M100.01,235.647h-.02a.172.172,0,0,1-.124-.088l-5.952-11.383a.172.172,0,0,1,0-.127.166.166,0,0,1,.081-.094l.673-.325a.163.163,0,0,1,.146.289l-.524.263,5.766,11.035,9.812-10.453a.15.15,0,0,1,.068-.042l11.958-3.691-5.916-9.431-.436.033a.159.159,0,0,1-.176-.15.163.163,0,0,1,.15-.172l.537-.042a.156.156,0,0,1,.15.075l6.078,9.7a.163.163,0,0,1,0,.143.169.169,0,0,1-.1.1l-12.121,3.737L100.13,235.6a.169.169,0,0,1-.12.046Z" transform="translate(-88.189 -165.077)" fill="#263238"/>
      <path id="Path_3154" data-name="Path 3154" d="M100.941,239.546h-.026a.159.159,0,0,1-.114-.085L95.11,228.6a.159.159,0,0,1,.042-.2,15.35,15.35,0,0,0,3.961-5.243c1.164-2.8,3.168-4.186,5.36-3.717a.159.159,0,0,1,.107.081l5.3,9.571a.163.163,0,0,1-.179.237,2.156,2.156,0,0,0-2.651,1.561c-.507,2.153-2.729,4.924-3.8,6.254l-.117.15a19.464,19.464,0,0,1-2.091,2.218A.166.166,0,0,1,100.941,239.546Zm-5.486-10.989,5.529,10.563a19.332,19.332,0,0,0,1.9-2.039l.117-.15c1.054-1.3,3.252-4.042,3.73-6.124a2.38,2.38,0,0,1,2.706-1.847l-5.106-9.227c-2-.387-3.831.93-4.921,3.542A15.589,15.589,0,0,1,95.455,228.557Z" transform="translate(-88.99 -170.527)" fill="#263238"/>
      <path id="Path_3155" data-name="Path 3155" d="M128.81,221.926a.163.163,0,0,1-.143-.081l-5.3-9.574a.185.185,0,0,1,0-.111c.384-1.789,2.348-2.6,6.368-2.6,3.509,0,4.93-1.115,4.943-1.125a.169.169,0,0,1,.13-.036.166.166,0,0,1,.111.075l5.952,9.7a.166.166,0,0,1-.049.221,17.923,17.923,0,0,1-2.888,1.054,15.036,15.036,0,0,1-5.09.407,16,16,0,0,0-1.8,0c-1.424.117-2.052,1.951-2.059,1.951a.163.163,0,0,1-.14.111Zm-5.132-9.757,5.109,9.223A2.923,2.923,0,0,1,131,219.535a16.7,16.7,0,0,1,1.841,0,14.83,14.83,0,0,0,4.979-.39,25.557,25.557,0,0,0,2.664-.943l-5.766-9.405a9.257,9.257,0,0,1-5,1.093C125.922,209.892,124.055,210.608,123.678,212.169Z" transform="translate(-108.062 -163.138)" fill="#263238"/>
      <path id="Path_3156" data-name="Path 3156" d="M125.474,257.845a.162.162,0,0,1-.1-.033.166.166,0,0,1-.026-.231c.628-.787,1.125-1.483,1.564-2.1a11.841,11.841,0,0,1,1.691-2.062,7.952,7.952,0,0,1,1.854-1.19.159.159,0,0,1,.211.085.166.166,0,0,1-.085.215,7.714,7.714,0,0,0-1.769,1.138,11.431,11.431,0,0,0-1.626,2.007c-.442.618-.943,1.3-1.577,2.111A.162.162,0,0,1,125.474,257.845Z" transform="translate(-109.383 -192.71)" fill="#263238"/>
      <path id="Path_3157" data-name="Path 3157" d="M144.167,243.979a.146.146,0,0,1-.1-.036.163.163,0,0,1-.029-.228,3.828,3.828,0,0,1,2.442-1.356l.582-.046a22.613,22.613,0,0,0,7.265-1.626.164.164,0,0,1,.117.306,23.091,23.091,0,0,1-7.357,1.646l-.579.046a3.516,3.516,0,0,0-2.215,1.233A.172.172,0,0,1,144.167,243.979Z" transform="translate(-121.998 -184.921)" fill="#263238"/>
      <path id="Path_3158" data-name="Path 3158" d="M101.21,235.908a.163.163,0,0,1-.12-.273,43.94,43.94,0,0,0,3.09-3.994c1.838-2.621,3.187-3.691,4.66-3.691a.163.163,0,1,1,0,.325c-1.353,0-2.628,1.031-4.394,3.555a45.284,45.284,0,0,1-3.116,4.026A.163.163,0,0,1,101.21,235.908Z" transform="translate(-93.009 -176.334)" fill="#263238"/>
      <path id="Path_3159" data-name="Path 3159" d="M104.4,241.078a.163.163,0,0,1-.111-.042.159.159,0,0,1,0-.228,45.285,45.285,0,0,0,3.093-4c1.834-2.621,3.184-3.691,4.66-3.691a.166.166,0,0,1,.163.163.163.163,0,0,1-.163.163c-1.356,0-2.628,1.031-4.4,3.555a45.288,45.288,0,0,1-3.116,4.026A.163.163,0,0,1,104.4,241.078Z" transform="translate(-95.166 -179.822)" fill="#263238"/>
      <path id="Path_3160" data-name="Path 3160" d="M107.576,246.248a.163.163,0,0,1-.12-.27,45.491,45.491,0,0,0,3.093-3.994c1.834-2.625,3.184-3.695,4.66-3.695a.166.166,0,0,1,.163.163.163.163,0,0,1-.163.163c-1.356,0-2.628,1.031-4.394,3.555A45.62,45.62,0,0,1,107.7,246.2.159.159,0,0,1,107.576,246.248Z" transform="translate(-97.307 -183.311)" fill="#263238"/>
      <path id="Path_3161" data-name="Path 3161" d="M110.768,251.425a.15.15,0,0,1-.107-.042.159.159,0,0,1,0-.228,44.727,44.727,0,0,0,3.093-3.994c1.834-2.625,3.184-3.691,4.66-3.691a.163.163,0,1,1,0,.325c-1.356,0-2.628,1.028-4.394,3.551a44.271,44.271,0,0,1-3.119,4.026.159.159,0,0,1-.133.052Z" transform="translate(-99.464 -186.806)" fill="#263238"/>
      <path id="Path_3162" data-name="Path 3162" d="M130.245,219.454h-.055a.166.166,0,0,1-.1-.208,2.659,2.659,0,0,1,2.6-1.532c3.789,0,6.247-.585,6.573-1.571a.171.171,0,0,1,.325.1c-.517,1.561-4.534,1.792-6.882,1.792a2.327,2.327,0,0,0-2.306,1.317A.163.163,0,0,1,130.245,219.454Z" transform="translate(-112.602 -168.287)" fill="#263238"/>
      <path id="Path_3163" data-name="Path 3163" d="M133.824,225.416a.169.169,0,0,1-.1-.033.163.163,0,0,1-.026-.228c.039-.052.976-1.229,3.49-1.229,2.7,0,4.709-.634,5.968-1.893a.162.162,0,0,1,.228.231c-1.317,1.32-3.4,2-6.2,2a4.143,4.143,0,0,0-3.233,1.1A.163.163,0,0,1,133.824,225.416Z" transform="translate(-115.018 -172.31)" fill="#263238"/>
      <path id="Path_3164" data-name="Path 3164" d="M136.213,231.115a.176.176,0,0,1-.068-.016.159.159,0,0,1-.078-.215,3.379,3.379,0,0,1,3.122-1.776c2.719,0,5.1-.569,6.371-1.519a.159.159,0,0,1,.228.033.166.166,0,0,1-.033.228c-1.909,1.428-5.23,1.584-6.566,1.584a3.064,3.064,0,0,0-2.829,1.587.159.159,0,0,1-.146.094Z" transform="translate(-116.63 -176.068)" fill="#263238"/>
      <path id="Path_3165" data-name="Path 3165" d="M138.994,236.023a.117.117,0,0,1-.046,0,.166.166,0,0,1-.111-.2c.02-.059.449-1.4,2.735-1.538a21.536,21.536,0,0,0,6.93-1.538.163.163,0,1,1,.13.3,21.705,21.705,0,0,1-7.041,1.568c-2.046.12-2.426,1.259-2.442,1.3A.163.163,0,0,1,138.994,236.023Z" transform="translate(-118.506 -179.555)" fill="#263238"/>
      <path id="Path_3166" data-name="Path 3166" d="M304.907,87.725h0a.166.166,0,0,1-.12-.075l-4.579-7.405-8.755-4.771a.156.156,0,0,1-.085-.124.163.163,0,0,1,.052-.14l6.543-5.929a.163.163,0,0,1,.12-.042.159.159,0,0,1,.111.055l.341.39a.163.163,0,0,1-.244.211l-.231-.263L291.807,75.3l8.583,4.68a.215.215,0,0,1,.062.059l4.491,7.262,5.187-5.5-.088-.254a.164.164,0,0,1,.309-.107l.12.348a.162.162,0,0,1-.036.166l-5.4,5.727a.166.166,0,0,1-.127.049Z" transform="translate(-221.433 -69.239)" fill="#263238"/>
      <path id="Path_3167" data-name="Path 3167" d="M303.094,79.57a.188.188,0,0,1-.059,0,.166.166,0,0,1-.1-.146c0-.059-.075-1.486-1.444-1.444a13.886,13.886,0,0,1-4.843-1.447l-.117-.052a13.632,13.632,0,0,1-1.847-1.008.162.162,0,0,1-.016-.257l6.251-5.682a.166.166,0,0,1,.208,0,10.5,10.5,0,0,0,4.15,1.717c2.088.3,3.376,1.408,3.444,2.973a.163.163,0,0,1-.049.124l-5.451,5.2a.169.169,0,0,1-.124.02Zm-1.558-1.929a1.655,1.655,0,0,1,1.672,1.431l5.187-4.921c-.1-1.376-1.246-2.316-3.161-2.6a10.524,10.524,0,0,1-4.189-1.7L295.039,75.3a13.182,13.182,0,0,0,1.626.868l.117.052a13.425,13.425,0,0,0,4.7,1.418Z" transform="translate(-223.621 -69.413)" fill="#263238"/>
      <path id="Path_3168" data-name="Path 3168" d="M324.731,96.389a.176.176,0,0,1-.111-.039,11.507,11.507,0,0,1-1.21-1.75,10.546,10.546,0,0,1-1.158-3.334,11.623,11.623,0,0,0-.3-1.194c-.325-.9-1.6-1-1.626-1a.163.163,0,0,1-.143-.1.169.169,0,0,1,.042-.176l5.451-5.187a.156.156,0,0,1,.1-.042c1.278-.062,2.172,1.122,2.875,3.828a5.646,5.646,0,0,0,1.587,3.064.169.169,0,0,1,.068.117.166.166,0,0,1-.046.127l-5.415,5.623A.166.166,0,0,1,324.731,96.389ZM320.7,88.8a2.008,2.008,0,0,1,1.558,1.164,10.6,10.6,0,0,1,.325,1.229,10.191,10.191,0,0,0,1.119,3.233,18.582,18.582,0,0,0,1.05,1.558l5.181-5.389a6.58,6.58,0,0,1-1.571-3.122c-.634-2.442-1.424-3.577-2.481-3.577h0Z" transform="translate(-240.871 -78.904)" fill="#263238"/>
      <path id="Path_3169" data-name="Path 3169" d="M309.32,96.063a.166.166,0,0,1-.127-.062,5.2,5.2,0,0,0-1.054-.976,8.066,8.066,0,0,0-1.607-.738c-.488-.185-1.041-.4-1.681-.683a.163.163,0,0,1-.081-.215.159.159,0,0,1,.215-.081c.631.28,1.181.491,1.662.676a8.131,8.131,0,0,1,1.678.774,5.715,5.715,0,0,1,1.125,1.034.166.166,0,0,1-.029.231A.163.163,0,0,1,309.32,96.063Z" transform="translate(-230.468 -85.47)" fill="#263238"/>
      <path id="Path_3170" data-name="Path 3170" d="M324.309,109.11a.166.166,0,0,1-.133-.068,15.9,15.9,0,0,1-2.374-4.621c-.046-.137-.091-.263-.13-.377a2.4,2.4,0,0,0-1.177-1.233.163.163,0,1,1,.13-.3,2.667,2.667,0,0,1,1.353,1.418c.042.117.085.244.13.381a15.659,15.659,0,0,0,2.335,4.553.159.159,0,0,1-.039.224A.146.146,0,0,1,324.309,109.11Z" transform="translate(-241.011 -91.678)" fill="#263238"/>
      <path id="Path_3171" data-name="Path 3171" d="M318.476,78.274a.163.163,0,0,1-.156-.124c-.231-.881-1.125-1.542-3.093-2.277A30.9,30.9,0,0,1,312,74.495a.163.163,0,1,1,.153-.286,31.543,31.543,0,0,0,3.184,1.363c2.081.771,3.038,1.5,3.3,2.494a.163.163,0,0,1-.117.2Z" transform="translate(-235.292 -72.576)" fill="#263238"/>
      <path id="Path_3172" data-name="Path 3172" d="M315.586,81.284a.163.163,0,0,1-.156-.12c-.231-.885-1.125-1.542-3.093-2.277a31.268,31.268,0,0,1-3.226-1.382.163.163,0,1,1,.153-.286,30.533,30.533,0,0,0,3.187,1.363c2.078.774,3.034,1.5,3.294,2.494a.159.159,0,0,1-.117.2A.1.1,0,0,1,315.586,81.284Z" transform="translate(-233.342 -74.607)" fill="#263238"/>
      <path id="Path_3173" data-name="Path 3173" d="M312.714,84.306a.163.163,0,0,1-.156-.12c-.231-.885-1.125-1.542-3.093-2.277a30.9,30.9,0,0,1-3.226-1.379.164.164,0,0,1,.153-.289,30.533,30.533,0,0,0,3.187,1.363c2.078.774,3.034,1.5,3.294,2.5a.163.163,0,0,1-.117.2Z" transform="translate(-231.41 -76.65)" fill="#263238"/>
      <path id="Path_3174" data-name="Path 3174" d="M309.826,87.323a.163.163,0,0,1-.156-.124c-.231-.881-1.125-1.542-3.093-2.277a30.9,30.9,0,0,1-3.226-1.379.166.166,0,0,1-.068-.221.169.169,0,0,1,.221-.068,29.693,29.693,0,0,0,3.187,1.363c2.078.774,3.034,1.5,3.294,2.5a.163.163,0,0,1-.117.2Z" transform="translate(-229.461 -78.685)" fill="#263238"/>
      <path id="Path_3175" data-name="Path 3175" d="M338.006,94.949h0c-1.1-.075-1.932-2.384-2.433-4.306a1.545,1.545,0,0,0-1.233-1.268.163.163,0,0,1-.143-.179.166.166,0,0,1,.176-.146,1.847,1.847,0,0,1,1.516,1.509c.651,2.5,1.451,4.02,2.137,4.065a.163.163,0,0,1,.153.172.166.166,0,0,1-.172.153Z" transform="translate(-250.334 -82.606)" fill="#263238"/>
      <path id="Path_3176" data-name="Path 3176" d="M334.711,98.55a.156.156,0,0,1-.085-.023,5.906,5.906,0,0,1-2.42-3.808,2.811,2.811,0,0,0-1.265-1.929.163.163,0,0,1,.13-.3,2.976,2.976,0,0,1,1.451,2.143,5.565,5.565,0,0,0,2.277,3.61.163.163,0,0,1,.059.221A.166.166,0,0,1,334.711,98.55Z" transform="translate(-248.083 -84.926)" fill="#263238"/>
      <path id="Path_3177" data-name="Path 3177" d="M331.209,101.132a.146.146,0,0,1-.1-.036c-1.3-1.031-1.974-3.223-2.208-4.121a2.069,2.069,0,0,0-1.506-1.568.163.163,0,0,1-.13-.189.166.166,0,0,1,.189-.133,2.391,2.391,0,0,1,1.763,1.808,7.783,7.783,0,0,0,2.094,3.948.162.162,0,0,1,.026.231.156.156,0,0,1-.127.059Z" transform="translate(-245.655 -86.679)" fill="#263238"/>
      <path id="Path_3178" data-name="Path 3178" d="M328.615,103.877a.169.169,0,0,1-.127-.062,15.052,15.052,0,0,1-2.277-4.43c-.423-1.3-1.213-1.363-1.246-1.363a.166.166,0,0,1-.156-.172.15.15,0,0,1,.169-.153c.042,0,1.047.055,1.542,1.587a15,15,0,0,0,2.218,4.329.163.163,0,0,1-.029.228A.166.166,0,0,1,328.615,103.877Z" transform="translate(-244 -88.441)" fill="#263238"/>
      <path id="Path_3179" data-name="Path 3179" d="M151.682,118.274h-.039l-1.177-.293a.163.163,0,0,1-.1-.244l5.434-8.521a.164.164,0,0,1,.276.176l-5.314,8.329.846.211,5.369-7.984a.166.166,0,0,1,.218-.052l8.557,4.934.93-.93-9.35-4.878a.163.163,0,0,1,.15-.289l9.548,5a.162.162,0,0,1,.039.257l-1.174,1.177a.163.163,0,0,1-.2.026l-8.537-4.921-5.35,7.955a.159.159,0,0,1-.133.052Z" transform="translate(-126.274 -95.876)" fill="#263238"/>
      <path id="Path_3180" data-name="Path 3180" d="M180.374,130.8a.163.163,0,0,1-.078-.02l-7.2-4.114a.166.166,0,0,1-.081-.114l-2.351-14.1a.166.166,0,0,1,.137-.189.163.163,0,0,1,.185.137l2.338,14.024,6.878,3.922-1-12.18a.169.169,0,0,1,.15-.176.163.163,0,0,1,.176.15l1,12.485a.156.156,0,0,1-.075.15A.14.14,0,0,1,180.374,130.8Z" transform="translate(-139.986 -98.272)" fill="#263238"/>
      <path id="Path_3181" data-name="Path 3181" d="M200.185,138.732a.163.163,0,0,1-.143-.237l1.155-2.163-.878-12.144a.163.163,0,1,1,.325-.023l.881,12.2a.2.2,0,0,1-.02.088l-1.164,2.189A.163.163,0,0,1,200.185,138.732Z" transform="translate(-159.797 -106.2)" fill="#263238"/>
      <path id="Path_3182" data-name="Path 3182" d="M157.97,152.559h-.033a.159.159,0,0,1-.127-.124l-2.5-11.458a.166.166,0,0,1,.127-.2.163.163,0,0,1,.192.127l2.42,11.1,4.638-6.339a.163.163,0,1,1,.263.192l-4.849,6.612A.156.156,0,0,1,157.97,152.559Z" transform="translate(-129.625 -117.513)" fill="#263238"/>
      <path id="Path_3183" data-name="Path 3183" d="M154.623,149.5h-.02l-1.32-.146a.163.163,0,0,1-.14-.127l-2.79-12.781a.166.166,0,0,1,.325-.068l2.768,12.664,1.2.133a.163.163,0,0,1,0,.325Z" transform="translate(-126.278 -114.453)" fill="#263238"/>
      <path id="Path_3184" data-name="Path 3184" d="M159.991,132.783a.163.163,0,0,1-.133-.257l3.821-5.288a.156.156,0,0,1,.224-.036.163.163,0,0,1,.039.228l-3.821,5.288A.159.159,0,0,1,159.991,132.783Z" transform="translate(-132.673 -108.33)" fill="#263238"/>
      <path id="Path_3185" data-name="Path 3185" d="M160.9,140.463a.169.169,0,0,1-.094-.029.166.166,0,0,1-.036-.228l3.818-5.288a.159.159,0,0,1,.228-.036.163.163,0,0,1,.036.224l-3.818,5.288A.159.159,0,0,1,160.9,140.463Z" transform="translate(-133.287 -113.512)" fill="#263238"/>
      <path id="Path_3186" data-name="Path 3186" d="M161.8,148.141a.15.15,0,0,1-.094-.033.163.163,0,0,1-.036-.224l3.818-5.288a.163.163,0,0,1,.228-.039.166.166,0,0,1,.036.228l-3.818,5.288A.159.159,0,0,1,161.8,148.141Z" transform="translate(-133.895 -118.692)" fill="#263238"/>
      <path id="Path_3187" data-name="Path 3187" d="M162.661,155.822a.146.146,0,0,1-.094-.033.163.163,0,0,1-.039-.228l3.821-5.288a.163.163,0,0,1,.263.192l-3.821,5.288A.163.163,0,0,1,162.661,155.822Z" transform="translate(-134.475 -123.875)" fill="#263238"/>
      <path id="Path_3188" data-name="Path 3188" d="M181.843,130.908a.146.146,0,0,1-.081-.023l-5.142-2.927a.163.163,0,0,1,.163-.283l5.142,2.927a.166.166,0,0,1,.059.224A.163.163,0,0,1,181.843,130.908Z" transform="translate(-143.949 -108.656)" fill="#263238"/>
      <path id="Path_3189" data-name="Path 3189" d="M181.815,138.122a.176.176,0,0,1-.081-.02l-5.142-2.927a.163.163,0,1,1,.163-.28l5.142,2.927a.16.16,0,0,1-.081.3Z" transform="translate(-143.921 -113.522)" fill="#263238"/>
      <path id="Path_3190" data-name="Path 3190" d="M184.1,145.816a.172.172,0,0,1-.078-.02l-5.142-2.927a.163.163,0,0,1-.062-.221.166.166,0,0,1,.224-.062l5.138,2.927a.159.159,0,0,1,.062.221A.163.163,0,0,1,184.1,145.816Z" transform="translate(-145.473 -118.718)" fill="#263238"/>
      <path id="Path_3191" data-name="Path 3191" d="M184.553,153.488a.146.146,0,0,1-.081-.023l-5.142-2.927a.163.163,0,0,1,.163-.283l5.142,2.927a.163.163,0,0,1-.081.3Z" transform="translate(-145.778 -123.892)" fill="#263238"/>
      <path id="Path_3192" data-name="Path 3192" d="M370.91,282.019a.127.127,0,0,1-.059,0l-10-4.007a.159.159,0,0,1-.1-.111.166.166,0,0,1,.033-.143l1.05-1.3a.166.166,0,0,1,.192-.046l8.989,4.036,4.521-8.456a.172.172,0,0,1,.166-.085l1.2.176a.156.156,0,0,1,.12.085.163.163,0,0,1,0,.15l-4.553,9.022a.164.164,0,1,1-.293-.146l4.449-8.82-.862-.127-4.527,8.472a.166.166,0,0,1-.211.072l-9.012-4.046-.833,1.047,9.8,3.9a.17.17,0,0,1-.068.325Z" transform="translate(-268.249 -205.995)" fill="#263238"/>
      <path id="Path_3193" data-name="Path 3193" d="M368.713,263.014a.163.163,0,0,1-.159-.117l-3.737-13.721-7.223-3.21,2.225,12.017a.162.162,0,1,1-.319.059l-2.277-12.319a.153.153,0,0,1,.059-.156.163.163,0,0,1,.166-.023l7.574,3.369a.163.163,0,0,1,.091.1l3.743,13.793a.169.169,0,0,1-.114.2Z" transform="translate(-265.869 -188.196)" fill="#263238"/>
      <path id="Path_3194" data-name="Path 3194" d="M356.557,260.25a.159.159,0,0,1-.159-.137l-2.107-12.033a.2.2,0,0,1,0-.088l.95-2.312a.163.163,0,0,1,.3.124l-.93,2.277,2.1,11.994a.163.163,0,0,1-.133.189Z" transform="translate(-263.889 -188.24)" fill="#263238"/>
      <path id="Path_3195" data-name="Path 3195" d="M388.488,245.638a.166.166,0,0,1-.156-.114l-3.525-10.8-3.974,6.755a.163.163,0,1,1-.28-.166l4.156-7.064a.159.159,0,0,1,.159-.078.163.163,0,0,1,.137.111l3.636,11.145a.159.159,0,0,1-.1.2Z" transform="translate(-281.599 -180.528)" fill="#263238"/>
      <path id="Path_3196" data-name="Path 3196" d="M398.838,246.958a.163.163,0,0,1-.156-.111l-4.026-12.323h-1.213a.163.163,0,0,1-.163-.163.169.169,0,0,1,.166-.163h1.33a.163.163,0,0,1,.153.114l4.062,12.433a.159.159,0,0,1-.1.2Z" transform="translate(-290.202 -180.551)" fill="#263238"/>
      <path id="Path_3197" data-name="Path 3197" d="M389.822,272.171a.147.147,0,0,1-.081-.023.166.166,0,0,1-.062-.221l3.252-5.646a.166.166,0,0,1,.221-.062.169.169,0,0,1,.062.224l-3.268,5.646A.163.163,0,0,1,389.822,272.171Z" transform="translate(-287.759 -202.144)" fill="#263238"/>
      <path id="Path_3198" data-name="Path 3198" d="M388.15,264.588a.14.14,0,0,1-.081-.023.163.163,0,0,1-.062-.221l3.268-5.643a.163.163,0,1,1,.28.163L388.3,264.51a.163.163,0,0,1-.153.078Z" transform="translate(-286.63 -197.02)" fill="#263238"/>
      <path id="Path_3199" data-name="Path 3199" d="M386.473,257.1a.153.153,0,0,1-.081-.023.159.159,0,0,1-.059-.221l3.268-5.646a.163.163,0,0,1,.28.163l-3.252,5.646A.166.166,0,0,1,386.473,257.1Z" transform="translate(-285.499 -191.985)" fill="#263238"/>
      <path id="Path_3200" data-name="Path 3200" d="M384.8,249.523a.153.153,0,0,1-.081-.023.159.159,0,0,1-.059-.221l3.252-5.646a.166.166,0,0,1,.224-.059.159.159,0,0,1,.059.221l-3.268,5.646A.163.163,0,0,1,384.8,249.523Z" transform="translate(-284.372 -186.862)" fill="#263238"/>
      <path id="Path_3201" data-name="Path 3201" d="M373.606,278.94a.149.149,0,0,1-.065-.016l-5.412-2.4a.159.159,0,0,1-.081-.215.163.163,0,0,1,.215-.085l5.408,2.407a.166.166,0,0,1-.065.325Z" transform="translate(-273.166 -208.897)" fill="#263238"/>
      <path id="Path_3202" data-name="Path 3202" d="M372.859,271.76a.21.21,0,0,1-.065,0l-5.412-2.413a.163.163,0,1,1,.133-.3l5.408,2.4a.166.166,0,1,1-.065.325Z" transform="translate(-272.656 -204.055)" fill="#263238"/>
      <path id="Path_3203" data-name="Path 3203" d="M369.856,264.33a.149.149,0,0,1-.065-.016l-5.412-2.4a.159.159,0,0,1-.081-.215.163.163,0,0,1,.215-.085l5.408,2.407a.163.163,0,0,1,.085.215A.166.166,0,0,1,369.856,264.33Z" transform="translate(-270.636 -199.039)" fill="#263238"/>
      <path id="Path_3204" data-name="Path 3204" d="M368.6,256.751a.146.146,0,0,1-.065,0l-5.412-2.41a.163.163,0,1,1,.13-.3l5.412,2.407a.163.163,0,0,1,.085.215A.169.169,0,0,1,368.6,256.751Z" transform="translate(-269.777 -193.927)" fill="#263238"/>
    </g>
    <g id="freepik--Plants--inject-33" transform="translate(53.858 116.103)">
      <path id="Path_3205" data-name="Path 3205" d="M293.28,264.446c-.911,2.254-1.847.442-1.7-9,.068-4.426.38-13.467,5.275-11.477,4.7,1.912-1.5,15.285-1.5,15.285Zm6.722,1.34s10.2-10.632,6.378-13.968c-3.984-3.47-7.213,4.979-8.719,9.142-3.207,8.882-2.907,10.9-1.3,9.067Zm2.153,9.542s9.34-6.651,6.9-9.757c-2.543-3.229-6.238,2.761-7.991,5.727-3.737,6.326-3.8,7.913-2.319,6.742Zm2.527,9.513s9.34-6.651,6.9-9.757c-2.54-3.233-6.235,2.761-7.987,5.724-3.74,6.326-3.805,7.913-2.319,6.742Zm-16.313-19.123s-13.071-6.8-15.194-2.2c-2.215,4.8,6.8,5.529,11.22,5.8,9.431.579,11.279-.273,9.07-1.3Zm1.841,7.48s-14.16-4.072-15.328.868c-1.216,5.148,7.76,4.069,12.15,3.457,9.353-1.3,11-2.507,8.635-3.064Zm3.252,8.163s-12.072-3.112-12.944,1.093c-.907,4.374,6.664,3.252,10.355,2.634,7.88-1.317,9.243-2.374,7.23-2.79Zm1.89,6.742s-11.672-4.377-12.986-.289c-1.369,4.257,6.28,3.945,10.017,3.721,7.974-.475,9.431-1.379,7.48-2.007Zm-7.805-34.148s-5.327-16.56-11.383-13.552c-6.3,3.132.976,10.6,4.615,14.173,7.763,7.63,10.166,8.163,9.145,5.5Z" transform="translate(-201.616 -240.037)" fill="#57795d"/>
      <path id="Path_3206" data-name="Path 3206" d="M293.28,264.446c-.911,2.254-1.847.442-1.7-9,.068-4.426.38-13.467,5.275-11.477,4.7,1.912-1.5,15.285-1.5,15.285Zm6.722,1.34s10.2-10.632,6.378-13.968c-3.984-3.47-7.213,4.979-8.719,9.142-3.207,8.882-2.907,10.9-1.3,9.067Zm2.153,9.542s9.34-6.651,6.9-9.757c-2.543-3.229-6.238,2.761-7.991,5.727-3.737,6.326-3.8,7.913-2.319,6.742Zm2.527,9.513s9.34-6.651,6.9-9.757c-2.54-3.233-6.235,2.761-7.987,5.724-3.74,6.326-3.805,7.913-2.319,6.742Zm-16.313-19.123s-13.071-6.8-15.194-2.2c-2.215,4.8,6.8,5.529,11.22,5.8,9.431.579,11.279-.273,9.07-1.3Zm1.841,7.48s-14.16-4.072-15.328.868c-1.216,5.148,7.76,4.069,12.15,3.457,9.353-1.3,11-2.507,8.635-3.064Zm3.252,8.163s-12.072-3.112-12.944,1.093c-.907,4.374,6.664,3.252,10.355,2.634,7.88-1.317,9.243-2.374,7.23-2.79Zm1.89,6.742s-11.672-4.377-12.986-.289c-1.369,4.257,6.28,3.945,10.017,3.721,7.974-.475,9.431-1.379,7.48-2.007Zm-7.805-34.148s-5.327-16.56-11.383-13.552c-6.3,3.132.976,10.6,4.615,14.173,7.763,7.63,10.166,8.163,9.145,5.5Z" transform="translate(-201.616 -240.037)" fill="#fff" opacity="0.65"/>
      <path id="Path_3207" data-name="Path 3207" d="M313.659,312.337a.2.2,0,0,1-.2-.192,98,98,0,0,0-6.667-28.668c-3.155-8.052-16.417-24.284-16.554-24.447a.2.2,0,0,1,.029-.286.2.2,0,0,1,.286.029c.133.163,13.441,16.446,16.619,24.554a98.109,98.109,0,0,1,6.7,28.8.2.2,0,0,1-.192.215Z" transform="translate(-213.331 -252.628)" fill="#ccc"/>
      <path id="Path_3208" data-name="Path 3208" d="M333.2,285.738h-.023a.2.2,0,0,1-.179-.228l1.86-15.572a.2.2,0,0,1,.4.049L333.4,285.56A.2.2,0,0,1,333.2,285.738Z" transform="translate(-242.214 -260.094)" fill="#ccc"/>
      <path id="Path_3209" data-name="Path 3209" d="M341.391,307.245a.234.234,0,0,1-.091-.023.2.2,0,0,1-.088-.276l6.745-13.087a.2.2,0,1,1,.361.189l-6.745,13.1A.208.208,0,0,1,341.391,307.245Z" transform="translate(-247.743 -276.267)" fill="#ccc"/>
      <path id="Path_3210" data-name="Path 3210" d="M309.073,322.514h-.039l-14.1-2.872a.2.2,0,1,1,.081-.4l14.1,2.872a.2.2,0,0,1,.156.241A.2.2,0,0,1,309.073,322.514Z" transform="translate(-216.407 -293.477)" fill="#ccc"/>
      <path id="Path_3211" data-name="Path 3211" d="M349.6,337.651a.2.2,0,0,1-.153-.325l8.283-9.47a.2.2,0,1,1,.306.267l-8.29,9.448A.208.208,0,0,1,349.6,337.651Z" transform="translate(-253.29 -299.248)" fill="#ccc"/>
      <path id="Path_3212" data-name="Path 3212" d="M323.9,347.518h0l-10.644-.091a.2.2,0,0,1-.2-.2.208.208,0,0,1,.2-.2l10.644.091a.2.2,0,0,1,.2.2.2.2,0,0,1-.2.2Z" transform="translate(-228.755 -312.227)" fill="#ccc"/>
      <path id="Path_3213" data-name="Path 3213" d="M327.175,371.785a.2.2,0,0,1-.2-.2.208.208,0,0,1,.2-.211l8.163-.325a.2.2,0,0,1,.211.2.2.2,0,0,1-.2.211l-8.163.325Z" transform="translate(-238.148 -328.442)" fill="#ccc"/>
      <path id="Path_3214" data-name="Path 3214" d="M357.429,374.542a.189.189,0,0,1-.12-.042.2.2,0,0,1-.042-.286l4.371-5.825a.2.2,0,0,1,.286-.042.2.2,0,0,1,.039.286l-4.371,5.828A.2.2,0,0,1,357.429,374.542Z" transform="translate(-258.565 -326.59)" fill="#ccc"/>
      <path id="Path_3215" data-name="Path 3215" d="M338.63,392.311h0l-9.545-.475a.2.2,0,1,1,.02-.407l9.548.475a.2.2,0,0,1,.192.211.2.2,0,0,1-.215.2Z" transform="translate(-239.443 -342.193)" fill="#ccc"/>
      <path id="Path_3216" data-name="Path 3216" d="M375.738,310.781c-1.649.621-1.145-.768,3.951-5.33,2.387-2.137,7.35-6.417,8.7-2.836,1.3,3.441-8.862,6.716-8.862,6.716Zm2.6,4.228s10.667.2,10.563-3.473c-.111-3.825-6.2-1.389-9.148-.143-6.3,2.66-7.226,3.808-5.467,3.756Zm-4.029,5.838s8.131,1.7,8.579-1.125c.472-2.927-4.534-1.951-6.973-1.434-5.2,1.122-6.078,1.867-4.725,2.081Zm-3.818,6.023s8.13,1.7,8.579-1.125c.472-2.927-4.534-1.951-6.973-1.437-5.2,1.122-6.078,1.867-4.725,2.081Zm2.156-18.079s-2.807-10.287-6.3-9.161c-3.639,1.181.407,6.335,2.433,8.817,4.325,5.3,5.688,5.854,5.142,4.192Zm-3.08,4.673s-4.8-9.535-8-7.727c-3.33,1.873,1.659,6.1,4.13,8.147,5.291,4.335,6.742,4.618,5.874,3.086ZM366.82,319.2s-4.277-7.952-6.943-6.348c-2.774,1.668,1.545,5.145,3.688,6.8,4.576,3.542,5.805,3.75,5.038,2.475Zm-2.657,4.319s-3.408-8.361-6.231-7.051c-2.927,1.366.992,5.278,2.947,7.155,4.173,4.007,5.376,4.345,4.745,3Zm14.31-20.941s6.179-10.976,1.626-12.713c-4.761-1.811-5.158,5.727-5.269,9.431-.244,7.877.65,9.431,1.568,7.565Z" transform="translate(-258.332 -273.474)" fill="#57795d"/>
      <path id="Path_3217" data-name="Path 3217" d="M375.738,310.781c-1.649.621-1.145-.768,3.951-5.33,2.387-2.137,7.35-6.417,8.7-2.836,1.3,3.441-8.862,6.716-8.862,6.716Zm2.6,4.228s10.667.2,10.563-3.473c-.111-3.825-6.2-1.389-9.148-.143-6.3,2.66-7.226,3.808-5.467,3.756Zm-4.029,5.838s8.131,1.7,8.579-1.125c.472-2.927-4.534-1.951-6.973-1.434-5.2,1.122-6.078,1.867-4.725,2.081Zm-3.818,6.023s8.13,1.7,8.579-1.125c.472-2.927-4.534-1.951-6.973-1.437-5.2,1.122-6.078,1.867-4.725,2.081Zm2.156-18.079s-2.807-10.287-6.3-9.161c-3.639,1.181.407,6.335,2.433,8.817,4.325,5.3,5.688,5.854,5.142,4.192Zm-3.08,4.673s-4.8-9.535-8-7.727c-3.33,1.873,1.659,6.1,4.13,8.147,5.291,4.335,6.742,4.618,5.874,3.086ZM366.82,319.2s-4.277-7.952-6.943-6.348c-2.774,1.668,1.545,5.145,3.688,6.8,4.576,3.542,5.805,3.75,5.038,2.475Zm-2.657,4.319s-3.408-8.361-6.231-7.051c-2.927,1.366.992,5.278,2.947,7.155,4.173,4.007,5.376,4.345,4.745,3Zm14.31-20.941s6.179-10.976,1.626-12.713c-4.761-1.811-5.158,5.727-5.269,9.431-.244,7.877.65,9.431,1.568,7.565Z" transform="translate(-258.332 -273.474)" fill="#e5e5e5" opacity="0.65"/>
      <path id="Path_3218" data-name="Path 3218" d="M368.866,342.207a.2.2,0,0,1-.14-.055.2.2,0,0,1,0-.289A74.64,74.64,0,0,0,381.1,323.777c2.729-5.626,4.843-20.652,4.862-20.814a.208.208,0,0,1,.231-.176.2.2,0,0,1,.172.231c-.019.153-2.143,15.24-4.9,20.925a75.258,75.258,0,0,1-12.449,18.19A.2.2,0,0,1,368.866,342.207Z" transform="translate(-266.284 -282.378)" fill="#ccc"/>
      <path id="Path_3219" data-name="Path 3219" d="M411.717,341.1a.2.2,0,0,1-.166-.085.208.208,0,0,1,.046-.286l9.2-6.661a.2.2,0,1,1,.241.325l-9.2,6.667a.205.205,0,0,1-.12.039Z" transform="translate(-295.196 -303.448)" fill="#ccc"/>
      <path id="Path_3220" data-name="Path 3220" d="M407.039,361.474a.2.2,0,0,1-.055-.4l10.27-2.849a.2.2,0,0,1,.107.39l-10.271,2.852A.144.144,0,0,1,407.039,361.474Z" transform="translate(-292.043 -319.783)" fill="#ccc"/>
      <path id="Path_3221" data-name="Path 3221" d="M397.508,344.365a.2.2,0,0,1-.172-.1l-5.4-8.908a.2.2,0,0,1,.068-.28.2.2,0,0,1,.28.068l5.4,8.911a.2.2,0,0,1-.068.28A.186.186,0,0,1,397.508,344.365Z" transform="translate(-281.966 -304.15)" fill="#ccc"/>
      <path id="Path_3222" data-name="Path 3222" d="M398.928,382.461a.2.2,0,0,1,0-.407l9.106-.234a.211.211,0,0,1,.211.2.2.2,0,0,1-.2.208l-9.106.234Z" transform="translate(-286.583 -335.709)" fill="#ccc"/>
      <path id="Path_3223" data-name="Path 3223" d="M391.452,364.5a.205.205,0,0,1-.15-.065l-5.184-5.708a.208.208,0,0,1,0-.289.2.2,0,0,1,.289.016l5.184,5.708a.2.2,0,0,1-.153.325Z" transform="translate(-278.021 -319.899)" fill="#ccc"/>
      <path id="Path_3224" data-name="Path 3224" d="M384.008,382.709a.2.2,0,0,1-.143-.059l-4.186-4.182a.2.2,0,0,1,.289-.289l4.182,4.182a.2.2,0,0,1-.143.348Z" transform="translate(-273.679 -333.216)" fill="#ccc"/>
      <path id="Path_3225" data-name="Path 3225" d="M387.169,400.456a.2.2,0,0,1-.023-.407l5.249-.54a.2.2,0,0,1,.042.407l-5.249.54Z" transform="translate(-278.639 -347.646)" fill="#ccc"/>
      <path id="Path_3226" data-name="Path 3226" d="M374.852,394.36a.2.2,0,0,1-.166-.072l-4.443-5.311a.2.2,0,0,1,.026-.286.2.2,0,0,1,.286.026l4.456,5.308a.2.2,0,0,1-.026.286A.2.2,0,0,1,374.852,394.36Z" transform="translate(-267.317 -340.313)" fill="#ccc"/>
      <path id="Path_3227" data-name="Path 3227" d="M134.675,264.446c.911,2.254,1.847.442,1.7-9-.072-4.426-.384-13.467-5.278-11.477-4.7,1.912,1.5,15.285,1.5,15.285Zm-6.722,1.34s-10.2-10.632-6.378-13.968c3.984-3.47,7.217,4.979,8.719,9.142,3.207,8.882,2.907,10.9,1.3,9.067Zm-2.153,9.542s-9.34-6.651-6.9-9.757c2.543-3.229,6.238,2.761,7.991,5.727,3.737,6.326,3.8,7.913,2.319,6.742Zm-2.527,9.513s-9.34-6.651-6.9-9.757c2.54-3.233,6.234,2.761,7.987,5.724,3.74,6.326,3.805,7.913,2.319,6.742Zm16.313-19.123s13.071-6.8,15.194-2.2c2.215,4.8-6.8,5.529-11.22,5.8-9.431.579-11.279-.273-9.07-1.3Zm-1.841,7.48s14.163-4.072,15.328.868c1.216,5.142-7.766,4.062-12.15,3.451-9.353-1.3-11-2.507-8.631-3.064Zm-3.252,8.163s12.072-3.112,12.944,1.093c.907,4.374-6.664,3.252-10.355,2.634-7.88-1.317-9.243-2.374-7.23-2.79ZM132.6,288.1s11.669-4.371,13-.27c1.369,4.257-6.28,3.945-10.017,3.721-7.974-.475-9.431-1.379-7.48-2.007Zm7.805-34.148s5.33-16.56,11.383-13.552c6.3,3.132-.976,10.6-4.615,14.173-7.763,7.63-10.166,8.163-9.142,5.5Z" transform="translate(-95.768 -240.037)" fill="#57795d"/>
      <path id="Path_3228" data-name="Path 3228" d="M134.675,264.446c.911,2.254,1.847.442,1.7-9-.072-4.426-.384-13.467-5.278-11.477-4.7,1.912,1.5,15.285,1.5,15.285Zm-6.722,1.34s-10.2-10.632-6.378-13.968c3.984-3.47,7.217,4.979,8.719,9.142,3.207,8.882,2.907,10.9,1.3,9.067Zm-2.153,9.542s-9.34-6.651-6.9-9.757c2.543-3.229,6.238,2.761,7.991,5.727,3.737,6.326,3.8,7.913,2.319,6.742Zm-2.527,9.513s-9.34-6.651-6.9-9.757c2.54-3.233,6.234,2.761,7.987,5.724,3.74,6.326,3.805,7.913,2.319,6.742Zm16.313-19.123s13.071-6.8,15.194-2.2c2.215,4.8-6.8,5.529-11.22,5.8-9.431.579-11.279-.273-9.07-1.3Zm-1.841,7.48s14.163-4.072,15.328.868c1.216,5.142-7.766,4.062-12.15,3.451-9.353-1.3-11-2.507-8.631-3.064Zm-3.252,8.163s12.072-3.112,12.944,1.093c.907,4.374-6.664,3.252-10.355,2.634-7.88-1.317-9.243-2.374-7.23-2.79ZM132.6,288.1s11.669-4.371,13-.27c1.369,4.257-6.28,3.945-10.017,3.721-7.974-.475-9.431-1.379-7.48-2.007Zm7.805-34.148s5.33-16.56,11.383-13.552c6.3,3.132-.976,10.6-4.615,14.173-7.763,7.63-10.166,8.163-9.142,5.5Z" transform="translate(-95.768 -240.037)" fill="#fff" opacity="0.65"/>
      <path id="Path_3229" data-name="Path 3229" d="M146.451,312.337h0a.2.2,0,0,1-.192-.215,97.936,97.936,0,0,1,6.7-28.8c3.174-8.108,16.482-24.392,16.616-24.554a.2.2,0,0,1,.286-.029.2.2,0,0,1,.029.286c-.133.163-13.4,16.4-16.554,24.447a97.7,97.7,0,0,0-6.667,28.668A.2.2,0,0,1,146.451,312.337Z" transform="translate(-116.208 -252.628)" fill="#ccc"/>
      <path id="Path_3230" data-name="Path 3230" d="M171.3,285.738a.2.2,0,0,1-.2-.179l-1.86-15.572a.2.2,0,0,1,.4-.049l1.86,15.572a.2.2,0,0,1-.179.228Z" transform="translate(-131.712 -260.094)" fill="#ccc"/>
      <path id="Path_3231" data-name="Path 3231" d="M153,307.29a.208.208,0,0,1-.182-.111l-6.732-13.087a.2.2,0,0,1,.088-.276.211.211,0,0,1,.276.088l6.729,13.087a.2.2,0,0,1-.088.276.234.234,0,0,1-.091.023Z" transform="translate(-116.073 -276.312)" fill="#ccc"/>
      <path id="Path_3232" data-name="Path 3232" d="M169.99,322.507a.2.2,0,0,1-.2-.163.2.2,0,0,1,.159-.241l14.1-2.872a.2.2,0,1,1,.081.4l-14.1,2.872Z" transform="translate(-132.085 -293.471)" fill="#ccc"/>
      <path id="Path_3233" data-name="Path 3233" d="M141.619,337.678a.208.208,0,0,1-.153-.068l-8.29-9.448a.2.2,0,0,1,.306-.267l8.29,9.431a.2.2,0,0,1-.153.325Z" transform="translate(-107.346 -299.275)" fill="#ccc"/>
      <path id="Path_3234" data-name="Path 3234" d="M162.385,347.518a.2.2,0,0,1-.2-.2.2.2,0,0,1,.2-.2l10.644-.091h0a.2.2,0,0,1,.2.2.2.2,0,0,1-.2.2Z" transform="translate(-126.951 -312.227)" fill="#ccc"/>
      <path id="Path_3235" data-name="Path 3235" d="M164.305,371.792h0l-8.163-.325a.2.2,0,0,1,.016-.406l8.163.325a.208.208,0,0,1,.2.211A.2.2,0,0,1,164.305,371.792Z" transform="translate(-122.761 -328.449)" fill="#ccc"/>
      <path id="Path_3236" data-name="Path 3236" d="M141.855,374.542a.2.2,0,0,1-.163-.081l-4.371-5.828a.2.2,0,0,1,.039-.286.2.2,0,0,1,.286.042l4.371,5.825a.2.2,0,0,1-.042.286A.189.189,0,0,1,141.855,374.542Z" transform="translate(-110.148 -326.59)" fill="#ccc"/>
      <path id="Path_3237" data-name="Path 3237" d="M149.944,392.31a.2.2,0,0,1-.2-.2.2.2,0,0,1,.192-.211l9.548-.475a.2.2,0,0,1,.215.192.2.2,0,0,1-.2.215l-9.545.475Z" transform="translate(-118.557 -342.192)" fill="#ccc"/>
      <path id="Path_3238" data-name="Path 3238" d="M67.027,310.781c1.646.621,1.142-.768-3.955-5.33-2.387-2.137-7.35-6.417-8.7-2.836-1.3,3.441,8.862,6.716,8.862,6.716Zm-2.6,4.228s-10.67.2-10.566-3.473c.114-3.825,6.179-1.389,9.148-.143,6.3,2.66,7.226,3.808,5.47,3.756Zm4.026,5.838s-8.131,1.7-8.579-1.125c-.468-2.927,4.534-1.951,6.973-1.434,5.2,1.122,6.078,1.867,4.725,2.081Zm3.818,6.023s-8.131,1.7-8.579-1.125c-.472-2.927,4.534-1.951,6.973-1.437,5.2,1.122,6.078,1.867,4.725,2.081Zm-2.156-18.079s2.807-10.3,6.3-9.161c3.639,1.181-.407,6.335-2.433,8.817-4.325,5.3-5.688,5.854-5.142,4.192Zm3.08,4.673s4.8-9.535,8-7.727c3.334,1.883-1.659,6.127-4.137,8.16-5.291,4.335-6.742,4.618-5.873,3.086Zm2.748,5.737s4.277-7.952,6.943-6.348c2.774,1.668-1.545,5.145-3.688,6.8-4.576,3.542-5.805,3.75-5.038,2.475ZM78.6,323.52s3.408-8.361,6.231-7.051c2.927,1.366-.992,5.278-2.947,7.155-4.173,4.007-5.376,4.345-4.745,3Zm-14.31-20.941s-6.179-10.976-1.626-12.713c4.761-1.811,5.158,5.727,5.272,9.431.241,7.877-.65,9.431-1.571,7.565Z" transform="translate(-53.858 -273.474)" fill="#57795d"/>
      <path id="Path_3239" data-name="Path 3239" d="M67.027,310.781c1.646.621,1.142-.768-3.955-5.33-2.387-2.137-7.35-6.417-8.7-2.836-1.3,3.441,8.862,6.716,8.862,6.716Zm-2.6,4.228s-10.67.2-10.566-3.473c.114-3.825,6.179-1.389,9.148-.143,6.3,2.66,7.226,3.808,5.47,3.756Zm4.026,5.838s-8.131,1.7-8.579-1.125c-.468-2.927,4.534-1.951,6.973-1.434,5.2,1.122,6.078,1.867,4.725,2.081Zm3.818,6.023s-8.131,1.7-8.579-1.125c-.472-2.927,4.534-1.951,6.973-1.437,5.2,1.122,6.078,1.867,4.725,2.081Zm-2.156-18.079s2.807-10.3,6.3-9.161c3.639,1.181-.407,6.335-2.433,8.817-4.325,5.3-5.688,5.854-5.142,4.192Zm3.08,4.673s4.8-9.535,8-7.727c3.334,1.883-1.659,6.127-4.137,8.16-5.291,4.335-6.742,4.618-5.873,3.086Zm2.748,5.737s4.277-7.952,6.943-6.348c2.774,1.668-1.545,5.145-3.688,6.8-4.576,3.542-5.805,3.75-5.038,2.475ZM78.6,323.52s3.408-8.361,6.231-7.051c2.927,1.366-.992,5.278-2.947,7.155-4.173,4.007-5.376,4.345-4.745,3Zm-14.31-20.941s-6.179-10.976-1.626-12.713c4.761-1.811,5.158,5.727,5.272,9.431.241,7.877-.65,9.431-1.571,7.565Z" transform="translate(-53.858 -273.474)" fill="#e5e5e5" opacity="0.65"/>
      <path id="Path_3240" data-name="Path 3240" d="M103.619,342.234a.2.2,0,0,1-.146-.062,75.194,75.194,0,0,1-12.449-18.19c-2.755-5.685-4.878-20.772-4.9-20.925a.2.2,0,0,1,.172-.231.208.208,0,0,1,.231.176c.02.15,2.133,15.178,4.862,20.814A74.639,74.639,0,0,0,103.766,341.9a.2.2,0,0,1,0,.289A.192.192,0,0,1,103.619,342.234Z" transform="translate(-75.63 -282.405)" fill="#ccc"/>
      <path id="Path_3241" data-name="Path 3241" d="M77.5,341.11a.205.205,0,0,1-.12-.039l-9.2-6.664a.2.2,0,1,1,.241-.325l9.2,6.66a.2.2,0,0,1-.12.368Z" transform="translate(-63.448 -303.455)" fill="#ccc"/>
      <path id="Path_3242" data-name="Path 3242" d="M80.02,361.474a.153.153,0,0,1-.055,0l-10.274-2.859a.2.2,0,0,1,.107-.39l10.274,2.849a.2.2,0,0,1-.052.4Z" transform="translate(-64.442 -319.783)" fill="#ccc"/>
      <path id="Path_3243" data-name="Path 3243" d="M99.645,344.313a.192.192,0,0,1-.107-.029.2.2,0,0,1-.068-.28l5.405-8.911a.2.2,0,1,1,.348.211l-5.405,8.911A.2.2,0,0,1,99.645,344.313Z" transform="translate(-84.616 -304.099)" fill="#ccc"/>
      <path id="Path_3244" data-name="Path 3244" d="M90.595,382.461h0l-9.106-.234a.2.2,0,0,1-.2-.208.215.215,0,0,1,.211-.2l9.106.234a.2.2,0,0,1,.2.208.2.2,0,0,1-.211.2Z" transform="translate(-72.368 -335.709)" fill="#ccc"/>
      <path id="Path_3245" data-name="Path 3245" d="M106.161,364.5a.2.2,0,0,1-.15-.325l5.171-5.721a.2.2,0,0,1,.289-.016.208.208,0,0,1,0,.289l-5.168,5.711A.2.2,0,0,1,106.161,364.5Z" transform="translate(-89.022 -319.899)" fill="#ccc"/>
      <path id="Path_3246" data-name="Path 3246" d="M115.682,382.709a.2.2,0,0,1-.143-.348l4.182-4.182a.2.2,0,0,1,.289.289l-4.186,4.169A.2.2,0,0,1,115.682,382.709Z" transform="translate(-95.44 -333.216)" fill="#ccc"/>
      <path id="Path_3247" data-name="Path 3247" d="M110.348,400.456h-.02l-5.249-.54a.2.2,0,0,1,.042-.406l5.249.54a.2.2,0,0,1-.023.407Z" transform="translate(-88.307 -347.646)" fill="#ccc"/>
      <path id="Path_3248" data-name="Path 3248" d="M124.27,394.353a.2.2,0,0,1-.13-.049.2.2,0,0,1-.026-.286l4.443-5.311a.2.2,0,0,1,.286-.026.2.2,0,0,1,.026.286l-4.443,5.314a.2.2,0,0,1-.156.072Z" transform="translate(-101.234 -340.307)" fill="#ccc"/>
    </g>
    <g id="freepik--Character--inject-33" transform="translate(92.422 77.501)">
      <rect id="Rectangle_406" data-name="Rectangle 406" width="34.382" height="7.038" transform="translate(4.947 61.909)" fill="#fff"/>
      <path id="Path_3249" data-name="Path 3249" d="M221.695,318.563H187.313a.166.166,0,0,1-.163-.163v-7.038a.163.163,0,0,1,.163-.163h34.382a.163.163,0,0,1,.163.163V318.4A.163.163,0,0,1,221.695,318.563Zm-34.22-.325h34.057v-6.713H187.475Z" transform="translate(-182.365 -249.454)" fill="#263238"/>
      <path id="Path_3250" data-name="Path 3250" d="M194.445,317.135h-6.033a.163.163,0,0,1,0-.325h6.033a.163.163,0,0,1,0,.325Z" transform="translate(-183.107 -253.239)" fill="#263238"/>
      <path id="Path_3251" data-name="Path 3251" d="M213.955,323.035h-.823a.163.163,0,0,1,0-.325h.823a.163.163,0,0,1,0,.325Z" transform="translate(-199.788 -257.22)" fill="#263238"/>
      <path id="Path_3252" data-name="Path 3252" d="M194.89,323.035h-6.768a.163.163,0,0,1-.163-.163.166.166,0,0,1,.163-.163h6.768a.163.163,0,0,1,0,.325Z" transform="translate(-182.912 -257.22)" fill="#263238"/>
      <path id="Path_3253" data-name="Path 3253" d="M191.346,329.155h-2.784a.163.163,0,1,1,0-.325h2.784a.163.163,0,0,1,0,.325Z" transform="translate(-183.209 -261.35)" fill="#263238"/>
      <path id="Path_3254" data-name="Path 3254" d="M270.762,312.44a12.792,12.792,0,0,0,0,6.635h13.854s-1.457-4.208,0-6.635Z" transform="translate(-238.49 -250.29)" fill="#fff"/>
      <path id="Path_3255" data-name="Path 3255" d="M284.285,318.9H270.431a.163.163,0,0,1-.159-.12,13.129,13.129,0,0,1,0-6.726.163.163,0,0,1,.156-.114h13.854a.166.166,0,0,1,.14.247c-1.4,2.335,0,6.456,0,6.5a.163.163,0,0,1-.153.215Zm-13.731-.325h13.506c-.27-.872-1.151-4.127-.052-6.309H270.538A12.927,12.927,0,0,0,270.554,318.574Z" transform="translate(-238.158 -249.953)" fill="#263238"/>
      <g id="Group_478" data-name="Group 478" transform="translate(31.835 62.15)" clip-path="url(#clip-path)">
        <g id="Group_477" data-name="Group 477" transform="translate(-0.16 -0.163)" opacity="0.24">
          <path id="Path_3256" data-name="Path 3256" d="M270.762,312.44a12.792,12.792,0,0,0,0,6.635h13.854s-1.457-4.208,0-6.635Z" transform="translate(-270.165 -312.277)"/>
          <path id="Path_3257" data-name="Path 3257" d="M284.285,318.9H270.431a.163.163,0,0,1-.159-.12,13.129,13.129,0,0,1,0-6.726.163.163,0,0,1,.156-.114h13.854a.166.166,0,0,1,.14.247c-1.4,2.335,0,6.456,0,6.5a.163.163,0,0,1-.153.215Zm-13.731-.325h13.506c-.27-.872-1.151-4.127-.052-6.309H270.538A12.927,12.927,0,0,0,270.554,318.574Z" transform="translate(-269.833 -311.94)" fill="#263238"/>
        </g>
      </g>
      <path id="Path_3260" data-name="Path 3260" d="M186.606,317.089v-4.8a.446.446,0,0,1,.446-.446h40.89a.325.325,0,0,0,.325-.325h0a.325.325,0,0,0-.325-.325h-42a.446.446,0,0,0-.446.446v6.127a.719.719,0,0,0,.719.722h41.723a.325.325,0,0,0,.325-.325h0a.325.325,0,0,0-.325-.325H187.324a.722.722,0,0,1-.719-.745Z" transform="translate(-181.252 -249.447)" fill="#263238"/>
      <path id="Path_3261" data-name="Path 3261" d="M227.6,318.259H185.881a.885.885,0,0,1-.881-.885v-6.15a.608.608,0,0,1,.608-.608h42a.5.5,0,1,1,0,1h-40.89a.283.283,0,0,0-.283.283v4.8a.559.559,0,0,0,.556.559H227.6a.5.5,0,1,1,0,1Zm-41.983-7.317a.283.283,0,0,0-.283.283v6.15a.559.559,0,0,0,.556.559H227.6a.176.176,0,1,0,0-.348H186.987a.881.881,0,0,1-.881-.885v-4.8a.608.608,0,0,1,.608-.608H227.6a.176.176,0,1,0,0-.348Z" transform="translate(-180.914 -249.059)" fill="#263238"/>
      <rect id="Rectangle_407" data-name="Rectangle 407" width="34.382" height="7.038" transform="translate(4.947 76.433)" fill="#fff"/>
      <path id="Path_3262" data-name="Path 3262" d="M221.695,363.223H187.313a.163.163,0,0,1-.163-.163v-7.038a.166.166,0,0,1,.163-.163h34.382a.163.163,0,0,1,.163.163v7.038A.163.163,0,0,1,221.695,363.223Zm-34.22-.325h34.057v-6.713H187.475Z" transform="translate(-182.365 -279.589)" fill="#263238"/>
      <path id="Path_3263" data-name="Path 3263" d="M195.125,360.325h-6.043a.163.163,0,1,1,0-.325h6.043a.163.163,0,0,1,0,.325Z" transform="translate(-183.56 -282.383)" fill="#263238"/>
      <path id="Path_3264" data-name="Path 3264" d="M214.645,366.265h-.823a.166.166,0,0,1-.163-.163.163.163,0,0,1,.163-.163h.823a.163.163,0,1,1,0,.325Z" transform="translate(-200.254 -286.391)" fill="#263238"/>
      <path id="Path_3265" data-name="Path 3265" d="M195.567,366.265H188.8a.163.163,0,1,1,0-.325h6.765a.163.163,0,1,1,0,.325Z" transform="translate(-183.371 -286.391)" fill="#263238"/>
      <path id="Path_3266" data-name="Path 3266" d="M192.017,372.375h-2.784a.163.163,0,1,1,0-.325h2.784a.163.163,0,1,1,0,.325Z" transform="translate(-183.661 -290.514)" fill="#263238"/>
      <path id="Path_3267" data-name="Path 3267" d="M271.425,357.11a12.826,12.826,0,0,0,0,6.634h13.64s-1.457-4.208,0-6.634Z" transform="translate(-238.937 -280.433)" fill="#fff"/>
      <path id="Path_3268" data-name="Path 3268" d="M284.735,363.56H271.1a.166.166,0,0,1-.156-.124,13.1,13.1,0,0,1,0-6.726.163.163,0,0,1,.153-.111h13.64a.163.163,0,0,1,.14.081.169.169,0,0,1,0,.166c-1.4,2.332,0,6.452,0,6.5a.166.166,0,0,1-.023.15.159.159,0,0,1-.114.059Zm-13.513-.325H284.51c-.27-.875-1.151-4.127-.052-6.309h-13.24A12.924,12.924,0,0,0,271.222,363.234Z" transform="translate(-238.608 -280.089)" fill="#263238"/>
      <g id="Group_480" data-name="Group 480" transform="translate(32.051 76.677)" clip-path="url(#clip-path-2)">
        <g id="Group_479" data-name="Group 479" transform="translate(-0.159 -0.166)" opacity="0.24">
          <path id="Path_3269" data-name="Path 3269" d="M271.425,357.11a12.826,12.826,0,0,0,0,6.634h13.64s-1.457-4.208,0-6.634Z" transform="translate(-270.829 -356.944)"/>
          <path id="Path_3270" data-name="Path 3270" d="M284.735,363.56H271.1a.166.166,0,0,1-.156-.124,13.1,13.1,0,0,1,0-6.726.163.163,0,0,1,.153-.111h13.64a.163.163,0,0,1,.14.081.169.169,0,0,1,0,.166c-1.4,2.332,0,6.452,0,6.5a.166.166,0,0,1-.023.15.159.159,0,0,1-.114.059Zm-13.513-.325H284.51c-.27-.875-1.151-4.127-.052-6.309h-13.24A12.924,12.924,0,0,0,271.222,363.234Z" transform="translate(-270.5 -356.6)" fill="#263238"/>
        </g>
      </g>
      <path id="Path_3273" data-name="Path 3273" d="M186.606,361.753v-4.807a.446.446,0,0,1,.446-.446h40.89a.325.325,0,0,0,.325-.325h0a.325.325,0,0,0-.325-.325h-42a.446.446,0,0,0-.446.446v6.153a.719.719,0,0,0,.719.719h41.723a.325.325,0,0,0,.325-.325h0a.325.325,0,0,0-.325-.325H187.324a.719.719,0,0,1-.719-.764Z" transform="translate(-181.252 -279.582)" fill="#263238"/>
      <path id="Path_3274" data-name="Path 3274" d="M227.6,362.919H185.881a.881.881,0,0,1-.881-.881v-6.153a.608.608,0,0,1,.608-.608h42a.5.5,0,1,1,0,1h-40.89a.283.283,0,0,0-.283.283v4.807a.559.559,0,0,0,.556.556H227.6a.5.5,0,1,1,0,1ZM185.621,355.6a.283.283,0,0,0-.283.283v6.153a.559.559,0,0,0,.556.556H227.6a.176.176,0,1,0,0-.348H186.987a.881.881,0,0,1-.881-.881v-4.807a.608.608,0,0,1,.608-.608H227.6a.176.176,0,1,0,0-.348Z" transform="translate(-180.914 -279.194)" fill="#263238"/>
      <path id="Path_3275" data-name="Path 3275" d="M189,385.57c.241-.81,1.125-4.15.033-6.29H228.6v6.29Z" transform="translate(-183.614 -295.393)" fill="#fff"/>
      <path id="Path_3276" data-name="Path 3276" d="M228.257,385.368h-39.6a.164.164,0,0,1-.156-.211c.2-.65,1.122-4.056.042-6.179a.158.158,0,0,1,.14-.237h39.57a.163.163,0,0,1,.163.163v6.29a.163.163,0,0,1-.163.176Zm-39.381-.325h39.218v-5.965H188.951C189.823,381.1,189.189,383.927,188.876,385.043Z" transform="translate(-183.275 -295.028)" fill="#263238"/>
      <path id="Path_3277" data-name="Path 3277" d="M248.775,383.385h-6.033a.163.163,0,1,1,0-.325h6.033a.163.163,0,1,1,0,.325Z" transform="translate(-219.768 -297.943)" fill="#263238"/>
      <path id="Path_3278" data-name="Path 3278" d="M234.845,389.325h-.823a.163.163,0,1,1,0-.325h.823a.163.163,0,1,1,0,.325Z" transform="translate(-213.884 -301.951)" fill="#263238"/>
      <path id="Path_3279" data-name="Path 3279" d="M247.54,389.325h-6.768a.163.163,0,1,1,0-.325h6.768a.166.166,0,0,1,.163.163A.163.163,0,0,1,247.54,389.325Z" transform="translate(-218.439 -301.951)" fill="#263238"/>
      <path id="Path_3280" data-name="Path 3280" d="M255.367,395.405h-2.784a.163.163,0,0,1,0-.325h2.784a.163.163,0,0,1,0,.325Z" transform="translate(-226.408 -306.054)" fill="#263238"/>
      <path id="Path_3281" data-name="Path 3281" d="M210.51,384.423v-4.807a.446.446,0,0,0-.446-.446h-24.2a.325.325,0,0,1-.325-.325h0a.325.325,0,0,1,.325-.325h41.983a.446.446,0,0,1,.446.446v6.153a.719.719,0,0,1-.719.719h-41.71a.325.325,0,0,1-.325-.325h0a.325.325,0,0,1,.325-.325h23.926a.719.719,0,0,0,.719-.764Z" transform="translate(-181.279 -294.88)" fill="#263238"/>
      <path id="Path_3282" data-name="Path 3282" d="M227.127,385.576h-41.71a.5.5,0,1,1,0-1h23.926a.559.559,0,0,0,.556-.556v-4.807a.283.283,0,0,0-.267-.289H185.417a.5.5,0,1,1,0-1H227.4a.608.608,0,0,1,.608.608v6.153A.885.885,0,0,1,227.127,385.576Zm-41.71-.673a.176.176,0,1,0,0,.348h41.71a.559.559,0,0,0,.556-.556v-6.153a.283.283,0,0,0-.283-.283H185.417a.176.176,0,1,0,0,.348h24.216a.608.608,0,0,1,.608.608v4.807a.885.885,0,0,1-.881.881Z" transform="translate(-180.831 -294.478)" fill="#263238"/>
      <path id="Path_3283" data-name="Path 3283" d="M189,408.237c.241-.807,1.125-4.147.033-6.287H228.6v6.287Z" transform="translate(-183.614 -310.69)" fill="#fff"/>
      <path id="Path_3284" data-name="Path 3284" d="M228.258,408.035h-39.6a.156.156,0,0,1-.13-.065.159.159,0,0,1-.026-.143c.2-.65,1.122-4.059.042-6.179a.158.158,0,0,1,.14-.237h39.57a.163.163,0,0,1,.163.163v6.287a.163.163,0,0,1-.163.176Zm-39.381-.325h39.218v-5.961H188.951C189.823,403.765,189.189,406.594,188.877,407.71Z" transform="translate(-183.275 -310.325)" fill="#263238"/>
      <path id="Path_3285" data-name="Path 3285" d="M248.705,406.185h-6.043a.163.163,0,0,1,0-.325H248.7a.166.166,0,0,1,.163.163A.163.163,0,0,1,248.705,406.185Z" transform="translate(-219.714 -313.328)" fill="#263238"/>
      <path id="Path_3286" data-name="Path 3286" d="M234.785,412.1h-.823a.163.163,0,1,1,0-.325h.823a.163.163,0,0,1,0,.325Z" transform="translate(-213.844 -317.316)" fill="#263238"/>
      <path id="Path_3287" data-name="Path 3287" d="M247.48,412.1h-6.768a.163.163,0,1,1,0-.325h6.768a.163.163,0,1,1,0,.325Z" transform="translate(-218.398 -317.316)" fill="#263238"/>
      <path id="Path_3288" data-name="Path 3288" d="M255.307,418.215h-2.784a.163.163,0,1,1,0-.325h2.784a.163.163,0,1,1,0,.325Z" transform="translate(-226.368 -321.446)" fill="#263238"/>
      <path id="Path_3289" data-name="Path 3289" d="M210.51,407.09v-4.8a.446.446,0,0,0-.446-.446h-24.2a.325.325,0,0,1-.325-.325h0a.325.325,0,0,1,.325-.325h41.983a.446.446,0,0,1,.446.446v6.127a.719.719,0,0,1-.719.722h-41.71a.325.325,0,0,1-.325-.325h0a.325.325,0,0,1,.325-.325h23.926a.722.722,0,0,0,.719-.745Z" transform="translate(-181.279 -310.177)" fill="#57795d"/>
      <path id="Path_3290" data-name="Path 3290" d="M227.127,408.259h-41.71a.5.5,0,1,1,0-1h23.926a.559.559,0,0,0,.556-.559v-4.8a.283.283,0,0,0-.283-.283h-24.2a.5.5,0,1,1,0-1H227.4a.608.608,0,0,1,.608.608v6.15a.885.885,0,0,1-.881.885Zm-41.71-.673a.176.176,0,1,0,0,.348h41.71a.559.559,0,0,0,.556-.559v-6.15a.283.283,0,0,0-.283-.283H185.417a.176.176,0,1,0,0,.348h24.216a.608.608,0,0,1,.608.608v4.8a.885.885,0,0,1-.881.885Z" transform="translate(-180.831 -309.789)" fill="#263238"/>
      <path id="Path_3291" data-name="Path 3291" d="M189,340.237c.241-.807,1.125-4.147.033-6.287H228.6v6.287Z" transform="translate(-183.614 -264.805)" fill="#fff"/>
      <path id="Path_3292" data-name="Path 3292" d="M228.258,340.035h-39.6a.156.156,0,0,1-.13-.065.159.159,0,0,1-.026-.143c.2-.65,1.122-4.059.042-6.179a.158.158,0,0,1,.14-.237h39.57a.163.163,0,0,1,.163.163v6.287a.163.163,0,0,1-.163.176Zm-39.381-.325h39.218v-5.961H188.951C189.823,335.765,189.189,338.594,188.877,339.71Z" transform="translate(-183.275 -264.44)" fill="#263238"/>
      <path id="Path_3293" data-name="Path 3293" d="M249.039,338.105H243a.163.163,0,0,1,0-.325h6.036a.163.163,0,0,1,0,.325Z" transform="translate(-219.944 -267.389)" fill="#263238"/>
      <path id="Path_3294" data-name="Path 3294" d="M235.105,344.005h-.823a.163.163,0,0,1-.163-.163.166.166,0,0,1,.163-.163h.823a.163.163,0,1,1,0,.325Z" transform="translate(-214.06 -271.37)" fill="#263238"/>
      <path id="Path_3295" data-name="Path 3295" d="M247.8,344.005h-6.768a.163.163,0,0,1-.163-.163.166.166,0,0,1,.163-.163H247.8a.163.163,0,1,1,0,.325Z" transform="translate(-218.614 -271.37)" fill="#263238"/>
      <path id="Path_3296" data-name="Path 3296" d="M255.63,350.125h-2.787a.163.163,0,0,1-.163-.163.166.166,0,0,1,.163-.163h2.787a.166.166,0,0,1,.163.163A.163.163,0,0,1,255.63,350.125Z" transform="translate(-226.584 -275.5)" fill="#263238"/>
      <path id="Path_3297" data-name="Path 3297" d="M210.51,339.09v-4.8a.446.446,0,0,0-.446-.446h-24.2a.325.325,0,0,1-.325-.325h0a.325.325,0,0,1,.325-.325h41.983a.446.446,0,0,1,.446.446v6.127a.719.719,0,0,1-.719.722h-41.71a.325.325,0,0,1-.325-.325h0a.325.325,0,0,1,.325-.325h23.926a.722.722,0,0,0,.719-.745Z" transform="translate(-181.279 -264.292)" fill="#57795d"/>
      <path id="Path_3298" data-name="Path 3298" d="M227.127,340.259h-41.71a.5.5,0,1,1,0-1h23.926a.559.559,0,0,0,.556-.559v-4.8a.283.283,0,0,0-.283-.283h-24.2a.5.5,0,1,1,0-1H227.4a.608.608,0,0,1,.608.608v6.15A.885.885,0,0,1,227.127,340.259Zm-41.71-.673a.176.176,0,1,0,0,.348h41.71a.559.559,0,0,0,.556-.559v-6.15a.283.283,0,0,0-.283-.283H185.417a.176.176,0,1,0,0,.348h24.216a.608.608,0,0,1,.608.608v4.8a.885.885,0,0,1-.881.885Z" transform="translate(-180.831 -263.904)" fill="#263238"/>
      <path id="Path_3299" data-name="Path 3299" d="M196.489,260.032a33.667,33.667,0,0,1-8.241-1.083c-4.878-1.194-8.888-.325-9.646,4.335s11.708,9.431,20.378,11.168,17.347,2.491,21.575.65,4.117-8.456,2.491-11.493-7.044-3.467-9.864-3.018S196.489,260.032,196.489,260.032Z" transform="translate(-176.575 -213.87)" fill="#263238"/>
      <path id="Path_3300" data-name="Path 3300" d="M213.19,276.008a80.3,80.3,0,0,1-14.58-1.72c-8.732-1.746-21.289-6.563-20.512-11.353a5.556,5.556,0,0,1,2.325-3.948c1.7-1.129,4.3-1.3,7.522-.52a33.77,33.77,0,0,0,8.2,1.08h0c.14,0,13.89.976,16.658.546,2.52-.39,8.29-.137,10.033,3.119a11.084,11.084,0,0,1,.54,8.13,5.806,5.806,0,0,1-3.109,3.577A18.338,18.338,0,0,1,213.19,276.008Zm-28.867-17.692a6.749,6.749,0,0,0-3.721.946,5.25,5.25,0,0,0-2.182,3.73c-.712,4.381,11.3,9.191,20.251,10.983,5.887,1.177,16.5,2.826,21.465.65a5.46,5.46,0,0,0,2.927-3.386,10.914,10.914,0,0,0-.517-7.88c-1.662-3.1-7.252-3.327-9.695-2.953-2.794.433-16.053-.491-16.723-.54a34.693,34.693,0,0,1-8.277-1.086A14.959,14.959,0,0,0,184.323,258.316Z" transform="translate(-176.234 -213.546)" fill="#263238"/>
      <path id="Path_3301" data-name="Path 3301" d="M259.914,147.456q-.7-4.69-1.4-9.373a81.213,81.213,0,0,0-1.369-8.839c-.976-4.228-2.439-6.5-6.83-7.317s-9.269,3.9-9.269,6.017,1.509,6.885-.813,14.391c-.794,2.566,2.277,2.927,5.987,1.792Z" transform="translate(-218.103 -121.673)" fill="#263238"/>
      <path id="Path_3302" data-name="Path 3302" d="M259.511,147.286h-.039l-13.659-3.317c-2.764.842-4.947.81-5.854-.085a1.8,1.8,0,0,1-.309-1.925,27.768,27.768,0,0,0,.976-12.534,15.674,15.674,0,0,1-.166-1.808c0-1.024,1.057-2.6,2.631-3.9,1.047-.868,3.805-2.833,6.83-2.277,4.579.846,6.02,3.369,6.96,7.438a44.175,44.175,0,0,1,1.015,6.1c.111.911.221,1.854.358,2.758q.377,2.53.754,5.064l.65,4.306a.163.163,0,0,1-.049.146A.179.179,0,0,1,259.511,147.286Zm-13.689-3.655h.039l13.454,3.291-.6-4.069q-.38-2.53-.755-5.067c-.137-.907-.247-1.85-.358-2.764a43.8,43.8,0,0,0-1.008-6.056c-.933-4.039-2.277-6.381-6.7-7.2a8.389,8.389,0,0,0-6.563,2.205c-1.48,1.233-2.514,2.732-2.514,3.652a15.936,15.936,0,0,0,.163,1.769A27.873,27.873,0,0,1,240,142.06a1.5,1.5,0,0,0,.228,1.6c.8.8,2.927.8,5.555,0A.13.13,0,0,1,245.822,143.631Z" transform="translate(-217.7 -121.34)" fill="#263238"/>
      <path id="Path_3303" data-name="Path 3303" d="M223.489,180.585s-5.366.732-7.887,1.382a5.69,5.69,0,0,0-4.322,3.294c-.907,1.72-2.257,8.111-3.558,10.794s-3.665,3.392-4.072,6.238,1.87,3.821,3.577,4.147a30.571,30.571,0,0,0,3.821.407s2.764,6.5,8.131,6.992,9.35-3.252,11.789-4.634,2.6-4.553,2.683-8.212,2.244-11.887,1.675-14.163-1.421-2.651-5.116-4.553A14.65,14.65,0,0,0,223.489,180.585Z" transform="translate(-193.468 -161.306)" fill="#57795d"/>
      <path id="Path_3304" data-name="Path 3304" d="M219.813,213.691a7.533,7.533,0,0,1-.976-.042c-5.044-.459-7.854-6.179-8.225-7a30.1,30.1,0,0,1-3.743-.4c-1.574-.3-4.147-1.262-3.711-4.329a6.434,6.434,0,0,1,2.117-3.675,10.173,10.173,0,0,0,1.971-2.625,46.021,46.021,0,0,0,2.046-6.179,34.06,34.06,0,0,1,1.512-4.625,5.859,5.859,0,0,1,4.429-3.366c2.5-.65,7.851-1.379,7.9-1.385h0a14.6,14.6,0,0,1,6.81,1.717l.325.166c3.392,1.737,4.306,2.205,4.878,4.485.325,1.33-.215,4.469-.79,7.805a52,52,0,0,0-.878,6.413c-.075,3.376-.153,6.869-2.764,8.348-.491.276-1.034.65-1.665,1.07C226.76,211.613,223.683,213.691,219.813,213.691Zm3.36-33.3c-.2.029-5.415.748-7.861,1.379-2.5.65-3.356,1.548-4.228,3.2a33.723,33.723,0,0,0-1.49,4.553,47.69,47.69,0,0,1-2.065,6.228,10.54,10.54,0,0,1-2.026,2.706,6.006,6.006,0,0,0-2.029,3.5c-.381,2.66,1.662,3.623,3.444,3.964a30.518,30.518,0,0,0,3.8.4.163.163,0,0,1,.143.1c.026.065,2.79,6.42,7.994,6.895,4.228.384,7.568-1.88,10.01-3.529.65-.433,1.184-.8,1.685-1.086,2.277-1.3,2.514-4.16,2.6-8.072a52.361,52.361,0,0,1,.881-6.462c.546-3.145,1.112-6.4.8-7.659-.533-2.137-1.337-2.546-4.706-4.273l-.325-.166A14.3,14.3,0,0,0,223.172,180.392Z" transform="translate(-193.134 -160.953)" fill="#263238"/>
      <path id="Path_3305" data-name="Path 3305" d="M206.61,233.31c-1.239,1.483-2.664,2.423-2.969,4.573a4.03,4.03,0,0,0,0,1.3,2.825,2.825,0,0,0,3.337,1.122c2.485-.712,2.218-4.173.709-6.3A1.522,1.522,0,0,0,206.61,233.31Z" transform="translate(-193.457 -196.895)" fill="#fff"/>
      <path id="Path_3306" data-name="Path 3306" d="M205.652,240.271a2.927,2.927,0,0,1-2.455-1.343.15.15,0,0,1-.026-.062,4.189,4.189,0,0,1-.016-1.34,6.41,6.41,0,0,1,2.12-3.675c.293-.325.6-.631.885-.976a.159.159,0,0,1,.146-.059,1.694,1.694,0,0,1,1.2.748,5.809,5.809,0,0,1,.976,4.878,2.559,2.559,0,0,1-1.769,1.678,3.854,3.854,0,0,1-1.063.15Zm-2.166-1.5a2.652,2.652,0,0,0,3.135,1.028,2.215,2.215,0,0,0,1.551-1.473,5.442,5.442,0,0,0-.927-4.579,1.408,1.408,0,0,0-.894-.6c-.276.325-.563.631-.842.924a6.014,6.014,0,0,0-2.029,3.5A3.725,3.725,0,0,0,203.486,238.775Z" transform="translate(-193.134 -196.561)" fill="#263238"/>
      <path id="Path_3307" data-name="Path 3307" d="M254.036,191.569c2.277-1.041,3.506-2.839,4.553-6.251a32.4,32.4,0,0,0,.927-3.75,12.673,12.673,0,0,0-5.093-.976s-2.316.325-4.621.715a22.456,22.456,0,0,0-.114,7.155C250.344,191.569,251.762,192.61,254.036,191.569Z" transform="translate(-224.394 -161.311)" fill="#fff"/>
      <path id="Path_3308" data-name="Path 3308" d="M252.119,191.78a2.234,2.234,0,0,1-1.021-.234c-.92-.462-1.558-1.577-1.951-3.408a22.24,22.24,0,0,1,.114-7.2.159.159,0,0,1,.13-.133c2.277-.4,4.605-.715,4.628-.719a13.543,13.543,0,0,1,5.174.976.166.166,0,0,1,.1.182,32.81,32.81,0,0,1-.937,3.782c-1.083,3.538-2.381,5.317-4.634,6.352h0A3.945,3.945,0,0,1,252.119,191.78ZM249.576,181.1a21.748,21.748,0,0,0-.1,6.966c.361,1.7.956,2.777,1.772,3.187a2.64,2.64,0,0,0,2.358-.176c2.156-.976,3.405-2.716,4.456-6.15a32.794,32.794,0,0,0,.891-3.584,12.61,12.61,0,0,0-4.878-.92C254.047,180.411,251.807,180.716,249.576,181.1Zm4.1,10.124Z" transform="translate(-224.025 -160.969)" fill="#263238"/>
      <path id="Path_3309" data-name="Path 3309" d="M230.163,206.846a.15.15,0,0,1-.062,0,.159.159,0,0,1-.088-.211c.016-.039,1.626-4.049,1.626-5.142a6.3,6.3,0,0,0-.758-2.446c-.179-.394-.361-.8-.533-1.236-.563-1.45.715-3.717.891-4.016.078-.589.953-7.119,1.8-8.339a.159.159,0,0,1,.224-.039.163.163,0,0,1,.042.224c-.82,1.184-1.74,8.16-1.746,8.228a.2.2,0,0,1-.023.062c0,.026-1.415,2.39-.881,3.763.166.429.348.829.524,1.22a6.5,6.5,0,0,1,.787,2.579c0,1.155-1.571,5.1-1.626,5.262A.156.156,0,0,1,230.163,206.846Z" transform="translate(-211.279 -164.558)" fill="#263238"/>
      <path id="Path_3310" data-name="Path 3310" d="M206.75,223.671l1.22-1.3a13.333,13.333,0,0,0,2.52,1.057c3.294,1.1,4.8,1.789,4.96,3.74a7.884,7.884,0,0,1,4.39-1.138,34.676,34.676,0,0,1,4.8,1.22l.65.081.163,1.138-1.22,6.423-9.513-.976-6.5-5.691Z" transform="translate(-195.591 -189.513)" fill="#fff"/>
      <path id="Path_3311" data-name="Path 3311" d="M223.893,234.721h-.016l-9.513-.976a.163.163,0,0,1-.091-.039l-6.5-5.691a.156.156,0,0,1-.049-.072l-1.464-4.553a.169.169,0,0,1,.039-.163l1.22-1.3a.163.163,0,0,1,.2-.026,13.216,13.216,0,0,0,2.488,1.041c3.252,1.083,4.768,1.779,5.041,3.629a7.745,7.745,0,0,1,4.277-1.034,18.263,18.263,0,0,1,3.734.914,7.773,7.773,0,0,0,1.063.306l.65.081a.166.166,0,0,1,.143.14l.163,1.138a.28.28,0,0,1,0,.052l-1.22,6.433A.159.159,0,0,1,223.893,234.721Zm-9.431-1.3,9.311.953,1.187-6.251-.14-.976-.527-.068a7.316,7.316,0,0,1-1.125-.325,17.971,17.971,0,0,0-3.672-.9,7.719,7.719,0,0,0-4.283,1.116.163.163,0,0,1-.159,0,.159.159,0,0,1-.091-.13c-.153-1.847-1.6-2.517-4.849-3.6a15.423,15.423,0,0,1-2.439-1l-1.063,1.135,1.418,4.42Z" transform="translate(-195.253 -189.18)" fill="#263238"/>
      <path id="Path_3312" data-name="Path 3312" d="M205.5,225.62l7.724,6.586.813-1.3,11.057-.244-.65,7.155-10.488-.488-.732.488-5.691-4.228Z" transform="translate(-194.747 -191.706)" fill="#263238"/>
      <path id="Path_3313" data-name="Path 3313" d="M224.095,237.638h0l-10.436-.488-.686.459a.166.166,0,0,1-.189,0l-5.691-4.228a.153.153,0,0,1-.059-.091l-2.046-7.971a.159.159,0,0,1,.072-.179.156.156,0,0,1,.189.016l7.581,6.462.715-1.141a.159.159,0,0,1,.133-.075l11.057-.244a.166.166,0,0,1,.124.052.169.169,0,0,1,.042.124l-.65,7.155A.166.166,0,0,1,224.095,237.638Zm-10.488-.813h0l10.332.481.621-6.83-10.788.237L213,231.94a.156.156,0,0,1-.111.075.166.166,0,0,1-.13-.036l-7.331-6.251,1.893,7.415,5.555,4.127.634-.426A.176.176,0,0,1,213.606,236.825Z" transform="translate(-194.398 -191.365)" fill="#263238"/>
      <path id="Path_3314" data-name="Path 3314" d="M243.829,199.807l-.163,9.269a47.187,47.187,0,0,1-7.48,3.415,17.659,17.659,0,0,1-4.553.732c-.244,0-1.3-1.707-1.87-2.277s-1.028-.579-2.068-1.1c-1.45-.725-2.078-.852-2-.527s.163.65.894,1.057,1.22.732,1.22.732l.163.325s-1.789-.244-2.52-.407a13.286,13.286,0,0,1-2.6-1.464s-.8-.049-.228.927,1.122,1.024,1.122,1.024a2.953,2.953,0,0,0,.813,1.545,12.252,12.252,0,0,0,1.138.894s-1.545-.407-1.382,0,1.138.569,2.358,1.138,3.984.65,5.529.894a38.836,38.836,0,0,0,8.456.163,25.5,25.5,0,0,0,9.025-3.252c.894-.732.325-8.944.081-10.814s-.732-5.366-1.057-6.992-1.626-3.9-2.439-4.39S243.992,191.758,243.829,199.807Z" transform="translate(-206.165 -168.089)" fill="#fff"/>
      <path id="Path_3315" data-name="Path 3315" d="M236.885,216.152a36.046,36.046,0,0,1-5.064-.325c-.468-.075-1.057-.133-1.681-.2a14.728,14.728,0,0,1-3.9-.712c-.442-.2-.846-.354-1.2-.488-.667-.25-1.106-.413-1.236-.738a.254.254,0,0,1,.039-.28c.12-.14.439-.143.8-.091-.163-.13-.348-.283-.553-.462a3.025,3.025,0,0,1-.846-1.532,2.194,2.194,0,0,1-1.122-1.076c-.237-.41-.289-.712-.156-.93a.6.6,0,0,1,.533-.241.14.14,0,0,1,.085.029,13.866,13.866,0,0,0,2.543,1.437c.533.12,1.659.283,2.2.361h0c-.124-.081-.566-.364-1.171-.7a1.6,1.6,0,0,1-.976-1.158.273.273,0,0,1,.085-.3c.107-.085.325-.263,2.14.65.354.179.65.3.891.4a3.2,3.2,0,0,1,1.22.732,11.888,11.888,0,0,1,.943,1.194,6.623,6.623,0,0,0,.846,1.041,18.039,18.039,0,0,0,4.478-.732,44.52,44.52,0,0,0,7.36-3.353l.163-9.174h0c.107-5.249.816-8.622,1.951-9.246a.709.709,0,0,1,.738,0c.875.524,2.192,2.878,2.514,4.5s.82,5.178,1.06,7c.107.829.937,10.082-.14,10.96A25.781,25.781,0,0,1,240.319,216,34.269,34.269,0,0,1,236.885,216.152Zm-12.745-2.527a2.652,2.652,0,0,0,1.021.5c.364.133.774.286,1.226.5a14.379,14.379,0,0,0,3.786.683c.628.065,1.22.124,1.7.2a38.442,38.442,0,0,0,8.413.163,25.487,25.487,0,0,0,8.937-3.216c.764-.624.325-8.267.023-10.667-.237-1.821-.725-5.34-1.054-6.982a8.51,8.51,0,0,0-2.364-4.28.387.387,0,0,0-.413,0c-.377.211-1.626,1.477-1.779,8.97l-.163,9.269a.156.156,0,0,1-.085.137,47.124,47.124,0,0,1-7.516,3.431,18.073,18.073,0,0,1-4.6.738c-.192,0-.39-.237-1.073-1.171a12.3,12.3,0,0,0-.911-1.155,2.927,2.927,0,0,0-1.116-.65c-.257-.107-.546-.224-.914-.407a5.286,5.286,0,0,0-1.756-.683c.078.306.169.569.807.924.729.407,1.226.735,1.233.738a.2.2,0,0,1,.055.062l.163.325a.172.172,0,0,1,0,.169.159.159,0,0,1-.156.065c-.072,0-1.8-.247-2.533-.407a11.444,11.444,0,0,1-2.6-1.46.26.26,0,0,0-.2.088c-.029.046-.068.2.159.592.511.875,1,.946,1,.946a.166.166,0,0,1,.143.133,2.823,2.823,0,0,0,.761,1.45,11.654,11.654,0,0,0,1.122.881.163.163,0,0,1-.133.293,3.974,3.974,0,0,0-1.19-.179Zm19.172-4.878Z" transform="translate(-205.806 -167.772)" fill="#263238"/>
      <path id="Path_3316" data-name="Path 3316" d="M226.5,254.87a14.732,14.732,0,0,0,3.386,1.47" transform="translate(-208.918 -211.443)" fill="#fff"/>
      <path id="Path_3317" data-name="Path 3317" d="M229.55,256.167h-.036a14.833,14.833,0,0,1-3.431-1.486.166.166,0,0,1-.059-.224.159.159,0,0,1,.221-.055,15.276,15.276,0,0,0,3.337,1.45.163.163,0,1,1-.033.325Z" transform="translate(-208.582 -211.111)" fill="#263238"/>
      <path id="Path_3318" data-name="Path 3318" d="M232.5,262.37a6.37,6.37,0,0,0,1.916.4" transform="translate(-212.966 -216.504)" fill="#fff"/>
      <path id="Path_3319" data-name="Path 3319" d="M234.077,262.589a6.441,6.441,0,0,1-1.974-.41.162.162,0,1,1,.117-.3,6.253,6.253,0,0,0,1.857.387.163.163,0,1,1,0,.325Z" transform="translate(-212.628 -216.164)" fill="#263238"/>
      <path id="Path_3320" data-name="Path 3320" d="M227.26,257.41a9.916,9.916,0,0,0,3.379,1.529" transform="translate(-209.431 -213.157)" fill="#fff"/>
      <path id="Path_3321" data-name="Path 3321" d="M230.333,258.761h-.039a9.959,9.959,0,0,1-3.425-1.564.162.162,0,0,1,.2-.257,9.824,9.824,0,0,0,3.317,1.5.159.159,0,0,1,.12.2A.163.163,0,0,1,230.333,258.761Z" transform="translate(-209.124 -212.817)" fill="#263238"/>
      <path id="Path_3322" data-name="Path 3322" d="M277.58,216.007a26.251,26.251,0,0,0,8.056-3.109c.894-.732.325-8.944.081-10.814s-.732-5.366-1.057-6.992-1.626-3.9-2.439-4.39-2.277,1.057-2.439,9.106l-.163,9.269s-1.864,1.041-3.919,2A6.491,6.491,0,0,1,277.58,216.007Z" transform="translate(-242.117 -168.089)" fill="#57795d"/>
      <path id="Path_3323" data-name="Path 3323" d="M277.244,215.833a.179.179,0,0,1-.111-.042.166.166,0,0,1-.049-.137,6.323,6.323,0,0,0-1.841-4.8.169.169,0,0,1-.039-.14.159.159,0,0,1,.091-.117c1.785-.836,3.444-1.743,3.825-1.951l.163-9.174c.107-5.249.816-8.622,1.951-9.246a.709.709,0,0,1,.738,0c.875.524,2.192,2.878,2.514,4.5s.82,5.178,1.06,7c.107.829.937,10.082-.14,10.96a26.253,26.253,0,0,1-8.13,3.145Zm-1.626-5.034a6.553,6.553,0,0,1,1.8,4.673,25.867,25.867,0,0,0,7.77-3.038c.764-.624.325-8.267.023-10.667-.237-1.821-.725-5.34-1.054-6.982a8.51,8.51,0,0,0-2.364-4.28.387.387,0,0,0-.413,0c-.377.211-1.626,1.477-1.779,8.97l-.163,9.269a.156.156,0,0,1-.085.137c0,.01-1.759.992-3.717,1.919Z" transform="translate(-241.781 -167.752)" fill="#263238"/>
      <path id="Path_3324" data-name="Path 3324" d="M254.216,177.34a62.65,62.65,0,0,0-.8,6.83c-.072,2.6,1.89,5.233,4.651,1.89s2.325-8.869,2.325-8.869A7.675,7.675,0,0,1,254.216,177.34Z" transform="translate(-227.079 -159.026)" fill="#fff"/>
      <path id="Path_3325" data-name="Path 3325" d="M255.261,187.49a1.7,1.7,0,0,1-.618-.114c-1.047-.39-1.772-1.873-1.727-3.522a62.866,62.866,0,0,1,.8-6.859.179.179,0,0,1,.081-.114.169.169,0,0,1,.143,0,7.565,7.565,0,0,0,6.039-.14.163.163,0,0,1,.237.13c.02.228.41,5.63-2.361,8.986C256.8,187.126,255.921,187.49,255.261,187.49Zm-1.255-10.241a60.044,60.044,0,0,0-.764,6.612c-.042,1.516.6,2.865,1.516,3.213.833.325,1.818-.182,2.849-1.431,2.364-2.865,2.342-7.422,2.3-8.511A7.834,7.834,0,0,1,254.005,177.249Z" transform="translate(-226.741 -158.711)" fill="#263238"/>
      <path id="Path_3326" data-name="Path 3326" d="M255.984,186.561h-.026a.163.163,0,0,1-.133-.189,19.882,19.882,0,0,0,.072-3.451.159.159,0,0,1,.15-.172.166.166,0,0,1,.172.153,19.84,19.84,0,0,1-.075,3.525A.159.159,0,0,1,255.984,186.561Z" transform="translate(-228.704 -162.778)" fill="#263238"/>
      <path id="Path_3327" data-name="Path 3327" d="M206.04,244.371a1.408,1.408,0,0,0,.124,1.116c.325.537,2.065,1.568,2.065,1.155s-.868-.976-.911-1.278a2.436,2.436,0,0,0-.286-.7S206.411,243.876,206.04,244.371Z" transform="translate(-195.069 -204.248)" fill="#fff"/>
      <path id="Path_3328" data-name="Path 3328" d="M207.781,246.562a4.03,4.03,0,0,1-2.091-1.327,1.551,1.551,0,0,1-.14-1.252.2.2,0,0,1,.023-.046.52.52,0,0,1,.423-.228h0c.4,0,.777.462.82.514a2.6,2.6,0,0,1,.325.781,1.659,1.659,0,0,0,.325.413c.28.289.572.589.572.888a.247.247,0,0,1-.185.247A.365.365,0,0,1,207.781,246.562Zm-1.932-2.433a1.239,1.239,0,0,0,.117.953,4.26,4.26,0,0,0,1.746,1.171,2.163,2.163,0,0,0-.462-.592,1.356,1.356,0,0,1-.429-.6,2.276,2.276,0,0,0-.267-.65,1.021,1.021,0,0,0-.556-.374A.189.189,0,0,0,205.849,244.13Z" transform="translate(-194.732 -203.913)" fill="#263238"/>
      <path id="Path_3329" data-name="Path 3329" d="M203.58,237.3a6.045,6.045,0,0,0,.127,1.769c.2.563,2.381,2.065,2.927,1.779s-1.161-1.779-1.568-2.247a13.924,13.924,0,0,0-1.486-1.3Z" transform="translate(-193.442 -199.587)" fill="#fff"/>
      <path id="Path_3330" data-name="Path 3330" d="M206.133,240.709a1.653,1.653,0,0,1-.572-.133,5.5,5.5,0,0,1-2.342-1.789,6.041,6.041,0,0,1-.133-1.834.163.163,0,0,1,.094-.14.169.169,0,0,1,.166.02,14.4,14.4,0,0,1,1.522,1.333c.085.1.228.241.394.407.787.787,1.382,1.421,1.317,1.828a.325.325,0,0,1-.2.263A.537.537,0,0,1,206.133,240.709Zm-2.735-3.425a4.606,4.606,0,0,0,.127,1.392,5.381,5.381,0,0,0,2.156,1.6c.387.153.524.107.556.091.065-.3-.794-1.158-1.2-1.571-.176-.172-.325-.325-.413-.423a11.6,11.6,0,0,0-1.223-1.086Z" transform="translate(-193.107 -199.249)" fill="#263238"/>
      <path id="Path_3331" data-name="Path 3331" d="M203.48,232.79a6.091,6.091,0,0,0,0,1.772c.163.576,2.228,2.228,2.807,1.981s-1.031-1.857-1.4-2.351A14.13,14.13,0,0,0,203.48,232.79Z" transform="translate(-193.336 -196.544)" fill="#fff"/>
      <path id="Path_3332" data-name="Path 3332" d="M205.814,236.388a1.5,1.5,0,0,1-.611-.176,5.467,5.467,0,0,1-2.212-1.951,6.26,6.26,0,0,1,0-1.841.159.159,0,0,1,.1-.13.166.166,0,0,1,.163.029,14.5,14.5,0,0,1,1.428,1.428c.075.1.208.257.364.436.728.839,1.275,1.512,1.184,1.916a.345.345,0,0,1-.211.247A.511.511,0,0,1,205.814,236.388Zm-2.546-3.61a4.676,4.676,0,0,0,.029,1.4,5.407,5.407,0,0,0,2.039,1.743c.377.179.514.146.546.13.088-.3-.706-1.21-1.089-1.652-.159-.185-.3-.345-.377-.452a11.413,11.413,0,0,0-1.148-1.168Z" transform="translate(-193.003 -196.2)" fill="#263238"/>
      <path id="Path_3333" data-name="Path 3333" d="M203.625,228.09s-1.239-.65-1.444.166.742,1.691,1.61,2.394,1.236.576,1.236-.085S203.625,228.09,203.625,228.09Z" transform="translate(-192.489 -193.207)" fill="#fff"/>
      <path id="Path_3334" data-name="Path 3334" d="M204.343,230.939a1.815,1.815,0,0,1-1-.507c-1-.807-1.886-1.675-1.665-2.559a.65.65,0,0,1,.374-.472,1.789,1.789,0,0,1,1.3.2.117.117,0,0,1,.052.046c.15.189,1.437,1.88,1.437,2.573,0,.354-.1.579-.3.673A.452.452,0,0,1,204.343,230.939Zm-1.951-3.281a.566.566,0,0,0-.218.039.345.345,0,0,0-.192.254c-.176.712.686,1.525,1.555,2.228.6.485.81.446.862.423s.111-.172.111-.381a7.43,7.43,0,0,0-1.346-2.345,1.951,1.951,0,0,0-.751-.218Z" transform="translate(-192.146 -192.862)" fill="#263238"/>
      <path id="Path_3335" data-name="Path 3335" d="M187.274,300.452a11.529,11.529,0,0,1-4.66.976c-3.034.107-5.529-1.519-4.121-2.82a6.853,6.853,0,0,1,5.529-1.733c1.951.325,4.878,1.083,4.878,1.083Z" transform="translate(-176.251 -239.747)" fill="#fff"/>
      <path id="Path_3336" data-name="Path 3336" d="M182.007,301.209c-2.033,0-3.9-.758-4.319-1.782a1.145,1.145,0,0,1,.371-1.324,6.989,6.989,0,0,1,5.669-1.776c1.951.325,4.878,1.08,4.878,1.086a.166.166,0,0,1,.111.1.163.163,0,0,1-.016.15l-1.626,2.491a.16.16,0,0,1-.059.055,11.6,11.6,0,0,1-4.732,1Zm.761-4.634a6.8,6.8,0,0,0-4.488,1.766.819.819,0,0,0-.289.976c.325.82,2.075,1.655,4.293,1.574a11.809,11.809,0,0,0,4.553-.94l1.477-2.277c-.715-.179-3.028-.755-4.644-1.024A5.569,5.569,0,0,0,182.768,296.574Zm4.182,3.506Z" transform="translate(-175.928 -239.375)" fill="#263238"/>
      <path id="Path_3337" data-name="Path 3337" d="M187.713,297.693c.146.016.3.026.459.033-1-.247-2.8-.676-4.147-.9a6.852,6.852,0,0,0-5.529,1.733c-.715.65-.42,1.411.442,1.971a2.085,2.085,0,0,1,1.3-2.185C182.073,297.492,185.869,297.492,187.713,297.693Z" transform="translate(-176.254 -239.713)" fill="#fff"/>
      <path id="Path_3338" data-name="Path 3338" d="M178.6,300.354a.172.172,0,0,1-.088-.026,1.752,1.752,0,0,1-.917-1.229,1.216,1.216,0,0,1,.452-1,6.989,6.989,0,0,1,5.669-1.776c1.346.224,3.184.65,4.156.9a.166.166,0,0,1,.124.182.179.179,0,0,1-.169.14,3.647,3.647,0,0,1-.472-.036h0c-1.951-.228-5.646-.185-7.392.65a1.919,1.919,0,0,0-1.2,2.023.166.166,0,0,1-.078.156.192.192,0,0,1-.085.01Zm4.156-3.779a6.8,6.8,0,0,0-4.488,1.766.894.894,0,0,0-.348.732,1.239,1.239,0,0,0,.511.794,2.221,2.221,0,0,1,1.392-2.007,15.211,15.211,0,0,1,6.026-.774c-.742-.166-1.525-.325-2.189-.439A5.558,5.558,0,0,0,182.759,296.574Z" transform="translate(-175.919 -239.375)" fill="#263238"/>
      <path id="Path_3339" data-name="Path 3339" d="M240.264,267.347s-3.252,4.878-6.5,6.83-18.105,2.185-21.139,2.185h-6.29v-2.277s9.975-1.424,15.5-4.553,8.456-6.612,12.791-8.023,8.131.976,8.023,6.83" transform="translate(-195.307 -215.656)" fill="#263238"/>
      <path id="Path_3340" data-name="Path 3340" d="M212.282,276.14h-6.29a.163.163,0,0,1-.163-.163V273.7a.163.163,0,0,1,.14-.159c.1,0,10.007-1.444,15.445-4.534a56.768,56.768,0,0,0,5.877-3.951,24.755,24.755,0,0,1,6.947-4.085,6.156,6.156,0,0,1,5.727.65c1.668,1.236,2.559,3.49,2.507,6.345a.156.156,0,0,1-.166.159.163.163,0,0,1-.159-.166c.052-2.745-.794-4.9-2.377-6.078a5.865,5.865,0,0,0-5.431-.592,24.439,24.439,0,0,0-6.856,4.039,56.815,56.815,0,0,1-5.906,3.968c-5.138,2.927-14.186,4.368-15.422,4.553v1.974h6.127c.172,0,17.52-.023,21.055-2.146,3.184-1.909,6.42-6.729,6.452-6.778a.163.163,0,0,1,.224-.046.159.159,0,0,1,.046.224c-.033.049-3.307,4.93-6.556,6.878C229.893,276.114,212.458,276.14,212.282,276.14Z" transform="translate(-194.97 -215.287)" fill="#263238"/>
      <path id="Path_3341" data-name="Path 3341" d="M274.421,296.263a.163.163,0,1,1-.029-.325,18.4,18.4,0,0,0,9.4-4.647.163.163,0,0,1,.231,0,.159.159,0,0,1,0,.228,18.7,18.7,0,0,1-9.565,4.732Z" transform="translate(-241.134 -235.986)" fill="#fff"/>
      <path id="Path_3342" data-name="Path 3342" d="M307.354,284.8a.166.166,0,0,1-.1-.036.163.163,0,0,1-.026-.228,8.306,8.306,0,0,0,.894-1.3.166.166,0,0,1,.218-.072.163.163,0,0,1,.075.218,8.383,8.383,0,0,1-.933,1.366A.156.156,0,0,1,307.354,284.8Z" transform="translate(-263.367 -230.526)" fill="#fff"/>
      <path id="Path_3343" data-name="Path 3343" d="M243.663,286.894a.163.163,0,1,1,0-.325,9.467,9.467,0,0,0,5.109-1.912.159.159,0,0,1,.228.016.166.166,0,0,1-.02.231,9.61,9.61,0,0,1-5.317,1.99Z" transform="translate(-220.389 -231.515)" fill="#fff"/>
      <path id="Path_3344" data-name="Path 3344" d="M199.688,265.986l-.358-.036" transform="translate(-190.584 -218.92)" fill="#263238"/>
      <path id="Path_3345" data-name="Path 3345" d="M199.35,265.817h-.016l-.355-.033a.166.166,0,0,1-.15-.176.169.169,0,0,1,.176-.15l.364.036a.163.163,0,0,1-.02.325Z" transform="translate(-190.246 -218.589)" fill="#263238"/>
      <path id="Path_3346" data-name="Path 3346" d="M293.885,306.34a30.41,30.41,0,0,1,4.989-1.3c2.277-.325,4.117,0,4.768,1.411s.218,3.142-2.059,3.577-6.4-.436-6.83-.436a3.193,3.193,0,0,1-1.083-.325Z" transform="translate(-254.243 -245.218)" fill="#fff"/>
      <path id="Path_3347" data-name="Path 3347" d="M299.706,310.024a31.5,31.5,0,0,1-4.521-.449c-.384-.059-.686-.107-.771-.107a3.369,3.369,0,0,1-1.158-.325.159.159,0,0,1-.088-.156l.215-2.927a.172.172,0,0,1,.107-.143,30.753,30.753,0,0,1,5.021-1.3c2.6-.374,4.312.146,4.94,1.5a2.7,2.7,0,0,1,.029,2.364,2.893,2.893,0,0,1-2.208,1.441A8.611,8.611,0,0,1,299.706,310.024Zm-6.205-1.135a2.753,2.753,0,0,0,.914.26,8.194,8.194,0,0,1,.82.111,21.488,21.488,0,0,0,5.981.325,2.619,2.619,0,0,0,1.977-1.272,2.371,2.371,0,0,0-.036-2.078c-.706-1.532-2.891-1.561-4.6-1.317a29.481,29.481,0,0,0-4.856,1.259Z" transform="translate(-253.904 -244.931)" fill="#263238"/>
      <path id="Path_3348" data-name="Path 3348" d="M308.952,305a2.455,2.455,0,0,1,1.759,2.686c-.325,2.277-3.038,2.277-4.878,2.277a1.51,1.51,0,0,0-.4.059,15.059,15.059,0,0,0,4.088.052c2.277-.436,2.709-2.169,2.059-3.577A2.946,2.946,0,0,0,308.952,305Z" transform="translate(-262.178 -245.27)" fill="#fff"/>
      <path id="Path_3349" data-name="Path 3349" d="M307.639,310.038a22.24,22.24,0,0,1-2.566-.176.163.163,0,0,1-.143-.15.169.169,0,0,1,.12-.169,1.793,1.793,0,0,1,.446-.062c1.86,0,4.41,0,4.716-2.137a2.293,2.293,0,0,0-1.655-2.514.166.166,0,0,1-.1-.189.163.163,0,0,1,.172-.124,3.036,3.036,0,0,1,2.761,1.59,2.7,2.7,0,0,1,.029,2.364,2.893,2.893,0,0,1-2.208,1.441A8.4,8.4,0,0,1,307.639,310.038Zm-.033-.325a9.034,9.034,0,0,0,1.545-.117,2.619,2.619,0,0,0,1.977-1.272,2.371,2.371,0,0,0-.036-2.078,2.3,2.3,0,0,0-1.529-1.226,2.4,2.4,0,0,1,.976,2.371C310.306,308.984,309,309.527,307.606,309.712Z" transform="translate(-261.84 -244.945)" fill="#263238"/>
      <path id="Path_3350" data-name="Path 3350" d="M180.66,258.389s-3.688-.65-6.072,1.19-2.059,3.8.218,6.615,8.131,7.805,20.814,10.082,16.586,1.516,16.586,1.516l.215-2.927a25.767,25.767,0,0,1-15.175-4.878c-7.1-5.2-10.264-8.622-15.363-9.178" transform="translate(-172.779 -213.742)" fill="#263238"/>
      <path id="Path_3351" data-name="Path 3351" d="M209.663,277.733a85.037,85.037,0,0,1-14.414-1.646c-13.428-2.41-19.1-7.893-20.912-10.14-1.441-1.782-2.02-3.106-1.88-4.3a3.806,3.806,0,0,1,1.688-2.543c2.416-1.867,6.046-1.252,6.2-1.223a.156.156,0,0,1,.133.185.163.163,0,0,1-.189.133c-.036,0-3.642-.615-5.942,1.161a3.55,3.55,0,0,0-1.568,2.325c-.127,1.083.449,2.371,1.811,4.056,1.789,2.218,7.392,7.633,20.713,10.027,11.3,2.026,15.653,1.626,16.407,1.535l.192-2.618a26.311,26.311,0,0,1-15.1-4.914c-1.607-1.177-3.031-2.277-4.286-3.252-4.273-3.3-7.1-5.48-11-5.906a.164.164,0,1,1,.036-.325c3.99.436,6.83,2.638,11.158,5.971,1.255.976,2.677,2.065,4.28,3.252a25.839,25.839,0,0,0,15.074,4.846.163.163,0,0,1,.124.049.169.169,0,0,1,.046.127l-.215,2.927a.166.166,0,0,1-.133.146,12.956,12.956,0,0,1-2.231.127Z" transform="translate(-172.438 -213.394)" fill="#263238"/>
      <path id="Path_3352" data-name="Path 3352" d="M192.163,266.155a.162.162,0,0,1-.029-.322,9.1,9.1,0,0,1,1.184-.143.166.166,0,0,1,.172.156.163.163,0,0,1-.156.169,8.945,8.945,0,0,0-1.142.137Z" transform="translate(-185.638 -218.744)" fill="#fff"/>
      <path id="Path_3353" data-name="Path 3353" d="M230.495,280.281h0c-.075,0-7.63-.241-16.03-6.7-5.854-4.495-9.4-6.553-12.274-7.109a.166.166,0,1,1,.062-.325c2.927.566,6.524,2.644,12.407,7.171,8.319,6.4,15.767,6.631,15.841,6.634a.159.159,0,0,1,.159.166A.166.166,0,0,1,230.495,280.281Z" transform="translate(-192.423 -219.049)" fill="#fff"/>
      <path id="Path_3354" data-name="Path 3354" d="M261.842,145.1c-2,1.054-2.277-1.06-2.26-2.335a.111.111,0,0,0,.042-.055c.143-.585,0-3.506-1.681-4.677a9.9,9.9,0,0,0-5.282-1.922,3.89,3.89,0,0,0-3.132,1.87c-.823,1.246-.755,2.69-.82,4.127a19,19,0,0,0,.081,4.465c.384,1.919,2.176,5.948,4.351,5.948,1.974,0,5.48-2.953,6.683-4.693a2.117,2.117,0,0,0,.738-.426A2.725,2.725,0,0,0,261.842,145.1Z" transform="translate(-223.842 -131.306)" fill="#fff"/>
      <path id="Path_3355" data-name="Path 3355" d="M252.8,152.326c-2.345,0-4.153-4.29-4.511-6.082a16.008,16.008,0,0,1-.114-3.929l.029-.572.02-.572a6.716,6.716,0,0,1,.829-3.639,4.027,4.027,0,0,1,3.252-1.951h0a9.973,9.973,0,0,1,5.373,1.951c1.779,1.236,1.906,4.228,1.746,4.849a.281.281,0,0,1-.036.078c0,.719.1,1.912.709,2.277a1.3,1.3,0,0,0,1.3-.15.156.156,0,0,1,.156,0,.159.159,0,0,1,.081.133,2.743,2.743,0,0,1-1.229,2.345l-.107.088a2.225,2.225,0,0,1-.742.439C258.421,149.256,254.931,152.326,252.8,152.326Zm-.5-16.411a3.709,3.709,0,0,0-2.992,1.8,6.4,6.4,0,0,0-.774,3.473l-.02.576-.029.572a15.672,15.672,0,0,0,.107,3.851C249,148.212,250.8,152,252.788,152c1.851,0,5.288-2.8,6.55-4.625a.149.149,0,0,1,.085-.062,1.884,1.884,0,0,0,.68-.394l.111-.091A2.534,2.534,0,0,0,261.325,145a1.48,1.48,0,0,1-1.4.026c-.722-.439-.868-1.668-.865-2.621a.169.169,0,0,1,.055-.12c.133-.543-.042-3.376-1.626-4.478a9.631,9.631,0,0,0-5.187-1.893Z" transform="translate(-223.501 -130.949)" fill="#263238"/>
      <path id="Path_3356" data-name="Path 3356" d="M259.959,162.857a.683.683,0,0,1-.354-.075.3.3,0,0,1-.143-.2,19.357,19.357,0,0,1,.836-3.155.166.166,0,0,1,.2-.1.159.159,0,0,1,.1.2,20.519,20.519,0,0,0-.826,2.992,2.254,2.254,0,0,0,.946-.127.159.159,0,0,1,.2.111.163.163,0,0,1-.111.2,3.471,3.471,0,0,1-.859.15Z" transform="translate(-231.156 -146.967)" fill="#263238"/>
      <path id="Path_3357" data-name="Path 3357" d="M260.66,171.828a1.951,1.951,0,0,1-1.125-.325.163.163,0,1,1,.2-.26h0c.046.033,1.119.794,2.878-.511a.163.163,0,0,1,.228.033.166.166,0,0,1-.036.228A3.6,3.6,0,0,1,260.66,171.828Z" transform="translate(-231.165 -154.647)" fill="#263238"/>
      <path id="Path_3358" data-name="Path 3358" d="M270.015,163.4a1.841,1.841,0,0,1-1.678-.9.162.162,0,0,1,.293-.14c.026.052.615,1.2,2.485.494a.163.163,0,0,1,.114.306A3.463,3.463,0,0,1,270.015,163.4Z" transform="translate(-237.138 -148.958)" fill="#263238"/>
      <path id="Path_3359" data-name="Path 3359" d="M252.162,158.623a1.692,1.692,0,0,1-1.733-1.063.166.166,0,0,1,.114-.2.163.163,0,0,1,.2.111c0,.052.377,1.184,2.238.719a.167.167,0,0,1,.078.325A3.691,3.691,0,0,1,252.162,158.623Z" transform="translate(-225.061 -145.64)" fill="#263238"/>
      <path id="Path_3360" data-name="Path 3360" d="M255.272,151.091a.166.166,0,0,1-.156-.12,2.473,2.473,0,0,0-1.145-1.431,1.969,1.969,0,0,0-1.733.25.166.166,0,0,1-.221-.065.163.163,0,0,1,.062-.221,2.276,2.276,0,0,1,2.02-.263,2.712,2.712,0,0,1,1.333,1.646.163.163,0,0,1-.114.2Z" transform="translate(-226.122 -140.076)" fill="#263238"/>
      <path id="Path_3361" data-name="Path 3361" d="M266.522,160.434a2.722,2.722,0,1,1,2.722-2.722A2.722,2.722,0,0,1,266.522,160.434Zm0-5.119a2.4,2.4,0,1,0,2.4,2.4,2.4,2.4,0,0,0-2.4-2.4Z" transform="translate(-234.087 -144.046)" fill="#263238"/>
      <path id="Path_3362" data-name="Path 3362" d="M248.422,156.894a2.722,2.722,0,1,1,2.722-2.722A2.722,2.722,0,0,1,248.422,156.894Zm0-5.119a2.4,2.4,0,1,0,2.4,2.4A2.4,2.4,0,0,0,248.422,151.775Z" transform="translate(-221.874 -141.658)" fill="#263238"/>
      <path id="Path_3363" data-name="Path 3363" d="M279.3,163.96a.166.166,0,0,1-.159-.133.163.163,0,0,1,.13-.189l2.114-.384a.162.162,0,1,1,.059.319l-2.114.384Z" transform="translate(-244.44 -149.621)" fill="#263238"/>
      <path id="Path_3364" data-name="Path 3364" d="M246.063,156.481a.166.166,0,0,1-.13-.065.163.163,0,0,1,.033-.228l.768-.576a.163.163,0,0,1,.228.033.166.166,0,0,1-.033.228l-.768.576A.159.159,0,0,1,246.063,156.481Z" transform="translate(-222.008 -144.444)" fill="#263238"/>
      <path id="Path_3365" data-name="Path 3365" d="M254.15,132.248s2.277-1.385,3.07-.072,4.439,10.043,8.355,8.088-.029-8.381-3.828-10.427S254.752,129.545,254.15,132.248Z" transform="translate(-227.575 -126.472)" fill="#263238"/>
      <path id="Path_3366" data-name="Path 3366" d="M264.08,140.369c-3.005,0-5.63-5.151-6.83-7.513-.215-.423-.387-.758-.5-.94a.956.956,0,0,0-.621-.449,3.779,3.779,0,0,0-2.225.576.163.163,0,0,1-.244-.172,4.27,4.27,0,0,1,2.42-2.989,6.011,6.011,0,0,1,5.415.468c2.647,1.428,5.578,5.145,5.529,7.991a2.927,2.927,0,0,1-1.707,2.725,2.758,2.758,0,0,1-1.239.3Zm-8.3-9.266a1.83,1.83,0,0,1,.423.046,1.281,1.281,0,0,1,.82.6c.117.192.293.53.511.976,1.324,2.6,4.42,8.67,7.636,7.064a2.6,2.6,0,0,0,1.529-2.436c.042-2.732-2.794-6.319-5.36-7.7a5.722,5.722,0,0,0-5.125-.459,3.971,3.971,0,0,0-2.143,2.4A4.185,4.185,0,0,1,255.783,131.1Z" transform="translate(-227.244 -126.128)" fill="#263238"/>
      <path id="Path_3367" data-name="Path 3367" d="M252.2,135h0a.163.163,0,0,1-.163-.163,1.626,1.626,0,0,1,.82-1.252c.836-.559,2.159.546,2.215.592a.163.163,0,1,1-.208.25c-.325-.28-1.3-.924-1.828-.572a1.317,1.317,0,0,0-.673.976.159.159,0,0,1-.163.169Z" transform="translate(-226.152 -129.495)" fill="#fff"/>
      <path id="Path_3368" data-name="Path 3368" d="M290.328,156.949h-.042a3.577,3.577,0,0,1-.976-.439.163.163,0,1,1,.176-.273,3.253,3.253,0,0,0,.9.4.164.164,0,0,1-.042.325Z" transform="translate(-251.245 -144.867)" fill="#fff"/>
      <path id="Path_3369" data-name="Path 3369" d="M267.589,134.048a.159.159,0,0,1-.13-.065,23.224,23.224,0,0,1-1.8-3.142,40.369,40.369,0,0,0-1.987-3.577c-.839-1.3-1.73-2-2.647-2.072a2.416,2.416,0,0,0-1.811.725.156.156,0,0,1-.228,0,.159.159,0,0,1,0-.228,2.683,2.683,0,0,1,2.078-.836c1.024.081,2,.829,2.894,2.221a40.261,40.261,0,0,1,2,3.577,22.788,22.788,0,0,0,1.776,3.1.166.166,0,0,1-.033.228.159.159,0,0,1-.111.072Z" transform="translate(-230.803 -123.709)" fill="#fff"/>
      <path id="Path_3370" data-name="Path 3370" d="M273.64,153.323a.159.159,0,0,1-.111-.046,2.738,2.738,0,0,0-3.138-.485.166.166,0,0,1-.221-.068.163.163,0,0,1,.068-.221,3.119,3.119,0,0,1,3.516.54.163.163,0,0,1-.114.28Z" transform="translate(-238.372 -142.155)" fill="#fff"/>
      <path id="Path_3371" data-name="Path 3371" d="M266.58,233a9.206,9.206,0,0,1-6.628-3.125.166.166,0,0,1,.257-.2,8.842,8.842,0,0,0,6.371,3.005.163.163,0,0,1,0,.325Z" transform="translate(-231.475 -194.405)" fill="#263238"/>
    </g>
    <g id="freepik--Floor--inject-33" transform="translate(62.386 175.646)">
      <path id="Path_3372" data-name="Path 3372" d="M192.48,423.445H80.243a.163.163,0,0,1,0-.325H192.48a.163.163,0,0,1,0,.325Z" transform="translate(-80.08 -423.12)" fill="#263238"/>
    </g>
  </g>
</svg>
