<svg xmlns="http://www.w3.org/2000/svg" width="141.956" height="108.846" viewBox="0 0 141.956 108.846">
  <g id="Chakras-rafiki" transform="translate(0 -44.18)">
    <g id="freepik--background-complete--inject-1" transform="translate(0 47.252)">
      <rect id="Rectangle_162" data-name="Rectangle 162" width="141.956" height="0.071" transform="translate(0 92.953)" fill="#ebebeb"/>
      <rect id="Rectangle_163" data-name="Rectangle 163" width="9.403" height="0.071" transform="translate(118.329 97.521)" fill="#ebebeb"/>
      <rect id="Rectangle_164" data-name="Rectangle 164" width="2.467" height="0.071" transform="translate(91.57 98.293)" fill="#ebebeb"/>
      <rect id="Rectangle_165" data-name="Rectangle 165" width="5.448" height="0.071" transform="translate(112.596 94.886)" fill="#ebebeb"/>
      <rect id="Rectangle_166" data-name="Rectangle 166" width="12.262" height="0.071" transform="translate(14.894 95.363)" fill="#ebebeb"/>
      <rect id="Rectangle_167" data-name="Rectangle 167" width="1.797" height="0.071" transform="translate(29.686 95.363)" fill="#ebebeb"/>
      <rect id="Rectangle_168" data-name="Rectangle 168" width="26.597" height="0.071" transform="translate(37.326 96.561)" fill="#ebebeb"/>
      <path id="Path_1362" data-name="Path 1362" d="M94.649,135.29H39.828a1.621,1.621,0,0,1-1.618-1.621V56.607A1.621,1.621,0,0,1,39.828,55h54.82a1.621,1.621,0,0,1,1.621,1.621v77.048A1.621,1.621,0,0,1,94.649,135.29ZM39.828,55.057a1.55,1.55,0,0,0-1.547,1.55v77.062a1.55,1.55,0,0,0,1.547,1.55h54.82a1.553,1.553,0,0,0,1.55-1.55V56.607a1.553,1.553,0,0,0-1.55-1.55Z" transform="translate(-27.362 -55)" fill="#ebebeb"/>
      <path id="Path_1363" data-name="Path 1363" d="M310.944,135.29H256.121a1.624,1.624,0,0,1-1.621-1.621V56.607A1.624,1.624,0,0,1,256.121,55h54.823a1.621,1.621,0,0,1,1.615,1.607v77.062A1.621,1.621,0,0,1,310.944,135.29ZM256.121,55.057a1.553,1.553,0,0,0-1.55,1.55v77.062a1.553,1.553,0,0,0,1.55,1.55h54.823a1.553,1.553,0,0,0,1.55-1.55V56.607a1.553,1.553,0,0,0-1.55-1.55Z" transform="translate(-182.245 -55)" fill="#ebebeb"/>
      <rect id="Rectangle_169" data-name="Rectangle 169" width="67.673" height="38.567" transform="translate(86.144 47.05) rotate(180)" fill="#e6e6e6"/>
      <rect id="Rectangle_170" data-name="Rectangle 170" width="67.673" height="38.567" transform="translate(85.097 47.05) rotate(180)" fill="#f5f5f5"/>
      <rect id="Rectangle_171" data-name="Rectangle 171" width="34.947" height="63.911" transform="translate(83.217 10.295) rotate(90)" fill="#fff"/>
      <rect id="Rectangle_172" data-name="Rectangle 172" width="34.947" height="0.792" transform="translate(20.095 10.292) rotate(90)" fill="#e6e6e6"/>
      <rect id="Rectangle_173" data-name="Rectangle 173" width="66.117" height="2.43" transform="translate(84.322 36.806) rotate(180)" fill="#f5f5f5"/>
      <g id="Group_418" data-name="Group 418" transform="translate(15.326 6.578)" opacity="0.4">
        <rect id="Rectangle_174" data-name="Rectangle 174" width="6.388" height="32.63" fill="#e6e6e6"/>
        <rect id="Rectangle_175" data-name="Rectangle 175" width="3.168" height="30.007" transform="translate(9.556 30.007) rotate(180)" fill="#f5f5f5"/>
        <rect id="Rectangle_176" data-name="Rectangle 176" width="6.388" height="32.63" transform="translate(9.556)" fill="#e6e6e6"/>
        <rect id="Rectangle_177" data-name="Rectangle 177" width="3.168" height="30.007" transform="translate(19.113 30.007) rotate(180)" fill="#f5f5f5"/>
        <rect id="Rectangle_178" data-name="Rectangle 178" width="6.388" height="32.63" transform="translate(19.113)" fill="#e6e6e6"/>
        <rect id="Rectangle_179" data-name="Rectangle 179" width="3.168" height="30.007" transform="translate(28.669 30.007) rotate(180)" fill="#f5f5f5"/>
        <rect id="Rectangle_180" data-name="Rectangle 180" width="6.388" height="32.63" transform="translate(28.669)" fill="#e6e6e6"/>
        <rect id="Rectangle_181" data-name="Rectangle 181" width="3.168" height="30.007" transform="translate(38.226 30.007) rotate(180)" fill="#f5f5f5"/>
        <rect id="Rectangle_182" data-name="Rectangle 182" width="6.388" height="32.63" transform="translate(38.226)" fill="#e6e6e6"/>
        <rect id="Rectangle_183" data-name="Rectangle 183" width="3.168" height="30.007" transform="translate(47.782 30.007) rotate(180)" fill="#f5f5f5"/>
        <rect id="Rectangle_184" data-name="Rectangle 184" width="6.388" height="32.63" transform="translate(47.782)" fill="#e6e6e6"/>
        <rect id="Rectangle_185" data-name="Rectangle 185" width="3.168" height="30.007" transform="translate(57.339 30.007) rotate(180)" fill="#f5f5f5"/>
        <rect id="Rectangle_186" data-name="Rectangle 186" width="6.388" height="32.63" transform="translate(57.339)" fill="#e6e6e6"/>
        <rect id="Rectangle_187" data-name="Rectangle 187" width="3.168" height="30.007" transform="translate(66.895 30.007) rotate(180)" fill="#f5f5f5"/>
        <rect id="Rectangle_188" data-name="Rectangle 188" width="6.388" height="32.63" transform="translate(66.895)" fill="#e6e6e6"/>
      </g>
      <path id="Path_1364" data-name="Path 1364" d="M91.483,238.707c-1.968.261-3.776,1.757-3.163,3.787,1.019,3.359-3.875,3.046-4,8.3-.176,7.416,7.382,2.476,6.859,9.525-.38,5.13,6.8,9.982,8.991,3.569,2.4-7.021,4.543-1.686,7.609-9.414,2.115-5.34-5.272-7.666-2.5-8.915,2.021-.911,3.631-2.882,1.743-4.826-2.569-2.655.866-3.634-.872-5.474s-2.737.335-5.752-1.42c-2.694-1.579-6.087.914-6.039,2.907C94.407,238.6,93.464,238.448,91.483,238.707Z" transform="translate(-60.38 -182.708)" fill="#f5f5f5"/>
      <path id="Path_1365" data-name="Path 1365" d="M107.963,328.26s-.307,15.371-12.055,15.371S83.85,328.26,83.85,328.26Z" transform="translate(-60.044 -250.678)" fill="#f0f0f0"/>
      <rect id="Rectangle_189" data-name="Rectangle 189" width="10.942" height="37.278" transform="translate(65.731 92.953) rotate(180)" fill="#ebebeb"/>
      <path id="Path_1366" data-name="Path 1366" d="M195.051,368.157H192.97V362.51h4.259Z" transform="translate(-138.184 -275.204)" fill="#f5f5f5"/>
      <rect id="Rectangle_190" data-name="Rectangle 190" width="10.942" height="37.278" transform="translate(128.169 92.953) rotate(180)" fill="#ebebeb"/>
      <rect id="Rectangle_191" data-name="Rectangle 191" width="64.252" height="33.811" transform="translate(119.041 89.489) rotate(180)" fill="#f5f5f5"/>
      <path id="Path_1367" data-name="Path 1367" d="M363.231,282.218H344.183a.193.193,0,0,1-.193-.193v-24.9a.193.193,0,0,1,.193-.193H347.7a.184.184,0,0,1,.131.051,5.873,5.873,0,0,0,1.7,1.082,5.962,5.962,0,0,0,2.271.449h3.768a5.9,5.9,0,0,0,3.992-1.53.184.184,0,0,1,.131-.051h3.518a.193.193,0,0,1,.193.193v24.9A.193.193,0,0,1,363.231,282.218Zm-18.852-.389h18.656v-24.51h-3.248a6.283,6.283,0,0,1-4.2,1.581h-3.767a6.332,6.332,0,0,1-2.43-.48,6.158,6.158,0,0,1-1.766-1.1h-3.248Z" transform="translate(-246.327 -199.6)" fill="#e6e6e6"/>
      <path id="Path_1368" data-name="Path 1368" d="M291.141,282.218H272.093a.193.193,0,0,1-.193-.193v-24.9a.193.193,0,0,1,.193-.193h3.327a.19.19,0,0,1,.131.051,5.832,5.832,0,0,0,1.7,1.082,5.963,5.963,0,0,0,2.271.449h3.768a5.894,5.894,0,0,0,3.975-1.53.19.19,0,0,1,.131-.051h3.714a.193.193,0,0,1,.193.193v24.9A.193.193,0,0,1,291.141,282.218Zm-18.852-.389H290.95v-24.51H287.5a6.288,6.288,0,0,1-4.193,1.581h-3.768a6.332,6.332,0,0,1-2.43-.48,6.11,6.11,0,0,1-1.777-1.1h-3.046Z" transform="translate(-194.705 -199.6)" fill="#e6e6e6"/>
      <path id="Path_1369" data-name="Path 1369" d="M219.051,282.218H200a.193.193,0,0,1-.193-.193v-24.9a.193.193,0,0,1,.193-.193h3.327a.19.19,0,0,1,.131.051,5.874,5.874,0,0,0,1.7,1.082,5.962,5.962,0,0,0,2.271.449h3.785a5.908,5.908,0,0,0,3.992-1.53.185.185,0,0,1,.131-.051h3.708a.193.193,0,0,1,.193.193v24.9A.193.193,0,0,1,219.051,282.218Zm-18.852-.389h18.656v-24.51h-3.438a6.289,6.289,0,0,1-4.2,1.581h-3.768a6.332,6.332,0,0,1-2.43-.48,6.158,6.158,0,0,1-1.752-1.1H200.2Z" transform="translate(-143.082 -199.6)" fill="#e6e6e6"/>
      <path id="Path_1370" data-name="Path 1370" d="M406.468,368.157h2.078V362.51H404.29Z" transform="translate(-289.508 -275.204)" fill="#f5f5f5"/>
      <path id="Path_1371" data-name="Path 1371" d="M342.3,184.124h19.857l3.5-26.554H345.8Z" transform="translate(-245.117 -128.449)" fill="#e6e6e6"/>
      <path id="Path_1372" data-name="Path 1372" d="M337.44,184.124h20.867l3.5-26.554H340.938Z" transform="translate(-241.637 -128.449)" fill="#f0f0f0"/>
      <path id="Path_1373" data-name="Path 1373" d="M362.337,185.49l2.694-20.467a1.107,1.107,0,0,0-1.136-1.295H349.13a1.525,1.525,0,0,0-1.468,1.295l-2.7,20.467a1.113,1.113,0,0,0,1.136,1.295h14.763A1.525,1.525,0,0,0,362.337,185.49Z" transform="translate(-247.013 -132.858)" fill="#e6e6e6"/>
      <path id="Path_1374" data-name="Path 1374" d="M363.074,185.49l2.694-20.467a1.107,1.107,0,0,0-1.136-1.295H350.153a1.522,1.522,0,0,0-1.465,1.295l-2.7,20.467a1.11,1.11,0,0,0,1.136,1.295h14.479A1.525,1.525,0,0,0,363.074,185.49Z" transform="translate(-247.749 -132.858)" fill="#fff"/>
      <path id="Path_1375" data-name="Path 1375" d="M367.529,180.531l3.518-4.122c.074-.085.173-.085.224,0l2.433,4.122c1.224,2.073.778,5.448-.994,7.521l-3.518,4.122c-.074.085-.173.085-.221,0l-2.433-4.122C365.326,185.98,365.757,182.6,367.529,180.531Z" transform="translate(-261.982 -141.894)" fill="#f0f0f0"/>
    </g>
    <g id="freepik--Shadow--inject-1" transform="translate(15.93 146.598)">
      <ellipse id="freepik--path--inject-1" cx="55.048" cy="3.214" rx="55.048" ry="3.214" fill="rgba(245,245,245,0.43)"/>
    </g>
    <g id="freepik--Aura--inject-1" transform="translate(38.013 44.18)">
      <ellipse id="Ellipse_104" data-name="Ellipse 104" cx="32.965" cy="19.272" rx="32.965" ry="19.272" transform="translate(0 60.147)" fill="#92e3a9" opacity="0.05"/>
      <ellipse id="Ellipse_105" data-name="Ellipse 105" cx="32.965" cy="19.272" rx="32.965" ry="19.272" transform="translate(0 50.122)" fill="#92e3a9" opacity="0.05"/>
      <ellipse id="Ellipse_106" data-name="Ellipse 106" cx="32.965" cy="19.272" rx="32.965" ry="19.272" transform="translate(0 40.097)" fill="#92e3a9" opacity="0.05"/>
      <ellipse id="Ellipse_107" data-name="Ellipse 107" cx="32.965" cy="19.272" rx="32.965" ry="19.272" transform="translate(0 30.075)" fill="#92e3a9" opacity="0.05"/>
      <ellipse id="Ellipse_108" data-name="Ellipse 108" cx="32.965" cy="19.272" rx="32.965" ry="19.272" transform="translate(0 20.05)" fill="#92e3a9" opacity="0.05"/>
      <ellipse id="Ellipse_109" data-name="Ellipse 109" cx="32.965" cy="19.272" rx="32.965" ry="19.272" transform="translate(0 10.025)" fill="#92e3a9" opacity="0.05"/>
      <ellipse id="Ellipse_110" data-name="Ellipse 110" cx="32.965" cy="19.272" rx="32.965" ry="19.272" fill="#92e3a9" opacity="0.05"/>
    </g>
    <g id="freepik--Character--inject-1" transform="translate(25.321 55.688)">
      <path id="Path_1376" data-name="Path 1376" d="M209.7,88.346c-.42-3.648-9-5.457-11.751-1.028-3.188,5.142,3,7.356-5.494,9.258s-3.041,13.77,8.551,17.509,18.852-2.1,17.7-9.182-5.511-7.169-3.364-11.842S212.584,85.646,209.7,88.346Z" transform="translate(-160.172 -84.712)" fill="#263238"/>
      <path id="Path_1377" data-name="Path 1377" d="M283.057,193.295l.182.485.2.534.434,1.079q.449,1.079.934,2.144c.653,1.42,1.343,2.808,2.109,4.131a32.875,32.875,0,0,0,2.462,3.75,17.838,17.838,0,0,0,2.853,3.032,10.582,10.582,0,0,0,1.542,1.076,16.334,16.334,0,0,0,1.862.852c1.451.582,3.018,1.136,4.565,1.721,3.123,1.136,6.269,2.285,9.369,3.574h0a1.857,1.857,0,0,1-.886,3.56c-1.7-.159-3.376-.378-5.051-.636-.852-.122-1.675-.264-2.51-.412s-1.669-.3-2.5-.468c-1.678-.327-3.33-.687-5.056-1.158-.443-.131-.852-.241-1.346-.409a13.285,13.285,0,0,1-1.468-.568,17.235,17.235,0,0,1-2.706-1.59,24.4,24.4,0,0,1-4.273-4.017,37.547,37.547,0,0,1-3.228-4.52,48.4,48.4,0,0,1-2.535-4.77q-.568-1.218-1.065-2.464c-.165-.417-.329-.835-.483-1.261l-.227-.644-.114-.332-.119-.369a3.7,3.7,0,1,1,6.987-2.442Z" transform="translate(-222.816 -160.603)" fill="#b55b52"/>
      <path id="Path_1378" data-name="Path 1378" d="M226.167,299.79H199.312a20.813,20.813,0,0,1-1.053,4.068,4.543,4.543,0,0,0,2.447,5.775l10.045,4.449a4.946,4.946,0,0,0,4.006,0l10.033-4.449a4.56,4.56,0,0,0,2.427-5.775A20.591,20.591,0,0,1,226.167,299.79Z" transform="translate(-167.081 -238.727)" fill="#263238"/>
      <path id="Path_1379" data-name="Path 1379" d="M263.744,292.511c7.038-3.43,14.224-6.53,22.259-4.483,5.218,1.332,5.394,8.628,1.61,10.942s-29.785,9.653-37.613,6.644A95.339,95.339,0,0,1,263.744,292.511Z" transform="translate(-204.343 -229.835)" fill="#263238"/>
      <path id="Path_1380" data-name="Path 1380" d="M287.316,303.088c1.357-4.773-4.443-7.58-7.4-6.774-7.629,2.073-18.04,11.589-29.7,14.1-2.107.457-1.922,4.807,1.42,4.19S285.391,309.862,287.316,303.088Z" transform="translate(-203.51 -236.139)" fill="#b55b52"/>
      <path id="Path_1381" data-name="Path 1381" d="M210.764,349.859c1.42-1.553,4.5-1.082,6.609-3.748s5.394-1.437,6.695-1.624l.2,4.543a77.964,77.964,0,0,0-12.89,4.951C209.6,355.038,209.347,351.415,210.764,349.859Z" transform="translate(-175.592 -270.646)" fill="#b55b52"/>
      <path id="Path_1382" data-name="Path 1382" d="M227.206,350.52a7.148,7.148,0,0,1-3.626,2.311q1.391.429,2.856.869l1.136.338c.61.261,1.255.554,1.922.872,1.6-.568,3.208-1.1,4.611-1.482Z" transform="translate(-185.424 -275.054)" opacity="0.2"/>
      <path id="Path_1383" data-name="Path 1383" d="M259.075,346.925a6.348,6.348,0,0,1-3.626-1.587,5.7,5.7,0,0,0-2.555-1.508q-1.346.415-2.72.713c-2.107.457-1.922,4.807,1.42,4.191,1.005-.187,4.457-.69,8.85-1.488C260,347.112,259.535,347.018,259.075,346.925Z" transform="translate(-203.481 -270.264)" opacity="0.2"/>
      <path id="Path_1384" data-name="Path 1384" d="M135.873,195.569l-.119.369-.114.332-.227.645c-.153.426-.318.852-.483,1.261q-.5,1.249-1.065,2.464a48.386,48.386,0,0,1-2.535,4.77,37.54,37.54,0,0,1-3.228,4.52,24.4,24.4,0,0,1-4.276,4.006,17.233,17.233,0,0,1-2.706,1.59,13.279,13.279,0,0,1-1.468.568c-.485.168-.9.284-1.346.409-1.726.471-3.379.832-5.056,1.158-.835.167-1.667.329-2.5.468s-1.669.284-2.51.412c-1.675.258-3.35.477-5.051.636a1.854,1.854,0,0,1-.886-3.557h0c3.1-1.289,6.246-2.433,9.369-3.574,1.547-.568,3.123-1.136,4.565-1.72a16.329,16.329,0,0,0,1.862-.852,10.584,10.584,0,0,0,1.542-1.076,17.838,17.838,0,0,0,2.839-3.032,32.883,32.883,0,0,0,2.484-3.733c.767-1.323,1.456-2.717,2.109-4.131q.485-1.065.934-2.144l.434-1.079.2-.534.182-.486.051-.133a3.705,3.705,0,1,1,7,2.444Z" transform="translate(-97.759 -160.567)" fill="#b55b52"/>
      <path id="Path_1385" data-name="Path 1385" d="M222.161,183.312a93.557,93.557,0,0,0-18.273,0c-3.623.312-6.132,4.418-5.394,7.5,3.205,13.27,2.09,19.354,1.093,25.268a41.061,41.061,0,0,0,26.852,0c-1-5.9-2.112-11.984,1.093-25.268C228.294,187.73,225.784,183.624,222.161,183.312Z" transform="translate(-167.368 -154.998)" fill="#263238"/>
      <path id="Path_1386" data-name="Path 1386" d="M222.161,183.312a93.557,93.557,0,0,0-18.273,0c-3.623.312-6.132,4.418-5.394,7.5,3.205,13.27,2.09,19.354,1.093,25.268a41.061,41.061,0,0,0,26.852,0c-1-5.9-2.112-11.984,1.093-25.268C228.294,187.73,225.784,183.624,222.161,183.312Z" transform="translate(-167.368 -154.998)" fill="#fff" opacity="0.1"/>
      <path id="Path_1387" data-name="Path 1387" d="M233.884,150.92a9.482,9.482,0,0,1,.909-4.98c1.056-1.777-3.748-4.171-3.748-4.171s-4.812,2.393-3.756,4.171a9.474,9.474,0,0,1,.909,4.98c0,1.405-1.11,2.777-4.668,3.535a19.692,19.692,0,0,0,7.515,4.369,19.692,19.692,0,0,0,7.515-4.369C235,153.7,233.884,152.34,233.884,150.92Z" transform="translate(-185.388 -125.571)" fill="#b55b52"/>
      <path id="Path_1388" data-name="Path 1388" d="M240.144,141.77s-4.812,2.393-3.756,4.171a6.419,6.419,0,0,1,.789,2.328,5.176,5.176,0,0,0,5.9.207,6.607,6.607,0,0,1,.82-2.535C244.971,144.163,240.144,141.77,240.144,141.77Z" transform="translate(-194.487 -125.571)" opacity="0.2"/>
      <path id="Path_1389" data-name="Path 1389" d="M226.52,103.84c0,5.306.747,8.58,1.885,10.391,2.226,3.535,6.882,4.131,9.517.372,1.948-2.779,1.931-5.647,1.931-10.763C239.852,95.683,226.52,95.757,226.52,103.84Z" transform="translate(-187.529 -94.048)" fill="#b55b52"/>
      <path id="Path_1390" data-name="Path 1390" d="M244.816,147.008a4.052,4.052,0,0,1-.653-.247.122.122,0,1,1,.105-.219,3.288,3.288,0,0,0,2.978,0,.125.125,0,0,1,.168.04.128.128,0,0,1-.04.17,3.43,3.43,0,0,1-2.558.256Z" transform="translate(-200.104 -128.975)" fill="#263238"/>
      <path id="Path_1391" data-name="Path 1391" d="M248.031,133a12.982,12.982,0,0,1-.781,1.956,1.053,1.053,0,0,0,1.562,0A12.982,12.982,0,0,1,248.031,133Z" transform="translate(-202.374 -119.291)" fill="#a02724"/>
      <path id="Path_1392" data-name="Path 1392" d="M258.922,129.987a.19.19,0,0,1-.139-.051,1.473,1.473,0,0,0-1.283-.4.187.187,0,0,1-.224-.136.185.185,0,0,1,.133-.224,1.848,1.848,0,0,1,1.63.5.187.187,0,0,1,0,.264.184.184,0,0,1-.116.054Z" transform="translate(-209.549 -116.527)" fill="#263238"/>
      <path id="Path_1393" data-name="Path 1393" d="M236.479,129.987a.19.19,0,0,0,.139-.051,1.474,1.474,0,0,1,1.283-.4.187.187,0,0,0,.224-.136.185.185,0,0,0-.133-.224,1.848,1.848,0,0,0-1.63.5.187.187,0,0,0,0,.264A.185.185,0,0,0,236.479,129.987Z" transform="translate(-194.538 -116.527)" fill="#263238"/>
      <path id="Path_1394" data-name="Path 1394" d="M268.868,138.172a2.987,2.987,0,0,1-1.678,1.837c-1.065.437-1.831-.542-1.732-1.669.091-1.016.752-2.464,1.914-2.422A1.7,1.7,0,0,1,268.868,138.172Z" transform="translate(-215.406 -121.379)" fill="#b55b52"/>
      <path id="Path_1395" data-name="Path 1395" d="M222.309,138.172a2.975,2.975,0,0,0,1.675,1.837c1.065.437,1.831-.542,1.732-1.669-.088-1.016-.752-2.464-1.914-2.422A1.7,1.7,0,0,0,222.309,138.172Z" transform="translate(-184.454 -121.379)" fill="#b55b52"/>
      <path id="Path_1396" data-name="Path 1396" d="M134.823,292.511c-7.038-3.43-14.224-6.53-22.256-4.483-5.221,1.332-5.394,8.628-1.613,10.942s29.785,9.653,37.613,6.644A95.339,95.339,0,0,0,134.823,292.511Z" transform="translate(-102.91 -229.835)" fill="#263238"/>
      <path id="Path_1397" data-name="Path 1397" d="M115.121,303.088c-1.354-4.773,4.446-7.58,7.407-6.774,7.626,2.073,18.037,11.589,29.694,14.1,2.107.457,1.922,4.807-1.42,4.19S117.046,309.862,115.121,303.088Z" transform="translate(-107.613 -236.139)" fill="#b55b52"/>
      <path id="Path_1398" data-name="Path 1398" d="M252.887,349.859c-1.42-1.553-4.5-1.082-6.607-3.748s-5.394-1.437-6.7-1.624l-.193,4.543a78.018,78.018,0,0,1,12.887,4.951C254.054,355.038,254.3,351.415,252.887,349.859Z" transform="translate(-196.745 -270.646)" fill="#b55b52"/>
      <path id="Path_1399" data-name="Path 1399" d="M197.132,184.44c-2.816.358-5.536,2.081-8.2,7.552.8,4.582,3.58,10.718,5.582,11.5C197.2,198.712,197.132,184.44,197.132,184.44Z" transform="translate(-160.611 -156.126)" fill="#263238"/>
      <path id="Path_1400" data-name="Path 1400" d="M197.132,184.44c-2.816.358-5.536,2.081-8.2,7.552.8,4.582,3.58,10.718,5.582,11.5C197.2,198.712,197.132,184.44,197.132,184.44Z" transform="translate(-160.611 -156.126)" fill="#fff" opacity="0.1"/>
      <path id="Path_1401" data-name="Path 1401" d="M91.619,273.591a1.635,1.635,0,0,0-1.877,1.19l-.5,1.9a1.635,1.635,0,0,0,.625,1.749h0a4.542,4.542,0,0,0,4.2.582l1.286-.466a3.739,3.739,0,0,0,2.271-2.3l.224-.659c-1.919-1.607-5.284-1.834-5.284-1.834Z" transform="translate(-89.185 -219.947)" fill="#b55b52"/>
      <path id="Path_1402" data-name="Path 1402" d="M388.915,276.683l-.5-1.9a1.635,1.635,0,0,0-1.877-1.19l-.943.17s-3.364.227-5.284,1.834l.224.656a3.736,3.736,0,0,0,2.271,2.305l1.286.466a4.543,4.543,0,0,0,4.2-.582h.014A1.635,1.635,0,0,0,388.915,276.683Z" transform="translate(-297.656 -219.947)" fill="#b55b52"/>
      <path id="Path_1403" data-name="Path 1403" d="M282.18,184.44c2.816.358,5.536,2.081,8.2,7.552-.8,4.582-3.58,10.718-5.582,11.5C282.109,198.712,282.18,184.44,282.18,184.44Z" transform="translate(-227.386 -156.126)" fill="#263238"/>
      <path id="Path_1404" data-name="Path 1404" d="M282.18,184.44c2.816.358,5.536,2.081,8.2,7.552-.8,4.582-3.58,10.718-5.582,11.5C282.109,198.712,282.18,184.44,282.18,184.44Z" transform="translate(-227.386 -156.126)" fill="#fff" opacity="0.1"/>
      <path id="Path_1405" data-name="Path 1405" d="M232.761,94.226c-2.839,6.53-10.244,5.167-9.676,11.408-3.078-.568-2.726-5.729-1.6-8.285S225.047,89.352,232.761,94.226Z" transform="translate(-183.342 -90.122)" fill="#263238"/>
      <path id="Path_1406" data-name="Path 1406" d="M255.915,98.78l-2.356,1.766c-1.766,3.722,4.656,5.079,5.437,9.968C261.352,106.823,260.92,99.978,255.915,98.78Z" transform="translate(-206.672 -94.786)" fill="#263238"/>
    </g>
  </g>
</svg>
