<svg xmlns="http://www.w3.org/2000/svg" xmlns:xlink="http://www.w3.org/1999/xlink" width="103.151" height="106.881" viewBox="0 0 103.151 106.881">
  <defs>
    <clipPath id="clip-path">
      <path id="Path_2934" data-name="Path 2934" d="M150.105,141.471a15.48,15.48,0,0,1-1.117,1.8,15.2,15.2,0,0,1-19.444,4.562c-.335-.176-.664-.364-.977-.562s-.62-.4-.914-.618c-.357-.258-.7-.533-1.028-.82h0a.4.4,0,0,1-.058-.053h0a15.22,15.22,0,1,1,23.551-4.3Z" transform="translate(-121.433 -119.167)" fill="#5c9179" stroke="#263238" stroke-linecap="round" stroke-linejoin="round" stroke-width="1"/>
    </clipPath>
    <clipPath id="clip-path-2">
      <path id="Path_2973" data-name="Path 2973" d="M223.14,358.215a1.963,1.963,0,0,1-.82-.224,29.172,29.172,0,0,1-9.212-8.215,30.331,30.331,0,0,1-2.058-3.038l.984-4.217s.926,2.413,4.649,4.784,8.145,3.153,9.576,5.549C227.527,354.941,225.295,358.319,223.14,358.215Z" transform="translate(-211.05 -342.52)" fill="#fff" stroke="#263238" stroke-linecap="round" stroke-linejoin="round" stroke-width="1"/>
    </clipPath>
    <clipPath id="clip-path-3">
      <path id="Path_2980" data-name="Path 2980" d="M222.136,319.578s-1.522-.046-3.559.022c-3.079.1-7.332.444-9.277,1.576l-.092-.031-1.781-.622-.036-.053c-.328-.483-2.975-4.283-6.756-5.829L195.29,299.7a11.326,11.326,0,0,1,8.582,5.255l1.522.55s9.06-2.683,14.131-1.718Z" transform="translate(-195.29 -299.7)" fill="#5c9179" stroke="#263238" stroke-linecap="round" stroke-linejoin="round" stroke-width="1"/>
    </clipPath>
    <clipPath id="clip-path-4">
      <path id="Path_2987" data-name="Path 2987" d="M322.693,377.9c-1.532.417-3.2-2.275-5.228-5.214h0a23.842,23.842,0,0,0-4.567-5.308c-.138-.1-.277-.205-.417-.3l1.009-5.067c2.094,1.1,3.392,2.857,5.566,4.664,3.5,2.912,6.6,4.7,7.458,5.988S325.318,377.184,322.693,377.9Z" transform="translate(-312.48 -362.01)" fill="#fff" stroke="#263238" stroke-linecap="round" stroke-linejoin="round" stroke-width="1"/>
    </clipPath>
    <clipPath id="clip-path-5">
      <path id="Path_2991" data-name="Path 2991" d="M282.277,357.392a.837.837,0,0,1-.483.391,1.69,1.69,0,0,1-.166.056h-.046c-1.619.422-5.262-.456-5.262-.456a16.958,16.958,0,0,1-2.531-1.4,6.565,6.565,0,0,1-.268-.651l-.065-.191s-.859-.483-.965-.859-.287-.483.241-.55,3.378,0,3.378,0l-3.1-1.264a11.119,11.119,0,0,1-2.244-1.4c-.191-.364-.429-.606.62-.461s3.342.811,3.342.811l1.807.384-1.8-.765s-3.532-.427-2.864-1.525h2.005a20.7,20.7,0,0,1,3.378.429c.584.179,4.444,2.577,4.444,2.577" transform="translate(-270.599 -349.51)" fill="#fff" stroke="#263238" stroke-linecap="round" stroke-linejoin="round" stroke-width="1"/>
    </clipPath>
    <clipPath id="clip-path-6">
      <path id="Path_2995" data-name="Path 2995" d="M136.78,405.765l8.835,2.654,16.165-3.689s-9.873-2.8-9.965-2.734S136.78,405.765,136.78,405.765Z" transform="translate(-136.78 -401.995)" fill="#5c9179" stroke="#263238" stroke-linecap="round" stroke-linejoin="round" stroke-width="1"/>
    </clipPath>
    <clipPath id="clip-path-7">
      <path id="Path_2999" data-name="Path 2999" d="M135.6,396.677c-.62.043-.775,2.278-.128,3.112l14.274-2.963,1.144-2.707Z" transform="translate(-135.052 -394.12)" fill="#5c9179" stroke="#263238" stroke-linecap="round" stroke-linejoin="round" stroke-width="1"/>
    </clipPath>
    <clipPath id="clip-path-8">
      <path id="Path_3007" data-name="Path 3007" d="M138.171,406a2.128,2.128,0,0,1,.109,2.654A2.512,2.512,0,0,1,138.171,406Z" transform="translate(-137.843 -406)" fill="#263238" stroke="#263238" stroke-linecap="round" stroke-linejoin="round" stroke-width="1"/>
    </clipPath>
    <clipPath id="clip-path-9">
      <path id="Path_3011" data-name="Path 3011" d="M260.175,420.62l15.429.632-1.5,5.31-18.981-.724Z" transform="translate(-255.12 -420.62)" fill="#fff" stroke="#263238" stroke-linecap="round" stroke-linejoin="round" stroke-width="1"/>
    </clipPath>
  </defs>
  <g id="Learning-bro_1_" data-name="Learning-bro (1)" transform="translate(-42.036 -29.116)">
    <g id="freepik--background-simple--inject-6" transform="translate(42.036 29.116)">
      <path id="Path_2883" data-name="Path 2883" d="M60.633,62.405S53.907,79.777,63.36,97.269,92.284,124,107.867,131.9s31.766,4.053,39.455-8.889-2.857-22.18-2.871-40.635,2.763-23.341-7.238-38.932S102.7,24.4,84.157,35.969,60.633,62.405,60.633,62.405Z" transform="translate(-54.386 -29.116)" fill="#fff" opacity="0.7"/>
      <path id="Path_2884" data-name="Path 2884" d="M47.261,65.39c6.444-12.508,18.412-21.97,33.31-23.3a41.383,41.383,0,0,1,28.646,8.288A36.664,36.664,0,0,1,119.3,62.063c2.755,5.236,3.559,11.272,6.394,16.484,3.525,6.478,10.146,9.151,14.592,14.749,3.66,4.611,4.917,10.79,4.5,16.662a34.073,34.073,0,0,1-16.286,26.39c-7.81,4.645-17.224,5.926-26.3,5.5-13.994-.649-27.925-5.265-38.946-13.909S44.31,106.517,42.433,92.637A46.252,46.252,0,0,1,47.261,65.39Z" transform="translate(-42.036 -38.839)" fill="#5c9179"/>
      <path id="Path_2885" data-name="Path 2885" d="M47.261,65.39c6.444-12.508,18.412-21.97,33.31-23.3a41.383,41.383,0,0,1,28.646,8.288A36.664,36.664,0,0,1,119.3,62.063c2.755,5.236,3.559,11.272,6.394,16.484,3.525,6.478,10.146,9.151,14.592,14.749,3.66,4.611,4.917,10.79,4.5,16.662a34.073,34.073,0,0,1-16.286,26.39c-7.81,4.645-17.224,5.926-26.3,5.5-13.994-.649-27.925-5.265-38.946-13.909S44.31,106.517,42.433,92.637A46.252,46.252,0,0,1,47.261,65.39Z" transform="translate(-42.036 -38.839)" fill="#fff" opacity="0.7"/>
    </g>
    <g id="freepik--Elements--inject-6" transform="translate(42.836 30.294)">
      <path id="Path_2886" data-name="Path 2886" d="M46.07,141.75c.285,1.129.145-.948.7-3.486s1.515-1.51,1.515-1.51" transform="translate(-45.896 -111.805)" fill="none" stroke="#263238" stroke-linecap="round" stroke-linejoin="round" stroke-width="1"/>
      <line id="Line_218" data-name="Line 218" y1="0.717" x2="1.749" transform="translate(0 26.634)" fill="none" stroke="#263238" stroke-linecap="round" stroke-linejoin="round" stroke-width="1"/>
      <path id="Path_2887" data-name="Path 2887" d="M57.522,140.82s-1.045,2.171.531,3.083" transform="translate(-54.328 -115.047)" fill="none" stroke="#263238" stroke-linecap="round" stroke-linejoin="round" stroke-width="1"/>
      <path id="Path_2888" data-name="Path 2888" d="M64.74,138.3a2.137,2.137,0,0,1,.647,3.035" transform="translate(-60.062 -113.135)" fill="none" stroke="#263238" stroke-linecap="round" stroke-linejoin="round" stroke-width="1"/>
      <line id="Line_219" data-name="Line 219" x2="1.238" y2="0.902" transform="translate(3.496 26.506)" fill="none" stroke="#263238" stroke-linecap="round" stroke-linejoin="round" stroke-width="1"/>
      <line id="Line_220" data-name="Line 220" x1="0.968" y2="1.542" transform="translate(3.498 26.108)" fill="none" stroke="#263238" stroke-linecap="round" stroke-linejoin="round" stroke-width="1"/>
      <circle id="Ellipse_137" data-name="Ellipse 137" cx="2.632" cy="2.632" r="2.632" transform="translate(4.403 50.961) rotate(-80.68)" fill="none" stroke="#263238" stroke-linecap="round" stroke-linejoin="round" stroke-width="1"/>
      <circle id="Ellipse_138" data-name="Ellipse 138" cx="2.919" cy="2.919" r="2.919" transform="translate(7.553 47.546) rotate(-11.59)" fill="none" stroke="#263238" stroke-linecap="round" stroke-linejoin="round" stroke-width="1"/>
      <line id="Line_221" data-name="Line 221" x1="1.211" y2="0.432" transform="translate(8.613 47.702)" fill="none" stroke="#263238" stroke-linecap="round" stroke-linejoin="round" stroke-width="1"/>
      <line id="Line_222" data-name="Line 222" x1="1.742" y2="0.63" transform="translate(8.252 48.202)" fill="none" stroke="#263238" stroke-linecap="round" stroke-linejoin="round" stroke-width="1"/>
      <line id="Line_223" data-name="Line 223" x1="1.945" y2="0.748" transform="translate(8.114 48.805)" fill="none" stroke="#263238" stroke-linecap="round" stroke-linejoin="round" stroke-width="1"/>
      <line id="Line_224" data-name="Line 224" x1="1.773" y2="0.811" transform="translate(8.148 49.627)" fill="none" stroke="#263238" stroke-linecap="round" stroke-linejoin="round" stroke-width="1"/>
      <line id="Line_225" data-name="Line 225" x1="1.346" y2="0.56" transform="translate(8.261 50.26)" fill="none" stroke="#263238" stroke-linecap="round" stroke-linejoin="round" stroke-width="1"/>
      <path id="Path_2889" data-name="Path 2889" d="M78.362,218.937c-.075-.241-.929-.391-.965.241s.9.106,1.165-.241c0,0-.483.649-.28.777" transform="translate(-69.664 -174.159)" fill="none" stroke="#263238" stroke-linecap="round" stroke-linejoin="round" stroke-width="1"/>
      <path id="Path_2890" data-name="Path 2890" d="M98.618,222.85l-.758,1.576s.379-.789.784-.724c.5.089.166.907-.437.606" transform="translate(-85.191 -177.286)" fill="none" stroke="#263238" stroke-linecap="round" stroke-linejoin="round" stroke-width="1"/>
      <line id="Line_226" data-name="Line 226" x2="1.189" y2="1.124" transform="translate(95.872 71.289)" fill="none" stroke="#263238" stroke-linecap="round" stroke-linejoin="round" stroke-width="1"/>
      <line id="Line_227" data-name="Line 227" x1="0.996" y2="1.489" transform="translate(96.065 70.995)" fill="none" stroke="#263238" stroke-linecap="round" stroke-linejoin="round" stroke-width="1"/>
      <line id="Line_228" data-name="Line 228" y1="0.444" x2="1.192" transform="translate(98.232 70.978)" fill="none" stroke="#263238" stroke-linecap="round" stroke-linejoin="round" stroke-width="1"/>
      <line id="Line_229" data-name="Line 229" x2="0.724" y2="0.639" transform="translate(99.996 69.738)" fill="none" stroke="#263238" stroke-linecap="round" stroke-linejoin="round" stroke-width="1"/>
      <line id="Line_230" data-name="Line 230" x1="0.917" y2="3.146" transform="translate(100.358 68.968)" fill="none" stroke="#263238" stroke-linecap="round" stroke-linejoin="round" stroke-width="1"/>
      <path id="Path_2891" data-name="Path 2891" d="M234.97,249.293l3.2-2.2,4.239.3.265,5.376-3.112,2.225-3.841-.28Z" transform="translate(-189.22 -195.677)" fill="none" stroke="#263238" stroke-linecap="round" stroke-linejoin="round" stroke-width="1"/>
      <path id="Path_2892" data-name="Path 2892" d="M238.09,271.642l3.1-2.232,3.853.287" transform="translate(-191.587 -212.612)" fill="none" stroke="#263238" stroke-linecap="round" stroke-linejoin="round" stroke-width="1"/>
      <line id="Line_231" data-name="Line 231" x1="0.651" y1="5.385" transform="translate(48.952 51.413)" fill="none" stroke="#263238" stroke-linecap="round" stroke-linejoin="round" stroke-width="1"/>
      <path id="Path_2893" data-name="Path 2893" d="M234.97,250.226l4.23.49,3.211-2.4" transform="translate(-189.22 -196.61)" fill="none" stroke="#263238" stroke-linecap="round" stroke-linejoin="round" stroke-width="1"/>
      <line id="Line_232" data-name="Line 232" x2="0.364" y2="5.204" transform="translate(49.98 54.105)" fill="none" stroke="#263238" stroke-linecap="round" stroke-linejoin="round" stroke-width="1"/>
      <path id="Path_2894" data-name="Path 2894" d="M385.389,181.37l-1.419,4.408,4.415-.6Z" transform="translate(-302.27 -145.814)" fill="none" stroke="#263238" stroke-linecap="round" stroke-linejoin="round" stroke-width="1"/>
      <line id="Line_233" data-name="Line 233" x2="0.789" y2="4.085" transform="translate(83.119 35.556)" fill="none" stroke="#263238" stroke-linecap="round" stroke-linejoin="round" stroke-width="1"/>
      <path id="Path_2895" data-name="Path 2895" d="M392.6,195.332l.516-.082.121.692" transform="translate(-308.818 -156.345)" fill="none" stroke="#263238" stroke-linecap="round" stroke-linejoin="round" stroke-width="1"/>
      <line id="Line_234" data-name="Line 234" x2="2.205" y2="1.083" transform="translate(27.515 75.895)" fill="none" stroke="#263238" stroke-linecap="round" stroke-linejoin="round" stroke-width="1"/>
      <line id="Line_235" data-name="Line 235" x1="0.632" y2="2.304" transform="translate(28.376 75.067)" fill="none" stroke="#263238" stroke-linecap="round" stroke-linejoin="round" stroke-width="1"/>
      <path id="Path_2896" data-name="Path 2896" d="M166.85,340.15a.333.333,0,0,1,.531.07c.222.347-.212,1.076-.212,1.076l.885-.338" transform="translate(-137.535 -266.207)" fill="none" stroke="#263238" stroke-linecap="round" stroke-linejoin="round" stroke-width="1"/>
      <path id="Path_2897" data-name="Path 2897" d="M230.186,34c2.106,1.185-.306,4.08-.306,5.769s2.413,1.448,3.619,1.93c.483,0,1.448,0,1.421,1.226" transform="translate(-185.358 -34)" fill="none" stroke="#263238" stroke-linecap="round" stroke-linejoin="round" stroke-width="1"/>
      <path id="Path_2898" data-name="Path 2898" d="M221.42,40.37c.367,2,2.654,1.288,4.058,1.744,2.413.784,1.074,3.274.355,4.78-.432.9-.861,2.157-.089,3.009" transform="translate(-178.939 -38.833)" fill="none" stroke="#263238" stroke-linecap="round" stroke-linejoin="round" stroke-width="1"/>
      <line id="Line_236" data-name="Line 236" y1="2.087" x2="2.512" transform="translate(42.79 0.224)" fill="none" stroke="#263238" stroke-linecap="round" stroke-linejoin="round" stroke-width="1"/>
      <line id="Line_237" data-name="Line 237" y1="1.568" x2="1.892" transform="translate(43.774 1.366)" fill="none" stroke="#263238" stroke-linecap="round" stroke-linejoin="round" stroke-width="1"/>
      <line id="Line_238" data-name="Line 238" y1="1.255" x2="1.597" transform="translate(44.886 3.267)" fill="none" stroke="#263238" stroke-linecap="round" stroke-linejoin="round" stroke-width="1"/>
      <line id="Line_239" data-name="Line 239" y1="2.244" x2="3.122" transform="translate(44.556 4.155)" fill="none" stroke="#263238" stroke-linecap="round" stroke-linejoin="round" stroke-width="1"/>
      <line id="Line_240" data-name="Line 240" y1="1.597" x2="2.176" transform="translate(45.753 5.677)" fill="none" stroke="#263238" stroke-linecap="round" stroke-linejoin="round" stroke-width="1"/>
      <line id="Line_241" data-name="Line 241" y1="2.215" x2="2.719" transform="translate(46.679 8.454)" fill="none" stroke="#263238" stroke-linecap="round" stroke-linejoin="round" stroke-width="1"/>
      <line id="Line_242" data-name="Line 242" y1="1.247" x2="1.773" transform="translate(46.747 7.68)" fill="none" stroke="#263238" stroke-linecap="round" stroke-linejoin="round" stroke-width="1"/>
      <circle id="Ellipse_139" data-name="Ellipse 139" cx="5.052" cy="5.052" r="5.052" transform="translate(2.8 69.591) rotate(-21.8)" fill="none" stroke="#263238" stroke-linecap="round" stroke-linejoin="round" stroke-width="1"/>
      <path id="Path_2899" data-name="Path 2899" d="M68.614,304.632c1.761-2.068,3.26-3.238,3.836-2.857.878.577-.7,4.514-3.518,8.792s-5.82,7.279-6.7,6.7c-.579-.379-.092-2.217,1.115-4.652" transform="translate(-57.977 -237.114)" fill="none" stroke="#263238" stroke-linecap="round" stroke-linejoin="round" stroke-width="1"/>
      <path id="Path_2900" data-name="Path 2900" d="M51.322,328.467c-2.456-.707-4.024-1.532-3.926-2.191.142-1.042,4.386-1.284,9.455-.524s9.055,2.2,8.9,3.238c-.109.724-2.171,1.054-5.1.943" transform="translate(-46.899 -255.024)" fill="none" stroke="#263238" stroke-linecap="round" stroke-linejoin="round" stroke-width="1"/>
      <path id="Path_2901" data-name="Path 2901" d="M58.968,303.059c-1.853-3.344-2.779-5.952-2.152-6.36.825-.533,4.015,2.927,7.125,7.721s4.961,9.127,4.138,9.663c-.545.352-2.126-1.042-4.034-3.416" transform="translate(-53.901 -233.276)" fill="none" stroke="#263238" stroke-linecap="round" stroke-linejoin="round" stroke-width="1"/>
      <path id="Path_2902" data-name="Path 2902" d="M103.5,307.018a.83.83,0,1,1,.118-.626A.83.83,0,0,1,103.5,307.018Z" transform="translate(-88.312 -240.171)" fill="#263238"/>
      <path id="Path_2903" data-name="Path 2903" d="M92.107,359.708a.83.83,0,1,1,.118-.626.83.83,0,0,1-.118.626Z" transform="translate(-79.67 -280.148)" fill="#263238"/>
      <path id="Path_2904" data-name="Path 2904" d="M73.727,323.958a.83.83,0,1,1-.241-1.151.83.83,0,0,1,.241,1.151Z" transform="translate(-65.724 -253.024)" fill="#263238"/>
      <path id="Path_2905" data-name="Path 2905" d="M293.361,162.842H296.2l1.421-2.461L296.2,157.92h-2.842l-1.421,2.461Z" transform="translate(-232.444 -128.021)" fill="none" stroke="#263238" stroke-linecap="round" stroke-linejoin="round" stroke-width="1"/>
      <path id="Path_2906" data-name="Path 2906" d="M282.713,192.971l-1.421-2.461H278.45" transform="translate(-222.209 -152.748)" fill="none" stroke="#263238" stroke-linecap="round" stroke-linejoin="round" stroke-width="1"/>
      <path id="Path_2907" data-name="Path 2907" d="M275.561,152.634H278.4l1.421-2.461L278.4,147.71h-2.842l-1.421,2.463Z" transform="translate(-218.939 -120.275)" fill="none" stroke="#263238" stroke-linecap="round" stroke-linejoin="round" stroke-width="1"/>
      <path id="Path_2908" data-name="Path 2908" d="M293.361,142.434H296.2l1.421-2.463L296.2,137.51h-2.842l-1.421,2.461Z" transform="translate(-232.444 -112.536)" fill="none" stroke="#263238" stroke-linecap="round" stroke-linejoin="round" stroke-width="1"/>
      <circle id="Ellipse_140" data-name="Ellipse 140" cx="0.381" cy="0.381" r="0.381" transform="translate(60.504 29.517)" fill="#263238"/>
      <circle id="Ellipse_141" data-name="Ellipse 141" cx="0.381" cy="0.381" r="0.381" transform="translate(54.569 24.349)" fill="#263238"/>
      <path id="Path_2909" data-name="Path 2909" d="M294.54,199.511a.381.381,0,1,1,.381.381.381.381,0,0,1-.381-.381Z" transform="translate(-234.417 -159.289)" fill="#263238"/>
      <circle id="Ellipse_142" data-name="Ellipse 142" cx="0.381" cy="0.381" r="0.381" transform="translate(55.86 37.38)" fill="#263238"/>
      <path id="Path_2910" data-name="Path 2910" d="M326.9,146.794a.381.381,0,1,1,.111.271A.384.384,0,0,1,326.9,146.794Z" transform="translate(-258.97 -119.288)" fill="#263238"/>
      <circle id="Ellipse_143" data-name="Ellipse 143" cx="0.381" cy="0.381" r="0.381" transform="translate(58.673 37.38)" fill="#263238"/>
      <path id="Path_2911" data-name="Path 2911" d="M313.92,146.794a.384.384,0,1,1,.384.384A.384.384,0,0,1,313.92,146.794Z" transform="translate(-249.121 -119.288)" fill="#263238"/>
      <path id="Path_2912" data-name="Path 2912" d="M296.12,177.116a.384.384,0,1,1,.381.381A.384.384,0,0,1,296.12,177.116Z" transform="translate(-235.616 -142.293)" fill="#263238"/>
      <line id="Line_243" data-name="Line 243" x2="3.129" transform="translate(65.182 27.5)" fill="none" stroke="#263238" stroke-linecap="round" stroke-linejoin="round" stroke-width="1"/>
      <line id="Line_244" data-name="Line 244" x1="1.831" y2="2.939" transform="translate(59.054 34.823)" fill="none" stroke="#263238" stroke-linecap="round" stroke-linejoin="round" stroke-width="1"/>
      <line id="Line_245" data-name="Line 245" x1="1.672" y1="2.705" transform="translate(54.95 24.73)" fill="none" stroke="#263238" stroke-linecap="round" stroke-linejoin="round" stroke-width="1"/>
      <path id="Path_2913" data-name="Path 2913" d="M363.58,95.641a5.265,5.265,0,0,1,10.158.224" transform="translate(-286.8 -77.908)" fill="none" stroke="#263238" stroke-linecap="round" stroke-linejoin="round" stroke-width="1"/>
      <path id="Path_2914" data-name="Path 2914" d="M367.334,118.9a5.262,5.262,0,0,1-4.664-5.228" transform="translate(-286.109 -94.448)" fill="none" stroke="#263238" stroke-linecap="round" stroke-linejoin="round" stroke-width="1"/>
      <path id="Path_2915" data-name="Path 2915" d="M389.77,113.67a5.262,5.262,0,0,1-5.26,5.262" transform="translate(-302.68 -94.448)" fill="none" stroke="#263238" stroke-linecap="round" stroke-linejoin="round" stroke-width="1"/>
      <path id="Path_2916" data-name="Path 2916" d="M363.329,99.524c1.645-.21,2.748-.1,2.919.4.34.98-3.18,3.091-7.863,4.717s-8.753,2.147-9.1,1.165c-.181-.524.741-1.37,2.352-2.295" transform="translate(-275.94 -83.639)" fill="none" stroke="#263238" stroke-linecap="round" stroke-linejoin="round" stroke-width="1"/>
      <path id="Path_2917" data-name="Path 2917" d="M284.981,84.9l.5,1.021,1.127.164-.816.8L285.99,88l-1.009-.531L283.973,88l.193-1.122-.816-.8,1.127-.164Z" transform="translate(-225.927 -72.619)" fill="none" stroke="#263238" stroke-linecap="round" stroke-linejoin="round" stroke-width="1"/>
      <path id="Path_2918" data-name="Path 2918" d="M120.937,62.866a3.426,3.426,0,0,1-3.421,3.424q-.166,0-.326-.014a3.424,3.424,0,1,1,3.747-3.409Z" transform="translate(-97.505 -53.305)" fill="none" stroke="#263238" stroke-linecap="round" stroke-linejoin="round" stroke-width="1"/>
      <path id="Path_2919" data-name="Path 2919" d="M136.862,74.528a.531.531,0,1,1-.531-.528.531.531,0,0,1,.531.528Z" transform="translate(-113.977 -64.349)" fill="none" stroke="#263238" stroke-linecap="round" stroke-linejoin="round" stroke-width="1"/>
      <path id="Path_2920" data-name="Path 2920" d="M116.315,79.061a.854.854,0,0,1-.309.659,3.392,3.392,0,0,1-1.006-1.4.832.832,0,0,1,.442-.123.861.861,0,0,1,.873.861Z" transform="translate(-98.195 -67.535)" fill="none" stroke="#263238" stroke-linecap="round" stroke-linejoin="round" stroke-width="1"/>
      <path id="Path_2921" data-name="Path 2921" d="M129.517,81.521a3.4,3.4,0,0,1-2.343.931q-.166,0-.326-.014a1.365,1.365,0,0,1-.029-.282,1.424,1.424,0,0,1,2.7-.635Z" transform="translate(-107.163 -69.457)" fill="none" stroke="#263238" stroke-linecap="round" stroke-linejoin="round" stroke-width="1"/>
      <circle id="Ellipse_144" data-name="Ellipse 144" cx="0.787" cy="0.787" r="0.787" transform="translate(18.395 6.63)" fill="none" stroke="#263238" stroke-linecap="round" stroke-linejoin="round" stroke-width="1"/>
      <path id="Path_2922" data-name="Path 2922" d="M125.579,72.854a.364.364,0,1,1-.364-.364A.364.364,0,0,1,125.579,72.854Z" transform="translate(-105.669 -63.203)" fill="none" stroke="#263238" stroke-linecap="round" stroke-linejoin="round" stroke-width="1"/>
      <path id="Path_2923" data-name="Path 2923" d="M135.712,61.943a.922.922,0,0,1-.3.046,1,1,0,0,1-1-1,1.066,1.066,0,0,1,0-.125A3.409,3.409,0,0,1,135.712,61.943Z" transform="translate(-112.924 -54.379)" fill="none" stroke="#263238" stroke-linecap="round" stroke-linejoin="round" stroke-width="1"/>
      <path id="Path_2924" data-name="Path 2924" d="M451.457,226.006l.369-.83-.6-.328a1.81,1.81,0,0,0,.012-.442l.613-.3-.326-.847-.656.188a1.806,1.806,0,0,0-.3-.318l.224-.647-.83-.369-.331.6a1.805,1.805,0,0,0-.442,0l-.3-.613-.849.326.191.654a1.933,1.933,0,0,0-.321.306l-.644-.224-.36.818.6.331a1.806,1.806,0,0,0-.012.442l-.615.3.326.849.656-.191a1.91,1.91,0,0,0,.3.321l-.222.644.83.369.328-.6a1.81,1.81,0,0,0,.442.012l.3.615.847-.326-.188-.656a1.894,1.894,0,0,0,.318-.3Zm-2.524-.463a1.054,1.054,0,1,1,1.392-.536A1.054,1.054,0,0,1,448.933,225.543Z" transform="translate(-350.002 -176.717)" fill="none" stroke="#263238" stroke-linecap="round" stroke-linejoin="round" stroke-width="1"/>
      <path id="Path_2925" data-name="Path 2925" d="M427.987,239.172l.5-1.127-.811-.449a2.486,2.486,0,0,0,.014-.6l.835-.405-.437-1.151-.89.258a2.413,2.413,0,0,0-.413-.434l.3-.878-1.136-.509-.446.811a2.623,2.623,0,0,0-.6-.017l-.405-.832-1.153.444.258.888a2.609,2.609,0,0,0-.434.415l-.876-.294-.5,1.127.811.449a2.486,2.486,0,0,0-.014.6l-.835.405.444,1.151.89-.256a2.505,2.505,0,0,0,.413.434l-.3.876,1.129.5.446-.813a2.492,2.492,0,0,0,.6.017l.405.832,1.153-.442-.258-.89a2.6,2.6,0,0,0,.434-.413Zm-3.426-.63a1.431,1.431,0,1,1,1.1.03A1.433,1.433,0,0,1,424.561,238.542Z" transform="translate(-330.942 -185.624)" fill="none" stroke="#263238" stroke-linecap="round" stroke-linejoin="round" stroke-width="1"/>
    </g>
    <g id="freepik--Earth--inject-6" transform="translate(61.193 50.843)">
      <path id="Path_2926" data-name="Path 2926" d="M150.105,141.471a15.48,15.48,0,0,1-1.117,1.8,15.2,15.2,0,0,1-19.444,4.562c-.335-.176-.664-.364-.977-.562s-.62-.4-.914-.618c-.357-.258-.7-.533-1.028-.82h0a.4.4,0,0,1-.058-.053h0a15.22,15.22,0,1,1,23.551-4.3Z" transform="translate(-121.433 -119.167)" fill="#5c9179"/>
      <g id="Group_468" data-name="Group 468" transform="translate(0 0)" clip-path="url(#clip-path)">
        <g id="Group_467" data-name="Group 467" transform="translate(-0.034 0.174)" opacity="0.6">
          <path id="Path_2927" data-name="Path 2927" d="M216.924,167.221a15.484,15.484,0,0,1-1.117,1.8l-.294-.241-.507-.268-.533-.28.089-.644-.029-.581c-.031-.581.388-.106.724-.282a1.952,1.952,0,0,0,.615-.724,3.117,3.117,0,0,0,.162-1.086,8.79,8.79,0,0,0-.458-1.047l-.864,1.206-.724-.055-.685-.362-.089-.953-.352-.183-.147-.548-1.9-.533-.217-.381c-.217-.381-1.093-.577-1.093-.577l.215-.5.338-.555c.34-.555.692.367.692.367l.4.21.748-.627.2-.9,1.218.07a.543.543,0,0,1,.318-.6c.405-.159.227-1.04.072-1.366s-.724-.063-.724-.063a7.029,7.029,0,0,1-.7-1.32c-.084-.376,1.182-.241,1.725-.62s.357-1.132.092-1.148.519-1.713,2.027-1.247a.85.85,0,0,0,.849-.06A15.2,15.2,0,0,1,216.924,167.221Z" transform="translate(-188.218 -145.091)" fill="#fff"/>
          <path id="Path_2928" data-name="Path 2928" d="M139.447,135.493l-.516.649s-.22-.524-.533-.241l-.483.429-.35.98-.627.405-.384-.2-.362-.193-.393-.207-.376.724-.306.579a3.7,3.7,0,0,0,.553.784l.666,1.175.811.41a6.166,6.166,0,0,1,1.006.121l.557.292-.2,1.206s-.42.683-.7.495l-.282-.186-.458,1.588-.019.873s-.273.113-.548.205-.1.043-.678.222-.531.171-1,.3a6.305,6.305,0,0,0-1.146.536l.041.84-1.1.162-.618-.328.152-.531.072-.83-.084-.62-.265-.548.743-.673-.164-.422-.422-.84-.893.483-.458.241-1.037-.466-.113-.63-.347-1.132-.323-.7-.574-.777-.145-.668.323-.613.171-.323-.528-.712-.145-.507-.89-.808s.258-.017.2-.376.509-.965.509-.965c.321.169,1.284.84,1.284.84l.842.116s.169,0,.333-.318a4.51,4.51,0,0,1,.671-.8s-.388-1.349-.111-1.53.56-1.064.56-1.064l.222-.422s-.524-.229-.622-.507-1.39.092-1.39.092l-.89.618-.7.543-.3.577s-.62-.746-.622-.328a5.921,5.921,0,0,1-.28,1.257s.128.068-.041.391-.352.306-.724.352a9.277,9.277,0,0,1-1.448-.1s-.241.893-.075,1.047l.164.15s-.258.649-.514.514l-.622-.328-.871.352-.965,1.066-.215-.043a15.219,15.219,0,0,1,12.664-17.275c.055.241.116.468.116.468L134,121.55l-.309.589-.265.5-.374.709.958.883-.205,1.045-.519.326-.15.784.89,1.74.241.683a2.391,2.391,0,0,0-.215,1.042,1.393,1.393,0,0,0,.584.91c.475.258,1.1.562,1.1.562l-.051.965-.215.241.357,1.04c1.088.427.984.784,1.088.427l.106-.355.741-.268.943,1.127a.654.654,0,0,1,.555.294C139.537,135.146,139.966,134.844,139.447,135.493Z" transform="translate(-121.292 -119.89)" fill="#fff"/>
          <path id="Path_2929" data-name="Path 2929" d="M129.633,202.77c.027.343-.408.772-.408.772l.355.186.109.965-.268.511a15.157,15.157,0,0,1-4.21-6.181L125.4,198l.852-.121s.762-.507,1.1-.372.647.965.647.965.241,1.119.21,1.1h0l.347.183.1.442-.483.917H127.4s-.154-.082-.169.321a.98.98,0,0,0,.4.707l.84-.215.224-.869.825-.162s-.118.533.075.635l.2.1.116.637A.572.572,0,0,0,129.633,202.77Z" transform="translate(-124.265 -178.763)" fill="#fff"/>
          <path id="Path_2930" data-name="Path 2930" d="M150.315,222.462c-.075-.207-.106-.388-.62-.659s-.483-.174-.685.051a.741.741,0,0,1-.767.273c-.338-.075-.162.306-.162.306l.082,1.03-.953.941q.442.326.914.618l.2-.622,1.583.463c-.335-.1-.138-.557-.138-.557l-.338-.179S150.39,222.665,150.315,222.462Z" transform="translate(-140.957 -197.09)" fill="#fff"/>
          <path id="Path_2931" data-name="Path 2931" d="M196.574,201.2l-.519-.524-.594.186-.241.483-.181.347.241.483.483.586.275-.526a1.777,1.777,0,0,0,1.165-.442C197.6,201.356,196.574,201.2,196.574,201.2Z" transform="translate(-177.247 -181.188)" fill="#fff"/>
          <path id="Path_2932" data-name="Path 2932" d="M195.08,189.926l.965.507.039-.227a1.31,1.31,0,0,1,.261-.495l-.738-.782Z" transform="translate(-177.277 -172.273)" fill="#fff"/>
          <path id="Path_2933" data-name="Path 2933" d="M180.791,237.8l-.277-.408-.323-.169H179.2l-.562,1.066s-.538-.072-1.245-.135-.533.229-.533.229l-.183.671a15.258,15.258,0,0,0,5.342-.287,6.761,6.761,0,0,0-.632-.391Z" transform="translate(-163.316 -208.911)" fill="#fff"/>
        </g>
      </g>
      <path id="Path_2935" data-name="Path 2935" d="M150.105,141.471a15.48,15.48,0,0,1-1.117,1.8,15.2,15.2,0,0,1-19.444,4.562c-.335-.176-.664-.364-.977-.562s-.62-.4-.914-.618c-.357-.258-.7-.533-1.028-.82h0a.4.4,0,0,1-.058-.053h0a15.22,15.22,0,1,1,23.551-4.3Z" transform="translate(-121.433 -119.167)" fill="none" stroke="#263238" stroke-linecap="round" stroke-linejoin="round" stroke-width="1"/>
      <path id="Path_2936" data-name="Path 2936" d="M182.022,238.764a15.258,15.258,0,0,1-5.342.287l.183-.671s-.174-.292.533-.229,1.245.135,1.245.135l.562-1.066h.987l.323.169.277.408.6.577A6.756,6.756,0,0,1,182.022,238.764Z" transform="translate(-163.35 -208.737)" fill="none" stroke="#263238" stroke-linecap="round" stroke-linejoin="round" stroke-width="1"/>
      <path id="Path_2937" data-name="Path 2937" d="M216.977,153.135a.85.85,0,0,1-.849.06c-1.508-.466-2.29,1.228-2.027,1.247s.449.782-.092,1.148-1.81.241-1.725.62a6.949,6.949,0,0,0,.7,1.32s.555-.261.712.063.335,1.206-.07,1.366a.543.543,0,0,0-.318.6l-1.218-.07-.2.9-.748.627-.4-.21s-.352-.922-.692-.367l-.338.555-.215.5s.876.2,1.093.577l.217.381,1.9.533.147.548.352.183.089.953.709.372.724.055.864-1.206a8.78,8.78,0,0,1,.458,1.047,3,3,0,0,1-.162,1.086,1.952,1.952,0,0,1-.615.724c-.345.176-.767-.3-.724.282l.029.581-.089.644.533.28.507.268.294.241" transform="translate(-188.252 -144.924)" fill="none" stroke="#263238" stroke-linecap="round" stroke-linejoin="round" stroke-width="1"/>
      <path id="Path_2938" data-name="Path 2938" d="M122.07,137.241l.215.043.965-1.066.871-.352.622.328c.256.135.514-.514.514-.514l-.164-.15c-.166-.154.075-1.047.075-1.047a9.279,9.279,0,0,0,1.448.1c.381-.046.562-.031.724-.352s.041-.391.041-.391a5.921,5.921,0,0,0,.28-1.257c0-.417.622.328.622.328l.3-.577.68-.54.89-.618s1.291-.372,1.39-.092.622.507.622.507l-.222.422s-.285.878-.56,1.064.111,1.53.111,1.53a4.51,4.51,0,0,0-.671.8c-.169.323-.333.318-.333.318l-.842-.116s-.965-.671-1.284-.84c0,0-.567.606-.509.965s-.2.376-.2.376l.89.808.145.507.528.712-.171.323-.323.613.145.668.574.777.326.7.352,1.136.113.63,1.037.466.458-.241.893-.483.422.84.164.422-.743.673.265.548.084.62-.072.83-.152.531.618.328,1.1-.159-.041-.842a6.3,6.3,0,0,1,1.146-.536c.468-.133.422-.125,1-.3s.4-.13.678-.222.548-.205.548-.205l.019-.873.458-1.588.282.186c.28.188.7-.495.7-.495l.2-1.206-.569-.3a6.166,6.166,0,0,0-1.006-.121l-.794-.417-.666-1.175a3.7,3.7,0,0,1-.553-.784l.306-.579.376-.724.393.207.362.193.384.2.627-.405.35-.98.483-.429c.314-.285.533.241.533.241l.516-.649c.519-.649.089-.347-.176-.68a.654.654,0,0,0-.555-.294l-.943-1.127-.75.285-.106.355c-.1.357,0,0-1.088-.427l-.357-1.04.215-.241.051-.965s-.625-.306-1.1-.562a1.388,1.388,0,0,1-.584-.91,2.391,2.391,0,0,1,.215-1.042l-.241-.683-.89-1.74.15-.784.519-.326.205-1.045-.931-.883.374-.709.265-.5.309-.589.241-1.192s-.06-.222-.116-.468" transform="translate(-121.916 -119.791)" fill="none" stroke="#263238" stroke-linecap="round" stroke-linejoin="round" stroke-width="1"/>
      <path id="Path_2939" data-name="Path 2939" d="M135.906,211.756a.39.39,0,0,0-.063-.058h0l.268-.512-.109-.965-.355-.186s.434-.429.408-.772a.572.572,0,0,1,.273-.514l-.116-.637-.2-.1c-.193-.1-.075-.635-.075-.635l-.825.162-.224.869-.84.215a.98.98,0,0,1-.4-.707c.014-.4.169-.321.169-.321h.777l.483-.917-.1-.442-.347-.183" transform="translate(-130.702 -185.088)" fill="none" stroke="#263238" stroke-linecap="round" stroke-linejoin="round" stroke-width="1"/>
      <path id="Path_2940" data-name="Path 2940" d="M128.191,199.48h0c.039.022-.21-1.1-.21-1.1s-.309-.818-.647-.965-1.1.372-1.1.372l-.852.121-.193,1.023" transform="translate(-124.284 -178.518)" fill="none" stroke="#263238" stroke-linecap="round" stroke-linejoin="round" stroke-width="1"/>
      <path id="Path_2941" data-name="Path 2941" d="M148.327,224.4l-.2.622q-.483-.294-.914-.618l.953-.941-.082-1.03s-.176-.381.162-.306a.741.741,0,0,0,.767-.273c.2-.224.174-.321.685-.051s.545.451.62.659-.881,1.672-.881,1.672l.338.179s-.2.458.138.557Z" transform="translate(-140.991 -196.916)" fill="none" stroke="#263238" stroke-linecap="round" stroke-linejoin="round" stroke-width="1"/>
      <path id="Path_2942" data-name="Path 2942" d="M195.432,200.866l.594-.186.519.524s1.025.133.625.579a1.749,1.749,0,0,1-1.165.442l-.28.526-.483-.586-.241-.483.181-.347Z" transform="translate(-177.25 -181.013)" fill="none" stroke="#263238" stroke-linecap="round" stroke-linejoin="round" stroke-width="1"/>
      <path id="Path_2943" data-name="Path 2943" d="M196.344,189.712a1.31,1.31,0,0,0-.261.495l-.039.227-.965-.507.526-1Z" transform="translate(-177.311 -172.098)" fill="none" stroke="#263238" stroke-linecap="round" stroke-linejoin="round" stroke-width="1"/>
    </g>
    <g id="freepik--Character--inject-6" transform="translate(55.179 72.93)">
      <path id="Path_2944" data-name="Path 2944" d="M331.205,324.167c-1.293,1.076-11.255,7.914-25.471,6.811-.765-6.471-3.682-33.054-.364-37.224,0,0,8.049-3.839,15.463-2.227s10.3,3.156,10.828,4.492C332.062,297.031,331.49,315.855,331.205,324.167Z" transform="translate(-253.8 -271.729)" fill="#263238"/>
      <path id="Path_2945" data-name="Path 2945" d="M336.5,276.046c-4.271,3.7-9.772,2.917-9.651.077a2.144,2.144,0,0,1,.495-.994l-.167-.256-.724-1.093c-.528-.818-1.189-1.846-1.65-2.594-.386-.637,9.238-6.558,9.238-3.153,0,4.8,2.355,5.7,2.355,5.7C337.286,274.089,338.113,274.654,336.5,276.046Z" transform="translate(-269.715 -253.407)" fill="#fff" stroke="#263238" stroke-linecap="round" stroke-linejoin="round" stroke-width="1"/>
      <path id="Path_2946" data-name="Path 2946" d="M382.739,334.9s-.861,2.953-.454,3.8" transform="translate(-313.252 -304.937)" fill="none" stroke="#fff" stroke-linecap="round" stroke-linejoin="round" stroke-width="1"/>
      <path id="Path_2947" data-name="Path 2947" d="M345.78,299.36c0,2.849-8.5,5.641-10.99,2.782" transform="translate(-277.299 -277.971)" fill="none" stroke="#fff" stroke-linecap="round" stroke-linejoin="round" stroke-width="1"/>
      <path id="Path_2948" data-name="Path 2948" d="M336.39,285.73a7.285,7.285,0,0,1-3.223,3.824.994.994,0,0,0-.572-.451.75.75,0,0,0-.241,0l-.724-1.093A29.369,29.369,0,0,1,336.39,285.73Z" transform="translate(-274.902 -267.63)" fill="#263238"/>
      <path id="Path_2949" data-name="Path 2949" d="M318.43,230.786s-.029,2.118-.483,2.55c-3.366,3.228-6.657,3.484-7.2,2.632-3.655-5.733-2.792-7.238-3.163-8.22-.659-1.723-1.467-4.536-1.11-6.239.8-3.8,7.962-6.756,11.736-2.929,1.81,1.831,2.381,5.805,2,9.115" transform="translate(-255.749 -215.326)" fill="#fff" stroke="#263238" stroke-linecap="round" stroke-linejoin="round" stroke-width="1"/>
      <path id="Path_2950" data-name="Path 2950" d="M309.413,254.3s-1.006-.451-1.223.087" transform="translate(-257.117 -243.651)" fill="none" stroke="#263238" stroke-linecap="round" stroke-linejoin="round" stroke-width="1"/>
      <path id="Path_2951" data-name="Path 2951" d="M323.37,253.934s2.092-.876,3.033.188" transform="translate(-268.635 -243.248)" fill="none" stroke="#263238" stroke-linecap="round" stroke-linejoin="round" stroke-width="1"/>
      <path id="Path_2952" data-name="Path 2952" d="M330.444,259.491c.034.314-.118.586-.343.613s-.432-.212-.466-.526.118-.589.343-.613S330.4,259.177,330.444,259.491Z" transform="translate(-273.385 -247.321)" fill="#263238"/>
      <path id="Path_2953" data-name="Path 2953" d="M313.444,259.888c.036.314-.118.589-.343.613s-.432-.21-.466-.524.118-.589.343-.613S313.4,259.575,313.444,259.888Z" transform="translate(-260.487 -247.625)" fill="#263238"/>
      <path id="Path_2954" data-name="Path 2954" d="M315.161,258.12c.292.47.133,1.274-.253,2.377s-.046,1.5,1.436,1.612" transform="translate(-262.103 -246.682)" fill="#fff" stroke="#263238" stroke-linecap="round" stroke-linejoin="round" stroke-width="1"/>
      <path id="Path_2955" data-name="Path 2955" d="M321.32,280.481a9.71,9.71,0,0,0,2.813-.661" transform="translate(-267.079 -263.146)" fill="none" stroke="#263238" stroke-linecap="round" stroke-linejoin="round" stroke-width="1"/>
      <path id="Path_2956" data-name="Path 2956" d="M316.856,217.107c0-1.433-1.414-4.374-3.894-4.7h0a5.926,5.926,0,0,0-5.923-1.472c-5.7,1.308-7.434,6.934-7.682,7.866-.024.087-.036.135-.036.135l1.525-.386-.656,1.281.8.528-.183.2.926.893-.29-1.631a7.415,7.415,0,0,1,1.39-2.524,3.935,3.935,0,0,0-.8,1.976c.483-1.252,3.378-2.413,3.378-2.413a5.765,5.765,0,0,0-1.448,2.253c.893-1.1,2.985-1.812,4.324-2.191a6.027,6.027,0,0,0,2.191,2.854,2.207,2.207,0,0,1,.931,1.819,5.627,5.627,0,0,1,2.171,2.982l1.168,1.6S316.856,223.59,316.856,217.107Z" transform="translate(-250.387 -210.711)" fill="#263238"/>
      <path id="Path_2957" data-name="Path 2957" d="M351.421,248.561c-.391-.837,1.028-3.105,2.034-2.825a2.944,2.944,0,0,1,1.448,2.27c.145,1.081-.62,3.137-1.436,3.583-.519.29-.946-.5-.946-.5" transform="translate(-289.868 -237.267)" fill="#fff" stroke="#263238" stroke-linecap="round" stroke-linejoin="round" stroke-width="1"/>
      <path id="Path_2958" data-name="Path 2958" d="M96.51,407.2l27.261-6.374,56.863,6.567-14.64,10.013Z" transform="translate(-96.51 -354.96)" fill="#fff"/>
      <path id="Path_2959" data-name="Path 2959" d="M96.51,407.2l27.261-6.374,56.863,6.567" transform="translate(-96.51 -354.96)" fill="#fff" stroke="#263238" stroke-linecap="round" stroke-linejoin="round" stroke-width="1"/>
      <path id="Path_2960" data-name="Path 2960" d="M194.29,417.209l11.036-4.879,13.953.721-6.206,5.306Z" transform="translate(-170.698 -363.685)" fill="#fff" stroke="#263238" stroke-linecap="round" stroke-linejoin="round" stroke-width="1"/>
      <path id="Path_2961" data-name="Path 2961" d="M265.795,301c-3.539,1.448-4.3,4.7-10.317,17.565a6.348,6.348,0,0,0-4.1,3.793,3.909,3.909,0,0,0,3.723,5.721,4.99,4.99,0,0,0,3.378.866c2.27-.1,12.3-15.453,12.3-15.453Z" transform="translate(-213.687 -279.216)" fill="#263238"/>
      <path id="Path_2962" data-name="Path 2962" d="M274.09,376.93a5.97,5.97,0,0,1,2.01,5.769" transform="translate(-231.245 -336.826)" fill="none" stroke="#fff" stroke-linecap="round" stroke-linejoin="round" stroke-width="1"/>
      <path id="Path_2963" data-name="Path 2963" d="M280.42,379.74a3.187,3.187,0,0,1,2.246,2.915" transform="translate(-236.048 -338.958)" fill="none" stroke="#fff" stroke-linecap="round" stroke-linejoin="round" stroke-width="1"/>
      <path id="Path_2964" data-name="Path 2964" d="M300.731,327.029a14.2,14.2,0,0,1-.922-7.159" transform="translate(-250.669 -293.533)" fill="none" stroke="#fff" stroke-linecap="round" stroke-linejoin="round" stroke-width="1"/>
      <path id="Path_2965" data-name="Path 2965" d="M302.815,335.94c-.147,1.013.9,6.408.893,12.081" transform="translate(-253.029 -305.726)" fill="none" stroke="#fff" stroke-linecap="round" stroke-linejoin="round" stroke-width="1"/>
      <path id="Path_2966" data-name="Path 2966" d="M358.58,305.42c4.427,2.225,4.953,9.069.777,17.253-2.951,5.776-7.023,14.305-9.6,14.877a7.623,7.623,0,0,1-5.091-1.033s-2.171-.1-2.828-1.645c-1.8-4.22,2.767-9.552,4.553-8.276,0,0,5.733-12.467,6.777-13.253" transform="translate(-282.335 -282.569)" fill="#263238"/>
      <path id="Path_2967" data-name="Path 2967" d="M341.268,398.659c-.586-2.912,4-6.348,4.963-5.711,0,0,3.4.191,3.913,2.545" transform="translate(-282.175 -348.92)" fill="none" stroke="#fff" stroke-linecap="round" stroke-linejoin="round" stroke-width="1"/>
      <path id="Path_2968" data-name="Path 2968" d="M393.12,387.184c1.993-3.515,5.458-10.254,5.458-10.254" transform="translate(-321.556 -336.826)" fill="none" stroke="#fff" stroke-linecap="round" stroke-linejoin="round" stroke-width="1"/>
      <path id="Path_2969" data-name="Path 2969" d="M362,391.12s2.386-1.428,4.169-.077" transform="translate(-297.944 -347.093)" fill="none" stroke="#fff" stroke-linecap="round" stroke-linejoin="round" stroke-width="1"/>
      <path id="Path_2970" data-name="Path 2970" d="M365.38,347.244s1.317-2.9,2.654-5.549,4.4-6.584,5.667-6.775" transform="translate(-300.509 -304.952)" fill="none" stroke="#fff" stroke-linecap="round" stroke-linejoin="round" stroke-width="1"/>
      <path id="Path_2971" data-name="Path 2971" d="M223.14,358.215a1.963,1.963,0,0,1-.82-.224,29.172,29.172,0,0,1-9.212-8.215,30.331,30.331,0,0,1-2.058-3.038l.984-4.217s.926,2.413,4.649,4.784,8.145,3.153,9.576,5.549C227.527,354.941,225.295,358.319,223.14,358.215Z" transform="translate(-183.415 -310.718)" fill="#fff"/>
      <g id="Group_469" data-name="Group 469" transform="translate(27.635 31.802)" clip-path="url(#clip-path-2)">
        <path id="Path_2972" data-name="Path 2972" d="M223.14,358.215a3.993,3.993,0,0,0-.241-.89c-.861-2.157-6.073-6.444-6.073-6.444a9.584,9.584,0,0,1-3.713-1.105,30.337,30.337,0,0,1-2.063-3.038l.984-4.217s.926,2.413,4.649,4.784,8.145,3.153,9.576,5.549C227.527,354.941,225.295,358.319,223.14,358.215Z" transform="translate(-211.05 -342.52)" fill="#5c9179" opacity="0.4"/>
      </g>
      <path id="Path_2974" data-name="Path 2974" d="M223.14,358.215a1.963,1.963,0,0,1-.82-.224,29.172,29.172,0,0,1-9.212-8.215,30.331,30.331,0,0,1-2.058-3.038l.984-4.217s.926,2.413,4.649,4.784,8.145,3.153,9.576,5.549C227.527,354.941,225.295,358.319,223.14,358.215Z" transform="translate(-183.415 -310.718)" fill="none" stroke="#263238" stroke-linecap="round" stroke-linejoin="round" stroke-width="1"/>
      <path id="Path_2975" data-name="Path 2975" d="M209.352,353.341s-.509,2.249-1.851,1.744c-.724-.273-2.118-2.435-2.381-3.525Z" transform="translate(-178.915 -317.577)" fill="#fff" stroke="#263238" stroke-linecap="round" stroke-linejoin="round" stroke-width="1"/>
      <path id="Path_2976" data-name="Path 2976" d="M198.15,299.775l1.1-.565a9.271,9.271,0,0,1,5.016,1.588,10.153,10.153,0,0,1,2.63,3.641s6.777-3.742,13.7-1.595l2.823,15.733-12.978.849-8.1-7.694Z" transform="translate(-173.627 -277.858)" fill="#fff" stroke="#263238" stroke-linecap="round" stroke-linejoin="round" stroke-width="1"/>
      <path id="Path_2977" data-name="Path 2977" d="M222.136,319.578s-1.522-.046-3.559.022c-3.079.1-7.332.444-9.277,1.576l-.092-.031-1.781-.622-.036-.053c-.328-.483-2.975-4.283-6.756-5.829L195.29,299.7a11.326,11.326,0,0,1,8.582,5.255l1.522.55s9.06-2.683,14.131-1.718Z" transform="translate(-171.457 -278.229)" fill="#5c9179"/>
      <g id="Group_470" data-name="Group 470" transform="translate(23.833 21.471)" clip-path="url(#clip-path-3)">
        <path id="Path_2978" data-name="Path 2978" d="M207.392,320.479c-.328-.483-2.975-4.283-6.756-5.829l-5.347-14.94a11.326,11.326,0,0,1,8.582,5.255Z" transform="translate(-195.29 -299.708)" fill="rgba(0,0,0,0.7)" opacity="0.3"/>
        <path id="Path_2979" data-name="Path 2979" d="M251.165,338.245c-3.079.1-7.332.444-9.277,1.576l-.092-.031-3.556-15.1s2.91-.654,3.8-.323C242.042,324.371,247.958,328.736,251.165,338.245Z" transform="translate(-227.877 -318.344)" fill="rgba(0,0,0,0.7)" opacity="0.3"/>
      </g>
      <path id="Path_2981" data-name="Path 2981" d="M222.136,319.578s-1.522-.046-3.559.022c-3.079.1-7.332.444-9.277,1.576l-.092-.031-1.781-.622-.036-.053c-.328-.483-2.975-4.283-6.756-5.829L195.29,299.7a11.326,11.326,0,0,1,8.582,5.255l1.522.55s9.06-2.683,14.131-1.718Z" transform="translate(-171.457 -278.229)" fill="none" stroke="#263238" stroke-linecap="round" stroke-linejoin="round" stroke-width="1"/>
      <line id="Line_246" data-name="Line 246" x2="3.491" y2="14.484" transform="translate(33.942 27.278)" fill="none" stroke="#263238" stroke-linecap="round" stroke-linejoin="round" stroke-width="1"/>
      <line id="Line_247" data-name="Line 247" x1="3.392" y1="14.474" transform="translate(32.579 27.821)" fill="none" stroke="#263238" stroke-linecap="round" stroke-linejoin="round" stroke-width="1"/>
      <path id="Path_2982" data-name="Path 2982" d="M204.208,333.212c-.775-.215-2.336-4.869-1.621-6.874,0,0,.849-1.474,1.206-1.576.54-.157,2.722-.111,2.615.256-.241.849-1.916.835-1.916.835l-.543.994.022.548s.789-.574,1.078-.557a9.049,9.049,0,0,1,1.534.709c.524.277.844.429.724.68-.388.835-2.041.241-2.041.241l-.622.939s.6.1.864.133a9.041,9.041,0,0,1,2.381,1.665c-.258.709-2.328-.058-2.328-.058l-.367.306s1.525.393,1.689.451a4.691,4.691,0,0,1,1.156.885c-.111.627-1.392.166-1.392.166l-1.122-.046a1.38,1.38,0,0,1-.6.309" transform="translate(-176.855 -297.18)" fill="#fff" stroke="#263238" stroke-linecap="round" stroke-linejoin="round" stroke-width="1"/>
      <path id="Path_2983" data-name="Path 2983" d="M205.544,335.94s-.724.608-.91.784-.14.736-.14.736" transform="translate(-178.437 -305.726)" fill="none" stroke="#263238" stroke-linecap="round" stroke-linejoin="round" stroke-width="1"/>
      <path id="Path_2984" data-name="Path 2984" d="M206.69,347.36a1.674,1.674,0,0,0,.6,1.182c.188.2-.3.736.241,1.122" transform="translate(-180.107 -314.39)" fill="none" stroke="#263238" stroke-linecap="round" stroke-linejoin="round" stroke-width="1"/>
      <path id="Path_2985" data-name="Path 2985" d="M322.693,377.9c-1.532.417-3.2-2.275-5.228-5.214h0a23.842,23.842,0,0,0-4.567-5.308c-.138-.1-.277-.205-.417-.3l1.009-5.067c2.094,1.1,3.392,2.857,5.566,4.664,3.5,2.912,6.6,4.7,7.458,5.988S325.318,377.184,322.693,377.9Z" transform="translate(-260.372 -325.506)" fill="#fff"/>
      <g id="Group_471" data-name="Group 471" transform="translate(52.108 36.504)" clip-path="url(#clip-path-4)">
        <path id="Path_2986" data-name="Path 2986" d="M318.777,389.239a23.841,23.841,0,0,0-4.567-5.308,1.689,1.689,0,0,0,.668-.1A14.174,14.174,0,0,1,318.777,389.239Z" transform="translate(-313.793 -378.565)" fill="#5c9179" opacity="0.4"/>
      </g>
      <path id="Path_2988" data-name="Path 2988" d="M322.693,377.9c-1.532.417-3.2-2.275-5.228-5.214h0a23.842,23.842,0,0,0-4.567-5.308c-.138-.1-.277-.205-.417-.3l1.009-5.067c2.094,1.1,3.392,2.857,5.566,4.664,3.5,2.912,6.6,4.7,7.458,5.988S325.318,377.184,322.693,377.9Z" transform="translate(-260.372 -325.506)" fill="none" stroke="#263238" stroke-linecap="round" stroke-linejoin="round" stroke-width="1"/>
      <path id="Path_2989" data-name="Path 2989" d="M282.277,357.392a.837.837,0,0,1-.483.391,1.69,1.69,0,0,1-.166.056h-.046c-1.619.422-5.262-.456-5.262-.456a16.958,16.958,0,0,1-2.531-1.4,6.565,6.565,0,0,1-.268-.651l-.065-.191s-.859-.483-.965-.859-.287-.483.241-.55,3.378,0,3.378,0l-3.1-1.264a11.119,11.119,0,0,1-2.244-1.4c-.191-.364-.429-.606.62-.461s3.342.811,3.342.811l1.807.384-1.8-.765s-3.532-.427-2.864-1.525h2.005a20.7,20.7,0,0,1,3.378.429c.584.179,4.444,2.577,4.444,2.577" transform="translate(-228.596 -316.022)" fill="#fff"/>
      <g id="Group_472" data-name="Group 472" transform="translate(42.003 33.488)" clip-path="url(#clip-path-5)">
        <path id="Path_2990" data-name="Path 2990" d="M290.751,376.179c-1.619.422-5.262-.456-5.262-.456a16.956,16.956,0,0,1-2.531-1.4,6.578,6.578,0,0,1-.268-.651l2.929.321a1.242,1.242,0,0,0,0,1.206C285.945,375.784,289.656,376.377,290.751,376.179Z" transform="translate(-279.773 -367.841)" fill="#5c9179" opacity="0.4"/>
      </g>
      <path id="Path_2992" data-name="Path 2992" d="M282.277,357.392a.837.837,0,0,1-.483.391,1.69,1.69,0,0,1-.166.056h-.046c-1.619.422-5.262-.456-5.262-.456a16.958,16.958,0,0,1-2.531-1.4,6.565,6.565,0,0,1-.268-.651l-.065-.191s-.859-.483-.965-.859-.287-.483.241-.55,3.378,0,3.378,0l-3.1-1.264a11.119,11.119,0,0,1-2.244-1.4c-.191-.364-.429-.606.62-.461s3.342.811,3.342.811l1.807.384-1.8-.765s-3.532-.427-2.864-1.525h2.005a20.7,20.7,0,0,1,3.378.429c.584.179,4.444,2.577,4.444,2.577" transform="translate(-228.596 -316.022)" fill="none" stroke="#263238" stroke-linecap="round" stroke-linejoin="round" stroke-width="1"/>
      <line id="Line_248" data-name="Line 248" x2="3.525" y2="0.519" transform="translate(44.855 39.127)" fill="none" stroke="#263238" stroke-linecap="round" stroke-linejoin="round" stroke-width="1"/>
      <path id="Path_2993" data-name="Path 2993" d="M136.78,405.765l8.835,2.654,16.165-3.689s-9.873-2.8-9.965-2.734S136.78,405.765,136.78,405.765Z" transform="translate(-127.064 -355.843)" fill="#5c9179"/>
      <g id="Group_473" data-name="Group 473" transform="translate(9.716 46.151)" clip-path="url(#clip-path-6)">
        <path id="Path_2994" data-name="Path 2994" d="M136.78,405.765l8.835,2.654,16.165-3.689s-9.873-2.8-9.965-2.734S136.78,405.765,136.78,405.765Z" transform="translate(-136.78 -401.995)" fill="rgba(0,0,0,0.7)" opacity="0.3"/>
      </g>
      <path id="Path_2996" data-name="Path 2996" d="M136.78,405.765l8.835,2.654,16.165-3.689s-9.873-2.8-9.965-2.734S136.78,405.765,136.78,405.765Z" transform="translate(-127.064 -355.843)" fill="none" stroke="#263238" stroke-linecap="round" stroke-linejoin="round" stroke-width="1"/>
      <path id="Path_2997" data-name="Path 2997" d="M135.6,396.677c-.62.043-.775,2.278-.128,3.112l14.274-2.963,1.144-2.707Z" transform="translate(-125.753 -349.868)" fill="#5c9179"/>
      <g id="Group_474" data-name="Group 474" transform="translate(9.299 44.252)" clip-path="url(#clip-path-7)">
        <path id="Path_2998" data-name="Path 2998" d="M135.6,396.677c-.62.043-.775,2.278-.128,3.112l14.274-2.963,1.144-2.707Z" transform="translate(-135.052 -394.12)" fill="rgba(0,0,0,0.7)" opacity="0.3"/>
      </g>
      <path id="Path_3000" data-name="Path 3000" d="M135.6,396.677c-.62.043-.775,2.278-.128,3.112l14.274-2.963,1.144-2.707Z" transform="translate(-125.753 -349.868)" fill="none" stroke="#263238" stroke-linecap="round" stroke-linejoin="round" stroke-width="1"/>
      <path id="Path_3001" data-name="Path 3001" d="M161.978,397.731a6.71,6.71,0,0,0-.075,1.9l-15.415,3.489-8.126-2.393a2.877,2.877,0,0,1-.109-2.654L153.1,395.55Z" transform="translate(-127.953 -350.953)" fill="#fff" stroke="#263238" stroke-linecap="round" stroke-linejoin="round" stroke-width="1"/>
      <path id="Path_3002" data-name="Path 3002" d="M137.31,396.677,152.6,394.12l9.494,2.406-15.967,3.182Z" transform="translate(-127.466 -349.868)" fill="#5c9179" stroke="#263238" stroke-linecap="round" stroke-linejoin="round" stroke-width="1"/>
      <path id="Path_3003" data-name="Path 3003" d="M139.56,409.836l8.085,2.408,13.234-2.664" transform="translate(-129.173 -361.598)" fill="none" stroke="#263238" stroke-linecap="round" stroke-linejoin="round" stroke-width="1"/>
      <line id="Line_249" data-name="Line 249" x1="14.23" y2="3.035" transform="translate(19.676 48.228)" fill="none" stroke="#263238" stroke-linecap="round" stroke-linejoin="round" stroke-width="1"/>
      <path id="Path_3004" data-name="Path 3004" d="M140.35,414.57c.123.012,6.095,1.851,6.095,1.851" transform="translate(-129.773 -365.384)" fill="none" stroke="#263238" stroke-linecap="round" stroke-linejoin="round" stroke-width="1"/>
      <line id="Line_250" data-name="Line 250" y1="0.183" x2="1.132" transform="translate(32.743 47.487)" fill="none" stroke="#263238" stroke-linecap="round" stroke-linejoin="round" stroke-width="1"/>
      <line id="Line_251" data-name="Line 251" x1="0.601" y1="0.135" transform="translate(17.608 51.347)" fill="none" stroke="#263238" stroke-linecap="round" stroke-linejoin="round" stroke-width="1"/>
      <path id="Path_3005" data-name="Path 3005" d="M138.171,406a2.128,2.128,0,0,1,.109,2.654A2.512,2.512,0,0,1,138.171,406Z" transform="translate(-127.871 -358.882)" fill="#263238"/>
      <g id="Group_475" data-name="Group 475" transform="translate(9.973 47.118)" clip-path="url(#clip-path-8)">
        <path id="Path_3006" data-name="Path 3006" d="M138.171,406a2.128,2.128,0,0,1,.109,2.654A2.512,2.512,0,0,1,138.171,406Z" transform="translate(-137.843 -406)" fill="rgba(255,255,255,0.7)" opacity="0.3"/>
      </g>
      <path id="Path_3008" data-name="Path 3008" d="M138.171,406a2.128,2.128,0,0,1,.109,2.654A2.512,2.512,0,0,1,138.171,406Z" transform="translate(-127.871 -358.882)" fill="none" stroke="#263238" stroke-linecap="round" stroke-linejoin="round" stroke-width="1"/>
      <path id="Path_3009" data-name="Path 3009" d="M260.175,420.62l15.429.632-1.5,5.31-18.981-.724Z" transform="translate(-216.852 -369.975)" fill="#fff"/>
      <g id="Group_476" data-name="Group 476" transform="translate(38.268 50.645)" clip-path="url(#clip-path-9)">
        <path id="Path_3010" data-name="Path 3010" d="M260.175,420.62l15.429.632-1.5,5.31-18.981-.724Z" transform="translate(-255.12 -420.62)" fill="#5c9179" opacity="0.4"/>
      </g>
      <path id="Path_3012" data-name="Path 3012" d="M260.175,420.62l15.429.632-1.5,5.31-18.981-.724Z" transform="translate(-216.852 -369.975)" fill="none" stroke="#263238" stroke-linecap="round" stroke-linejoin="round" stroke-width="1"/>
    </g>
  </g>
</svg>
