<svg xmlns="http://www.w3.org/2000/svg" width="137.351" height="127.47" viewBox="0 0 137.351 127.47">
  <g id="Alone-amico" transform="translate(-11.195 -18.809)">
    <g id="freepik--Mountains--inject-11" transform="translate(24.849 33.293)">
      <g id="freepik--mountains--inject-11-2" data-name="freepik--mountains--inject-11" transform="translate(0 0)">
        <path id="Path_1652" data-name="Path 1652" d="M168.78,117.731,150.846,88.849a.882.882,0,0,0-1.5,0l-8.391,13.5-5.239-6.387a.886.886,0,0,0-1.387.022l-13.547,17.633.023-.076L95.236,80.216a.987.987,0,0,0-1.527-.022l-5.763,7.019L78.711,72.367a.983.983,0,0,0-1.648,0L58.84,101.724v26.959H168.815Z" transform="translate(-58.84 -71.92)" fill="#6d9b79"/>
        <path id="Path_1653" data-name="Path 1653" d="M168.78,117.731,150.846,88.849a.882.882,0,0,0-1.5,0l-8.391,13.5-5.239-6.387a.886.886,0,0,0-1.387.022l-13.547,17.633.023-.076L95.236,80.216a.987.987,0,0,0-1.527-.022l-5.763,7.019L78.711,72.367a.983.983,0,0,0-1.648,0L58.84,101.724v26.959H168.815Z" transform="translate(-58.84 -71.92)" fill="#fff" opacity="0.75"/>
        <path id="Path_1654" data-name="Path 1654" d="M102.223,83.862a1.171,1.171,0,0,0,1.573-.052l2.694-2.664a1.166,1.166,0,0,1,1.654.03l.613.654a1.169,1.169,0,0,0,1.648.035,1.162,1.162,0,0,1,.909-.317,1.14,1.14,0,0,1,.833.47l.39.545a1.155,1.155,0,0,0,1.144.456,1.106,1.106,0,0,0,.894-.818v-.044l-6.078-9.79a.983.983,0,0,0-1.648,0l-6.259,10.09Z" transform="translate(-88.625 -71.92)" fill="#fff" opacity="0.7"/>
        <path id="Path_1655" data-name="Path 1655" d="M167.258,106.029l1.533-.6a.748.748,0,0,1,.9.273l.287.423a.731.731,0,0,0,.523.328.752.752,0,0,0,.6-.181l.324-.273a.752.752,0,0,1,.6-.18.73.73,0,0,1,.523.333l.533.848a.742.742,0,0,0,.683.336.729.729,0,0,0,.621-.431l.2-.469a.711.711,0,0,1,.4-.384.762.762,0,0,1,.568.007.75.75,0,0,0,.459.041l-3.634-4.737a.987.987,0,0,0-1.527-.022l-3.889,4.742A.778.778,0,0,0,167.258,106.029Z" transform="translate(-135.975 -93.064)" fill="#fff" opacity="0.7"/>
        <path id="Path_1656" data-name="Path 1656" d="M366.622,143.333a1.064,1.064,0,0,1-1.433-.046l-2.453-2.422a1.062,1.062,0,0,0-1.5.027l-.556.594a1.065,1.065,0,0,1-1.5.033,1.053,1.053,0,0,0-.825-.29,1.033,1.033,0,0,0-.757.427l-.347.51a1.046,1.046,0,0,1-1.038.415,1,1,0,0,1-.81-.745V141.8l5.522-8.9a.882.882,0,0,1,1.5,0l5.689,9.163Z" transform="translate(-270.412 -115.964)" fill="#fff" opacity="0.7"/>
        <path id="Path_1657" data-name="Path 1657" d="M318.655,163.451l-1.393-.545a.68.68,0,0,0-.817.256l-.249.385a.668.668,0,0,1-.477.3.687.687,0,0,1-.543-.163l-.287-.273a.69.69,0,0,0-.546-.161.67.67,0,0,0-.477.3l-.5.783a.672.672,0,0,1-.62.306.66.66,0,0,1-.563-.394l-.183-.425a.644.644,0,0,0-.364-.349.69.69,0,0,0-.516.008.7.7,0,0,1-.418.035l3.3-4.3a.886.886,0,0,1,1.387-.022l3.536,4.311A.737.737,0,0,1,318.655,163.451Z" transform="translate(-238.522 -135.153)" fill="#fff" opacity="0.7"/>
        <path id="Path_1658" data-name="Path 1658" d="M162.22,109.288l3.943-7.028-5.763,7.028,4.657,6.5Z" transform="translate(-131.295 -93.986)" opacity="0.1"/>
        <path id="Path_1659" data-name="Path 1659" d="M330.7,166.444l-3.585-6.384,5.239,6.384-4.233,5.907Z" transform="translate(-250.23 -136.024)" opacity="0.1"/>
      </g>
    </g>
    <g id="freepik--Floor--inject-11" transform="translate(13.337 73.435)">
      <g id="freepik--Land--inject-11" transform="translate(0)">
        <ellipse id="Ellipse_111" data-name="Ellipse 111" cx="66.294" cy="36.422" rx="66.294" ry="36.422" fill="#6d9b79"/>
        <ellipse id="Ellipse_112" data-name="Ellipse 112" cx="66.294" cy="36.422" rx="66.294" ry="36.422" fill="#fff" opacity="0.3"/>
      </g>
    </g>
    <g id="freepik--Trees--inject-11" transform="translate(11.195 32.048)">
      <g id="freepik--Tree--inject-11" transform="translate(95.918 9.575)">
        <g id="freepik--tree--inject-11-2" data-name="freepik--tree--inject-11">
          <path id="Path_1660" data-name="Path 1660" d="M359.352,127.9a1.936,1.936,0,0,0-1.009.175,10.231,10.231,0,0,0-1.648,1.11,3.407,3.407,0,0,1-1.825.75,1.463,1.463,0,0,1-1.522-1.009.858.858,0,0,0-.089-.319.5.5,0,0,0-.573-.142,3.117,3.117,0,0,0-.556.305,3.718,3.718,0,0,1-2.318.185c-.651-.09-1.473-.363-1.47-.99,0-.409.375-.709.671-1.006s.536-.774.267-1.091a.827.827,0,0,0-.378-.221c-.814-.251-1.811.085-2.5-.4a1.319,1.319,0,0,1-.361-1.636,2.17,2.17,0,0,1,1.467-1.064c.547-.134,1.241-.194,1.433-.7.181-.439-.178-.914-.573-1.184a4.381,4.381,0,0,1-1.175-.845,1.281,1.281,0,0,1-.037-1.388,1.783,1.783,0,0,1,1.227-.8,2.844,2.844,0,0,0,.745-.155.468.468,0,0,0,.287-.6c-.074-.128-.229-.194-.318-.314a.55.55,0,0,1,.221-.736,3.033,3.033,0,0,1,.831-.3c.59-.188,1.163-.734.989-1.3s-1.032-.785-1.284-1.364a1.208,1.208,0,0,1,.6-1.4,11.332,11.332,0,0,1,1.57-.665,1.6,1.6,0,0,0,1.06-1.192c.04-.545-.4-1.025-.754-1.47s-.662-1.064-.35-1.535.969-.483,1.507-.646a2.4,2.4,0,0,0,1.484-1.274c.143-.314.212-.66.384-.96a3.051,3.051,0,0,1,2.917-1.235,1.2,1.2,0,0,1,.989.641,1.467,1.467,0,0,1,.364.649c.077.453-.172,1.031.287,1.364.685.526,1.719-.183,1.694.993a4.705,4.705,0,0,1-.232,1.464c-.186.5-.559.709-.246,1.263.4.717.662.712,1.467.712a1.873,1.873,0,0,1,1.493.39c.751.736.3,1.407-.361,1.974-.757.649-.355.933-.258,1.77.049.4-.049.529.33.8.719.507,1.118.335.917,1.328-.183.905.1.594.926.933.731.3,1.215,1.05,1.805,1.516.381.3.963.545,1,1.061.069,1.012-1.249.791-1.877,1.031-1.026.4-.719,1.674.08,2.152.86.507,2.083.7,2.152,1.852.052.889-.479,1.091-1.2,1.38-.573.237-.5.308-.5.963,0,1.323-.467,1.7-1.837,1.484a3.519,3.519,0,0,0-1.324-.1c-.524.15-.347.273-.361.69-.037,1.066-1.344.766-1.9.308A4.87,4.87,0,0,0,359.352,127.9Z" transform="translate(-345.895 -102.468)" fill="#6d9b79"/>
          <path id="Path_1661" data-name="Path 1661" d="M359.352,127.9a1.936,1.936,0,0,0-1.009.175,10.231,10.231,0,0,0-1.648,1.11,3.407,3.407,0,0,1-1.825.75,1.463,1.463,0,0,1-1.522-1.009.858.858,0,0,0-.089-.319.5.5,0,0,0-.573-.142,3.117,3.117,0,0,0-.556.305,3.718,3.718,0,0,1-2.318.185c-.651-.09-1.473-.363-1.47-.99,0-.409.375-.709.671-1.006s.536-.774.267-1.091a.827.827,0,0,0-.378-.221c-.814-.251-1.811.085-2.5-.4a1.319,1.319,0,0,1-.361-1.636,2.17,2.17,0,0,1,1.467-1.064c.547-.134,1.241-.194,1.433-.7.181-.439-.178-.914-.573-1.184a4.381,4.381,0,0,1-1.175-.845,1.281,1.281,0,0,1-.037-1.388,1.783,1.783,0,0,1,1.227-.8,2.844,2.844,0,0,0,.745-.155.468.468,0,0,0,.287-.6c-.074-.128-.229-.194-.318-.314a.55.55,0,0,1,.221-.736,3.033,3.033,0,0,1,.831-.3c.59-.188,1.163-.734.989-1.3s-1.032-.785-1.284-1.364a1.208,1.208,0,0,1,.6-1.4,11.332,11.332,0,0,1,1.57-.665,1.6,1.6,0,0,0,1.06-1.192c.04-.545-.4-1.025-.754-1.47s-.662-1.064-.35-1.535.969-.483,1.507-.646a2.4,2.4,0,0,0,1.484-1.274c.143-.314.212-.66.384-.96a3.051,3.051,0,0,1,2.917-1.235,1.2,1.2,0,0,1,.989.641,1.467,1.467,0,0,1,.364.649c.077.453-.172,1.031.287,1.364.685.526,1.719-.183,1.694.993a4.705,4.705,0,0,1-.232,1.464c-.186.5-.559.709-.246,1.263.4.717.662.712,1.467.712a1.873,1.873,0,0,1,1.493.39c.751.736.3,1.407-.361,1.974-.757.649-.355.933-.258,1.77.049.4-.049.529.33.8.719.507,1.118.335.917,1.328-.183.905.1.594.926.933.731.3,1.215,1.05,1.805,1.516.381.3.963.545,1,1.061.069,1.012-1.249.791-1.877,1.031-1.026.4-.719,1.674.08,2.152.86.507,2.083.7,2.152,1.852.052.889-.479,1.091-1.2,1.38-.573.237-.5.308-.5.963,0,1.323-.467,1.7-1.837,1.484a3.519,3.519,0,0,0-1.324-.1c-.524.15-.347.273-.361.69-.037,1.066-1.344.766-1.9.308A4.87,4.87,0,0,0,359.352,127.9Z" transform="translate(-345.895 -102.468)" opacity="0.15"/>
          <path id="Path_1662" data-name="Path 1662" d="M351.465,147.92c-.625-.194-1.358-.041-1.975-.177a7.5,7.5,0,0,1,1.106-.166,3.239,3.239,0,0,1,2.39.9,1.988,1.988,0,0,0-.481,1.364c1.553.4,3.081-1.582,4.562-.979-.092.714,0,1.677.728,1.833a1.211,1.211,0,0,0,1.129-.515c.269-.335.43-.736.7-1.069a2.463,2.463,0,0,1,3.152-.436c.341.235,1.08.764,1.47.357.14-.147.1-.344.163-.518a1.391,1.391,0,0,1,.226-.338c.186-.273.066-.524-.287-.652a9.564,9.564,0,0,0-.977-.145,1.138,1.138,0,0,1-.785-.589.8.8,0,0,1,.155-.916c.123-.117.287-.191.413-.3a.384.384,0,0,0,.138-.445.5.5,0,0,0-.192-.175q-.834-.545-1.642-1.126a1.43,1.43,0,0,1-.685-.848.987.987,0,0,1,.238-.717c.45-.578,1.292-.894,1.5-1.59a3.422,3.422,0,0,1,.183-.744,1.393,1.393,0,0,1,1.032-.526.992.992,0,0,0,.722-.349.605.605,0,0,0,.049-.447c-.146-.668-.891-1.074-1.146-1.715a1.724,1.724,0,0,1,.332-1.636,5.919,5.919,0,0,1,2.27-1.677,5.874,5.874,0,0,0,1.04-.458l.034-.025a1.806,1.806,0,0,1-.751,1.143c-.757.649-.355.933-.258,1.77.049.4-.049.529.33.8.719.507,1.118.335.917,1.328-.183.905.1.594.926.933.731.3,1.215,1.05,1.805,1.516.381.3.963.545,1,1.061.069,1.012-1.249.791-1.877,1.031-1.026.4-.719,1.674.08,2.152.86.507,2.083.7,2.152,1.852.052.889-.479,1.091-1.2,1.38-.573.237-.5.308-.5.963,0,1.323-.467,1.7-1.837,1.484a3.519,3.519,0,0,0-1.324-.1c-.524.15-.347.273-.361.69-.037,1.066-1.344.766-1.9.308a4.612,4.612,0,0,0-2.293-1.219,1.936,1.936,0,0,0-1.009.175,10.227,10.227,0,0,0-1.648,1.11,3.408,3.408,0,0,1-1.825.75,1.463,1.463,0,0,1-1.522-1.009.858.858,0,0,0-.089-.319.5.5,0,0,0-.573-.142,3.115,3.115,0,0,0-.556.305,3.718,3.718,0,0,1-2.318.185c-.651-.09-1.473-.363-1.47-.99,0-.409.375-.709.671-1.006s.536-.774.267-1.091A.829.829,0,0,0,351.465,147.92Z" transform="translate(-348.46 -124.739)" opacity="0.15"/>
          <path id="Path_1663" data-name="Path 1663" d="M378.444,129.03l-3.74,7.058V132.84L374.323,119l-.553,13.84v2.182l-4.11-6.839,4.11,8.4v21.751a.219.219,0,0,0,.138.18.755.755,0,0,0,.659,0,.219.219,0,0,0,.138-.18V137.877Z" transform="translate(-362.85 -114.492)" fill="#37474f"/>
        </g>
        <g id="freepik--Bush--inject-11" transform="translate(6.377 36.518)">
          <path id="freepik--bush--inject-11-2" data-name="freepik--bush--inject-11" d="M389.97,244.522c-1.828.273-3.468-.2-3.748-2.086a15.932,15.932,0,0,1,0-4.669c.08-.559.287-1.219.86-1.364a1.107,1.107,0,0,1,1.178.63,2.924,2.924,0,0,1,.2,1.364c.287-.611.719-1.317,1.433-1.331a1.268,1.268,0,0,1,1.164,1.254,3.467,3.467,0,0,1-.6,1.745,1.9,1.9,0,0,1,1.433.213,1.148,1.148,0,0,1,.052,1.546,3.709,3.709,0,0,1-1.433.976.678.678,0,0,1,.533.014.625.625,0,0,1,.341.39.921.921,0,0,1-.375.938,2.218,2.218,0,0,1-1.04.379Z" transform="translate(-380.92 -236.379)" fill="#455a64"/>
          <g id="freepik--bush--inject-11-3" data-name="freepik--bush--inject-11" transform="translate(0 1.866)">
            <path id="freepik--bush--inject-11-4" data-name="freepik--bush--inject-11" d="M374.026,250.25l-4.373-2.4A3.442,3.442,0,0,1,368.7,247a2.357,2.357,0,0,1-.533-1.091.545.545,0,0,1,.046-.409c.158-.221.533-.145.739.035s.375.335.6.545a5.977,5.977,0,0,1-.083-1.445.62.62,0,0,1,.183-.48.6.6,0,0,1,.61.014,2.449,2.449,0,0,1,1.014,1.533,4.784,4.784,0,0,1,.057-1.838c.152-.654.943-.911,1.212-.273a3.544,3.544,0,0,1,.232,1.047,4.074,4.074,0,0,1-.1,1.383,4.351,4.351,0,0,1,1.166-1.535.723.723,0,0,1,.674-.224c.287.1.324.45.287.731a3.844,3.844,0,0,1-.6,1.674,3.8,3.8,0,0,1,1.479-.545.452.452,0,0,1,.464.142.548.548,0,0,1-.1.578,3.627,3.627,0,0,1-1.178,1.039,3.966,3.966,0,0,1,1.433-.142.5.5,0,0,1,.384.153c.123.172-.023.406-.181.545a4.332,4.332,0,0,1-1.023.581,1.576,1.576,0,0,1,.63.1.478.478,0,0,1,.287.494.633.633,0,0,1-.461.387A3.147,3.147,0,0,1,374.026,250.25Z" transform="translate(-368.148 -243.22)" fill="#6d9b79"/>
            <path id="freepik--bush--inject-11-5" data-name="freepik--bush--inject-11" d="M374.026,250.25l-4.373-2.4A3.442,3.442,0,0,1,368.7,247a2.357,2.357,0,0,1-.533-1.091.545.545,0,0,1,.046-.409c.158-.221.533-.145.739.035s.375.335.6.545a5.977,5.977,0,0,1-.083-1.445.62.62,0,0,1,.183-.48.6.6,0,0,1,.61.014,2.449,2.449,0,0,1,1.014,1.533,4.784,4.784,0,0,1,.057-1.838c.152-.654.943-.911,1.212-.273a3.544,3.544,0,0,1,.232,1.047,4.074,4.074,0,0,1-.1,1.383,4.351,4.351,0,0,1,1.166-1.535.723.723,0,0,1,.674-.224c.287.1.324.45.287.731a3.844,3.844,0,0,1-.6,1.674,3.8,3.8,0,0,1,1.479-.545.452.452,0,0,1,.464.142.548.548,0,0,1-.1.578,3.627,3.627,0,0,1-1.178,1.039,3.966,3.966,0,0,1,1.433-.142.5.5,0,0,1,.384.153c.123.172-.023.406-.181.545a4.332,4.332,0,0,1-1.023.581,1.576,1.576,0,0,1,.63.1.478.478,0,0,1,.287.494.633.633,0,0,1-.461.387A3.147,3.147,0,0,1,374.026,250.25Z" transform="translate(-368.148 -243.22)" opacity="0.25"/>
          </g>
        </g>
      </g>
      <g id="freepik--tree--inject-11-3" data-name="freepik--tree--inject-11" transform="translate(109.902 1.295)">
        <g id="freepik--tree--inject-11-4" data-name="freepik--tree--inject-11">
          <path id="Path_1664" data-name="Path 1664" d="M410.828,102.59a2.325,2.325,0,0,0-1.212.21,12.2,12.2,0,0,0-1.974,1.328,4.078,4.078,0,0,1-2.19.9,1.761,1.761,0,0,1-1.825-1.208,1.1,1.1,0,0,0-.1-.385.592.592,0,0,0-.691-.169,3.562,3.562,0,0,0-.665.365,4.452,4.452,0,0,1-2.78.224c-.78-.106-1.765-.436-1.762-1.186,0-.491.45-.854.805-1.208s.642-.927.318-1.306a.959.959,0,0,0-.453-.273c-.977-.3-2.172.1-3-.48a1.583,1.583,0,0,1-.433-1.966,2.624,2.624,0,0,1,1.76-1.276c.656-.158,1.49-.232,1.734-.832.215-.526-.215-1.091-.7-1.421a5.052,5.052,0,0,1-1.407-1.014,1.54,1.54,0,0,1-.049-1.661,2.415,2.415,0,0,1,.86-.777c.287-.175.6-.18.886-.346a.676.676,0,0,0,.37-.679,3.684,3.684,0,0,0-.192-.436.879.879,0,0,1,.307-.922,2.342,2.342,0,0,1,.96-.445,4.371,4.371,0,0,0,1.192-.352,1.035,1.035,0,0,0,.39-1.091c-.218-.709-1.235-.938-1.536-1.62a1.446,1.446,0,0,1,.722-1.674,13.74,13.74,0,0,1,1.883-.8,1.925,1.925,0,0,0,1.272-1.426c.049-.654-.476-1.23-.906-1.762s-.794-1.276-.418-1.843,1.161-.575,1.808-.772a2.888,2.888,0,0,0,1.78-1.527c.172-.376.255-.791.459-1.151a3.7,3.7,0,0,1,3.5-1.481,1.436,1.436,0,0,1,1.189.766,1.825,1.825,0,0,1,.436.78c.092.545-.209,1.235.329,1.636.82.63,2.072-.218,2.029,1.192a5.819,5.819,0,0,1-.287,1.756c-.224.592-.671.848-.3,1.511.481.862.8.856,1.76.854a2.25,2.25,0,0,1,1.794.466c.9.886.364,1.688-.436,2.37-.908.777-.424,1.115-.307,2.122.054.483-.06.633.4.954.86.605,1.338.4,1.1,1.593-.221,1.091.12.712,1.109,1.118.877.357,1.456,1.257,2.167,1.819.456.36,1.146.638,1.195,1.271.083,1.211-1.5.946-2.253,1.235-1.229.472-.86,2,.1,2.58,1.014.608,2.5.818,2.579,2.22.063,1.064-.573,1.3-1.433,1.655-.694.273-.6.365-.6,1.154,0,1.584-.559,2.034-2.2,1.775a4.3,4.3,0,0,0-1.585-.123c-.628.18-.416.327-.433.818-.046,1.282-1.611.919-2.275.371A5.745,5.745,0,0,0,410.828,102.59Z" transform="translate(-394.691 -72.106)" fill="#6d9b79"/>
          <path id="Path_1665" data-name="Path 1665" d="M410.828,102.59a2.325,2.325,0,0,0-1.212.21,12.2,12.2,0,0,0-1.974,1.328,4.078,4.078,0,0,1-2.19.9,1.761,1.761,0,0,1-1.825-1.208,1.1,1.1,0,0,0-.1-.385.592.592,0,0,0-.691-.169,3.562,3.562,0,0,0-.665.365,4.452,4.452,0,0,1-2.78.224c-.78-.106-1.765-.436-1.762-1.186,0-.491.45-.854.805-1.208s.642-.927.318-1.306a.959.959,0,0,0-.453-.273c-.977-.3-2.172.1-3-.48a1.583,1.583,0,0,1-.433-1.966,2.624,2.624,0,0,1,1.76-1.276c.656-.158,1.49-.232,1.734-.832.215-.526-.215-1.091-.7-1.421a5.052,5.052,0,0,1-1.407-1.014,1.54,1.54,0,0,1-.049-1.661,2.415,2.415,0,0,1,.86-.777c.287-.175.6-.18.886-.346a.676.676,0,0,0,.37-.679,3.684,3.684,0,0,0-.192-.436.879.879,0,0,1,.307-.922,2.342,2.342,0,0,1,.96-.445,4.371,4.371,0,0,0,1.192-.352,1.035,1.035,0,0,0,.39-1.091c-.218-.709-1.235-.938-1.536-1.62a1.446,1.446,0,0,1,.722-1.674,13.74,13.74,0,0,1,1.883-.8,1.925,1.925,0,0,0,1.272-1.426c.049-.654-.476-1.23-.906-1.762s-.794-1.276-.418-1.843,1.161-.575,1.808-.772a2.888,2.888,0,0,0,1.78-1.527c.172-.376.255-.791.459-1.151a3.7,3.7,0,0,1,3.5-1.481,1.436,1.436,0,0,1,1.189.766,1.825,1.825,0,0,1,.436.78c.092.545-.209,1.235.329,1.636.82.63,2.072-.218,2.029,1.192a5.819,5.819,0,0,1-.287,1.756c-.224.592-.671.848-.3,1.511.481.862.8.856,1.76.854a2.25,2.25,0,0,1,1.794.466c.9.886.364,1.688-.436,2.37-.908.777-.424,1.115-.307,2.122.054.483-.06.633.4.954.86.605,1.338.4,1.1,1.593-.221,1.091.12.712,1.109,1.118.877.357,1.456,1.257,2.167,1.819.456.36,1.146.638,1.195,1.271.083,1.211-1.5.946-2.253,1.235-1.229.472-.86,2,.1,2.58,1.014.608,2.5.818,2.579,2.22.063,1.064-.573,1.3-1.433,1.655-.694.273-.6.365-.6,1.154,0,1.584-.559,2.034-2.2,1.775a4.3,4.3,0,0,0-1.585-.123c-.628.18-.416.327-.433.818-.046,1.282-1.611.919-2.275.371A5.745,5.745,0,0,0,410.828,102.59Z" transform="translate(-394.691 -72.106)" fill="#fff" opacity="0.1"/>
          <path id="Path_1666" data-name="Path 1666" d="M401.387,126.631c-.748-.232-1.628-.049-2.367-.215a9.469,9.469,0,0,1,1.327-.2,3.856,3.856,0,0,1,2.866,1.091,2.378,2.378,0,0,0-.573,1.636c1.863.483,3.694-1.893,5.468-1.173-.106.859,0,2.01.874,2.2a1.456,1.456,0,0,0,1.353-.619c.321-.4.516-.884.84-1.282a2.946,2.946,0,0,1,3.786-.524c.479.33,1.08.832,1.562.5s.2-1.32.771-1.59c.378-.18.908.1,1.227-.161a.8.8,0,0,0,.215-.442,3.054,3.054,0,0,0-.175-2.689c-.533-.654-1.662-1.055-1.542-1.876.106-.7,1.04-.914,1.78-1s1.674-.415,1.636-1.121-1.023-1.028-1.169-1.707c-.063-.292.043-.616-.1-.881-.212-.4-.811-.415-1.164-.712-.633-.532-.143-1.527-.321-2.313-.126-.545-.6-.99-.757-1.538-.312-1.091.734-2.138,1.831-2.582A6.838,6.838,0,0,0,420,108.9l.04-.027a2.128,2.128,0,0,1-.9,1.364c-.908.777-.424,1.115-.307,2.122.054.483-.06.633.4.954.86.605,1.338.4,1.1,1.593-.221,1.091.12.712,1.109,1.118.877.357,1.456,1.257,2.167,1.819.456.36,1.146.638,1.2,1.271.083,1.211-1.5.946-2.252,1.235-1.229.472-.86,2,.1,2.58,1.014.608,2.5.818,2.579,2.22.063,1.064-.573,1.3-1.433,1.655-.694.273-.6.365-.6,1.154,0,1.584-.559,2.034-2.2,1.775a4.3,4.3,0,0,0-1.585-.123c-.628.18-.416.327-.433.818-.046,1.282-1.611.919-2.275.371a5.53,5.53,0,0,0-2.76-1.462,2.325,2.325,0,0,0-1.212.21,12.2,12.2,0,0,0-1.975,1.328,4.077,4.077,0,0,1-2.189.9,1.761,1.761,0,0,1-1.826-1.208,1.1,1.1,0,0,0-.1-.385.591.591,0,0,0-.691-.169,3.558,3.558,0,0,0-.665.365,4.453,4.453,0,0,1-2.78.224c-.779-.106-1.765-.436-1.762-1.186,0-.491.45-.854.805-1.208s.642-.927.318-1.306A.961.961,0,0,0,401.387,126.631Z" transform="translate(-397.779 -98.844)" opacity="0.15"/>
          <path id="Path_1667" data-name="Path 1667" d="M433.746,103.955l-4.5,8.454V108.52l-.456-16.58-.662,16.58v2.618l-4.929-8.2L428.129,113v34.361a.274.274,0,0,0,.163.218.914.914,0,0,0,.791,0,.274.274,0,0,0,.163-.218V114.572Z" transform="translate(-415.03 -86.531)" fill="#455a64"/>
        </g>
        <g id="freepik--bush--inject-11-6" data-name="freepik--bush--inject-11" transform="translate(8.959 53.43)">
          <path id="freepik--bush--inject-11-7" data-name="freepik--bush--inject-11" d="M447.778,276.175c-1.831.273-3.471-.2-3.748-2.086a15.836,15.836,0,0,1,0-4.669c.083-.559.287-1.219.86-1.364a1.11,1.11,0,0,1,1.178.63,2.889,2.889,0,0,1,.2,1.364c.287-.611.719-1.317,1.433-1.331a1.258,1.258,0,0,1,1.164,1.254,3.49,3.49,0,0,1-.593,1.745,1.9,1.9,0,0,1,1.433.213,1.151,1.151,0,0,1,.054,1.546,3.709,3.709,0,0,1-1.433.976.674.674,0,0,1,.524.02.622.622,0,0,1,.335.384.918.918,0,0,1-.373.938A2.218,2.218,0,0,1,447.778,276.175Z" transform="translate(-438.725 -268.032)" fill="#37474f"/>
          <g id="freepik--bush--inject-11-8" data-name="freepik--bush--inject-11" transform="translate(0 1.856)">
            <path id="freepik--bush--inject-11-9" data-name="freepik--bush--inject-11" d="M431.829,281.87l-4.373-2.4a3.435,3.435,0,0,1-.949-.851,2.3,2.3,0,0,1-.533-1.091.522.522,0,0,1,.046-.409c.158-.221.53-.145.739.035a7.94,7.94,0,0,1,.593.559,5.97,5.97,0,0,1-.083-1.445.631.631,0,0,1,.183-.48.6.6,0,0,1,.61,0,2.449,2.449,0,0,1,1.015,1.533,4.728,4.728,0,0,1,.06-1.838c.149-.654.94-.911,1.209-.273a3.561,3.561,0,0,1,.232,1.047,4.067,4.067,0,0,1-.1,1.383,4.352,4.352,0,0,1,1.166-1.535.72.72,0,0,1,.671-.224c.287.1.324.45.287.731a3.809,3.809,0,0,1-.6,1.674,3.8,3.8,0,0,1,1.479-.545.449.449,0,0,1,.464.142.549.549,0,0,1-.1.578,3.616,3.616,0,0,1-1.175,1.039,3.95,3.95,0,0,1,1.433-.142.508.508,0,0,1,.384.153c.123.172-.02.406-.181.545a4.331,4.331,0,0,1-1.023.581,1.577,1.577,0,0,1,.63.1.474.474,0,0,1,.3.494.621.621,0,0,1-.461.387A3.093,3.093,0,0,1,431.829,281.87Z" transform="translate(-425.952 -274.84)" fill="#6d9b79"/>
            <path id="freepik--bush--inject-11-10" data-name="freepik--bush--inject-11" d="M431.829,281.87l-4.373-2.4a3.435,3.435,0,0,1-.949-.851,2.3,2.3,0,0,1-.533-1.091.522.522,0,0,1,.046-.409c.158-.221.53-.145.739.035a7.94,7.94,0,0,1,.593.559,5.97,5.97,0,0,1-.083-1.445.631.631,0,0,1,.183-.48.6.6,0,0,1,.61,0,2.449,2.449,0,0,1,1.015,1.533,4.728,4.728,0,0,1,.06-1.838c.149-.654.94-.911,1.209-.273a3.561,3.561,0,0,1,.232,1.047,4.067,4.067,0,0,1-.1,1.383,4.352,4.352,0,0,1,1.166-1.535.72.72,0,0,1,.671-.224c.287.1.324.45.287.731a3.809,3.809,0,0,1-.6,1.674,3.8,3.8,0,0,1,1.479-.545.449.449,0,0,1,.464.142.549.549,0,0,1-.1.578,3.616,3.616,0,0,1-1.175,1.039,3.95,3.95,0,0,1,1.433-.142.508.508,0,0,1,.384.153c.123.172-.02.406-.181.545a4.331,4.331,0,0,1-1.023.581,1.577,1.577,0,0,1,.63.1.474.474,0,0,1,.3.494.621.621,0,0,1-.461.387A3.093,3.093,0,0,1,431.829,281.87Z" transform="translate(-425.952 -274.84)" opacity="0.25"/>
          </g>
        </g>
      </g>
      <g id="freepik--tree--inject-11-5" data-name="freepik--tree--inject-11">
        <g id="freepik--tree--inject-11-6" data-name="freepik--tree--inject-11">
          <path id="Path_1668" data-name="Path 1668" d="M22.5,97.831a2.323,2.323,0,0,1,1.212.207,12.534,12.534,0,0,1,1.975,1.331,4.1,4.1,0,0,0,2.189.9,1.758,1.758,0,0,0,1.826-1.208,1.049,1.049,0,0,1,.1-.387A.61.61,0,0,1,30.5,98.5a3.9,3.9,0,0,1,.665.365,4.463,4.463,0,0,0,2.783.226c.779-.109,1.765-.436,1.762-1.189,0-.488-.453-.851-.805-1.205s-.642-.927-.318-1.309a.941.941,0,0,1,.453-.273c.974-.3,2.169.1,2.995-.483a1.583,1.583,0,0,0,.433-1.966A2.61,2.61,0,0,0,36.7,91.4c-.653-.158-1.487-.232-1.719-.832-.215-.526.215-1.091.7-1.418a5.053,5.053,0,0,0,1.41-1.014,1.54,1.54,0,0,0,.046-1.663,2.131,2.131,0,0,0-1.482-.938,3.379,3.379,0,0,1-.894-.188.544.544,0,0,1-.33-.714c.089-.153.287-.232.381-.376a.66.66,0,0,0-.264-.884,3.6,3.6,0,0,0-1-.363c-.708-.226-1.4-.878-1.184-1.56s1.235-.941,1.536-1.62a1.455,1.455,0,0,0-.725-1.677,12.479,12.479,0,0,0-1.88-.8,1.925,1.925,0,0,1-1.275-1.426c-.052-.652.476-1.233.906-1.764s.8-1.274.421-1.841-1.164-.578-1.808-.772a2.884,2.884,0,0,1-1.785-1.538c-.172-.376-.255-.788-.461-1.151a3.688,3.688,0,0,0-3.5-1.478,1.42,1.42,0,0,0-1.186.766,1.757,1.757,0,0,0-.436.777c-.095.545.206,1.235-.332,1.65-.817.633-2.072-.218-2.026,1.192a5.7,5.7,0,0,0,.287,1.756c.224.594.671.851.287,1.513-.481.859-.794.854-1.76.854a2.236,2.236,0,0,0-1.791.466c-.9.884-.364,1.685.433,2.37.908.774.427,1.115.31,2.122-.057.483.06.633-.4.952-.86.608-1.341.4-1.1,1.593.221,1.091-.12.714-1.109,1.118-.877.36-1.456,1.257-2.167,1.819-.456.36-1.146.638-1.2,1.271-.083,1.211,1.5.946,2.253,1.235,1.229.475.86,2.007-.1,2.58-1.017.608-2.5.834-2.579,2.22-.063,1.064.573,1.3,1.433,1.655.694.273.6.368.6,1.154,0,1.587.559,2.034,2.2,1.778a4.3,4.3,0,0,1,1.585-.125c.63.18.418.327.436.818.046,1.279,1.611.919,2.275.371A5.6,5.6,0,0,1,22.5,97.831Z" transform="translate(-11.195 -67.356)" fill="#6d9b79"/>
          <path id="Path_1669" data-name="Path 1669" d="M22.5,97.831a2.323,2.323,0,0,1,1.212.207,12.534,12.534,0,0,1,1.975,1.331,4.1,4.1,0,0,0,2.189.9,1.758,1.758,0,0,0,1.826-1.208,1.049,1.049,0,0,1,.1-.387A.61.61,0,0,1,30.5,98.5a3.9,3.9,0,0,1,.665.365,4.463,4.463,0,0,0,2.783.226c.779-.109,1.765-.436,1.762-1.189,0-.488-.453-.851-.805-1.205s-.642-.927-.318-1.309a.941.941,0,0,1,.453-.273c.974-.3,2.169.1,2.995-.483a1.583,1.583,0,0,0,.433-1.966A2.61,2.61,0,0,0,36.7,91.4c-.653-.158-1.487-.232-1.719-.832-.215-.526.215-1.091.7-1.418a5.053,5.053,0,0,0,1.41-1.014,1.54,1.54,0,0,0,.046-1.663,2.131,2.131,0,0,0-1.482-.938,3.379,3.379,0,0,1-.894-.188.544.544,0,0,1-.33-.714c.089-.153.287-.232.381-.376a.66.66,0,0,0-.264-.884,3.6,3.6,0,0,0-1-.363c-.708-.226-1.4-.878-1.184-1.56s1.235-.941,1.536-1.62a1.455,1.455,0,0,0-.725-1.677,12.479,12.479,0,0,0-1.88-.8,1.925,1.925,0,0,1-1.275-1.426c-.052-.652.476-1.233.906-1.764s.8-1.274.421-1.841-1.164-.578-1.808-.772a2.884,2.884,0,0,1-1.785-1.538c-.172-.376-.255-.788-.461-1.151a3.688,3.688,0,0,0-3.5-1.478,1.42,1.42,0,0,0-1.186.766,1.757,1.757,0,0,0-.436.777c-.095.545.206,1.235-.332,1.65-.817.633-2.072-.218-2.026,1.192a5.7,5.7,0,0,0,.287,1.756c.224.594.671.851.287,1.513-.481.859-.794.854-1.76.854a2.236,2.236,0,0,0-1.791.466c-.9.884-.364,1.685.433,2.37.908.774.427,1.115.31,2.122-.057.483.06.633-.4.952-.86.608-1.341.4-1.1,1.593.221,1.091-.12.714-1.109,1.118-.877.36-1.456,1.257-2.167,1.819-.456.36-1.146.638-1.2,1.271-.083,1.211,1.5.946,2.253,1.235,1.229.475.86,2.007-.1,2.58-1.017.608-2.5.834-2.579,2.22-.063,1.064.573,1.3,1.433,1.655.694.273.6.368.6,1.154,0,1.587.559,2.034,2.2,1.778a4.3,4.3,0,0,1,1.585-.125c.63.18.418.327.436.818.046,1.279,1.611.919,2.275.371A5.6,5.6,0,0,1,22.5,97.831Z" transform="translate(-11.195 -67.356)" fill="#fff" opacity="0.1"/>
          <path id="Path_1670" data-name="Path 1670" d="M35.08,121.827c.748-.235,1.628-.052,2.367-.215a9.086,9.086,0,0,0-1.327-.2,3.862,3.862,0,0,0-2.866,1.091,2.378,2.378,0,0,1,.573,1.636c-1.86.48-3.694-1.909-5.465-1.173.106.856,0,2.01-.86,2.2a1.453,1.453,0,0,1-1.353-.619c-.318-.4-.516-.881-.84-1.282a2.95,2.95,0,0,0-3.786-.524c-.479.33-1.08.834-1.562.5s-.2-1.32-.771-1.59c-.378-.18-.911.106-1.227-.161a.8.8,0,0,1-.218-.442,3.057,3.057,0,0,1,.178-2.686c.533-.654,1.662-1.058,1.539-1.879-.1-.7-1.04-.911-1.777-.993s-1.674-.415-1.639-1.121,1.026-1.028,1.172-1.71c.06-.292-.043-.614.1-.881.209-.4.811-.414,1.164-.709.63-.532.14-1.527.321-2.313.126-.545.6-.99.754-1.538.315-1.091-.734-2.138-1.828-2.585a7.049,7.049,0,0,1-1.249-.545l-.037-.03a2.128,2.128,0,0,0,.9,1.364c.908.774.427,1.115.31,2.122-.057.483.06.633-.4.952-.86.608-1.341.4-1.1,1.593.221,1.091-.12.714-1.109,1.118-.877.36-1.456,1.257-2.167,1.819-.456.36-1.146.638-1.2,1.271-.083,1.211,1.5.946,2.253,1.235,1.229.475.86,2.007-.1,2.58-1.017.608-2.5.834-2.579,2.22-.063,1.064.573,1.3,1.433,1.655.694.273.6.368.6,1.154,0,1.587.559,2.034,2.2,1.778a4.3,4.3,0,0,1,1.585-.125c.63.18.418.327.436.818.046,1.279,1.611.919,2.275.371a5.509,5.509,0,0,1,2.76-1.462,2.323,2.323,0,0,1,1.212.207,12.532,12.532,0,0,1,1.975,1.331,4.1,4.1,0,0,0,2.189.9,1.758,1.758,0,0,0,1.826-1.208,1.049,1.049,0,0,1,.1-.387.61.61,0,0,1,.688-.169,3.9,3.9,0,0,1,.665.365,4.464,4.464,0,0,0,2.783.226c.779-.109,1.765-.436,1.762-1.189,0-.488-.453-.851-.805-1.205s-.642-.927-.318-1.309a.944.944,0,0,1,.447-.256Z" transform="translate(-11.238 -94.051)" opacity="0.15"/>
          <path id="Path_1671" data-name="Path 1671" d="M41.72,99.173l4.485,8.454v-3.875l.467-16.591.651,16.591v2.618l4.929-8.2-4.929,10.063V142.6a.274.274,0,0,1-.163.215.9.9,0,0,1-.791,0,.274.274,0,0,1-.163-.215v-32.8Z" transform="translate(-32.972 -81.759)" fill="#455a64"/>
        </g>
        <g id="freepik--bush--inject-11-11" data-name="freepik--bush--inject-11" transform="translate(7.189 53.421)">
          <path id="freepik--bush--inject-11-12" data-name="freepik--bush--inject-11" d="M38.531,271.392c1.828.273,3.468-.2,3.748-2.086a15.931,15.931,0,0,0,0-4.669c-.083-.562-.287-1.222-.86-1.363a1.109,1.109,0,0,0-1.181.63,2.916,2.916,0,0,0-.2,1.363c-.287-.611-.722-1.314-1.433-1.331a1.271,1.271,0,0,0-1.164,1.257,3.5,3.5,0,0,0,.593,1.745,1.871,1.871,0,0,0-1.433.213,1.147,1.147,0,0,0-.052,1.544,3.731,3.731,0,0,0,1.433.976.678.678,0,0,0-.525.022.625.625,0,0,0-.335.385.913.913,0,0,0,.373.935,2.223,2.223,0,0,0,1.032.379Z" transform="translate(-36.281 -263.249)" fill="#37474f"/>
          <g id="freepik--bush--inject-11-13" data-name="freepik--bush--inject-11" transform="translate(2.712 1.88)">
            <path id="freepik--bush--inject-11-14" data-name="freepik--bush--inject-11" d="M48.456,277.147l4.373-2.408a3.39,3.39,0,0,0,.949-.851,2.323,2.323,0,0,0,.533-1.058.522.522,0,0,0-.046-.409c-.158-.221-.53-.145-.739.033a8,8,0,0,0-.6.562,5.974,5.974,0,0,0,.086-1.445.628.628,0,0,0-.183-.48.6.6,0,0,0-.613,0,2.44,2.44,0,0,0-1.012,1.535,4.725,4.725,0,0,0-.06-1.838c-.152-.657-.943-.914-1.209-.286a3.456,3.456,0,0,0-.232,1.047,4.072,4.072,0,0,0,.1,1.383,4.361,4.361,0,0,0-1.166-1.538.726.726,0,0,0-.671-.224c-.287.1-.324.453-.287.734a3.83,3.83,0,0,0,.593,1.674,3.739,3.739,0,0,0-1.479-.545.46.46,0,0,0-.464.145.543.543,0,0,0,.1.575,3.623,3.623,0,0,0,1.175,1.042,4.02,4.02,0,0,0-1.433-.145.509.509,0,0,0-.384.153c-.126.175.02.406.181.545a4.313,4.313,0,0,0,1.02.581,1.5,1.5,0,0,0-.63.1.48.48,0,0,0-.3.494.64.64,0,0,0,.459.4A3.219,3.219,0,0,0,48.456,277.147Z" transform="translate(-45.744 -270.142)" fill="#6d9b79"/>
            <path id="freepik--bush--inject-11-15" data-name="freepik--bush--inject-11" d="M48.456,277.147l4.373-2.408a3.39,3.39,0,0,0,.949-.851,2.323,2.323,0,0,0,.533-1.058.522.522,0,0,0-.046-.409c-.158-.221-.53-.145-.739.033a8,8,0,0,0-.6.562,5.974,5.974,0,0,0,.086-1.445.628.628,0,0,0-.183-.48.6.6,0,0,0-.613,0,2.44,2.44,0,0,0-1.012,1.535,4.725,4.725,0,0,0-.06-1.838c-.152-.657-.943-.914-1.209-.286a3.456,3.456,0,0,0-.232,1.047,4.072,4.072,0,0,0,.1,1.383,4.361,4.361,0,0,0-1.166-1.538.726.726,0,0,0-.671-.224c-.287.1-.324.453-.287.734a3.83,3.83,0,0,0,.593,1.674,3.739,3.739,0,0,0-1.479-.545.46.46,0,0,0-.464.145.543.543,0,0,0,.1.575,3.623,3.623,0,0,0,1.175,1.042,4.02,4.02,0,0,0-1.433-.145.509.509,0,0,0-.384.153c-.126.175.02.406.181.545a4.313,4.313,0,0,0,1.02.581,1.5,1.5,0,0,0-.63.1.48.48,0,0,0-.3.494.64.64,0,0,0,.459.4A3.219,3.219,0,0,0,48.456,277.147Z" transform="translate(-45.744 -270.142)" opacity="0.25"/>
          </g>
        </g>
      </g>
    </g>
    <g id="freepik--Shadow--inject-11" transform="translate(17.258 101.586)">
      <path id="freepik--shadow--inject-11-2" data-name="freepik--shadow--inject-11" d="M145.162,342.527l3.184,2.269L135.762,355.48l-19.519,1.53L96.59,353.866l-17.516,3.7L66.989,347.105l-22.8-2.31L32.35,332.322l13.842-7.1s42.7-3,42.758-2.861,26.208,11.71,26.208,11.71l23.164,3.872Z" transform="translate(-32.35 -322.353)" opacity="0.15"/>
    </g>
    <g id="freepik--Rocks--inject-11" transform="translate(26.5 64.051)">
      <g id="freepik--Boulder--inject-11" transform="translate(0)">
        <g id="freepik--Grass--inject-11" transform="translate(2.599 20.616)">
          <path id="Path_1672" data-name="Path 1672" d="M92.617,268.81c.86,4.238-.287,9.629-.287,9.629l.957-.526C93.975,271.965,92.617,268.81,92.617,268.81Z" transform="translate(-86.982 -266.492)" fill="#6d9b79"/>
          <path id="Path_1673" data-name="Path 1673" d="M92.617,268.81c.86,4.238-.287,9.629-.287,9.629l.957-.526C93.975,271.965,92.617,268.81,92.617,268.81Z" transform="translate(-86.982 -266.492)" opacity="0.15"/>
          <path id="Path_1674" data-name="Path 1674" d="M93.569,278.156v.046l.473-.259c.676-5.948-.682-9.1-.682-9.1C94.117,270.885,94.054,275.838,93.569,278.156Z" transform="translate(-87.717 -266.514)" opacity="0.15"/>
          <path id="Path_1675" data-name="Path 1675" d="M79.036,272.257a25.878,25.878,0,0,0-1.917-7.156,13.555,13.555,0,0,0-3.439-4.791,10.233,10.233,0,0,1,4.264,4.576,22.083,22.083,0,0,1,2.35,6.681Z" transform="translate(-73.677 -260.31)" fill="#6d9b79"/>
          <path id="Path_1676" data-name="Path 1676" d="M79.036,272.257a25.878,25.878,0,0,0-1.917-7.156,13.555,13.555,0,0,0-3.439-4.791,10.233,10.233,0,0,1,4.264,4.576,22.083,22.083,0,0,1,2.35,6.681Z" transform="translate(-73.677 -260.31)" opacity="0.2"/>
          <path id="Path_1677" data-name="Path 1677" d="M79.688,271.894h0l.6-.327a22.082,22.082,0,0,0-2.35-6.681,10.233,10.233,0,0,0-4.264-4.576C75.957,261.709,79,266.3,79.688,271.894Z" transform="translate(-73.67 -260.31)" opacity="0.1"/>
          <path id="Path_1678" data-name="Path 1678" d="M80.434,288.672s-.679-3.161-4.794-5.792a11.366,11.366,0,0,1,5.752,5.266Z" transform="translate(-75.075 -276.725)" fill="#6d9b79"/>
          <path id="Path_1679" data-name="Path 1679" d="M80.892,288.389a.159.159,0,0,1,0,.033l.45-.245a11.366,11.366,0,0,0-5.752-5.266A11.347,11.347,0,0,1,80.892,288.389Z" transform="translate(-75.04 -276.747)" opacity="0.1"/>
        </g>
        <g id="freepik--grass--inject-11-2" data-name="freepik--grass--inject-11" transform="translate(94.167 39.444)">
          <path id="Path_1680" data-name="Path 1680" d="M394.241,336.23a22.6,22.6,0,0,0,.224,7.761l-.774-.423C393.135,338.774,394.241,336.23,394.241,336.23Z" transform="translate(-393.436 -334.354)" fill="#6d9b79"/>
          <path id="Path_1681" data-name="Path 1681" d="M394.241,336.23a22.6,22.6,0,0,0,.224,7.761l-.774-.423C393.135,338.774,394.241,336.23,394.241,336.23Z" transform="translate(-393.436 -334.354)" opacity="0.15"/>
          <path id="Path_1682" data-name="Path 1682" d="M394.013,343.738v.038l-.381-.207c-.544-4.794.55-7.338.55-7.338A19.272,19.272,0,0,0,394.013,343.738Z" transform="translate(-393.397 -334.354)" opacity="0.15"/>
          <path id="Path_1683" data-name="Path 1683" d="M394.207,339.009a21.009,21.009,0,0,1,1.545-5.768,10.819,10.819,0,0,1,2.771-3.862,8.267,8.267,0,0,0-3.439,3.687,17.828,17.828,0,0,0-1.894,5.386Z" transform="translate(-393.19 -329.372)" fill="#6d9b79"/>
          <path id="Path_1684" data-name="Path 1684" d="M394.207,339.009a21.009,21.009,0,0,1,1.545-5.768,10.819,10.819,0,0,1,2.771-3.862,8.267,8.267,0,0,0-3.439,3.687,17.828,17.828,0,0,0-1.894,5.386Z" transform="translate(-393.19 -329.372)" opacity="0.2"/>
          <path id="Path_1685" data-name="Path 1685" d="M393.681,338.7h0l-.481-.273a17.827,17.827,0,0,1,1.894-5.386,8.249,8.249,0,0,1,3.439-3.687C396.691,330.484,394.235,334.182,393.681,338.7Z" transform="translate(-393.197 -329.35)" opacity="0.1"/>
          <path id="Path_1686" data-name="Path 1686" d="M394.814,352.239s.539-2.547,3.86-4.669a9.129,9.129,0,0,0-4.634,4.246Z" transform="translate(-393.796 -342.601)" fill="#6d9b79"/>
          <path id="Path_1687" data-name="Path 1687" d="M394.441,351.985a.078.078,0,0,1,0,.027l-.361-.2a9.173,9.173,0,0,1,4.634-4.246A9.237,9.237,0,0,0,394.441,351.985Z" transform="translate(-393.825 -342.601)" opacity="0.1"/>
        </g>
        <path id="Path_1688" data-name="Path 1688" d="M169.13,328.873l.407,4.636-12.137,9.46-17.407.9-19.654-3.292L108,344.3s-13.69-9.613-14.1-9.866-19.221-4.2-19.221-4.2L64.6,323.151l5.56-15.571Z" transform="translate(-64.6 -274.073)" fill="#455a64"/>
        <path id="Path_1689" data-name="Path 1689" d="M228.387,404.955l-1.639-7.69-8.443-1.164-2.255,12.585Z" transform="translate(-172.648 -338.453)" fill="#263238"/>
        <path id="Path_1690" data-name="Path 1690" d="M180.957,362.676l2.255-12.585L172.294,332.84l-5.434,19.967Z" transform="translate(-137.554 -292.445)" fill="#37474f"/>
        <path id="Path_1691" data-name="Path 1691" d="M342.947,384.5l-17.407.9-.86-20.712,13.231,2.888Z" transform="translate(-250.147 -315.609)" fill="#37474f"/>
        <path id="Path_1692" data-name="Path 1692" d="M277.391,425.032l-20.2-5.852.547,2.561Z" transform="translate(-201.998 -355.239)" fill="#37474f"/>
        <path id="Path_1693" data-name="Path 1693" d="M400.15,385.66l-11.73,14.1,12.137-9.457Z" transform="translate(-295.62 -330.86)" fill="#37474f"/>
        <path id="Path_1694" data-name="Path 1694" d="M99.79,337.558l5.666-19.918,6.792,1.481,2.854,21.707Z" transform="translate(-89.705 -281.39)" fill="#37474f"/>
        <path id="Path_1695" data-name="Path 1695" d="M74.685,330.242l5.666-19.918L70.16,307.58,64.6,323.154Z" transform="translate(-64.6 -274.073)" fill="#263238"/>
        <path id="Path_1696" data-name="Path 1696" d="M181.448,315.609a14.7,14.7,0,0,0-4.683-4.884s-10.982-3.043-11.311-3.21-25.271-4.568-25.271-4.568L111.363,289.52H89.852c-4.367,1.012-8.382,3.212-9.044,4l-.158,1.091,2.459,3.8,7.686,2.839,8.394,4.257,9.417,4.363,12.624,11.593h8.884L151,325.239l16.925-1.794c5.634-2.4,11.449-4.827,13.349-6.747Z" transform="translate(-76.05 -260.938)" fill="#6d9b79"/>
        <path id="Path_1697" data-name="Path 1697" d="M181.448,315.609a14.7,14.7,0,0,0-4.683-4.884s-10.982-3.043-11.311-3.21-25.271-4.568-25.271-4.568L111.363,289.52H89.852c-4.367,1.012-8.382,3.212-9.044,4l-.158,1.091,2.459,3.8,7.686,2.839,8.394,4.257,9.417,4.363,12.624,11.593h8.884L151,325.239l16.925-1.794c5.634-2.4,11.449-4.827,13.349-6.747Z" transform="translate(-76.05 -260.938)" opacity="0.2"/>
        <path id="Path_1698" data-name="Path 1698" d="M115.58,329.561l.3-1.031,8.391,4.257.181,1.238Z" transform="translate(-100.97 -289.31)" opacity="0.1"/>
        <path id="Path_1699" data-name="Path 1699" d="M90.955,310.82l-7.689-2.842-2.459-3.8-.158,1.08,2.456,3.8,7.554,2.79Z" transform="translate(-76.05 -271.6)" opacity="0.2"/>
        <path id="Path_1700" data-name="Path 1700" d="M83.106,309.061l.16-1.083-2.459-3.8-.158,1.08Z" transform="translate(-76.05 -271.6)" opacity="0.1"/>
        <path id="Path_1701" data-name="Path 1701" d="M178.358,360.15l-.158,1.083,12.624,11.593.16-1.08Z" transform="translate(-145.645 -312.307)" opacity="0.1"/>
        <path id="Path_1702" data-name="Path 1702" d="M231.145,403.75l.16-1.08h-8.9l-.16,1.08Z" transform="translate(-177.071 -343.232)" opacity="0.2"/>
        <path id="Path_1703" data-name="Path 1703" d="M326.18,412.807l.158-1.083,16.925-1.794-.158,1.083Z" transform="translate(-251.217 -348.512)" opacity="0.2"/>
        <path id="Path_1704" data-name="Path 1704" d="M90.244,289.52c-4.367,1.012-8.382,3.212-9.044,4l2.459,3.8,7.689,2.842,8.391,4.257,9.417,4.363,12.624,11.593h8.884l20.886,3.777,16.925-1.794c5.637-2.4,11.449-4.824,13.352-6.747a14.7,14.7,0,0,0-4.683-4.884s-10.982-3.043-11.311-3.21-25.271-4.568-25.271-4.568L111.755,289.52Z" transform="translate(-76.443 -260.938)" fill="#6d9b79"/>
        <path id="Path_1705" data-name="Path 1705" d="M268.14,295.383l-6.448,4.385-11.248.033L236.5,302.41,220.676,298.9,210.95,291.1l13.36-6.872,23.468-18.552,3.089,7.448,3.883.139.868,5.972,5.136,5.217,1.055,5.721Z" transform="translate(-169.009 -243.599)" fill="#455a64"/>
        <path id="Path_1706" data-name="Path 1706" d="M326.783,265.68l3.089,7.448-8.182-3.422Z" transform="translate(-248.013 -243.599)" fill="#263238"/>
        <path id="Path_1707" data-name="Path 1707" d="M360.008,349.842l.117-9.591-1.055-5.721L348.76,349.875Z" transform="translate(-267.326 -293.674)" fill="#37474f"/>
        <path id="Path_1708" data-name="Path 1708" d="M346.9,315.4v5.68l-4.038,5.863-1.138,9.018L338.9,324.3l6.116-4.292Z" transform="translate(-260.291 -279.76)" fill="#37474f"/>
        <path id="Path_1709" data-name="Path 1709" d="M311.219,348.05l-5.044,9.185-6.075,5.083,13.945-2.61Z" transform="translate(-232.611 -303.507)" fill="#263238"/>
        <path id="Path_1710" data-name="Path 1710" d="M266.787,370.835l-8.271-4.085-13.627,5.656,15.822,3.512Z" transform="translate(-193.223 -317.107)" fill="#37474f"/>
        <path id="Path_1711" data-name="Path 1711" d="M317.619,323.591l2.826-6.152-1.413-3.019L309.07,319l3.5,13.771Z" transform="translate(-239.01 -279.048)" fill="#37474f"/>
        <path id="Path_1712" data-name="Path 1712" d="M220.676,349.838l2.568-14.118-12.294,6.324Z" transform="translate(-169.009 -294.539)" fill="#263238"/>
        <path id="Path_1713" data-name="Path 1713" d="M258.517,342.895,256.7,333.95l-9.245.483-2.568,14.118Z" transform="translate(-193.223 -293.252)" fill="#37474f"/>
        <path id="Path_1714" data-name="Path 1714" d="M258.517,366.75l-6.815,7.167-6.812-1.511Z" transform="translate(-193.223 -317.107)" fill="#263238"/>
        <path id="Path_1715" data-name="Path 1715" d="M123.131,297.188l9.322-1.23.169-.75-12.214-5.689H98.9a28.054,28.054,0,0,0-3.178.949l-2.39,3.979,19.536,6.447Z" transform="translate(-85.097 -260.938)" opacity="0.2"/>
        <path id="Path_1716" data-name="Path 1716" d="M109.013,212.885l-4.373,21.642,14.538,4.5,11.469-2.133,9.833,6.035,10.873-5.061,13.28-3.845L165.7,226.4l-4.316-9.386-3.843-.829-1.914-7.382Z" transform="translate(-93.165 -202.231)" fill="#455a64"/>
        <path id="Path_1717" data-name="Path 1717" d="M199.444,263.965l-8.251-10.622-.636-7.813-3.327,11.028,2.338,7.049Z" transform="translate(-152.087 -228.944)" fill="#37474f"/>
        <path id="Path_1718" data-name="Path 1718" d="M134.451,260.481l-2.118,7.128-8.936-2.738-.318-10.12,3.892-6.651,10.46,5.072Z" transform="translate(-106.321 -230.813)" fill="#37474f"/>
        <path id="Path_1719" data-name="Path 1719" d="M104.64,245.422l5.6,1.762-.318-10.12,3.892-6.278-4.8-7.006Z" transform="translate(-93.165 -213.126)" fill="#263238"/>
        <path id="Path_1720" data-name="Path 1720" d="M166.839,263.607l-2.339-7.049,3.327-11.028-7.359,5.773-2.98,7.308-2.118,7.128Z" transform="translate(-129.357 -228.944)" fill="#263238"/>
        <path id="Path_1721" data-name="Path 1721" d="M269.494,221.5l3.6-2.533,1.464-2.784-1.914-7.382-3.983,4.821Z" transform="translate(-210.181 -202.231)" fill="#37474f"/>
        <path id="Path_1722" data-name="Path 1722" d="M251.96,244.617l5.62-10.259-.834-7.878-4.256,2.512Z" transform="translate(-198.267 -215.089)" fill="#263238"/>
        <path id="Path_1723" data-name="Path 1723" d="M271.57,243.4l2.115,3.684,8.961-3.455-2.169-4.718Z" transform="translate(-212.257 -224.13)" fill="#37474f"/>
        <path id="Path_1724" data-name="Path 1724" d="M282.816,263.12l-3.866-3.455,8.961-3.455Z" transform="translate(-217.522 -236.712)" fill="#263238"/>
        <g id="freepik--grass--inject-11-3" data-name="freepik--grass--inject-11" transform="translate(39.581 25.356)">
          <path id="Path_1725" data-name="Path 1725" d="M203.037,286.3a22.806,22.806,0,0,0,1.146,7.688l-.817-.338C202.266,288.945,203.037,286.3,203.037,286.3Z" transform="translate(-202.757 -283.952)" fill="#6d9b79"/>
          <path id="Path_1726" data-name="Path 1726" d="M203.037,286.3a22.806,22.806,0,0,0,1.146,7.688l-.817-.338C202.266,288.945,203.037,286.3,203.037,286.3Z" transform="translate(-202.757 -283.952)" opacity="0.15"/>
          <path id="Path_1727" data-name="Path 1727" d="M203.716,293.778a.193.193,0,0,1,0,.038l-.4-.166c-1.118-4.7-.332-7.349-.332-7.349A19.206,19.206,0,0,0,203.716,293.778Z" transform="translate(-202.715 -283.952)" opacity="0.15"/>
          <path id="Path_1728" data-name="Path 1728" d="M205.06,287.725a20.864,20.864,0,0,1,.86-5.9,10.624,10.624,0,0,1,2.293-4.137,8.112,8.112,0,0,0-2.969,4.036A17.644,17.644,0,0,0,204,287.281Z" transform="translate(-203.632 -277.69)" fill="#6d9b79"/>
          <path id="Path_1729" data-name="Path 1729" d="M205.06,287.725a20.864,20.864,0,0,1,.86-5.9,10.624,10.624,0,0,1,2.293-4.137,8.112,8.112,0,0,0-2.969,4.036A17.644,17.644,0,0,0,204,287.281Z" transform="translate(-203.632 -277.69)" fill="#fff" opacity="0.5"/>
          <path id="Path_1730" data-name="Path 1730" d="M204.47,287.491h0l-.51-.21a17.642,17.642,0,0,1,1.238-5.555,8.112,8.112,0,0,1,2.969-4.036C206.473,279.01,204.479,282.956,204.47,287.491Z" transform="translate(-203.603 -277.69)" opacity="0.1"/>
          <path id="Path_1731" data-name="Path 1731" d="M205.667,301s.232-2.591,3.278-5.059a9.019,9.019,0,0,0-4.1,4.721Z" transform="translate(-204.238 -290.963)" fill="#6d9b79"/>
          <path id="Path_1732" data-name="Path 1732" d="M205.254,300.789v.03l-.384-.158a9.019,9.019,0,0,1,4.1-4.721A9.081,9.081,0,0,0,205.254,300.789Z" transform="translate(-204.252 -290.963)" opacity="0.1"/>
        </g>
        <path id="Path_1733" data-name="Path 1733" d="M245.054,266.379a27.683,27.683,0,0,0-9.629-4.311l2.866-1.811-.315-1.025s-2.9-1.661-9.638-3.022l-5.1,6.91-11.6,3.122-6.336,5.492-9.876-.357,4.462,12.839h0l12.283-3.5h10.03l7.076.8L241.755,274l3.614-6.58Z" transform="translate(-157.937 -236.712)" fill="#6d9b79"/>
        <path id="Path_1734" data-name="Path 1734" d="M245.054,266.379a27.683,27.683,0,0,0-9.629-4.311l2.866-1.811-.315-1.025s-2.9-1.661-9.638-3.022l-5.1,6.91-11.6,3.122-6.336,5.492-9.876-.357.553,1.587,3.909,11.252h0l12.283-3.5h10.03l7.076.8L241.755,274l3.614-6.58Z" transform="translate(-157.937 -236.712)" opacity="0.2"/>
        <path id="Path_1735" data-name="Path 1735" d="M334.019,267.29l.315,1.025-2.851,1.811-1.413-.33Z" transform="translate(-253.992 -244.77)" opacity="0.2"/>
        <path id="Path_1736" data-name="Path 1736" d="M235.392,261.738l3.949-2.506s-2.9-1.661-9.638-3.022l-5.1,6.91-11.589,3.122-6.336,5.492-9.322,1.23,3.909,11.252,11.968-4.524h10.03l7.084.788,12.472-7.518,3.614-6.583A28.434,28.434,0,0,0,235.392,261.738Z" transform="translate(-159.314 -236.712)" fill="#6d9b79"/>
        <path id="Path_1737" data-name="Path 1737" d="M324.925,317.64l.315,1.023-12.475,7.518-.315-1.023Z" transform="translate(-241.421 -281.39)" opacity="0.2"/>
        <path id="Path_1738" data-name="Path 1738" d="M223.233,343.345l-.315-1.025-11.968,4.524Z" transform="translate(-169.009 -299.339)" opacity="0.2"/>
        <path id="Path_1739" data-name="Path 1739" d="M165.992,190.857a79.5,79.5,0,0,0-7.852-3.782l-12.481-2.364L125.152,187.3s-5.732,3.485-8.572,7.977v1.107L120.925,203l11.861,4.071,13.048-4.391,9.9-.436,7.677-4.006v-1.107L162,195.3l3.992-3.332Z" transform="translate(-101.684 -184.71)" fill="#6d9b79"/>
        <path id="Path_1740" data-name="Path 1740" d="M165.992,190.857a79.5,79.5,0,0,0-7.852-3.782l-12.481-2.364L125.152,187.3s-5.732,3.485-8.572,7.977v1.107L120.925,203l11.861,4.071,13.048-4.391,9.9-.436,7.677-4.006v-1.107L162,195.3l3.992-3.332Z" transform="translate(-101.684 -184.71)" opacity="0.1"/>
        <path id="Path_1741" data-name="Path 1741" d="M116.61,195.275l4.345,6.616,11.862,4.071,13.048-4.391,9.893-.442,7.677-4-1.932-2.506,4.511-3.766a79.5,79.5,0,0,0-7.852-3.782l-12.48-2.364L125.173,187.3S119.461,190.789,116.61,195.275Z" transform="translate(-101.705 -184.71)" fill="#6d9b79"/>
        <path id="Path_1742" data-name="Path 1742" d="M116.61,195.275l4.345,6.616,11.862,4.071,13.048-4.391,9.893-.442,7.677-4-1.932-2.506,4.511-3.766a79.5,79.5,0,0,0-7.852-3.782l-12.48-2.364L125.173,187.3S119.461,190.789,116.61,195.275Z" transform="translate(-101.705 -184.71)" fill="#fff" opacity="0.2"/>
        <path id="Path_1743" data-name="Path 1743" d="M277.8,207.25l-4.511,3.766.519.674,3.992-3.332Z" transform="translate(-213.484 -201.103)" opacity="0.2"/>
        <path id="Path_1744" data-name="Path 1744" d="M228.583,246.027V244.92l-9.893.442v1.107Z" transform="translate(-174.531 -228.501)" opacity="0.2"/>
        <path id="Path_1745" data-name="Path 1745" d="M186.208,246.54l-13.048,4.391v1.107l13.048-4.391Z" transform="translate(-142.049 -229.679)" opacity="0.1"/>
        <path id="Path_1746" data-name="Path 1746" d="M120.955,231.173v-1.107l-4.345-6.616v1.107Z" transform="translate(-101.705 -212.885)" opacity="0.3"/>
        <path id="Path_1747" data-name="Path 1747" d="M281.529,237.089l-1.977-1.4-2.917.049-1.464,2.784-3.6,2.533,10.474-2.075Z" transform="translate(-212.257 -221.788)" fill="#6d9b79"/>
        <path id="Path_1748" data-name="Path 1748" d="M281.529,240.82l.516,1.893-10.474,2.075,6.566-2.615Z" transform="translate(-212.257 -225.519)" opacity="0.2"/>
        <path id="Path_1749" data-name="Path 1749" d="M276.634,235.739l-1.464,2.784-3.6,2.533,8.176-2.683,1.783-1.284-1.977-1.4Z" transform="translate(-212.257 -221.788)" fill="#6d9b79"/>
        <path id="Path_1750" data-name="Path 1750" d="M276.634,235.739l-1.464,2.784-3.6,2.533,8.176-2.683,1.783-1.284-1.977-1.4Z" transform="translate(-212.257 -221.788)" fill="#fff" opacity="0.1"/>
      </g>
    </g>
    <g id="freepik--Sun--inject-11" transform="translate(112.775 20.819)">
      <path id="freepik--sun--inject-11-2" data-name="freepik--sun--inject-11" d="M4.03-.093A4.491,4.491,0,0,1,8.363,4.24,3.984,3.984,0,0,1,4.24,8.363,4.491,4.491,0,0,1-.093,4.03,3.984,3.984,0,0,1,4.03-.093Z" transform="translate(0 6.141) rotate(-45)" fill="#f0997a"/>
    </g>
    <g id="freepik--Clouds--inject-11" transform="translate(23.279 18.809)">
      <g id="freepik--clouds--inject-11-2" data-name="freepik--clouds--inject-11">
        <path id="Path_1751" data-name="Path 1751" d="M61.172,25.372l-1.324.731v-.532c0-.654-.481-.919-1.078-.592a2.025,2.025,0,0,0-.642.586c-.1-.818-.774-1.126-1.6-.674a3.353,3.353,0,0,0-1.608,2.651v.545a1.373,1.373,0,0,0,.138.635l-1.106.605a1.241,1.241,0,0,0-.6.982c0,.363.267.51.6.33l7.216-3.962a1.249,1.249,0,0,0,.6-.982C61.768,25.339,61.5,25.192,61.172,25.372Z" transform="translate(-53.36 -23.081)" fill="#ebebeb"/>
        <path id="Path_1752" data-name="Path 1752" d="M92.071,21.288l-.734.273V20.02c0-1.219-1.023-1.514-2.132-.9h0A4.188,4.188,0,0,0,87.2,22.428v.224a1.117,1.117,0,0,0-.931.136h0a3.008,3.008,0,0,0-1.433,2.381v.1l-1.023.562A1.979,1.979,0,0,0,82.86,27.4c0,.578.424.818.951.524l8.259-4.546a1.987,1.987,0,0,0,.951-1.568C93.016,21.234,92.589,21,92.071,21.288Z" transform="translate(-74.406 -18.809)" fill="#ebebeb"/>
      </g>
    </g>
    <g id="freepik--Birds--inject-11" transform="translate(88.065 31.8)">
      <g id="freepik--birds--inject-11-2" data-name="freepik--birds--inject-11">
        <path id="Path_1753" data-name="Path 1753" d="M288.406,68.617a7.8,7.8,0,0,0-8.976-1.309c2.181-.706,6.8-.273,8.976,2.983,2.175-3.272,6.795-3.69,8.976-2.983a7.8,7.8,0,0,0-8.976,1.309Z" transform="translate(-279.43 -66.445)" fill="#ebebeb"/>
        <path id="Path_1754" data-name="Path 1754" d="M325.218,88.912a5.247,5.247,0,0,0-6.018-.878c1.464-.475,4.565-.185,6.018,2a5.754,5.754,0,0,1,6.018-2,5.244,5.244,0,0,0-6.018.878Z" transform="translate(-307.803 -81.727)" fill="#ebebeb"/>
      </g>
    </g>
    <g id="freepik--Character--inject-11" transform="translate(63.672 26.537)">
      <g id="freepik--character--inject-11-2" data-name="freepik--character--inject-11">
        <ellipse id="freepik--shadow--inject-11-3" data-name="freepik--shadow--inject-11" cx="11.071" cy="6.081" rx="11.071" ry="6.081" transform="translate(0 39.439)" opacity="0.1"/>
        <g id="freepik--Bottom--inject-11" transform="translate(3.163 19.441)">
          <path id="Path_1755" data-name="Path 1755" d="M239,223.62a1.214,1.214,0,0,1,.017.668,2.047,2.047,0,0,1-1.353.742,10.939,10.939,0,0,1-2.556-.03,25.761,25.761,0,0,0-2.622.221,2.214,2.214,0,0,1-1.719-.338.49.49,0,0,1-.12-.4,1.87,1.87,0,0,1,.086-.545Z" transform="translate(-223.392 -194.937)" fill="#263238"/>
          <path id="Path_1756" data-name="Path 1756" d="M231.12,217.84c-.017.065-.032.128-.043.191a3.119,3.119,0,0,0-.075.99.939.939,0,0,0,.616.442,3.331,3.331,0,0,0,1.719.033,12.724,12.724,0,0,1,2.026-.12,12.9,12.9,0,0,0,1.774.085,4.4,4.4,0,0,0,1.307-.254c.35-.142.708-.325.794-.668a1.081,1.081,0,0,0-.573-1.244,3.558,3.558,0,0,0-1.433-.221c-.5-.033-.86-.033-1.3-.065a6.606,6.606,0,0,1-1.132-.15c-.332-.1-.673-.5-.814-.518,0,0-2.2-.016-2.416,0s-.315.739-.347.894-.029.254-.063.371S231.14,217.761,231.12,217.84Z" transform="translate(-223.642 -189.637)" fill="#37474f"/>
          <path id="Path_1757" data-name="Path 1757" d="M252.689,221.061a2.219,2.219,0,0,0-.86-2.3H251.7a2.625,2.625,0,0,1,1.393,0,1.153,1.153,0,0,1,.966,1.481C254.079,220.232,253.889,220.867,252.689,221.061Z" transform="translate(-238.416 -191.333)" fill="#fafafa"/>
          <path id="Path_1758" data-name="Path 1758" d="M244.88,218.365a1.808,1.808,0,0,1,.438.9c.043.235.49.273.447.044a2.392,2.392,0,0,0-.387-.873.794.794,0,0,0-.5-.071Z" transform="translate(-233.551 -191.105)" fill="#fafafa"/>
          <path id="Path_1759" data-name="Path 1759" d="M248.07,218.691a1.508,1.508,0,0,1,.458.854c.046.224.416.221.39,0a1.263,1.263,0,0,0-.39-.818A.521.521,0,0,0,248.07,218.691Z" transform="translate(-235.827 -191.325)" fill="#fafafa"/>
          <path id="Path_1760" data-name="Path 1760" d="M210.962,200a2.421,2.421,0,0,1-.175,1.211,2.918,2.918,0,0,1-1.181,1.11,8.761,8.761,0,0,0-.98.927,5.771,5.771,0,0,1-.917.892,1.729,1.729,0,0,1-1.639.1c-.384-.185-.513-.325-.444-.9s2.023-.638,2.023-.638Z" transform="translate(-205.534 -177.758)" fill="#263238"/>
          <path id="Path_1761" data-name="Path 1761" d="M206.016,199.663c-.172.046-.235.327-.3.892-.052.425-.3,1.039.332,1.364a1.716,1.716,0,0,0,1.745-.21c.484-.472.817-.894,1.5-1.464.59-.5,1.175-.635,1.5-1.683.212-.676.109-.968-.384-1.2-.679-.319-1.848.485-2.41.586C207.52,198.027,206.191,199.625,206.016,199.663Z" transform="translate(-205.542 -175.785)" fill="#37474f"/>
          <path id="Path_1762" data-name="Path 1762" d="M213.224,199.635a.6.6,0,0,0,.095-.025,1.8,1.8,0,0,1,1.447,1.009c.08.194-.218.316-.378.161a1.944,1.944,0,0,0-1.447-1A.875.875,0,0,1,213.224,199.635Z" transform="translate(-210.764 -177.474)" fill="#fafafa"/>
          <path id="Path_1763" data-name="Path 1763" d="M211.668,200.76a1.78,1.78,0,0,1,1.341.993c.077.194-.221.319-.381.161a1.832,1.832,0,0,0-1.2-.944Z" transform="translate(-209.687 -178.311)" fill="#fafafa"/>
          <path id="Path_1764" data-name="Path 1764" d="M217.492,199s.043-1.274-1.84-1.584l-.112.049a1.633,1.633,0,0,1,.992-.581,1.372,1.372,0,0,1,1.433.483C218.251,197.768,217.838,198.771,217.492,199Z" transform="translate(-212.619 -175.457)" fill="#fafafa"/>
          <path id="Path_1765" data-name="Path 1765" d="M205.349,135.322a6,6,0,0,1,.51-3s-.287-8.508-.089-10.134a29.474,29.474,0,0,1,.628-3.545s9.305-1.137,9.457,1.944c.252,5.618.45,8.424.484,12.765,0,1.364.023,3.711-.066,6.346-.074,2.182-.12,5.694-.12,5.694a2.946,2.946,0,0,1-3.152.436s-1.106-6.758-1.209-8.317a14.56,14.56,0,0,1,.1-2.981l-1.247-5.817-2.361,14.025a2.147,2.147,0,0,1-2.837.155C205.432,142.889,205.366,137.233,205.349,135.322Z" transform="translate(-205.348 -118.438)" fill="#455a64"/>
          <path id="Path_1766" data-name="Path 1766" d="M212,137.27s.186,1.233,2.032,1.756l.86,3.384s-.138,3.818-.138,3.777l.636-3.782-.662-3.731A5.528,5.528,0,0,1,212,137.27Z" transform="translate(-210.094 -132.135)" fill="#37474f"/>
        </g>
        <g id="freepik--Top--inject-11" transform="translate(1.831)">
          <path id="Path_1767" data-name="Path 1767" d="M220.348,74.062l-.143,2.621-3.015-.155.095-3.087Z" transform="translate(-212.464 -66.27)" fill="#9e6767"/>
          <path id="Path_1768" data-name="Path 1768" d="M206.629,127s-.163.957,0,1.175,1.3,1.064,4.511,1.216,5.445-.545,5.637-.976a2.638,2.638,0,0,0-.017-1.282Z" transform="translate(-204.878 -105.224)" fill="#6d9b79"/>
          <path id="Path_1769" data-name="Path 1769" d="M206.629,127s-.163.957,0,1.175,1.3,1.064,4.511,1.216,5.445-.545,5.637-.976a2.638,2.638,0,0,0-.017-1.282Z" transform="translate(-204.878 -105.224)" opacity="0.5"/>
          <path id="Path_1770" data-name="Path 1770" d="M204.174,78.393A3.171,3.171,0,0,0,201,80.237a6.438,6.438,0,0,0-.235,2.891c.175,1.279.347,2.143.725,4.071.232,1.175.573,1.636,1.539,1.364a12.9,12.9,0,0,0,2.4-.971Z" transform="translate(-200.701 -69.865)" fill="#6d9b79"/>
          <path id="Path_1771" data-name="Path 1771" d="M204.174,78.393A3.171,3.171,0,0,0,201,80.237a6.438,6.438,0,0,0-.235,2.891c.175,1.279.347,2.143.725,4.071.232,1.175.573,1.636,1.539,1.364a12.9,12.9,0,0,0,2.4-.971Z" transform="translate(-200.701 -69.865)" opacity="0.15"/>
          <path id="Path_1772" data-name="Path 1772" d="M204.1,80a2.909,2.909,0,0,1,2.774-1.636c.375.041.822.1.822.1.12.475,1.639.769,2.943.475.393.1,2.032.475,2.359.578.937.3,1.37,1.058,1.565,4.29s1.032,7.99,0,8.5c-1.648.818-4.4.777-6.216.619a6.2,6.2,0,0,1-3.574-1.194c-.691-.649-.287-1.805-.189-3.431a10.654,10.654,0,0,0-.35-3.706C203.665,82.022,203.714,80.874,204.1,80Z" transform="translate(-202.917 -69.845)" fill="#6d9b79"/>
          <path id="Path_1773" data-name="Path 1773" d="M232.907,82.49c1.507.374,2.083.687,2.616,2.018a62.732,62.732,0,0,1,2.817,6.073,1.373,1.373,0,0,1-.461,1.707,10.371,10.371,0,0,1-2.725.873c-.017-.72-.066-1.426-.129-2.127l-2.364-3.883a4.641,4.641,0,0,1-.691-2.784A2.349,2.349,0,0,1,232.907,82.49Z" transform="translate(-223 -72.852)" fill="#6d9b79"/>
          <path id="Path_1774" data-name="Path 1774" d="M232.907,82.49c1.507.374,2.083.687,2.616,2.018a62.732,62.732,0,0,1,2.817,6.073,1.373,1.373,0,0,1-.461,1.707,10.371,10.371,0,0,1-2.725.873c-.017-.72-.066-1.426-.129-2.127l-2.364-3.883a4.641,4.641,0,0,1-.691-2.784A2.349,2.349,0,0,1,232.907,82.49Z" transform="translate(-223 -72.852)" opacity="0.15"/>
          <path id="Path_1775" data-name="Path 1775" d="M242.66,113.82c.023.243.04.488.057.731a1.788,1.788,0,0,0,1.215.273A2.116,2.116,0,0,1,242.66,113.82Z" transform="translate(-230.635 -95.638)" opacity="0.15"/>
          <path id="Path_1776" data-name="Path 1776" d="M218.6,78.979a4.467,4.467,0,0,1-2.376.065c-.567-.155-.679-.325-.679-.325l-.229-.03a.989.989,0,0,0-.493.788c.02.485.691,1.107,1.843.982A3.122,3.122,0,0,0,218.6,78.979Z" transform="translate(-210.774 -70.088)" fill="#6d9b79"/>
          <path id="Path_1777" data-name="Path 1777" d="M218.6,78.979a4.467,4.467,0,0,1-2.376.065c-.567-.155-.679-.325-.679-.325l-.229-.03a.989.989,0,0,0-.493.788c.02.485.691,1.107,1.843.982A3.122,3.122,0,0,0,218.6,78.979Z" transform="translate(-210.774 -70.088)" opacity="0.5"/>
          <path id="Path_1778" data-name="Path 1778" d="M214.42,78.853c-.112-.316-.9-.518-1.542-.611a4.068,4.068,0,0,1-2.293.911c-1.166.046-1.462-.575-.989-1.2l.229.03V77.71a1.376,1.376,0,0,0-.9.09,3.584,3.584,0,0,0-2.006,2.6c-.307,1.584-.169,3.818,1.433,4.816.994.611,3.7-.545,4.253-1.789s-.312-3.466.762-4.573A3.661,3.661,0,0,1,214.42,78.853Z" transform="translate(-205.046 -69.348)" fill="#6d9b79"/>
          <path id="Path_1779" data-name="Path 1779" d="M214.42,78.853c-.112-.316-.9-.518-1.542-.611a4.068,4.068,0,0,1-2.293.911c-1.166.046-1.462-.575-.989-1.2l.229.03V77.71a1.376,1.376,0,0,0-.9.09,3.584,3.584,0,0,0-2.006,2.6c-.307,1.584-.169,3.818,1.433,4.816.994.611,3.7-.545,4.253-1.789s-.312-3.466.762-4.573A3.661,3.661,0,0,1,214.42,78.853Z" transform="translate(-205.046 -69.348)" opacity="0.3"/>
          <path id="Path_1780" data-name="Path 1780" d="M213.641,80.327a1.733,1.733,0,0,0-1.791,1.483c-.324,1.164.095,2.642-.992,3.641-1.212,1.11-1.874.984-2.238.922a3.383,3.383,0,0,1-1.533-2.182,7.4,7.4,0,0,1,.166-2.8,3.588,3.588,0,0,0-.31.924c-.307,1.584-.169,3.818,1.433,4.816.994.611,3.7-.545,4.253-1.789s-.318-3.455.757-4.562a3.661,3.661,0,0,1,1.049,0C214.369,80.595,214.03,80.439,213.641,80.327Z" transform="translate(-205.061 -71.278)" fill="#6d9b79"/>
          <path id="Path_1781" data-name="Path 1781" d="M213.641,80.327a1.733,1.733,0,0,0-1.791,1.483c-.324,1.164.095,2.642-.992,3.641-1.212,1.11-1.874.984-2.238.922a3.383,3.383,0,0,1-1.533-2.182,7.4,7.4,0,0,1,.166-2.8,3.588,3.588,0,0,0-.31.924c-.307,1.584-.169,3.818,1.433,4.816.994.611,3.7-.545,4.253-1.789s-.318-3.455.757-4.562a3.661,3.661,0,0,1,1.049,0C214.369,80.595,214.03,80.439,213.641,80.327Z" transform="translate(-205.061 -71.278)" opacity="0.5"/>
          <path id="Path_1782" data-name="Path 1782" d="M235.28,62.7s.719,1.039.639,1.14a1.885,1.885,0,0,1-.61.194Z" transform="translate(-225.37 -58.459)" fill="#874c4c"/>
          <path id="Path_1783" data-name="Path 1783" d="M217.158,51.817c1.456.292,2.035.7,2.124,3.06.089,2.3-.215,3.057-.533,3.365a3.494,3.494,0,0,1-2.006.09,6,6,0,0,1-3.244-1.925c-.934-1.364-1.181-3.2-.178-3.957A4.9,4.9,0,0,1,217.158,51.817Z" transform="translate(-209.243 -50.444)" fill="#9e6767"/>
          <path id="Path_1784" data-name="Path 1784" d="M229.811,75.238a3.084,3.084,0,0,1-1.631.155V75.05A3.674,3.674,0,0,0,229.811,75.238Z" transform="translate(-220.305 -67.441)" fill="#874c4c"/>
          <path id="Path_1785" data-name="Path 1785" d="M216.783,49.406a1.771,1.771,0,0,1-1.252.273.854.854,0,0,1-.149.524,1.108,1.108,0,0,1-.63.436A2.042,2.042,0,0,1,215,51.6a.524.524,0,0,1-.069.3.208.208,0,0,1-.37,0,2.517,2.517,0,0,0-.307-.5,1.008,1.008,0,0,0-.622-.333c-.914-.093-1.026,1.042-.662,1.513.6.777,1.115.256,1.115.256a2.744,2.744,0,0,1-.782,2.111,3.775,3.775,0,0,1-1.943-.068c-.53-.976-1.559-1.584-2.006-2.5-.914-1.936-.287-3.174.421-3.687.14-.892.88-1.293,1.719-1.478,1.258-.273,2.436.436,3.68.172q.308-.061.608-.153a.351.351,0,0,1,.246-.014.267.267,0,0,1,.118.273,1.193,1.193,0,0,1-.381.6,2.873,2.873,0,0,0,.814-.044.806.806,0,0,1,.287,0,.485.485,0,0,1,.324.488A1.148,1.148,0,0,1,216.783,49.406Z" transform="translate(-206.549 -47.147)" fill="#263238"/>
          <path id="Path_1786" data-name="Path 1786" d="M209.77,52.094l-.86-.488a.522.522,0,0,1,.657-.118A.468.468,0,0,1,209.77,52.094Z" transform="translate(-206.557 -50.255)" fill="#263238"/>
        </g>
      </g>
    </g>
  </g>
</svg>
