<svg xmlns="http://www.w3.org/2000/svg" width="108.744" height="106.79" viewBox="0 0 108.744 106.79">
  <g id="Faun-amico" transform="translate(-12.77 -28.601)">
    <g id="freepik--Mountains--inject-15" transform="translate(24.225 63.351)">
      <g id="freepik--mountains--inject-15-2" data-name="freepik--mountains--inject-15">
        <g id="freepik--mountains--inject-15-3" data-name="freepik--mountains--inject-15">
          <path id="Path_2574" data-name="Path 2574" d="M61.74,203.081,73.14,190a1.139,1.139,0,0,1,1.6,0l3.993,4.58L88.9,180.935a1.119,1.119,0,0,1,1.677.014l8.285,11.52,6.479-7.094a1.14,1.14,0,0,1,1.586-.087l3.916,3.81,8.7-11.51a1.12,1.12,0,0,1,1.689.035l11.2,16.841,5.534-7.141a1.223,1.223,0,0,1,1.85.058l10,15.721v12.123l-88.069-.033Z" transform="translate(-61.74 -177.209)" fill="#f0f0f0"/>
          <path id="Path_2575" data-name="Path 2575" d="M385.819,220.472a1.055,1.055,0,0,0-.975-.07l-.865.384a1.062,1.062,0,0,1-.985-.08l-.283-.194,1.151-1.483a1.223,1.223,0,0,1,1.85.058l1.317,2.082a.984.984,0,0,1-.372-.143Z" transform="translate(-307.634 -208.935)" fill="#fafafa"/>
          <path id="Path_2576" data-name="Path 2576" d="M246.24,210.806l1.637,1.586-.554.487a.8.8,0,0,1-1.017,0l-.356-.334a.807.807,0,0,0-1.013-.019h0a.784.784,0,0,1-1.074-.087l-.274-.367,1.067-1.169A1.135,1.135,0,0,1,246.24,210.806Z" transform="translate(-201.055 -202.727)" fill="#fafafa"/>
          <path id="Path_2577" data-name="Path 2577" d="M169.578,191.913l3.1,4.311-.386.589a.851.851,0,0,1-1.263.051l-.7-.823a.87.87,0,0,0-1.17-.054h0a.877.877,0,0,1-1.146-.023l-.7-.744a.889.889,0,0,0-1.039-.108l-1.4.847,3.024-4.061A1.135,1.135,0,0,1,169.578,191.913Z" transform="translate(-140.748 -188.173)" fill="#fafafa"/>
          <path id="Path_2578" data-name="Path 2578" d="M102.963,230.845l1.782,2.042-1.4-.622a.582.582,0,0,0-.618.094l-.393.388a.58.58,0,0,1-.7.04l-.327-.234a.592.592,0,0,0-.667,0L98.58,234.07h0l2.8-3.2A1.137,1.137,0,0,1,102.963,230.845Z" transform="translate(-89.963 -218.05)" fill="#fafafa"/>
          <path id="Path_2579" data-name="Path 2579" d="M301.307,177.571l2.035,3.057-.222.276a1.062,1.062,0,0,1-1.42.1l-.6-.512a1.085,1.085,0,0,0-1.324,0l-1.291,1.083a1.085,1.085,0,0,1-1.338-.014l-.346-.309,2.807-3.719A1.136,1.136,0,0,1,301.307,177.571Z" transform="translate(-241.819 -177.169)" fill="#fafafa"/>
          <g id="Group_463" data-name="Group 463" transform="translate(7.41 0.529)" opacity="0.05">
            <path id="Path_2580" data-name="Path 2580" d="M368.962,223.2l3.562,4.126h-2.093l1.555,4.519-3.3-2.536-2.781,3.417-1.958-3.059Z" transform="translate(-300.672 -212.962)"/>
            <path id="Path_2581" data-name="Path 2581" d="M280.237,179.43l-2.362,8.444,3.8,3.366-3.366,2.2,3.88,7.649-10.53-10.306Z" transform="translate(-229.969 -179.43)"/>
            <path id="Path_2582" data-name="Path 2582" d="M226.622,213.47l1.436,3h-1.916l3.443,6.711-5.363-3.331-2.447,2.348-1.336-1.962Z" transform="translate(-190.73 -205.508)"/>
            <path id="Path_2583" data-name="Path 2583" d="M134.39,209.422l9.557-12.832-1.939,6.1,3.265,3.633-8.058,1.864,2.592,2.238-1.361,1.293,2.1,4.849Z" transform="translate(-124.807 -192.576)"/>
            <path id="Path_2584" data-name="Path 2584" d="M97.413,231.87l1.642,3.785-2.213-.234-.311,4.987-3.111-3.96Z" transform="translate(-93.42 -219.604)"/>
          </g>
        </g>
      </g>
    </g>
    <g id="freepik--Trees--inject-15" transform="translate(12.77 33.386)">
      <g id="freepik--Tree--inject-15" transform="translate(69.862)">
        <path id="Path_2585" data-name="Path 2585" d="M346.526,62.034c-1.577-1.1-.468-2.491-.809-3.976-.14-.613-.774-.863-1.067-1.373a1.662,1.662,0,0,1,.173-1.658,2.533,2.533,0,0,1,2.159-1.637,1.424,1.424,0,0,1,.7.091,3.12,3.12,0,0,1-.063-1.5,2.028,2.028,0,0,1,1.686-1.244,1.785,1.785,0,0,1,1.354.3,3.454,3.454,0,0,1,.606.512,1.787,1.787,0,0,1,2.807-.035,2.074,2.074,0,0,1,.215-1.354,2.639,2.639,0,0,1,3.361-.77,1.967,1.967,0,0,1,.912,1.125,1.1,1.1,0,0,1,.889-.573,1.6,1.6,0,0,1,1.169.442,1.548,1.548,0,0,1,.519,1.062c1.158-1.186,3.48.161,3.434,1.745a2.621,2.621,0,0,1,2.468,1.689c.905,1.717-.851,2.407-2.269,2.938,1.8.758.04,3.476-.882,4.163a4.656,4.656,0,0,1-3.8.6c-.608-.126-1.457-.765-2.049-.737-.435.021-.43.2-.76.582a5.045,5.045,0,0,1-2.472,1.588,3.832,3.832,0,0,1-4.774-1.937A3.123,3.123,0,0,1,346.526,62.034Z" transform="translate(-336.761 -49.057)" fill="#e0e0e0"/>
        <path id="Path_2586" data-name="Path 2586" d="M430.8,105.112a.866.866,0,0,0,1.558-.667,1.332,1.332,0,0,0,2.105.138,1.983,1.983,0,0,0,.54-1.527,1.372,1.372,0,0,0,2.091-1.277c0-1.09-.8-3.1-2.03-3.317a2.034,2.034,0,0,0,2.133-.629,1.9,1.9,0,0,0,.122-1.9c1.111-.035,1.86-.451,1.6-1.658a2.484,2.484,0,0,0-1.976-2.009c.648-.208.7-1.492-.068-1.546,2.194-2.07-.622-4.933-3.095-4.351-.924.215-1.139,1.109-1.768,1.831a22.947,22.947,0,0,0-2.131,2.444,15.04,15.04,0,0,0-1.308,2.573,17.837,17.837,0,0,0-1.312,5.272c-.11,1.141-.11,2.309-.11,3.459a5.21,5.21,0,0,0,1.1,3.6C428.766,106.092,430.794,106.26,430.8,105.112Z" transform="translate(-400.088 -77.583)" fill="#ebebeb"/>
        <path id="Path_2587" data-name="Path 2587" d="M332.939,74.709c-.026,0-.173-1.56-.18-1.682a2.886,2.886,0,0,1,.4-1.85,5.38,5.38,0,0,0,.772-1.247,3.493,3.493,0,0,1,.791-1.352,3.01,3.01,0,0,1,2.192-.741,3.2,3.2,0,0,1,2.292.936c.444.451.388,1.116.744,1.534.875-.66,1.4.04,1.684.826-.1-1.3,1.637-1.036,2.362-.531-.065-.468-.323-.807-.234-1.324a2.127,2.127,0,0,1,1.523-1.717,1.442,1.442,0,0,1,1.787,1.209c1.158-.727,3.041.7,2.3,1.934a3.962,3.962,0,0,1,2.339,2.83,2.608,2.608,0,0,1-1.677,2.751,6.216,6.216,0,0,1,.793,3.869c-.208,1.871-1.576,1.979-3.109,2.126-.122.957.5,1.726.063,2.725-.587,1.357-1.546.936-2.739,1.032a2.7,2.7,0,0,1-.271,2.369,1.66,1.66,0,0,1-1.481,1.064,3.275,3.275,0,0,1-1.453-.026,3.071,3.071,0,0,0-.234.882,3.162,3.162,0,0,1-1.006,1.429,2.419,2.419,0,0,1-1.911.552c-.4-.056-.936-.639-1.319-.426-.2.112-.288.636-.5.8a1.233,1.233,0,0,1-.819.215,1.4,1.4,0,0,1-1.485-1.282c-.386.372-.531.884-1.2.779-.433-.068-.8-.346-.739-.828a2.484,2.484,0,0,1-3.08.234,1.721,1.721,0,0,1-.089-2.657c-.66.016-1.845-.625-1.029-1.331-.681-.306-1.57-.274-1.724-1.235a1.743,1.743,0,0,1,1.677-2.051c-.318-.274-.851-.468-.7-1.041s.936-.58,1.422-.585c-.772-.936-.915-2.573.234-3.275a3.524,3.524,0,0,1,1.853-.386c-.2-.332-.559-.559-.739-.936a3.985,3.985,0,0,1-.234-2.573C330.621,74.578,331.971,74.749,332.939,74.709Z" transform="translate(-323.12 -63.21)" fill="#ebebeb"/>
        <path id="Path_2588" data-name="Path 2588" d="M346.4,79.956a2.076,2.076,0,0,0-2.355-1.146c.891-.234.936-1.438-.075-1.4a1.5,1.5,0,0,0,1.191-1.74,1.764,1.764,0,0,0-1.244-1.106c.683-.257,1.422-.6,1.34-1.453-.075-.814-1.17-2.259-2.105-2.028a.936.936,0,0,0,.746-.751c.035-.269-.04-.774-.374-.791.592,0,1.417.068,1.654-.648.222-.671-.365-1.268-.875-1.539a1.5,1.5,0,0,0,1.057-2.072c-.449-1.015-1.434-1.118-2.414-1.148-.033-.936-.248-1.871-1.284-2.2a2.038,2.038,0,0,0-2.5,2.187,1.744,1.744,0,0,0-2.449-.047,1.378,1.378,0,0,0,.414,2.161c-.585.047-1.207.023-1.577.582-.208.32-.311.973.044,1.219-.615.051-1.357.07-1.539.807-.22.891.636,1.319,1.125,1.824-.7-.444-1.972-.592-1.918.575a3.333,3.333,0,0,0-1.331-1.155c-.365-.115-1.141-.021-1.256.437-.33-.22-.505-.529-.987-.5-.54.03-.87.741-1.025,1.137a.882.882,0,0,0-.43-.746c-.234-.117-.95-.056-.978.285a1.392,1.392,0,0,0-1.282-1.027,1.411,1.411,0,0,0-1.251.919c-.182-.491-.419-1.1-1.013-1.191-.416-.065-.7.255-1.076.274a1,1,0,0,0-.087-1.511,1,1,0,0,0-.95-1.588c.112-.786.112-1.453-.671-1.913a1.8,1.8,0,0,0-2.505.781,2.834,2.834,0,0,1-.491-.2,1.687,1.687,0,0,0-.889-.1,1.118,1.118,0,0,0-.849.484,1.76,1.76,0,0,0-.234,1.577c.1.522.564.681.992.936-.648.755.5,1.214,1.151.936-.346.147-.536,1.022-.079,1.13-.3-.089-.482-.262-.812-.2s-.8.255-.739.676a2.053,2.053,0,0,0-1.766-1.254,1.163,1.163,0,0,0-1.207.774c-.044.175-.2.594-.014.7-.288-.168-1.144.365-1.368.536a1.672,1.672,0,0,0-.657,1.256c-.063.936.2,1.544,1.151,1.736.166.035.456-.026.508.164.035.126-.271.639-.267.828.014.753,1.06.737,1.586.468.047.3-.112.578-.072.884a1.8,1.8,0,0,0,.767,1.132,2.658,2.658,0,0,0,2.447.077.751.751,0,0,0,1.17.688c-.267.337-.606.43-.723.919a2.08,2.08,0,0,0,.5,2.007c1.1.936,2.449.234,3.441-.349.07,1.158,1.637.823,2.063.051.023.313-.26.674-.323,1-.122.641-.115.978.44,1.4.655.505,2.519,1.071,2.713-.234a.877.877,0,0,0,1.574-.636,2.3,2.3,0,0,0,1.637.781,7.116,7.116,0,0,0,1.371.157c.215-.016,1.366-.255,1.371-.559-.019,1.5,1.429,3.478,2.863,1.92-.779,2.105,2.992,1.8,2.538-.526a1.709,1.709,0,0,0,1.247.346c.152-.049.9-.674.592-.875.606.4.985.95,1.841.657a1.373,1.373,0,0,0,.936-1.315c.812.159,2.168-.283,1.637-1.361.627-.033,1.155.068,1.637-.412a1.422,1.422,0,0,0,.295-1.682Zm-1.808,4.973a1.139,1.139,0,0,0-1.438.04c-.255.218-.72.681-.73,1.039a1.4,1.4,0,0,0-1.263-.554,1.253,1.253,0,0,0-.985,1.347c-.524-.012-.992.234-.868.865a.955.955,0,0,0,1.42.643c-.04.8.957,1.527,1.682,1.569.975.058,1.513-1.111,1.513-1.948.257.094.784.182.98-.012.363-.365-.021-1.134-.494-1.155.211-.267.648-.494.713-.863A1.187,1.187,0,0,0,344.593,84.929ZM340.2,86.8h-.014C340.221,86.676,340.21,86.744,340.2,86.8Z" transform="translate(-311.452 -58.855)" fill="#f5f5f5"/>
        <path id="Path_2589" data-name="Path 2589" d="M378.7,146.288s2.084-3.041,1.967-3.275-1.967,2.788-3.116,3.609-3.445,2.215-4.021,2.215-.615-.7-.409-2.051a4.772,4.772,0,0,1,1.193-2.952c.943-1.23,3.637-4.561,3.483-4.718s-3.579,4.21-4.43,4.758-1.562-3.041-1.845-3.041.814,2.55.884,3.742-.063,2.615-.6,2.985-1.988-.779-2.933-1.8-.964-5.455-1.333-5.455.234,4.065.234,4.456c0,.856-3.6-1.485-4.257-1.38s3.319,1.52,4.882,3.041a7.462,7.462,0,0,1,2.056,2.711c.491,1.036.636,2.374.636,6.189s-1.029,29.044-1.029,31.408c0,.578.7,1.158,2.121,1.268,1.415-.11,2.124-.69,2.124-1.268h0c0-2.365-1.029-27.6-1.029-31.408s.154-5.237,1.286-6.044a22.472,22.472,0,0,1,3.923-2.486c.856-.255,3.321.164,3.321,0A20.5,20.5,0,0,0,378.7,146.288Z" transform="translate(-351.282 -118.048)" fill="#e0e0e0"/>
        <path id="Path_2590" data-name="Path 2590" d="M378.7,146.288s2.084-3.041,1.967-3.275-1.967,2.788-3.116,3.609-3.445,2.215-4.021,2.215-.615-.7-.409-2.051a4.772,4.772,0,0,1,1.193-2.952c.943-1.23,3.637-4.561,3.483-4.718s-3.579,4.21-4.43,4.758-1.562-3.041-1.845-3.041.814,2.55.884,3.742-.063,2.615-.6,2.985-1.988-.779-2.933-1.8-.964-5.455-1.333-5.455.234,4.065.234,4.456c0,.856-3.6-1.485-4.257-1.38s3.319,1.52,4.882,3.041a7.462,7.462,0,0,1,2.056,2.711c.491,1.036.636,2.374.636,6.189s-1.029,29.044-1.029,31.408c0,.578.7,1.158,2.121,1.268,1.415-.11,2.124-.69,2.124-1.268h0c0-2.365-1.029-27.6-1.029-31.408s.154-5.237,1.286-6.044a22.472,22.472,0,0,1,3.923-2.486c.856-.255,3.321.164,3.321,0A20.5,20.5,0,0,0,378.7,146.288Z" transform="translate(-351.282 -118.048)" opacity="0.15"/>
      </g>
      <g id="freepik--tree--inject-15-2" data-name="freepik--tree--inject-15" transform="translate(0 8.821)">
        <path id="Path_2591" data-name="Path 2591" d="M69.255,99.751c1.577-1.1.468-2.491.809-3.976.14-.615.774-.863,1.067-1.373a1.661,1.661,0,0,0-.173-1.658A2.533,2.533,0,0,0,68.8,91.106a1.425,1.425,0,0,0-.7.091,3.129,3.129,0,0,0,.063-1.5,2.03,2.03,0,0,0-1.686-1.242,1.773,1.773,0,0,0-1.354.3,3.358,3.358,0,0,0-.606.51,1.787,1.787,0,0,0-2.807-.037,2.065,2.065,0,0,0-.215-1.352A2.636,2.636,0,0,0,58.13,87.1a1.981,1.981,0,0,0-.922,1.127,1.092,1.092,0,0,0-.882-.573,1.6,1.6,0,0,0-1.17.442,1.548,1.548,0,0,0-.519,1.062c-1.17-1.188-3.48.161-3.434,1.743a2.625,2.625,0,0,0-2.468,1.689c-.905,1.717.851,2.407,2.269,2.94-1.8.758-.04,3.476.882,4.163a4.673,4.673,0,0,0,3.8.6c.608-.126,1.457-.767,2.049-.739.435.021.43.2.76.582a5.034,5.034,0,0,0,2.472,1.591,3.834,3.834,0,0,0,4.774-1.937A3.118,3.118,0,0,0,69.255,99.751Z" transform="translate(-40.134 -86.77)" fill="#e0e0e0"/>
        <path id="Path_2592" data-name="Path 2592" d="M20.943,142.846a.866.866,0,0,1-1.558-.667,1.325,1.325,0,0,1-2.105.138,1.986,1.986,0,0,1-.54-1.527,1.374,1.374,0,0,1-2.091-1.277c0-1.09.8-3.1,2.03-3.317a2.03,2.03,0,0,1-2.133-.632,1.9,1.9,0,0,1-.122-1.9c-1.111-.035-1.871-.451-1.6-1.658A2.477,2.477,0,0,1,14.8,130c-.648-.211-.7-1.495.068-1.546-2.194-2.07.622-4.933,3.095-4.353.936.218,1.139,1.109,1.768,1.834a22.719,22.719,0,0,1,2.131,2.444,14.948,14.948,0,0,1,1.308,2.573,17.821,17.821,0,0,1,1.312,5.272c.11,1.141.11,2.309.11,3.457a5.212,5.212,0,0,1-1.1,3.6C22.978,143.826,20.95,143.994,20.943,142.846Z" transform="translate(-12.77 -115.311)" fill="#ebebeb"/>
        <path id="Path_2593" data-name="Path 2593" d="M75.487,112.489c.026,0,.173-1.56.18-1.682a2.9,2.9,0,0,0-.4-1.853,5.38,5.38,0,0,1-.772-1.244,3.46,3.46,0,0,0-.791-1.352,3,3,0,0,0-2.192-.741,3.188,3.188,0,0,0-2.292.936c-.444.451-.388,1.116-.744,1.534-.875-.66-1.4.037-1.684.826.1-1.305-1.637-1.036-2.362-.533.065-.454.323-.8.234-1.322a2.127,2.127,0,0,0-1.523-1.717,1.442,1.442,0,0,0-1.787,1.209c-1.17-.727-3.041.7-2.3,1.932a3.887,3.887,0,0,0-2.33,2.837,2.606,2.606,0,0,0,1.677,2.748,6.223,6.223,0,0,0-.793,3.871c.208,1.871,1.576,1.979,3.109,2.124.122.959-.5,1.729-.063,2.727.587,1.357,1.546.936,2.739,1.032a2.7,2.7,0,0,0,.271,2.369,1.654,1.654,0,0,0,1.481,1.062,3.237,3.237,0,0,0,1.455-.028,3.055,3.055,0,0,1,.234.879,3.169,3.169,0,0,0,1.006,1.431,2.418,2.418,0,0,0,1.911.552c.4-.056.936-.641,1.319-.426.2.112.288.636.5.8a1.233,1.233,0,0,0,.819.215,1.4,1.4,0,0,0,1.485-1.282c.386.372.531.882,1.2.777.433-.065.8-.346.739-.826a2.484,2.484,0,0,0,3.08.234,1.721,1.721,0,0,0,.089-2.657c.66.019,1.845-.622,1.029-1.331.681-.3,1.569-.274,1.724-1.233a1.744,1.744,0,0,0-1.677-2.051c.318-.274.851-.468.7-1.041s-.936-.582-1.42-.587c.772-.936.915-2.573-.234-3.275a3.5,3.5,0,0,0-1.853-.386c.2-.334.559-.559.739-.936a4.054,4.054,0,0,0,.234-2.573C77.826,112.347,76.464,112.52,75.487,112.489Z" transform="translate(-46.429 -100.974)" fill="#ebebeb"/>
        <path id="Path_2594" data-name="Path 2594" d="M29.391,119.409c.491.468,1.02.379,1.637.409-.533,1.081.823,1.523,1.637,1.361A1.38,1.38,0,0,0,33.6,122.5c.856.292,1.235-.257,1.841-.66-.306.2.44.826.592.875a1.656,1.656,0,0,0,1.247-.344c-.454,2.323,3.317,2.622,2.538.526,1.434,1.558,2.882-.423,2.863-1.923,0,.306,1.155.545,1.371.561a7.033,7.033,0,0,0,1.371-.159,2.325,2.325,0,0,0,1.637-.779.877.877,0,0,0,1.574.636c.194,1.312,2.058.749,2.713.234.554-.428.561-.767.44-1.4-.063-.325-.346-.685-.323-1,.419.77,1.993,1.106,2.063-.054.992.594,2.339,1.277,3.441.351a2.081,2.081,0,0,0,.5-2.007c-.117-.489-.456-.582-.723-.919a.749.749,0,0,0,1.17-.688,2.664,2.664,0,0,0,2.447-.077,1.8,1.8,0,0,0,.767-1.132c.04-.306-.119-.58-.073-.884.526.269,1.572.283,1.586-.468,0-.189-.3-.7-.267-.828.051-.189.342-.131.508-.164.954-.192,1.214-.807,1.151-1.736a1.668,1.668,0,0,0-.657-1.256c-.234-.171-1.081-.7-1.368-.536.189-.112.03-.531-.014-.7a1.171,1.171,0,0,0-1.207-.774,2.057,2.057,0,0,0-1.766,1.254c.061-.421-.4-.613-.739-.674s-.515.115-.812.2c.468-.11.267-.982-.08-1.13.655.278,1.8-.182,1.151-.936.428-.262.889-.423.992-.936A1.809,1.809,0,0,0,59.3,103.4a1.116,1.116,0,0,0-.847-.5,1.687,1.687,0,0,0-.889.1,2.835,2.835,0,0,1-.491.2,1.8,1.8,0,0,0-2.505-.784c-.784.468-.784,1.13-.671,1.916a1,1,0,0,0-.95,1.588,1,1,0,0,0-.087,1.511c-.365-.019-.66-.339-1.076-.274-.594.091-.83.7-1.013,1.191a1.428,1.428,0,0,0-1.251-.922,1.385,1.385,0,0,0-1.282,1.027c-.028-.339-.741-.4-.978-.283a.882.882,0,0,0-.43.746c-.154-.4-.484-1.106-1.024-1.137-.482-.028-.657.283-.987.5-.115-.468-.891-.554-1.256-.437A3.333,3.333,0,0,0,42.234,109c.054-1.17-1.214-1.02-1.918-.575.489-.508,1.345-.936,1.125-1.824-.182-.739-.924-.756-1.539-.807.356-.248.253-.9.044-1.219-.37-.559-.992-.536-1.576-.582a1.373,1.373,0,0,0,.414-2.161,1.748,1.748,0,0,0-2.449.047,2.037,2.037,0,0,0-2.5-2.187c-1.036.334-1.251,1.256-1.284,2.2-.98.033-1.965.136-2.414,1.151a1.5,1.5,0,0,0,1.057,2.072c-.51.269-1.1.865-.875,1.537.234.718,1.062.648,1.654.65-.334.014-.409.519-.374.791a.936.936,0,0,0,.732.732c-.936-.234-2.033,1.216-2.105,2.028-.082.858.657,1.2,1.34,1.455a1.76,1.76,0,0,0-1.244,1.106,1.5,1.5,0,0,0,1.191,1.738c-1.02-.03-.966,1.17-.075,1.4a2.078,2.078,0,0,0-2.355,1.148,1.422,1.422,0,0,0,.306,1.71Zm.968,4.243c.065.37.5.6.7.865-.468.021-.856.791-.494,1.153.2.2.723.105.98.014,0,.837.538,2,1.513,1.948.725-.042,1.722-.777,1.682-1.569a.954.954,0,0,0,1.42-.646c.124-.622-.344-.875-.868-.863a1.251,1.251,0,0,0-.985-1.347,1.4,1.4,0,0,0-1.263.554c0-.358-.468-.821-.73-1.041a1.137,1.137,0,0,0-1.438-.037C30.628,122.892,30.291,123.273,30.359,123.652Zm4.933.9h-.014C35.273,124.492,35.257,124.426,35.292,124.555Z" transform="translate(-25.145 -96.604)" fill="#f5f5f5"/>
        <path id="Path_2595" data-name="Path 2595" d="M51.585,184s-2.084-3.041-1.967-3.275,1.967,2.79,3.116,3.609,3.445,2.215,4.021,2.215.615-.7.409-2.049a4.783,4.783,0,0,0-1.193-2.954c-.943-1.23-3.642-4.568-3.483-4.722s3.579,4.21,4.43,4.758,1.562-3.041,1.845-3.041-.816,2.552-.884,3.742.063,2.62.6,3,1.988-.779,2.933-1.806.961-5.455,1.333-5.455-.234,4.065-.234,4.458c0,.856,3.6-1.485,4.257-1.382s-3.319,1.52-4.882,3.041a7.347,7.347,0,0,0-2.07,2.7c-.491,1.036-.636,2.374-.636,6.189s1.029,20.216,1.029,22.581c0,.578-.7,1.158-2.121,1.268-1.415-.11-2.124-.69-2.124-1.268h0c0-2.365,1.029-18.768,1.029-22.581s-.154-5.239-1.286-6.044a22.613,22.613,0,0,0-3.923-2.486c-.856-.255-3.321.164-3.321,0A20.661,20.661,0,0,1,51.585,184Z" transform="translate(-40.112 -155.759)" fill="#e0e0e0"/>
        <path id="Path_2596" data-name="Path 2596" d="M51.585,184s-2.084-3.041-1.967-3.275,1.967,2.79,3.116,3.609,3.445,2.215,4.021,2.215.615-.7.409-2.049a4.783,4.783,0,0,0-1.193-2.954c-.943-1.23-3.642-4.568-3.483-4.722s3.579,4.21,4.43,4.758,1.562-3.041,1.845-3.041-.816,2.552-.884,3.742.063,2.62.6,3,1.988-.779,2.933-1.806.961-5.455,1.333-5.455-.234,4.065-.234,4.458c0,.856,3.6-1.485,4.257-1.382s-3.319,1.52-4.882,3.041a7.347,7.347,0,0,0-2.07,2.7c-.491,1.036-.636,2.374-.636,6.189s1.029,20.216,1.029,22.581c0,.578-.7,1.158-2.121,1.268-1.415-.11-2.124-.69-2.124-1.268h0c0-2.365,1.029-18.768,1.029-22.581s-.154-5.239-1.286-6.044a22.613,22.613,0,0,0-3.923-2.486c-.856-.255-3.321.164-3.321,0A20.661,20.661,0,0,1,51.585,184Z" transform="translate(-40.112 -155.759)" opacity="0.15"/>
      </g>
    </g>
    <g id="freepik--Plants--inject-15" transform="translate(20.563 81.643)">
      <g id="freepik--Shrubbery--inject-15" transform="translate(0 0)">
        <path id="Path_2597" data-name="Path 2597" d="M140.017,282.141c1.586,1.586.468,3.029-1.317,2.921a2.9,2.9,0,0,1-1.2,3.581H49.923c-3.041-1.284-3.1-5.345-1.237-6-1.3-.271-1.649-3.137.124-2.73l-.035-.026.051.033a1.8,1.8,0,0,1-.334-.358.955.955,0,0,1-.075-1.279c-.936.152-2.023-.66-1.565-1.637-1.144-.554-.9-2.573.215-3.041a2.063,2.063,0,0,1,.727-3.455,1.4,1.4,0,0,1-.332-.844,2.991,2.991,0,0,1,2.105-3.1,2.281,2.281,0,0,1,.5-2.082h0a2.273,2.273,0,0,1,.264-.234,2.25,2.25,0,0,1,1.8-.505,2.478,2.478,0,0,1,3.742-2.339c.384-1.974,4.47-1.637,4.678.033,1.382-.7,2.386.175,2.262,1.689a1.17,1.17,0,0,1,2.121.236,1.371,1.371,0,0,1,1.986-1.471,1.478,1.478,0,0,1,2.25-1.637,1.286,1.286,0,0,1,1.778-1.127,1.249,1.249,0,0,1,2.276-.2c1.048-2.016,3.852-.533,3.275,1.431.718-.578,2.105-.713,2.29.43.07-1.118,1.191-1.216,1.841-.489-.173-1.4.868-2.105,1.8-1.74a1.069,1.069,0,0,1,2.072-.234c-.182-.517.863-.973,1.324-.341.552-.552,1.759.016,1.637,1a1.247,1.247,0,0,1,2.4-.037c0-.564,1.078-.982,1.076-.4,0-2.65,3.8-3.775,5.146-.313.416-1.169,1.955-1.378,2.182.091a.768.768,0,0,1,1.441.037c.718-2.168,2.987-2.063,3.113-.327a.666.666,0,0,1,1.3.131c.772-1.417,2.21-.545,1.743.856a.919.919,0,0,1,1.2-.208c.035-2.037,2.6-1.467,2.942-.136a.849.849,0,0,1,1.3.164c.175-.814,1.329-.545,1.7-.054-1.27-1.565.886-4.018,2.161-2.194-.124-1.548,1.909-.791,2.426.531,1.109-1.141,3.193.531,2.164,1.967,1.088-.075,1.913,1.834.737,2.355a.751.751,0,0,1,.573.975c.318-.582.84-1.027,1.457-.6-.7-.662.058-1.649.936-1.527-.5-2.528,3.221-3.672,4.306-1.729.613-1.651,3.443-.409,2.837,1.146a1.469,1.469,0,0,1,1.261.178,2.266,2.266,0,0,1,.419.327h0a2.126,2.126,0,0,1,.234.3h0a1.464,1.464,0,0,1,.061,1.6c1.284.03,1.7,1.927.734,2.716.741.2.982,1.675.117,2.412.5,0,1.282,1.053,1.258,1.619a1.26,1.26,0,0,1,2.386.519,1.44,1.44,0,0,1,1.944,1.855c1.324.262,1.551,1.871,1.125,2.975,1.81.257,2,2.989.884,4.21C142.01,278.8,142.012,282.071,140.017,282.141Z" transform="translate(-46.099 -255.371)" fill="#719f7f"/>
        <g id="Group_464" data-name="Group 464" transform="translate(0 3.953)" opacity="0.15">
          <path id="Path_2598" data-name="Path 2598" d="M385.6,284.771a1.289,1.289,0,0,0-1.927-.126,1.387,1.387,0,0,0-.253.332,1.282,1.282,0,0,0-1.048-.332,1.415,1.415,0,0,0-1.169,1.184,1.558,1.558,0,0,1,2.7.351,1.153,1.153,0,0,0,0-.253,1.553,1.553,0,0,0-.182-.575,1.294,1.294,0,0,1,.14-.159,1.518,1.518,0,0,1,1.871-.217A1.247,1.247,0,0,0,385.6,284.771Z" transform="translate(-302.816 -281.464)"/>
          <path id="Path_2599" data-name="Path 2599" d="M325.1,280.617a.994.994,0,0,1,1.485-.1,1.077,1.077,0,0,1,.194.257.987.987,0,0,1,.809-.257,1.092,1.092,0,0,1,.9.915,1.2,1.2,0,0,0-2.084.271,1.1,1.1,0,0,1,0-.2,1.2,1.2,0,0,1,.143-.442,1.117,1.117,0,0,0-.11-.126,1.17,1.17,0,0,0-1.448-.166A.851.851,0,0,1,325.1,280.617Z" transform="translate(-259.753 -278.369)"/>
          <path id="Path_2600" data-name="Path 2600" d="M430.235,365.986a.945.945,0,0,1-.115,0A.4.4,0,0,1,430.235,365.986Z" transform="translate(-340.293 -344.063)"/>
          <path id="Path_2601" data-name="Path 2601" d="M413.4,295.087c1.586,1.586.468,3.029-1.317,2.921a2.9,2.9,0,0,1-1.2,3.581H408.79c.575-.54,1.315-.987,1.078-1.974-.192-.8.161-1.693-.4-2.093.194-.234.426-.435.634-.657a.765.765,0,0,0,.278-.531,1.44,1.44,0,0,0-.613-1.31c-.4-.234-.051-.786-.353-.828a1.214,1.214,0,0,0,.863-.391.907.907,0,0,0,.089-1.069,2.261,2.261,0,0,0,2.105-.159,1.809,1.809,0,0,0,.4-2.026,2.105,2.105,0,0,0-1.626-1.212,1.333,1.333,0,0,0,.809-1.78,1.617,1.617,0,0,0-.7-.7,1.711,1.711,0,0,0-2.138.292,1.9,1.9,0,0,0-.819-1.871,1.583,1.583,0,0,0-1.89.21,1.651,1.651,0,0,0-.037-1.4,1.455,1.455,0,0,0-.594-.606c-.089-.049-.278-.068-.271-.206a.324.324,0,0,1,.035-.094,2.438,2.438,0,0,0,.154-.337,1.322,1.322,0,0,0-.065-.987,1.145,1.145,0,0,0-1.574-.505c.557-.83-.332-2.238-1.207-1.5.442-.543.7-.814,1.2-.915a1.363,1.363,0,0,1,1.111.2c.4-.58.267-2-.718-2.14a1.448,1.448,0,0,0-.69-2.339c.407-.217,1.022-.309,1.247-.828a1.519,1.519,0,0,0-.412-1.562l.07.019.07.019a1.76,1.76,0,0,1,.285.119q.058.028.119.063h0q.068.039.131.084l.051.037c.03.023.061.047.089.072l.087.077a.269.269,0,0,1,.026.026l.028.028a.837.837,0,0,1,.061.068,1.724,1.724,0,0,1,.182.234h0a.525.525,0,0,1,.037.061.468.468,0,0,1,.04.068,2.046,2.046,0,0,1,.119.276.173.173,0,0,1,0,.033.045.045,0,0,1,0,.023.421.421,0,0,1,.014.051l.019.084a1.446,1.446,0,0,1-.185,1,1.1,1.1,0,0,1,.837.374c.03.033.058.065.087.1a1.678,1.678,0,0,1-.189,2.241c.741.2.982,1.675.117,2.412.5,0,1.282,1.053,1.258,1.619a.939.939,0,0,1,.084-.159,1.017,1.017,0,0,1,.108-.14.746.746,0,0,1,.105-.068,1.021,1.021,0,0,1,.208-.154c.051-.028.1-.054.157-.077h0a1.37,1.37,0,0,1,.166-.054,1.228,1.228,0,0,1,1.6,1.17,1.445,1.445,0,0,1,1.712.363,1.5,1.5,0,0,1,.292,1.226,2.022,2.022,0,0,1-.063.269,1.616,1.616,0,0,1,.674.311.7.7,0,0,1,.077.065,1.732,1.732,0,0,1,.178.194,2.245,2.245,0,0,1,.391,1.467,2.059,2.059,0,0,1-.026.267c-.012.089-.03.185-.049.274a2.646,2.646,0,0,1-.073.267c-.014.044-.028.087-.044.129a1.547,1.547,0,0,1,.449.115,1.241,1.241,0,0,1,.157.082,1.012,1.012,0,0,1,.147.1,1.251,1.251,0,0,1,.136.115l.063.063a3.008,3.008,0,0,1-.068,3.742C415.389,291.742,415.391,295.017,413.4,295.087Z" transform="translate(-319.478 -272.27)"/>
          <path id="Path_2602" data-name="Path 2602" d="M51.521,314.025c-1.1.25-.278-2.861.468-3.35-2.36-.4-1.422-2.339-.884-2.837-1.532-.306-1.806-2.105-.257-3.071-.332-.108-.814-.611-.468-1.506.393-1.05,1.958-1.169,2.381-1.2a1.472,1.472,0,0,1-.386-2.266,2.784,2.784,0,0,1-.77.4,1.261,1.261,0,0,1-.975-.073.963.963,0,0,1-.2-1.506c-1.736.044-.5-2.355.858-2.273-.629-.4-1.132-.865-.9-1.712a1.944,1.944,0,0,1,1.417-1.307c-1.078-.61-1.712-1.443-1.212-2.433a3.24,3.24,0,0,0-.278.189,2.276,2.276,0,0,0-.264.234h0a2.281,2.281,0,0,0-.5,2.082,2.994,2.994,0,0,0-2.105,3.1,1.4,1.4,0,0,0,.332.844,2.068,2.068,0,0,0-.727,3.455c-1.113.468-1.359,2.486-.215,3.041-.468.987.629,1.8,1.565,1.637a.954.954,0,0,0,.075,1.279,1.8,1.8,0,0,0,.334.358l-.051-.033.035.026c-1.773-.407-1.422,2.458-.124,2.73-1.871.657-1.8,4.718,1.237,6h3.265A2.025,2.025,0,0,1,51.521,314.025Z" transform="translate(-46.084 -286.535)"/>
          <path id="Path_2603" data-name="Path 2603" d="M85.22,397.62h.019Z" transform="translate(-76.066 -368.3)"/>
          <path id="Path_2604" data-name="Path 2604" d="M110.267,294.422a1.3,1.3,0,0,0-1.895-.4,1.375,1.375,0,0,0-.29.292,1.31,1.31,0,0,0-1-.468,1.378,1.378,0,0,0-1.293,1.01,1.563,1.563,0,0,1,1.1-.468,1.637,1.637,0,0,1,1.534,1.2,1.284,1.284,0,0,0,.021-.253,1.567,1.567,0,0,0-.115-.6,1.869,1.869,0,0,1,.161-.14,1.516,1.516,0,0,1,1.885.051A1.17,1.17,0,0,0,110.267,294.422Z" transform="translate(-91.825 -288.742)"/>
          <path id="Path_2605" data-name="Path 2605" d="M155.118,278.254a1.067,1.067,0,0,1,1.431-.646,1.118,1.118,0,0,1,.271.18,1.1,1.1,0,0,1,.7-.552,1.064,1.064,0,0,1,1.17.568,1.219,1.219,0,0,0-.936-.173,1.375,1.375,0,0,0-1.029,1.209,1.033,1.033,0,0,1-.054-.194,1.273,1.273,0,0,1,0-.489,1.131,1.131,0,0,0-.147-.082,1.233,1.233,0,0,0-1.476.372A.968.968,0,0,1,155.118,278.254Z" transform="translate(-129.563 -276.058)"/>
          <path id="Path_2606" data-name="Path 2606" d="M75.406,311.358a.793.793,0,0,1,1.186-.063,1,1,0,0,1,.152.206.786.786,0,0,1,.646-.2.872.872,0,0,1,.7.737.954.954,0,0,0-1.661.194.7.7,0,0,1,0-.154.915.915,0,0,1,.117-.351,1.217,1.217,0,0,0-.087-.1.936.936,0,0,0-1.151-.147.826.826,0,0,1,.1-.124Z" transform="translate(-68.474 -301.986)"/>
        </g>
      </g>
    </g>
    <g id="freepik--Floor--inject-15" transform="translate(24.058 87.577)">
      <g id="freepik--Field--inject-15" transform="translate(0 0)" style="isolation: isolate">
        <ellipse id="freepik--floor--inject-15-2" data-name="freepik--floor--inject-15" cx="44.119" cy="23.907" rx="44.119" ry="23.907" fill="rgba(93,122,102,0)" opacity="0.42"/>
        <ellipse id="freepik--floor--inject-15-3" data-name="freepik--floor--inject-15" cx="44.119" cy="23.907" rx="44.119" ry="23.907" fill="rgba(93,122,102,0)" opacity="0.42"/>
      </g>
      <g id="freepik--Flowers--inject-15" transform="translate(12.227 9.595)">
        <g id="freepik--flowers--inject-15-2" data-name="freepik--flowers--inject-15" transform="translate(46.976)">
          <path id="Path_2607" data-name="Path 2607" d="M323.485,326.292s-.026-.377-.32-.416c0,0-.234-.042-.377.334a.774.774,0,0,0-.7.082.435.435,0,0,0,.323.482.552.552,0,0,0-.119.592s.6.2.751-.175c0,0,.054.337.643.337a.564.564,0,0,0,0-.671s.416-.014.484-.323C324.168,326.533,323.887,326.063,323.485,326.292Z" transform="translate(-320.224 -324.912)" fill="#fafafa"/>
          <path id="Path_2608" data-name="Path 2608" d="M325.067,327.9a.414.414,0,0,0-.447.276s0,.22.377.253.435-.189.435-.189A.37.37,0,0,0,325.067,327.9Z" transform="translate(-322.169 -326.459)" fill="#c8856a"/>
          <path id="Path_2609" data-name="Path 2609" d="M332.712,323.377s-.133-.267-.348-.3a.594.594,0,0,0-.215.384.554.554,0,0,0-.468.117.505.505,0,0,0,.3.349.681.681,0,0,0,.014.5.589.589,0,0,0,.566-.318.545.545,0,0,0,.58.15.433.433,0,0,0-.154-.505.468.468,0,0,0,.234-.4A.648.648,0,0,0,332.712,323.377Z" transform="translate(-327.577 -322.771)" fill="#fafafa"/>
          <path id="Path_2610" data-name="Path 2610" d="M334.1,324.991a.3.3,0,0,0-.295.253s.023.159.3.14.3-.185.3-.185A.276.276,0,0,0,334.1,324.991Z" transform="translate(-329.209 -324.233)" fill="#c8856a"/>
          <path id="Path_2611" data-name="Path 2611" d="M326.115,321.933s-.082-.234-.234-.157-.1.234.035.264c0,0-.295.1-.213.253s.335,0,.391-.089c0,0,.054.234.26.154s0-.29,0-.29.313-.122.143-.267S326.115,321.933,326.115,321.933Z" transform="translate(-322.987 -321.76)" fill="#fafafa"/>
          <path id="Path_2612" data-name="Path 2612" d="M332.178,336.531s.023-.253-.152-.234-.189.168-.08.255c0,0-.306-.033-.3.143s.306.133.391.082c0,0-.049.234.173.246s.119-.264.119-.264.337.019.234-.182S332.178,336.531,332.178,336.531Z" transform="translate(-327.554 -332.896)" fill="#fafafa"/>
          <path id="Path_2613" data-name="Path 2613" d="M314.306,332.046s-.2-.269-.047-.335.217.166.217.166.154-.182.234-.051-.115.267-.115.267.211.115.089.234-.267-.066-.267-.066-.084.2-.213.145S314.151,332.109,314.306,332.046Z" transform="translate(-314.139 -329.375)" fill="#fafafa"/>
        </g>
        <g id="freepik--flowers--inject-15-3" data-name="freepik--flowers--inject-15" transform="translate(60.502 12.116)">
          <path id="Path_2614" data-name="Path 2614" d="M384.043,384.4s-.14-.4-.468-.358c0,0-.274.028-.309.468a.877.877,0,0,0-.737.295.493.493,0,0,0,.5.43.618.618,0,0,0,.044.678s.716.04.765-.412c0,0,.159.349.8.173a.636.636,0,0,0-.2-.73s.449-.14.43-.5C384.86,384.455,384.413,384.027,384.043,384.4Z" transform="translate(-380.059 -381.585)" fill="#fafafa"/>
          <path id="Path_2615" data-name="Path 2615" d="M386.065,386.276a.468.468,0,0,0-.4.433s.065.234.484.161.416-.334.416-.334a.416.416,0,0,0-.5-.26Z" transform="translate(-382.457 -383.291)" fill="#c8856a"/>
          <path id="Path_2616" data-name="Path 2616" d="M399.742,373.9s-.15-.3-.393-.337a.676.676,0,0,0-.234.435.615.615,0,0,0-.536.131.575.575,0,0,0,.341.393.755.755,0,0,0,.016.559.667.667,0,0,0,.639-.358s.173.26.655.168a.491.491,0,0,0-.175-.571.517.517,0,0,0,.262-.456A.734.734,0,0,0,399.742,373.9Z" transform="translate(-392.355 -373.56)" fill="#fafafa"/>
          <path id="Path_2617" data-name="Path 2617" d="M401.33,375.729a.344.344,0,0,0-.33.295s.028.18.341.159.337-.21.337-.21a.309.309,0,0,0-.348-.243Z" transform="translate(-394.209 -375.219)" fill="#c8856a"/>
          <path id="Path_2618" data-name="Path 2618" d="M388.334,375.353s-.091-.271-.269-.178-.115.262.04.3c0,0-.332.11-.234.285s.379,0,.44-.1c0,0,.063.271.292.175s0-.33,0-.33.356-.138.164-.3S388.334,375.353,388.334,375.353Z" transform="translate(-384.136 -374.783)" fill="#fafafa"/>
          <path id="Path_2619" data-name="Path 2619" d="M408.855,383.04s.026-.283-.173-.271-.213.189-.089.29c0,0-.346-.04-.334.159s.346.15.44.091c0,0-.056.271.2.278s.136-.3.136-.3.379.021.271-.206S408.855,383.04,408.855,383.04Z" transform="translate(-399.77 -380.615)" fill="#fafafa"/>
          <path id="Path_2620" data-name="Path 2620" d="M372.378,384.151s.316-.211.379-.033-.2.234-.2.234.2.185.044.26-.295-.145-.295-.145-.14.234-.262.087.091-.3.091-.3-.234-.105-.152-.248S372.315,383.973,372.378,384.151Z" transform="translate(-371.966 -381.512)" fill="#fafafa"/>
        </g>
        <g id="freepik--flowers--inject-15-4" data-name="freepik--flowers--inject-15" transform="translate(41.809 28.495)">
          <path id="Path_2621" data-name="Path 2621" d="M309.859,450.968s-.028-.4-.344-.442c0,0-.255-.042-.4.358a.823.823,0,0,0-.742.084.468.468,0,0,0,.341.515.585.585,0,0,0-.129.627s.643.213.8-.185c0,0,.056.355.683.355a.6.6,0,0,0,0-.7s.442-.014.515-.342C310.586,451.225,310.287,450.727,309.859,450.968Z" transform="translate(-304.554 -448.901)" fill="#fafafa"/>
          <path id="Path_2622" data-name="Path 2622" d="M311.548,452.681a.442.442,0,0,0-.468.295s0,.234.4.267.468-.2.468-.2A.391.391,0,0,0,311.548,452.681Z" transform="translate(-306.629 -450.55)" fill="#c8856a"/>
          <path id="Path_2623" data-name="Path 2623" d="M327.261,447.186s-.14-.283-.372-.316a.627.627,0,0,0-.234.407.59.59,0,0,0-.505.124.538.538,0,0,0,.32.37.725.725,0,0,0,.016.526.625.625,0,0,0,.6-.337.578.578,0,0,0,.615.159.468.468,0,0,0-.164-.538.484.484,0,0,0,.246-.428.7.7,0,0,0-.524.033Z" transform="translate(-318.174 -446.101)" fill="#fafafa"/>
          <path id="Path_2624" data-name="Path 2624" d="M328.793,448.93a.32.32,0,0,0-.313.267s.026.171.323.152.313-.2.313-.2A.288.288,0,0,0,328.793,448.93Z" transform="translate(-319.959 -447.677)" fill="#c8856a"/>
          <path id="Path_2625" data-name="Path 2625" d="M314.909,443.767s-.089-.253-.255-.166-.108.234.037.283c0,0-.313.1-.234.267s.353,0,.412-.094c0,0,.058.255.276.164s0-.309,0-.309.334-.131.152-.283S314.909,443.767,314.909,443.767Z" transform="translate(-309.206 -443.583)" fill="#fafafa"/>
          <path id="Path_2626" data-name="Path 2626" d="M292.611,461.276s.026-.267-.161-.257-.2.18-.084.274c0,0-.325-.037-.316.15s.327.14.416.086c0,0-.054.255.182.262s.129-.281.129-.281.358.019.255-.194S292.611,461.276,292.611,461.276Z" transform="translate(-292.049 -456.941)" fill="#fafafa"/>
          <path id="Path_2627" data-name="Path 2627" d="M299.738,447.052s-.217-.283-.054-.353.234.178.234.178.164-.194.234-.056-.119.283-.119.283.222.122.094.234-.285-.07-.285-.07-.087.215-.234.157S299.575,447.122,299.738,447.052Z" transform="translate(-297.787 -445.961)" fill="#fafafa"/>
        </g>
        <g id="freepik--flowers--inject-15-5" data-name="freepik--flowers--inject-15" transform="translate(0 18.828)">
          <path id="Path_2628" data-name="Path 2628" d="M123.318,407.725s-.028-.379-.325-.419c0,0-.234-.04-.377.337a.777.777,0,0,0-.7.082.435.435,0,0,0,.323.484.55.55,0,0,0-.122.592s.606.2.753-.173c0,0,.056.337.648.337a.566.566,0,0,0,0-.674s.416-.014.484-.325C124,407.966,123.721,407.5,123.318,407.725Z" transform="translate(-119.897 -406.124)" fill="#fafafa"/>
          <path id="Path_2629" data-name="Path 2629" d="M124.9,409.337a.414.414,0,0,0-.449.278s0,.22.379.253.435-.189.435-.189A.372.372,0,0,0,124.9,409.337Z" transform="translate(-121.843 -407.678)" fill="#c8856a"/>
          <path id="Path_2630" data-name="Path 2630" d="M137.314,406.159s-.131-.267-.348-.3a.613.613,0,0,0-.218.386.554.554,0,0,0-.468.117.51.51,0,0,0,.3.351.674.674,0,0,0,.016.5.59.59,0,0,0,.566-.318.552.552,0,0,0,.582.152.44.44,0,0,0-.154-.51.468.468,0,0,0,.234-.4.655.655,0,0,0-.512.03Z" transform="translate(-130.906 -405.017)" fill="#fafafa"/>
          <path id="Path_2631" data-name="Path 2631" d="M138.707,407.81a.311.311,0,0,0-.3.253s.026.161.306.143.3-.187.3-.187a.274.274,0,0,0-.306-.208Z" transform="translate(-132.538 -406.509)" fill="#c8856a"/>
          <path id="Path_2632" data-name="Path 2632" d="M127.792,402.431s-.082-.234-.234-.159a.137.137,0,0,0,.033.267s-.295.1-.211.255.334,0,.391-.089c0,0,.054.234.26.154s0-.292,0-.292.316-.124.143-.267S127.792,402.431,127.792,402.431Z" transform="translate(-124.076 -402.257)" fill="#fafafa"/>
          <path id="Path_2633" data-name="Path 2633" d="M136.11,414.911s.023-.253-.154-.234-.189.171-.08.257c0,0-.306-.033-.3.143s.309.133.393.082c0,0-.051.234.173.248s.119-.267.119-.267.339.019.234-.182S136.11,414.911,136.11,414.911Z" transform="translate(-130.369 -411.771)" fill="#fafafa"/>
          <path id="Path_2634" data-name="Path 2634" d="M113.467,405.547s-.2-.269-.047-.335.22.168.22.168.154-.185.234-.054-.115.269-.115.269.213.115.091.234-.269-.065-.269-.065-.084.2-.213.147S113.319,405.621,113.467,405.547Z" transform="translate(-113.304 -404.512)" fill="#fafafa"/>
        </g>
        <g id="freepik--flowers--inject-15-6" data-name="freepik--flowers--inject-15" transform="translate(0.38 3.28)">
          <path id="Path_2635" data-name="Path 2635" d="M128.564,341.674s.03-.407.351-.449c0,0,.26-.044.407.363a.84.84,0,0,1,.756.087.468.468,0,0,1-.349.524.6.6,0,0,1,.131.641s-.655.218-.814-.189c0,0-.058.363-.7.363a.61.61,0,0,1,0-.727s-.451-.014-.524-.349C127.829,341.936,128.136,341.429,128.564,341.674Z" transform="translate(-124.805 -339.951)" fill="#fafafa"/>
          <path id="Path_2636" data-name="Path 2636" d="M131.433,343.416a.442.442,0,0,1,.482.3s0,.234-.407.271-.468-.2-.468-.2A.4.4,0,0,1,131.433,343.416Z" transform="translate(-127.272 -341.626)" fill="#c8856a"/>
          <path id="Path_2637" data-name="Path 2637" d="M115.47,339.943s.143-.288.379-.323a.655.655,0,0,1,.234.416.6.6,0,0,1,.515.126.552.552,0,0,1-.327.379.723.723,0,0,1-.016.536.638.638,0,0,1-.613-.344.59.59,0,0,1-.627.164.468.468,0,0,1,.166-.55.5.5,0,0,1-.25-.437.7.7,0,0,1,.54.033Z" transform="translate(-114.93 -338.722)" fill="#fafafa"/>
          <path id="Path_2638" data-name="Path 2638" d="M117.26,341.761a.332.332,0,0,1,.32.274s-.026.175-.33.154-.32-.2-.32-.2A.3.3,0,0,1,117.26,341.761Z" transform="translate(-116.462 -340.36)" fill="#c8856a"/>
          <path id="Path_2639" data-name="Path 2639" d="M128.166,335.97s.089-.26.26-.171.112.253-.037.288c0,0,.318.105.234.274s-.363,0-.421-.1c0,0-.058.262-.281.168s0-.316,0-.316-.341-.133-.154-.288S128.166,335.97,128.166,335.97Z" transform="translate(-124.721 -335.781)" fill="#fafafa"/>
          <path id="Path_2640" data-name="Path 2640" d="M118.856,349.4s-.026-.274.166-.262.206.182.084.278c0,0,.334-.037.323.154s-.332.143-.423.087c0,0,.054.262-.187.269s-.131-.288-.131-.288-.365.019-.26-.2S118.856,349.4,118.856,349.4Z" transform="translate(-117.595 -346.014)" fill="#fafafa"/>
          <path id="Path_2641" data-name="Path 2641" d="M144.54,339.32s.22-.29.051-.363-.234.182-.234.182-.168-.2-.246-.059.122.29.122.29-.234.124-.1.248.29-.073.29-.073.089.234.234.159S144.713,339.39,144.54,339.32Z" transform="translate(-137.272 -338.204)" fill="#fafafa"/>
        </g>
      </g>
    </g>
    <g id="freepik--Clouds--inject-15" transform="translate(18.736 28.601)">
      <path id="freepik--Cloud--inject-15" d="M299.7,29.943c0-.734-.8-1.244-1.715-1.329-1.074-.1-1.834.377-1.871,1.221-.7-.288-1.438-.1-1.385.667-.182-.211-.863-.2-1.109-.145a.954.954,0,0,0-.611.519.7.7,0,0,0-.063.4c-.409-.133-1.34-.215-1.572.159-.414.667,1.24.688,1.572.487.073.519,1.848.6,2.278.126a1.978,1.978,0,0,0,1.34.444,3.624,3.624,0,0,0,2.105-.6,2.059,2.059,0,0,0,2.709-.08,1.325,1.325,0,0,0,1.022.122c.248-.058.3-.166.3-.166a2.126,2.126,0,0,0,.456.138c.489.1,1.4,0,1.015-.444a1.148,1.148,0,0,0-.807-.2,1.233,1.233,0,0,0-1.555-.468c-.019-.508-.482-.9-1.132-1A1.5,1.5,0,0,0,299.7,29.943Z" transform="translate(-232.122 -28.601)" fill="#f0f0f0"/>
      <path id="freepik--cloud--inject-15-2" data-name="freepik--cloud--inject-15" d="M125.1,61.045c0-.734-.8-1.242-1.715-1.329-1.071-.1-1.831.377-1.857,1.221-.7-.288-1.441-.1-1.385.667-.182-.208-.865-.2-1.111-.145a.961.961,0,0,0-.6.522.713.713,0,0,0-.063.393c-.409-.133-1.338-.215-1.572.159-.414.669,1.24.7,1.574.487.07.519,1.848.606,2.278.126a1.949,1.949,0,0,0,1.338.444,3.619,3.619,0,0,0,2.105-.6,2.056,2.056,0,0,0,2.706-.08,1.314,1.314,0,0,0,1.022.122c.248-.058.306-.164.306-.164a2.224,2.224,0,0,0,.468.136c.487.1,1.4,0,1.013-.444a1.151,1.151,0,0,0-.8-.2,1.238,1.238,0,0,0-1.555-.468c-.019-.505-.482-.9-1.134-1A1.564,1.564,0,0,0,125.1,61.045Z" transform="translate(-98.377 -52.428)" fill="#f0f0f0"/>
      <path id="freepik--cloud--inject-15-3" data-name="freepik--cloud--inject-15" d="M55.339,32.691a1.963,1.963,0,0,0-.671-.124c-.22-.016-.288-.061-.33-.108a1.607,1.607,0,0,0-1.927-.571,1.233,1.233,0,0,0-1.455-.821c.023-.678-.842-1.4-1.619-1.572a1.739,1.739,0,0,0-1.822.4c-.456-.9-2.241-1.132-3.207-.664a2.378,2.378,0,0,0-1.258,1.057,2.124,2.124,0,0,0-.208,1.013,1.812,1.812,0,0,0-1.637-.234c-.54.211-.582.618-.608,1.034a1.923,1.923,0,0,0-.982-.016c-.344.1-.54.37-.494.587-.269-.014-.915.2-.84.489.082.32.816.281,1.1.281a5.188,5.188,0,0,0,.77-.122,1.191,1.191,0,0,0,.4.075.722.722,0,0,0,.741-.379,2.676,2.676,0,0,0,1.616.994,3.45,3.45,0,0,0,3.275-.7,1.221,1.221,0,0,0,.323.393,1.871,1.871,0,0,0,1,.4c.444.042,1.637.1,1.974-.608.234.468,1.3.685,2.105.568a3.3,3.3,0,0,0,.905-.271,5.261,5.261,0,0,0,.519-.313.442.442,0,0,1,.444-.03,2.638,2.638,0,0,0,1.764,0C55.669,33.262,55.753,32.883,55.339,32.691Z" transform="translate(-38.274 -28.902)" fill="#f0f0f0"/>
    </g>
    <g id="freepik--Shadow--inject-15" transform="translate(50.008 110.233)">
      <ellipse id="freepik--shadow--inject-15-2" data-name="freepik--shadow--inject-15" cx="15.954" cy="9.211" rx="15.954" ry="9.211" fill="#719f7f" opacity="0.3"/>
    </g>
    <g id="freepik--Character--inject-15" transform="translate(49.911 32.12)">
      <g id="freepik--Faun--inject-15" transform="translate(0 0)">
        <g id="freepik--Bottom--inject-15" transform="translate(5.472 31.334)">
          <path id="Path_2642" data-name="Path 2642" d="M242.441,376.575c-.341.185-.365.91-.344,1.918.026,1.207-.037,2.87-.037,2.87a6.339,6.339,0,0,0,5.614,2.732c2.807-.255,2.435-2.051,2.435-2.051a49.491,49.491,0,0,0-1.513-4.769C248.02,376.315,242.441,376.575,242.441,376.575Z" transform="translate(-231.041 -330.011)" fill="#37474f"/>
          <path id="Path_2643" data-name="Path 2643" d="M259.637,387.986l-1.085-6.18L258,381.6l.884,6.379A6.38,6.38,0,0,0,259.637,387.986Z" transform="translate(-243.253 -333.885)" fill="#455a64"/>
          <path id="Path_2644" data-name="Path 2644" d="M265.9,383.973c-.159-.491-.339-1.076-.515-1.7a15.484,15.484,0,0,0-1.81-4.559v-.234h0a1.17,1.17,0,0,0-.386,1.17c.159.484.879,4.117,1.263,6.07A2.53,2.53,0,0,0,265.9,383.973Z" transform="translate(-247.191 -330.729)" fill="#455a64"/>
          <path id="Path_2645" data-name="Path 2645" d="M239.494,198.911a13.972,13.972,0,0,1,4.014,7.592,2.837,2.837,0,0,0-1.45-1.258,8.657,8.657,0,0,1,1.305,3.464l-1.092-.793a14.176,14.176,0,0,1,.367,4.6c-.285,2.07-.865,5.146-.3,6.379s1.062,2.147.451,3.532a3.289,3.289,0,0,0-.992-1.96s1.2,1.717.26,2.807a2.133,2.133,0,0,0-.73-1.317,2.531,2.531,0,0,1-.6,1.422c-.842.7-5.759,3.742-6.949,4.531s-1.962,2.016-1.169,3.251,1.871,1.193,2.454,2.629c-1.263-.561-1.614-.318-1.614-.318a20.021,20.021,0,0,0,1.123,1.918c.5.744,1.846,2.477,1.937,3.6a3.09,3.09,0,0,0-1.057-.51s.571,1.467,1.237,2.807c.6,1.2.318,2.056-1.712,1.845a6.285,6.285,0,0,1-3.024-.985c-.821-.412-1.244-.833-1.127-1.5a20,20,0,0,0,.021-3.768,3.069,3.069,0,0,0-.524,2.026c-1.17-1.691-.416-2.641-.416-3.944a7.091,7.091,0,0,0-.833-3.871,2.91,2.91,0,0,0,0,1.188,2.6,2.6,0,0,1-.667-1.955.78.78,0,0,0-.295,1.029,2.616,2.616,0,0,1-.234-2.175c-.545.042-.8.732-.8.732s0-1.242.854-1.516a1.1,1.1,0,0,1-1.062-1.1.98.98,0,0,0,1.127.077,1.1,1.1,0,0,1,.6-.994c-.713.056-.844.253-.844.253a1.342,1.342,0,0,1,1.074-.681,3.176,3.176,0,0,0,2.065-.858c.861-.737,2.026-2.91,3.3-3.916s1-.9,1-.9l-.479-2.159a3.105,3.105,0,0,0-.073,1.294,3.741,3.741,0,0,1-.309-2.631c-.559,1.169-1.069,1.088-1.069,1.088a3.743,3.743,0,0,0,.545-2.051c-.084-1.069-2.21-4.949-2.21-4.949a43.136,43.136,0,0,1,.936-6.472C233.188,202.034,238.62,198.268,239.494,198.911Z" transform="translate(-219.412 -193.872)" fill="#263238"/>
          <path id="Path_2646" data-name="Path 2646" d="M199.9,400.229c-.856-.016-.756.6-1.209,1.759s-1.247,3.988-1.247,3.988.662,2.267,2.6,2.645c2.379.468,4.416-.173,5.359-1.712,0,0-.44-4.463-.613-4.982S199.9,400.229,199.9,400.229Z" transform="translate(-196.858 -348.157)" fill="#37474f"/>
          <path id="Path_2647" data-name="Path 2647" d="M214.715,414.172l.468-6.842h-.648a67.562,67.562,0,0,0-.765,6.863,6.727,6.727,0,0,0,.945-.021Z" transform="translate(-209.368 -353.597)" fill="#455a64"/>
          <path id="Path_2648" data-name="Path 2648" d="M204.03,401.26c-.4-.112-.765-.213-1.06-.29a30.617,30.617,0,0,0-2.39,6.982,3.1,3.1,0,0,0,1.871,1.237c.108.021.215.037.323.054C202.9,407.159,203.251,403.12,204.03,401.26Z" transform="translate(-199.263 -348.725)" fill="#455a64"/>
          <path id="Path_2649" data-name="Path 2649" d="M201.486,201.721l-1.534-.641c-2.187,1.462-4.348,6.458-3.509,8.5a2.773,2.773,0,0,1,1.184-1.616,6.2,6.2,0,0,0-.465,4.4,4.254,4.254,0,0,1,.657-1.453A11.82,11.82,0,0,0,198,215.6c.487,2.285,1.808,4.98,1.527,5.848s-.884.73-.884.73.62.487.978.131a2.339,2.339,0,0,0-.077,1.518s.187-.765.491-.8a16.074,16.074,0,0,1,.115,3.976,7.207,7.207,0,0,1-.538,1.665c-1.081,1.584-2.122,1.146-2.122,1.146s.484.636.821.681a.982.982,0,0,0-.234,1.151c.4-.777.713-.234.713-.234.4,1.364,1.5,3.34,1.467,6.208a23.839,23.839,0,0,1-.189,2.854c-.138.835-.234,1.965-1.347,2.414a1.911,1.911,0,0,0-1.387,1.693c.746-.826,1.1-.643,1.1-.643A1.429,1.429,0,0,0,198,245.6c.318-.622.531-.4.531-.4a3.871,3.871,0,0,1-.22,3.335,2.441,2.441,0,0,0,1.7,2.339,3.41,3.41,0,0,0,3.661-1.319s-.407-1.361-.611-2.51c-.218-1.223,1.258-2,.182-3.534-.737-1.055.727-7.812,1.736-9.777a3.971,3.971,0,0,0,.655-3.041.9.9,0,0,1,.643.786,3.817,3.817,0,0,0-.416-2.589c-.468-.861.182-2.821.7-3.944a31.029,31.029,0,0,0,1.151-3.12,2.148,2.148,0,0,1,.049,1.375c.617-.685.66-1.834.688-3.275a14.8,14.8,0,0,1,1.153-5.041c.578-1.125,1.574-5.911.851-8.154C210.049,204.305,203.413,202.266,201.486,201.721Z" transform="translate(-195.952 -195.59)" fill="#263238"/>
          <path id="Path_2650" data-name="Path 2650" d="M225.393,305.273a1.778,1.778,0,0,1-.2-.8,7.018,7.018,0,0,1,0-.83c.023-.554.084-1.1.157-1.654.152-1.1.37-2.182.629-3.258a18.244,18.244,0,0,1,1.008-3.162,10.336,10.336,0,0,0,.657-1.5,2.6,2.6,0,0,0,.037-1.567h0a.108.108,0,0,1,.07-.136.1.1,0,0,1,.063,0,.967.967,0,0,1,.276.129,1.021,1.021,0,0,1,.234.2,1.043,1.043,0,0,1,.234.554h-.234a3.705,3.705,0,0,0-.33-2.388l-.07-.138-.07-.159a1.485,1.485,0,0,1-.08-.327,3.072,3.072,0,0,1-.012-.655,6.9,6.9,0,0,1,.255-1.258,11.5,11.5,0,0,1,.433-1.2c.168-.393.358-.763.51-1.155.316-.779.594-1.574.856-2.374h0a.065.065,0,0,1,.122-.007,1.45,1.45,0,0,1,.1.356,2.031,2.031,0,0,1,.028.358,2.962,2.962,0,0,1-.087.7l-.091-.047a2.806,2.806,0,0,0,.608-1.546c.077-.564.094-1.134.119-1.705a16.108,16.108,0,0,1-.063,1.712,4.211,4.211,0,0,1-.171.847,2.17,2.17,0,0,1-.416.763.054.054,0,0,1-.091-.044h0a3.188,3.188,0,0,0,.07-.681,2.692,2.692,0,0,0-.033-.337,1.458,1.458,0,0,0-.094-.316h.122c-.248.807-.515,1.609-.819,2.4-.147.4-.332.784-.5,1.17a11.591,11.591,0,0,0-.416,1.181,6.647,6.647,0,0,0-.234,1.219,2.635,2.635,0,0,0,.014.608,1.288,1.288,0,0,0,.07.283l.056.131.075.143a3.873,3.873,0,0,1,.36,2.533.114.114,0,0,1-.225-.012h0a.76.76,0,0,0-.346-.589.936.936,0,0,0-.208-.1l.131-.138a2.807,2.807,0,0,1-.047,1.693,10.306,10.306,0,0,1-.678,1.527,12.563,12.563,0,0,0-.58,1.534c-.168.524-.318,1.053-.468,1.586-.278,1.067-.51,2.147-.688,3.235-.089.543-.164,1.09-.2,1.637a7.484,7.484,0,0,0-.016.826A1.78,1.78,0,0,0,225.393,305.273Z" transform="translate(-218.107 -257.352)"/>
          <path id="Path_2651" data-name="Path 2651" d="M216.564,330.886a1,1,0,0,1-.975.592c-.082-.016-.108.061-.061.117a1.431,1.431,0,0,0,.512.393,2.2,2.2,0,0,1-1.682-.222c-.063-.037-.185.012-.136.1a1.207,1.207,0,0,1,.234,1.081,2.047,2.047,0,0,0-.5-.559,3.538,3.538,0,0,0-.905-.444,2.019,2.019,0,0,1-.865-.517.868.868,0,0,1-.213-.821c.014-.04-.047-.126-.077-.068-.3.582.215,1.144.718,1.392.313.154.653.246.961.407a1.794,1.794,0,0,1,.8.826.115.115,0,0,0,.189.035,1.038,1.038,0,0,0-.023-1.146,2.444,2.444,0,0,0,1.827.04c.1-.037,0-.15-.051-.166a1.472,1.472,0,0,1-.531-.285.884.884,0,0,0,.875-.669C216.669,330.928,216.6,330.826,216.564,330.886Z" transform="translate(-207.863 -294.75)"/>
          <path id="Path_2652" data-name="Path 2652" d="M196.993,181.268a6.454,6.454,0,0,0-.519.763,1.4,1.4,0,0,0-.234.669.554.554,0,0,0,.37.552c.262.063.561-.131.793,0a6.315,6.315,0,0,0-2.44,4.173.384.384,0,0,0,.037.281.37.37,0,0,0,.283.108,3.815,3.815,0,0,0,1.934-.386c-.494.234-.14,2.674-.054,3.106.178.9.15,1.775,1.277,1.771a15.86,15.86,0,0,0,1.913-.122,4.767,4.767,0,0,0,.171,1.691,1.612,1.612,0,0,0,1.193,1.106c.683.1,1.333-.4,2.021-.358a6.837,6.837,0,0,1,1.4,3.8.361.361,0,0,0,.117.316.353.353,0,0,0,.264.016,3.805,3.805,0,0,0,2.573-1.969,4.615,4.615,0,0,1,.2,3.569c.868.276,1.738-.435,2.248-1.188a7.017,7.017,0,0,0,1.148-3.1c.589.234.428,1.464,1.062,1.441a.732.732,0,0,0,.482-.3,5.656,5.656,0,0,0,1.228-5.027.879.879,0,0,0,1.392.117,2.083,2.083,0,0,0,.426-1.551,7.531,7.531,0,0,0-.545-2.554,1.8,1.8,0,0,1,1.048.905c-.035-.07.374-.952.4-1.113a3.76,3.76,0,0,0,0-1.254,2.931,2.931,0,0,0-.957-1.9,3.642,3.642,0,0,0,.849.367.409.409,0,0,0,.269.012c.175-.07.185-.313.154-.5a4.6,4.6,0,0,0-.5-1.436,3.258,3.258,0,0,0-.76-1.076c.292.04.58.1.875.122a.311.311,0,0,0,.18-.028.262.262,0,0,0,.087-.22,1.992,1.992,0,0,0-.676-1.326,10.14,10.14,0,0,0-4.068-2.589,9.761,9.761,0,0,0-1.93-.451,13.53,13.53,0,0,0-2.22-.063,31.378,31.378,0,0,0-6.594.961,11.947,11.947,0,0,0-2.748.83,7.291,7.291,0,0,0-2.159,1.85Z" transform="translate(-194.951 -177.607)" fill="#37474f"/>
        </g>
        <g id="freepik--Top--inject-15">
          <path id="freepik--Arm--inject-15" d="M276.167,117.972a4.313,4.313,0,0,0-2.063-2.505c-.908-.5-2.39-.777-3.813-1.4a33.3,33.3,0,0,1-3.371-1.567,8.655,8.655,0,0,0-4.461-.587l1.5,5.773Z" transform="translate(-241.198 -95.879)" fill="#af6152"/>
          <g id="freepik--Chest--inject-15" transform="translate(7.399 16.042)">
            <path id="Path_2653" data-name="Path 2653" d="M203.19,119.462c.014-4.11,1.96-4.718,1.96-4.718s1.637-.5,2.851-.957c1.125-.428,4.58-1.113,4.58-1.113l4.477-.444s2.2.877,3.544,5.438c.582,1.976.491,4.868-.028,5.408a11.041,11.041,0,0,1,.03,3.041,17.774,17.774,0,0,0-.206,3.462,12.863,12.863,0,0,1,.468,3.67,17.475,17.475,0,0,1-3.742,8.32,12.788,12.788,0,0,0-4.624-3.885,42.514,42.514,0,0,0-5.38-2.278c-1.324-.447-2.573-2.3-1.8-3.651a9.286,9.286,0,0,0,.784-1.35,3.261,3.261,0,0,0,.016-2.517,10.06,10.06,0,0,1-.821-1.17,11.286,11.286,0,0,1-1.637-4.021Z" transform="translate(-203.19 -112.23)" fill="#c8856a"/>
            <path id="Path_2654" data-name="Path 2654" d="M230.364,124.663a13.236,13.236,0,0,0-1.429-3.3c-1.081.281-1.668,3.071-3.892,3.172-1.577.07-4.837-1.3-6.446-1.338s-2.9,3.424-2.627,4.678,2.465,4.746,5.74,4.21,2.783,1.637,2.493,2.444a3.188,3.188,0,0,0,.632,2.477c.374.529-.056.559-.161,2.538s.147,1.965.643,2.709.482.7.309,2.15a21.41,21.41,0,0,0-.087,2.606,9.442,9.442,0,0,1,1.343,1.565,15.611,15.611,0,0,0,2.037-3.116c-.014-.213-.021-.412-.016-.592.051-1.743-.828-2.636-.522-3.2s1.153-2.126.447-3.233a3.913,3.913,0,0,1-.508-3.3c.313-.985-.323-2.22-.5-2.807s.3-1.892.674-1.927a2.131,2.131,0,0,0,1.836-.33C230.855,129.53,230.946,126.639,230.364,124.663Z" transform="translate(-212.952 -119.224)" fill="#af6152" opacity="0.3"/>
            <path id="Path_2655" data-name="Path 2655" d="M212.631,174.56c.337.391.7.748,1.064,1.125a4.542,4.542,0,0,1,1.359,2.288c0,.033-.042.084-.061.037a4.975,4.975,0,0,0-.657-1.2c-.285-.377-.386-.5-.685-.861-.157-.194-.276-.323-.468-.557s-.316-.384-.545-.683a3.4,3.4,0,0,1-.358-.585A3.91,3.91,0,0,0,212.631,174.56Z" transform="translate(-210.154 -159.644)" fill="#af6152"/>
            <path id="Path_2656" data-name="Path 2656" d="M226.195,125.465c-.786-.554-4.416-.657-5.307-.667s-.868.112.613.255a18.809,18.809,0,0,1,4.486.7c.744.356,1.4.791,1.146.512a5.018,5.018,0,0,0-.938-.8Z" transform="translate(-216.289 -121.858)" fill="#af6152"/>
            <path id="Path_2657" data-name="Path 2657" d="M255.554,117.8c-.152.234-.426,1.046-.25,1.09s.269-.561.7-1.069,1.427-1.586,1.637-1.813.994-1.148.257-.5A31.11,31.11,0,0,0,255.554,117.8Z" transform="translate(-243.071 -114.563)" fill="#af6152"/>
            <path id="Path_2658" data-name="Path 2658" d="M260.207,200.256a1.222,1.222,0,0,0-.084-.129.175.175,0,0,1,0-.182c.028-.049.105-.126.168-.084-.023-.014.028,0,.033.016l.028.026c.026.021.051.047.075.07a1.014,1.014,0,0,1,.108.136,1.068,1.068,0,0,1,.126.323c.063.274.059.69-.22.847-.019,0-.054.023-.073,0-.105-.072-.075-.2-.049-.3v-.133a.546.546,0,0,0,0-.087V200.7a.3.3,0,0,0-.014-.1h0a.87.87,0,0,0-.1.087c-.087.089-.145.2-.222.292-.037.047-.077-.014-.075-.051a.618.618,0,0,1,.14-.323,1.252,1.252,0,0,1,.206-.211h0A1.321,1.321,0,0,0,260.207,200.256Z" transform="translate(-246.643 -179.354)" fill="#af6152"/>
            <g id="Group_465" data-name="Group 465" transform="translate(6.117 7.635)" opacity="0.48">
              <path id="Path_2659" data-name="Path 2659" d="M257.518,154.753c.7.234.629,1.237.529,1.8a2.257,2.257,0,0,0,.091,1.361c.14.339.334.657.451,1.01a1.991,1.991,0,0,1,.037,1.085,7.707,7.707,0,0,0-.349,1.361,4.65,4.65,0,0,0,.3,1.4,3.77,3.77,0,0,1,.037,1.8.1.1,0,0,1-.119-.035.309.309,0,0,1-.042-.129,10.117,10.117,0,0,0-.3-1.422,11.461,11.461,0,0,1-.323-1.1,2.487,2.487,0,0,1,.08-1.207,3.419,3.419,0,0,0,.269-1.352c-.091-.7-.646-1.258-.648-2,0-.858.653-1.715-.068-2.447C257.422,154.847,257.457,154.734,257.518,154.753Z" transform="translate(-250.871 -152.441)" fill="#af6152"/>
              <path id="Path_2660" data-name="Path 2660" d="M229.515,149.791a5.158,5.158,0,0,0,3.041.353,7.383,7.383,0,0,0,2.533-.989,6.674,6.674,0,0,1,.77-.4,3.313,3.313,0,0,1,1.715-.028,6.467,6.467,0,0,0,2.767-.426c.5-.189-1.855-.084-2.311-.11a2.758,2.758,0,0,1-.936-.234,1.01,1.01,0,0,1-.468-.646,8.682,8.682,0,0,1-.18-.863c-.117-.748-.468-1.871-.751-1.5a.213.213,0,0,0-.033.136,9.485,9.485,0,0,1,.094,2.573c-.229.774-1.046,1.188-1.927,1.513a8.839,8.839,0,0,1-2.889.589C229.929,149.775,228.932,149.466,229.515,149.791Z" transform="translate(-229.342 -144.873)" fill="#af6152"/>
              <path id="Path_2661" data-name="Path 2661" d="M262.407,208.445a5.209,5.209,0,0,1,.323,1.2,9.422,9.422,0,0,1,.175,1.113,7.234,7.234,0,0,1-.318,2.32c0,.028-.035.019-.033,0a11.593,11.593,0,0,0,.051-2.187c-.047-.36-.108-.718-.161-1.076-.03-.189-.063-.379-.086-.568a4.047,4.047,0,0,1-.023-.753C262.334,208.466,262.384,208.4,262.407,208.445Z" transform="translate(-254.611 -193.562)" fill="#af6152"/>
              <path id="Path_2662" data-name="Path 2662" d="M274.207,206.691c.021-.26.035-.519.054-.779,0-.044,0-.561.112-.536.065.014.077.075.084.136.014.131.014.262.016.393,0,.234,0,.468-.019.7-.019.292-.047.585-.082.877-.131.367-.276.739-.433,1.106a18.056,18.056,0,0,0,.267-1.9Z" transform="translate(-263.508 -191.224)" fill="#af6152"/>
              <path id="Path_2663" data-name="Path 2663" d="M235.129,201.862c.561.613,1.144,1.209,1.7,1.834a11.314,11.314,0,0,1,1.82,2.788c.1.222.194.447.283.671-.234-.2-.468-.4-.7-.592a12.039,12.039,0,0,0-.777-1.4,12.83,12.83,0,0,0-.823-1.109c-.3-.372-.641-.7-.947-1.069-.4-.468-.8-.952-1.186-1.436a5.559,5.559,0,0,1-.671-1.029.435.435,0,0,1-.061-.3A19.053,19.053,0,0,0,235.129,201.862Z" transform="translate(-232.725 -187.274)" fill="#af6152"/>
              <path id="Path_2664" data-name="Path 2664" d="M267.7,167.75c-.168.147-.351.285-.529.416a4.847,4.847,0,0,1-.734.454,5.492,5.492,0,0,1-1.824.484c-.021,0-.026.044,0,.049a3.37,3.37,0,0,0,1.951-.318,3.743,3.743,0,0,0,.812-.5,3.443,3.443,0,0,0,.309-.295C267.688,167.942,267.7,167.846,267.7,167.75Z" transform="translate(-256.349 -162.399)" fill="#af6152"/>
              <path id="Path_2665" data-name="Path 2665" d="M242.8,182.917a5.753,5.753,0,0,1-1.511.218,3.2,3.2,0,0,1-1.3-.377,2.229,2.229,0,0,1-.863-1.015,4.5,4.5,0,0,1-.257-.72,3.431,3.431,0,0,1-.11-.718.524.524,0,0,1,.028-.234c.051.023.07.087.084.143a7.483,7.483,0,0,0,.515,1.38,1.752,1.752,0,0,0,1.223,1.067,5.89,5.89,0,0,0,1.911.075.479.479,0,0,1,.353.04.091.091,0,0,1,.04.058C242.919,182.879,242.853,182.907,242.8,182.917Z" transform="translate(-236.555 -171.837)" fill="#af6152"/>
              <path id="Path_2666" data-name="Path 2666" d="M267.566,193.11a.909.909,0,0,1,.082-.044,4.715,4.715,0,0,0,.809-.414,2.392,2.392,0,0,0,.667-.7,3.021,3.021,0,0,0,.36-1.127,5.755,5.755,0,0,0,.063-1.186c0-.019.016-.016.019,0a4.372,4.372,0,0,1,.136,1.336,2.767,2.767,0,0,1-.349,1.116,2.378,2.378,0,0,1-.749.8,1.988,1.988,0,0,1-.512.234.992.992,0,0,1-.531.047s-.021-.014-.021-.026a.035.035,0,0,1,.026-.033Z" transform="translate(-258.605 -179.156)" fill="#af6152"/>
              <path id="Path_2667" data-name="Path 2667" d="M265.534,182.662c-.054-.014-.021-.082,0-.108.047-.077.255-.124.337-.157l.234-.1a3.812,3.812,0,0,0,.442-.234,4.211,4.211,0,0,0,.767-.643,3.057,3.057,0,0,0,.575-.842c.08-.166.157-.332.234-.5-.019.187-.03.372-.035.559-.014.028-.023.058-.037.089a4.007,4.007,0,0,1-.643,1,3.288,3.288,0,0,1-.819.639,2.806,2.806,0,0,1-.468.211,1.128,1.128,0,0,1-.587.087Z" transform="translate(-257.046 -171.845)" fill="#af6152"/>
              <path id="Path_2668" data-name="Path 2668" d="M230.494,172.029a6.369,6.369,0,0,0,2.451.936,9.368,9.368,0,0,0,2.938-.04c.051,0,.049.072,0,.082a8.037,8.037,0,0,1-3.087.234,4.646,4.646,0,0,1-2.6-1.041C230.077,172.069,230.363,171.952,230.494,172.029Z" transform="translate(-229.975 -165.658)" fill="#af6152"/>
              <path id="Path_2669" data-name="Path 2669" d="M240.175,196.384a2.68,2.68,0,0,1-.262-.491,2.91,2.91,0,0,1-.154-.6c-.021-.138-.037-.278-.056-.421a.327.327,0,0,1,0-.117.119.119,0,0,1,.072-.089h.026a.054.054,0,0,1,.019.037,3.851,3.851,0,0,0,.33,1.081,2.872,2.872,0,0,0,.267.468,2.734,2.734,0,0,0,.746.73,3.776,3.776,0,0,0,2.267.433c.1,0,.213,0,.262.082a3.469,3.469,0,0,1-.917.168,3.087,3.087,0,0,1-.746-.065,2.851,2.851,0,0,1-1.853-1.226Z" transform="translate(-237.275 -183.022)" fill="#af6152"/>
            </g>
            <path id="Path_2670" data-name="Path 2670" d="M218.863,199.467c-.012.344-.021.69-.03,1.034a9.471,9.471,0,0,1-1.637-1.9,4.1,4.1,0,0,0-.049,1,6.081,6.081,0,0,1-1.925-2.255,1.319,1.319,0,0,0-.264-.414.4.4,0,0,0-.456-.077c-.288.178-.094.7-.356.917-.2.164-.505.023-.671-.171a2.34,2.34,0,0,0-.5-.578c-.234-.131-.6,0-.571.246l-.608-.842a.25.25,0,0,0-.143-.117c-.138-.028-.211.157-.32.234-.194.154-.468-.028-.622-.234a3.992,3.992,0,0,1-.484-2.493.84.84,0,0,0-.664.468,2.461,2.461,0,0,0-.234.812,1.969,1.969,0,0,1-.276-1.4,1.148,1.148,0,0,0,.04-.426.281.281,0,0,0-.3-.234.391.391,0,0,0-.213.189,5.334,5.334,0,0,0-.091,5.008,9.66,9.66,0,0,0,2.678,3.34A21.05,21.05,0,0,0,214.8,203.9a12.811,12.811,0,0,0,4.678,1.663,2.178,2.178,0,0,0,2.117-.816,12.9,12.9,0,0,0,1.586-2.227,9.622,9.622,0,0,0,1.661-7.363,2.4,2.4,0,0,0-.58-1.74,16.369,16.369,0,0,1-.25,2.192.662.662,0,0,0-.218-.281.234.234,0,0,0-.316.063.351.351,0,0,0-.021.122q-.056.886-.108,1.775l-.384-.281q-.5,1.78-1.006,3.558a1.726,1.726,0,0,0-.33-1.226c.15.157-.26,1.305-.323,1.506-.108.337-.218,1.015-.688.713-.288-.187-.468-.83-.685-1.116A4.231,4.231,0,0,0,218.863,199.467Z" transform="translate(-206.805 -174.135)" fill="#37474f"/>
            <path id="Path_2671" data-name="Path 2671" d="M223.145,126.058a.585.585,0,0,1,.489-.561.606.606,0,0,1,.629.386,3.331,3.331,0,0,1,1.761-2.014,1.832,1.832,0,0,0-.126.936,2.105,2.105,0,0,1,1.029-1.139,6.184,6.184,0,0,1,1.485-.505,2,2,0,0,1-.234,1.614,4.471,4.471,0,0,0,.884-.519,2.94,2.94,0,0,1-.2,2.514l.7-.246a.335.335,0,0,1,.267-.016.325.325,0,0,1,.126.29,2.758,2.758,0,0,1-.559,1.771l.6-.012a2.15,2.15,0,0,1-2.105,2.267,1.026,1.026,0,0,1-.255,1.35,1.993,1.993,0,0,1-1.441.341,2,2,0,0,1,1,1.773,7.5,7.5,0,0,0-.905-.192.154.154,0,0,0-.133.021c-.047.047-.019.126.012.182a4.565,4.565,0,0,1,.912,2.666,1.637,1.637,0,0,0-.872-.671,2.105,2.105,0,0,1,.482,2.285c-.173.412-.444.77-.627,1.17a.683.683,0,0,0-.117.447.948.948,0,0,0,.1.288c.026.049.105.206.161.218a2.889,2.889,0,0,1-1.331-.688,2.052,2.052,0,0,1-.26-.274,2.105,2.105,0,0,1-.341-.716,2.83,2.83,0,0,1-.108-.61,2.492,2.492,0,0,1,.152-1,1.429,1.429,0,0,0-.622.5c-.042.061-.1.133-.171.117a.147.147,0,0,1-.061-.037,1.246,1.246,0,0,1-.234-.952,3.12,3.12,0,0,1,.533-1.509,2,2,0,0,0-.835.531,1.5,1.5,0,0,1-.192-1.111,2.292,2.292,0,0,1,.515-1.022,5.535,5.535,0,0,1-1.127.536.33.33,0,0,1-.194.028c-.129-.028-.187-.178-.211-.309a1.852,1.852,0,0,1,.468-1.546,5.01,5.01,0,0,1-1.169.421,6.314,6.314,0,0,1-1.17.2,4.418,4.418,0,0,1-1.871-.325.33.33,0,0,1-.171-.119c-.075-.131.047-.288.157-.391l.634-.585a7.017,7.017,0,0,1-2.358-.468c-.234-.094-.5-.234-.566-.468-.115-.419.381-.73.543-1.132a6.943,6.943,0,0,1-1.759-.786.667.667,0,0,1-.356-.419c-.04-.3.3-.494.578-.6l1.548-.6a3.242,3.242,0,0,1-1.329-1.207,4.032,4.032,0,0,1,3.055-.356,2.339,2.339,0,0,1-.634-.842,4.882,4.882,0,0,1,3.705.947,2.124,2.124,0,0,1-.468-.872,2.79,2.79,0,0,1,2.5.98" transform="translate(-211.553 -120.603)" fill="#37474f"/>
          </g>
          <g id="freepik--Head--inject-15" transform="translate(5.76)">
            <path id="Path_2672" data-name="Path 2672" d="M218.464,65.7c-.954.341-1.4,1.441-.982,3.275.32,1.364,1.095,3.7,1.181,4.4a1.536,1.536,0,0,1-.533,1.495,1.181,1.181,0,0,0,1.2-.3,1.963,1.963,0,0,1-.426,1.235,1.186,1.186,0,0,0,1.324-.683l-.468-9.468Z" transform="translate(-212.378 -60.503)" fill="#37474f"/>
            <path id="Path_2673" data-name="Path 2673" d="M228.532,48.89c-.143.468.912.739,1.871.48.8-.218,1.607-.894,1.614-1.523.117-1.387-1.387-3.375-3.509-4.018a3.2,3.2,0,0,0-3.99,1.527,3.8,3.8,0,0,0,.033,2.61.932.932,0,0,1-.414,1.212A.973.973,0,0,1,223,48.67c-.185.7.751,1.446,1.546,1.4,1.017-.054,1.658-.816,1.527-2.147-.119-1.2.777-1.492,1.422-1.17A2.04,2.04,0,0,1,228.532,48.89Z" transform="translate(-216.711 -43.645)" fill="#719f7f"/>
            <path id="Path_2674" data-name="Path 2674" d="M224.949,48.471a1.207,1.207,0,0,1,.4.381.235.235,0,0,1,.023.042.523.523,0,0,0,.023-.1.2.2,0,0,1,.014-.091,1.219,1.219,0,0,0-.594-.449c0,.049.012.1.014.152A.9.9,0,0,1,224.949,48.471Zm.494-.234v-.211a1.476,1.476,0,0,0-.206-.154,1.426,1.426,0,0,0-.592-.234c.016.058.03.119.047.182a2.421,2.421,0,0,1,.515.234A1.983,1.983,0,0,1,225.442,48.237Zm-2.009.8-.073.037a.634.634,0,0,1-.1.033,1.038,1.038,0,0,0,.08.15.507.507,0,0,0,.082-.035.444.444,0,0,0,.105-.08l.016-.028a1.168,1.168,0,0,1-.11-.077Zm.384.2a.648.648,0,0,1-.089-.028.356.356,0,0,1-.112.14.715.715,0,0,1-.14.089,1.3,1.3,0,0,0,.115.112.571.571,0,0,0,.192-.2.6.6,0,0,0,.042-.11Zm1.668-1.9a2,2,0,0,0-.957-.353.469.469,0,0,0,.021.166,2.473,2.473,0,0,1,.915.381q.012-.1.028-.194Zm.786-1.838a2.573,2.573,0,0,1,.327.884,1,1,0,0,1,.143,0,2.512,2.512,0,0,0-.327-.957,2.722,2.722,0,0,0-.559-.664,2.862,2.862,0,0,0-.4-.288c-.049.042-.091.082-.133.124a3.012,3.012,0,0,1,.353.234,2.5,2.5,0,0,1,.6.667Zm.582-.377a2.989,2.989,0,0,1,.185,1.326.654.654,0,0,1,.1.03,2.348,2.348,0,0,0-.133-1.4,2.69,2.69,0,0,0-.468-.884,2.048,2.048,0,0,0-.234-.234l-.152.068a2.381,2.381,0,0,1,.29.3,2.5,2.5,0,0,1,.423.793Zm-1.315,1.719c.04.03.077.065.117.1a1.26,1.26,0,0,1,.1-.14c-.042-.04-.084-.075-.129-.11a2.48,2.48,0,0,0-.629-.372,1.918,1.918,0,0,0-.451-.138c0,.058-.012.119-.016.18a3.567,3.567,0,0,1,.426.131A2.505,2.505,0,0,1,225.538,46.846Zm.1-.753a2.572,2.572,0,0,1,.379.468,1.169,1.169,0,0,1,.138-.08,2.907,2.907,0,0,0-.433-.538,2.675,2.675,0,0,0-.634-.468,2.536,2.536,0,0,0-.318-.133c0,.023-.021.047-.03.068l-.033.091a1.972,1.972,0,0,1,.311.126,2.458,2.458,0,0,1,.608.465Zm4.224.274a3.2,3.2,0,0,0,.594-1.565c-.04-.033-.084-.063-.129-.1a3.305,3.305,0,0,1-.62,1.586,3.843,3.843,0,0,1-.744.849,2.482,2.482,0,0,1-.529.341,1.5,1.5,0,0,1,.089.145,3.272,3.272,0,0,0,.409-.255,3.766,3.766,0,0,0,.929-1.006Zm-.674-.739a3.193,3.193,0,0,0,.185-1.155,1.8,1.8,0,0,0-.065-.356l-.168-.075a1.573,1.573,0,0,1,.084.468,3.378,3.378,0,0,1-.2,1.095,4,4,0,0,1-.468,1.036,2.182,2.182,0,0,1-.435.468,1.8,1.8,0,0,1,.131.136,2.313,2.313,0,0,0,.407-.454,4.1,4.1,0,0,0,.529-1.16Zm2.877,1.275a2.713,2.713,0,0,0-.119-.29,1.587,1.587,0,0,1-.117.351,2,2,0,0,1-.372.51,3.743,3.743,0,0,1-1.083.73,3.057,3.057,0,0,1-1.12.292,2.456,2.456,0,0,1-.489-.023v.185a2.491,2.491,0,0,0,.575.021,3.508,3.508,0,0,0,1.251-.37,3.459,3.459,0,0,0,1.125-.819,1.836,1.836,0,0,0,.349-.585Zm-7.929,2.381a.826.826,0,0,1-.108,0,.165.165,0,0,1,0,.033.45.45,0,0,1-.026.124.935.935,0,0,1-.138.255l-.016.021a.608.608,0,0,0,.129.049.964.964,0,0,0,.143-.306.593.593,0,0,0,.016-.175Zm4.018-5.518c-.07-.014-.138-.021-.206-.03a2.877,2.877,0,0,1,.339,1.422,3.148,3.148,0,0,1-.561,1.651.742.742,0,0,1,.082.068,2.912,2.912,0,0,0,.356-3.111Zm2.889,2.645a2.1,2.1,0,0,0,.306-.746c-.033-.042-.068-.082-.1-.124a2.473,2.473,0,0,1-.363.819,4.187,4.187,0,0,1-.8.908,2.828,2.828,0,0,1-.936.524,1.852,1.852,0,0,1-.508.089c.021.061.04.119.056.18a2.83,2.83,0,0,0,1.532-.7,4.281,4.281,0,0,0,.828-.947Zm-3.324-1.424a2.573,2.573,0,0,0-.372-1.006c-.051-.082-.11-.168-.173-.25a1.241,1.241,0,0,0-.208.03,1.94,1.94,0,0,1,.234.3,2.381,2.381,0,0,1,.349.936,2.573,2.573,0,0,1-.185,1.373c-.023.056-.049.11-.077.164.033.016.07.033.1.051h0a2.515,2.515,0,0,0,.234-.519A2.386,2.386,0,0,0,227.718,44.986Zm-3.179,4.29a.762.762,0,0,0-.03-.126c-.03.021-.065.037-.1.056a.875.875,0,0,1-.026.468,1.092,1.092,0,0,1-.042.105.152.152,0,0,0,.047,0l.091-.019a.834.834,0,0,0,.037-.124A.971.971,0,0,0,224.539,49.276Zm.3-.311a.78.78,0,0,0-.105-.11,1.028,1.028,0,0,1-.068.119.565.565,0,0,1,.072.077.837.837,0,0,1,.157.32.655.655,0,0,1,.016.178.989.989,0,0,0,.119-.1.678.678,0,0,0-.014-.1A.912.912,0,0,0,224.837,48.965Z" transform="translate(-216.926 -43.71)" opacity="0.2"/>
            <path id="Path_2675" data-name="Path 2675" d="M227.522,55.524c.061.03.094.049.124.068-.664-.561-1.668-.788-2.2.082-.283.468-.112,1.132-.234,1.831a1.258,1.258,0,0,1-1,.987,1.041,1.041,0,0,1-1.17-1.05c-.185.7.751,1.446,1.546,1.4,1.017-.054,1.658-.816,1.527-2.147C225.98,55.493,226.876,55.205,227.522,55.524Z" transform="translate(-216.742 -52.416)" opacity="0.35"/>
            <path id="Path_2676" data-name="Path 2676" d="M232.777,68.481c-.234-.482.094-.821.061-1.338a4.25,4.25,0,0,0-1.649-2.741c-.587-.306-.884.936-1.871,1.069-1.043.152-2.538-.741-3.539.18.468,1.354-.325,2.992-.494,3.618-.194.73.25,1.322-.734.384a9.908,9.908,0,0,0-.042,2.145s.234,2.437.281,3.408c.075,1.637-.989,1.895-.989,1.895l2,.2a17.331,17.331,0,0,0,6.1-.98c-.858-.136-1.4-.2-1.455-.905-.044-.505-.056-.84-.056-.84a2.07,2.07,0,0,0,.84-.262,5.015,5.015,0,0,0,1.778-1.916,7.512,7.512,0,0,0,.15-2.426A3.67,3.67,0,0,0,232.777,68.481Z" transform="translate(-217.34 -59.509)" fill="#c8856a"/>
            <path id="Path_2677" data-name="Path 2677" d="M232.638,107.607c-.484-.655-.886-1.366-1.305-2.063,0-.019-.033,0-.026.012a6.715,6.715,0,0,0,1.1,2.105,7.953,7.953,0,0,0,1.7,1.75c.037.028.068,0,.037-.044A20.351,20.351,0,0,1,232.638,107.607Z" transform="translate(-223.09 -91.059)" fill="#af6152" opacity="0.5"/>
            <path id="Path_2678" data-name="Path 2678" d="M235.9,99.162a7.513,7.513,0,0,1-3.275-.589A3.856,3.856,0,0,1,231,96.43s.192,2.014,1.434,2.662a10.193,10.193,0,0,0,3.509.936C235.931,99.747,235.912,99.459,235.9,99.162Z" transform="translate(-222.856 -84.083)" fill="#af6152"/>
            <path id="Path_2679" data-name="Path 2679" d="M237.331,75.833a1.118,1.118,0,0,1-.363.234.1.1,0,0,1-.058.014.091.091,0,0,1-.07-.119.267.267,0,0,1,.094-.129.985.985,0,0,1-.3.285.526.526,0,0,1-.159.087.171.171,0,0,1-.168-.042.1.1,0,0,1,.021-.154,1.17,1.17,0,0,1-.468.29.171.171,0,0,1-.1.014.133.133,0,0,1-.084-.15.351.351,0,0,1,.084-.166.751.751,0,0,1-.32.044.1.1,0,0,1-.07-.023c-.03-.037,0-.091.03-.126a1.064,1.064,0,0,1,.363-.267c.066-.028.367-.157.419-.122l-.309-.211a1.273,1.273,0,0,1,1.013.063c-.063-.07-.126-.182-.056-.234a.161.161,0,0,1,.164-.014c.218.073.615.407.4.657A.572.572,0,0,1,237.331,75.833Z" transform="translate(-226.193 -67.736)" fill="#263238"/>
            <path id="Path_2680" data-name="Path 2680" d="M240.158,82.406a.617.617,0,0,0,.585.234c.281-.019.522-.269.468-.5s-.388-.327-.664-.288C240.013,81.94,240.038,82.188,240.158,82.406Z" transform="translate(-229.817 -72.908)" fill="#263238"/>
            <path id="Path_2681" data-name="Path 2681" d="M256.949,80.073a.592.592,0,0,1-.44.419.449.449,0,0,1-.585-.292c-.026-.234.234-.426.5-.482C256.921,79.608,256.984,79.839,256.949,80.073Z" transform="translate(-241.949 -71.259)" fill="#263238"/>
            <path id="Path_2682" data-name="Path 2682" d="M250.161,82.244l-1.548.594L248,80.106C248.734,79.956,249.481,81.081,250.161,82.244Z" transform="translate(-235.88 -71.567)" fill="#af6152"/>
            <path id="Path_2683" data-name="Path 2683" d="M245.29,94.43l1.34.278a.674.674,0,0,1-.8.552A.718.718,0,0,1,245.29,94.43Z" transform="translate(-233.795 -82.551)" fill="#af6152"/>
            <path id="Path_2684" data-name="Path 2684" d="M246.2,95.936a.73.73,0,0,0-.751-.608.5.5,0,0,0-.1.014.7.7,0,0,0,.54.61.676.676,0,0,0,.313-.016Z" transform="translate(-233.85 -83.238)" fill="#ffa8a7"/>
            <path id="Path_2685" data-name="Path 2685" d="M254.215,73.365a1.125,1.125,0,0,0,.4.189.169.169,0,0,0,.058,0,.1.1,0,0,0,.054-.131.288.288,0,0,0-.112-.112,1.034,1.034,0,0,0,.341.234.552.552,0,0,0,.171.061.168.168,0,0,0,.159-.065.105.105,0,0,0-.044-.152,1.193,1.193,0,0,0,.505.22.175.175,0,0,0,.1,0,.131.131,0,0,0,.061-.161.385.385,0,0,0-.108-.152.751.751,0,0,0,.323,0,.1.1,0,0,0,.065-.033c.026-.042,0-.091-.049-.122a1.064,1.064,0,0,0-.4-.208c-.068-.019-.386-.1-.433-.061l.276-.255a1.277,1.277,0,0,0-.992.213c.051-.077.1-.2.019-.253a.166.166,0,0,0-.164.012c-.206.1-.55.494-.3.7Z" transform="translate(-240.518 -65.797)" fill="#263238"/>
            <g id="freepik--Ear--inject-15" transform="translate(4.019 7.64)">
              <path id="Path_2686" data-name="Path 2686" d="M213.419,77.022a3.445,3.445,0,0,0,.985,2.746,2.442,2.442,0,0,0,2.131.688c.571-.1.936-.283.966-.571a1.471,1.471,0,0,0-.725-1.275C216.169,78.2,214.05,76.33,213.419,77.022Z" transform="translate(-213.366 -76.738)" fill="#c8856a"/>
              <path id="Path_2687" data-name="Path 2687" d="M217.632,79.453a1.676,1.676,0,0,0-.756-1.724,19.745,19.745,0,0,1-1.9-1.118c-.622-.381-1.141-.423-1.427-.021.358-.276.861.122,1.478.7a5.646,5.646,0,0,0,1.446,1.032C217.059,78.59,217.54,78.9,217.632,79.453Z" transform="translate(-213.507 -76.307)" fill="#263238"/>
              <path id="Path_2688" data-name="Path 2688" d="M222.087,85.182a1.071,1.071,0,0,1,.25-.105c.014,0,0-.04,0-.047a.421.421,0,0,0-.416.1.606.606,0,0,0-.208.4.845.845,0,0,0,.075.454,1.033,1.033,0,0,0,.124.192,1.091,1.091,0,0,0,.1.105.379.379,0,0,0,.126.094.016.016,0,0,0,.023,0c.023-.056-.035-.122-.058-.171s-.061-.112-.089-.171a1.062,1.062,0,0,1-.112-.388.566.566,0,0,1,.084-.337A.468.468,0,0,1,222.087,85.182Z" transform="translate(-219.756 -82.975)" fill="#af6152"/>
            </g>
            <path id="Path_2689" data-name="Path 2689" d="M236.713,84.352a2.6,2.6,0,0,1-.76,1.831c-.625.531-.751.578-1,.594s-.349-.508-.349-.508l-.122.323L234.2,86.2l-.112.468-.215-.325s.115.685-.248.7a6.986,6.986,0,0,1-2.753-.6c-.936-.538-.884-.547-1.237-1.495a5.775,5.775,0,0,1-.358-1.429.854.854,0,0,0,.5.374,4.79,4.79,0,0,1-.662-2.168s-.557.08-.629,1.088c-.082,1.12-.234,3.4.966,4.245a2.029,2.029,0,0,1-.15-1.024,2.365,2.365,0,0,0,1.034,1.382,9.161,9.161,0,0,0,2.3.847,8.46,8.46,0,0,0,1.871.456c-.512-.356-.494-.629-.494-.629a1.8,1.8,0,0,0,1.665.575,1.7,1.7,0,0,1-.877-.779,2.195,2.195,0,0,0,1.574.185c-.812-.274-.91-.812-.91-.812a6.621,6.621,0,0,0,1-.936,4.371,4.371,0,0,0,.311-1.17,1.137,1.137,0,0,0,.381.061A1.7,1.7,0,0,1,236.713,84.352Z" transform="translate(-220.886 -72.822)" fill="#37474f"/>
            <path id="Path_2690" data-name="Path 2690" d="M218.206,57.293c.608.419,1.148.536,1.417.886a5.515,5.515,0,0,0,1.345.444,4.444,4.444,0,0,1-.5-2.36,2.456,2.456,0,0,0,2.313.192s-1.343-.393-1.609-1.305c1.006.365,2.2.861,2.573,1.616,0,0,.37-.95.056-1.474a2.555,2.555,0,0,1,.306,1.689,1.884,1.884,0,0,0,.912-2.267c.566.751,2.147.487,2.278,2,.515-.3.4-1.085.4-1.085s1.01-.833-.152-2.084a1.511,1.511,0,0,1,.9.671,2.058,2.058,0,0,0-1.871-2.136,1.029,1.029,0,0,0,.4-1.219,1.872,1.872,0,0,1-1.373.4c-.987-.014-1.745-.5-2.526.122a2.035,2.035,0,0,1,1.1-.758,3.443,3.443,0,0,0-2.5.7,1.612,1.612,0,0,1-.054-.966,1.807,1.807,0,0,0-1.294,1.476,2.412,2.412,0,0,0-2.592.091,1.663,1.663,0,0,1,1.053.346,4.17,4.17,0,0,0-1.455.823,2.515,2.515,0,0,0-.746,1.4,2.536,2.536,0,0,1,1.3-.519Z" transform="translate(-211.817 -48.789)" fill="#37474f"/>
            <path id="Path_2691" data-name="Path 2691" d="M226.85,91.23s.578,3.352-.489,4l-.451-3.742A2.309,2.309,0,0,0,226.85,91.23Z" transform="translate(-218.957 -80.1)" fill="#37474f"/>
            <path id="Path_2692" data-name="Path 2692" d="M201.648,61.387c.2.444,1.169-.051,1.714-.877a2.091,2.091,0,0,0,.2-2.21c-.835-1.116-3.275-1.607-5.293-.678a3.2,3.2,0,0,0-1.972,3.789,3.753,3.753,0,0,0,1.757,1.932.938.938,0,0,1,.494,1.184.975.975,0,0,1-1.186.372c.334.655,1.52.582,2.089.023.725-.716.7-1.712-.283-2.62-.887-.821-.407-1.637.288-1.822a2.035,2.035,0,0,1,2.194.908Z" transform="translate(-196.182 -53.978)" fill="#719f7f"/>
            <path id="Path_2693" data-name="Path 2693" d="M198.527,63.587a1.2,1.2,0,0,1,.547.021l.047.016c-.016-.033-.033-.061-.051-.091s-.033-.051-.047-.077a1.233,1.233,0,0,0-.746.058l.115.1a1.271,1.271,0,0,1,.136-.03Zm.208-.508c-.047-.056-.091-.11-.138-.161a1.619,1.619,0,0,0-.257.023,1.469,1.469,0,0,0-.6.215l.157.105a2.339,2.339,0,0,1,.54-.166A2.089,2.089,0,0,1,198.735,63.079Zm-.964,1.93a.715.715,0,0,1-.03.075.36.36,0,0,1-.054.091,1.067,1.067,0,0,0,.159.061.378.378,0,0,0,.04-.082.479.479,0,0,0,.023-.129.159.159,0,0,0,0-.033A1.3,1.3,0,0,1,197.771,65.009Zm.421-.1-.087.037a.349.349,0,0,1,0,.178.789.789,0,0,1-.044.161h.159a.535.535,0,0,0,0-.278.386.386,0,0,0-.028-.1Zm-.014-2.528a2.026,2.026,0,0,0-.95.374,1.469,1.469,0,0,0,.126.11,2.521,2.521,0,0,1,.936-.309C198.253,62.492,198.214,62.436,198.178,62.377Zm-.632-1.9a2.618,2.618,0,0,1,.833.444c.035-.03.073-.061.112-.089a2.475,2.475,0,0,0-.894-.5,2.685,2.685,0,0,0-.861-.126,2.555,2.555,0,0,0-.489.051c0,.063-.014.122-.019.18a2.708,2.708,0,0,1,.416-.065A2.5,2.5,0,0,1,197.547,60.48Zm.185-.667a2.952,2.952,0,0,1,1.017.868.772.772,0,0,1,.091-.04,2.381,2.381,0,0,0-1.034-.968,2.7,2.7,0,0,0-.936-.356,2.294,2.294,0,0,0-.334-.021c-.026.049-.047.1-.068.15a2.528,2.528,0,0,1,.419.035,2.484,2.484,0,0,1,.844.332Zm.145,2.168h.152a1.149,1.149,0,0,1-.019-.173h-.168a2.508,2.508,0,0,0-.718.14,1.939,1.939,0,0,0-.428.2c.033.047.07.1.108.145a3.977,3.977,0,0,1,.4-.185A2.5,2.5,0,0,1,197.877,61.982Zm-.426-.634a2.615,2.615,0,0,1,.6.105.9.9,0,0,1,.051-.152,3.113,3.113,0,0,0-.683-.115,2.751,2.751,0,0,0-.781.073,3.176,3.176,0,0,0-.327.112.226.226,0,0,0,.023.07l.035.089a2.679,2.679,0,0,1,.318-.11A2.545,2.545,0,0,1,197.451,61.348Zm3.352-2.6a3.186,3.186,0,0,0-.594-1.565l-.159.014a3.284,3.284,0,0,1,.587,1.6,3.809,3.809,0,0,1,0,1.13,2.5,2.5,0,0,1-.168.6l.161.051a3.249,3.249,0,0,0,.138-.468,3.79,3.79,0,0,0,.035-1.359Zm-.994-.105a3.214,3.214,0,0,0-.629-.987,1.654,1.654,0,0,0-.285-.234l-.175.056a1.447,1.447,0,0,1,.37.292,3.354,3.354,0,0,1,.58.95,4.1,4.1,0,0,1,.339,1.083,2.208,2.208,0,0,1,0,.646.821.821,0,0,1,.185.014,2.138,2.138,0,0,0,0-.61,4.152,4.152,0,0,0-.384-1.2Zm3-.957c-.089-.049-.182-.094-.283-.138a1.472,1.472,0,0,1,.145.341,1.958,1.958,0,0,1,.056.632,3.8,3.8,0,0,1-.325,1.268,3.123,3.123,0,0,1-.643.961,2.84,2.84,0,0,1-.381.306c.042.04.084.087.126.133a2.458,2.458,0,0,0,.442-.367,3.878,3.878,0,0,0,1-2.465,1.871,1.871,0,0,0-.136-.667Zm-4.348,7.038a.814.814,0,0,1-.08.075l.019.023a.467.467,0,0,1,.063.112.965.965,0,0,1,.068.281v.026a.5.5,0,0,0,.129-.047.984.984,0,0,0-.1-.334A.668.668,0,0,0,198.459,64.721Zm-.655-6.783c-.061.037-.117.075-.173.115a2.877,2.877,0,0,1,1.2.837A3.12,3.12,0,0,1,199.5,60.5h.108a2.907,2.907,0,0,0-1.8-2.571ZM201.72,58a2.065,2.065,0,0,0-.267-.748l-.157-.023a2.5,2.5,0,0,1,.271.844,4.19,4.19,0,0,1,0,1.209,2.837,2.837,0,0,1-.346,1.008,1.847,1.847,0,0,1-.323.407,1.661,1.661,0,0,1,.164.1,2.821,2.821,0,0,0,.685-1.537,4.253,4.253,0,0,0-.028-1.265Zm-3.438,1.134a2.573,2.573,0,0,0-.936-.505c-.091-.026-.192-.051-.295-.07-.047.051-.091.105-.136.159a2.019,2.019,0,0,1,.37.07,2.386,2.386,0,0,1,.891.468,2.72,2.72,0,0,1,.573.734,2.6,2.6,0,0,1,.182.421c.019.056.035.115.051.175l.11-.033h0a2.655,2.655,0,0,0-.171-.543A2.449,2.449,0,0,0,198.281,59.135Zm.468,5.321a.57.57,0,0,0-.105-.075.371.371,0,0,1-.035.105.861.861,0,0,1,.3.37.969.969,0,0,1,.04.105.133.133,0,0,0,.03-.033l.056-.077c-.016-.04-.035-.08-.054-.115A.917.917,0,0,0,198.749,64.457Zm.023-.437a.8.8,0,0,0-.152,0,.793.793,0,0,1,.028.133.838.838,0,0,1,.108,0,.772.772,0,0,1,.33.136.716.716,0,0,1,.131.122,1.2,1.2,0,0,0,.021-.157.975.975,0,0,0-.075-.063A.917.917,0,0,0,198.773,64.019Z" transform="translate(-196.219 -54.014)" opacity="0.2"/>
            <path id="Path_2694" data-name="Path 2694" d="M203.313,71.34a.887.887,0,0,1,.136-.03c-.87.019-1.771.515-1.593,1.52.094.531.667.922,1.039,1.527a1.265,1.265,0,0,1-.094,1.4,1.062,1.062,0,0,1-1.581,0c.334.655,1.52.582,2.089.023.725-.716.7-1.712-.283-2.62C202.139,72.342,202.619,71.53,203.313,71.34Z" transform="translate(-200.042 -64.839)" opacity="0.35"/>
          </g>
          <path id="Path_2695" data-name="Path 2695" d="M181.386,123a5.131,5.131,0,0,0-4.093,2.641c-.819,1.373-.744,2.238-1.455,3.665a38.469,38.469,0,0,1-2.14,3.939,10.561,10.561,0,0,0-1.527,4.068l6.395-3.553,3.455-4.977S183.591,124.074,181.386,123Z" transform="translate(-172.027 -104.439)" fill="#af6152"/>
          <path id="Path_2696" data-name="Path 2696" d="M181.324,134.955a3.4,3.4,0,0,1,1.284-.288c.349.063,1.17.182,1.49-.248s.1-.468-.37-.592a4.617,4.617,0,0,0-1.343-.248,11.669,11.669,0,0,0-1.719.3,1.386,1.386,0,0,1-1.2.737,4.68,4.68,0,0,0-.468.6.723.723,0,0,0-.6.325,12.869,12.869,0,0,0-.578,1.392.578.578,0,0,0-.391.484c-.082.416.014,1.263-.049,1.623a1.9,1.9,0,0,1-.842,1.534c-.8.578-2.049,1.212-3.057,1.843a3.793,3.793,0,0,0-1.6,2.688c-.288,1.177-.283,1.623.346,1.927a4.629,4.629,0,0,0,3.275-.489c1.312-.6,3.041-3.551,3.859-4.606s.765-1.109,1.577-1.591.936-1.317,1.4-2.051.655-1.23,1.17-1.424.66-.136.975-.274.11-.657-.484-.886a3.155,3.155,0,0,0-1.527,0s.068-.269-.33-.4A4.491,4.491,0,0,1,181.324,134.955Z" transform="translate(-171.67 -112.544)" fill="#c8856a"/>
          <path id="Path_2697" data-name="Path 2697" d="M173.368,142.387a2.975,2.975,0,0,0-1.05,1.151,6.548,6.548,0,0,0-.491,1.495c-.058.255-.115.512-.152.772a1.464,1.464,0,0,0,.042.748.9.9,0,0,0,.564.442,2.293,2.293,0,0,0,.76.075,5.89,5.89,0,0,0,1.523-.318c.248-.087.491-.178.73-.288a3.036,3.036,0,0,0,.344-.18c.1-.08.211-.145.3-.234A8.217,8.217,0,0,0,177,144.906c.327-.409.634-.837.936-1.27l.9-1.305c.3-.437.634-.844.954-1.27a2.466,2.466,0,0,1,.585-.571c.234-.159.468-.274.655-.43a3.408,3.408,0,0,0,.83-1.275,5.819,5.819,0,0,1,.386-.7c.138-.234.267-.454.414-.678a1.686,1.686,0,0,1,.587-.589,2.837,2.837,0,0,1,.781-.234,1.382,1.382,0,0,0,.348-.105c.082-.037.094-.124.056-.234a.935.935,0,0,0-.519-.468,1.852,1.852,0,0,0-.739-.117,4.235,4.235,0,0,0-.77.084l-.117.026.026-.119a.25.25,0,0,0-.119-.234,1.384,1.384,0,0,0-.318-.131,4.409,4.409,0,0,1-.681-.3l-.154-.077.166-.047c.234-.061.451-.143.683-.211a2.053,2.053,0,0,1,.36-.075,1.207,1.207,0,0,1,.37.026,2.838,2.838,0,0,0,.7.047.891.891,0,0,0,.618-.248.783.783,0,0,0,.173-.288c.033-.105-.091-.164-.2-.2-.234-.073-.468-.136-.685-.2a4.274,4.274,0,0,0-.7-.145,3.311,3.311,0,0,0-.7.042,3.474,3.474,0,0,1,.713-.061,4.565,4.565,0,0,1,.7.126c.234.061.468.117.7.185a.626.626,0,0,1,.171.08.18.18,0,0,1,.075.187.852.852,0,0,1-.18.325.989.989,0,0,1-.669.295,3,3,0,0,1-.725-.03,1.2,1.2,0,0,0-.678.056c-.234.068-.451.154-.683.22l.012-.124a4.266,4.266,0,0,0,.669.281,1.4,1.4,0,0,1,.358.145.391.391,0,0,1,.182.393l-.094-.094a4.445,4.445,0,0,1,.8-.1,2.082,2.082,0,0,1,.814.119,1.1,1.1,0,0,1,.625.566.468.468,0,0,1,.026.248.327.327,0,0,1-.166.213,1.444,1.444,0,0,1-.4.126,3.121,3.121,0,0,0-.374.089,2.144,2.144,0,0,0-.351.133,1.523,1.523,0,0,0-.512.529c-.14.215-.269.447-.407.674a6.059,6.059,0,0,0-.374.683,3.593,3.593,0,0,1-.879,1.354c-.22.18-.468.292-.664.442a2.362,2.362,0,0,0-.54.529c-.318.416-.655.828-.954,1.256l-.9,1.3c-.3.433-.615.861-.947,1.275a8.434,8.434,0,0,1-1.095,1.17,3.1,3.1,0,0,1-.325.234,3.369,3.369,0,0,1-.363.192,7.864,7.864,0,0,1-.748.281,6.034,6.034,0,0,1-1.569.3,2.363,2.363,0,0,1-.8-.091,1.341,1.341,0,0,1-.367-.192.8.8,0,0,1-.267-.327,1.549,1.549,0,0,1-.035-.812c.044-.264.11-.519.175-.777a6.64,6.64,0,0,1,.533-1.492A2.975,2.975,0,0,1,173.368,142.387Z" transform="translate(-171.557 -112.519)" fill="#af6152"/>
          <path id="Path_2698" data-name="Path 2698" d="M209.249,137.683a3.221,3.221,0,0,1-.6-.3c-.187-.119-.372-.234-.568-.349a1.23,1.23,0,0,1,.327.1c.1.044.2.1.3.157a4.964,4.964,0,0,1,.543.4Z" transform="translate(-199.537 -115.187)" fill="#af6152"/>
          <path id="Path_2699" data-name="Path 2699" d="M202.89,140.55a4.571,4.571,0,0,1,1.462.533c.152.077.311.147.468.215l.234.108a.613.613,0,0,1,.234.152.454.454,0,0,1,.115.264.386.386,0,0,1-.094.269.767.767,0,0,1-.468.234,1.556,1.556,0,0,1-.522-.023,1.683,1.683,0,0,0,.51-.03.7.7,0,0,0,.419-.234.318.318,0,0,0-.03-.414.489.489,0,0,0-.2-.124l-.234-.1c-.159-.073-.313-.147-.468-.234a4.174,4.174,0,0,0-.454-.234A6.938,6.938,0,0,0,202.89,140.55Z" transform="translate(-195.561 -117.884)" fill="#af6152"/>
          <path id="Path_2700" data-name="Path 2700" d="M205.9,150.714a4.481,4.481,0,0,1,1.736-2.774s-.681.075-1.289,1.078A3.246,3.246,0,0,0,205.9,150.714Z" transform="translate(-197.866 -123.545)" fill="#af6152"/>
          <path id="Path_2701" data-name="Path 2701" d="M193.433,107.378a.234.234,0,0,0-.087.206.7.7,0,0,0,.33.533.234.234,0,0,0,.234.016L218.7,92.869a.234.234,0,0,0,.087-.206.685.685,0,0,0-.327-.533.215.215,0,0,0-.222-.016Z" transform="translate(-188.249 -80.758)" fill="#719f7f"/>
          <path id="Path_2702" data-name="Path 2702" d="M193.39,107.83a.65.65,0,0,0,.091.264L218.71,92.563a.655.655,0,0,0-.2-.2Z" transform="translate(-188.283 -80.965)" fill="#fff" opacity="0.35"/>
          <path id="Path_2703" data-name="Path 2703" d="M191.666,158.316a.363.363,0,0,1-.372-.028,1.17,1.17,0,0,1-.545-.886.365.365,0,0,1,.143-.342.738.738,0,0,1,.774,1.256Z" transform="translate(-186.257 -130.448)" fill="#719f7f"/>
          <path id="Path_2704" data-name="Path 2704" d="M191.666,158.316a.363.363,0,0,1-.372-.028,1.17,1.17,0,0,1-.545-.886.365.365,0,0,1,.143-.342.738.738,0,0,1,.774,1.256Z" transform="translate(-186.257 -130.448)" opacity="0.2"/>
          <path id="Path_2705" data-name="Path 2705" d="M191.649,158.514a.362.362,0,0,1-.372-.028,1.17,1.17,0,0,1-.545-.886.318.318,0,0,1,.512-.318,1.169,1.169,0,0,1,.547.889A.36.36,0,0,1,191.649,158.514Z" transform="translate(-186.241 -130.646)" fill="#719f7f"/>
          <path id="Path_2706" data-name="Path 2706" d="M191.649,158.514a.362.362,0,0,1-.372-.028,1.17,1.17,0,0,1-.545-.886.318.318,0,0,1,.512-.318,1.169,1.169,0,0,1,.547.889A.36.36,0,0,1,191.649,158.514Z" transform="translate(-186.241 -130.646)" opacity="0.35"/>
          <path id="Path_2707" data-name="Path 2707" d="M192,158.915a.274.274,0,0,1-.276-.023.854.854,0,0,1-.407-.66A.234.234,0,0,1,191.7,158a.854.854,0,0,1,.407.66.274.274,0,0,1-.105.257Z" transform="translate(-186.688 -131.206)" opacity="0.5"/>
          <path id="Path_2708" data-name="Path 2708" d="M216.8,143.16c.089,0,.129.058.084.138a.309.309,0,0,1-.234.147c-.089,0-.129-.058-.084-.138A.309.309,0,0,1,216.8,143.16Z" transform="translate(-206.027 -119.883)" opacity="0.5"/>
          <path id="Path_2709" data-name="Path 2709" d="M224.524,138.4c.089,0,.129.061.084.138a.311.311,0,0,1-.234.15c-.089,0-.129-.061-.084-.14A.313.313,0,0,1,224.524,138.4Z" transform="translate(-211.942 -116.236)" opacity="0.5"/>
          <path id="Path_2710" data-name="Path 2710" d="M232.244,133.65c.089,0,.129.058.084.138a.309.309,0,0,1-.234.147c-.089,0-.129-.058-.084-.138A.309.309,0,0,1,232.244,133.65Z" transform="translate(-217.856 -112.598)" opacity="0.5"/>
          <path id="Path_2711" data-name="Path 2711" d="M239.964,128.89c.089,0,.129.061.084.138a.311.311,0,0,1-.234.15c-.089,0-.129-.061-.084-.14A.309.309,0,0,1,239.964,128.89Z" transform="translate(-223.77 -108.951)" opacity="0.5"/>
          <path id="Path_2712" data-name="Path 2712" d="M247.687,124.13c.089,0,.129.061.084.14a.309.309,0,0,1-.234.147c-.089,0-.126-.058-.084-.138A.316.316,0,0,1,247.687,124.13Z" transform="translate(-229.688 -105.304)" opacity="0.5"/>
          <path id="Path_2713" data-name="Path 2713" d="M255.4,119.38c.089,0,.129.058.084.138a.311.311,0,0,1-.234.15c-.091,0-.129-.061-.087-.14A.309.309,0,0,1,255.4,119.38Z" transform="translate(-235.595 -101.665)" opacity="0.5"/>
          <path id="Path_2714" data-name="Path 2714" d="M273.081,107.81l-.391.234a.912.912,0,0,1,.522.365l.391-.234A.912.912,0,0,0,273.081,107.81Z" transform="translate(-249.035 -92.802)" fill="#455a64"/>
          <path id="Path_2715" data-name="Path 2715" d="M272.69,108.194a.863.863,0,0,1,.494.33l.3-.189a1.228,1.228,0,0,0-.409-.311L273,108Z" transform="translate(-249.035 -92.947)" fill="#37474f"/>
          <path id="Path_2716" data-name="Path 2716" d="M198.2,147.775c.36-.014.409-.334.526-.379s.662,0,1.17-.077a.571.571,0,0,0,.575-.533c.037-.206-.145-.253-.318-.269l-1.076-.117a3.6,3.6,0,0,0-1.209.346Z" transform="translate(-191.715 -122.362)" fill="#c8856a"/>
          <path id="Path_2717" data-name="Path 2717" d="M197.85,146.636c.213-.089.423-.182.639-.267a1.35,1.35,0,0,1,.7-.108c.234.019.468.044.688.065l.349.037a.489.489,0,0,1,.182.058.234.234,0,0,1,.112.185.748.748,0,0,1-.028.187.7.7,0,0,1-.073.173.58.58,0,0,1-.292.234,1.335,1.335,0,0,1-.351.07c-.117.012-.234.016-.349.019-.234,0-.468,0-.685.019-.042,0-.077.061-.112.105a.769.769,0,0,1-.115.133.468.468,0,0,1-.32.119.468.468,0,0,0,.3-.14,1.129,1.129,0,0,0,.1-.136c.033-.047.058-.108.131-.133a6.482,6.482,0,0,1,.7-.051,2.685,2.685,0,0,0,.669-.1.468.468,0,0,0,.234-.194.7.7,0,0,0,.082-.3c0-.087-.094-.131-.2-.147l-.342-.04c-.234-.028-.468-.051-.688-.082a1.249,1.249,0,0,0-.664.075C198.287,146.486,198.07,146.57,197.85,146.636Z" transform="translate(-191.7 -122.252)" fill="#af6152"/>
          <path id="Path_2718" data-name="Path 2718" d="M251.229,120.408a6.407,6.407,0,0,0-4.159-1.675c-1.637-.035-3.583.206-4.751.234a13.249,13.249,0,0,1-3.614-.547,16.13,16.13,0,0,1-1.717-1.216,6.142,6.142,0,0,0-1.759-1.13,3.9,3.9,0,0,0-1.722-.313c-.32.08-.917.767-1.069.987s.44.409.734.281a3.251,3.251,0,0,0,.613-.356s.688.175.837.426a.854.854,0,0,1,.147.358l-.821-.042a12,12,0,0,0-1.4-.026c-.25.028-.384.37-.4.536a1.2,1.2,0,0,0,.08.412,2.3,2.3,0,0,0-.468-.087c-.248-.016-.325.515-.332.636a1.966,1.966,0,0,0,.234.526l.325-.2s.781.25,1.071.384.43.386.065.363a6.618,6.618,0,0,1-1.221-.213c-.54-.131-1.053-.218-1.319-.26s-.447.43.1.622,1.707.51,2.075.632,1.609.468,2.414.674a5.889,5.889,0,0,0,2.047.379,3.371,3.371,0,0,1,1.4.063c.533.129,3.307.823,4.432,1.17a12.817,12.817,0,0,0,4.734.685,6.081,6.081,0,0,0,2.807-1.2C251.122,122.09,252.064,121.225,251.229,120.408Zm-17.458-1.773c-.234-.023-.756-.084-.756-.084a.952.952,0,0,0,0-.264s.741.129.877.185S234.009,118.656,233.771,118.635Z" transform="translate(-216.581 -98.881)" fill="#c8856a"/>
          <path id="Path_2719" data-name="Path 2719" d="M238.405,118.352a5.172,5.172,0,0,1-.936-.629c-.3-.234-.606-.454-.919-.669s-.587-.484-.908-.681a4.444,4.444,0,0,0-1.034-.442,4.713,4.713,0,0,0-1.106-.208,1.292,1.292,0,0,0-.271,0,.728.728,0,0,0-.234.126,3.135,3.135,0,0,0-.414.377c-.126.138-.25.281-.363.428-.147.129.087.234.248.26a.763.763,0,0,0,.262,0,.489.489,0,0,0,.122-.03l.126-.058a3.13,3.13,0,0,0,.468-.292l.026-.019h.028a2.723,2.723,0,0,1,.643.234,1.043,1.043,0,0,1,.147.1.578.578,0,0,1,.117.15.964.964,0,0,1,.131.346v.07h-.08c-.559-.026-1.118-.061-1.675-.073h-.416a.559.559,0,0,0-.18.028.344.344,0,0,0-.129.108.748.748,0,0,0-.138.344,1.1,1.1,0,0,0,.075.374l.054.152-.154-.044a2.08,2.08,0,0,0-.433-.082c-.091-.023-.161.112-.2.234a1.563,1.563,0,0,0-.047.213.534.534,0,0,0,0,.1.292.292,0,0,0,.023.08,2.993,2.993,0,0,0,.2.393l-.122-.03.325-.2.035-.023.04.014c.208.065.414.133.617.206l.309.115a1.341,1.341,0,0,1,.311.157.557.557,0,0,1,.136.14.234.234,0,0,1,.042.126.168.168,0,0,1-.087.145.393.393,0,0,1-.211.04h-.168a6.085,6.085,0,0,1-.65-.105c-.428-.1-.847-.178-1.27-.26l-.316-.063-.159-.03a.112.112,0,0,0-.082.019.164.164,0,0,0-.051.18.337.337,0,0,0,.166.178,1.52,1.52,0,0,0,.283.11l.309.1.62.182c.416.117.833.25,1.249.365l2.5.7a6.469,6.469,0,0,0,1.244.278c.407.035.842-.08,1.3-.037a9.949,9.949,0,0,1,1.282.292l1.258.332,2.512.667a19.807,19.807,0,0,0,2.512.622,6.362,6.362,0,0,0,2.54,0,6.058,6.058,0,0,0,2.3-1.069,2.926,2.926,0,0,0,.849-.915.891.891,0,0,0,.1-.575,1.029,1.029,0,0,0-.3-.508,6.011,6.011,0,0,0-2.187-1.3,6.521,6.521,0,0,0-1.249-.309,8.406,8.406,0,0,0-1.286-.058c-.863,0-1.726.068-2.589.124a13.215,13.215,0,0,1-2.6.012c-.43-.047-.858-.112-1.284-.192a8.063,8.063,0,0,1-1.258-.318,8.1,8.1,0,0,0,1.261.3c.428.075.856.131,1.286.173a13.289,13.289,0,0,0,2.587-.04c.863-.068,1.726-.143,2.594-.161a8.7,8.7,0,0,1,1.305.049,6.619,6.619,0,0,1,1.277.3,6.1,6.1,0,0,1,2.25,1.317,1.193,1.193,0,0,1,.353.587,1.055,1.055,0,0,1-.1.683,3.073,3.073,0,0,1-.893.971,6.081,6.081,0,0,1-2.362,1.113,4.951,4.951,0,0,1-1.312.14,10.1,10.1,0,0,1-1.3-.122,19.944,19.944,0,0,1-2.543-.589l-2.51-.657-1.254-.327a9.56,9.56,0,0,0-1.249-.283,3.56,3.56,0,0,0-.629.014,3.9,3.9,0,0,1-.664.021,6.954,6.954,0,0,1-1.286-.29l-2.505-.7c-.416-.117-.823-.248-1.242-.367l-.622-.185-.311-.1a1.54,1.54,0,0,1-.32-.126.524.524,0,0,1-.257-.292.358.358,0,0,1,.129-.4.32.32,0,0,1,.234-.051l.161.03.32.065c.426.084.856.166,1.272.264a5.874,5.874,0,0,0,.629.1.744.744,0,0,0,.264,0v.016a.115.115,0,0,0,0-.026.407.407,0,0,0-.089-.091,1.137,1.137,0,0,0-.267-.133q-.152-.058-.3-.112l-.613-.208h.075l-.325.2-.08.049-.044-.08a3.094,3.094,0,0,1-.215-.421.489.489,0,0,1-.035-.143.375.375,0,0,1,.014-.129,1.718,1.718,0,0,1,.054-.234.836.836,0,0,1,.11-.234.363.363,0,0,1,.112-.1.269.269,0,0,1,.159-.028,2.266,2.266,0,0,1,.468.091l-.1.108a1.2,1.2,0,0,1-.082-.447.868.868,0,0,1,.173-.426.491.491,0,0,1,.194-.154.68.68,0,0,1,.234-.037h.426c.561.016,1.12.054,1.679.087l-.07.065a.892.892,0,0,0-.112-.278.468.468,0,0,0-.213-.206,2.7,2.7,0,0,0-.608-.234h.054a3.382,3.382,0,0,1-.5.3l-.133.058a.608.608,0,0,1-.152.04.936.936,0,0,1-.3-.016.73.73,0,0,1-.283-.117.234.234,0,0,1-.1-.157.26.26,0,0,1,.07-.164,5.089,5.089,0,0,1,.377-.433,3.342,3.342,0,0,1,.43-.381.814.814,0,0,1,.269-.138,1.251,1.251,0,0,1,.295,0,4.678,4.678,0,0,1,1.12.234,4.625,4.625,0,0,1,1.043.468c.323.208.594.468.9.7s.613.449.91.683A5.177,5.177,0,0,0,238.405,118.352Z" transform="translate(-216.28 -98.818)" fill="#af6152"/>
          <path id="Path_2720" data-name="Path 2720" d="M239.185,126.844l-.788-.145-.016-.129.826.154Z" transform="translate(-222.75 -107.174)" fill="#af6152"/>
          <path id="Path_2721" data-name="Path 2721" d="M253.994,124.014a2.306,2.306,0,0,0-.44-.337c-.171-.119-.341-.234-.508-.372a1.576,1.576,0,0,0-.43-.267.7.7,0,0,0-.489-.051c-.058.03-.014.115.026.136.154.082.334.115.494.192s.3.152.447.234l.416.255.234.15a.721.721,0,0,0,.234.117C254,124.082,254.006,124.028,253.994,124.014Z" transform="translate(-233.26 -104.411)" fill="#af6152"/>
          <path id="Path_2722" data-name="Path 2722" d="M251.413,128.663a3.158,3.158,0,0,0-.912-.426,4.366,4.366,0,0,0-.468-.112,1.681,1.681,0,0,0-.505-.051c-.03,0-.044.07,0,.08.166.049.342.065.512.1s.306.07.468.112c.311.089.6.213.91.313C251.413,128.681,251.42,128.667,251.413,128.663Z" transform="translate(-231.268 -108.323)" fill="#af6152"/>
          <path id="Path_2723" data-name="Path 2723" d="M275.893,129.078a8.024,8.024,0,0,1,.388,1.476c.014.077.161.122.168.019a5.112,5.112,0,0,0-.182-1.745,1.942,1.942,0,0,0-.7-1.116l-.037.1a4.765,4.765,0,0,1,1.885,2.767c.016.049.122.11.136.026a3.668,3.668,0,0,0-.213-1.637,2.208,2.208,0,0,0-.823-1.219l-.035.126a2.554,2.554,0,0,1,1.237,1.188c.159.274.29.564.423.851a5.939,5.939,0,0,1,.344.905c.021.073.18.124.173.016-.066-1.2-.367-2.594-1.551-3.167l-.028.14a4.172,4.172,0,0,1,2.171,2.159c.035.068.187.087.157-.021a4.413,4.413,0,0,0-1.4-2.269c-.014.042-.03.084-.047.129a4.323,4.323,0,0,1,2.678,2.433c.033.077.173.084.157-.021a3.742,3.742,0,0,0-.543-1.649,2.35,2.35,0,0,0-1.186-.936l.021.157c1.558.119,2.365,1.675,2.94,2.928.03.063.161.089.164,0a4.086,4.086,0,0,0-1.56-3.286l-.044.129a3.024,3.024,0,0,1,1.665,1,2.92,2.92,0,0,1,.512.882c.143.374.234.765.393,1.132.026.061.157.094.159,0a4.29,4.29,0,0,0-1.212-3.066l-.054.112a3.455,3.455,0,0,1,2.131,2.727c.016.1.215.133.2,0a3.651,3.651,0,0,0-2.3-2.863c-.08-.03-.1.061-.054.11a4.035,4.035,0,0,1,1.132,2.94h.159c-.171-.4-.264-.821-.428-1.221a3.148,3.148,0,0,0-.561-.894,3.258,3.258,0,0,0-1.726-1.015c-.091-.019-.11.082-.047.131a3.913,3.913,0,0,1,1.471,3.141h.164c-.615-1.338-1.485-2.917-3.137-3.041-.115,0-.044.136.021.157a2.105,2.105,0,0,1,1.1.91,3.812,3.812,0,0,1,.468,1.513l.157-.019a4.566,4.566,0,0,0-2.821-2.543c-.089-.028-.105.08-.047.126a4.18,4.18,0,0,1,1.315,2.166l.159-.023a4.348,4.348,0,0,0-2.313-2.267c-.1-.03-.105.105-.028.143,1.132.536,1.361,1.871,1.424,3l.173.014a8.022,8.022,0,0,0-.868-1.895,2.706,2.706,0,0,0-1.3-1.2c-.094-.037-.1.084-.035.126a2.082,2.082,0,0,1,.756,1.17,3.613,3.613,0,0,1,.194,1.518l.136.026a5.012,5.012,0,0,0-1.979-2.861c-.08-.044-.094.065-.037.1a1.747,1.747,0,0,1,.648,1.139,5.348,5.348,0,0,1,.112,1.579l.168.021a6.983,6.983,0,0,0-.433-1.5c-.03-.068-.157-.061-.122.026Z" transform="translate(-251.176 -107.817)" fill="#455a64"/>
          <path id="Path_2724" data-name="Path 2724" d="M177.667,165.185a2.444,2.444,0,0,0-.723,2.9c.023.051.122.105.143.019a7.718,7.718,0,0,1,.664-1.838,3.906,3.906,0,0,1,1.146-1.49l-.105-.129a2.5,2.5,0,0,0-.4,2.428c.021.051.126.108.14.023a5.709,5.709,0,0,1,1.148-2.889l-.122-.091a3,3,0,0,0-.14,1.558c.014.049.124.11.133.028a3.2,3.2,0,0,1,.758-1.684l-.115-.049a.524.524,0,0,1-.044.346c-.03.058.068.161.1.1a.671.671,0,0,0,.063-.442c0-.049-.075-.094-.115-.049a3.146,3.146,0,0,0-.784,1.717l.133.028a2.864,2.864,0,0,1,.147-1.488c.014-.054-.077-.143-.124-.091a5.81,5.81,0,0,0-1.184,2.95l.138.021a2.358,2.358,0,0,1,.381-2.295c.047-.056-.042-.171-.105-.129a3.977,3.977,0,0,0-1.17,1.492,7.981,7.981,0,0,0-.7,1.918l.14.021a2.491,2.491,0,0,1,.664-2.776c.033-.033-.021-.133-.063-.1Z" transform="translate(-175.531 -135.773)" fill="#455a64"/>
        </g>
      </g>
    </g>
  </g>
</svg>
