<svg xmlns="http://www.w3.org/2000/svg" width="173.394" height="107.871" viewBox="0 0 173.394 107.871">
  <g id="Yoga_with_face_masks-pana" data-name="Yoga with face masks-pana" transform="translate(-14.1 -26.69)">
    <g id="freepik--background-complete--inject-21" transform="translate(16.611 26.69)">
      <path id="Path_1407" data-name="Path 1407" d="M293.54,223.282a5.624,5.624,0,0,1,3.485-.422,2.891,2.891,0,0,1,1.722.769,1.237,1.237,0,0,1,.019,1.717,1.662,1.662,0,0,1-1.088.277c-.921,0-1.944-.174-2.68.381-.42.316-.7.842-1.206,1a1.192,1.192,0,0,1-1.307-.581,2.036,2.036,0,0,1-.147-1.5A2.289,2.289,0,0,1,293.54,223.282Z" transform="translate(-227.677 -175.468)" fill="#ebebeb"/>
      <path id="Path_1408" data-name="Path 1408" d="M285.6,175.232a1.667,1.667,0,0,0,2.492.053,4.713,4.713,0,0,0,1.056-2.171,11.489,11.489,0,0,0,.649-5.475,3.022,3.022,0,0,0-.7-1.488,1.587,1.587,0,0,0-1.505-.5,2.339,2.339,0,0,0-1.317,1.382A13.066,13.066,0,0,0,285,172.639a4.533,4.533,0,0,0,.613,2.593" transform="translate(-222.169 -132.107)" fill="#ebebeb"/>
      <path id="Path_1409" data-name="Path 1409" d="M256.589,185.944a3.371,3.371,0,0,0,.526-3.1,5.934,5.934,0,0,0-1.838-2.653,9.842,9.842,0,0,0-3.3-1.963,3.526,3.526,0,0,0-1.481-.241,1.551,1.551,0,0,0-1.24.75,2.326,2.326,0,0,0,.342,2.115,25.348,25.348,0,0,0,2.171,3.29,5.847,5.847,0,0,0,2.376,2.033,2.154,2.154,0,0,0,2.535-.35" transform="translate(-194.937 -141.488)" fill="#ebebeb"/>
      <path id="Path_1410" data-name="Path 1410" d="M287.277,236.592a1.93,1.93,0,0,0,.06-.42c.029-.306.068-.692.111-1.151a16.29,16.29,0,0,1,.258-1.688,12.955,12.955,0,0,1,.613-1.988,7.273,7.273,0,0,1,1.015-1.8,3.789,3.789,0,0,1,1.283-1.069,3.592,3.592,0,0,1,1.081-.335,2.14,2.14,0,0,0,.42-.06,1.931,1.931,0,0,0-.427,0,3.273,3.273,0,0,0-1.126.294,3.786,3.786,0,0,0-1.356,1.076,7.253,7.253,0,0,0-1.042,1.833,12.188,12.188,0,0,0-.608,2.021,14.228,14.228,0,0,0-.224,1.705c-.036.482-.051.883-.055,1.155A1.926,1.926,0,0,0,287.277,236.592Z" transform="translate(-223.889 -179.497)" fill="#e0e0e0"/>
      <path id="Path_1411" data-name="Path 1411" d="M287.367,200.015a.771.771,0,0,0,.012-.2v-.56c0-.482,0-1.184.024-2.05.043-1.734.193-3.6.482-6.225.273-2.47.637-5.347,1.025-7.217.082-.424.164-.808.241-1.143s.14-.625.2-.859l.13-.543a.679.679,0,0,0,.034-.193.825.825,0,0,0-.068.183c-.041.14-.1.318-.162.535s-.145.519-.241.854-.181.724-.27,1.141a62.673,62.673,0,0,0-1.066,6.686c-.289,2.634-.42,5.032-.429,6.768,0,.868,0,1.57.029,2.055.014.227.027.412.034.557A.911.911,0,0,0,287.367,200.015Z" transform="translate(-223.899 -143.803)" fill="#e0e0e0"/>
      <path id="Path_1412" data-name="Path 1412" d="M268.265,199.835a3.7,3.7,0,0,0,0-.581c-.022-.376-.072-.919-.178-1.582a20.564,20.564,0,0,0-.514-2.3,18.917,18.917,0,0,0-.965-2.726,14.508,14.508,0,0,0-2.827-4.4,7.187,7.187,0,0,0-.666-.62c-.1-.084-.193-.171-.285-.241l-.258-.178a3.377,3.377,0,0,0-.482-.314,16.732,16.732,0,0,1,1.611,1.435,15.333,15.333,0,0,1,2.745,4.38,21.262,21.262,0,0,1,.965,2.7c.241.847.42,1.623.547,2.279s.191,1.194.241,1.565A3.828,3.828,0,0,0,268.265,199.835Z" transform="translate(-204.785 -148.249)" fill="#e0e0e0"/>
      <path id="Path_1413" data-name="Path 1413" d="M269.16,274.39l.463,6.348h8.155l.463-6.348Z" transform="translate(-210.15 -214.644)" fill="#e0e0e0"/>
      <rect id="Rectangle_193" data-name="Rectangle 193" width="10.845" height="2.501" transform="translate(58.222 57.243)" fill="#e0e0e0"/>
      <path id="Path_1414" data-name="Path 1414" d="M265.89,299.7v.695h10.666V299.7Z" transform="translate(-207.668 -233.849)" fill="#ebebeb"/>
      <path id="Path_1415" data-name="Path 1415" d="M268.5,303.8l-.5-1.22h9.769l-.584,1.22Z" transform="translate(-209.269 -236.034)" fill="#e0e0e0"/>
      <path id="Path_1416" data-name="Path 1416" d="M278.555,280.17a.636.636,0,0,1-.039.058l-.123.162-.482.608-.019.027L277.87,281l-1.167-1.616h.068l-1.148,1.628-.036.051-.041-.048-1.363-1.621h.077c-.022.031-.048.063-.075.1l-1.218,1.527-.041.051-.036-.053-1.134-1.631h.068l-1.416,1.614-.027.029-.019-.034-.444-.745-.113-.2a.378.378,0,0,1-.034-.07.659.659,0,0,1,.046.063l.128.191c.113.178.268.424.466.724h-.046l1.394-1.633.036-.041.031.043,1.16,1.621h-.08l1.206-1.532c.027-.031.053-.063.075-.094l.041-.048.039.048c.482.569.936,1.119,1.36,1.623h-.077l1.16-1.621.034-.046.034.046c.461.658.849,1.206,1.143,1.633h-.043l.494-.593.133-.154A.367.367,0,0,1,278.555,280.17Z" transform="translate(-210.612 -218.347)" fill="#f5f5f5"/>
      <path id="Path_1417" data-name="Path 1417" d="M278.567,274.051c0,.029-2.043.051-4.564.051s-4.564-.022-4.564-.051S271.483,274,274,274,278.567,274.024,278.567,274.051Z" transform="translate(-210.362 -214.348)" fill="#f5f5f5"/>
      <path id="Path_1418" data-name="Path 1418" d="M277.791,302.7c0,.029-2.221.051-4.959.051s-4.962-.022-4.962-.051,2.221-.051,4.962-.051S277.791,302.672,277.791,302.7Z" transform="translate(-209.171 -236.087)" fill="#f5f5f5"/>
      <rect id="Rectangle_194" data-name="Rectangle 194" width="22.929" height="23.901" transform="translate(51.398)" fill="#e0e0e0"/>
      <rect id="Rectangle_195" data-name="Rectangle 195" width="22.929" height="23.901" transform="translate(49.845)" fill="#ebebeb"/>
      <rect id="Rectangle_196" data-name="Rectangle 196" width="16.764" height="17.475" transform="translate(52.927 3.213)" fill="#fff"/>
      <path id="Path_1419" data-name="Path 1419" d="M234.3,113a3.242,3.242,0,0,1-.42.482c-.268.28-.646.661-1.069,1.076s-.808.789-1.093,1.052a3.167,3.167,0,0,1-.482.41,3.044,3.044,0,0,1,.417-.482c.268-.282.646-.663,1.069-1.081s.81-.789,1.1-1.052A2.9,2.9,0,0,1,234.3,113Z" transform="translate(-181.376 -92.182)" fill="#e0e0e0"/>
      <path id="Path_1420" data-name="Path 1420" d="M313.44,112.77a2.965,2.965,0,0,1,.482.42c.282.268.663.644,1.078,1.066s.786.81,1.052,1.1a3.36,3.36,0,0,1,.41.482,2.983,2.983,0,0,1-.482-.417c-.28-.268-.663-.646-1.078-1.069s-.789-.81-1.054-1.1A3.222,3.222,0,0,1,313.44,112.77Z" transform="translate(-243.749 -92.007)" fill="#e0e0e0"/>
      <path id="Path_1421" data-name="Path 1421" d="M313.25,30.7a3.134,3.134,0,0,1,.42-.482c.268-.282.646-.663,1.069-1.078s.808-.786,1.093-1.052a3.132,3.132,0,0,1,.482-.41,3.151,3.151,0,0,1-.417.482c-.27.28-.649.663-1.071,1.078s-.81.789-1.1,1.054A3.226,3.226,0,0,1,313.25,30.7Z" transform="translate(-243.605 -27.441)" fill="#e0e0e0"/>
      <path id="Path_1422" data-name="Path 1422" d="M234.25,30.751a3.151,3.151,0,0,1-.482-.417c-.282-.27-.663-.646-1.078-1.069s-.786-.808-1.052-1.093a3.156,3.156,0,0,1-.408-.482,3.375,3.375,0,0,1,.482.417c.28.27.663.646,1.081,1.071s.786.81,1.052,1.1A3.462,3.462,0,0,1,234.25,30.751Z" transform="translate(-181.368 -27.449)" fill="#e0e0e0"/>
      <path id="Path_1423" data-name="Path 1423" d="M260.514,57.113V55.847c0-.827,0-2.031-.014-3.56,0-3.061-.017-7.422-.027-12.646l.053.055H243.81l.063-.063V57.109l-.053-.053,12.108.029h.017l-12.142.029h-.053V39.52h16.831v.116c-.012,5.239-.022,9.612-.029,12.68,0,1.527,0,2.726-.014,3.548v1.175C260.538,57.1,260.514,57.113,260.514,57.113Z" transform="translate(-190.868 -36.425)" fill="#e0e0e0"/>
      <path id="Path_1424" data-name="Path 1424" d="M262.26,70.28a3.967,3.967,0,0,0,4.327,4.327A4.492,4.492,0,0,0,262.26,70.28Z" transform="translate(-204.909 -59.766)" fill="#ebebeb"/>
      <path id="Path_1425" data-name="Path 1425" d="M284.217,70.27A3.968,3.968,0,0,0,279.89,74.6,4.494,4.494,0,0,0,284.217,70.27Z" transform="translate(-218.291 -59.754)" fill="#ebebeb"/>
      <path id="Path_1426" data-name="Path 1426" d="M274.591,60.48a4.338,4.338,0,0,0,.193,6.691A4.912,4.912,0,0,0,274.591,60.48Z" transform="translate(-213.12 -52.33)" fill="#e0e0e0"/>
      <path id="Path_1427" data-name="Path 1427" d="M423.88,53.7V75.394H392.724L391.6,53.852Z" transform="translate(-303.056 -47.185)" fill="#e0e0e0"/>
      <rect id="Rectangle_197" data-name="Rectangle 197" width="21.496" height="31.156" transform="translate(88.544 28.163) rotate(-90)" fill="#fff"/>
      <path id="Path_1428" data-name="Path 1428" d="M422.451,75.51H391V53.72h31.453Zm-31.159-.3h30.874v-21.2H391.292Z" transform="translate(-302.601 -47.2)" fill="#e0e0e0"/>
      <rect id="Rectangle_198" data-name="Rectangle 198" width="24.407" height="16.153" transform="translate(91.918 9.337)" fill="#fff"/>
      <path id="Path_1429" data-name="Path 1429" d="M429.651,65.127h-1.809l-5.029.019-17.572.034.07-.07V81.271h0l-.077-.077,24.41.014-.063.063c.014-4.918.024-8.949.034-11.754,0-1.4.012-2.5.014-3.251v-.024c0,.748,0,1.84.017,3.237,0,2.815.017,6.86.031,11.792v.06h-.06l-24.41.014h-.077v-.075h0V65.04h.07l17.608.034,5.015.019h1.664Z" transform="translate(-313.323 -55.79)" fill="#e0e0e0"/>
      <path id="Path_1430" data-name="Path 1430" d="M391.6,54.08a2.5,2.5,0,0,1,.535.347c.318.229.753.555,1.223.931s.88.724,1.17,1a2.468,2.468,0,0,1,.446.456c-.029.034-.777-.586-1.713-1.331A17.334,17.334,0,0,1,391.6,54.08Z" transform="translate(-303.054 -47.473)" fill="#e0e0e0"/>
      <path id="Path_1431" data-name="Path 1431" d="M510.162,54.326a15.033,15.033,0,0,1-1.64,1.394A15.332,15.332,0,0,1,506.788,57a15.015,15.015,0,0,1,1.638-1.4A14.669,14.669,0,0,1,510.162,54.326Z" transform="translate(-390.46 -47.659)" fill="#e0e0e0"/>
      <path id="Path_1432" data-name="Path 1432" d="M509.743,134.6l-3.473-2.815" transform="translate(-390.068 -106.439)" fill="#fff"/>
      <path id="Path_1433" data-name="Path 1433" d="M506.268,131.786a15.846,15.846,0,0,1,1.785,1.348,16.42,16.42,0,0,1,1.688,1.467,15.852,15.852,0,0,1-1.785-1.348A16.771,16.771,0,0,1,506.268,131.786Z" transform="translate(-390.066 -106.435)" fill="#e0e0e0"/>
      <path id="Path_1434" data-name="Path 1434" d="M391.6,135.137a14.751,14.751,0,0,1,1.623-1.382,14.343,14.343,0,0,1,1.717-1.259,14.319,14.319,0,0,1-1.623,1.38A15.127,15.127,0,0,1,391.6,135.137Z" transform="translate(-303.054 -106.974)" fill="#e0e0e0"/>
      <rect id="Rectangle_199" data-name="Rectangle 199" width="5.41" height="15.357" transform="translate(96.875 19.781) rotate(-90)" fill="#e0e0e0"/>
      <rect id="Rectangle_200" data-name="Rectangle 200" width="11.735" height="3.104" transform="translate(144.768 2.313)" fill="#ebebeb"/>
      <path id="Path_1435" data-name="Path 1435" d="M615.682,52.77a.5.5,0,0,1,0-.055v-.769c0-.538,0-1.307-.019-2.279l.036.036-11.735.024.06-.06h0v3.1l-.058-.058,8.363.027,2.468.017h.029l-2.467.051-8.411.039h-.058V49.67h0l.06-.06,11.735.024h.036v.036c0,.982-.014,1.758-.019,2.3v.755C615.7,52.767,615.685,52.772,615.682,52.77Z" transform="translate(-464.141 -44.082)" fill="#e0e0e0"/>
      <rect id="Rectangle_201" data-name="Rectangle 201" width="11.735" height="3.104" transform="translate(5.019 25.505)" fill="#ebebeb"/>
      <path id="Path_1436" data-name="Path 1436" d="M36.3,148.912v-.827c0-.535,0-1.307-.022-2.277l.036.036-11.735.022c.027-.027-.06.06.06-.058h0v3.1l-.058-.06,8.363.027,2.47.017h.842a.3.3,0,0,1,.06,0h-.876l-2.472.051-8.4.027H24.51V145.81h0l.06-.06,11.735.022h.039v.039c0,.979-.014,1.758-.019,2.3v.755A.205.205,0,0,1,36.3,148.912Z" transform="translate(-24.51 -117.032)" fill="#e0e0e0"/>
      <path id="Path_1437" data-name="Path 1437" d="M73.4,52.965a.5.5,0,0,1,0-.055V52.14c0-.538,0-1.307-.019-2.279l.036.036-11.735.024.06-.06h0v3.1l-.058-.058,8.363.027,2.468.017h.029l-2.455.014-8.4.027H61.63V49.865h0c.121-.118.034-.034.06-.06l11.735.024h.036v.036c0,.982-.014,1.758-.019,2.3v.755A.167.167,0,0,0,73.4,52.965Z" transform="translate(-52.677 -44.226)" fill="#e0e0e0"/>
      <path id="Path_1438" data-name="Path 1438" d="M94.726,40.065a.293.293,0,0,1,0-.058v-.789c0-.543-.014-1.312-.024-2.258l.043.043-7.05.017c-.055.053.072-.072.058-.06h0v3.1L87.7,40l5.044.027,1.469.014h.538a.79.79,0,0,1-.128,0h-.386l-1.447.017-5.082.027h-.058V36.966h0c-.014,0,.113-.113.06-.06l7.019.012h.043v.043c0,.965-.019,1.734-.024,2.284v.613C94.745,40.007,94.738,40.068,94.726,40.065Z" transform="translate(-72.417 -34.431)" fill="#e0e0e0"/>
      <path id="Path_1439" data-name="Path 1439" d="M679.266,123.584a.467.467,0,0,1,0-.055v-.769c0-.535,0-1.307-.022-2.279l.036.036-11.734.024.06-.06h0v3.1l-.058-.058,8.363.027,2.47.017h.027l-2.456.017-8.4.027h-.058v-3.162h0l.06-.058,11.735.022h.039v.036c0,.982-.014,1.758-.019,2.3v.755A.122.122,0,0,1,679.266,123.584Z" transform="translate(-512.401 -97.789)" fill="#e0e0e0"/>
      <path id="Path_1440" data-name="Path 1440" d="M441.14,247.052v-.827c0-.535-.012-1.3-.019-2.277l.036.036-11.735.024.06-.06h0v3.1l-.058-.058,8.363.027,2.468.017h0l-2.455.017-8.4.027h-.058V243.95h0l.06-.06,11.735.024h.036v.036c0,.979-.014,1.758-.019,2.3V247C441.142,247.035,441.142,247.052,441.14,247.052Z" transform="translate(-331.693 -191.501)" fill="#e0e0e0"/>
    </g>
    <g id="freepik--Floor--inject-21" transform="translate(18.241 94.263)">
      <path id="Path_1441" data-name="Path 1441" d="M198.053,306.9c0,.034-37.338.063-83.387.063s-83.4-.029-83.4-.063,37.321-.063,83.391-.063S198.053,306.879,198.053,306.9Z" transform="translate(-31.27 -306.84)" fill="#263238"/>
    </g>
    <g id="freepik--character-3--inject-21" transform="translate(113.778 38.517)">
      <path id="Path_1442" data-name="Path 1442" d="M427.35,331.729h73.717l-7.6-12.989-56.893.806Z" transform="translate(-427.35 -260.123)" fill="#e0e0e0"/>
      <path id="Path_1443" data-name="Path 1443" d="M598.188,114.577c-.072-1.746,1.848-3.083,1.821-4.824-.022-1.259-1.037-2.241-1.688-3.324a9.713,9.713,0,0,1-1.064-5.35c.065-1.843.347-3.681.241-5.521a7.4,7.4,0,0,0-2-5.012,4.022,4.022,0,0,0-5.048-.519l-3.232-.7c.991,7.844-.637,15.792-.28,23.691a11.537,11.537,0,0,0,1.507,5.958,6.74,6.74,0,0,0,8.165,2.3c1.471-.683,2.752-2.171,2.5-3.782C598.972,116.478,598.229,115.6,598.188,114.577Z" transform="translate(-548.404 -86.048)" fill="#263238"/>
      <path id="Path_1444" data-name="Path 1444" d="M558.645,75.789a6.7,6.7,0,0,1,4.913,1.447,9.085,9.085,0,0,1,3.307,4.293,10.841,10.841,0,0,1,.292,6.271,5.618,5.618,0,0,1-3.565,3.789,7.991,7.991,0,0,1-7.461-.868,9.08,9.08,0,0,1-3.36-6.884,8.713,8.713,0,0,1,1.418-5.174,6.645,6.645,0,0,1,4.455-2.875" transform="translate(-522.513 -75.722)" fill="#263238"/>
      <path id="Path_1445" data-name="Path 1445" d="M559.835,82.314a9.39,9.39,0,0,1-.241-2.2,4.812,4.812,0,0,0-3.01-3.563,7,7,0,0,0-4.8.053,6.442,6.442,0,0,0-3.029,1.93,5.065,5.065,0,0,0-.965,4.549l8.271-1.143a9.22,9.22,0,0,0,2.492,1.667,1.689,1.689,0,0,0,.861.142.764.764,0,0,0,.646-.526A1.708,1.708,0,0,0,559.835,82.314Z" transform="translate(-518.603 -76.048)" fill="#263238"/>
      <path id="Path_1446" data-name="Path 1446" d="M551.989,87.458l7.2,1.573a1.343,1.343,0,0,1,1.247,1.327l-.2,15.611A4.854,4.854,0,0,1,559.2,108.9l-.695.883a3.561,3.561,0,0,1-5.941-.482,1.8,1.8,0,0,1-.164-.41,3.407,3.407,0,0,1-.065-.355,11.412,11.412,0,0,1-.109-2.364c-.06-1.392-.077-1.961-.077-1.949s-2.95-.393-3.678-4.2a41.01,41.01,0,0,1-.285-7.574C548.26,90.154,549.693,87.289,551.989,87.458Z" transform="translate(-519.009 -84.622)" fill="#ba7a6a"/>
      <path id="Path_1447" data-name="Path 1447" d="M553.046,118.089c-.06-.065-.434.21-.965.205s-.917-.268-.965-.205.031.145.2.27a1.351,1.351,0,0,0,.779.241,1.29,1.29,0,0,0,.765-.241C553.019,118.233,553.075,118.118,553.046,118.089Z" transform="translate(-521.253 -107.862)" fill="#263238"/>
      <path id="Path_1448" data-name="Path 1448" d="M574.576,117.708c-.07-.058-.405.263-.929.326s-.943-.152-.991-.08c-.024.031.051.137.241.241a1.353,1.353,0,0,0,.8.145,1.3,1.3,0,0,0,.724-.34C574.569,117.853,574.61,117.732,574.576,117.708Z" transform="translate(-537.604 -107.576)" fill="#263238"/>
      <path id="Path_1449" data-name="Path 1449" d="M561.194,117.2a3.429,3.429,0,0,0-.864-.128c-.135,0-.265-.034-.289-.125a.678.678,0,0,1,.077-.4l.367-1.04a17.689,17.689,0,0,0,.81-2.714,17.651,17.651,0,0,0-1.027,2.653c-.123.364-.241.724-.35,1.044a.784.784,0,0,0-.053.531.328.328,0,0,0,.229.191.8.8,0,0,0,.241.024A3.6,3.6,0,0,0,561.194,117.2Z" transform="translate(-527.884 -103.848)" fill="#263238"/>
      <path id="Path_1450" data-name="Path 1450" d="M564.75,152.189a9.752,9.752,0,0,0,5.085-1.529s-1.206,2.692-5.048,2.453Z" transform="translate(-531.609 -132.585)" fill="#aa6550"/>
      <path id="Path_1451" data-name="Path 1451" d="M566.39,135.11a.943.943,0,0,1,.842-.381.871.871,0,0,1,.61.3.555.555,0,0,1,.063.63.644.644,0,0,1-.687.2,2,2,0,0,1-.688-.384.582.582,0,0,1-.157-.15.174.174,0,0,1,0-.2" transform="translate(-532.816 -120.493)" fill="#aa6550"/>
      <path id="Path_1452" data-name="Path 1452" d="M566.78,132.38c-.087,0-.07.572-.548.994s-1.09.379-1.093.458c0,.036.14.106.4.106a1.447,1.447,0,0,0,.914-.35,1.261,1.261,0,0,0,.422-.832C566.886,132.515,566.819,132.375,566.78,132.38Z" transform="translate(-531.904 -118.714)" fill="#263238"/>
      <path id="Path_1453" data-name="Path 1453" d="M571.648,106.645c.055.142.581.058,1.206.111s1.129.21,1.206.077c.036-.063-.055-.2-.263-.328a2,2,0,0,0-.9-.282,1.971,1.971,0,0,0-.934.14C571.73,106.45,571.621,106.566,571.648,106.645Z" transform="translate(-536.84 -98.86)" fill="#263238"/>
      <path id="Path_1454" data-name="Path 1454" d="M551.355,106.516c.1.116.458-.019.895-.039s.81.055.893-.072c.036-.063-.027-.181-.193-.289a1.3,1.3,0,0,0-1.447.089C551.36,106.333,551.314,106.458,551.355,106.516Z" transform="translate(-521.433 -98.649)" fill="#263238"/>
      <path id="Path_1455" data-name="Path 1455" d="M572.484,81.279c-.724-2.2-3.975-5.22-6.286-5.027l-3.669,2.262a3.567,3.567,0,0,0,2.453,2.7c.656.191,1.447.241,1.84.791s.183,1.409.56,1.995c.521.815,1.93.757,2.315,1.64.174.386.092.849.27,1.233a2.486,2.486,0,0,0,2.079.965c.533-.179.526-1.09.695-1.57a2.536,2.536,0,0,0,.055-1.688C572.552,83.488,572.834,82.331,572.484,81.279Z" transform="translate(-529.924 -76.118)" fill="#263238"/>
      <path id="Path_1456" data-name="Path 1456" d="M595.45,122.9c0-.285.3-.965.581-1.02a1.655,1.655,0,0,1,2.171,1.787,1.965,1.965,0,0,1-2.55,2.1C595.645,125.687,595.479,123.883,595.45,122.9Z" transform="translate(-554.904 -110.706)" fill="#ba7a6a"/>
      <path id="Path_1457" data-name="Path 1457" d="M599.465,127.373a.813.813,0,0,0,.125.063.458.458,0,0,0,.34,0,1.14,1.14,0,0,0,.482-1.03,1.493,1.493,0,0,0-.152-.646.526.526,0,0,0-.357-.335.241.241,0,0,0-.263.135c-.031.075-.012.125-.027.13s-.058-.041-.041-.15a.292.292,0,0,1,.1-.169.34.34,0,0,1,.241-.075.63.63,0,0,1,.482.386,1.517,1.517,0,0,1,.186.724,1.178,1.178,0,0,1-.62,1.153.482.482,0,0,1-.417-.053C599.472,127.436,599.458,127.378,599.465,127.373Z" transform="translate(-557.949 -113.338)" fill="#aa6550"/>
      <path id="Path_1458" data-name="Path 1458" d="M608.422,96.1a2.288,2.288,0,0,0,.1-.782,5.743,5.743,0,0,0-1.175-3.572,2.274,2.274,0,0,0-.548-.569,8.715,8.715,0,0,1,1.271,2.311A9.461,9.461,0,0,1,608.422,96.1Z" transform="translate(-563.517 -87.451)" fill="#6d9b79"/>
      <path id="Path_1459" data-name="Path 1459" d="M549.072,82.3c-.241,1.061-1.872,2.412-2.586,3.232-1.363,1.568-1.621,1.8-1.638,6.553a11.218,11.218,0,0,1-1.059-4.73,5.673,5.673,0,0,1,1.539-3.729,4.431,4.431,0,0,1,3.743-1.327" transform="translate(-515.704 -80.689)" fill="#263238"/>
      <path id="Path_1460" data-name="Path 1460" d="M575.068,88.441a2.623,2.623,0,0,1-.444.106c-.145.031-.321.065-.528.089s-.444.065-.707.077a12.681,12.681,0,0,1-1.85,0,12.917,12.917,0,0,1-4.38-1.1,12.7,12.7,0,0,1-1.628-.861c-.227-.135-.415-.282-.586-.4s-.314-.241-.425-.328a2.533,2.533,0,0,1-.34-.3,2.327,2.327,0,0,1,.376.256c.118.087.263.193.439.3s.364.241.593.379a13.576,13.576,0,0,0,1.628.842,13.671,13.671,0,0,0,4.332,1.09,14.031,14.031,0,0,0,1.833.027c.261,0,.5-.036.7-.053s.386-.039.531-.063a2.8,2.8,0,0,1,.453-.06Z" transform="translate(-531.176 -83.308)" fill="#455a64"/>
      <path id="Path_1461" data-name="Path 1461" d="M586.67,99.934a1.094,1.094,0,0,1-.3.072,7.569,7.569,0,0,1-.844.1,10.448,10.448,0,0,1-5.429-1.1,6.876,6.876,0,0,1-.724-.422,1.07,1.07,0,0,1-.241-.186c.014-.022.391.21,1.035.509a12.2,12.2,0,0,0,2.624.866,12.061,12.061,0,0,0,2.752.227C586.229,99.973,586.665,99.908,586.67,99.934Z" transform="translate(-542.52 -92.926)" fill="#455a64"/>
      <path id="Path_1462" data-name="Path 1462" d="M602.163,105.07a1.531,1.531,0,0,1,.087.393,10.366,10.366,0,0,1,.1,1.093,15.431,15.431,0,0,1,0,1.626,10.428,10.428,0,0,1-.28,1.975,5.236,5.236,0,0,1-2.043,2.94,5.018,5.018,0,0,1-.965.516,1.575,1.575,0,0,1-.381.125,2.316,2.316,0,0,1,.357-.183,6,6,0,0,0,.926-.543,4.8,4.8,0,0,0,1.117-1.134,5.326,5.326,0,0,0,.837-1.754,11.147,11.147,0,0,0,.287-1.947c.043-.605.051-1.153.046-1.614s-.027-.832-.051-1.088a2.592,2.592,0,0,1-.036-.408Z" transform="translate(-557.354 -97.991)" fill="#455a64"/>
      <path id="Path_1463" data-name="Path 1463" d="M547.873,128.632a.224.224,0,0,1,.217-.256,2.16,2.16,0,0,0,1.467-.786c.663-.637.965-1.083,2.082-1.047a4.113,4.113,0,0,1,1.688.427,6.59,6.59,0,0,0,4.486.5l1.394,1.8a6.908,6.908,0,0,1-7.265,4.619C548.819,133.625,548.032,129.72,547.873,128.632Z" transform="translate(-518.801 -114.284)" fill="#455a64"/>
      <path id="Path_1464" data-name="Path 1464" d="M549.535,127.491c.661-.637.965-1.081,2.082-1.047a4.057,4.057,0,0,1,1.688.429,6.609,6.609,0,0,0,4.477.5l.316.408.065.077a6.958,6.958,0,0,1-4.26-.031,7.437,7.437,0,0,0-2.612-.661c-.784.082-1.032.531-1.6,1.076s-1.071.931-1.749.808l-.036-.241-.043-.256a.222.222,0,0,1,.219-.258A2.116,2.116,0,0,0,549.535,127.491Z" transform="translate(-518.791 -114.209)" fill="#e0e0e0"/>
      <path id="Path_1465" data-name="Path 1465" d="M551.08,138.7a.373.373,0,0,0,.082.022l.241.048c.1.022.241.046.379.065s.316.051.5.065.393.039.615.046.456.014.707.014a12.662,12.662,0,0,0,1.614-.125,13.272,13.272,0,0,0,1.585-.345c.241-.075.466-.14.673-.219s.4-.15.574-.222.328-.145.463-.207.241-.121.345-.171l.212-.116.072-.043a.269.269,0,0,0-.08.031l-.219.1c-.094.046-.21.1-.347.159s-.289.133-.466.2-.367.145-.576.215-.434.137-.671.21a13.729,13.729,0,0,1-1.575.338,13.54,13.54,0,0,1-1.606.133h-.7c-.219,0-.427-.019-.613-.036s-.355-.036-.5-.053-.275-.034-.379-.051l-.241-.036A.373.373,0,0,0,551.08,138.7Z" transform="translate(-521.236 -122.607)" fill="#263238"/>
      <path id="Path_1466" data-name="Path 1466" d="M557.74,145.621a1.2,1.2,0,0,0,.191.063c.063.019.137.041.227.06s.191.046.306.063a6.245,6.245,0,0,0,.806.087,6.352,6.352,0,0,0,1.968-.241,6.527,6.527,0,0,0,.765-.273c.106-.043.2-.092.282-.133s.152-.077.208-.109a.982.982,0,0,0,.169-.109,1.6,1.6,0,0,0-.183.082c-.058.029-.128.063-.212.1s-.176.08-.285.121a6.7,6.7,0,0,1-.762.253,7,7,0,0,1-.965.186,7.357,7.357,0,0,1-.982.043,6.519,6.519,0,0,1-.8-.07c-.113-.014-.215-.036-.3-.051a2.321,2.321,0,0,1-.241-.048A.83.83,0,0,0,557.74,145.621Z" transform="translate(-526.289 -128.313)" fill="#263238"/>
      <path id="Path_1467" data-name="Path 1467" d="M594.22,138.177a1.827,1.827,0,0,0,.518.031,1.741,1.741,0,0,0,.516-.043,1.93,1.93,0,0,0-.519-.031A1.741,1.741,0,0,0,594.22,138.177Z" transform="translate(-553.97 -123.075)" fill="#455a64"/>
      <path id="Path_1468" data-name="Path 1468" d="M591.343,122.11a2.624,2.624,0,0,0-.227.35c-.135.217-.328.514-.562.827s-.468.579-.639.769a3.423,3.423,0,0,0-.275.314,1.776,1.776,0,0,0,.314-.277,7.228,7.228,0,0,0,.661-.762,7,7,0,0,0,.548-.844A1.959,1.959,0,0,0,591.343,122.11Z" transform="translate(-550.495 -110.921)" fill="#455a64"/>
      <g id="Group_420" data-name="Group 420" transform="translate(30.416 15.123)" opacity="0.3">
        <path id="Path_1469" data-name="Path 1469" d="M553.45,139.525a14.184,14.184,0,0,0,3.731.391,7.236,7.236,0,0,0,3.336-1.5A12.867,12.867,0,0,1,553.45,139.525Z" transform="translate(-553.45 -138.42)"/>
      </g>
      <path id="Path_1470" data-name="Path 1470" d="M556.88,136.88a.76.76,0,0,0,.152.046c.1.024.241.053.427.084a8.545,8.545,0,0,0,1.433.109,8.4,8.4,0,0,0,1.43-.135c.181-.034.328-.065.427-.092a.724.724,0,0,0,.152-.048c0-.012-.224.034-.586.087a10.59,10.59,0,0,1-1.423.113,10.753,10.753,0,0,1-1.423-.087A4.633,4.633,0,0,0,556.88,136.88Z" transform="translate(-525.637 -122.1)" fill="#263238"/>
      <path id="Path_1471" data-name="Path 1471" d="M623.138,178.26s2.207.673,3.36,4.679c.856,2.976,4.209,9.248,4.209,9.248l4.73-8.309,3.136,1.8s-4.1,14.156-7.678,14.441c-1.886.15-4.361-3.678-5.914-6.11-1.286-2.012-3.531-5.842-3.531-5.842Z" transform="translate(-574.632 -153.527)" fill="#ba7a6a"/>
      <path id="Path_1472" data-name="Path 1472" d="M676.69,186.537a10.783,10.783,0,0,1,1-1.582c.444-.511,1.717-1.245,2.031-1.662s1.529-2.923,1.816-2.967.55-.08.668.089-.642,2.345-.644,2.709.181.929.482,1.04a7.479,7.479,0,0,0,1.257.186l.753,1.645s-.3.162-.634.371a14.774,14.774,0,0,0-2.371.6,2.185,2.185,0,0,0-1.131,1.093Z" transform="translate(-616.548 -155.068)" fill="#ba7a6a"/>
      <path id="Path_1473" data-name="Path 1473" d="M697.991,180.81l3.172.924.687,1.783a.883.883,0,0,1-.19.933l-1.831,1.93-.753-1.645-.514-.051-.2-.912-.8-.5s-.241-.412.142-.482,1.486.675,1.486.675l.4.917-.147-1.228s-1.413-.376-1.269-.991l.1-.241.9.241s-1.148-.359-1.254-.856S697.991,180.81,697.991,180.81Z" transform="translate(-632.331 -155.462)" fill="#ba7a6a"/>
      <path id="Path_1474" data-name="Path 1474" d="M700.013,182.147c0,.012-.091,0-.222-.068a1.348,1.348,0,0,1-.444-.333.832.832,0,0,1-.207-.5c0-.14.039-.219.051-.217s0,.087.024.21a.936.936,0,0,0,.215.444,1.762,1.762,0,0,0,.4.328C699.946,182.091,700.021,182.132,700.013,182.147Z" transform="translate(-633.583 -155.629)" fill="#aa6550"/>
      <path id="Path_1475" data-name="Path 1475" d="M690.963,196.91v.048a.336.336,0,0,1-.06.125.382.382,0,0,1-.193.121.878.878,0,0,1-.3.027,7.3,7.3,0,0,1-.762-.116,2.613,2.613,0,0,0-.914-.041,1.551,1.551,0,0,0-.786.4,1.406,1.406,0,0,0-.362.605,1.95,1.95,0,0,0-.043.651.439.439,0,0,1-.051-.174,1.283,1.283,0,0,1,.024-.494,1.372,1.372,0,0,1,.362-.649,1.585,1.585,0,0,1,.837-.439,2.557,2.557,0,0,1,.95.048c.285.055.538.113.75.135a.54.54,0,0,0,.461-.1C690.941,196.975,690.951,196.907,690.963,196.91Z" transform="translate(-624.731 -167.679)" fill="#aa6550"/>
      <path id="Path_1476" data-name="Path 1476" d="M705.319,194.212a7.41,7.41,0,0,1-.434-1.155,7.59,7.59,0,0,1-.335-1.187,7.115,7.115,0,0,1,.434,1.158A7.237,7.237,0,0,1,705.319,194.212Z" transform="translate(-637.688 -163.855)" fill="#aa6550"/>
      <path id="Path_1477" data-name="Path 1477" d="M704.1,188.157a3.271,3.271,0,0,1-.157-.586c-.043-.191-.089-.405-.14-.639-.027-.123-.053-.241-.08-.379a.772.772,0,0,0-.147-.364.62.62,0,0,0-.357-.162c-.135-.024-.275-.031-.405-.051a5.715,5.715,0,0,1-.683-.14,4.286,4.286,0,0,1-.444-.147.55.55,0,0,1-.154-.075c0-.014.241.065.618.154a6.753,6.753,0,0,0,.678.116c.128.017.263.024.408.048a.7.7,0,0,1,.42.193.812.812,0,0,1,.162.405c.026.133.051.258.075.381.043.241.082.451.118.644A3.785,3.785,0,0,1,704.1,188.157Z" transform="translate(-635.397 -159.107)" fill="#aa6550"/>
      <path id="Path_1478" data-name="Path 1478" d="M488.668,173.24s-1.734.871-3.661,6.662a79.333,79.333,0,0,1-3.242,7.668l-4.72-7.757a33.876,33.876,0,0,0-3.235,1.078s3.177,8.98,4.46,11.337c1.332,2.439,2.2,3.572,4.617,3.543a3.28,3.28,0,0,0,2.12-.924,4.888,4.888,0,0,0,1.206-1.688l3.56-8.881Z" transform="translate(-462.601 -149.718)" fill="#ba7a6a"/>
      <path id="Path_1479" data-name="Path 1479" d="M529.824,165.712l7.3-2.412,7.021.219,8.247,3.42-3.809,21.279c2.086,2.894,4.583,6.18,4.737,8.683l-13.2,3.186-12.01-4.3c-.094-2.834,3.464-8.047,4.173-9.957l-1.575-9.339Z" transform="translate(-503.801 -142.176)" fill="#ba7a6a"/>
      <path id="Path_1480" data-name="Path 1480" d="M571.324,274.793a1.83,1.83,0,0,1-.306-.043c-.2-.036-.482-.082-.827-.133a20.942,20.942,0,0,0-5.511-.084c-.352.041-.637.08-.832.109a1.66,1.66,0,0,1-.306.034,2.119,2.119,0,0,1,.3-.072c.193-.041.482-.089.827-.138a18.009,18.009,0,0,1,2.771-.171,18.343,18.343,0,0,1,2.764.253c.35.06.632.118.825.166A2.013,2.013,0,0,1,571.324,274.793Z" transform="translate(-530.69 -226.395)" fill="#aa6550"/>
      <path id="Path_1481" data-name="Path 1481" d="M536.846,205.915a.817.817,0,0,1-.046-.2c-.024-.128-.051-.314-.082-.543-.063-.458-.1-1.1-.171-1.792a10.41,10.41,0,0,0-.359-1.761,6.948,6.948,0,0,1-.2-.724.739.739,0,0,1,.084.183c.048.121.113.3.186.519a8.679,8.679,0,0,1,.391,1.768c.075.7.1,1.339.142,1.8a6.422,6.422,0,0,1,.053.748Z" transform="translate(-509.786 -170.707)" fill="#aa6550"/>
      <path id="Path_1482" data-name="Path 1482" d="M623.145,201.74a5.12,5.12,0,0,1-.157.675c-.1.412-.241.987-.355,1.628s-.212,1.206-.292,1.643c-.039.21-.072.379-.1.5a.591.591,0,0,1-.053.179,4.835,4.835,0,0,1,.08-.687c.063-.422.145-1.006.263-1.647a15.437,15.437,0,0,1,.383-1.631c.063-.205.116-.369.157-.482A.687.687,0,0,1,623.145,201.74Z" transform="translate(-575.194 -171.344)" fill="#aa6550"/>
      <path id="Path_1483" data-name="Path 1483" d="M467,186.281a10.445,10.445,0,0,0-1.013-1.527c-.444-.5-1.717-1.206-2.031-1.611s-1.529-2.839-1.816-2.882-.55-.075-.668.089.642,2.275.644,2.629-.183.9-.482,1.008a7.8,7.8,0,0,1-1.257.178l-.753,1.6s.3.159.634.362a15.025,15.025,0,0,1,2.371.581,2.149,2.149,0,0,1,1.131,1.059Z" transform="translate(-451.836 -155.019)" fill="#ba7a6a"/>
      <path id="Path_1484" data-name="Path 1484" d="M454.993,180.7l-3.172.895-.687,1.729a.839.839,0,0,0,.191.907l1.831,1.881.753-1.6.514-.048.2-.885.8-.482s.241-.4-.142-.468-1.486.654-1.486.654l-.4.892.147-1.192s1.413-.364,1.269-.965l-.1-.241-.9.241s1.148-.35,1.254-.832S454.993,180.7,454.993,180.7Z" transform="translate(-445.352 -155.379)" fill="#ba7a6a"/>
      <path id="Path_1485" data-name="Path 1485" d="M464.979,196.32c.012,0,.022.063.1.145a.567.567,0,0,0,.461.1c.212-.019.466-.077.75-.13a2.652,2.652,0,0,1,.95-.048,1.623,1.623,0,0,1,.837.427,1.309,1.309,0,0,1,.362.63,1.2,1.2,0,0,1,.024.482.413.413,0,0,1-.051.169,1.838,1.838,0,0,0-.053-.644,1.351,1.351,0,0,0-.362-.586,1.58,1.58,0,0,0-.786-.393,2.67,2.67,0,0,0-.914.041,7.173,7.173,0,0,1-.762.111.943.943,0,0,1-.3-.024.4.4,0,0,1-.193-.118.313.313,0,0,1-.06-.123C464.979,196.337,464.965,196.322,464.979,196.32Z" transform="translate(-455.898 -167.231)" fill="#aa6550"/>
      <path id="Path_1486" data-name="Path 1486" d="M459.15,193.7a6.89,6.89,0,0,1,.335-1.153,7.014,7.014,0,0,1,.434-1.124,11.5,11.5,0,0,1-.769,2.277Z" transform="translate(-451.48 -163.513)" fill="#aa6550"/>
      <path id="Path_1487" data-name="Path 1487" d="M454.72,187.83a3.258,3.258,0,0,1,.084-.581c.036-.186.075-.4.118-.625.024-.118.048-.241.075-.369a.767.767,0,0,1,.162-.393.709.709,0,0,1,.42-.188c.145-.024.28-.029.408-.046a6.8,6.8,0,0,0,.678-.113c.381-.084.613-.164.617-.15a.515.515,0,0,1-.154.072,4.5,4.5,0,0,1-.444.142,5.337,5.337,0,0,1-.683.135c-.13.019-.27.029-.405.051a.629.629,0,0,0-.357.157.738.738,0,0,0-.142.352c-.027.125-.053.241-.08.367-.051.227-.1.434-.14.622A3.1,3.1,0,0,1,454.72,187.83Z" transform="translate(-448.118 -158.917)" fill="#aa6550"/>
      <path id="Path_1488" data-name="Path 1488" d="M464.13,182.016c0-.014.068-.055.183-.125a1.741,1.741,0,0,0,.4-.316.911.911,0,0,0,.215-.432c.022-.121,0-.2.024-.2s.053.075.051.21a.786.786,0,0,1-.207.482,1.314,1.314,0,0,1-.444.318.531.531,0,0,1-.222.065Z" transform="translate(-455.259 -155.561)" fill="#aa6550"/>
      <path id="Path_1489" data-name="Path 1489" d="M556.692,176.476l1.16-5.9-.449-.207s-.774,5.753-1.8,7.663c-1.112,2.062-4.011,4.583-7.5,4.322-2.711-.2-6.332-4.248-6.9-5.521l-.333-7.325-.608.2.453,7.431L539,182.894l1.447,7.1,16.829.526,1.476-8.268Z" transform="translate(-512.07 -146.888)" fill="#e0e0e0"/>
      <path id="Path_1490" data-name="Path 1490" d="M551.79,228.85a.816.816,0,0,1-.13.178,2.755,2.755,0,0,1-.437.417,3.24,3.24,0,0,1-3.756.178,2.834,2.834,0,0,1-.482-.374.689.689,0,0,1-.145-.166,6.39,6.39,0,0,0,.656.482,3.3,3.3,0,0,0,3.674-.176A7.254,7.254,0,0,0,551.79,228.85Z" transform="translate(-518.019 -191.915)" fill="#455a64"/>
      <path id="Path_1491" data-name="Path 1491" d="M596.332,225a.967.967,0,0,1-.065.241,2.84,2.84,0,0,1-.3.608,3.136,3.136,0,0,1-3.973,1.16,2.779,2.779,0,0,1-.569-.345.841.841,0,0,1-.183-.169,5,5,0,0,0,.794.451,3.16,3.16,0,0,0,3.881-1.134A4.981,4.981,0,0,0,596.332,225Z" transform="translate(-551.709 -188.994)" fill="#455a64"/>
      <path id="Path_1492" data-name="Path 1492" d="M571.827,210.056a6.742,6.742,0,0,1-.241-.654,9.206,9.206,0,0,0-.724-1.5,9.055,9.055,0,0,0-.989-1.339,5.971,5.971,0,0,1-.463-.516,2.917,2.917,0,0,1,.528.456,7.309,7.309,0,0,1,1.032,1.334,7.116,7.116,0,0,1,.695,1.534A2.622,2.622,0,0,1,571.827,210.056Z" transform="translate(-535.145 -174.614)" fill="#aa6550"/>
      <path id="Path_1493" data-name="Path 1493" d="M581.6,210.23a7.266,7.266,0,0,0-.55,1.416,7.078,7.078,0,0,0-.113,1.512,1.183,1.183,0,0,1-.089-.446,3.639,3.639,0,0,1,.08-1.1,3.716,3.716,0,0,1,.4-1.023A1.241,1.241,0,0,1,581.6,210.23Z" transform="translate(-543.812 -177.786)" fill="#aa6550"/>
      <g id="Group_421" data-name="Group 421" transform="translate(29.137 37.321)" opacity="0.3">
        <path id="Path_1494" data-name="Path 1494" d="M551.266,231.118a2.923,2.923,0,0,1-1.626.166,3.459,3.459,0,0,1-1.491-.68,2.593,2.593,0,0,0,1.331,1.3,2.233,2.233,0,0,0,1.843-.055,1.853,1.853,0,0,0,1.1-1.394A3.557,3.557,0,0,1,551.266,231.118Z" transform="translate(-548.15 -230.45)"/>
      </g>
      <g id="Group_422" data-name="Group 422" transform="translate(39.697 37.278)" opacity="0.3">
        <path id="Path_1495" data-name="Path 1495" d="M595.066,231a2.945,2.945,0,0,1-1.616.241,3.482,3.482,0,0,1-1.52-.61,2.6,2.6,0,0,0,1.392,1.233,2.241,2.241,0,0,0,1.836-.142,1.863,1.863,0,0,0,1.03-1.447,3.563,3.563,0,0,1-1.122.726Z" transform="translate(-591.93 -230.27)"/>
      </g>
      <path id="Path_1496" data-name="Path 1496" d="M578.867,280.8c-.036,0-.041-.212-.087-.461s-.109-.446-.077-.463.154.171.2.441A.668.668,0,0,1,578.867,280.8Z" transform="translate(-542.19 -230.633)" fill="#aa6550"/>
      <path id="Path_1497" data-name="Path 1497" d="M543.917,248.976l-.357-1.746,17.557.191-.371,2.082Z" transform="translate(-515.53 -205.862)" fill="#6d9b79"/>
      <path id="Path_1498" data-name="Path 1498" d="M523.778,348.37a.876.876,0,0,0-1.129,1.336c.374.335,1,.323,1.3.724a2.477,2.477,0,0,1,.241,1.085,1.7,1.7,0,0,0,.965,1.223c.362.164.8.212,1.064.509.147.162.224.384.4.519.347.273.849.051,1.23-.174l5.307-3.136Z" transform="translate(-499.45 -282.469)" fill="#ba7a6a"/>
      <path id="Path_1499" data-name="Path 1499" d="M485.384,295.688l-1.04.241s-6.655-1.869-9.74.2a7.123,7.123,0,0,0-2.528,4.072c-.154.97.584,3.973,2.188,4.947,3.953,2.4,28.308,6.72,28.308,6.72l1.551-4.067-8.442-3.273.885-.511Z" transform="translate(-461.273 -242.226)" fill="#263238"/>
      <path id="Path_1500" data-name="Path 1500" d="M583.179,294.91c-.4.21-14.149,7.752-14.149,7.752l8.683,3.36,10.873-.724s4.542,0,6.271-3.3c.712-1.356,3.859-3.751,2.258-6.45s-7.055-3.09-8.664-2.484S583.179,294.91,583.179,294.91Z" transform="translate(-534.856 -240.452)" fill="#263238"/>
      <path id="Path_1501" data-name="Path 1501" d="M589.456,303a.14.14,0,0,1-.051,0l-.15.014a1.876,1.876,0,0,0-.241.034,3.149,3.149,0,0,0-.326.063,18.36,18.36,0,0,0-2.016.613c-1.688.576-3.956,1.5-6.435,2.581s-4.708,2.1-6.317,2.839l-1.906.878-.519.241-.137.06-.048.017a.145.145,0,0,1,.043-.027l.123-.077.509-.253c.446-.217,1.09-.528,1.891-.907,1.6-.757,3.823-1.787,6.305-2.868s4.764-1.992,6.455-2.554a16.419,16.419,0,0,1,2.038-.567c.121-.027.241-.041.328-.053a1.714,1.714,0,0,1,.241-.024h.149Z" transform="translate(-536.586 -248.18)" fill="#455a64"/>
      <path id="Path_1502" data-name="Path 1502" d="M648.652,300.979a.625.625,0,0,1-.017-.2,5.22,5.22,0,0,1,.022-.531,6.738,6.738,0,0,1,.4-1.715,6.926,6.926,0,0,1,.835-1.57,5.108,5.108,0,0,1,.338-.427c.087-.1.135-.147.142-.142s-.166.241-.417.608a7.959,7.959,0,0,0-.8,1.563,7.737,7.737,0,0,0-.42,1.688C648.674,300.7,648.669,300.979,648.652,300.979Z" transform="translate(-595.259 -243.171)" fill="#455a64"/>
      <path id="Path_1503" data-name="Path 1503" d="M640.942,322.08a.356.356,0,0,1-.046.092c-.039.068-.087.152-.147.253s-.145.241-.241.391a5.376,5.376,0,0,1-.362.5c-.145.176-.3.379-.482.577s-.384.41-.6.625a11.785,11.785,0,0,1-3.314,2.241c-.287.123-.557.241-.82.335s-.509.176-.724.241-.437.118-.618.162-.342.077-.482.1l-.3.051a.692.692,0,0,1-.106,0,.745.745,0,0,1,.1-.031l.3-.068c.13-.027.287-.063.468-.116s.388-.1.61-.176.468-.15.724-.241.528-.217.81-.34a13.566,13.566,0,0,0,1.742-.984,13.24,13.24,0,0,0,1.546-1.24c.215-.212.425-.413.6-.615s.345-.388.482-.564.263-.345.372-.482.2-.273.265-.379l.161-.241A.36.36,0,0,1,640.942,322.08Z" transform="translate(-583.169 -262.657)" fill="#455a64"/>
      <path id="Path_1504" data-name="Path 1504" d="M538.56,319.457a.217.217,0,0,1-.058-.017l-.164-.065-.627-.256c-.545-.224-1.329-.552-2.3-.965s-2.111-.917-3.377-1.505-2.627-1.259-4.021-2.038c-1.011-.564-1.983-1.114-2.923-1.587a18.637,18.637,0,0,0-2.728-1.124,13.026,13.026,0,0,0-4.144-.591h-.012l-.577-.584-.145-.152a.567.567,0,0,1-.048-.053.5.5,0,0,1,.056.046l.154.145.591.569h-.017a12.672,12.672,0,0,1,4.175.538,18.4,18.4,0,0,1,2.747,1.119c.948.482,1.93,1.023,2.931,1.587,1.392.777,2.757,1.447,4.011,2.043s2.4,1.1,3.355,1.522l2.282.994.617.273.162.075Z" transform="translate(-495.71 -253.886)" fill="#455a64"/>
      <path id="Path_1505" data-name="Path 1505" d="M597.89,348.981l13.025-.381s3.182.482,3.377,0c0,0,.946-.516.671-1.146,0,0,.943.772,1.141-.207a2.051,2.051,0,0,0-1.93-2.2c-1.182-.075-1.614-.15-2.048-.482a3.377,3.377,0,0,0-1.141-.482l-12.082.839Z" transform="translate(-556.755 -279.351)" fill="#ba7a6a"/>
      <path id="Path_1506" data-name="Path 1506" d="M524.1,294.653l.965-1.093s9.54,4.117,13.2,3.715,11.489-3.654,11.489-3.654l.538,1.447-14.393,7.615Z" transform="translate(-500.763 -241.017)" fill="#263238"/>
      <path id="Path_1507" data-name="Path 1507" d="M615.249,344.279c0,.027-2.441.217-5.456.425s-5.461.355-5.463.328,2.439-.219,5.456-.427S615.247,344.25,615.249,344.279Z" transform="translate(-561.642 -279.499)" fill="#aa6550"/>
      <path id="Path_1508" data-name="Path 1508" d="M532.074,308.16c-.014,0-.2-.282-.538-.724a10.135,10.135,0,0,0-1.524-1.544,10.357,10.357,0,0,0-1.85-1.189c-.509-.253-.839-.376-.832-.393a1.114,1.114,0,0,1,.241.072,6.552,6.552,0,0,1,.627.261,9.2,9.2,0,0,1,1.884,1.175A8.808,8.808,0,0,1,531.6,307.4c.164.224.289.412.367.545A1.013,1.013,0,0,1,532.074,308.16Z" transform="translate(-503.214 -249.174)" fill="#455a64"/>
      <path id="Path_1509" data-name="Path 1509" d="M654.14,354.933a1.532,1.532,0,0,1,.55-.162,3.7,3.7,0,0,1,2.653.581,1.548,1.548,0,0,1,.432.376c-.014.014-.181-.125-.482-.3a4.288,4.288,0,0,0-1.252-.494,4.23,4.23,0,0,0-1.344-.075C654.347,354.894,654.145,354.952,654.14,354.933Z" transform="translate(-599.437 -287.428)" fill="#aa6550"/>
      <path id="Path_1510" data-name="Path 1510" d="M657.39,359.41a4.131,4.131,0,0,1,1.206.174,4.186,4.186,0,0,1,1.143.4,10.364,10.364,0,0,1-1.172-.275A9.925,9.925,0,0,1,657.39,359.41Z" transform="translate(-601.903 -290.983)" fill="#aa6550"/>
    </g>
    <g id="freepik--character-1--inject-21" transform="translate(14.1 37.775)">
      <path id="Path_1511" data-name="Path 1511" d="M14.1,331.729H87.819L80.214,318.74l-56.893.806Z" transform="translate(-14.1 -259.381)" fill="#e0e0e0"/>
      <path id="Path_1512" data-name="Path 1512" d="M140.175,88.661c-.362-4.359,2.05-6.457,1.03-10.717l-9.479-4.894a9.668,9.668,0,0,0-6.995,7.316,26.619,26.619,0,0,0-.709,6.7q-.08,4.115-.162,8.227a1.632,1.632,0,0,0,.294,1.182,1.546,1.546,0,0,0,.9.357,32.858,32.858,0,0,0,8.577-.142c2.209-.241,7.417,2.1,9.617,1.768C142.614,96.386,140.351,90.817,140.175,88.661Z" transform="translate(-97.385 -72.952)" fill="#e0e0e0"/>
      <path id="Path_1513" data-name="Path 1513" d="M132.949,159.56h7.528l3.777,1.908-3.3,5.724-4.609.576a41.318,41.318,0,0,1-4.559-1.206c-.046-.2-2.788-5.044-2.788-5.044Z" transform="translate(-101.286 -138.596)" fill="#ffbe9d"/>
      <path id="Path_1514" data-name="Path 1514" d="M143.866,79.926a10.055,10.055,0,0,0,.241-2.231,4.711,4.711,0,0,1,3.037-3.618,7.386,7.386,0,0,1,4.872.027,6.753,6.753,0,0,1,3.087,1.951,5.14,5.14,0,0,1,1.006,4.6l-8.4-1.117a9.41,9.41,0,0,1-2.523,1.7,1.739,1.739,0,0,1-.873.152.786.786,0,0,1-.661-.531A1.659,1.659,0,0,1,143.866,79.926Z" transform="translate(-112.386 -73.426)" fill="#e0e0e0"/>
      <path id="Path_1515" data-name="Path 1515" d="M145.047,86.613l7.3-1.64c2.33-.186,3.8,2.711,3.888,5.044A42.277,42.277,0,0,1,156,97.7c-.724,3.859-3.712,4.279-3.712,4.279s-.068,2.106-.121,3.514c-2.465,1.737-5.306,1.611-8.083.374l-.292-17.895A1.368,1.368,0,0,1,145.047,86.613Z" transform="translate(-112.508 -81.993)" fill="#ffbe9d"/>
      <path id="Path_1516" data-name="Path 1516" d="M184.328,117.135c.06-.068.449.2.984.176s.919-.306.979-.241-.029.147-.2.28a1.358,1.358,0,0,1-.782.273,1.322,1.322,0,0,1-.786-.219C184.359,117.287,184.3,117.166,184.328,117.135Z" transform="translate(-143.263 -106.347)" fill="#263238"/>
      <path id="Path_1517" data-name="Path 1517" d="M162.248,117.025c.06-.065.446.205.982.191s.924-.292.984-.227c.029.027-.031.147-.2.275a1.38,1.38,0,0,1-.786.263,1.331,1.331,0,0,1-.781-.241C162.277,117.172,162.219,117.056,162.248,117.025Z" transform="translate(-126.508 -106.286)" fill="#263238"/>
      <path id="Path_1518" data-name="Path 1518" d="M177.706,115.116a3.644,3.644,0,0,1,.876-.135c.137,0,.268-.034.294-.125a.7.7,0,0,0-.082-.408c-.121-.335-.241-.685-.376-1.052a17.454,17.454,0,0,1-.839-2.747,17.85,17.85,0,0,1,1.059,2.673l.359,1.056a.8.8,0,0,1,.058.54.345.345,0,0,1-.241.193.94.94,0,0,1-.241.027A3.492,3.492,0,0,1,177.706,115.116Z" transform="translate(-138.142 -101.482)" fill="#263238"/>
      <path id="Path_1519" data-name="Path 1519" d="M162.731,150.7a9.911,9.911,0,0,1-5.171-1.52s1.24,2.718,5.142,2.458Z" transform="translate(-122.957 -130.72)" fill="#eb996e"/>
      <path id="Path_1520" data-name="Path 1520" d="M171.992,133.289a.965.965,0,0,0-.856-.381.89.89,0,0,0-.62.311.557.557,0,0,0-.058.637.651.651,0,0,0,.7.2,2.007,2.007,0,0,0,.695-.391.608.608,0,0,0,.159-.154.183.183,0,0,0,0-.2" transform="translate(-132.688 -118.37)" fill="#eb996e"/>
      <path id="Path_1521" data-name="Path 1521" d="M171.264,130.54c.089,0,.075.579.562,1s1.11.379,1.112.458c0,.039-.142.111-.4.111a1.447,1.447,0,0,1-.919-.352,1.254,1.254,0,0,1-.434-.839C171.155,130.677,171.225,130.535,171.264,130.54Z" transform="translate(-133.288 -116.575)" fill="#263238"/>
      <path id="Path_1522" data-name="Path 1522" d="M164.694,104.439c-.058.145-.591.063-1.223.121s-1.146.217-1.225.084c-.036-.063.055-.2.265-.333a2.04,2.04,0,0,1,.914-.292,2.019,2.019,0,0,1,.95.135C164.6,104.248,164.718,104.371,164.694,104.439Z" transform="translate(-126.507 -96.444)" fill="#e0e0e0"/>
      <path id="Path_1523" data-name="Path 1523" d="M185.477,104.7c-.118.118-.564-.019-1.1-.041s-1,.055-1.1-.075c-.043-.063.031-.181.241-.292a1.785,1.785,0,0,1,.9-.176,1.73,1.73,0,0,1,.873.268C185.47,104.515,185.528,104.641,185.477,104.7Z" transform="translate(-142.459 -96.523)" fill="#e0e0e0"/>
      <path id="Path_1524" data-name="Path 1524" d="M139.046,72.9l3.739,2.272a3.618,3.618,0,0,1-2.477,2.75c-.666.2-1.464.241-1.865.813s-.176,1.428-.557,2.026c-.526.827-1.947.777-2.342,1.674-.174.391-.089.861-.268,1.249-.241.519,0,2.361-.533,2.185s-.9,2.853-.9,2.853-3.936-.371-3.013-8.2c.311-2.653.743-3.743,2.547-5.521S137.071,72.116,139.046,72.9Z" transform="translate(-102.566 -72.645)" fill="#e0e0e0"/>
      <path id="Path_1525" data-name="Path 1525" d="M138.821,121.082c0-.289-.311-.979-.6-1.03a1.685,1.685,0,0,0-2.2,1.821,1.99,1.99,0,0,0,2.6,2.111C138.631,123.909,138.8,122.081,138.821,121.082Z" transform="translate(-106.614 -108.58)" fill="#ffbe9d"/>
      <path id="Path_1526" data-name="Path 1526" d="M140.039,125.619c-.012,0-.048.031-.125.065a.465.465,0,0,1-.347,0,1.111,1.111,0,0,1-.482-1.04,1.51,1.51,0,0,1,.15-.656.54.54,0,0,1,.359-.342.241.241,0,0,1,.27.135c.031.075.014.128.027.133s.06-.041.041-.152a.3.3,0,0,0-.1-.169.352.352,0,0,0-.253-.077.651.651,0,0,0-.482.4,1.556,1.556,0,0,0-.186.724,1.2,1.2,0,0,0,.637,1.165.482.482,0,0,0,.425-.055C140.032,125.684,140.048,125.626,140.039,125.619Z" transform="translate(-108.805 -111.244)" fill="#eb996e"/>
      <path id="Path_1527" data-name="Path 1527" d="M167.936,128.554a1.876,1.876,0,0,0-.584.212,1.915,1.915,0,0,0-.422.456.467.467,0,0,1,.053-.186.965.965,0,0,1,.316-.347.941.941,0,0,1,.444-.157C167.863,128.523,167.936,128.544,167.936,128.554Z" transform="translate(-130.067 -115.05)" fill="#eb996e"/>
      <path id="Path_1528" data-name="Path 1528" d="M166.489,127.195a2.614,2.614,0,0,0-.62.359,2.539,2.539,0,0,0-.429.574.42.42,0,0,1,.053-.215,1.266,1.266,0,0,1,.777-.692A.407.407,0,0,1,166.489,127.195Z" transform="translate(-128.936 -114.034)" fill="#eb996e"/>
      <path id="Path_1529" data-name="Path 1529" d="M172.89,96.794a3.952,3.952,0,0,1-1.122.205,4.081,4.081,0,0,1-1.138-.024c0-.029.509-.019,1.131-.07S172.89,96.768,172.89,96.794Z" transform="translate(-132.874 -90.966)" fill="#eb996e"/>
      <path id="Path_1530" data-name="Path 1530" d="M173.246,98.473a8.1,8.1,0,0,1-1.766.034,4.445,4.445,0,0,1,.883-.063A4.154,4.154,0,0,1,173.246,98.473Z" transform="translate(-133.519 -92.213)" fill="#eb996e"/>
      <path id="Path_1531" data-name="Path 1531" d="M160.256,128a.22.22,0,0,0-.21-.258,2.1,2.1,0,0,1-1.447-.815c-.646-.646-.926-1.093-2.048-1.083a4.03,4.03,0,0,0-1.688.388,6.556,6.556,0,0,1-4.469.4l-1.423,1.758a6.878,6.878,0,0,0,7.118,4.754C159.209,132.936,160.073,129.074,160.256,128Z" transform="translate(-116.439 -113.009)" fill="#455a64"/>
      <path id="Path_1532" data-name="Path 1532" d="M161.979,126.832c-.644-.646-.926-1.1-2.045-1.083a3.992,3.992,0,0,0-1.688.388,6.575,6.575,0,0,1-4.467.4l-.321.4-.068.075a6.939,6.939,0,0,0,4.233.06,7.37,7.37,0,0,1,2.61-.6c.777.1,1.013.55,1.565,1.1s1.044.946,1.722.839l.041-.229c.019-.1.036-.183.048-.253a.22.22,0,0,0-.212-.26A2.138,2.138,0,0,1,161.979,126.832Z" transform="translate(-119.793 -112.94)" fill="#e0e0e0"/>
      <path id="Path_1533" data-name="Path 1533" d="M167.3,137.58a.44.44,0,0,1-.082.022l-.241.043c-.1.019-.241.039-.379.055s-.314.043-.5.053-.391.029-.61.034-.456,0-.7,0a12.348,12.348,0,0,1-1.6-.159,13.208,13.208,0,0,1-1.565-.376,7.007,7.007,0,0,1-.663-.241c-.205-.092-.4-.157-.567-.241s-.323-.152-.456-.217-.241-.125-.338-.176l-.207-.121a.352.352,0,0,1-.072-.046.346.346,0,0,1,.08.034l.215.106c.092.048.205.106.342.166s.285.135.458.205.359.15.567.222.427.15.663.224a13.07,13.07,0,0,0,1.556.369,13.236,13.236,0,0,0,1.592.166c.241,0,.482.014.7,0s.425-.012.61-.024.352-.029.5-.041.275-.029.379-.043l.241-.031Z" transform="translate(-124.285 -120.878)" fill="#263238"/>
      <path id="Path_1534" data-name="Path 1534" d="M170.365,144.61a1.088,1.088,0,0,1-.191.06c-.06.017-.137.036-.227.053s-.191.041-.3.055a5.7,5.7,0,0,1-.8.07,7.141,7.141,0,0,1-.987-.058,6.88,6.88,0,0,1-.965-.215,5.988,5.988,0,0,1-.753-.287c-.106-.043-.2-.094-.277-.135a2.221,2.221,0,0,1-.2-.116.888.888,0,0,1-.166-.109,1.08,1.08,0,0,1,.178.084c.058.029.128.065.21.1s.174.084.28.125a6.583,6.583,0,0,0,.753.27,7.432,7.432,0,0,0,.965.205,7.823,7.823,0,0,0,.965.065,7.327,7.327,0,0,0,.8-.053c.113-.012.215-.031.3-.046s.166-.027.227-.041A1.119,1.119,0,0,1,170.365,144.61Z" transform="translate(-128.974 -126.736)" fill="#263238"/>
      <path id="Path_1535" data-name="Path 1535" d="M145.211,136.777a3.968,3.968,0,0,1-.709.034,3.49,3.49,0,0,1-.7-.031,3.968,3.968,0,0,1,.709-.034A3.718,3.718,0,0,1,145.211,136.777Z" transform="translate(-112.516 -121.281)" fill="#455a64"/>
      <g id="Group_423" data-name="Group 423" transform="translate(35.445 15.568)" opacity="0.3">
        <path id="Path_1536" data-name="Path 1536" d="M168.047,138.439a13.964,13.964,0,0,1-3.715.306,7.169,7.169,0,0,1-3.283-1.556A12.749,12.749,0,0,0,168.047,138.439Z" transform="translate(-161.05 -137.19)"/>
      </g>
      <path id="Path_1537" data-name="Path 1537" d="M174.214,135.955a.625.625,0,0,1-.152.041,4.09,4.09,0,0,1-.427.075,8.283,8.283,0,0,1-2.844-.087c-.179-.036-.323-.07-.42-.1a.79.79,0,0,1-.152-.051c0-.012.224.039.581.1a11,11,0,0,0,1.411.142,10.507,10.507,0,0,0,1.416-.055C173.99,135.981,174.214,135.943,174.214,135.955Z" transform="translate(-132.563 -120.592)" fill="#263238"/>
      <path id="Path_1538" data-name="Path 1538" d="M132.259,99.387a1.1,1.1,0,0,1-.075-.137c-.048-.092-.1-.241-.176-.415a5.549,5.549,0,0,1-.328-1.618,5.668,5.668,0,0,1,.388-2.412c.08-.22.2-.425.306-.644a7.311,7.311,0,0,1,.388-.632,4.318,4.318,0,0,1,.482-.61c.178-.2.338-.4.528-.586.743-.767,1.52-1.416,2.2-2.033a14.366,14.366,0,0,0,1.688-1.749,8.779,8.779,0,0,0,.538-.76c.13-.241.241-.449.33-.625l.169-.412a.858.858,0,0,1,.065-.142.6.6,0,0,1-.043.15c-.036.111-.087.241-.147.425a5.083,5.083,0,0,1-.314.639,8.134,8.134,0,0,1-.528.781,13.659,13.659,0,0,1-1.688,1.778c-.678.625-1.447,1.276-2.185,2.036-.191.186-.352.391-.526.581s-.314.4-.463.6a4.177,4.177,0,0,0-.384.62,6.817,6.817,0,0,0-.3.63,5.666,5.666,0,0,0-.408,2.366,5.982,5.982,0,0,0,.285,1.609C132.177,99.186,132.271,99.379,132.259,99.387Z" transform="translate(-103.312 -83.242)" fill="#fafafa"/>
      <path id="Path_1539" data-name="Path 1539" d="M130,106.983a.4.4,0,0,1-.058-.109c-.034-.075-.089-.183-.142-.328a8.7,8.7,0,0,1-.4-1.252,9.53,9.53,0,0,1,1.845-8.184,8.794,8.794,0,0,1,.892-.965c.113-.106.207-.181.27-.241a.483.483,0,0,1,.1-.075,4.2,4.2,0,0,1-.333.345,10.23,10.23,0,0,0-.859.979,9.762,9.762,0,0,0-1.828,8.124,10.362,10.362,0,0,0,.355,1.254A4.441,4.441,0,0,1,130,106.983Z" transform="translate(-101.394 -90.238)" fill="#fafafa"/>
      <path id="Path_1540" data-name="Path 1540" d="M158.116,116.424c0,.034-.166.043-.362.019s-.35-.072-.345-.106.166-.043.359-.019S158.121,116.39,158.116,116.424Z" transform="translate(-122.843 -105.774)" fill="#eb996e"/>
      <path id="Path_1541" data-name="Path 1541" d="M158.028,118.185c0,.034-.055.08-.147.106s-.174.022-.183,0,.058-.082.15-.109S158.011,118.151,158.028,118.185Z" transform="translate(-123.06 -107.183)" fill="#eb996e"/>
      <path id="Path_1542" data-name="Path 1542" d="M193.941,116.444c.017.029-.022.084-.084.125s-.133.046-.152.017.022-.087.087-.125S193.924,116.415,193.941,116.444Z" transform="translate(-150.38 -105.866)" fill="#eb996e"/>
      <path id="Path_1543" data-name="Path 1543" d="M193.672,118.392c0,.034-.109.058-.241.051s-.241-.039-.241-.075.109-.055.241-.051S193.675,118.359,193.672,118.392Z" transform="translate(-149.993 -107.301)" fill="#eb996e"/>
      <path id="Path_1544" data-name="Path 1544" d="M150.1,155.941c-.014,0,0-.053,0-.14a.8.8,0,0,0-.1-.352,3.085,3.085,0,0,1-.241-.533.572.572,0,0,1,.027-.367c.055-.118.14-.21.174-.309a.328.328,0,0,0-.065-.287,1.988,1.988,0,0,1-.188-.289.984.984,0,0,1-.077-.589.671.671,0,0,1,.261-.465,1.4,1.4,0,0,0-.171.482.924.924,0,0,0,.092.526,2.385,2.385,0,0,0,.186.27.441.441,0,0,1,.082.4,2.626,2.626,0,0,1-.181.321.468.468,0,0,0-.024.292,3.832,3.832,0,0,0,.2.523.724.724,0,0,1,.063.391A.2.2,0,0,1,150.1,155.941Z" transform="translate(-116.93 -133.322)" fill="#eb996e"/>
      <path id="Path_1545" data-name="Path 1545" d="M153.736,157.665a1.161,1.161,0,0,1-.256-.347,1.521,1.521,0,0,1-.176-.444,1.043,1.043,0,0,1-.014-.289,2.192,2.192,0,0,1,.055-.294.793.793,0,0,0-.08-.514c-.072-.154-.152-.294-.2-.422a.482.482,0,0,1,0-.434,1.051,1.051,0,0,0,.092.4c.053.116.137.241.219.405a.866.866,0,0,1,.1.586,1.266,1.266,0,0,0-.051.54,1.688,1.688,0,0,0,.142.425A2.113,2.113,0,0,1,153.736,157.665Z" transform="translate(-119.509 -135.075)" fill="#eb996e"/>
      <path id="Path_1546" data-name="Path 1546" d="M148.108,123.06a39.96,39.96,0,0,1-2.248-1.93,6.9,6.9,0,0,1,1.189.89A6.81,6.81,0,0,1,148.108,123.06Z" transform="translate(-114.079 -109.435)" fill="#455a64"/>
      <path id="Path_1547" data-name="Path 1547" d="M285.1,284.081c.014,0,0-.094-.029-.241a1.789,1.789,0,0,1-.022-.548,1.061,1.061,0,0,1,.2-.5c.084-.111.159-.162.152-.176s-.1.017-.21.128a.936.936,0,0,0-.241.531,1.373,1.373,0,0,0,.055.581C285.039,284,285.084,284.086,285.1,284.081Z" transform="translate(-219.612 -231.97)" fill="#eb996e"/>
      <path id="Path_1548" data-name="Path 1548" d="M71.85,302.38a3.411,3.411,0,0,1,1.339.434,3.376,3.376,0,0,1,1.124.844c-.027.029-.5-.384-1.182-.724S71.84,302.419,71.85,302.38Z" transform="translate(-57.92 -246.967)" fill="#455a64"/>
      <path id="Path_1549" data-name="Path 1549" d="M167.4,76.462a6.361,6.361,0,0,1-.451-.545,5.886,5.886,0,0,0-1.237-1.151,6.312,6.312,0,0,0-1.541-.695,4.979,4.979,0,0,1-.671-.241,3.244,3.244,0,0,1,.7.15,5.492,5.492,0,0,1,1.594.68,5.22,5.22,0,0,1,1.237,1.206A2.9,2.9,0,0,1,167.4,76.462Z" transform="translate(-127.464 -73.544)" fill="#fafafa"/>
      <path id="Path_1550" data-name="Path 1550" d="M256.9,281.054c.555-.077,3.871-1.049,4.1-.866s.453.355.4.572-2.33,1.286-2.622,1.561-.613.837-.5,1.138a7.31,7.31,0,0,0,.745,1.085l-.779,1.809s-.343-.1-.75-.2a18.634,18.634,0,0,0-2.253-1.266,10.386,10.386,0,0,1-2.031-.931l1.192-1.792a2.349,2.349,0,0,1,1.7-1.03Z" transform="translate(-195.543 -230.11)" fill="#ffbe9d"/>
      <path id="Path_1551" data-name="Path 1551" d="M277.283,282.582l1.517,3.085-.936,1.862a1.02,1.02,0,0,1-.883.562l-2.851.084.779-1.809-.328-.425.589-.839-.171-.965s.152-.5.482-.258.516,1.628.516,1.628l-.451.987.878-1.037s-.7-1.348-.106-1.705l.265-.113.444.871s-.528-1.138-.205-1.594S277.283,282.582,277.283,282.582Z" transform="translate(-211.41 -231.933)" fill="#ffbe9d"/>
      <path id="Path_1552" data-name="Path 1552" d="M263.745,290.436a1.466,1.466,0,0,1-.186.039.536.536,0,0,1-.41-.268c-.135-.176-.268-.41-.424-.666a2.49,2.49,0,0,0-.637-.753,1.616,1.616,0,0,0-.945-.3,1.543,1.543,0,0,0-1.189.572.482.482,0,0,0-.1.171,2.237,2.237,0,0,1,.552-.461,1.539,1.539,0,0,1,1.623.1,2.57,2.57,0,0,1,.615.724,7.407,7.407,0,0,0,.449.661.943.943,0,0,0,.241.21.39.39,0,0,0,.241.053.346.346,0,0,0,.142-.048C263.745,290.451,263.745,290.439,263.745,290.436Z" transform="translate(-200.574 -236.427)" fill="#eb996e"/>
      <path id="Path_1553" data-name="Path 1553" d="M276.4,297.054a8.385,8.385,0,0,0,.724-1.148,8.3,8.3,0,0,0,.615-1.206,8.382,8.382,0,0,0-.712,1.148A8.289,8.289,0,0,0,276.4,297.054Z" transform="translate(-213.132 -241.14)" fill="#eb996e"/>
      <path id="Path_1554" data-name="Path 1554" d="M283.88,291.595a3.981,3.981,0,0,0,.42-.514l.432-.574.241-.342a.933.933,0,0,0,.21-.429.724.724,0,0,0-.142-.461c-.087-.128-.178-.241-.256-.345a6.888,6.888,0,0,1-.386-.6c-.2-.352-.3-.586-.316-.581a.535.535,0,0,0,.048.174,4.653,4.653,0,0,0,.2.444,5.157,5.157,0,0,0,.374.62c.077.113.169.224.241.345a.617.617,0,0,1,.123.391.849.849,0,0,1-.188.379l-.241.345-.412.591a4.092,4.092,0,0,0-.347.557Z" transform="translate(-218.808 -235.866)" fill="#eb996e"/>
      <path id="Path_1555" data-name="Path 1555" d="M197.4,171.54s2.938,0,3.772,6.368c.7,5.379,1.254,11.124,1.254,11.124l10.468,10.357-3,2.171c-1.93-.08-12.222-5.475-13.507-9.378-.434-1.327-.376-13.667-.376-13.667Z" transform="translate(-152.132 -147.686)" fill="#ffbe9d"/>
      <path id="Path_1556" data-name="Path 1556" d="M222.339,262.568a2.138,2.138,0,0,1-.54-.215,3.124,3.124,0,0,1-.538-.335,1.645,1.645,0,0,1-.482-.618c-.058-.13-.082-.275-.121-.379a.241.241,0,0,0-.241-.164,1.494,1.494,0,0,1-.34-.043.864.864,0,0,1-.275-.137.818.818,0,0,1-.268-.343c-.039-.094-.041-.152-.034-.154a1.175,1.175,0,0,0,.355.425.838.838,0,0,0,.241.111,1.621,1.621,0,0,0,.323.027.43.43,0,0,1,.2.058.369.369,0,0,1,.137.174c.053.135.07.258.123.376a2.171,2.171,0,0,0,.965.926A3.523,3.523,0,0,1,222.339,262.568Z" transform="translate(-169.954 -214.946)" fill="#eb996e"/>
      <path id="Path_1557" data-name="Path 1557" d="M225.591,261.052a.651.651,0,0,1-.451.063,1.1,1.1,0,0,1-.468-.181,1.16,1.16,0,0,1-.393-.482c-.1-.193-.164-.381-.241-.535a1.064,1.064,0,0,0-.292-.352.782.782,0,0,0-.4-.142.222.222,0,0,1,.121-.031.608.608,0,0,1,.326.1,1.085,1.085,0,0,1,.343.369c.1.164.169.355.258.538a1.083,1.083,0,0,0,.767.622,2.809,2.809,0,0,0,.427.034Z" transform="translate(-172.878 -214.346)" fill="#eb996e"/>
      <path id="Path_1558" data-name="Path 1558" d="M35.332,278.906c-.555-.077-3.874-1.052-4.113-.868s-.453.357-.4.572,2.332,1.288,2.624,1.561.613.837.5,1.141a7.646,7.646,0,0,1-.745,1.085l.779,1.807s.343-.1.748-.2a18.976,18.976,0,0,1,2.253-1.266,10.54,10.54,0,0,0,2.033-.933l-1.206-1.79a2.33,2.33,0,0,0-1.7-1.03Z" transform="translate(-26.779 -228.479)" fill="#ffbe9d"/>
      <path id="Path_1559" data-name="Path 1559" d="M26.075,280.436l-1.515,3.087.936,1.862a1.023,1.023,0,0,0,.883.562l2.851.082-.779-1.807.316-.424-.591-.839.171-.977s-.152-.5-.482-.256-.519,1.628-.519,1.628l.456.994-.878-1.037s.7-1.346.109-1.7l-.265-.116-.446.871s.528-1.138.207-1.592S26.075,280.436,26.075,280.436Z" transform="translate(-22.037 -230.306)" fill="#ffbe9d"/>
      <path id="Path_1560" data-name="Path 1560" d="M42,288.289a1.636,1.636,0,0,0,.186.039.543.543,0,0,0,.41-.268c.133-.176.265-.412.425-.666a2.463,2.463,0,0,1,.637-.755,1.609,1.609,0,0,1,.943-.3,1.556,1.556,0,0,1,.779.217,1.465,1.465,0,0,1,.41.357c.08.1.111.166.1.169a2.15,2.15,0,0,0-.552-.458,1.52,1.52,0,0,0-.74-.183,1.554,1.554,0,0,0-.871.3,2.463,2.463,0,0,0-.615.724,6.893,6.893,0,0,1-.451.661.857.857,0,0,1-.241.207.372.372,0,0,1-.241.053.323.323,0,0,1-.145-.048A.142.142,0,0,0,42,288.289Z" transform="translate(-35.27 -234.796)" fill="#eb996e"/>
      <path id="Path_1561" data-name="Path 1561" d="M37.469,294.912a16.38,16.38,0,0,1-1.329-2.352,8.075,8.075,0,0,1,.724,1.146,8.47,8.47,0,0,1,.605,1.206Z" transform="translate(-30.824 -239.516)" fill="#eb996e"/>
      <path id="Path_1562" data-name="Path 1562" d="M30.068,289.439a3.859,3.859,0,0,1-.417-.514l-.432-.584L28.977,288a.934.934,0,0,1-.21-.429.709.709,0,0,1,.142-.461c.084-.128.176-.241.253-.342a6.436,6.436,0,0,0,.384-.6c.2-.355.3-.589.316-.581a.572.572,0,0,1-.051.171,4.277,4.277,0,0,1-.2.446,5.346,5.346,0,0,1-.374.62c-.077.113-.169.224-.241.342a.62.62,0,0,0-.125.391.876.876,0,0,0,.188.379l.241.347.41.589A4.007,4.007,0,0,1,30.068,289.439Z" transform="translate(-25.229 -234.226)" fill="#eb996e"/>
      <path id="Path_1563" data-name="Path 1563" d="M31.5,281.931c-.014,0,0-.094.029-.241a1.792,1.792,0,0,0,.022-.548,1.042,1.042,0,0,0-.2-.5c-.084-.111-.159-.162-.15-.176s.1.017.207.125a.929.929,0,0,1,.241.531,1.373,1.373,0,0,1-.053.581C31.557,281.857,31.511,281.936,31.5,281.931Z" transform="translate(-27.073 -230.339)" fill="#eb996e"/>
      <path id="Path_1564" data-name="Path 1564" d="M68.251,170.31s-4.677.989-5.022,7.224a37.1,37.1,0,0,1-2.287,10.372L52.1,197.945l3,2.171c.256.9,12.494-5.806,12.743-8.37.135-1.389,1.134-14.675,1.134-14.675Z" transform="translate(-42.934 -146.753)" fill="#ffbe9d"/>
      <path id="Path_1565" data-name="Path 1565" d="M75.87,272a3.106,3.106,0,0,1-1.107,1.061c-.364.229-.724.35-.938.521a1.222,1.222,0,0,0-.277.328c-.014,0,0-.2.219-.4a8.8,8.8,0,0,1,.931-.56A8.611,8.611,0,0,0,75.87,272Z" transform="translate(-59.205 -223.915)" fill="#eb996e"/>
      <path id="Path_1566" data-name="Path 1566" d="M75.59,265.58a.965.965,0,0,1-.222.509,1.5,1.5,0,0,1-.456.408,2.846,2.846,0,0,1-.692.253,2.624,2.624,0,0,0-1.1.649,3.254,3.254,0,0,1-.415.362,1.928,1.928,0,0,1,.352-.424,2.438,2.438,0,0,1,1.134-.707,3.046,3.046,0,0,0,.673-.241,1.568,1.568,0,0,0,.444-.364A4.031,4.031,0,0,0,75.59,265.58Z" transform="translate(-58.565 -219.043)" fill="#eb996e"/>
      <path id="Path_1567" data-name="Path 1567" d="M90.758,343.76a.876.876,0,0,0-1.129,1.336c.374.333,1,.321,1.3.724a2.48,2.48,0,0,1,.241,1.088,1.689,1.689,0,0,0,.953,1.221c.362.166.8.215,1.066.509.145.162.222.384.393.519.347.273.849.053,1.23-.171l5.306-3.136Z" transform="translate(-71.198 -278.228)" fill="#ffbe9d"/>
      <path id="Path_1568" data-name="Path 1568" d="M101.26,281.042a5.14,5.14,0,0,1,2.979-3.022s7.369,4.959,11.025,4.556,11.018-2.786,11.018-2.786a3.366,3.366,0,0,1,2.255,1.614l-14.4,7.617Z" transform="translate(-80.237 -228.483)" fill="#263238"/>
      <path id="Path_1569" data-name="Path 1569" d="M239.591,308.26a1.054,1.054,0,0,1-.355.13c-.22.068-.538.123-.859.241a2.47,2.47,0,0,0-.724.482,2.349,2.349,0,0,1-.289.241,1.09,1.09,0,0,1,.229-.3,2.019,2.019,0,0,1,.748-.528,5.427,5.427,0,0,1,.885-.212A1.281,1.281,0,0,1,239.591,308.26Z" transform="translate(-183.511 -251.429)" fill="#455a64"/>
      <path id="Path_1570" data-name="Path 1570" d="M74.57,306.613a1.085,1.085,0,0,1,.212-.13c.142-.077.35-.179.613-.294a10.644,10.644,0,0,1,2.135-.687,10.9,10.9,0,0,1,2.231-.241c.287,0,.519.012.68.029a.943.943,0,0,1,.241.034c0,.022-.355,0-.924.027a13.106,13.106,0,0,0-2.207.265,12.785,12.785,0,0,0-2.127.646A6.222,6.222,0,0,1,74.57,306.613Z" transform="translate(-59.984 -249.152)" fill="#455a64"/>
      <path id="Path_1571" data-name="Path 1571" d="M223.6,312.593c0,.019-.369-.116-.965-.263a10.307,10.307,0,0,0-4.79-.043c-.6.138-.965.265-.965.241a1.276,1.276,0,0,1,.241-.109,6.3,6.3,0,0,1,.7-.222,9.141,9.141,0,0,1,2.412-.3,9.252,9.252,0,0,1,2.412.343,6.8,6.8,0,0,1,.7.241A.979.979,0,0,1,223.6,312.593Z" transform="translate(-167.969 -254.189)" fill="#455a64"/>
      <path id="Path_1572" data-name="Path 1572" d="M67.085,288.283l-1.886.029s-5.338-1.385-8.42.683a7.77,7.77,0,0,0-2.993,3.789c-.154.97.434,6.163,2.094,7.038,10.507,5.548,28.4,4.629,28.4,4.629l1.544-4.057-8.442-3.273.885-.511Z" transform="translate(-44.195 -235.948)" fill="#263238"/>
      <path id="Path_1573" data-name="Path 1573" d="M164.9,287.185c-.4.207-14.149,7.752-14.149,7.752l8.669,3.36,11.083,1.609s5.685-.808,7.422-4.1c.712-1.358,2.516-5.28.907-7.979s-7.058-3.09-8.666-2.484S164.9,287.185,164.9,287.185Z" transform="translate(-117.789 -233.852)" fill="#263238"/>
      <path id="Path_1574" data-name="Path 1574" d="M171.168,295.272a.17.17,0,0,1-.051,0l-.15.012a1.584,1.584,0,0,0-.241.034c-.1.017-.205.031-.326.063a18.137,18.137,0,0,0-2.021.6c-1.688.577-3.953,1.5-6.435,2.579s-4.706,2.1-6.315,2.839l-1.906.878c-.22.1-.393.181-.521.241l-.135.06-.048.017.043-.027.13-.068.511-.253c.444-.217,1.09-.528,1.891-.907,1.6-.757,3.823-1.787,6.305-2.865s4.761-1.995,6.455-2.557a17.3,17.3,0,0,1,2.036-.567c.123-.027.241-.041.33-.053a2.116,2.116,0,0,1,.241-.024h.15Z" transform="translate(-119.512 -241.572)" fill="#455a64"/>
      <path id="Path_1575" data-name="Path 1575" d="M230.37,293.232a.707.707,0,0,1-.014-.2,4.637,4.637,0,0,1,.022-.533,6.652,6.652,0,0,1,.4-1.715,6.917,6.917,0,0,1,.835-1.57,3.874,3.874,0,0,1,.338-.427c.1-.1.135-.147.142-.142s-.166.241-.417.608a7.985,7.985,0,0,0-.8,1.565,7.694,7.694,0,0,0-.42,1.688C230.394,292.955,230.389,293.232,230.37,293.232Z" transform="translate(-178.193 -236.548)" fill="#455a64"/>
      <path id="Path_1576" data-name="Path 1576" d="M120.3,311.686l-.055-.019-.166-.065-.627-.256c-.543-.224-1.327-.552-2.294-.965s-2.111-.917-3.377-1.5-2.617-1.252-4.018-2.043c-1.008-.564-1.98-1.114-2.923-1.587a18.5,18.5,0,0,0-2.726-1.124,12.938,12.938,0,0,0-4.141-.6h0l-.581-.581-.147-.152c-.031-.034-.046-.053-.046-.053s.019.014.055.046l.154.145c.137.135.335.323.591.569h-.017a12.625,12.625,0,0,1,4.173.555,18.156,18.156,0,0,1,2.747,1.119c.948.47,1.93,1.02,2.931,1.585,1.389.777,2.757,1.447,4.009,2.043s2.4,1.1,3.358,1.522l2.279,1,.62.273.159.072C120.286,311.674,120.305,311.684,120.3,311.686Z" transform="translate(-78.674 -247.24)" fill="#455a64"/>
      <path id="Path_1577" data-name="Path 1577" d="M179.61,341.239l13.025-.379s3.181.482,3.377,0c0,0,.946-.519.668-1.148,0,0,.946.772,1.141-.207a2.049,2.049,0,0,0-1.93-2.2c-1.184-.075-1.611-.152-2.045-.482a3.351,3.351,0,0,0-1.141-.482l-12.084.842Z" transform="translate(-139.688 -272.736)" fill="#ffbe9d"/>
      <path id="Path_1578" data-name="Path 1578" d="M113.777,300.41c-.017,0-.2-.28-.538-.724a10.13,10.13,0,0,0-1.524-1.544,10.412,10.412,0,0,0-1.85-1.187c-.509-.256-.842-.379-.835-.4a1.108,1.108,0,0,1,.241.072c.152.053.367.14.627.26a9.269,9.269,0,0,1,1.884,1.175,8.894,8.894,0,0,1,1.517,1.577,6.182,6.182,0,0,1,.364.548A1,1,0,0,1,113.777,300.41Z" transform="translate(-86.132 -242.551)" fill="#455a64"/>
      <path id="Path_1579" data-name="Path 1579" d="M113.617,297.181a.534.534,0,0,1-.087-.111l-.241-.328c-.094-.142-.215-.318-.369-.511s-.311-.422-.519-.651l-.318-.369c-.109-.125-.241-.241-.362-.381-.241-.268-.535-.523-.837-.8a16.63,16.63,0,0,0-2.137-1.573,16.249,16.249,0,0,0-2.383-1.167c-.386-.137-.748-.277-1.1-.371-.174-.051-.34-.106-.5-.145l-.482-.111c-.3-.08-.579-.116-.82-.159a6.2,6.2,0,0,0-.625-.092l-.4-.051a.514.514,0,0,1-.137-.026.871.871,0,0,1,.14,0l.4.026a5.655,5.655,0,0,1,.627.07c.241.039.526.07.827.142l.482.1c.166.036.335.092.511.137.357.092.724.241,1.112.364a14.417,14.417,0,0,1,4.556,2.764c.3.282.591.543.835.815.125.135.241.261.359.391l.314.374c.205.241.362.47.509.668a5.7,5.7,0,0,1,.352.526l.21.342A.755.755,0,0,1,113.617,297.181Z" transform="translate(-81.026 -237.822)" fill="#455a64"/>
      <path id="Path_1580" data-name="Path 1580" d="M117.717,163.54l-4.607,1.633s-.133,20.821-.077,21.443l-1.372,4.354c5.615,6.9,14.873,5.738,22.521,1.954-.379-2.412-1.585-6.828-1.585-6.828s2.019-5.439,2.019-8.271-.668-11.351-.6-12.354l-2.135-.668-1.447-.685a7.78,7.78,0,0,1-6.672,4.7C118.722,169.155,117.717,163.54,117.717,163.54Z" transform="translate(-88.128 -141.616)" fill="#6d9b79"/>
      <path id="Path_1581" data-name="Path 1581" d="M97.473,169.83s-4.631.765-5.463,8.6l-1.38,6.059,8.384,1.237Z" transform="translate(-72.171 -146.389)" fill="#6d9b79"/>
      <path id="Path_1582" data-name="Path 1582" d="M199.532,185.02l4.5-.548s-1.153-12.408-4.491-12.883L198,176.383Z" transform="translate(-153.643 -147.724)" fill="#6d9b79"/>
      <path id="Path_1583" data-name="Path 1583" d="M197.333,192.57a1.227,1.227,0,0,1,.084.142c.055.109.128.241.219.425.048.094.1.2.157.309s.1.241.162.379c.111.273.256.576.367.931l.188.552c.063.193.111.4.171.608.125.42.207.88.3,1.363a16.325,16.325,0,0,1-.128,6.356c-.116.482-.217.933-.359,1.348-.068.207-.123.412-.2.6l-.21.545c-.125.35-.282.649-.4.917-.065.133-.121.258-.178.371l-.169.3-.241.415a.68.68,0,0,1-.092.14,1.166,1.166,0,0,1,.07-.154l.215-.425.159-.3c.055-.113.106-.241.166-.374.116-.27.265-.569.383-.921l.2-.543c.07-.191.121-.393.186-.6.137-.412.241-.866.347-1.341a16.739,16.739,0,0,0,.128-6.312c-.094-.482-.171-.936-.292-1.356-.058-.207-.1-.415-.164-.605s-.121-.376-.178-.552c-.1-.355-.241-.661-.347-.933-.053-.137-.1-.265-.152-.381l-.145-.311-.2-.434A.722.722,0,0,1,197.333,192.57Z" transform="translate(-152.891 -163.644)" fill="#263238"/>
      <path id="Path_1584" data-name="Path 1584" d="M150.116,220.15a2.949,2.949,0,0,1,0,.427v.5c0,.2-.039.422-.06.663a9.308,9.308,0,0,1-1.228,3.645,6.742,6.742,0,0,1-2.12,2.188c-.125.072-.241.137-.369.2l-.176.1-.176.072-.328.133a2.993,2.993,0,0,1-.3.092,2.758,2.758,0,0,1-.482.116,2.479,2.479,0,0,1-.425.053,8.442,8.442,0,0,0,1.51-.482l.171-.075.171-.1c.116-.068.241-.133.359-.207a6.345,6.345,0,0,0,.724-.557,6.705,6.705,0,0,0,1.341-1.606,9.616,9.616,0,0,0,1.247-3.592c.029-.241.055-.461.08-.656s.022-.364.034-.5A2.678,2.678,0,0,1,150.116,220.15Z" transform="translate(-113.009 -184.571)" fill="#263238"/>
      <path id="Path_1585" data-name="Path 1585" d="M115.257,199.4a.516.516,0,0,1,.022.137c.012.1.024.241.041.393.031.343.068.839.1,1.447.072,1.228.118,2.926.171,4.8s.15,3.567.268,4.788c.058.613.111,1.107.152,1.447.019.159.031.289.043.393a.5.5,0,0,1,0,.137.535.535,0,0,1-.031-.133c-.017-.1-.041-.241-.068-.391-.055-.34-.123-.832-.193-1.447-.14-1.223-.241-2.919-.3-4.8s-.084-3.57-.135-4.8c-.027-.6-.048-1.093-.065-1.447a3.1,3.1,0,0,0-.014-.393A.564.564,0,0,1,115.257,199.4Z" transform="translate(-90.849 -168.826)" fill="#263238"/>
      <g id="Group_424" data-name="Group 424" transform="translate(30.749 37.436)" opacity="0.3">
        <path id="Path_1586" data-name="Path 1586" d="M147.7,227.85a8.094,8.094,0,0,1-2.074,4.583,8.989,8.989,0,0,1-4.043,1.995l.14.034c1.688.263,4.291-.415,5.343-1.761A4.916,4.916,0,0,0,147.7,227.85Z" transform="translate(-141.58 -227.85)"/>
      </g>
      <path id="Path_1587" data-name="Path 1587" d="M142.755,209.379a.24.24,0,0,1,0,.06v.174c-.012.152-.029.376-.068.663a4.92,4.92,0,0,1-.241,1.028,2.764,2.764,0,0,1-.786,1.16,1.889,1.889,0,0,1-.724.393,1.866,1.866,0,0,1-.895.014,3.208,3.208,0,0,1-1.638-1.044c-.468-.509-.854-1.122-1.353-1.662a3.812,3.812,0,0,0-.856-.709,2.132,2.132,0,0,0-1.076-.321,2.412,2.412,0,0,0-1.1.256,4.376,4.376,0,0,0-.933.615c-.569.468-1.02,1.03-1.512,1.51a4.824,4.824,0,0,1-1.594,1.122,2.557,2.557,0,0,1-1.688.051,3.492,3.492,0,0,1-1.228-.678,5.1,5.1,0,0,1-.724-.762c-.181-.227-.306-.415-.391-.543l-.092-.147-.029-.051a1.38,1.38,0,0,1,.142.183c.089.123.222.3.405.526a5.467,5.467,0,0,0,.741.738,3.488,3.488,0,0,0,1.206.649,2.475,2.475,0,0,0,1.626-.063,4.73,4.73,0,0,0,1.551-1.107,21.476,21.476,0,0,1,1.517-1.522,4.57,4.57,0,0,1,.965-.634,2.557,2.557,0,0,1,1.155-.268,2.281,2.281,0,0,1,1.138.338,4.013,4.013,0,0,1,.883.724c.509.555.89,1.167,1.346,1.669a3.121,3.121,0,0,0,1.577,1.02,1.761,1.761,0,0,0,.847,0,1.829,1.829,0,0,0,.695-.367,2.7,2.7,0,0,0,.774-1.117,5.064,5.064,0,0,0,.263-1.011c.046-.285.072-.509.092-.658a1.354,1.354,0,0,1,.022-.174A.283.283,0,0,1,142.755,209.379Z" transform="translate(-98.88 -176.118)" fill="#fff"/>
    </g>
    <g id="freepik--character-2--inject-21" transform="translate(39.648 55.386)">
      <path id="Path_1588" data-name="Path 1588" d="M120.02,424.71H242.631l-10.615-15.64H128.795Z" transform="translate(-120.02 -345.534)" fill="#e0e0e0"/>
      <path id="Path_1589" data-name="Path 1589" d="M420.721,270.27s3.3,0,4.236,7.152c.791,6.03,1.281,13.775,1.281,13.775L438.1,301.542l-3.362,2.446s-13.064-7.759-13.766-9.166-1.814-16.711-1.814-16.711Z" transform="translate(-347.006 -240.214)" fill="#ffbe9d"/>
      <path id="Path_1590" data-name="Path 1590" d="M487.565,393.237c.622-.087,4.342-1.18,4.614-.965s.511.4.453.642-2.617,1.447-2.945,1.751-.687.938-.557,1.278a8.476,8.476,0,0,0,.837,1.218l-.876,2.019s-.384-.113-.839-.219a21.451,21.451,0,0,0-2.53-1.423,11.817,11.817,0,0,1-2.282-1.047l1.339-2.009a2.629,2.629,0,0,1,1.91-1.158Z" transform="translate(-395.782 -332.767)" fill="#ffbe9d"/>
      <path id="Path_1591" data-name="Path 1591" d="M510.411,394.934l1.7,3.464-1.052,2.084a1.146,1.146,0,0,1-.991.63l-3.2.094.876-2.031-.367-.482.663-.941-.193-1.1s.171-.56.545-.287.581,1.826.581,1.826l-.5,1.119.987-1.165s-.791-1.512-.121-1.913l.3-.13.5.977s-.6-1.276-.241-1.787S510.411,394.934,510.411,394.934Z" transform="translate(-413.56 -334.792)" fill="#ffbe9d"/>
      <path id="Path_1592" data-name="Path 1592" d="M495.205,403.755a1.621,1.621,0,0,1-.207.043.61.61,0,0,1-.461-.3c-.149-.2-.3-.461-.482-.748a2.787,2.787,0,0,0-.724-.844,1.792,1.792,0,0,0-1.059-.335,1.719,1.719,0,0,0-.876.241,1.688,1.688,0,0,0-.461.4.538.538,0,0,0-.116.191,2.5,2.5,0,0,1,.62-.514,1.712,1.712,0,0,1,1.819.116,2.789,2.789,0,0,1,.692.806,7.854,7.854,0,0,0,.5.743,1.069,1.069,0,0,0,.265.241.442.442,0,0,0,.265.06.365.365,0,0,0,.159-.055A.3.3,0,0,0,495.205,403.755Z" transform="translate(-401.382 -339.843)" fill="#eb996e"/>
      <path id="Path_1593" data-name="Path 1593" d="M509.42,411.2a9.862,9.862,0,0,0,.8-1.29,9.417,9.417,0,0,0,.692-1.348,9.853,9.853,0,0,0-.8,1.29A9.266,9.266,0,0,0,509.42,411.2Z" transform="translate(-415.495 -345.147)" fill="#eb996e"/>
      <path id="Path_1594" data-name="Path 1594" d="M517.82,405.08a4.408,4.408,0,0,0,.47-.579l.482-.646.3-.376a1.052,1.052,0,0,0,.241-.482.794.794,0,0,0-.159-.516c-.094-.142-.2-.263-.285-.386a6.817,6.817,0,0,1-.434-.673c-.227-.4-.338-.658-.355-.651a.567.567,0,0,0,.055.193,4.479,4.479,0,0,0,.222.5,5.865,5.865,0,0,0,.42.7c.087.128.19.241.277.386a.7.7,0,0,1,.137.439.965.965,0,0,1-.21.425l-.277.388-.482.646A4.385,4.385,0,0,0,517.82,405.08Z" transform="translate(-421.869 -339.236)" fill="#eb996e"/>
      <path id="Path_1595" data-name="Path 1595" d="M519.131,396.643c.017,0,0-.106-.034-.263a2.083,2.083,0,0,1-.024-.618,1.181,1.181,0,0,1,.227-.555c.094-.125.179-.183.169-.2s-.111.019-.241.14a1.064,1.064,0,0,0-.282.6,1.527,1.527,0,0,0,.063.651C519.064,396.559,519.117,396.648,519.131,396.643Z" transform="translate(-422.715 -334.863)" fill="#eb996e"/>
      <path id="Path_1596" data-name="Path 1596" d="M440.031,357.194c0,.019-.2.034-.5.106a3.714,3.714,0,0,0-1.126.47,3.78,3.78,0,0,0-.909.815,4.453,4.453,0,0,1-.311.41,1.334,1.334,0,0,1,.241-.463,3.24,3.24,0,0,1,.912-.868,3.183,3.183,0,0,1,1.177-.451A1.294,1.294,0,0,1,440.031,357.194Z" transform="translate(-360.68 -306.158)" fill="#eb996e"/>
      <path id="Path_1597" data-name="Path 1597" d="M275.744,268.89s-3.789,0-4.178,6.995a97.109,97.109,0,0,1-2.091,13.679L257.61,299.909l3.362,2.446s13.064-7.757,13.766-9.166,1.814-16.711,1.814-16.711Z" transform="translate(-224.423 -239.166)" fill="#ffbe9d"/>
      <path id="Path_1598" data-name="Path 1598" d="M238.79,390.879c-.622-.087-4.342-1.177-4.614-.965s-.511.4-.453.642,2.617,1.447,2.945,1.751.687.941.557,1.281a8.473,8.473,0,0,1-.837,1.218l.876,2.029s.383-.113.839-.219a21.453,21.453,0,0,1,2.53-1.423,11.729,11.729,0,0,0,2.282-1.044l-1.339-2.012a2.624,2.624,0,0,0-1.91-1.155Z" transform="translate(-206.29 -330.978)" fill="#ffbe9d"/>
      <path id="Path_1599" data-name="Path 1599" d="M228.393,392.527l-1.7,3.464,1.052,2.091a1.148,1.148,0,0,0,.991.63l3.2.094-.876-2.029.367-.482-.663-.941.193-1.1s-.171-.56-.545-.289-.581,1.828-.581,1.828l.5,1.117-.987-1.151s.791-1.512.121-1.913l-.289-.138-.5.977s.6-1.278.241-1.79S228.393,392.527,228.393,392.527Z" transform="translate(-200.961 -332.969)" fill="#ffbe9d"/>
      <path id="Path_1600" data-name="Path 1600" d="M246.319,401.345a1.366,1.366,0,0,0,.207.046.61.61,0,0,0,.461-.3c.15-.2.3-.463.482-.748a2.763,2.763,0,0,1,.724-.847,1.825,1.825,0,0,1,1.059-.335,1.72,1.72,0,0,1,.876.241,1.66,1.66,0,0,1,.461.4.615.615,0,0,1,.118.188,2.613,2.613,0,0,0-.622-.514,1.719,1.719,0,0,0-.83-.207,1.748,1.748,0,0,0-.989.323,2.821,2.821,0,0,0-.692.806,7.86,7.86,0,0,1-.5.743,1.069,1.069,0,0,1-.265.241.425.425,0,0,1-.265.06.336.336,0,0,1-.159-.055C246.331,401.362,246.317,401.35,246.319,401.345Z" transform="translate(-215.855 -338.015)" fill="#eb996e"/>
      <path id="Path_1601" data-name="Path 1601" d="M241.191,408.8a9.727,9.727,0,0,1-.8-1.288,9.55,9.55,0,0,1-.692-1.348,9.53,9.53,0,0,1,.8,1.288A9.406,9.406,0,0,1,241.191,408.8Z" transform="translate(-210.833 -343.326)" fill="#eb996e"/>
      <path id="Path_1602" data-name="Path 1602" d="M232.833,402.617a4.472,4.472,0,0,1-.47-.576c-.145-.2-.309-.412-.482-.646-.089-.123-.183-.253-.282-.386a1.044,1.044,0,0,1-.241-.482.8.8,0,0,1,.159-.519c.094-.142.2-.263.285-.386a7.123,7.123,0,0,0,.434-.678c.227-.4.338-.661.355-.654a.574.574,0,0,1-.055.2,4.418,4.418,0,0,1-.222.5,6.054,6.054,0,0,1-.42.695c-.087.128-.191.253-.277.386a.7.7,0,0,0-.137.439.984.984,0,0,0,.21.427l.277.386c.169.241.323.466.463.663A4.384,4.384,0,0,1,232.833,402.617Z" transform="translate(-204.501 -337.354)" fill="#eb996e"/>
      <path id="Path_1603" data-name="Path 1603" d="M234.485,394.231c-.017,0,0-.1.034-.263a2.069,2.069,0,0,0,.024-.615,1.179,1.179,0,0,0-.227-.557c-.094-.125-.178-.181-.169-.2s.111.019.241.14a1.071,1.071,0,0,1,.282.6,1.517,1.517,0,0,1-.063.651C234.553,394.139,234.5,394.236,234.485,394.231Z" transform="translate(-206.619 -333.032)" fill="#eb996e"/>
      <path id="Path_1604" data-name="Path 1604" d="M310.11,354.686a6.3,6.3,0,0,0-1.512-.668,6.137,6.137,0,0,0-1.647-.118,1.344,1.344,0,0,1,.482-.1,3.686,3.686,0,0,1,2.291.569A1.426,1.426,0,0,1,310.11,354.686Z" transform="translate(-261.862 -303.587)" fill="#eb996e"/>
      <path id="Path_1605" data-name="Path 1605" d="M348.361,256.83H356.8l4.262,2.139-3.7,6.428-5.186.639a48.122,48.122,0,0,1-5.118-1.346c-.053-.215-3.136-5.671-3.136-5.671Z" transform="translate(-289.914 -230.015)" fill="#ffbe9d"/>
      <path id="Path_1606" data-name="Path 1606" d="M353.762,162.527a2.094,2.094,0,0,1-.6-.871,2.422,2.422,0,0,1,.164-1.008,2.053,2.053,0,0,0-1.29-2.289c-.521-.179-1.189-.2-1.447-.678s.07-1.035.263-1.539a3.087,3.087,0,0,0-.205-2.591,4.506,4.506,0,0,0-.222-.521,4.055,4.055,0,0,0-3.485-2.243,2.832,2.832,0,0,0-2.149-2.171,2.463,2.463,0,0,0-.261-1.129,3.635,3.635,0,0,0-2.692-1.77,5.138,5.138,0,0,0-4.426,1.471c-.605.625-1.1,1.447-1.93,1.727a12.137,12.137,0,0,1-2.284.123,3.443,3.443,0,0,0-2.412,1.741,7.464,7.464,0,0,0-.859,2.935,4.5,4.5,0,0,1-.832,2.653c-.649.69-1.633.806-2.412,1.281a3.316,3.316,0,0,0-.984,4.527c.311.453.76.871.8,1.421a4.1,4.1,0,0,1-.444,1.43,2.236,2.236,0,0,0,1.913,2.776c.654.039,1.353-.217,1.93.075s.8.991,1.17,1.524a2.793,2.793,0,0,0,3.411.88,3.061,3.061,0,0,1,1.469-.589c.535.036.95.482,1.476.593a1.893,1.893,0,0,0,1.746-.941,10.007,10.007,0,0,1,1.206-1.7,7,7,0,0,1,2.511-1.056,7.14,7.14,0,0,0,3.177-2.238l-.084,4.824a1.546,1.546,0,0,0,1.4-.62,2.082,2.082,0,0,0,.482.241,2.2,2.2,0,0,0,2.383-.748c.277-.369.451-.844.847-1.088a3.267,3.267,0,0,1,1.172-.268,2.547,2.547,0,0,0,1.5-4.149Z" transform="translate(-275.699 -145.66)" fill="#263238"/>
      <path id="Path_1607" data-name="Path 1607" d="M365.026,165.439h0c-1,.63-3.266,3.4-3.309,4.216l-.355,16.428a5.654,5.654,0,0,0,1.066,3.481l.784,1.09a4.144,4.144,0,0,0,6.983-.367,1.754,1.754,0,0,0,.171-.4,3.734,3.734,0,0,0,.094-.41,13.217,13.217,0,0,0,.241-2.755c.14-1.621.188-2.287.188-2.272s3.464-.314,4.5-4.725a47.555,47.555,0,0,0,.709-8.833,4.851,4.851,0,0,0-.355-1.71,7.205,7.205,0,0,0-7.8-4.8A5.933,5.933,0,0,0,365.026,165.439Z" transform="translate(-303.147 -159.836)" fill="#ffbe9d"/>
      <path id="Path_1608" data-name="Path 1608" d="M409.846,203.556c.063-.082.526.2,1.141.142s1.037-.408,1.112-.338c.036.031-.024.171-.207.333a1.592,1.592,0,0,1-.883.362,1.5,1.5,0,0,1-.917-.205C409.889,203.723,409.812,203.593,409.846,203.556Z" transform="translate(-339.933 -189.436)" fill="#263238"/>
      <path id="Path_1609" data-name="Path 1609" d="M383.154,203.421c.084-.07.538.277,1.206.311a12.15,12.15,0,0,0,1.254-.166c.034.036-.053.166-.277.3a1.836,1.836,0,0,1-1.011.227,1.717,1.717,0,0,1-.965-.34C383.178,203.592,383.106,203.452,383.154,203.421Z" transform="translate(-319.674 -189.482)" fill="#263238"/>
      <path id="Path_1610" data-name="Path 1610" d="M401.36,201.152a3.935,3.935,0,0,1,1.013-.106c.159,0,.311-.027.345-.13a.8.8,0,0,0-.07-.482c-.121-.391-.241-.8-.376-1.233a21.432,21.432,0,0,1-.813-3.2,20.91,20.91,0,0,1,1.069,3.136q.188.649.357,1.237a.926.926,0,0,1,.036.625.4.4,0,0,1-.277.21.966.966,0,0,1-.268.017A4.19,4.19,0,0,1,401.36,201.152Z" transform="translate(-333.5 -183.857)" fill="#263238"/>
      <path id="Path_1611" data-name="Path 1611" d="M382.449,241.3a11.38,11.38,0,0,1-5.859-2.038s1.274,3.2,5.772,3.116Z" transform="translate(-314.704 -216.683)" fill="#eb996e"/>
      <path id="Path_1612" data-name="Path 1612" d="M393.97,221.909a1.112,1.112,0,0,0-.965-.482,1.011,1.011,0,0,0-.724.323.644.644,0,0,0-.1.724.743.743,0,0,0,.791.263,2.313,2.313,0,0,0,.823-.41.649.649,0,0,0,.191-.171.21.21,0,0,0,.017-.229" transform="translate(-326.482 -203.151)" fill="#eb996e"/>
      <path id="Path_1613" data-name="Path 1613" d="M393.27,218.569c.1,0,.053.671.591,1.187s1.254.5,1.252.591c0,.041-.169.118-.482.1a1.688,1.688,0,0,1-1.049-.456,1.459,1.459,0,0,1-.451-.991C393.137,218.721,393.224,218.562,393.27,218.569Z" transform="translate(-327.255 -200.983)" fill="#263238"/>
      <path id="Path_1614" data-name="Path 1614" d="M384.336,189.046c-.075.162-.683.039-1.413.07s-1.327.188-1.413.031c-.036-.075.077-.227.326-.369a2.319,2.319,0,0,1,1.066-.287,2.351,2.351,0,0,1,1.085.207C384.245,188.827,384.368,188.969,384.336,189.046Z" transform="translate(-318.432 -178.158)" fill="#263238"/>
      <path id="Path_1615" data-name="Path 1615" d="M410.866,190.036c-.14.13-.634-.053-1.242-.106s-1.131,0-1.24-.145c-.046-.075.046-.207.28-.323a1.99,1.99,0,0,1,1.03-.154,1.929,1.929,0,0,1,.965.355C410.868,189.822,410.936,189.971,410.866,190.036Z" transform="translate(-338.821 -178.77)" fill="#263238"/>
      <path id="Path_1616" data-name="Path 1616" d="M356.267,206.152c.024-.333-.3-1.146-.627-1.22a1.942,1.942,0,0,0-2.632,1.975c-.241,3.044,2.858,2.653,2.87,2.576S356.182,207.293,356.267,206.152Z" transform="translate(-296.8 -190.567)" fill="#ffbe9d"/>
      <path id="Path_1617" data-name="Path 1617" d="M357.543,211.274c-.012-.012-.055.031-.147.065a.531.531,0,0,1-.4-.024,1.316,1.316,0,0,1-.511-1.225,1.743,1.743,0,0,1,.217-.745.622.622,0,0,1,.432-.376.273.273,0,0,1,.3.171c.034.089,0,.147.024.154s.07-.046.055-.174a.336.336,0,0,0-.1-.2.405.405,0,0,0-.287-.1.743.743,0,0,0-.591.427,1.787,1.787,0,0,0-.241.835,1.392,1.392,0,0,0,.668,1.375.567.567,0,0,0,.482-.041C357.533,211.344,357.555,211.274,357.543,211.274Z" transform="translate(-299.302 -193.584)" fill="#eb996e"/>
      <path id="Path_1618" data-name="Path 1618" d="M361.412,186.229C361.412,186.077,361.357,186.371,361.412,186.229Z" transform="translate(-303.169 -176.409)" fill="#455a64"/>
      <path id="Path_1619" data-name="Path 1619" d="M371.948,163.487a6.949,6.949,0,0,0-4.824-1.647c-2.135,0-3.7,1.237-5.379,2.706-2.171,1.884-3.531,4.954-2.619,7.675h0l.907.355.864-2.086c1.486-3.232,4.583-5.951,7.911-6.11a6.053,6.053,0,0,1,.921.014c2.207.219,4.465,4.236,4.465,4.236A5.731,5.731,0,0,0,371.948,163.487Z" transform="translate(-301.234 -157.937)" fill="#6d9b79"/>
      <path id="Path_1620" data-name="Path 1620" d="M363.8,195.022c.051.63.147,1.206.2,1.831.019.268.087.593.345.666a.453.453,0,0,0,.482-.241,1.339,1.339,0,0,0,.135-.55c.188-1.915.347-3.377.535-5.287A17.639,17.639,0,0,0,363.8,195.022Z" transform="translate(-304.999 -180.398)" fill="#263238"/>
      <path id="Path_1621" data-name="Path 1621" d="M380.585,215.795a.253.253,0,0,0-.241-.3,2.466,2.466,0,0,1-1.688-.953c-.753-.755-1.081-1.278-2.39-1.264a4.711,4.711,0,0,0-1.966.453,7.68,7.68,0,0,1-5.217.466l-1.662,2.05a8.023,8.023,0,0,0,8.309,5.548C379.379,221.564,380.38,217.054,380.585,215.795Z" transform="translate(-307.746 -196.969)" fill="#455a64"/>
      <path id="Path_1622" data-name="Path 1622" d="M382.557,214.433c-.753-.755-1.081-1.278-2.388-1.264a4.655,4.655,0,0,0-1.966.453,7.687,7.687,0,0,1-5.22.47l-.376.463-.077.087a8.088,8.088,0,0,0,4.942.072,8.429,8.429,0,0,1,3.044-.7c.907.116,1.184.642,1.831,1.288s1.206,1.107,2.009.982l.048-.268c.022-.116.041-.212.055-.3a.258.258,0,0,0-.241-.3A2.532,2.532,0,0,1,382.557,214.433Z" transform="translate(-311.624 -196.885)" fill="#e0e0e0"/>
      <path id="Path_1623" data-name="Path 1623" d="M388.8,227.053l-.1.022-.277.053c-.118.022-.265.046-.439.065s-.369.048-.586.06-.456.036-.724.039-.531,0-.82,0a14.589,14.589,0,0,1-1.872-.188,15.038,15.038,0,0,1-1.826-.439c-.275-.092-.538-.174-.777-.27s-.461-.183-.661-.273-.376-.176-.533-.241a3.383,3.383,0,0,1-.393-.207l-.241-.14a.465.465,0,0,1-.082-.053.2.2,0,0,1,.092.036l.241.125c.109.055.241.123.4.193s.335.159.538.241.42.176.661.261.5.171.774.26a14.428,14.428,0,0,0,3.7.62c.287,0,.56.017.815,0s.494-.012.712-.027.412-.034.586-.048.318-.034.439-.051l.28-.036A.285.285,0,0,1,388.8,227.053Z" transform="translate(-316.89 -206.227)" fill="#263238"/>
      <path id="Path_1624" data-name="Path 1624" d="M392.357,235.209a1.152,1.152,0,0,1-.222.07c-.072.019-.159.043-.265.063s-.222.048-.355.065a6.752,6.752,0,0,1-.938.08,7.734,7.734,0,0,1-1.151-.068,7.86,7.86,0,0,1-1.126-.241,7.119,7.119,0,0,1-.878-.335c-.123-.053-.229-.111-.326-.159a2.658,2.658,0,0,1-.241-.135,1.107,1.107,0,0,1-.2-.128,1.232,1.232,0,0,1,.212.1c.065.036.145.077.241.121s.2.1.326.147a8.725,8.725,0,0,0,.878.314,8.927,8.927,0,0,0,1.114.241,7.948,7.948,0,0,0,2.067.014,2.194,2.194,0,0,0,.355-.053c.113-.017.2-.031.268-.048A1.285,1.285,0,0,1,392.357,235.209Z" transform="translate(-322.345 -213.011)" fill="#263238"/>
      <path id="Path_1625" data-name="Path 1625" d="M363.017,226.048a4.745,4.745,0,0,1-.827.039,4.2,4.2,0,0,1-.82-.036,4.7,4.7,0,0,1,.827-.039A4.241,4.241,0,0,1,363.017,226.048Z" transform="translate(-303.155 -206.626)" fill="#455a64"/>
      <g id="Group_425" data-name="Group 425" transform="translate(63.068 19.506)" opacity="0.3">
        <path id="Path_1626" data-name="Path 1626" d="M389.662,227.989a16.424,16.424,0,0,1-4.342.357,8.382,8.382,0,0,1-3.83-1.816A14.928,14.928,0,0,0,389.662,227.989Z" transform="translate(-381.49 -226.53)"/>
      </g>
      <path id="Path_1627" data-name="Path 1627" d="M396.905,225.086a.965.965,0,0,1-.178.048c-.118.027-.287.055-.5.087a9.7,9.7,0,0,1-1.664.092,9.993,9.993,0,0,1-1.655-.193c-.21-.043-.376-.084-.482-.118a.878.878,0,0,1-.176-.058c0-.014.26.046.68.116a12.7,12.7,0,0,0,1.645.166,12.235,12.235,0,0,0,1.655-.065C396.642,225.114,396.9,225.071,396.905,225.086Z" transform="translate(-326.587 -205.818)" fill="#263238"/>
      <path id="Path_1628" data-name="Path 1628" d="M365.272,207.909a17.923,17.923,0,0,1-1.462-1.447,16.33,16.33,0,0,1-1.37-1.532,17.915,17.915,0,0,1,1.462,1.447,16.326,16.326,0,0,1,1.37,1.532Z" transform="translate(-303.967 -190.634)" fill="#455a64"/>
      <path id="Path_1629" data-name="Path 1629" d="M356.593,222a.257.257,0,0,1-.022.162.622.622,0,0,1-.316.311.871.871,0,0,1-.661.017.926.926,0,0,1-.574-.567.965.965,0,0,1,.077-.8.924.924,0,0,1,.965-.429.326.326,0,0,1,.15.06,1.312,1.312,0,0,0-.562.048.83.83,0,0,0-.449.379.885.885,0,0,0-.06.7.835.835,0,0,0,.5.5.789.789,0,0,0,.584,0,.625.625,0,0,0,.309-.241C356.576,222.053,356.584,222,356.593,222Z" transform="translate(-298.297 -202.578)" fill="#e0e0e0"/>
      <path id="Path_1630" data-name="Path 1630" d="M388.3,172.957a9.749,9.749,0,0,0,3.22.412,2.412,2.412,0,0,0,1.315-.987A5.508,5.508,0,0,0,388.3,172.957Z" transform="translate(-323.59 -165.755)" fill="#263238"/>
      <path id="Path_1631" data-name="Path 1631" d="M422.515,174.861a2.368,2.368,0,0,0,.253-.306,1.657,1.657,0,0,0,.258-1.044,1.983,1.983,0,0,0-.822-1.382,3,3,0,0,0-1.985-.511h-.106l.048-.094a5.742,5.742,0,0,0,.564-1.645,3.012,3.012,0,0,0-.094-1.389,2.386,2.386,0,0,0-.724-1.064,3.584,3.584,0,0,0-2.041-.8,7.347,7.347,0,0,0-1.512.043l-.41.051a.592.592,0,0,1-.145,0,.667.667,0,0,1,.14-.036c.092-.019.229-.046.408-.075a6.664,6.664,0,0,1,1.527-.084,3.633,3.633,0,0,1,2.108.8,2.485,2.485,0,0,1,.765,1.112,3.136,3.136,0,0,1,.1,1.447,5.8,5.8,0,0,1-.581,1.688l-.058-.087a3.068,3.068,0,0,1,2.057.55,2.043,2.043,0,0,1,.835,1.447,1.652,1.652,0,0,1-.3,1.073A.986.986,0,0,1,422.515,174.861Z" transform="translate(-344.457 -161.481)" fill="#263238"/>
      <path id="Path_1632" data-name="Path 1632" d="M327.874,173.428h-.258a6.907,6.907,0,0,1-.743-.06,4.886,4.886,0,0,1-1.151-.263,2.765,2.765,0,0,1-1.264-.914,2.9,2.9,0,0,1-.461-1.826,10.139,10.139,0,0,1,.1-1.052,5.771,5.771,0,0,1,.241-1.1,1.688,1.688,0,0,1,1.893-1.235,1.966,1.966,0,0,0,1.182-.224,1.508,1.508,0,0,0,.54-1.09,8.9,8.9,0,0,0-.048-1.29,6.824,6.824,0,0,1,.791-3.563,5.789,5.789,0,0,1,1.368-1.688,5.344,5.344,0,0,1,1.647-.938,5.152,5.152,0,0,1,2.709-.241,3.671,3.671,0,0,1,.965.306l-.065-.019-.181-.06a4.525,4.525,0,0,0-.724-.178,5.369,5.369,0,0,0-4.279,1.206,5.69,5.69,0,0,0-1.334,1.664,6.561,6.561,0,0,0-.724,2.248,6.74,6.74,0,0,0-.051,1.252,8.992,8.992,0,0,1,.051,1.31,1.638,1.638,0,0,1-.591,1.179,1.353,1.353,0,0,1-.622.227,4.7,4.7,0,0,1-.634.019,1.558,1.558,0,0,0-1.785,1.151,5.657,5.657,0,0,0-.229,1.078,10.065,10.065,0,0,0-.109,1.04,2.815,2.815,0,0,0,.429,1.77,2.7,2.7,0,0,0,1.218.9,5.021,5.021,0,0,0,1.131.28c.318.046.569.065.738.082l.191.022A.272.272,0,0,1,327.874,173.428Z" transform="translate(-274.79 -154.918)" fill="#263238"/>
      <path id="Path_1633" data-name="Path 1633" d="M363.6,173.06a1.493,1.493,0,0,1-.2.273c-.068.084-.147.188-.241.314s-.2.263-.3.425a11.7,11.7,0,0,0-.68,1.16,11.333,11.333,0,0,0-1.056,3.112,11.933,11.933,0,0,0-.164,1.334c-.019.193-.017.367-.024.519s0,.285,0,.391a1.82,1.82,0,0,1,0,.335,1.653,1.653,0,0,1-.039-.333c0-.109-.017-.241-.017-.393v-.521a10.279,10.279,0,0,1,.14-1.353,11.338,11.338,0,0,1,.41-1.614,11.566,11.566,0,0,1,.656-1.529,10.284,10.284,0,0,1,.712-1.158c.106-.159.219-.294.314-.417s.179-.222.241-.3A1.882,1.882,0,0,1,363.6,173.06Z" transform="translate(-302.791 -166.451)" fill="#263238"/>
      <path id="Path_1634" data-name="Path 1634" d="M366.675,168.28a2.443,2.443,0,0,1-.294.28c-.1.087-.215.193-.345.323s-.287.27-.444.441a14.526,14.526,0,0,0-1.064,1.235,15.884,15.884,0,0,0-1.1,1.662,15.36,15.36,0,0,0-.854,1.8,13.959,13.959,0,0,0-.509,1.549c-.065.222-.106.429-.15.608s-.072.335-.1.463a2.28,2.28,0,0,1-.089.4,2.831,2.831,0,0,1,.041-.4c.017-.13.039-.289.077-.47s.07-.391.133-.615a12.83,12.83,0,0,1,.482-1.568,14.83,14.83,0,0,1,.854-1.821,14.644,14.644,0,0,1,1.117-1.669,12.784,12.784,0,0,1,1.093-1.225c.159-.169.321-.306.458-.432a4.57,4.57,0,0,1,.362-.309A2.544,2.544,0,0,1,366.675,168.28Z" transform="translate(-303.429 -162.824)" fill="#263238"/>
      <path id="Path_1635" data-name="Path 1635" d="M335.485,170.917l-.065.046a1.419,1.419,0,0,1-.207.116,2.067,2.067,0,0,1-.89.193,2.431,2.431,0,0,1-1.368-.429,2.612,2.612,0,0,1-1.018-1.6,3.081,3.081,0,0,1-.036-1.117,3.341,3.341,0,0,1,.408-1.143,4.039,4.039,0,0,1,.82-1.006,5.9,5.9,0,0,1,1.143-.762,4.422,4.422,0,0,0,1.153-.808,3.035,3.035,0,0,0,.683-1.281,7.288,7.288,0,0,0,.212-1.52c.029-.521.024-1.054.08-1.594a5.152,5.152,0,0,1,.359-1.568,2.677,2.677,0,0,1,.989-1.206,4.764,4.764,0,0,1,1.385-.6c.482-.135.938-.241,1.382-.376a4.066,4.066,0,0,0,1.206-.567,1.557,1.557,0,0,0,.241-.205,1.967,1.967,0,0,0,.22-.229,4.288,4.288,0,0,0,.347-.516,5.38,5.38,0,0,1,.673-1.006,2.75,2.75,0,0,1,.914-.644,2.707,2.707,0,0,1,1.891-.113,2.764,2.764,0,0,1,1.206.782,2.653,2.653,0,0,1,.482.769,1.479,1.479,0,0,1,.123.292,2.848,2.848,0,0,0-.121-.294,2.764,2.764,0,0,0-1.688-1.493,2.634,2.634,0,0,0-1.833.128,2.665,2.665,0,0,0-.88.627,5.32,5.32,0,0,0-.651.994,4.339,4.339,0,0,1-.357.531,2.146,2.146,0,0,1-.227.241,1.686,1.686,0,0,1-.273.232,4.134,4.134,0,0,1-1.245.589c-.449.14-.917.241-1.382.381a4.613,4.613,0,0,0-1.348.584,2.554,2.554,0,0,0-.943,1.155,5.14,5.14,0,0,0-.352,1.532c-.053.533-.048,1.064-.077,1.59a7.286,7.286,0,0,1-.219,1.544,3.136,3.136,0,0,1-.724,1.331,4.532,4.532,0,0,1-1.184.827,5.687,5.687,0,0,0-1.124.745,3.839,3.839,0,0,0-.806.965,3.284,3.284,0,0,0-.4,1.1,3.022,3.022,0,0,0,.027,1.085,2.559,2.559,0,0,0,.965,1.556,2.4,2.4,0,0,0,1.329.439,2.128,2.128,0,0,0,.878-.166A1.618,1.618,0,0,0,335.485,170.917Z" transform="translate(-280.768 -151.128)" fill="#455a64"/>
      <path id="Path_1636" data-name="Path 1636" d="M256.214,410.262c0-.029-19.316-2-18.814,5.42s11.715,7.1,14.634,7.757,17.113-2.267,17.113-2.267,18.517,3.044,21.937,3.095,11.385-2.171,12.219-6.812-3.218-6-5.244-6.689-11.047-1.056-11.047-1.056Z" transform="translate(-209.08 -346.02)" fill="#263238"/>
      <path id="Path_1637" data-name="Path 1637" d="M377.7,416.633a57.637,57.637,0,0,1,0-2.793,6.008,6.008,0,0,1,.111,1.4A5.884,5.884,0,0,1,377.7,416.633Z" transform="translate(-315.524 -349.154)" fill="#455a64"/>
      <path id="Path_1638" data-name="Path 1638" d="M304.123,439.274l11.457-.7,23.414,1.206A7.62,7.62,0,0,1,337,434.471c.08-3.268.482-4.011.482-4.011l-14.173,1.664-15.437,1.727-3.326,4S303.73,439.032,304.123,439.274Z" transform="translate(-259.635 -361.765)" fill="#ffbe9d"/>
      <path id="Path_1639" data-name="Path 1639" d="M305.628,418.516a18.156,18.156,0,0,1,4.906.6c2.482.608,11.819,1.276,11.819,1.276a16.724,16.724,0,0,1,2.718-2.115c.861-.34,2.962-1.037,4.214.68a5.367,5.367,0,0,0,1.725.241c.555-.1,1.949-1,3.242-.907s3.635.842,3.744,1.655a1.158,1.158,0,0,1,0,.241,1.266,1.266,0,0,1-1.447,1.129,5.263,5.263,0,0,0-3.447.7,26.4,26.4,0,0,1-9.077,2.791c-2.359.2-19.885,4.469-19.885,4.469a13.262,13.262,0,0,0,1.447-4.72C305.664,422.4,305.628,418.516,305.628,418.516Z" transform="translate(-259.729 -352.19)" fill="#ffbe9d"/>
      <path id="Path_1640" data-name="Path 1640" d="M468.108,423.76a1.349,1.349,0,0,1-.4.142c-.241.072-.605.135-.965.27a2.668,2.668,0,0,0-.823.535,1.8,1.8,0,0,1-.323.27,1.294,1.294,0,0,1,.261-.333,2.292,2.292,0,0,1,.839-.591,6.1,6.1,0,0,1,.991-.241,1.628,1.628,0,0,1,.417-.053Z" transform="translate(-382.245 -356.681)" fill="#455a64"/>
      <path id="Path_1641" data-name="Path 1641" d="M282.84,421.973a1.37,1.37,0,0,1,.241-.145c.157-.087.393-.2.687-.33a12.151,12.151,0,0,1,2.4-.767,12.274,12.274,0,0,1,2.5-.26,5.538,5.538,0,0,1,.762.029,1.4,1.4,0,0,1,.277.034c0,.022-.4,0-1.037.027a14.232,14.232,0,0,0-2.48.294,14.49,14.49,0,0,0-2.388.724C283.209,421.818,282.85,421.992,282.84,421.973Z" transform="translate(-243.567 -354.185)" fill="#455a64"/>
      <path id="Path_1642" data-name="Path 1642" d="M279.78,417.17a1.316,1.316,0,0,1,.458.08,5.387,5.387,0,0,1,1.042.412,5.512,5.512,0,0,1,.936.615c.22.183.34.314.328.326a11.607,11.607,0,0,0-1.322-.83C280.455,417.38,279.77,417.206,279.78,417.17Z" transform="translate(-241.245 -351.681)" fill="#455a64"/>
      <path id="Path_1643" data-name="Path 1643" d="M335.055,419.672a4.063,4.063,0,0,1,.873.191,5.066,5.066,0,0,1,1,.434c.092.056.183.121.285.171a.35.35,0,0,0,.154.048.162.162,0,0,0,.123-.1,1.1,1.1,0,0,0,.169-.738.6.6,0,0,0-.171-.367,1.692,1.692,0,0,0-.338-.287,4.706,4.706,0,0,0-.859-.439,8.761,8.761,0,0,0-2.123-.545,3.377,3.377,0,0,0-1.206.07,7.807,7.807,0,0,0-1.228.424l-.63.268a1.561,1.561,0,0,1-.7.147,6.3,6.3,0,0,1-1.447-.26h-.014v-.014a2.67,2.67,0,0,0-1.493-1.016,3.922,3.922,0,0,0-1.93.046,4.214,4.214,0,0,0-.946.364,7,7,0,0,0-.847.615c-.55.449-1.093.933-1.635,1.447l-.017.017h-.022c-2.487-.157-5.159-.352-7.96-.642a31.979,31.979,0,0,1-4.289-.659,15.943,15.943,0,0,0-2.19-.405c-.743-.087-1.5-.142-2.262-.157l.063-.063c0,1.259-.022,2.6-.034,3.951,0,.605-.012,1.206-.017,1.807a7.426,7.426,0,0,1-.217,1.775,15.093,15.093,0,0,1-1.23,3.259l-.07-.089c4.8-1.163,9.318-2.234,13.4-3.153,2.043-.453,3.975-.885,5.789-1.206.241-.039.458-.063.683-.094s.446-.041.666-.077c.439-.055.866-.135,1.283-.217.835-.169,1.626-.369,2.371-.581a24.682,24.682,0,0,0,3.915-1.447c.557-.253,1.02-.6,1.512-.791a5.022,5.022,0,0,1,1.385-.369,5.545,5.545,0,0,1,1.138-.019c.166.012.316.046.453.043a1.3,1.3,0,0,0,.367-.051,1.352,1.352,0,0,0,.449-.241c.043-.036.077-.065.1-.084l.034-.029a.9.9,0,0,1-.123.123,1.353,1.353,0,0,1-.449.241,1.337,1.337,0,0,1-.374.058c-.142,0-.292-.029-.456-.039a5.53,5.53,0,0,0-1.131.029,5.18,5.18,0,0,0-1.368.374c-.482.2-.946.543-1.505.8a24.669,24.669,0,0,1-3.92,1.462c-.748.217-1.541.42-2.378.591-.417.084-.847.166-1.288.224-.219.034-.444.051-.671.077s-.446.058-.673.1c-1.814.323-3.743.76-5.789,1.206-4.081.926-8.6,2-13.4,3.167l-.13.031.063-.121a14.866,14.866,0,0,0,1.206-3.23,16.191,16.191,0,0,0,.241-3.555c0-1.351.024-2.689.034-3.949v-.065h.063c.769.014,1.529.072,2.279.159a15.926,15.926,0,0,1,2.2.41,32.174,32.174,0,0,0,4.269.656c2.805.294,5.478.482,7.96.654l-.041.014c.545-.5,1.088-.989,1.643-1.447a7.25,7.25,0,0,1,.863-.622,4.223,4.223,0,0,1,.965-.371,4,4,0,0,1,1.987-.041,2.747,2.747,0,0,1,1.541,1.054l-.024-.017a6.381,6.381,0,0,0,1.421.26,1.447,1.447,0,0,0,.666-.137l.627-.265a7.9,7.9,0,0,1,1.245-.424,3.451,3.451,0,0,1,1.232-.068,8.813,8.813,0,0,1,2.137.562,4.6,4.6,0,0,1,.868.449,1.805,1.805,0,0,1,.347.3.646.646,0,0,1,.181.4,1.16,1.16,0,0,1-.183.767.205.205,0,0,1-.157.116.371.371,0,0,1-.176-.055c-.1-.053-.2-.118-.287-.174a5.026,5.026,0,0,0-.982-.444,5.332,5.332,0,0,0-.644-.171C335.13,419.684,335.055,419.672,335.055,419.672Z" transform="translate(-259.426 -351.887)" fill="#eb996e"/>
      <path id="Path_1644" data-name="Path 1644" d="M450.1,428.674c0,.022-.412-.133-1.088-.3a11.518,11.518,0,0,0-5.379-.048c-.678.157-1.085.3-1.093.282a1.247,1.247,0,0,1,.28-.121,7.279,7.279,0,0,1,.791-.241,10.194,10.194,0,0,1,1.206-.241,11.3,11.3,0,0,1,1.507-.094,11.493,11.493,0,0,1,1.505.121,10.228,10.228,0,0,1,1.206.263,7.239,7.239,0,0,1,.786.26,1.3,1.3,0,0,1,.277.121Z" transform="translate(-364.747 -359.83)" fill="#455a64"/>
      <path id="Path_1645" data-name="Path 1645" d="M328.91,260.14l-5.174,1.833s-.162,27.755-.376,28.944-1.57,5.823-1.57,5.823l26.737-.434s-.362-5.56-.687-8.039a103.179,103.179,0,0,1-1.269-11.1c0-3.174.285-13.57.987-14.648l-2.123-.9-2.243-.82a8.741,8.741,0,0,1-7.492,5.282C330.042,266.457,328.91,260.14,328.91,260.14Z" transform="translate(-273.122 -232.527)" fill="#455a64"/>
      <path id="Path_1646" data-name="Path 1646" d="M356.494,338.071a1.058,1.058,0,0,1-.08-.162l-.2-.47c-.174-.408-.412-1-.695-1.746-.564-1.486-1.274-3.567-1.9-5.907s-1.059-4.5-1.317-6.069c-.128-.784-.22-1.418-.273-1.86-.027-.212-.046-.381-.06-.509a1.073,1.073,0,0,1-.014-.178,1,1,0,0,1,.039.176c.022.128.048.294.084.5.068.439.174,1.071.314,1.852.277,1.563.724,3.71,1.348,6.049s1.322,4.419,1.864,5.91c.27.745.5,1.346.659,1.761l.181.482A1.052,1.052,0,0,1,356.494,338.071Z" transform="translate(-296.008 -278.836)" fill="#263238"/>
      <path id="Path_1647" data-name="Path 1647" d="M372.528,315.793l-2.7-3.847-.306-10.816h3.194Z" transform="translate(-309.34 -263.63)" fill="#fff"/>
      <path id="Path_1648" data-name="Path 1648" d="M374.91,351.92l.3,8.727h2.914l-.171-4.636Z" transform="translate(-313.43 -302.169)" fill="#fff"/>
      <path id="Path_1649" data-name="Path 1649" d="M375.3,351.2a.764.764,0,0,1-.106-.1l-.28-.309c-.241-.268-.589-.661-1.008-1.151-.842-.984-1.975-2.366-3.169-3.936s-2.219-3.037-2.94-4.1c-.359-.535-.646-.965-.839-1.281l-.22-.352a.529.529,0,0,1-.068-.13.833.833,0,0,1,.089.116l.241.34.873,1.259c.738,1.059,1.775,2.513,2.967,4.084s2.311,2.96,3.136,3.956l.977,1.177.263.323A.614.614,0,0,1,375.3,351.2Z" transform="translate(-307.177 -293.003)" fill="#263238"/>
      <path id="Path_1650" data-name="Path 1650" d="M370.79,346.22s.1,5.22,6.568,8.58l-3.821-4.793Z" transform="translate(-310.303 -297.844)" opacity="0.4"/>
      <path id="Path_1651" data-name="Path 1651" d="M361.982,262.66a.184.184,0,0,1-.012.055l-.048.157a5.661,5.661,0,0,1-.21.591,8.088,8.088,0,0,1-1.17,1.985c-.142.2-.326.381-.5.581a8.086,8.086,0,0,1-.6.579,9.407,9.407,0,0,1-1.493,1.066,8.158,8.158,0,0,1-8.063.154,9.425,9.425,0,0,1-1.534-1.006c-.215-.188-.429-.367-.617-.555a6.228,6.228,0,0,1-.523-.562,8.065,8.065,0,0,1-1.245-1.93,6.045,6.045,0,0,1-.241-.584c-.022-.06-.039-.111-.053-.154a.153.153,0,0,1-.014-.053.174.174,0,0,1,.027.051l.065.147c.063.13.123.333.253.572a8.442,8.442,0,0,0,1.269,1.9c.15.191.34.359.523.55s.4.359.615.545a9.61,9.61,0,0,0,1.522.984,8.126,8.126,0,0,0,7.96-.154,9.612,9.612,0,0,0,1.483-1.042c.207-.193.415-.376.6-.569a5.94,5.94,0,0,0,.5-.569,8.42,8.42,0,0,0,1.194-1.949c.121-.241.176-.449.241-.581l.06-.152A.223.223,0,0,1,361.982,262.66Z" transform="translate(-291.235 -234.439)" fill="#263238"/>
    </g>
  </g>
</svg>
