<svg xmlns="http://www.w3.org/2000/svg" width="14.711" height="21.63" viewBox="0 0 14.711 21.63">
  <path id="Icon_ionic-ios-water" data-name="Icon ionic-ios-water" d="M18.519,8.491a22.291,22.291,0,0,0-4.174-5.023.358.358,0,0,0-.478-.005,22.025,22.025,0,0,0-4.16,5.017,17.054,17.054,0,0,0-2.951,8.886c0,.062,0,.13,0,.192a7.442,7.442,0,0,0,1.2,4.076A7.318,7.318,0,0,0,14.1,25a7.4,7.4,0,0,0,7.36-7.445A17.144,17.144,0,0,0,18.519,8.491ZM14.565,22.233h-.023c-.455,0-.552-.733-.12-.889a6.08,6.08,0,0,0,3.972-4.2.4.4,0,0,1,.772.161v.073A4.739,4.739,0,0,1,14.565,22.233Z" transform="translate(-6.75 -3.374)" fill="#87d5f1"/>
</svg>
