<?xml version="1.0" encoding="UTF-8" standalone="no"?>
<!DOCTYPE svg PUBLIC "-//W3C//DTD SVG 1.1//EN" "http://www.w3.org/Graphics/SVG/1.1/DTD/svg11.dtd">
<svg xmlns="http://www.w3.org/2000/svg" version="1.1" viewBox="0 0 134 146" width="134" height="146">
<g stroke-width="0.00" fill="none" stroke-linecap="butt">
<path stroke="#8d7d4d" vector-effect="non-scaling-stroke" d="
  M 67.84 27.93
  L 66.75 27.54"
/>
<path stroke="#3e5d2c" vector-effect="non-scaling-stroke" d="
  M 64.79 35.75
  Q 64.72 41.78 65.46 35.75"
/>
<path stroke="#438a24" vector-effect="non-scaling-stroke" d="
  M 63.89 62.12
  L 62.91 72.79"
/>
<path stroke="#3e5d2c" vector-effect="non-scaling-stroke" d="
  M 61.96 77.75
  Q 60.96 78.43 60.79 77.25"
/>
<path stroke="#3e5d2c" vector-effect="non-scaling-stroke" d="
  M 59.00 77.04
  L 58.00 77.29"
/>
<path stroke="#3e5d2c" vector-effect="non-scaling-stroke" d="
  M 56.71 77.50
  Q 56.51 79.12 55.21 78.25"
/>
<path stroke="#5b893a" vector-effect="non-scaling-stroke" d="
  M 47.46 74.50
  L 46.75 74.04"
/>
<path stroke="#438a24" vector-effect="non-scaling-stroke" d="
  M 42.25 68.50
  Q 41.69 68.13 41.02 66.73
  Q 39.56 63.70 36.14 60.11
  A 0.26 0.21 46.7 0 0 35.81 60.06
  L 35.68 60.19
  A 0.53 0.28 53.6 0 0 35.76 60.74
  L 38.48 64.77
  Q 40.33 67.52 37.25 66.55
  L 23.99 62.37"
/>
<path stroke="#8d7d4d" vector-effect="non-scaling-stroke" d="
  M 27.50 53.96
  C 30.13 56.34 32.42 59.73 36.21 56.50"
/>
<path stroke="#8d7d4d" vector-effect="non-scaling-stroke" d="
  M 36.25 49.54
  C 35.30 47.31 29.87 40.58 27.76 45.19"
/>
<path stroke="#5b893a" vector-effect="non-scaling-stroke" d="
  M 57.39 68.25
  L 57.50 70.29"
/>
<path stroke="#5b893a" vector-effect="non-scaling-stroke" d="
  M 58.79 71.75
  Q 58.62 69.95 60.03 69.61
  A 0.66 0.26 -7.7 0 0 60.49 69.35
  Q 60.57 69.15 60.29 69.00"
/>
<path stroke="#5b893a" vector-effect="non-scaling-stroke" d="
  M 59.21 59.50
  L 58.54 58.25"
/>
<path stroke="#5b893a" vector-effect="non-scaling-stroke" d="
  M 55.44 47.08
  L 51.44 39.07"
/>
<path stroke="#8d7d4d" vector-effect="non-scaling-stroke" d="
  M 51.44 39.07
  Q 54.32 25.63 40.71 23.83
  A 1.15 1.06 -86.5 0 0 39.51 24.98
  L 39.51 33.04"
/>
<path stroke="#a2816e" vector-effect="non-scaling-stroke" d="
  M 51.44 39.07
  L 49.75 39.79"
/>
<path stroke="#8a8257" vector-effect="non-scaling-stroke" d="
  M 95.54 33.50
  Q 93.21 31.56 90.40 32.51
  A 0.81 0.62 54.8 0 1 89.66 32.28
  Q 89.39 32.02 89.00 31.96"
/>
<path stroke="#8d7d4d" vector-effect="non-scaling-stroke" d="
  M 87.65 48.25
  Q 84.55 48.45 81.35 47.57"
/>
<path stroke="#8a8257" vector-effect="non-scaling-stroke" d="
  M 81.35 47.57
  Q 77.94 45.00 79.50 40.04"
/>
<path stroke="#438a24" vector-effect="non-scaling-stroke" d="
  M 81.35 47.57
  Q 73.20 52.12 70.70 60.97
  Q 69.68 64.56 67.90 66.44"
/>
<path stroke="#8d7d4d" vector-effect="non-scaling-stroke" d="
  M 107.86 58.40
  L 112.74 51.58
  A 1.04 0.98 -55.2 0 0 112.53 50.15
  Q 106.05 45.76 99.21 49.70
  C 95.68 51.73 92.65 56.33 96.88 59.57"
/>
<path stroke="#3e5d2c" vector-effect="non-scaling-stroke" d="
  M 71.46 78.50
  L 68.33 80.58
  A 0.89 0.35 -34.5 0 1 67.44 80.79
  Q 66.02 79.20 64.98 80.94
  A 0.76 0.50 27.7 0 1 64.11 81.03
  Q 62.87 80.43 63.39 78.85"
/>
<path stroke="#3e5d2c" vector-effect="non-scaling-stroke" d="
  M 69.71 67.25
  Q 66.98 77.30 70.46 67.75"
/>
<path stroke="#5b893a" vector-effect="non-scaling-stroke" d="
  M 93.6518 57.3527
  A 0.26 0.26 0.0 0 0 93.2910 57.2819
  L 81.0732 65.4919
  A 0.26 0.26 0.0 0 0 81.0024 65.8527
  L 81.3482 66.3673
  A 0.26 0.26 0.0 0 0 81.7090 66.4381
  L 93.9268 58.2281
  A 0.26 0.26 0.0 0 0 93.9976 57.8673
  L 93.6518 57.3527"
/>
<path stroke="#588e44" vector-effect="non-scaling-stroke" d="
  M 42.25 68.50
  L 41.71 69.00"
/>
<path stroke="#53614c" vector-effect="non-scaling-stroke" d="
  M 49.59 78.60
  Q 50.95 79.57 51.13 81.03
  Q 51.24 81.94 50.68 81.58
  Q 49.53 80.83 49.03 79.47
  A 0.46 0.28 72.0 0 0 48.64 79.14
  Q 47.68 79.35 47.37 78.51"
/>
<path stroke="#928b86" vector-effect="non-scaling-stroke" d="
  M 89.77 81.22
  Q 58.10 85.13 26.48 81.09"
/>
<path stroke="#ecddce" vector-effect="non-scaling-stroke" d="
  M 87.21 95.50
  Q 83.80 94.93 80.38 95.16
  C 74.47 95.56 69.82 95.36 64.51 95.66
  C 54.45 96.24 44.15 95.09 34.01 94.99
  A 1.28 1.03 -63.2 0 0 33.19 95.36
  Q 31.76 96.77 29.80 95.63"
/>
<path stroke="#908785" vector-effect="non-scaling-stroke" d="
  M 78.71 130.50
  Q 72.85 132.32 66.75 133.04"
/>
<path stroke="#908785" vector-effect="non-scaling-stroke" d="
  M 49.50 132.79
  Q 43.29 132.74 37.79 130.00"
/>
<path stroke="#adb394" vector-effect="non-scaling-stroke" d="
  M 42.80 101.33
  Q 40.71 99.95 39.38 104.11
  Q 39.12 104.92 39.58 104.88
  A 0.85 0.70 -76.4 0 0 40.18 104.43
  L 41.05 102.80
  A 1.03 0.63 12.0 0 1 41.99 102.47
  Q 45.08 102.83 42.80 101.33"
/>
<path stroke="#adb394" vector-effect="non-scaling-stroke" d="
  M 74.84 101.40
  Q 73.53 100.92 72.43 101.68
  A 0.59 0.54 46.9 0 0 72.44 102.57
  Q 72.91 102.97 73.31 102.57
  A 0.72 0.65 48.4 0 1 74.32 102.68
  L 75.75 104.49
  A 0.90 0.22 50.1 0 0 76.57 105.10
  L 76.90 104.44
  Q 77.88 102.51 74.84 101.40"
/>
<path stroke="#756d66" vector-effect="non-scaling-stroke" d="
  M 45.4855 117.4199
  A 3.65 1.51 89.6 0 0 46.9700 113.7595
  A 3.65 1.51 89.6 0 0 45.4345 110.1201
  A 3.65 1.51 89.6 0 0 43.9500 113.7805
  A 3.65 1.51 89.6 0 0 45.4855 117.4199"
/>
<path stroke="#756d66" vector-effect="non-scaling-stroke" d="
  M 70.8176 117.3398
  A 3.59 1.53 89.4 0 0 72.3099 113.7340
  A 3.59 1.53 89.4 0 0 70.7424 110.1602
  A 3.59 1.53 89.4 0 0 69.2501 113.7660
  A 3.59 1.53 89.4 0 0 70.8176 117.3398"
/>
<path stroke="#908785" vector-effect="non-scaling-stroke" d="
  M 56.19 123.31
  Q 60.79 125.49 63.47 121.83
  A 1.21 0.94 -37.7 0 0 63.69 120.99
  Q 63.55 120.30 62.95 120.96
  Q 59.20 125.08 55.28 121.59
  Q 54.85 121.20 54.90 121.73
  Q 54.99 122.74 56.19 123.31"
/>
</g>
<path fill="#d47580" d="
  M 67.84 27.93
  L 66.75 27.54
  Q 63.34 24.87 62.90 19.81
  C 62.45 14.72 62.92 2.13 69.24 0.30
  A 0.91 0.50 -21.5 0 1 70.07 0.41
  Q 70.96 1.49 70.52 2.74
  Q 70.07 4.04 71.37 3.42
  C 85.01 -3.08 83.94 28.95 67.84 27.93
  Z"
/>
<path fill="#46851a" d="
  M 64.79 35.75
  Q 64.72 41.78 65.46 35.75
  L 66.75 27.54
  L 67.84 27.93
  C 66.78 36.53 64.51 46.59 65.13 55.15
  C 65.31 57.62 64.05 59.65 63.89 62.12
  L 62.91 72.79
  Q 61.66 74.96 61.96 77.75
  Q 60.96 78.43 60.79 77.25
  Q 60.38 75.04 59.00 77.04
  L 58.00 77.29
  L 56.71 77.50
  Q 56.51 79.12 55.21 78.25
  Q 56.22 74.54 55.76 70.75
  Q 55.37 67.49 52.55 67.67
  L 47.51 67.98
  A 0.49 0.34 66.4 0 0 47.37 68.69
  C 47.91 69.51 51.96 76.46 50.63 76.95
  A 0.79 0.09 67.7 0 1 50.25 76.25
  L 48.94 73.07
  A 0.57 0.49 -32.2 0 0 48.10 72.95
  Q 47.38 73.53 47.46 74.50
  L 46.75 74.04
  C 47.65 71.33 45.66 66.63 42.25 68.50
  Q 41.69 68.13 41.02 66.73
  Q 39.56 63.70 36.14 60.11
  A 0.26 0.21 46.7 0 0 35.81 60.06
  L 35.68 60.19
  A 0.53 0.28 53.6 0 0 35.76 60.74
  L 38.48 64.77
  Q 40.33 67.52 37.25 66.55
  L 23.99 62.37
  Q 12.61 56.37 0.79 51.97
  Q -0.47 51.50 0.85 51.23
  C 10.94 49.15 17.83 52.47 27.50 53.96
  C 30.13 56.34 32.42 59.73 36.21 56.50
  L 42.40 58.56
  Q 43.80 59.02 43.12 57.68
  Q 40.64 52.78 36.25 49.54
  C 35.30 47.31 29.87 40.58 27.76 45.19
  Q 24.33 43.51 20.75 42.29
  C 14.34 40.10 8.46 32.35 1.24 35.97
  Q 0.62 36.28 0.68 35.72
  C 0.96 33.19 5.77 33.18 7.53 33.84
  C 14.57 36.47 18.16 37.82 26.44 37.88
  C 33.72 37.94 47.72 46.64 46.47 54.24
  Q 45.93 57.53 45.76 59.25
  A 0.71 0.61 -76.6 0 0 46.12 59.94
  Q 52.22 62.68 56.16 68.10
  A 0.76 0.57 59.3 0 0 56.93 68.42
  L 57.39 68.25
  L 57.50 70.29
  Q 56.97 73.95 58.79 71.75
  Q 58.62 69.95 60.03 69.61
  A 0.66 0.26 -7.7 0 0 60.49 69.35
  Q 60.57 69.15 60.29 69.00
  C 62.81 64.21 62.96 57.11 63.42 51.75
  Q 63.62 49.34 61.82 50.20
  A 0.93 0.81 82.1 0 0 61.34 50.93
  Q 60.92 55.44 59.21 59.50
  L 58.54 58.25
  L 58.76 58.25
  A 0.30 0.20 -87.2 0 0 58.97 57.97
  Q 59.32 51.76 55.44 47.08
  L 51.44 39.07
  Q 54.32 25.63 40.71 23.83
  A 1.15 1.06 -86.5 0 0 39.51 24.98
  L 39.51 33.04
  L 25.79 18.36
  A 0.38 0.35 54.9 0 1 25.87 17.77
  C 30.14 15.71 35.86 21.03 39.90 17.69
  A 1.30 1.00 -57.0 0 1 40.75 17.39
  C 50.45 18.36 63.43 24.91 64.79 35.75
  Z"
/>
<path fill="#d47580" d="
  M 51.44 39.07
  L 49.75 39.79
  C 43.68 40.34 42.34 37.48 39.51 33.04
  L 39.51 24.98
  A 1.15 1.06 -86.5 0 1 40.71 23.83
  Q 54.32 25.63 51.44 39.07
  Z"
/>
<path fill="#408f2e" d="
  M 95.54 33.50
  Q 93.21 31.56 90.40 32.51
  A 0.81 0.62 54.8 0 1 89.66 32.28
  Q 89.39 32.02 89.00 31.96
  Q 92.07 30.19 95.58 30.84
  A 0.67 0.63 3.5 0 1 96.13 31.43
  Q 96.21 32.53 95.54 33.50
  Z"
/>
<path fill="#d47580" d="
  M 89.00 31.96
  Q 89.39 32.02 89.66 32.28
  A 0.81 0.62 54.8 0 0 90.40 32.51
  Q 93.21 31.56 95.54 33.50
  Q 94.39 42.40 87.65 48.25
  Q 84.55 48.45 81.35 47.57
  Q 77.94 45.00 79.50 40.04
  Q 83.07 34.64 89.00 31.96
  Z"
/>
<path fill="#36353d" d="
  M 64.79 35.75
  L 65.46 35.75
  Q 64.72 41.78 64.79 35.75
  Z"
/>
<path fill="#708d5b" fill-opacity="0.996" d="
  M 51.44 39.07
  L 55.44 47.08
  Q 56.44 52.96 58.54 58.25
  L 59.21 59.50
  L 59.27 68.70
  A 0.58 0.49 88.2 0 0 59.80 69.29
  Q 60.09 69.27 60.29 69.00
  Q 60.57 69.15 60.49 69.35
  A 0.66 0.26 -7.7 0 1 60.03 69.61
  Q 58.62 69.95 58.79 71.75
  Q 59.08 69.98 57.50 70.29
  L 57.39 68.25
  C 57.88 59.06 55.01 47.48 49.75 39.79
  L 51.44 39.07
  Z"
/>
<path fill="#408f2e" d="
  M 79.50 40.04
  Q 77.94 45.00 81.35 47.57
  Q 73.20 52.12 70.70 60.97
  Q 69.68 64.56 67.90 66.44
  L 62.91 72.79
  L 63.89 62.12
  Q 68.90 54.68 74.93 48.13
  Q 76.06 46.91 76.05 45.25
  Q 76.02 41.50 79.50 40.04
  Z"
/>
<path fill="#46851a" d="
  M 107.86 58.40
  L 112.74 51.58
  A 1.04 0.98 -55.2 0 0 112.53 50.15
  Q 106.05 45.76 99.21 49.70
  C 95.68 51.73 92.65 56.33 96.88 59.57
  L 94.43 60.99
  A 1.87 0.94 -78.4 0 0 93.79 61.80
  L 92.24 65.22
  A 1.76 1.15 -81.3 0 1 91.49 66.06
  Q 86.49 68.40 80.97 68.88
  A 4.45 3.80 17.5 0 0 78.47 69.94
  Q 74.37 73.75 71.46 78.50
  L 68.33 80.58
  A 0.89 0.35 -34.5 0 1 67.44 80.79
  Q 66.02 79.20 64.98 80.94
  A 0.76 0.50 27.7 0 1 64.11 81.03
  Q 62.87 80.43 63.39 78.85
  Q 66.92 73.10 67.90 66.44
  Q 69.68 64.56 70.70 60.97
  Q 73.20 52.12 81.35 47.57
  Q 84.55 48.45 87.65 48.25
  C 96.36 46.18 103.76 43.40 112.79 42.91
  A 0.68 0.50 2.7 0 1 113.52 43.50
  L 113.08 45.57
  A 0.80 0.40 -78.6 0 0 113.32 46.45
  Q 114.17 46.60 114.99 46.23
  Q 115.49 46.00 115.76 45.99
  Q 124.62 45.69 133.07 48.43
  Q 133.88 48.70 133.12 49.05
  C 124.54 52.98 118.16 57.28 107.86 58.40
  Z
  M 69.71 67.25
  Q 66.98 77.30 70.46 67.75
  Q 73.52 61.73 79.25 59.32
  Q 80.81 58.66 79.22 58.07
  C 73.88 56.08 70.71 63.35 69.71 67.25
  Z
  M 93.6518 57.3527
  A 0.26 0.26 0.0 0 0 93.2910 57.2819
  L 81.0732 65.4919
  A 0.26 0.26 0.0 0 0 81.0024 65.8527
  L 81.3482 66.3673
  A 0.26 0.26 0.0 0 0 81.7090 66.4381
  L 93.9268 58.2281
  A 0.26 0.26 0.0 0 0 93.9976 57.8673
  L 93.6518 57.3527
  Z
  M 73.8398 72.9267
  A 0.31 0.31 0.0 0 0 73.8084 72.4894
  L 73.4909 72.2144
  A 0.31 0.31 0.0 0 0 73.0537 72.2458
  L 68.3002 77.7333
  A 0.31 0.31 0.0 0 0 68.3316 78.1706
  L 68.6491 78.4456
  A 0.31 0.31 0.0 0 0 69.0863 78.4142
  L 73.8398 72.9267
  Z"
/>
<path fill="#d47580" d="
  M 36.25 49.54
  Q 37.68 53.06 36.21 56.50
  C 32.42 59.73 30.13 56.34 27.50 53.96
  Q 24.78 50.83 24.35 46.68
  A 0.51 0.48 -5.8 0 1 24.81 46.15
  Q 26.26 46.01 27.76 45.19
  C 29.87 40.58 35.30 47.31 36.25 49.54
  Z"
/>
<path fill="#d47580" d="
  M 107.86 58.40
  C 103.50 60.61 101.18 61.75 96.88 59.57
  C 92.65 56.33 95.68 51.73 99.21 49.70
  Q 106.05 45.76 112.53 50.15
  A 1.04 0.98 -55.2 0 1 112.74 51.58
  L 107.86 58.40
  Z"
/>
<rect fill="#708d5b" fill-opacity="0.996" x="-7.62" y="-0.57" transform="translate(87.50,61.86) rotate(-33.9)" width="15.24" height="1.14" rx="0.26"/>
<path fill="#408f2e" d="
  M 42.25 68.50
  L 41.71 69.00
  Q 40.84 68.33 40.00 68.51
  C 28.08 71.11 15.26 73.92 5.58 81.82
  C 5.37 81.99 5.24 82.03 5.22 81.69
  A 0.63 0.40 -36.4 0 1 5.36 81.32
  C 7.62 78.37 8.04 74.66 9.86 72.12
  Q 14.87 65.14 23.99 62.37
  L 37.25 66.55
  Q 40.33 67.52 38.48 64.77
  L 35.76 60.74
  A 0.53 0.28 53.6 0 1 35.68 60.19
  L 35.81 60.06
  A 0.26 0.21 46.7 0 1 36.14 60.11
  Q 39.56 63.70 41.02 66.73
  Q 41.69 68.13 42.25 68.50
  Z"
/>
<path fill="#36353d" d="
  M 69.71 67.25
  L 70.46 67.75
  Q 66.98 77.30 69.71 67.25
  Z"
/>
<path fill="#708d5b" fill-opacity="0.996" d="
  M 42.25 68.50
  Q 44.09 71.64 46.75 74.04
  L 47.46 74.50
  Q 47.75 77.40 49.59 78.60
  Q 50.95 79.57 51.13 81.03
  Q 51.24 81.94 50.68 81.58
  Q 49.53 80.83 49.03 79.47
  A 0.46 0.28 72.0 0 0 48.64 79.14
  Q 47.68 79.35 47.37 78.51
  Q 45.24 73.25 41.71 69.00
  L 42.25 68.50
  Z"
/>
<path fill="#36353d" d="
  M 59.00 77.04
  Q 59.08 80.13 60.79 77.25
  Q 60.96 78.43 61.96 77.75
  Q 62.10 78.70 63.39 78.85
  Q 62.87 80.43 64.11 81.03
  A 0.76 0.50 27.7 0 0 64.98 80.94
  Q 66.02 79.20 67.44 80.79
  A 0.89 0.35 -34.5 0 0 68.33 80.58
  L 71.46 78.50
  L 71.50 78.75
  A 0.29 0.26 -6.8 0 0 71.80 78.96
  Q 81.12 78.16 89.77 81.22
  Q 58.10 85.13 26.48 81.09
  Q 36.75 78.41 47.37 78.51
  Q 47.68 79.35 48.64 79.14
  A 0.46 0.28 72.0 0 1 49.03 79.47
  Q 49.53 80.83 50.68 81.58
  Q 51.24 81.94 51.13 81.03
  Q 50.95 79.57 49.59 78.60
  L 55.21 78.25
  Q 56.51 79.12 56.71 77.50
  Q 57.45 79.68 58.00 77.29
  L 59.00 77.04
  Z"
/>
<path fill="#ede1cf" d="
  M 26.48 81.09
  Q 58.10 85.13 89.77 81.22
  L 89.30 93.25
  A 1.27 0.89 78.3 0 1 88.92 94.13
  L 87.21 95.50
  Q 83.80 94.93 80.38 95.16
  C 74.47 95.56 69.82 95.36 64.51 95.66
  C 54.45 96.24 44.15 95.09 34.01 94.99
  A 1.28 1.03 -63.2 0 0 33.19 95.36
  Q 31.76 96.77 29.80 95.63
  Q 25.38 89.20 26.48 81.09
  Z"
/>
<path fill="#ead9cc" d="
  M 87.21 95.50
  Q 85.10 109.62 83.02 123.75
  Q 82.38 128.09 78.71 130.50
  Q 72.85 132.32 66.75 133.04
  L 49.50 132.79
  Q 43.29 132.74 37.79 130.00
  C 34.26 126.91 34.28 124.12 33.49 119.85
  Q 31.25 107.73 29.80 95.63
  Q 31.76 96.77 33.19 95.36
  A 1.28 1.03 -63.2 0 1 34.01 94.99
  C 44.15 95.09 54.45 96.24 64.51 95.66
  C 69.82 95.36 74.47 95.56 80.38 95.16
  Q 83.80 94.93 87.21 95.50
  Z
  M 42.80 101.33
  Q 40.71 99.95 39.38 104.11
  Q 39.12 104.92 39.58 104.88
  A 0.85 0.70 -76.4 0 0 40.18 104.43
  L 41.05 102.80
  A 1.03 0.63 12.0 0 1 41.99 102.47
  Q 45.08 102.83 42.80 101.33
  Z
  M 74.84 101.40
  Q 73.53 100.92 72.43 101.68
  A 0.59 0.54 46.9 0 0 72.44 102.57
  Q 72.91 102.97 73.31 102.57
  A 0.72 0.65 48.4 0 1 74.32 102.68
  L 75.75 104.49
  A 0.90 0.22 50.1 0 0 76.57 105.10
  L 76.90 104.44
  Q 77.88 102.51 74.84 101.40
  Z
  M 45.4855 117.4199
  A 3.65 1.51 89.6 0 0 46.9700 113.7595
  A 3.65 1.51 89.6 0 0 45.4345 110.1201
  A 3.65 1.51 89.6 0 0 43.9500 113.7805
  A 3.65 1.51 89.6 0 0 45.4855 117.4199
  Z
  M 70.8176 117.3398
  A 3.59 1.53 89.4 0 0 72.3099 113.7340
  A 3.59 1.53 89.4 0 0 70.7424 110.1602
  A 3.59 1.53 89.4 0 0 69.2501 113.7660
  A 3.59 1.53 89.4 0 0 70.8176 117.3398
  Z
  M 56.19 123.31
  Q 60.79 125.49 63.47 121.83
  A 1.21 0.94 -37.7 0 0 63.69 120.99
  Q 63.55 120.30 62.95 120.96
  Q 59.20 125.08 55.28 121.59
  Q 54.85 121.20 54.90 121.73
  Q 54.99 122.74 56.19 123.31
  Z"
/>
<path fill="#708d5b" fill-opacity="0.996" d="
  M 42.80 101.33
  Q 45.08 102.83 41.99 102.47
  A 1.03 0.63 12.0 0 0 41.05 102.80
  L 40.18 104.43
  A 0.85 0.70 -76.4 0 1 39.58 104.88
  Q 39.12 104.92 39.38 104.11
  Q 40.71 99.95 42.80 101.33
  Z"
/>
<path fill="#708d5b" fill-opacity="0.996" d="
  M 74.84 101.40
  Q 77.88 102.51 76.90 104.44
  L 76.57 105.10
  A 0.90 0.22 50.1 0 1 75.75 104.49
  L 74.32 102.68
  A 0.72 0.65 48.4 0 0 73.31 102.57
  Q 72.91 102.97 72.44 102.57
  A 0.59 0.54 46.9 0 1 72.43 101.68
  Q 73.53 100.92 74.84 101.40
  Z"
/>
<ellipse fill="#000000" cx="0.00" cy="0.00" transform="translate(45.46,113.77) rotate(89.6)" rx="3.65" ry="1.51"/>
<ellipse fill="#000000" cx="0.00" cy="0.00" transform="translate(70.78,113.75) rotate(89.4)" rx="3.59" ry="1.53"/>
<path fill="#36353d" d="
  M 56.19 123.31
  Q 54.99 122.74 54.90 121.73
  Q 54.85 121.20 55.28 121.59
  Q 59.20 125.08 62.95 120.96
  Q 63.55 120.30 63.69 120.99
  A 1.21 0.94 -37.7 0 1 63.47 121.83
  Q 60.79 125.49 56.19 123.31
  Z"
/>
<path fill="#36353d" d="
  M 37.79 130.00
  Q 43.29 132.74 49.50 132.79
  Q 43.76 139.93 37.02 146.09
  L 36.44 146.00
  C 32.13 145.23 26.90 142.26 26.18 137.50
  Q 25.77 134.76 29.01 135.24
  L 32.50 135.76
  A 1.03 0.85 20.5 0 0 33.39 135.45
  L 37.79 130.00
  Z"
/>
<path fill="#36353d" d="
  M 78.71 130.50
  L 82.63 135.45
  A 0.88 0.72 -23.7 0 0 83.46 135.68
  C 85.76 135.12 88.64 134.44 89.70 137.31
  A 1.46 1.38 47.7 0 1 89.68 138.34
  Q 86.73 145.12 79.25 145.85
  Q 77.78 145.99 76.61 144.61
  L 66.75 133.04
  Q 72.85 132.32 78.71 130.50
  Z"
/>
</svg>
