<svg id="Mindfulness-amico" xmlns="http://www.w3.org/2000/svg" width="121.729" height="118.776" viewBox="0 0 121.729 118.776">
  <g id="freepik--Floor--inject-16" transform="translate(0 48.493)">
    <ellipse id="freepik--floor--inject-16-2" data-name="freepik--floor--inject-16" cx="60.864" cy="35.141" rx="60.864" ry="35.141" fill="#6d9b79"/>
  </g>
  <g id="freepik--Shadow--inject-16" transform="translate(36.372 73.374)">
    <path id="freepik--shadow--inject-16-2" data-name="freepik--shadow--inject-16" d="M168.12,317.892a4.679,4.679,0,0,0-2.3,2.238,3.038,3.038,0,0,0,.082,1.963c.984,2.828,4.511,4.067,5.708,6.81a13.01,13.01,0,0,1,.584,4.674c.07,1.572.427,3.313,1.68,4.283a5.147,5.147,0,0,0,2.071.853,12.728,12.728,0,0,0,8.01-.891c3.958-1.843,6.672-5.568,10.2-8.145a20.294,20.294,0,0,1,6.681-3.214,28.152,28.152,0,0,1,6.521-.859c1.169-.032,2.536-.134,3.141-1.128.847-1.394-.584-3.041-1.852-4.052a7.448,7.448,0,0,1,3.8-.374c1.285.047,2.767-.164,3.506-1.227a2.905,2.905,0,0,0-.108-3.1,6.968,6.968,0,0,0-2.436-2.147c-7.382-4.458-16.48-4.823-25.095-4.473a23.83,23.83,0,0,0-6.135.824C176.931,311.588,172.794,315.14,168.12,317.892Z" transform="translate(-165.693 -309.007)" opacity="0.1"/>
  </g>
  <g id="freepik--Clouds--inject-16" transform="translate(4.099 0.898)">
    <g id="freepik--clouds--inject-16-2" data-name="freepik--clouds--inject-16" transform="translate(0)">
      <path id="Path_1307" data-name="Path 1307" d="M70.254,63.218,67.691,64.7c0-.131.02-.263.02-.391v-.856c0-1.525-.926-2.226-2.071-1.566A3.8,3.8,0,0,0,64.4,63.145c-.187-1.934-1.49-2.764-3.073-1.852a7.432,7.432,0,0,0-3.1,5.922V68.5a4.043,4.043,0,0,0,.26,1.5l-2.127,1.227a2.757,2.757,0,0,0-1.148,2.2c0,.847.514,1.233,1.148.876l13.885-8.016a2.752,2.752,0,0,0,1.148-2.2C71.4,63.242,70.887,62.853,70.254,63.218Z" transform="translate(-55.22 -60.923)" fill="#ebebeb"/>
      <path id="Path_1308" data-name="Path 1308" d="M135.493,79.931l-1.934,1.116a2.486,2.486,0,0,0,.018-.292v-.649c0-1.151-.7-1.68-1.563-1.169a2.843,2.843,0,0,0-.932.949c-.143-1.461-1.125-2.086-2.32-1.4a5.6,5.6,0,0,0-2.337,4.467v.97a3.059,3.059,0,0,0,.2,1.139l-1.607.926a2.08,2.08,0,0,0-.876,1.656c0,.64.389.932.876.657l10.476-6.068a2.08,2.08,0,0,0,.876-1.659C136.369,79.948,135.98,79.653,135.493,79.931Z" transform="translate(-104.006 -73.16)" fill="#ebebeb"/>
    </g>
  </g>
  <g id="freepik--Sun--inject-16" transform="translate(86.635)">
    <circle id="freepik--sun--inject-16-2" data-name="freepik--sun--inject-16" cx="9.644" cy="9.644" r="9.644" transform="translate(0 19.038) rotate(-80.78)" fill="#f0997a"/>
  </g>
  <g id="freepik--Plants--inject-16" transform="translate(6.028 41.751)">
    <g id="freepik--plants--inject-16-2" data-name="freepik--plants--inject-16" transform="translate(0 3.054)">
      <path id="Path_1309" data-name="Path 1309" d="M81.481,230.726l2.086-1.2a33.662,33.662,0,0,0,.748-9.807c-.7-6.526-4.993-8.983-6.629-8.422s-2.106,2.463.584,6.351A21.508,21.508,0,0,1,81.481,230.726Z" transform="translate(-72.11 -211.215)" fill="#6d9b79"/>
      <path id="Path_1310" data-name="Path 1310" d="M81.481,230.726l2.086-1.2a33.662,33.662,0,0,0,.748-9.807c-.7-6.526-4.993-8.983-6.629-8.422s-2.106,2.463.584,6.351A21.508,21.508,0,0,1,81.481,230.726Z" transform="translate(-72.11 -211.215)" opacity="0.25"/>
      <path id="Path_1311" data-name="Path 1311" d="M87.764,230.449h-.02a.143.143,0,0,1-.114-.169c1.142-6.024-.961-12.79-3.567-15.606a.146.146,0,1,1,.213-.2c2.653,2.863,4.8,9.749,3.637,15.851A.146.146,0,0,1,87.764,230.449Z" transform="translate(-77.528 -213.48)" fill="#fff"/>
      <path id="Path_1312" data-name="Path 1312" d="M65.728,246.634c-.33.169-1.207-.584-1.461-.765a3.082,3.082,0,0,1-.949-1.215,2.863,2.863,0,0,1-.167-1.732,6.548,6.548,0,0,1,.263-.906c.1-.292.2-.584.292-.876a2.282,2.282,0,0,0,.175-.876,2.368,2.368,0,0,0-1.037-1.461,2.233,2.233,0,0,1-1.02-1.729,2.589,2.589,0,0,1,.722-1.5c.371-.426.806-.795,1.145-1.247a1.791,1.791,0,0,0,.427-1.119,1.867,1.867,0,0,0-.21-.722,9.774,9.774,0,0,1-.707-1.461,1.437,1.437,0,0,1,.324-1.5,1.674,1.674,0,0,1,1.274-.248,2.842,2.842,0,0,1,1.166.459c1.131.7,1.724,2.112,2.921,2.67a12.043,12.043,0,0,0,1.461.441,1.852,1.852,0,0,1,1.189.9c.406.929-.491,2-.219,2.974.237.876,1.046,1.23,1.461,2.016a1.808,1.808,0,0,1,.161,1.122,5.329,5.329,0,0,1-.546,1.855,16.73,16.73,0,0,1-1.113,1.712Z" transform="translate(-61.822 -223.974)" fill="#6d9b79"/>
      <path id="Path_1313" data-name="Path 1313" d="M65.728,246.634c-.33.169-1.207-.584-1.461-.765a3.082,3.082,0,0,1-.949-1.215,2.863,2.863,0,0,1-.167-1.732,6.548,6.548,0,0,1,.263-.906c.1-.292.2-.584.292-.876a2.282,2.282,0,0,0,.175-.876,2.368,2.368,0,0,0-1.037-1.461,2.233,2.233,0,0,1-1.02-1.729,2.589,2.589,0,0,1,.722-1.5c.371-.426.806-.795,1.145-1.247a1.791,1.791,0,0,0,.427-1.119,1.867,1.867,0,0,0-.21-.722,9.774,9.774,0,0,1-.707-1.461,1.437,1.437,0,0,1,.324-1.5,1.674,1.674,0,0,1,1.274-.248,2.842,2.842,0,0,1,1.166.459c1.131.7,1.724,2.112,2.921,2.67a12.043,12.043,0,0,0,1.461.441,1.852,1.852,0,0,1,1.189.9c.406.929-.491,2-.219,2.974.237.876,1.046,1.23,1.461,2.016a1.808,1.808,0,0,1,.161,1.122,5.329,5.329,0,0,1-.546,1.855,16.73,16.73,0,0,1-1.113,1.712Z" transform="translate(-61.822 -223.974)" opacity="0.1"/>
      <path id="Path_1314" data-name="Path 1314" d="M76.674,247.858h0a.146.146,0,0,1-.134-.158c.529-5.726-1.855-12.2-3.731-14.14a.146.146,0,0,1,.21-.2c1.911,1.978,4.344,8.56,3.8,14.367A.146.146,0,0,1,76.674,247.858Z" transform="translate(-69.576 -226.864)" fill="#fff"/>
      <path id="Path_1315" data-name="Path 1315" d="M73.741,256.083H73.7a19.575,19.575,0,0,0-4.131-.876.143.143,0,0,1-.131-.158.14.14,0,0,1,.158-.131,19.778,19.778,0,0,1,4.2.9.143.143,0,0,1,.085.184A.146.146,0,0,1,73.741,256.083Z" transform="translate(-67.213 -242.149)" fill="#fff"/>
    </g>
    <g id="freepik--plants--inject-16-3" data-name="freepik--plants--inject-16" transform="translate(99.547 0)">
      <path id="Path_1316" data-name="Path 1316" d="M405.55,224.169l-2.615-1.51a56.9,56.9,0,0,1-.216-9.933c.6-6.1,4.537-13.438,9.232-11.709s-2.153,7.932-3.678,13.1S405.55,224.169,405.55,224.169Z" transform="translate(-402.574 -200.76)" fill="#6d9b79"/>
      <path id="Path_1317" data-name="Path 1317" d="M405.55,224.169l-2.615-1.51a56.9,56.9,0,0,1-.216-9.933c.6-6.1,4.537-13.438,9.232-11.709s-2.153,7.932-3.678,13.1S405.55,224.169,405.55,224.169Z" transform="translate(-402.574 -200.76)" opacity="0.2"/>
      <path id="Path_1318" data-name="Path 1318" d="M407.592,228.171h0a.158.158,0,0,0,.152-.164c-.459-13.544,6.284-20.356,6.351-20.424a.158.158,0,0,0,0-.225.161.161,0,0,0-.225,0c-.067.067-6.909,6.979-6.445,20.66a.158.158,0,0,0,.167.152Z" transform="translate(-405.992 -205.398)" fill="#fff"/>
      <path id="Path_1319" data-name="Path 1319" d="M413.819,244.364l-1.867-1.075a20.551,20.551,0,0,1,1.569-8.513c1.639-4.064,5.708-7.435,7.756-6.719s2,2.162,1,3.684S415.212,236.885,413.819,244.364Z" transform="translate(-409.198 -220.014)" fill="#6d9b79"/>
      <path id="Path_1320" data-name="Path 1320" d="M413.819,244.364l-1.867-1.075a20.551,20.551,0,0,1,1.569-8.513c1.639-4.064,5.708-7.435,7.756-6.719s2,2.162,1,3.684S415.212,236.885,413.819,244.364Z" transform="translate(-409.198 -220.014)" opacity="0.1"/>
      <path id="Path_1321" data-name="Path 1321" d="M414.617,246.741h0a.158.158,0,0,0,.158-.158c-.038-8.563,8-14.353,8.086-14.408a.161.161,0,0,0-.184-.26c-.082.058-8.256,5.942-8.218,14.668A.158.158,0,0,0,414.617,246.741Z" transform="translate(-410.987 -222.801)" fill="#fff"/>
    </g>
    <g id="freepik--Grass--inject-16" transform="translate(15.123 31.598)">
      <path id="Path_1322" data-name="Path 1322" d="M139.4,318.549s-.181-5.375.523-6.985a7.888,7.888,0,0,1,1.951-2.644,9.139,9.139,0,0,0-1.461,3.964c-.088,1.943.207,5.665.207,5.665S139.89,319.142,139.4,318.549Z" transform="translate(-131.845 -308.92)" fill="#6d9b79"/>
      <path id="Path_1323" data-name="Path 1323" d="M139.4,318.549s-.181-5.375.523-6.985a7.888,7.888,0,0,1,1.951-2.644,9.139,9.139,0,0,0-1.461,3.964c-.088,1.943.207,5.665.207,5.665S139.89,319.142,139.4,318.549Z" transform="translate(-131.845 -308.92)" opacity="0.1"/>
      <path id="Path_1324" data-name="Path 1324" d="M123.912,321.084s.292.018.567-.441c.035-.178-.353-5.551-1.978-7.528s-4.771-2.474-4.771-2.474a8.823,8.823,0,0,1,4.452,3.783c1.017,2.063,1.2,6.427,1.2,6.427Z" transform="translate(-116.521 -310.138)" fill="#6d9b79"/>
      <path id="Path_1325" data-name="Path 1325" d="M123.912,321.084s.292.018.567-.441c.035-.178-.353-5.551-1.978-7.528s-4.771-2.474-4.771-2.474a8.823,8.823,0,0,1,4.452,3.783c1.017,2.063,1.2,6.427,1.2,6.427Z" transform="translate(-116.521 -310.138)" opacity="0.15"/>
      <path id="Path_1326" data-name="Path 1326" d="M120.017,328.794s-2.045-5.91-6.427-6.947a6.324,6.324,0,0,1,4.23,1.6,11.978,11.978,0,0,1,3.173,5.574C120.981,329.017,120.356,329.683,120.017,328.794Z" transform="translate(-113.59 -318.07)" fill="#6d9b79"/>
      <path id="Path_1327" data-name="Path 1327" d="M120.017,328.794s-2.045-5.91-6.427-6.947a6.324,6.324,0,0,1,4.23,1.6,11.978,11.978,0,0,1,3.173,5.574C120.981,329.017,120.356,329.683,120.017,328.794Z" transform="translate(-113.59 -318.07)" opacity="0.1"/>
    </g>
    <g id="freepik--grass--inject-16-2" data-name="freepik--grass--inject-16" transform="translate(87.077 29.328)">
      <path id="Path_1328" data-name="Path 1328" d="M363.9,313.542s-.558-5.819-1.54-7.455a8.583,8.583,0,0,0-2.474-2.577,10.005,10.005,0,0,1,2.121,4.07c.368,2.08.584,6.135.584,6.135S363.457,314.252,363.9,313.542Z" transform="translate(-359.89 -302.821)" fill="#6d9b79"/>
      <path id="Path_1329" data-name="Path 1329" d="M363.9,313.542s-.558-5.819-1.54-7.455a8.583,8.583,0,0,0-2.474-2.577,10.005,10.005,0,0,1,2.121,4.07c.368,2.08.584,6.135.584,6.135S363.457,314.252,363.9,313.542Z" transform="translate(-359.89 -302.821)" opacity="0.15"/>
      <path id="Path_1330" data-name="Path 1330" d="M373.045,313.268s-.292.058-.672-.4c-.064-.184-.4-6.027,1.078-8.387s4.8-3.333,4.8-3.333a9.588,9.588,0,0,0-4.271,4.7c-.806,2.366-.394,7.108-.394,7.108Z" transform="translate(-368.672 -301.15)" fill="#6d9b79"/>
      <path id="Path_1331" data-name="Path 1331" d="M373.045,313.268s-.292.058-.672-.4c-.064-.184-.4-6.027,1.078-8.387s4.8-3.333,4.8-3.333a9.588,9.588,0,0,0-4.271,4.7c-.806,2.366-.394,7.108-.394,7.108Z" transform="translate(-368.672 -301.15)" opacity="0.2"/>
      <path id="Path_1332" data-name="Path 1332" d="M375.9,321.027s1.37-6.655,5.968-8.387a6.864,6.864,0,0,0-4.335,2.311,12.886,12.886,0,0,0-2.629,6.45C374.888,321.4,375.656,322.032,375.9,321.027Z" transform="translate(-370.515 -309.283)" fill="#6d9b79"/>
      <path id="Path_1333" data-name="Path 1333" d="M375.9,321.027s1.37-6.655,5.968-8.387a6.864,6.864,0,0,0-4.335,2.311,12.886,12.886,0,0,0-2.629,6.45C374.888,321.4,375.656,322.032,375.9,321.027Z" transform="translate(-370.515 -309.283)" opacity="0.15"/>
    </g>
  </g>
  <g id="freepik--Character--inject-16" transform="translate(31.948 13.626)">
    <g id="freepik--character--inject-16-2" data-name="freepik--character--inject-16">
      <g id="freepik--Sence--inject-16" transform="translate(8.484)">
        <path id="Path_1334" data-name="Path 1334" d="M213.057,150.078a12.124,12.124,0,1,1,12.121-12.122A12.124,12.124,0,0,1,213.057,150.078Zm0-24a11.875,11.875,0,1,0,11.875,11.875A11.875,11.875,0,0,0,213.057,126.081Z" transform="translate(-194.696 -119.596)" fill="#6d9b79"/>
        <g id="Group_410" data-name="Group 410" opacity="0.15">
          <path id="Path_1335" data-name="Path 1335" d="M197.951,141.206a18.358,18.358,0,1,1,18.355-18.356A18.359,18.359,0,0,1,197.951,141.206Zm0-36.468a18.113,18.113,0,1,0,18.113,18.113,18.113,18.113,0,0,0-18.113-18.113Z" transform="translate(-179.59 -104.49)" fill="#6d9b79"/>
        </g>
        <g id="Group_411" data-name="Group 411" transform="translate(2.232 2.229)" opacity="0.3">
          <path id="Path_1336" data-name="Path 1336" d="M203.359,144.378a16.129,16.129,0,1,1,16.129-16.128A16.129,16.129,0,0,1,203.359,144.378Zm0-32.01a15.879,15.879,0,1,1,0,.009Z" transform="translate(-187.23 -112.12)" fill="#6d9b79"/>
        </g>
        <g id="Group_412" data-name="Group 412" transform="translate(4.198 4.183)" opacity="0.6">
          <path id="Path_1337" data-name="Path 1337" d="M208.123,147.159a14.175,14.175,0,1,1,14.186-14.172A14.175,14.175,0,0,1,208.123,147.159Zm0-28.1a13.929,13.929,0,1,0,13.926,13.928A13.93,13.93,0,0,0,208.123,119.058Z" transform="translate(-193.96 -118.81)" fill="#6d9b79"/>
        </g>
      </g>
      <path id="Path_1338" data-name="Path 1338" d="M187.169,142.979c-.421-5.814-4.353-9.229-9.775-9.229a9.824,9.824,0,0,0-9.252,6.522h0v.026c-.032.088-.061.178-.091.269a7.563,7.563,0,0,1-2.214,3.214c-1.484,1.2-3.336.827-5.127.622a10.657,10.657,0,0,0-1.656-.093c-2.375.091-4.727,1.653-4.227,4.321a5.962,5.962,0,0,1,.391,2.232,2.4,2.4,0,0,1-1.388,1.551,14.245,14.245,0,0,0-1.914.984,3.433,3.433,0,0,0-1.356,2.454,4.981,4.981,0,0,0,1.522,3.7,13.035,13.035,0,0,0,6.816,3.444,31.29,31.29,0,0,0,8.665.129,28.251,28.251,0,0,0,3.24-.494c4.867-1.04,10.724-4.029,12.968-6.973a15.925,15.925,0,0,0,3.29-7.619,21.618,21.618,0,0,0,.108-5.057Z" transform="translate(-150.549 -125.202)" fill="#263238"/>
      <path id="Path_1339" data-name="Path 1339" d="M187.756,294.34a116.952,116.952,0,0,0-7.029,19.439c-1.446,6.22-.053,9.188,1.169,10.155,1.922,1.51,6.6,2.469,10.254-5.305,1.142-2.431,5.443-9.933,5.443-9.933a22.8,22.8,0,0,0,4.28-2.007s10.619.31,15.776-.748,8.326-6.868,6.106-7.844c-3.617-1.6-9.495-3.009-18.054-3.564Z" transform="translate(-171.475 -238.877)" fill="#37474f"/>
      <path id="Path_1340" data-name="Path 1340" d="M244.566,314.974a23.094,23.094,0,0,0-6.7,3.278,5.191,5.191,0,0,0-.064-2.06,4.674,4.674,0,0,1-.485,1.507,2.3,2.3,0,0,1-1.224,1.134s-4.446,1.987-5.749,1.1a6.2,6.2,0,0,0-3.652-1.355c1.11.748,4.33,3.053,3.187,5.726l.7-1.227a22.794,22.794,0,0,0,4.28-2.007s5.936.172,11.087-.181L249.7,315.1A8.527,8.527,0,0,0,244.566,314.974Z" transform="translate(-204.446 -253.268)" fill="#263238"/>
      <path id="Path_1341" data-name="Path 1341" d="M238.277,339.924c1.791-.5,3.26-.993,3.847-2.063a2.958,2.958,0,0,1,4.2-1.169c2.545,1.169,5.393.389,7.406.316s3.415,1.709,4.122,3.246c1.189,2.591-.952,1.32-2.831.984s-6.3.193-8.06.543c-2.883.584-7.87,3.964-13.178,7.853,0,0-2.869-6.357-3.231-7.482C230.553,342.142,236.492,340.424,238.277,339.924Z" transform="translate(-207.179 -268.563)" fill="#b16668"/>
      <path id="Path_1342" data-name="Path 1342" d="M257.165,339.016a4.11,4.11,0,0,0-3.427-2.03c-2.013.073-4.861.876-7.406-.315a2.974,2.974,0,0,0-4.2,1.169c-.584,1.058-2.045,1.566-3.847,2.063s-7.727,2.217-7.727,2.217c.114.351.231.646.7,1.738a108.134,108.134,0,0,1,15.261-4.277C252.739,338.452,255.591,337.485,257.165,339.016Z" transform="translate(-207.186 -268.552)" fill="#9a4a4d"/>
      <path id="Path_1343" data-name="Path 1343" d="M186.169,368.593c.876,1.207,4.414,2.293,7.835,1.207,3.8-1.207,7.739-4.49,9.573-6.1,0,0-.158-2.577-3.506-6.266a60.41,60.41,0,0,0-5.843,2.588c-2.469,4.592-5.925,3.4-6.865,5.025C185.8,367.757,186.169,368.593,186.169,368.593Z" transform="translate(-175.736 -283.536)" fill="#37474f"/>
      <path id="Path_1344" data-name="Path 1344" d="M210.743,361.839a9.556,9.556,0,0,1,1.937-1.753,16.6,16.6,0,0,1,3.8-1.724q-.371-.465-.809-.952-2.045.78-4.052,1.718a7.512,7.512,0,0,0-1.9.993,6.035,6.035,0,0,0-1.3,1.566,1.484,1.484,0,0,0-.254.821,1.239,1.239,0,0,0,.242.6.833.833,0,0,0,.795.429,1.02,1.02,0,0,0,.511-.421C210.041,362.692,210.386,362.257,210.743,361.839Z" transform="translate(-191.33 -283.522)" fill="#263238"/>
      <path id="Path_1345" data-name="Path 1345" d="M225.28,324.07c-4.785,2.956-8.1,4.09-9.831,3.649-1.169-.292-3.181-1.245-4.382.911a10.056,10.056,0,0,1-2.764,3.062,11.557,11.557,0,0,0-2.439,2.013,4.287,4.287,0,0,0-.736,2.772,3.149,3.149,0,0,0,.4,1.794,1.169,1.169,0,0,0,.92.546c.765,0,1.151-1.063,1.56-1.563a7.219,7.219,0,0,1,1.826-1.54,24.913,24.913,0,0,1,4.493-1.9c1.61-.584,7.71-2.337,12.688-3.474Z" transform="translate(-189.183 -259.922)" fill="#b16668"/>
      <path id="Path_1346" data-name="Path 1346" d="M288.049,304.84c6.553,1.3,5.726,5.679,3.214,7.7-2.3,1.841-5.647,2.428-9.454,3.094s-6.135,1.139-6.135,1.139a12.617,12.617,0,0,1-1.525-6.319,12.305,12.305,0,0,1,9.211-2.352Z" transform="translate(-238.032 -246.31)" fill="#37474f"/>
      <path id="Path_1347" data-name="Path 1347" d="M258.71,209c3.336.371,4.6,1.306,5.656,4.744,1.169,3.745,4.625,15.615,4.625,15.615,1.169.666,10.871,5.951,11.712,5.425a5.18,5.18,0,0,0,.955-1.706,13.5,13.5,0,0,0,.584-1.753,2.938,2.938,0,0,1,.678-1.5,1.025,1.025,0,0,1,.733-.292c.6.029.891.619,1.046,1.151a12.448,12.448,0,0,1,.365,2.3,12.08,12.08,0,0,1-.05,3.885,6.642,6.642,0,0,1-3.024,2.685c-1.271.362-9.349-2.831-14.42-4.338-2.758-.821-3.184-1.461-3.8-2.857-.8-1.849-4.8-11.919-4.8-11.919Z" transform="translate(-227.112 -178.468)" fill="#b16668"/>
      <path id="Path_1348" data-name="Path 1348" d="M222.027,229.409l1.169,4.166c-.821,2.761-2.942,4.753-8.922,5.183-4.56.327-9.056-.836-10.473-3.853a73.993,73.993,0,0,1,2.819-8.18s-2.156-5.843-2.156-5.878c.584-.424,1.613-3,2.045-6.135a10.827,10.827,0,0,0-.666-5.454l5.259-.926,6.214-.181c1.487.082,2.545.225,2.545.225.847,1.1,1.972,3.281,3.43,5.843.853,1.5,2.588,5.18-1.031,8.641C222.3,223.35,221.971,228.617,222.027,229.409Z" transform="translate(-188.243 -177.867)" fill="#6d9b79"/>
      <g id="Group_413" data-name="Group 413" transform="translate(15.557 30.283)" opacity="0.8">
        <path id="Path_1349" data-name="Path 1349" d="M222.027,229.409l1.169,4.166c-.821,2.761-2.942,4.753-8.922,5.183-4.56.327-9.056-.836-10.473-3.853a73.993,73.993,0,0,1,2.819-8.18s-2.156-5.843-2.156-5.878c.584-.424,1.613-3,2.045-6.135a10.827,10.827,0,0,0-.666-5.454l5.259-.926,6.214-.181c1.487.082,2.545.225,2.545.225.847,1.1,1.972,3.281,3.43,5.843.853,1.5,2.588,5.18-1.031,8.641C222.3,223.35,221.971,228.617,222.027,229.409Z" transform="translate(-203.8 -208.15)" fill="#fff"/>
      </g>
      <g id="Group_414" data-name="Group 414" transform="translate(15.548 38.545)" opacity="0.05">
        <path id="Path_1350" data-name="Path 1350" d="M219.814,257.52a15.387,15.387,0,0,1-5.574,1.259c-4.557.327-9.056-.838-10.47-3.856a73.585,73.585,0,0,1,2.816-8.18s-2.156-5.843-2.156-5.878a.733.733,0,0,0,.114-.105l.053-.058a2.625,2.625,0,0,0,.234-.348c.018-.029.035-.064.056-.1.053-.1.111-.21.169-.33s.079-.169.117-.257c.117-.266.237-.57.353-.9.038-.114.079-.228.117-.345v-.032c.023-.073.05-.149.07-.225.047-.152.093-.292.14-.467.094-.33.184-.687.266-1.052.018-.073.035-.143.05-.216l.4,1.382a14.548,14.548,0,0,0,0,4.256c.394,1.335,2.921,4.908,3.12,5.615s-1.417.7-2.358,2.612a5.059,5.059,0,0,0,2.375,6.719C213.77,259.243,219.584,257.587,219.814,257.52Z" transform="translate(-203.77 -236.43)"/>
      </g>
      <path id="Path_1351" data-name="Path 1351" d="M225.669,250.42A4.385,4.385,0,0,0,228.363,253a4.917,4.917,0,0,0,5.571-1.017,4.5,4.5,0,0,1-5.887,1.9A3.3,3.3,0,0,1,225.669,250.42Z" transform="translate(-203.712 -207.788)" opacity="0.05"/>
      <path id="Path_1352" data-name="Path 1352" d="M182.311,222.788a23.1,23.1,0,0,0,1.861-5.816,9.57,9.57,0,0,0-.467-5.641c-3.815.377-5.288,1.5-7.753,8.98-1.721,5.218-4.072,11.583-4.867,16.024-.383,2.147,1.616,12.068,2.726,15.711a6.242,6.242,0,0,0,3.33,3.389c1.169.242,3.769-2.027,4.148-2.8.465-1.443,1.361-5.612.85-6.74-.473-1.04-1.423-1.122-2.355-.207a8.513,8.513,0,0,0-1.951,2.863c-.391-3.8-.692-11.542-.692-11.542Z" transform="translate(-165.051 -180.118)" fill="#b16668"/>
      <path id="Path_1353" data-name="Path 1353" d="M230.631,151.41c1.037.614,2.252,2.311,2.127,7.777-.108,4.636-1.61,5.781-2.363,6.112a7.956,7.956,0,0,1-3.623-.108v2.784s1.954,2.27,1.832,3.544-2.822,1.578-4.654.333a14.669,14.669,0,0,1-3.368-3.675l.032-6.4s-.833.809-2.244-.424c-1.169-1.02-1.557-2.737-.651-3.658a2.032,2.032,0,0,1,3.231.643l1.323-.365h0a3.123,3.123,0,0,1,1.77-2.843,5.8,5.8,0,0,1,.8-.292C227.926,153.919,229.468,153.858,230.631,151.41Z" transform="translate(-197.742 -137.703)" fill="#b16668"/>
      <path id="Path_1354" data-name="Path 1354" d="M231.32,171.68l-1.32.365v2.174h0a1.323,1.323,0,0,0,1.323-1.323Z" transform="translate(-206.789 -152.051)" fill="#263238"/>
      <path id="Path_1355" data-name="Path 1355" d="M237.716,193.037c-1.49-.2-4.557-1.075-5.036-2.287a3.155,3.155,0,0,0,1.075,1.548,16.243,16.243,0,0,0,3.961,1.668Z" transform="translate(-208.686 -165.55)" fill="#9a4a4d"/>
      <path id="Path_1356" data-name="Path 1356" d="M246.549,172.06a1.008,1.008,0,0,1-1.949.2,1.461,1.461,0,0,0,1.949-.2Z" transform="translate(-217.124 -152.32)" fill="#263238"/>
      <path id="Path_1357" data-name="Path 1357" d="M264.19,171.516a1.008,1.008,0,0,1-1.96-.1,1.461,1.461,0,0,0,.958.421A1.493,1.493,0,0,0,264.19,171.516Z" transform="translate(-229.604 -151.867)" fill="#263238"/>
      <path id="Path_1358" data-name="Path 1358" d="M243.848,164.583l-1.323.73a.792.792,0,0,1,.31-1.052.736.736,0,0,1,1.014.321Z" transform="translate(-215.592 -146.736)" fill="#263238"/>
      <path id="Path_1359" data-name="Path 1359" d="M251.138,186.9l1.411.532a.739.739,0,0,1-.958.467A.789.789,0,0,1,251.138,186.9Z" transform="translate(-221.719 -162.825)" fill="#9a4a4d"/>
      <path id="Path_1360" data-name="Path 1360" d="M265.707,163.625l-1.437-.508a.736.736,0,0,1,.949-.479A.8.8,0,0,1,265.707,163.625Z" transform="translate(-231.048 -145.621)" fill="#263238"/>
      <path id="Path_1361" data-name="Path 1361" d="M256.08,169.66l.2,3.722,1.943-.663Z" transform="translate(-225.25 -150.621)" fill="#9a4a4d"/>
    </g>
  </g>
</svg>
