<svg xmlns="http://www.w3.org/2000/svg" width="123.76" height="124.2" viewBox="0 0 123.76 124.2">
  <g id="Bibliophile-amico" transform="translate(0 0)">
    <g id="freepik--Floor--inject-38" transform="translate(0 50.872)">
      <ellipse id="freepik--floor--inject-38-2" data-name="freepik--floor--inject-38" cx="61.88" cy="36.664" rx="61.88" ry="36.664" fill="#f5f5f5"/>
    </g>
    <g id="freepik--Shadows--inject-38" transform="translate(13.49 58.612)">
      <ellipse id="freepik--Shadow--inject-38" cx="24.697" cy="14.257" rx="24.697" ry="14.257" transform="translate(41.012 21.337)" fill="#e0e0e0"/>
      <path id="freepik--shadow--inject-38-2" data-name="freepik--shadow--inject-38" d="M93.817,274.986l-6.241-3.6-5.089,2.937.848-2.448-5.087.979,5.935-3.435L65.225,258.48a.33.33,0,0,1,0-.626l44.766-25.75a1.2,1.2,0,0,1,1.086,0l28.532,16.448a.33.33,0,0,1,0,.626L94.9,274.986a1.2,1.2,0,0,1-1.084,0Z" transform="translate(-64.999 -231.975)" fill="#e0e0e0"/>
    </g>
    <g id="freepik--book-shelf--inject-38" transform="translate(6.869 0)">
      <g id="freepik--book-shelf--inject-38-2" data-name="freepik--book-shelf--inject-38">
        <g id="freepik--Shelf--inject-38" transform="translate(0 13.394)">
          <path id="Path_2075" data-name="Path 2075" d="M81.382,93.022V91.328h0a.576.576,0,0,0-.338-.445L70.868,85A1.736,1.736,0,0,0,69.3,85l-29.25,16.891a.576.576,0,0,0-.338.45h0v1.694h0a.581.581,0,0,0,.338.461l10.176,5.875a1.73,1.73,0,0,0,1.571,0l29.25-16.9a.573.573,0,0,0,.335-.45Z" transform="translate(-39.71 -84.812)" fill="#f0f0f0"/>
          <path id="Path_2076" data-name="Path 2076" d="M40.092,102.794l10.176,5.875a1.73,1.73,0,0,0,1.571,0l29.25-16.891c.432-.262.432-.654,0-.9L70.913,85a1.736,1.736,0,0,0-1.571,0l-29.25,16.891A.478.478,0,0,0,40.092,102.794Z" transform="translate(-39.754 -84.812)" fill="#fafafa"/>
          <path id="Path_2077" data-name="Path 2077" d="M51.014,157.718v1.694a1.615,1.615,0,0,1-.785-.189l-10.173-5.867a.571.571,0,0,1-.335-.45h0v-1.7h0a.427.427,0,0,1,.073-.209c-.12.22-.031.471.262.644l10.178,5.875A1.571,1.571,0,0,0,51.014,157.718Z" transform="translate(-39.717 -133.673)" fill="#e0e0e0"/>
        </g>
        <g id="freepik--Books--inject-38" transform="translate(4.173)">
          <path id="Path_2078" data-name="Path 2078" d="M144.31,34.41,152.9,39.4V55.851l-8.592-4.992Z" transform="translate(-121.1 -34.211)" fill="#e0e0e0"/>
          <path id="Path_2079" data-name="Path 2079" d="M147.258,40.991l-8.314-4.8a3.5,3.5,0,0,1-1.9,1.047l8.246,4.783A8.017,8.017,0,0,0,147.258,40.991Z" transform="translate(-115.733 -35.525)" fill="#fff"/>
          <path id="Path_2080" data-name="Path 2080" d="M142.377,40.114a1.77,1.77,0,0,0,1.6,0l1.4-.809c.442-.262.442-.668,0-.922l-8.2-4.733-.346.2,8.061,4.683a.293.293,0,0,1,0,.555l-1.309.741a1.063,1.063,0,0,1-.961,0l-8.05-4.676-.393.228Z" transform="translate(-113.622 -33.65)" fill="#fafafa"/>
          <path id="Path_2081" data-name="Path 2081" d="M134.18,40.26V56.706l8.2,4.733a1.77,1.77,0,0,0,1.6,0l1.4-.809a.56.56,0,0,0,.33-.461V43.721a.56.56,0,0,1-.33.463l-1.4.809a1.77,1.77,0,0,1-1.6,0Z" transform="translate(-113.622 -38.53)" fill="#e0e0e0"/>
          <path id="Path_2082" data-name="Path 2082" d="M168.54,54.943a1.623,1.623,0,0,0,.8-.191l1.4-.809a.56.56,0,0,0,.33-.463V69.928a.56.56,0,0,1-.33.461l-1.4.809a1.652,1.652,0,0,1-.8.191Z" transform="translate(-138.987 -48.289)" fill="#ebebeb"/>
          <path id="Path_2083" data-name="Path 2083" d="M130.88,42.16l8.595,4.995V63.6l-8.595-4.992Z" transform="translate(-111.186 -39.932)" fill="#ebebeb"/>
          <path id="Path_2084" data-name="Path 2084" d="M133.838,48.741l-8.317-4.8a3.5,3.5,0,0,1-1.9,1.047l8.246,4.78A8.33,8.33,0,0,0,133.838,48.741Z" transform="translate(-105.826 -41.246)" fill="#fff"/>
          <path id="Path_2085" data-name="Path 2085" d="M128.954,47.864a1.775,1.775,0,0,0,1.6,0l1.4-.809c.44-.262.44-.668,0-.921l-8.2-4.733-.348.2,8.061,4.683a.293.293,0,0,1,0,.555l-1.309.741a1.047,1.047,0,0,1-.961,0l-8.047-4.673-.393.225Z" transform="translate(-103.715 -39.371)" fill="#fafafa"/>
          <path id="Path_2086" data-name="Path 2086" d="M120.76,48V64.448l8.194,4.731a1.775,1.775,0,0,0,1.6,0l1.4-.809a.558.558,0,0,0,.33-.461V51.466a.56.56,0,0,1-.33.461l-1.4.809a1.759,1.759,0,0,1-1.6,0Z" transform="translate(-103.715 -44.243)" fill="#ebebeb"/>
          <path id="Path_2087" data-name="Path 2087" d="M155.12,62.7a1.623,1.623,0,0,0,.785-.191l1.414-.809a.56.56,0,0,0,.33-.461V77.686a.558.558,0,0,1-.33.461l-1.4.809a1.623,1.623,0,0,1-.785.191Z" transform="translate(-129.08 -54.017)" fill="#f0f0f0"/>
          <path id="Path_2088" data-name="Path 2088" d="M119.97,82.74v.835l1.27.647v-.9Z" transform="translate(-103.132 -69.889)" fill="#e0e0e0"/>
          <path id="Path_2089" data-name="Path 2089" d="M114.192,83.77l-1.668-.83-1.864,1.076,2.157,1.2Z" transform="translate(-96.259 -70.036)" fill="#fff"/>
          <path id="Path_2090" data-name="Path 2090" d="M114.45,91.906v6.971a.877.877,0,0,0,.406.7l6.657,3.843a.809.809,0,0,0,.325.092l-6.223-11.482a.785.785,0,0,1-.322-.092l-.448-.262C114.625,91.55,114.45,91.652,114.45,91.906Z" transform="translate(-99.057 -76.445)" fill="#ebebeb"/>
          <path id="Path_2091" data-name="Path 2091" d="M119.374,87.224l1.018-1.123.9-.524c.081-.131.181-.23.128-.338L127.581,96.6v.013c.055.11.068.356-.081.44L125.578,98.7a.859.859,0,0,1-.471.092L118.9,87.316A.861.861,0,0,0,119.374,87.224Z" transform="translate(-102.342 -71.734)" fill="#f0f0f0"/>
          <path id="Path_2092" data-name="Path 2092" d="M115.1,81.972c.22.128.165.262,0,.458l-1.922,1.647a.872.872,0,0,1-.785,0l-1.689-.976c-.22-.126-.262-.309-.086-.408a.785.785,0,0,1,.707.05l1.333.785a.3.3,0,0,0,.262,0l1.2-1.236a.081.081,0,0,0,0-.152l-1.351-.694c-.22-.128-.262-.312-.086-.408a.785.785,0,0,1,.707.05Z" transform="translate(-96.151 -68.586)" fill="#fafafa"/>
          <path id="Path_2093" data-name="Path 2093" d="M82.1,57.52l9.655,5.61V81.6L82.1,76Z" transform="translate(-75.176 -51.271)" fill="#e0e0e0"/>
          <path id="Path_2094" data-name="Path 2094" d="M85.419,64.913,76.076,59.52a3.908,3.908,0,0,1-2.136,1.173L83.2,66.062A8.981,8.981,0,0,0,85.419,64.913Z" transform="translate(-69.152 -52.747)" fill="#fff"/>
          <path id="Path_2095" data-name="Path 2095" d="M79.937,63.929a1.99,1.99,0,0,0,1.8,0l1.571-.908c.5-.285.5-.749,0-1.047L74.1,56.67l-.39.223,9.055,5.262a.327.327,0,0,1,0,.62L81.3,63.61a1.186,1.186,0,0,1-1.079,0L71.17,58.359l-.44.262Z" transform="translate(-66.782 -50.644)" fill="#fafafa"/>
          <path id="Path_2096" data-name="Path 2096" d="M70.73,64.09V82.564l9.207,5.325a1.99,1.99,0,0,0,1.8,0l1.571-.908a.631.631,0,0,0,.369-.524V67.993a.631.631,0,0,1-.369.524l-1.571.911a1.99,1.99,0,0,1-1.8,0Z" transform="translate(-66.782 -56.121)" fill="#e0e0e0"/>
          <path id="Path_2097" data-name="Path 2097" d="M109.33,80.577a1.856,1.856,0,0,0,.9-.212l1.571-.911a.631.631,0,0,0,.369-.524V97.4a.631.631,0,0,1-.369.524l-1.571.908a1.859,1.859,0,0,1-.9.215Z" transform="translate(-95.277 -67.076)" fill="#ebebeb"/>
          <path id="Path_2098" data-name="Path 2098" d="M67.03,66.23l9.652,5.61V90.315L67.03,84.707Z" transform="translate(-64.051 -57.701)" fill="#ebebeb"/>
          <path id="Path_2099" data-name="Path 2099" d="M70.332,73.623,60.984,68.23a3.911,3.911,0,0,1-2.134,1.175l9.267,5.369A9.238,9.238,0,0,0,70.332,73.623Z" transform="translate(-58.012 -59.177)" fill="#fff"/>
          <path id="Path_2100" data-name="Path 2100" d="M64.857,72.639a1.99,1.99,0,0,0,1.8,0l1.571-.908c.5-.285.5-.749,0-1.047l-9.2-5.3-.393.223,9.055,5.262a.327.327,0,0,1,0,.62l-1.469.835a1.194,1.194,0,0,1-1.079,0l-9.042-5.251-.442.262Z" transform="translate(-55.65 -57.073)" fill="#fafafa"/>
          <path id="Path_2101" data-name="Path 2101" d="M55.65,72.8V91.274l9.207,5.317a1.99,1.99,0,0,0,1.8,0l1.571-.908a.631.631,0,0,0,.369-.524V76.69a.631.631,0,0,1-.369.524l-1.571.908a1.974,1.974,0,0,1-1.8,0Z" transform="translate(-55.65 -62.551)" fill="#ebebeb"/>
          <path id="Path_2102" data-name="Path 2102" d="M94.25,89.287a1.833,1.833,0,0,0,.9-.215l1.571-.908a.631.631,0,0,0,.369-.524v18.475a.631.631,0,0,1-.369.524l-1.571.908a1.859,1.859,0,0,1-.9.215Z" transform="translate(-84.145 -73.506)" fill="#f0f0f0"/>
        </g>
      </g>
    </g>
    <g id="freepik--books--inject-38-2" data-name="freepik--books--inject-38" transform="translate(16.158 37.729)">
      <g id="freepik--big-books--inject-38" transform="translate(0)">
        <path id="Path_2103" data-name="Path 2103" d="M84.2,335.127l.662-.382-.479-.215a2.454,2.454,0,0,0-.387.123,1.883,1.883,0,0,0,.026.262Z" transform="translate(-81.694 -289.56)" fill="#699878"/>
        <path id="Path_2104" data-name="Path 2104" d="M84.2,335.127l.662-.382-.479-.215a2.454,2.454,0,0,0-.387.123,1.883,1.883,0,0,0,.026.262Z" transform="translate(-81.694 -289.56)" opacity="0.5"/>
        <path id="Path_2105" data-name="Path 2105" d="M114.369,295.685a2.141,2.141,0,0,1-1.937,0L90.68,283.119l32.559-18.8.762-.44,21.75,12.566a.594.594,0,0,1,0,1.118Z" transform="translate(-86.625 -237.406)" fill="#699878"/>
        <path id="Path_2106" data-name="Path 2106" d="M98.635,294.75l-7.592,4.367-4.911-2.835-5.712,3.3V303.7c0,.5.56,1.209.764,1.094a5.6,5.6,0,0,1,1.092.387,8.242,8.242,0,0,1,1.571,1.165l17.427-10.061Z" transform="translate(-79.051 -260.194)" fill="#699878"/>
        <path id="Path_2107" data-name="Path 2107" d="M98.635,294.75l-7.592,4.367-4.911-2.835-5.712,3.3V303.7c0,.5.56,1.209.764,1.094a5.6,5.6,0,0,1,1.092.387,8.242,8.242,0,0,1,1.571,1.165l17.427-10.061Z" transform="translate(-79.051 -260.194)" opacity="0.15"/>
        <path id="Path_2108" data-name="Path 2108" d="M80.42,314.505c0,.469.49,1.12.72,1.1h.045c.016,0,.691-.429.764-.44l.657-2.17s-.039-2.537,0-2.537a10.608,10.608,0,0,0-.437-1.073L80.42,310.4Z" transform="translate(-79.051 -271.001)" opacity="0.4"/>
        <path id="Path_2109" data-name="Path 2109" d="M103.881,342.2l-1.309-.762L82.878,330.06a1.277,1.277,0,0,0-.262-.707,2.9,2.9,0,0,0-.861-.757,1.969,1.969,0,0,0-.929-.291,1,1,0,0,0-.613.2,3.4,3.4,0,0,1-.353-1.618H79.1a3.054,3.054,0,0,0,.757,2.3l.377.22c.212.123.382.131.382.016v-.2c0-.223.338-.212.759.031s.757.618.757.843v.2c0,.118.291.374.647.579l19.043,11,2.06,1.189h0a2.024,2.024,0,0,0,.966.228v-.861A1.966,1.966,0,0,1,103.881,342.2Z" transform="translate(-78.076 -283.92)" fill="#699878"/>
        <path id="Path_2110" data-name="Path 2110" d="M103.881,342.2l-1.309-.762L82.878,330.06a1.277,1.277,0,0,0-.262-.707,2.9,2.9,0,0,0-.861-.757,1.969,1.969,0,0,0-.929-.291,1,1,0,0,0-.613.2,3.4,3.4,0,0,1-.353-1.618H79.1a3.054,3.054,0,0,0,.757,2.3l.377.22c.212.123.382.131.382.016v-.2c0-.223.338-.212.759.031s.757.618.757.843v.2c0,.118.291.374.647.579l19.043,11,2.06,1.189h0a2.024,2.024,0,0,0,.966.228v-.861A1.966,1.966,0,0,1,103.881,342.2Z" transform="translate(-78.076 -283.92)" opacity="0.3"/>
        <path id="Path_2111" data-name="Path 2111" d="M210.2,314v.874a.665.665,0,0,1-.382.552H209.8l-29.331,16.93-2.058,1.189h0a2.032,2.032,0,0,1-.966.228v-.861a1.956,1.956,0,0,0,.969-.23l1.309-.757h0l30.067-17.362A.66.66,0,0,0,210.2,314Z" transform="translate(-150.679 -274.405)" fill="#699878"/>
        <path id="Path_2112" data-name="Path 2112" d="M210.2,314v.874a.665.665,0,0,1-.382.552H209.8l-29.331,16.93-2.058,1.189h0a2.032,2.032,0,0,1-.966.228v-.861a1.956,1.956,0,0,0,.969-.23l1.309-.757h0l30.067-17.362A.66.66,0,0,0,210.2,314Z" transform="translate(-150.679 -274.405)" opacity="0.2"/>
        <path id="Path_2113" data-name="Path 2113" d="M117.675,329.547v5.026a1.291,1.291,0,0,1-.647-.154l-2.385-1.374-18.173-10.5V317.3Z" transform="translate(-90.899 -276.841)" fill="#ebebeb"/>
        <path id="Path_2114" data-name="Path 2114" d="M135.1,350.77l5.089,2.94a12.8,12.8,0,0,0-2.545-1.7A11.658,11.658,0,0,0,135.1,350.77Z" transform="translate(-119.416 -301.549)" opacity="0.15"/>
        <path id="Path_2115" data-name="Path 2115" d="M209.263,296.33V300.2a1.432,1.432,0,0,1-.644,1.118l-28.153,16.244-2.382,1.374a1.288,1.288,0,0,1-.644.154V314.6Z" transform="translate(-150.672 -261.36)" fill="#f5f5f5"/>
        <path id="Path_2116" data-name="Path 2116" d="M87.867,312.409v4.45a.5.5,0,0,0-.071-.042,1.922,1.922,0,0,0-.927-.293.987.987,0,0,0-.61.2V311.49Z" transform="translate(-83.362 -272.552)" fill="#37474f"/>
        <path id="Path_2117" data-name="Path 2117" d="M93.507,320.854a1.262,1.262,0,0,0-.262-.707,2.456,2.456,0,0,0-.262-.306l-.092-.086-.118-.1-.1-.073a2.05,2.05,0,0,0-.215-.144V315l1.047.615Z" transform="translate(-87.939 -275.143)" fill="#e0e0e0"/>
        <path id="Path_2118" data-name="Path 2118" d="M118.846,238.57l-32.559,18.81v.435c0,.243-.338.332-.757.092s-.759-.544-.759-.963l-.042-.414,33.174-19.15.134-.079a.435.435,0,0,1,.058.2v.2C118.1,237.936,118.43,238.324,118.846,238.57Z" transform="translate(-82.233 -217.784)" fill="#699878"/>
        <path id="Path_2119" data-name="Path 2119" d="M118.846,238.57l-32.559,18.81v.435c0,.243-.338.332-.757.092s-.759-.544-.759-.963l-.042-.414,33.174-19.15.134-.079a.435.435,0,0,1,.058.2v.2C118.1,237.936,118.43,238.324,118.846,238.57Z" transform="translate(-82.233 -217.784)" opacity="0.1"/>
        <path id="Path_2120" data-name="Path 2120" d="M112.041,272.7,90.77,260.414c-.262-.141-.524-.262-.62-.2l.139-.076,32.559-18.8.382-.217a1.214,1.214,0,0,1,1.026.152l21.092,12.192a.6.6,0,0,1,0,1.12L113.978,272.7A2.142,2.142,0,0,1,112.041,272.7Z" transform="translate(-86.234 -220.557)" fill="#699878"/>
        <path id="Path_2121" data-name="Path 2121" d="M113.929,235.58l-.134.079-33.184,19.15a.262.262,0,0,0-.071-.089l-.113-.063-.238-.139-.293-.16a.3.3,0,0,0-.374.034.118.118,0,0,0-.039.034.628.628,0,0,0-.1.139.934.934,0,0,0-.086.186c-.026.068-.047.141-.068.217a2.519,2.519,0,0,0-.047.262,1,1,0,0,0-.018.154v.123c0,.092-.013.188-.013.291v-.932a1.973,1.973,0,0,1,.971-1.492L111.5,235.253a1.954,1.954,0,0,1,1.728-.123l.4.23h0c.026.018.094.055.168.1a.314.314,0,0,1,.134.123Z" transform="translate(-78.113 -216.072)" fill="#699878"/>
        <path id="Path_2122" data-name="Path 2122" d="M103.926,322.732h0l-1.309-.762-15.129-8.744-4.838-2.8c-.343-.2-.623-.262-.641-.17a.024.024,0,0,0,0,.013v.22c0,.241-.34.241-.759,0s-.589-.524-.594-.762v-.238a.348.348,0,0,0-.113-.283l-.113-.063-.238-.139-.3-.149a.3.3,0,0,0-.374.034.118.118,0,0,0-.039.034.372.372,0,0,0-.065.089.209.209,0,0,0-.034.05.934.934,0,0,0-.086.186c-.026.068-.047.141-.068.217a2.516,2.516,0,0,0-.047.262,1,1,0,0,0-.018.154v.123c0,.092-.013.188-.013.291v3.267H79.9v-3.521l.018-.188a.029.029,0,0,1,0-.018,2.137,2.137,0,0,0,1.126,1.4,1.865,1.865,0,0,0,.908.283,1,1,0,0,0,.668-.246l.068.037.131.079,19.043,11,2.06,1.189h.013a2.021,2.021,0,0,0,.953.22v-.861A1.993,1.993,0,0,1,103.926,322.732Z" transform="translate(-78.113 -270.571)" fill="#699878"/>
        <path id="Path_2123" data-name="Path 2123" d="M103.926,322.732h0l-1.309-.762-15.129-8.744-4.838-2.8c-.343-.2-.623-.262-.641-.17a.024.024,0,0,0,0,.013v.22c0,.241-.34.241-.759,0s-.589-.524-.594-.762v-.238a.348.348,0,0,0-.113-.283l-.113-.063-.238-.139-.3-.149a.3.3,0,0,0-.374.034.118.118,0,0,0-.039.034.372.372,0,0,0-.065.089.209.209,0,0,0-.034.05.934.934,0,0,0-.086.186c-.026.068-.047.141-.068.217a2.516,2.516,0,0,0-.047.262,1,1,0,0,0-.018.154v.123c0,.092-.013.188-.013.291v3.267H79.9v-3.521l.018-.188a.029.029,0,0,1,0-.018,2.137,2.137,0,0,0,1.126,1.4,1.865,1.865,0,0,0,.908.283,1,1,0,0,0,.668-.246l.068.037.131.079,19.043,11,2.06,1.189h.013a2.021,2.021,0,0,0,.953.22v-.861A1.993,1.993,0,0,1,103.926,322.732Z" transform="translate(-78.113 -270.571)" opacity="0.3"/>
        <path id="Path_2124" data-name="Path 2124" d="M118.742,236.733a1.214,1.214,0,0,0-1.026-.152l-.38.217c-.419-.246-.754-.634-.754-.874v-.212a.435.435,0,0,0-.058-.2.314.314,0,0,0-.118-.133h0c-.073-.042-.141-.079-.168-.1h0l-.4-.23a1.954,1.954,0,0,0-1.728.123l-31.4,18.118-.034.024,22.174,12.8a1.427,1.427,0,0,0,1.291,0l31.6-18.417Z" transform="translate(-80.719 -216.013)" opacity="0.1"/>
        <path id="Path_2125" data-name="Path 2125" d="M210.2,290.54v.877a.67.67,0,0,1-.382.552H209.8L180.474,308.9l-2.058,1.189h0a2.031,2.031,0,0,1-.966.225v-.861a1.956,1.956,0,0,0,.969-.23l1.309-.757h0l30.067-17.359A.657.657,0,0,0,210.2,290.54Z" transform="translate(-150.679 -257.086)" fill="#699878"/>
        <path id="Path_2126" data-name="Path 2126" d="M210.2,290.54v.877a.67.67,0,0,1-.382.552H209.8L180.474,308.9l-2.058,1.189h0a2.031,2.031,0,0,1-.966.225v-.861a1.956,1.956,0,0,0,.969-.23l1.309-.757h0l30.067-17.359A.657.657,0,0,0,210.2,290.54Z" transform="translate(-150.679 -257.086)" opacity="0.2"/>
        <path id="Path_2127" data-name="Path 2127" d="M160.553,345.5l.84-.484a1.363,1.363,0,0,0-.7-.05C160.467,345.075,160.553,345.5,160.553,345.5Z" transform="translate(-138.194 -297.249)"/>
        <path id="Path_2128" data-name="Path 2128" d="M157.891,332.355a1.013,1.013,0,0,1,1.495,0c.817.749.859,1.492,1.2,1.479s.346-5.984.346-5.984l-3.217,2.992Z" transform="translate(-136.107 -284.629)"/>
        <path id="Path_2129" data-name="Path 2129" d="M130.7,224.985l.052-.029-.524-.3-22.2-12.828L75.676,232.776c-.524.309-.631.754-.212.995l.757.435,20.755,11.987.147-.1Z" transform="translate(-75.202 -198.982)" fill="#455a64"/>
        <path id="Path_2130" data-name="Path 2130" d="M164.467,316.112l-1.607-.333v6.437c.969.411,1.586.8,1.689,1.61Z" transform="translate(-139.909 -275.719)" fill="#699878"/>
        <path id="Path_2131" data-name="Path 2131" d="M100.3,286.173,79.747,274.3a1.432,1.432,0,0,1-.647-1.12V266.84l20.76,12.084a1.9,1.9,0,0,0,.982,1.181c.736.283.175.568.175.568v5.411C100.381,286.013,100.3,286.173,100.3,286.173Z" transform="translate(-78.076 -239.591)" fill="#ebebeb"/>
        <path id="Path_2132" data-name="Path 2132" d="M160.175,258.032c-.215-.123-.382-.131-.382-.016v.2c0,.223-.338.212-.759-.031s-.762-.618-.762-.84v-.2c0-.118-.285-.374-.641-.579L191.081,237.4l.524.3a.492.492,0,0,1,.126.277v.2c0,.225.34.6.759.843s.759.262.759.029v-.2c0-.118.168-.11.38.013Z" transform="translate(-136.048 -217.858)" fill="#37474f"/>
        <path id="Path_2133" data-name="Path 2133" d="M130.7,201.558l.052-.031-.524-.3-22.2-12.828L75.676,207.092c-.524.309-.631.754-.212.995l.757.437,20.765,12.5Z" transform="translate(-75.202 -181.685)" fill="#455a64"/>
        <path id="Path_2134" data-name="Path 2134" d="M199.431,242.19,166,261.487l1.17.916,33.315-19.236a1.28,1.28,0,0,0-.445-.62Z" transform="translate(-142.227 -221.394)" fill="#455a64"/>
        <path id="Path_2135" data-name="Path 2135" d="M203.276,254.562a.311.311,0,0,0,.06-.042.117.117,0,0,0,.039-.034.371.371,0,0,0,.065-.089.21.21,0,0,0,.034-.05.934.934,0,0,0,.086-.186c.026-.068.047-.141.068-.217a2.521,2.521,0,0,0,.047-.262,1,1,0,0,0,.018-.154V253.4c0-.092.013-.189.013-.291V247.6a4.542,4.542,0,0,0-.312-1.683l-33.3,19.236-.141,8.639,33.315-19.215Z" transform="translate(-145.143 -224.147)" fill="#455a64"/>
        <path id="Path_2136" data-name="Path 2136" d="M170.49,265.156h0s26.239-12.281,28.627-13.406c1.571-.743,2.356.817,1.977,2.432a7.654,7.654,0,0,1-1.717,2.864h0l4.288-2.466h0a.313.313,0,0,0,.06-.042.118.118,0,0,0,.039-.034.373.373,0,0,0,.065-.089.21.21,0,0,0,.034-.05.935.935,0,0,0,.086-.186c.026-.068.047-.141.068-.217a2.524,2.524,0,0,0,.047-.262,1,1,0,0,0,.018-.154v-.123c0-.092.013-.188.013-.291V247.6a4.543,4.543,0,0,0-.312-1.683Z" transform="translate(-145.541 -224.147)" opacity="0.1"/>
        <path id="Path_2137" data-name="Path 2137" d="M100.447,278.776H99.7a3.4,3.4,0,0,0-.361-1.628,1,1,0,0,1-.613.2,1.948,1.948,0,0,1-.927-.291,2.84,2.84,0,0,1-.861-.757.749.749,0,0,1-.045-.068,1.217,1.217,0,0,1-.225-.639l-19.7-11.367-.668-.39-.853-.492a.45.45,0,0,1-.262-.382v-.874a.461.461,0,0,0,.262.4h0l2.262,1.309,19.043,11c.353.2.644.461.644.576v.2a.613.613,0,0,0,.175.356,2.1,2.1,0,0,0,.6.49c.421.243.762.262.762.031v-.2c0-.115.168-.11.38.013l.377.22A3.106,3.106,0,0,1,100.447,278.776Z" transform="translate(-75.19 -236.084)" fill="#37474f"/>
        <path id="Path_2138" data-name="Path 2138" d="M99.746,302.466v5.754l-.018.186a.044.044,0,0,1,0,.018,2.146,2.146,0,0,0-1.126-1.4,1.875,1.875,0,0,0-.911-.285,1,1,0,0,0-.668.246l-.068-.037-.128-.079-19.043-11-1.094-.631c-.1-.058-.209-.118-.312-.181l-.921-.524a.437.437,0,0,1-.207-.359v.872a.427.427,0,0,0,.191.338h0c.107.065.223.128.34.2l.212.123.364.212c.084.05.157.094.228.131l.16.094.28.162,15.129,8.731,4.827,2.788c.343.2.623.262.641.168v-.23c0-.243.338-.243.757,0s.589.524.6.759v.238a.353.353,0,0,0,.11.285l.113.063c.068.037.149.086.238.139l.3.17a.3.3,0,0,0,.377-.034.138.138,0,0,0,.037-.031.49.49,0,0,0,.068-.092h0a.262.262,0,0,0,.031-.045.923.923,0,0,0,.086-.186,1.907,1.907,0,0,0,.068-.217c.018-.081.034-.165.047-.262a.71.71,0,0,0,.018-.152v-5.937Z" transform="translate(-75.234 -259.773)" fill="#37474f"/>
        <path id="Path_2139" data-name="Path 2139" d="M140.21,205.375l-31.663,18.283L84.611,209.849a.393.393,0,0,1,0-.746L115.945,191l21.032,12.147h0l.524.3a.49.49,0,0,1,.126.262v.2c0,.225.34.6.757.843a.411.411,0,0,0,.068.034l.7-.4.332.191.045.021h0l.246.141a1.309,1.309,0,0,1,.44.636Z" transform="translate(-81.946 -183.605)" opacity="0.1"/>
        <path id="Path_2140" data-name="Path 2140" d="M91.984,261.467l.953-.508-.869-.209A.66.66,0,0,0,91.984,261.467Z" transform="translate(-87.536 -235.095)" fill="#699878"/>
        <path id="Path_2141" data-name="Path 2141" d="M91.984,261.467l.953-.508-.869-.209A.66.66,0,0,0,91.984,261.467Z" transform="translate(-87.536 -235.095)" opacity="0.5"/>
        <path id="Path_2142" data-name="Path 2142" d="M121.787,223.171a2.142,2.142,0,0,1-1.937,0L98.1,210.605l32.559-18.5.762-.44,21.749,12.254a.594.594,0,0,1,0,1.118Z" transform="translate(-92.102 -184.099)" fill="#699878"/>
        <path id="Path_2143" data-name="Path 2143" d="M106.047,222.59l-7.592,4.367-4.909-2.835L87.84,227.41v3.822c0,.5.56,1.209.762,1.094a5.6,5.6,0,0,1,1.092.387,8.2,8.2,0,0,1,1.571,1.165l17.427-9.757Z" transform="translate(-84.528 -206.925)" fill="#699878"/>
        <path id="Path_2144" data-name="Path 2144" d="M106.047,222.59l-7.592,4.367-4.909-2.835L87.84,227.41v3.822c0,.5.56,1.209.762,1.094a5.6,5.6,0,0,1,1.092.387,8.2,8.2,0,0,1,1.571,1.165l17.427-9.757Z" transform="translate(-84.528 -206.925)" opacity="0.15"/>
        <path id="Path_2145" data-name="Path 2145" d="M95.27,240.177v4.139a.67.67,0,0,0-.065-.042,1.969,1.969,0,0,0-.932-.291.963.963,0,0,0-.613.144V239.25Z" transform="translate(-88.825 -219.223)" fill="#37474f"/>
        <path id="Path_2146" data-name="Path 2146" d="M100.93,248.4a1.309,1.309,0,0,0-.262-.707,2.431,2.431,0,0,0-.262-.306l-.092-.086-.12-.1-.1-.073a2.56,2.56,0,0,0-.215-.144V242.87l1.063.615v-.021Z" transform="translate(-93.416 -221.896)" fill="#e0e0e0"/>
        <path id="Path_2147" data-name="Path 2147" d="M87.833,244.32c0,.5.56,1.209.762,1.094h0l.762-.5v-3.141l-.764-1.309-.416-.147-.346.2Z" transform="translate(-84.521 -220.013)" opacity="0.4"/>
        <path id="Path_2148" data-name="Path 2148" d="M125.085,257.384V262.1a1.288,1.288,0,0,1-.644-.152l-2.388-1.377-18.173-10.49V245.14Z" transform="translate(-96.369 -223.571)" fill="#ebebeb"/>
        <path id="Path_2149" data-name="Path 2149" d="M109.13,257.22l5.087,2.937a12.762,12.762,0,0,0-2.542-1.7A11.732,11.732,0,0,0,109.13,257.22Z" transform="translate(-100.245 -232.489)" opacity="0.15"/>
        <path id="Path_2150" data-name="Path 2150" d="M216.687,224.17v3.566a1.427,1.427,0,0,1-.647,1.118l-28.132,16.231-2.382,1.377a1.29,1.29,0,0,1-.647.152v-4.162Z" transform="translate(-156.164 -208.091)" fill="#f5f5f5"/>
        <path id="Path_2151" data-name="Path 2151" d="M126.266,166.383l-32.559,18.8v.437c0,.243-.34.332-.757.089s-.762-.545-.762-.961l-.039-.414,33.174-19.153.134-.079a.448.448,0,0,1,.055.2v.2C125.512,165.747,125.85,166.134,126.266,166.383Z" transform="translate(-87.71 -164.485)" fill="#699878"/>
        <path id="Path_2152" data-name="Path 2152" d="M126.266,166.383l-32.559,18.8v.437c0,.243-.34.332-.757.089s-.762-.545-.762-.961l-.039-.414,33.174-19.153.134-.079a.448.448,0,0,1,.055.2v.2C125.512,165.747,125.85,166.134,126.266,166.383Z" transform="translate(-87.71 -164.485)" opacity="0.1"/>
        <path id="Path_2153" data-name="Path 2153" d="M119.458,200.567,98.19,188.289c-.262-.141-.524-.262-.62-.2l.139-.079,32.559-18.8.38-.22a1.231,1.231,0,0,1,1.026.152l21.105,12.186a.594.594,0,0,1,0,1.118L121.4,200.567A2.141,2.141,0,0,1,119.458,200.567Z" transform="translate(-91.711 -167.314)" fill="#699878"/>
        <path id="Path_2154" data-name="Path 2154" d="M215.33,189.391l11.76,6.807a.554.554,0,0,1,0,1.047l-1.584.914a2,2,0,0,1-1.809,0l-11.754-6.8a.553.553,0,0,1,0-1.047l1.571-.914A2,2,0,0,1,215.33,189.391Z" transform="translate(-175.865 -182.258)" fill="#fff"/>
        <path id="Path_2155" data-name="Path 2155" d="M132.486,205.127a.207.207,0,0,1-.1-.026l-15.969-9.2a.209.209,0,0,1,0-.364.976.976,0,0,0,0-1.689.2.2,0,0,1-.1-.181.207.207,0,0,1,.1-.181l26.671-15.4a.212.212,0,0,1,.209,0,3.346,3.346,0,0,0,3.34,0,.212.212,0,0,1,.209,0l15.951,9.21a.215.215,0,0,1,.1.181.209.209,0,0,1-.1.181.976.976,0,0,0,0,1.689.209.209,0,0,1,.1.181.215.215,0,0,1-.1.181L136.135,205.1a.212.212,0,0,1-.209,0,3.343,3.343,0,0,0-3.335,0,.215.215,0,0,1-.1.029Zm-15.6-9.424,15.605,8.982a3.765,3.765,0,0,1,3.539,0L162.3,189.509a1.4,1.4,0,0,1,0-2l-15.576-8.992a3.78,3.78,0,0,1-3.547,0L116.883,193.7a1.4,1.4,0,0,1,0,2Z" transform="translate(-105.542 -174.055)" fill="#fff"/>
        <path id="Path_2156" data-name="Path 2156" d="M121.368,163.366l-.134.079L88.06,182.6a.262.262,0,0,0-.073-.092l-.11-.063-.238-.139c-.092-.05-.191-.11-.3-.17a.3.3,0,0,0-.377.034.113.113,0,0,0-.037.034.61.61,0,0,0-.1.136.885.885,0,0,0-.086.188,1.714,1.714,0,0,0-.068.215c-.018.081-.034.165-.047.262a.731.731,0,0,0-.018.152v-.518a1.973,1.973,0,0,1,.969-1.49l31.386-18.124a1.947,1.947,0,0,1,1.725-.123l.4.233h.016c.026.018.094.055.168.1h0A.317.317,0,0,1,121.368,163.366Z" transform="translate(-83.62 -162.751)" fill="#699878"/>
        <path id="Path_2157" data-name="Path 2157" d="M111.3,268.852l-1.309-.762L90.311,256.731a1.275,1.275,0,0,0-.262-.7,2.84,2.84,0,0,0-.861-.757,1.958,1.958,0,0,0-.948-.293,1,1,0,0,0-.613.2,3.4,3.4,0,0,1-.361-1.628H86.52a3.055,3.055,0,0,0,.757,2.3l.377.22c.212.123.38.131.38.016v-.2c0-.223.34-.212.762.031s.757.634.757.843v.2c0,.118.291.374.644.579l19.043,11,2.063,1.191h0a2.031,2.031,0,0,0,.966.228v-.861a1.956,1.956,0,0,1-.966-.238Z" transform="translate(-83.554 -229.78)" fill="#699878"/>
        <path id="Path_2158" data-name="Path 2158" d="M111.3,268.852l-1.309-.762L90.311,256.731a1.275,1.275,0,0,0-.262-.7,2.84,2.84,0,0,0-.861-.757,1.958,1.958,0,0,0-.948-.293,1,1,0,0,0-.613.2,3.4,3.4,0,0,1-.361-1.628H86.52a3.055,3.055,0,0,0,.757,2.3l.377.22c.212.123.38.131.38.016v-.2c0-.223.34-.212.762.031s.757.634.757.843v.2c0,.118.291.374.644.579l19.043,11,2.063,1.191h0a2.031,2.031,0,0,0,.966.228v-.861a1.956,1.956,0,0,1-.966-.238Z" transform="translate(-83.554 -229.78)" opacity="0.3"/>
        <path id="Path_2159" data-name="Path 2159" d="M111.39,250.494h0l-1.309-.759-15.129-8.728-4.838-2.8c-.343-.2-.623-.262-.641-.168v.22c0,.243-.338.243-.757,0s-.589-.524-.6-.759v-.238a.346.346,0,0,0-.113-.285l-.11-.063c-.068-.037-.149-.086-.238-.139s-.191-.11-.3-.17a.3.3,0,0,0-.377.034.113.113,0,0,0-.037.034.383.383,0,0,0-.068.089.212.212,0,0,0-.031.047.884.884,0,0,0-.086.188,1.713,1.713,0,0,0-.068.215c-.018.081-.034.165-.047.262a.73.73,0,0,0-.018.152v3.377h.746v-3.191l.018-.186a.045.045,0,0,1,0-.018,2.14,2.14,0,0,0,1.126,1.4,1.875,1.875,0,0,0,.893.28,1,1,0,0,0,.668-.246l.065.037.131.079,19.043,11,2.063,1.189h.016a2.034,2.034,0,0,0,.95.22V250.7A2,2,0,0,1,111.39,250.494Z" transform="translate(-83.635 -217.237)" fill="#699878"/>
        <path id="Path_2160" data-name="Path 2160" d="M111.39,250.494h0l-1.309-.759-15.129-8.728-4.838-2.8c-.343-.2-.623-.262-.641-.168v.22c0,.243-.338.243-.757,0s-.589-.524-.6-.759v-.238a.346.346,0,0,0-.113-.285l-.11-.063c-.068-.037-.149-.086-.238-.139s-.191-.11-.3-.17a.3.3,0,0,0-.377.034.113.113,0,0,0-.037.034.383.383,0,0,0-.068.089.212.212,0,0,0-.031.047.884.884,0,0,0-.086.188,1.713,1.713,0,0,0-.068.215c-.018.081-.034.165-.047.262a.73.73,0,0,0-.018.152v3.377h.746v-3.191l.018-.186a.045.045,0,0,1,0-.018,2.14,2.14,0,0,0,1.126,1.4,1.875,1.875,0,0,0,.893.28,1,1,0,0,0,.668-.246l.065.037.131.079,19.043,11,2.063,1.189h.016a2.034,2.034,0,0,0,.95.22V250.7A2,2,0,0,1,111.39,250.494Z" transform="translate(-83.635 -217.237)" opacity="0.3"/>
        <path id="Path_2161" data-name="Path 2161" d="M217.672,218.38v.874a.665.665,0,0,1-.385.552h-.013l-29.32,16.927-2.058,1.191h0a2.024,2.024,0,0,1-.966.228v-.861a1.966,1.966,0,0,0,.971-.23l1.309-.757h0l30.069-17.367A.662.662,0,0,0,217.672,218.38Z" transform="translate(-156.201 -203.817)" fill="#699878"/>
        <path id="Path_2162" data-name="Path 2162" d="M217.672,218.38v.874a.665.665,0,0,1-.385.552h-.013l-29.32,16.927-2.058,1.191h0a2.024,2.024,0,0,1-.966.228v-.861a1.966,1.966,0,0,0,.971-.23l1.309-.757h0l30.069-17.367A.662.662,0,0,0,217.672,218.38Z" transform="translate(-156.201 -203.817)" opacity="0.2"/>
        <path id="Path_2163" data-name="Path 2163" d="M217.672,240.64v.88a.665.665,0,0,1-.385.552h-.013L187.954,259,185.9,260.19h0a2.024,2.024,0,0,1-.966.228v-.861a1.966,1.966,0,0,0,.971-.23l1.309-.757h0l30.069-17.365A.665.665,0,0,0,217.672,240.64Z" transform="translate(-156.201 -220.249)" fill="#699878"/>
        <path id="Path_2164" data-name="Path 2164" d="M217.672,240.64v.88a.665.665,0,0,1-.385.552h-.013L187.954,259,185.9,260.19h0a2.024,2.024,0,0,1-.966.228v-.861a1.966,1.966,0,0,0,.971-.23l1.309-.757h0l30.069-17.365A.665.665,0,0,0,217.672,240.64Z" transform="translate(-156.201 -220.249)" opacity="0.2"/>
        <path id="Path_2165" data-name="Path 2165" d="M112.37,259.09v11.749l1.7-1.958,1.7,3.916V261.048Z" transform="translate(-102.637 -233.869)" fill="#699878"/>
        <path id="Path_2166" data-name="Path 2166" d="M112.37,259.09v11.749l1.7-1.958,1.7,3.916V261.048Z" transform="translate(-102.637 -233.869)" opacity="0.5"/>
        <path id="Path_2167" data-name="Path 2167" d="M121.56,352.59v3.189a2.955,2.955,0,0,1-1.479,2.56l-4.451,2.573,4.238-.49-.848,2.448,4.45-2.573a2.961,2.961,0,0,0,1.479-2.56v-3.189Z" transform="translate(-105.043 -302.892)" fill="#699878"/>
        <path id="Path_2168" data-name="Path 2168" d="M121.56,352.59v3.189a2.955,2.955,0,0,1-1.479,2.56l-4.451,2.573,4.238-.49-.848,2.448,4.45-2.573a2.961,2.961,0,0,0,1.479-2.56v-3.189Z" transform="translate(-105.043 -302.892)" opacity="0.5"/>
      </g>
    </g>
    <g id="freepik--speach-bubble--inject-38" transform="translate(91.784 23.97)">
      <g id="freepik--speach-bubble--inject-38-2" data-name="freepik--speach-bubble--inject-38">
        <path id="Path_2169" data-name="Path 2169" d="M368.487,136.984v-2.864l-2.419-.212a.181.181,0,0,0-.1.021l-2.414,1.38a.178.178,0,0,0-.039.262l2.565,2.78Z" transform="translate(-363.466 -130.135)" fill="#699878"/>
        <path id="Path_2170" data-name="Path 2170" d="M366.057,142.243l-2.565-2.78a.175.175,0,0,1,.147-.3l2.419.209Z" transform="translate(-363.443 -134.017)" fill="#699878"/>
        <path id="Path_2171" data-name="Path 2171" d="M368.779,134.135l-2.406,1.382-2.419-.212a.173.173,0,0,0-.084.013c.194-.115,2.3-1.322,2.39-1.369a.183.183,0,0,1,.1-.021Z" transform="translate(-363.758 -130.15)" fill="#699878"/>
        <path id="Path_2172" data-name="Path 2172" d="M368.779,134.135l-2.406,1.382-2.419-.212a.173.173,0,0,0-.084.013c.194-.115,2.3-1.322,2.39-1.369a.183.183,0,0,1,.1-.021Z" transform="translate(-363.758 -130.15)" fill="#fff" opacity="0.5"/>
        <path id="Path_2173" data-name="Path 2173" d="M373.41,121.626a1.927,1.927,0,0,1,.872-1.511l.709-.408a1.914,1.914,0,0,1,1.743,0l7.555,4.372a1.924,1.924,0,0,1,.872,1.511v8.739a1.932,1.932,0,0,1-.872,1.505l-.709.408a1.929,1.929,0,0,1-1.744,0l-2.233-1.288-2.9-1.678-2.429-1.4a1.927,1.927,0,0,1-.872-1.511Z" transform="translate(-370.793 -119.497)" fill="#699878"/>
        <path id="Path_2174" data-name="Path 2174" d="M386.246,143.363a4.3,4.3,0,0,0-.353-1.67h0a2.909,2.909,0,0,0-1.065-1.364c-.728-.429-1.338.442-1.432,1.471-.086-1.136-.683-2.717-1.414-3.141a.785.785,0,0,0-1.073.107h0a1.89,1.89,0,0,0-.369,1.246c0,1.738,1.047,3.317,1.914,4.974l.922,1.744.935-.652C385.186,145.447,386.239,145.1,386.246,143.363Z" transform="translate(-376.061 -133.521)" fill="#fafafa"/>
        <path id="Path_2175" data-name="Path 2175" d="M409.386,149.067a1.932,1.932,0,0,1-.882,1.511l-.709.408a1.953,1.953,0,0,1-1.594.071c.408.154.723-.076.723-.573v-8.739a1.759,1.759,0,0,0-.262-.859l2.453-1.416a1.759,1.759,0,0,1,.262.859Z" transform="translate(-395.007 -134.241)" opacity="0.2"/>
        <path id="Path_2176" data-name="Path 2176" d="M373.55,121.383c.1-.369.44-.487.843-.262l7.566,4.369a1.722,1.722,0,0,1,.615.652l2.45-1.416a1.77,1.77,0,0,0-.623-.641l-7.553-4.372a1.929,1.929,0,0,0-1.743,0l-.712.411A1.927,1.927,0,0,0,373.55,121.383Z" transform="translate(-370.904 -119.503)" fill="#fff" opacity="0.5"/>
      </g>
    </g>
    <g id="freepik--Character--inject-38" transform="translate(54.988 23.357)">
      <g id="freepik--character--inject-38-2" data-name="freepik--character--inject-38">
        <path id="Path_2177" data-name="Path 2177" d="M301.44,199.284c3.683-.123,5.511,1.77,7.741,4.99s8.377,12.147,8.377,12.147l-4.783,2.762L302.3,204.818Z" transform="translate(-280.918 -175.775)" fill="#ffa8a7"/>
        <path id="Path_2178" data-name="Path 2178" d="M259.586,109.517c-8,.4-11.233,6.752-10.123,12.566.963,5.042,4.754,7.77,9.919,7.77h.647c5.621,0,9.362-5.759,10.053-8.864C271.7,113.779,266.676,109.166,259.586,109.517Z" transform="translate(-242.392 -109.499)" fill="#37474f"/>
        <path id="Path_2179" data-name="Path 2179" d="M271.458,324.413c.2,4.835-7.725,5.783-14.684,2.463-5.249-2.5-7.592-4.309-12.37-7.875-5.919-4.427-7.694-11.131-3.471-19.1l20.134-1.047c3.505,4.063,16.131,9.461,20.32,19.063,2.034,5.076-4.953,7.749-9.948,6.49Z" transform="translate(-234.54 -249.287)" fill="#455a64"/>
        <path id="Path_2180" data-name="Path 2180" d="M318.39,347.815c-.524-4.558-3.992-6.807-6.969-9.013s-9.231-6.032-9.231-6.032a6.679,6.679,0,0,0,5.964-2.21,4.332,4.332,0,0,1-2.005,3.087s8.657,4.95,11.257,9.147A7.037,7.037,0,0,1,318.39,347.815Z" transform="translate(-281.472 -272.688)" fill="#37474f"/>
        <path id="Path_2181" data-name="Path 2181" d="M253.037,199.3H250.73c-2.233.157-4.45.33-4.45.33-3.576,1.291-3.56,4.11-3.738,5.589-.262,2.094.33,3.288,1.018,5.278l3.3,9.54s-1.278,2.848-3.071,6.375c8.278,4.618,18.344,3.076,20.831-.3.1-.715-.262-8.28-.665-11.932a5.683,5.683,0,0,0,1.024-7.835c-3.113-4.254-5.945-6.82-7.068-7.047Z" transform="translate(-237.392 -175.791)" fill="#699878"/>
        <path id="Path_2182" data-name="Path 2182" d="M253.037,199.3H250.73c-2.233.157-4.45.33-4.45.33-3.576,1.291-3.56,4.11-3.738,5.589-.262,2.094.33,3.288,1.018,5.278l3.3,9.54s-1.278,2.848-3.071,6.375c8.278,4.618,18.344,3.076,20.831-.3.1-.715-.262-8.28-.665-11.932a5.683,5.683,0,0,0,1.024-7.835c-3.113-4.254-5.945-6.82-7.068-7.047Z" transform="translate(-237.392 -175.791)" opacity="0.3"/>
        <path id="Path_2183" data-name="Path 2183" d="M247.9,237.324c-.283.607-.649,1.38-1.076,2.254-.073.154-.149.312-.228.469-.1.2-.2.4-.3.61-.262.508-.524,1.047-.785,1.589.306.17.615.327.924.482a22.665,22.665,0,0,0,15.815,1.662,24.006,24.006,0,0,1-8.377-.364,5,5,0,0,1-3.725-6.094,1.9,1.9,0,0,1,.084-.262,1.626,1.626,0,0,1,1.678-1.113,4.825,4.825,0,0,1-2.081-3.079l-.435-1.327a15.558,15.558,0,0,1-.147-9.309l.024-.086-3.518-2.005-.615.427h0a7.646,7.646,0,0,0-.335,1.908h0v.733c0,.141.016.28.029.419s.021.223.037.332.031.236.052.353.055.285.086.427c.021.089.037.181.06.262.06.233.128.466.207.694l3.3,9.54S248.326,236.415,247.9,237.324Z" transform="translate(-239.106 -191.625)" opacity="0.15"/>
        <path id="Path_2184" data-name="Path 2184" d="M272.241,128.46c.524.262,1.94,2.971,1.8,8.869-.115,5-1.736,6.233-2.55,6.589s-2.382.139-3.909-.115v3s2.11,2.45,1.977,3.825-3.045,1.7-5.016.359a12.784,12.784,0,0,1-3.238-3.39v-7.252s-.832.914-2.518-.2-1.945-3.427-.966-4.422,3.092-.678,3.484.694c0,0,2.471.437,5.786-1.7C270.673,132.413,271.775,130.58,272.241,128.46Z" transform="translate(-248.3 -123.496)" fill="#ffa8a7"/>
        <path id="Path_2185" data-name="Path 2185" d="M313.678,146.642l-1.4-.668a.743.743,0,0,1,1.008-.382.812.812,0,0,1,.39,1.05Z" transform="translate(-288.92 -136.089)" fill="#263238"/>
        <path id="Path_2186" data-name="Path 2186" d="M289.74,145.782l-1.309.825a.741.741,0,0,1,.215-1.047A.809.809,0,0,1,289.74,145.782Z" transform="translate(-271.218 -136.028)" fill="#263238"/>
        <path id="Path_2187" data-name="Path 2187" d="M272.52,153.58l.086,3.058a1.484,1.484,0,0,0,1.518-1.521A1.607,1.607,0,0,0,272.52,153.58Z" transform="translate(-259.569 -142.04)" fill="#37474f"/>
        <path id="Path_2188" data-name="Path 2188" d="M294.387,155.052a.628.628,0,1,1-.66-.623.639.639,0,0,1,.66.623Z" transform="translate(-274.784 -142.666)" fill="#263238"/>
        <path id="Path_2189" data-name="Path 2189" d="M299.894,173.71l1.657.524a.853.853,0,0,1-1.079.594.908.908,0,0,1-.579-1.118Z" transform="translate(-279.749 -156.9)" fill="#f28f8f"/>
        <path id="Path_2190" data-name="Path 2190" d="M312.957,154.052a.628.628,0,1,1-.66-.623.639.639,0,0,1,.66.623Z" transform="translate(-288.492 -141.928)" fill="#263238"/>
        <path id="Path_2191" data-name="Path 2191" d="M304.77,154.43l.1,3.785,1.99-.618Z" transform="translate(-283.376 -142.667)" fill="#f28f8f"/>
        <path id="Path_2192" data-name="Path 2192" d="M281.409,180.109c-1.607-.209-4.914-1.16-5.43-2.469a3.4,3.4,0,0,0,1.16,1.67c.987.848,4.27,1.8,4.27,1.8Z" transform="translate(-262.123 -159.801)" fill="#f28f8f"/>
        <path id="Path_2193" data-name="Path 2193" d="M386.288,223.768a2.313,2.313,0,0,1,1.152-1.819c1.215-.9,2.8-1.618,3.32-3.848l1.673.966-2.817,4.738Z" transform="translate(-343.554 -189.669)" fill="#699878"/>
        <path id="Path_2194" data-name="Path 2194" d="M386.288,223.768a2.313,2.313,0,0,1,1.152-1.819c1.215-.9,2.8-1.618,3.32-3.848l1.673.966-2.817,4.738Z" transform="translate(-343.554 -189.669)" fill="#fff" opacity="0.75"/>
        <path id="Path_2195" data-name="Path 2195" d="M327.6,238.524s-1.833-.916-5.835-.089-7.28,1.9-14.977,1.728l2,1.154,19.982-1.157Z" transform="translate(-284.868 -204.425)" fill="#699878"/>
        <path id="Path_2196" data-name="Path 2196" d="M327.6,238.524s-1.833-.916-5.835-.089-7.28,1.9-14.977,1.728l2,1.154,19.982-1.157Z" transform="translate(-284.868 -204.425)" fill="#fff" opacity="0.75"/>
        <path id="Path_2197" data-name="Path 2197" d="M286.644,246.01,279.5,269l2,1.154,7.144-22.993Z" transform="translate(-264.722 -210.273)" fill="#699878"/>
        <path id="Path_2198" data-name="Path 2198" d="M286.644,246.01,279.5,269l2,1.154,7.144-22.993Z" transform="translate(-264.722 -210.273)" fill="#fff" opacity="0.8"/>
        <path id="Path_2199" data-name="Path 2199" d="M286.644,246.01,279.5,269l2,1.154,7.144-22.993Z" transform="translate(-264.722 -210.273)" opacity="0.1"/>
        <g id="Group_451" data-name="Group 451" transform="translate(29.619 29.666)" opacity="0.1">
          <path id="Path_2200" data-name="Path 2200" d="M392.4,222.82a3.954,3.954,0,0,1-.822,1.293,11.882,11.882,0,0,1-1.147,1.047,7.941,7.941,0,0,0-1.126,1.024,2.8,2.8,0,0,0-.4.61,1.474,1.474,0,0,0-.144.678l-.243.037a1.662,1.662,0,0,1,.194-.806,3,3,0,0,1,.45-.654,8.053,8.053,0,0,1,1.189-1,12.447,12.447,0,0,0,1.178-.982A3.96,3.96,0,0,0,392.4,222.82Z" transform="translate(-374.82 -222.82)"/>
          <path id="Path_2201" data-name="Path 2201" d="M395.179,227.77a3.894,3.894,0,0,1-.615.785c-.23.243-.466.476-.691.723a5.174,5.174,0,0,0-.6.785,2.058,2.058,0,0,0-.314.887l-.246-.031a2.338,2.338,0,0,1,.406-.958,5.3,5.3,0,0,1,.67-.759c.241-.233.492-.453.733-.681A3.877,3.877,0,0,0,395.179,227.77Z" transform="translate(-377.914 -226.474)"/>
          <path id="Path_2202" data-name="Path 2202" d="M336.19,242.022a29.676,29.676,0,0,0,3.257-.479c1.079-.217,2.144-.484,3.215-.733a15.04,15.04,0,0,1,3.278-.427,11.782,11.782,0,0,1,1.662.065,5.32,5.32,0,0,1,.825.157,2.049,2.049,0,0,1,.785.387l-.17.178a1.846,1.846,0,0,0-.678-.346,5.533,5.533,0,0,0-.785-.165,11.643,11.643,0,0,0-1.628-.094,14.818,14.818,0,0,0-3.265.364c-1.073.228-2.146.476-3.227.673A29.924,29.924,0,0,1,336.19,242.022Z" transform="translate(-336.19 -235.781)"/>
          <path id="Path_2203" data-name="Path 2203" d="M356.37,244.114c.62-.084,1.23-.212,1.846-.33s1.23-.23,1.851-.312a11.89,11.89,0,0,1,1.882-.126,5.212,5.212,0,0,1,1.874.346l-.1.225a5,5,0,0,0-1.783-.387,11.926,11.926,0,0,0-1.859.063c-.62.063-1.238.154-1.856.262S356.993,244.041,356.37,244.114Z" transform="translate(-351.087 -237.973)"/>
        </g>
        <path id="Path_2204" data-name="Path 2204" d="M378.879,217.4l-3.293,5.615-7.665,24.655,1,.576,3.288-6.885,7.665-23.388Z" transform="translate(-329.994 -189.153)" fill="#699878"/>
        <path id="Path_2205" data-name="Path 2205" d="M379.4,225.211l3.291-5.621-7.665,23.388-3.288,6.885Z" transform="translate(-332.814 -190.769)" opacity="0.2"/>
        <path id="Path_2206" data-name="Path 2206" d="M307.463,246.1l-19.708,1.264-7.665,24.653,1,.576,19.708-1.264,7.663-24.653Z" transform="translate(-265.157 -210.339)" fill="#699878"/>
        <path id="Path_2207" data-name="Path 2207" d="M291.573,249.564l-7.663,24.653,19.708-1.264L311.28,248.3Z" transform="translate(-267.977 -211.963)" opacity="0.2"/>
        <path id="Path_2208" data-name="Path 2208" d="M292.81,276.3a.128.128,0,0,1-.1-.047.131.131,0,0,1-.021-.113A1.27,1.27,0,0,0,291.4,274.5a.128.128,0,0,1-.1-.047.118.118,0,0,1-.021-.113l5.83-18.752a.123.123,0,0,1,.107-.086,2.676,2.676,0,0,0,2.374-1.867.123.123,0,0,1,.11-.086l13.54-.869a.128.128,0,0,1,.1.047.123.123,0,0,1,.021.113,1.254,1.254,0,0,0,.215,1.162,1.238,1.238,0,0,0,1.079.482.12.12,0,0,1,.1.047.118.118,0,0,1,.021.113L308.952,273.4a.126.126,0,0,1-.11.086,2.681,2.681,0,0,0-2.374,1.867.12.12,0,0,1-.11.086l-13.54.869Zm-1.251-2.052a1.518,1.518,0,0,1,1.411,1.8l13.291-.853a2.922,2.922,0,0,1,2.482-1.95l5.759-18.511a1.518,1.518,0,0,1-1.414-1.8l-13.288.853a2.927,2.927,0,0,1-2.482,1.95Z" transform="translate(-273.408 -215.196)" fill="#fafafa"/>
        <path id="Path_2209" data-name="Path 2209" d="M287.755,250.93l1,.576-7.663,24.653-1-.576Z" transform="translate(-265.157 -213.905)" opacity="0.3"/>
        <path id="Path_2210" data-name="Path 2210" d="M366.845,242.955l3.283-1.9-7.663,24.653c-.51,1.33-1.639,1.924-3.285,1.9Z" transform="translate(-323.542 -206.619)" fill="#699878"/>
        <path id="Path_2211" data-name="Path 2211" d="M366.845,242.955l3.283-1.9-7.663,24.653a3.07,3.07,0,0,1-3.285,1.9Z" transform="translate(-323.542 -206.619)" opacity="0.3"/>
        <path id="Path_2212" data-name="Path 2212" d="M386.566,238.042a3.133,3.133,0,0,0-2.744.3c-.911.524-1.147,1.236-.537,1.594l1.1.644,3.283-1.9-1-.579Z" transform="translate(-341.088 -204.242)" fill="#455a64"/>
        <path id="Path_2213" data-name="Path 2213" d="M381.77,259.8c1.183.024,2.469-.126,3.042-1.1l.762-2.44a3.422,3.422,0,0,1-3.141,1.456Z" transform="translate(-340.219 -217.839)" fill="#e0e0e0"/>
        <path id="Path_2214" data-name="Path 2214" d="M387.935,238.85c-.194.948-1.4,1.539-3.285,1.9l1,.576a4.011,4.011,0,0,0,3.285-1.9Z" transform="translate(-342.345 -204.987)" fill="#699878"/>
        <path id="Path_2215" data-name="Path 2215" d="M231.937,200.56c-2.047.123-4.223.8-5.155,4.508s-3.469,16.131-3.665,17.8-.236,3.018,3.778,4.3c4.529,1.448,11.849,2.016,13.917,2.126,3.814.207,6.356-.916,7.574-3.107s1.571-5.108-1.853-3.694a17.077,17.077,0,0,1-5.157,1.539l.7-2.241c-1.139.495-2.094,2.052-3.233,2.241-1.011.17-8.7-2.492-8.7-2.492l2.618-11.171S235.142,203.335,231.937,200.56Z" transform="translate(-223.049 -176.721)" fill="#ffa8a7"/>
        <path id="Path_2216" data-name="Path 2216" d="M248.23,179.312a17.146,17.146,0,0,1-1.361,1.343,7.18,7.18,0,0,0-2,2.88,3.959,3.959,0,0,0,.4,3.665c.775,1.018,2.094,1.492,2.641,2.618a5.9,5.9,0,0,1,.4,1.754,7.694,7.694,0,0,0,1.374,3.621c1.285,1.686,4.034,2.537,5.791,1a4.165,4.165,0,0,0,1.136-1.95,6.841,6.841,0,0,0-.1-4.6,12.521,12.521,0,0,0-2.45-3.38,7.515,7.515,0,0,1-2.094-3.448s-.034-2.406-.016-3.547c0-.558,0-1.12-.539-1.414a3.5,3.5,0,0,0-1.356-.466c-.738-.037-.864.055-.864.055A5.639,5.639,0,0,1,248.23,179.312Z" transform="translate(-238.962 -159.607)" fill="#37474f"/>
        <path id="Path_2217" data-name="Path 2217" d="M390.539,263.4c-.238-.785-1.12.689-1.508,2.937-.369,2.152-.877,4.4-.877,4.4l-.594,1.833a8.073,8.073,0,0,0,2.581-3.291A6.7,6.7,0,0,0,390.539,263.4Z" transform="translate(-344.493 -222.952)" fill="#ffa8a7"/>
      </g>
    </g>
  </g>
</svg>
