<svg xmlns="http://www.w3.org/2000/svg" width="124" height="121.631" viewBox="0 0 124 121.631">
  <g id="Playlist-amico" transform="translate(0)">
    <g id="freepik--Floor--inject-100" transform="translate(0 50.04)">
      <ellipse id="freepik--floor--inject-100-2" data-name="freepik--floor--inject-100" cx="62" cy="35.796" rx="62" ry="35.796" transform="translate(0)" fill="#89948a"/>
    </g>
    <g id="freepik--Shadows--inject-100" transform="translate(11.831 72.442)">
      <path id="freepik--Shadow--inject-100" d="M62.775,326.062l1.872,1.07a2.361,2.361,0,0,0,2.139,0L105.638,304.7a.649.649,0,0,0,0-1.23l-1.872-1.07a2.361,2.361,0,0,0-2.139,0L62.775,324.832C62.178,325.169,62.178,325.72,62.775,326.062Z" transform="translate(-62.327 -302.142)" fill="#e0e0e0"/>
    </g>
    <g id="freepik--Plant--inject-100" transform="translate(0.236 66.979)">
      <g id="freepik--Plants--inject-100" transform="translate(0 0)">
        <path id="Path_2218" data-name="Path 2218" d="M36.74,307.056c.364-4.3.979-8.321-.775-14.6-1.471-5.268-6.23-10.741-9.428-10.746-1.759,0-2.655.591-3.094,1.406-1.209,2.241.607,4.591,1.639,5.615.773.762,7.781,7.377,7.853,14.53l1.008,4.834a.382.382,0,0,0,.57.254Z" transform="translate(-21.951 -281.71)" fill="#8fb99e"/>
        <path id="Path_2219" data-name="Path 2219" d="M36.74,307.056c.364-4.3.979-8.321-.775-14.6-1.471-5.268-6.23-10.741-9.428-10.746-1.759,0-2.655.591-3.094,1.406-1.209,2.241.607,4.591,1.639,5.615.773.762,7.781,7.377,7.853,14.53l1.008,4.834a.382.382,0,0,0,.57.254Z" transform="translate(-21.951 -281.71)" opacity="0.2"/>
        <path id="Path_2220" data-name="Path 2220" d="M43.5,311.848a.187.187,0,0,1-.134-.187c.267-10.508-3.727-17.076-9.479-20.787a.192.192,0,0,1-.056-.267.19.19,0,0,1,.267-.056c5.821,3.762,9.915,10.474,9.647,21.119a.19.19,0,0,1-.2.187A.155.155,0,0,1,43.5,311.848Z" transform="translate(-29.833 -288.162)" fill="#fff"/>
        <path id="Path_2221" data-name="Path 2221" d="M31.114,338.55a1.278,1.278,0,0,1-1.872-.741,15.809,15.809,0,0,0-3.308-5.778c-2.62-2.882-6.34-4.794-6.861-6.685-.623-2.27,1.417-3.316,4.607-2.393,3.848,1.1,7.917,6.121,8,15.276Z" transform="translate(-18.962 -311.68)" fill="#8fb99e"/>
        <path id="Path_2222" data-name="Path 2222" d="M38.227,341.636a.2.2,0,0,1-.131-.16c-.928-8.056-5.99-11.987-8.538-12.942a.191.191,0,1,1,.134-.358c2.816,1.07,7.837,5.035,8.784,13.257a.193.193,0,0,1-.168.211A.206.206,0,0,1,38.227,341.636Z" transform="translate(-26.633 -315.742)" fill="#fff"/>
      </g>
    </g>
    <g id="freepik--Device--inject-100" transform="translate(12.043 0)">
      <g id="freepik--device--inject-100-2" data-name="freepik--device--inject-100" transform="translate(0 0)">
        <g id="freepik--Mobile--inject-100">
          <path id="Path_2223" data-name="Path 2223" d="M97.135,31.7,64.861,50.333a3.476,3.476,0,0,0-1.741,2.885v70.137a3.274,3.274,0,0,0,5.107,2.952l32.167-18.565a4.115,4.115,0,0,0,1.853-3.209V34.656a3.868,3.868,0,0,0-1.628-3.08A3.9,3.9,0,0,0,97.135,31.7Z" transform="translate(-63.12 -31.22)" fill="#8fb99e"/>
          <path id="Path_2224" data-name="Path 2224" d="M97.135,31.7,64.861,50.333a3.476,3.476,0,0,0-1.741,2.885v70.137a3.274,3.274,0,0,0,5.107,2.952l32.167-18.565a4.115,4.115,0,0,0,1.853-3.209V34.656a3.868,3.868,0,0,0-1.628-3.08A3.9,3.9,0,0,0,97.135,31.7Z" transform="translate(-63.12 -31.22)" opacity="0.15"/>
          <path id="Path_2225" data-name="Path 2225" d="M67.8,182.463a3.823,3.823,0,0,1-3.04-.083A3.877,3.877,0,0,1,63.13,179.3V109.168a3.318,3.318,0,0,1,.468-1.588l2.992,1.7a3.61,3.61,0,0,0-.864,2.161V180.8C65.726,182.225,66.625,182.9,67.8,182.463Z" transform="translate(-63.127 -87.162)" fill="#8fb99e"/>
          <path id="Path_2226" data-name="Path 2226" d="M67.8,182.463a3.823,3.823,0,0,1-3.04-.083A3.877,3.877,0,0,1,63.13,179.3V109.168a3.318,3.318,0,0,1,.468-1.588l2.992,1.7a3.61,3.61,0,0,0-.864,2.161V180.8C65.726,182.225,66.625,182.9,67.8,182.463Z" transform="translate(-63.127 -87.162)" opacity="0.45"/>
          <path id="Path_2227" data-name="Path 2227" d="M74.487,58.458a3.634,3.634,0,0,0-1.647,2.832v69.367c0,1.6,1.134,2.249,2.516,1.452l32.159-18.57a4.115,4.115,0,0,0,1.853-3.209V40.452c0-1.177-.834-1.658-1.853-1.07Z" transform="translate(-70.241 -37.016)" fill="#8fb99e"/>
          <path id="Path_2228" data-name="Path 2228" d="M74.487,58.458a3.634,3.634,0,0,0-1.647,2.832v69.367c0,1.6,1.134,2.249,2.516,1.452l32.159-18.57a4.115,4.115,0,0,0,1.853-3.209V40.452c0-1.177-.834-1.658-1.853-1.07Z" transform="translate(-70.241 -37.016)" opacity="0.3"/>
          <path id="Path_2229" data-name="Path 2229" d="M80.392,80.013a3.893,3.893,0,0,0-1.762,3.051v59c0,1.123.8,1.58,1.762,1.019l30.255-17.471a3.9,3.9,0,0,0,1.773-3.051v-59c0-1.118-.8-1.575-1.762-1.016Z" transform="translate(-74.483 -53.995)" fill="#8fb99e"/>
          <path id="Path_2230" data-name="Path 2230" d="M80.392,80.013a3.893,3.893,0,0,0-1.762,3.051v59c0,1.123.8,1.58,1.762,1.019l30.255-17.471a3.9,3.9,0,0,0,1.773-3.051v-59c0-1.118-.8-1.575-1.762-1.016Z" transform="translate(-74.483 -53.995)" opacity="0.45"/>
          <path id="Path_2231" data-name="Path 2231" d="M110.177,122.481V64.2L80.392,81.4A3.893,3.893,0,0,0,78.63,84.45v58.291l29.779-17.209A3.9,3.9,0,0,0,110.177,122.481Z" transform="translate(-74.483 -55.381)" fill="#37474f"/>
          <path id="Path_2232" data-name="Path 2232" d="M130.778,80.935l5.364-3.094c.318-.185.578-.053.578.291a1.243,1.243,0,0,1-.578.963l-5.364,3.1c-.318.184-.578.053-.578-.294A1.251,1.251,0,0,1,130.778,80.935Z" transform="translate(-112.263 -65.314)"/>
          <path id="Path_2233" data-name="Path 2233" d="M165.3,69.546c.3-.174.535-.032.535.313a1.2,1.2,0,0,1-.535.941c-.3.174-.535.032-.535-.313a1.2,1.2,0,0,1,.535-.941Z" transform="translate(-137.59 -59.244)"/>
          <path id="Path_2234" data-name="Path 2234" d="M173.445,64.856c.3-.174.535-.032.535.313a1.2,1.2,0,0,1-.535.941c-.3.174-.535.032-.535-.313A1.2,1.2,0,0,1,173.445,64.856Z" transform="translate(-143.553 -55.808)"/>
          <path id="Path_2235" data-name="Path 2235" d="M108.4,102.4c.3-.174.535-.035.535.313a1.206,1.206,0,0,1-.535.941c-.3.174-.535.032-.535-.313A1.2,1.2,0,0,1,108.4,102.4Z" transform="translate(-95.904 -83.316)"/>
          <path id="Path_2236" data-name="Path 2236" d="M116.535,97.715c.3-.174.535-.035.535.313a1.206,1.206,0,0,1-.535.941c-.3.174-.535.032-.535-.313a1.193,1.193,0,0,1,.535-.941Z" transform="translate(-101.86 -79.88)"/>
        </g>
      </g>
    </g>
    <g id="freepik--Screen--inject-100" transform="translate(23.56 11.24)">
      <g id="freepik--Window--inject-100" transform="translate(0 0)">
        <g id="freepik--dark-window--inject-100">
          <path id="Path_2237" data-name="Path 2237" d="M107.829,208.117v-45.9h0v-16.22a2.6,2.6,0,0,1,.385-1.275l-1.634-.939a2.639,2.639,0,0,0-.39,1.283v4.171h0V207.17a.858.858,0,0,0,.492.786l.045.027,1.527.882a.858.858,0,0,1-.425-.749Z" transform="translate(-106.19 -124.923)" fill="#e0e0e0"/>
          <path id="Path_2238" data-name="Path 2238" d="M113.549,160.088a.749.749,0,0,1-.749-.743V97.224a2.7,2.7,0,0,1,1.219-2.11L144.94,77.368a1.021,1.021,0,0,1,.5-.158.583.583,0,0,1,.238.051.425.425,0,0,1,.086.051.393.393,0,0,1,.067.067l.027.027.035.051a.144.144,0,0,0,.013.029.45.45,0,0,1,.059.126.408.408,0,0,1,.027.091.051.051,0,0,0,0,.021.134.134,0,0,0,0,.032.371.371,0,0,1,.016.091c0,.045,0,.1,0,.147v62.112a2.693,2.693,0,0,1-1.219,2.11l-28.809,16.557-2.1,1.235a.719.719,0,0,1-.337.08Z" transform="translate(-111.033 -76.153)" fill="#fafafa"/>
          <path id="Path_2239" data-name="Path 2239" d="M145.076,76.977a.444.444,0,0,1,.187.04.269.269,0,0,1,.045.027l.021.016a.078.078,0,0,1,.029.029l.027.032.016.021h0a.19.19,0,0,0,.021.04.3.3,0,0,1,.04.091V77.3a.184.184,0,0,1,0,.045v.029a.316.316,0,0,0,0,.053.348.348,0,0,1,0,.056v62.259a2.588,2.588,0,0,1-1.15,1.995l-28.758,16.56-2.086,1.227a.607.607,0,0,1-.281.07.615.615,0,0,1-.615-.612V96.858a2.588,2.588,0,0,1,1.15-1.995l30.913-17.747a.914.914,0,0,1,.439-.139m0-.267a1.166,1.166,0,0,0-.57.174L113.593,94.633a2.84,2.84,0,0,0-1.283,2.225v62.12a.88.88,0,0,0,.88.877.853.853,0,0,0,.4-.1l2.1-1.233h0l28.817-16.557a2.837,2.837,0,0,0,1.283-2.225V77.627a1.537,1.537,0,0,0,0-.16.418.418,0,0,0-.021-.118v-.027a.462.462,0,0,0-.029-.112.618.618,0,0,0-.088-.155.352.352,0,0,0-.043-.067.307.307,0,0,0-.037-.045.433.433,0,0,0-.086-.086h0a.637.637,0,0,0-.1-.07.668.668,0,0,0-.294-.064Z" transform="translate(-110.674 -75.786)" fill="#e0e0e0"/>
          <path id="Path_2240" data-name="Path 2240" d="M141.085,74.356,110.172,92.106a2.628,2.628,0,0,0-.9.952l-1.628-.944a2.578,2.578,0,0,1,.89-.939l30.916-17.747a.9.9,0,0,1,.933-.078c.23.142,1.294.746,1.564.893A.922.922,0,0,0,141.085,74.356Z" transform="translate(-107.252 -73.256)" fill="#f0f0f0"/>
        </g>
        <path id="Path_2241" data-name="Path 2241" d="M123.382,158.841c1.374-.754,2.42-.032,2.334,1.6a5.823,5.823,0,0,1-2.642,4.348c-1.374.754-2.407.032-2.334-1.6A5.785,5.785,0,0,1,123.382,158.841Z" transform="translate(-116.847 -135.737)" fill="#8fb99e"/>
        <path id="Path_2242" data-name="Path 2242" d="M128.242,163.658c.353-.206.639-.04.639.369a1.417,1.417,0,0,1-.639,1.11c-.353.2-.642.037-.642-.369A1.417,1.417,0,0,1,128.242,163.658Z" transform="translate(-121.875 -139.42)" fill="#fafafa"/>
        <path id="Path_2243" data-name="Path 2243" d="M127.908,170.526c0-.671-.471-.968-1.054-.634l-.361.211a2.318,2.318,0,0,0-1.054,1.821v.182s.249.511,1.233-.072a2.757,2.757,0,0,0,1.235-1.353Z" transform="translate(-120.293 -143.951)" fill="#fafafa"/>
        <path id="Path_2244" data-name="Path 2244" d="M145.59,136.534c0,.473.334.663.746.425l11.5-6.645a1.642,1.642,0,0,0,.746-1.286c0-.473-.334-.666-.746-.428l-11.5,6.645A1.647,1.647,0,0,0,145.59,136.534Z" transform="translate(-135.055 -113.727)" fill="#8fb99e"/>
        <path id="Path_2245" data-name="Path 2245" d="M145.59,156.662c0,.219.155.3.345.2l5.308-3.064a.754.754,0,0,0,.345-.594c0-.219-.152-.307-.345-.2l-5.308,3.067a.757.757,0,0,0-.345.594Z" transform="translate(-135.055 -131.643)" fill="#455a64"/>
        <path id="Path_2246" data-name="Path 2246" d="M119.072,145.667a.12.12,0,0,1-.107-.061.123.123,0,0,1,.045-.168l30-17.322a.123.123,0,0,1,.123.214l-30,17.322a.123.123,0,0,1-.062.016Z" transform="translate(-115.537 -113.434)" fill="#e0e0e0"/>
        <path id="Path_2247" data-name="Path 2247" d="M153.8,183.933l-.035-.045-.243-.521V184.7a.214.214,0,0,1-.021.088.131.131,0,0,1-.048.061l-.342.2a.037.037,0,0,1-.048,0,.078.078,0,0,1-.021-.064V182.4a.18.18,0,0,1,.021-.088.123.123,0,0,1,.048-.059l.3-.174c.035-.021.062-.021.078,0a.267.267,0,0,1,.035.045l.42.866.422-1.353a.633.633,0,0,1,.035-.083.185.185,0,0,1,.078-.091l.3-.174a.037.037,0,0,1,.048,0,.088.088,0,0,1,.021.064v2.588a.214.214,0,0,1-.021.088.131.131,0,0,1-.048.061l-.342.2a.037.037,0,0,1-.048,0,.088.088,0,0,1-.021-.064v-1.337l-.243.8a.755.755,0,0,1-.037.086.139.139,0,0,1-.059.07l-.168.1A.048.048,0,0,1,153.8,183.933Z" transform="translate(-140.511 -152.393)" fill="#455a64"/>
        <path id="Path_2248" data-name="Path 2248" d="M161.556,183.169a.353.353,0,0,1-.027.08.128.128,0,0,1-.048.061l-.342.2a.029.029,0,0,1-.043,0,.067.067,0,0,1-.019-.056.1.1,0,0,1,0-.029l.2-.832-.535-1.575v-.027a.2.2,0,0,1,.019-.078.123.123,0,0,1,.045-.056l.34-.2a.037.037,0,0,1,.051,0,.176.176,0,0,1,.024.051l.289.874.286-1.209a.68.68,0,0,1,.027-.078.131.131,0,0,1,.051-.062l.342-.2a.032.032,0,0,1,.043,0,.075.075,0,0,1,.019.059.11.11,0,0,1,0,.029Z" transform="translate(-146.154 -151.479)" fill="#455a64"/>
        <path id="Path_2249" data-name="Path 2249" d="M170.121,174.471a.139.139,0,0,1-.035-.045l-.246-.519v1.337a.209.209,0,0,1-.019.088.16.16,0,0,1-.051.059l-.34.2a.04.04,0,0,1-.051,0,.083.083,0,0,1-.021-.064v-2.6a.214.214,0,0,1,.021-.088.12.12,0,0,1,.051-.062l.3-.174q.051-.027.08,0a.247.247,0,0,1,.032.043l.422.866.422-1.353a.662.662,0,0,1,.032-.083.179.179,0,0,1,.078-.088l.3-.174a.037.037,0,0,1,.051,0,.088.088,0,0,1,.021.064v2.588a.193.193,0,0,1-.021.086.153.153,0,0,1-.051.061l-.34.2a.04.04,0,0,1-.051,0,.088.088,0,0,1-.019-.064v-1.324l-.246.8a.274.274,0,0,1-.035.086.158.158,0,0,1-.061.07l-.166.1C170.156,174.484,170.134,174.487,170.121,174.471Z" transform="translate(-152.468 -145.452)" fill="#455a64"/>
        <path id="Path_2250" data-name="Path 2250" d="M177.409,171.685a.179.179,0,0,1,.021-.088.131.131,0,0,1,.048-.062l.329-.19a.037.037,0,0,1,.048,0,.088.088,0,0,1,.021.064v1.013a.444.444,0,0,0,.051.246c.032.051.086.053.163,0a.374.374,0,0,0,.163-.2.89.89,0,0,0,.048-.3v-.989a.208.208,0,0,1,.019-.088.142.142,0,0,1,.051-.059l.326-.19h.051a.088.088,0,0,1,.021.064v1.872a.214.214,0,0,1-.021.088.12.12,0,0,1-.051.061l-.3.174a.04.04,0,0,1-.051,0,.078.078,0,0,1-.021-.061v-.094a.846.846,0,0,1-.051.115.716.716,0,0,1-.072.12.827.827,0,0,1-.1.115.623.623,0,0,1-.139.1c-.168.1-.3.1-.4,0a.853.853,0,0,1-.15-.607Z" transform="translate(-158.36 -144.747)" fill="#455a64"/>
        <path id="Path_2251" data-name="Path 2251" d="M184.35,169.779c0-.029,0-.048-.019-.056s-.035,0-.067,0l-.123.04c-.051.019-.115.04-.193.062a.283.283,0,0,1-.3-.048.535.535,0,0,1-.107-.38.938.938,0,0,1,.043-.267,1.473,1.473,0,0,1,.123-.267,1.409,1.409,0,0,1,.193-.249,1.147,1.147,0,0,1,.249-.193.689.689,0,0,1,.251-.1.4.4,0,0,1,.2.016.241.241,0,0,1,.131.1.331.331,0,0,1,.053.171.206.206,0,0,1-.019.086.136.136,0,0,1-.051.061l-.31.179a.051.051,0,0,1-.045,0l-.04-.021a.142.142,0,0,0-.061,0,.28.28,0,0,0-.107.043.371.371,0,0,0-.1.083.168.168,0,0,0-.04.11.11.11,0,0,0,.013.061h.051a.682.682,0,0,0,.11-.035l.184-.061q.238-.075.345.048a.535.535,0,0,1,.107.364.955.955,0,0,1-.043.267,1.155,1.155,0,0,1-.131.281,1.373,1.373,0,0,1-.209.267,1.291,1.291,0,0,1-.267.211.7.7,0,0,1-.267.1.342.342,0,0,1-.2-.024.267.267,0,0,1-.123-.112.353.353,0,0,1-.048-.168.171.171,0,0,1,.019-.086.136.136,0,0,1,.051-.061l.324-.187h.04l.035.029a.12.12,0,0,0,.059.013.268.268,0,0,0,.118-.045.5.5,0,0,0,.136-.11A.2.2,0,0,0,184.35,169.779Z" transform="translate(-162.849 -142.899)" fill="#455a64"/>
        <path id="Path_2252" data-name="Path 2252" d="M189.776,163.195a.214.214,0,0,1-.021.088.123.123,0,0,1-.048.059l-.329.19a.038.038,0,0,1-.048,0,.078.078,0,0,1-.021-.064v-.414a.179.179,0,0,1,.021-.088.123.123,0,0,1,.048-.059l.329-.19a.037.037,0,0,1,.048,0,.088.088,0,0,1,.021.064Zm0,2.3a.214.214,0,0,1-.021.088.123.123,0,0,1-.048.059l-.329.19a.037.037,0,0,1-.048,0,.078.078,0,0,1-.021-.064V163.9a.179.179,0,0,1,.021-.088.131.131,0,0,1,.048-.061l.329-.187a.035.035,0,0,1,.048,0,.088.088,0,0,1,.021.064Z" transform="translate(-167.083 -138.789)" fill="#455a64"/>
        <path id="Path_2253" data-name="Path 2253" d="M192.563,164.3v.281a.267.267,0,0,0,.072.193c.04.035.1.032.166,0a.4.4,0,0,0,.131-.115.689.689,0,0,0,.075-.147.621.621,0,0,1,.029-.075.12.12,0,0,1,.045-.051l.34-.2a.04.04,0,0,1,.051,0,.078.078,0,0,1,.021.064,1.482,1.482,0,0,1-.035.209,1.636,1.636,0,0,1-.321.642,1.182,1.182,0,0,1-.337.286.639.639,0,0,1-.267.094.35.35,0,0,1-.222-.056.465.465,0,0,1-.15-.2.987.987,0,0,1-.061-.348v-.321a1.655,1.655,0,0,1,.061-.417,1.819,1.819,0,0,1,.15-.377,1.6,1.6,0,0,1,.222-.313,1.171,1.171,0,0,1,.267-.222.612.612,0,0,1,.337-.1.334.334,0,0,1,.211.091.439.439,0,0,1,.11.182.8.8,0,0,1,.035.168.179.179,0,0,1-.021.088.134.134,0,0,1-.051.062l-.34.2h-.045a.107.107,0,0,1-.029-.037.131.131,0,0,0-.075-.064.2.2,0,0,0-.131.037.415.415,0,0,0-.166.185A.666.666,0,0,0,192.563,164.3Z" transform="translate(-169.128 -139.091)" fill="#455a64"/>
        <path id="Path_2254" data-name="Path 2254" d="M124.178,219.386c.126-.072.225-.083.294-.032s.1.163.1.34a1,1,0,0,1-.1.465.749.749,0,0,1-.294.31l-.251.144v.535a.12.12,0,0,1,0,.053.088.088,0,0,1-.029.037l-.128.072a.019.019,0,0,1-.029,0,.048.048,0,0,1,0-.037v-1.556a.123.123,0,0,1,0-.053.088.088,0,0,1,.029-.037Zm-.251.925.243-.139a.406.406,0,0,0,.142-.136.417.417,0,0,0,.053-.219c0-.091-.019-.142-.053-.155a.16.16,0,0,0-.142.029l-.243.139Z" transform="translate(-119.044 -180.265)" fill="#455a64"/>
        <path id="Path_2255" data-name="Path 2255" d="M127.692,219.554a.136.136,0,0,1,0,.053.077.077,0,0,1-.029.035l-.12.07a.024.024,0,0,1-.029,0,.053.053,0,0,1-.013-.037v-1.58a.142.142,0,0,1,.013-.053.078.078,0,0,1,.029-.035l.12-.07a.024.024,0,0,1,.029,0,.053.053,0,0,1,0,.037Z" transform="translate(-121.802 -179.246)" fill="#455a64"/>
        <path id="Path_2256" data-name="Path 2256" d="M128.89,218.646a.534.534,0,0,1,.029-.126.57.57,0,0,1,.064-.144.656.656,0,0,1,.1-.142.58.58,0,0,1,.139-.115.409.409,0,0,1,.144-.051.152.152,0,0,1,.11.032.241.241,0,0,1,.072.118.716.716,0,0,1,.024.2v.7a.123.123,0,0,1-.013.053.088.088,0,0,1-.029.037l-.118.07a.024.024,0,0,1-.029,0,.056.056,0,0,1,0-.04v-.077a.8.8,0,0,1-.094.174.535.535,0,0,1-.158.139.287.287,0,0,1-.12.043.139.139,0,0,1-.088-.027.209.209,0,0,1-.056-.088.428.428,0,0,1-.019-.139.628.628,0,0,1,.075-.3.893.893,0,0,1,.206-.246l.267-.214c0-.064-.013-.1-.043-.115a.123.123,0,0,0-.1.019.2.2,0,0,0-.061.053.533.533,0,0,0-.04.07.2.2,0,0,1-.027.04.075.075,0,0,1-.027.024l-.144.083h-.027C128.916,218.672,128.89,218.662,128.89,218.646Zm.267.535a.323.323,0,0,0,.094-.078.456.456,0,0,0,.07-.1.548.548,0,0,0,.043-.11.533.533,0,0,0,.013-.107v-.024l-.211.179a.407.407,0,0,0-.094.1.2.2,0,0,0-.027.1c0,.032,0,.051.032.053a.128.128,0,0,0,.08-.029Z" transform="translate(-122.79 -179.346)" fill="#455a64"/>
        <path id="Path_2257" data-name="Path 2257" d="M132.355,217.069l-.308-.923a.035.035,0,0,1,0-.016.131.131,0,0,1,.013-.053.064.064,0,0,1,.029-.035l.118-.07a.035.035,0,0,1,.032,0,.069.069,0,0,1,.019.029l.209.623.206-.864a.071.071,0,0,1,.019-.048.1.1,0,0,1,.035-.04l.118-.067a.024.024,0,0,1,.029,0,.053.053,0,0,1,0,.037v.019l-.441,1.821a.149.149,0,0,1-.019.051.075.075,0,0,1-.032.037l-.118.067a.021.021,0,0,1-.029,0,.056.056,0,0,1,0-.04v-.019Z" transform="translate(-125.133 -177.539)" fill="#455a64"/>
        <path id="Path_2258" data-name="Path 2258" d="M135.952,214.764a.128.128,0,0,1,0,.053.077.077,0,0,1-.029.035l-.12.07a.024.024,0,0,1-.029,0,.053.053,0,0,1-.013-.037V213.3a.12.12,0,0,1,.013-.051.072.072,0,0,1,.029-.037l.12-.07a.024.024,0,0,1,.029,0,.053.053,0,0,1,0,.037Z" transform="translate(-127.853 -175.737)" fill="#455a64"/>
        <path id="Path_2259" data-name="Path 2259" d="M137.436,212.216a.024.024,0,0,1,.029,0,.053.053,0,0,1,.013.037v.19a.12.12,0,0,1-.013.051.072.072,0,0,1-.029.037l-.134.078a.024.024,0,0,1-.029,0,.053.053,0,0,1-.013-.037v-.187a.123.123,0,0,1,.013-.053.088.088,0,0,1,.029-.037Zm.035,1.623a.123.123,0,0,1-.013.053.072.072,0,0,1-.029.037l-.118.07a.024.024,0,0,1-.029,0,.056.056,0,0,1-.013-.04v-1.12a.131.131,0,0,1,.013-.053.078.078,0,0,1,.029-.035l.118-.069a.021.021,0,0,1,.029,0,.048.048,0,0,1,.013.037Z" transform="translate(-128.952 -175.056)" fill="#455a64"/>
        <path id="Path_2260" data-name="Path 2260" d="M139.228,213.33v-.037a.054.054,0,0,0-.037,0h-.075l-.115.029a.267.267,0,0,1-.112,0,.123.123,0,0,1-.075-.043.225.225,0,0,1-.037-.088.58.58,0,0,1,0-.126.675.675,0,0,1,.021-.155.693.693,0,0,1,.064-.16.886.886,0,0,1,.1-.147.609.609,0,0,1,.136-.112.393.393,0,0,1,.136-.051.187.187,0,0,1,.1,0,.142.142,0,0,1,.064.061.2.2,0,0,1,.027.1.1.1,0,0,1,0,.053.069.069,0,0,1-.032.035l-.12.07s-.027.013-.035,0l-.024-.016a.077.077,0,0,0-.037,0,.2.2,0,0,0-.072.027.41.41,0,0,0-.083.07.15.15,0,0,0-.035.1.075.075,0,0,0,0,.04.037.037,0,0,0,.032.013h.07l.11-.029a.2.2,0,0,1,.2.032.313.313,0,0,1,.056.209.535.535,0,0,1-.024.152.776.776,0,0,1-.067.163.742.742,0,0,1-.11.15.569.569,0,0,1-.147.118.385.385,0,0,1-.144.053.168.168,0,0,1-.107-.016.158.158,0,0,1-.07-.07.267.267,0,0,1-.024-.1.115.115,0,0,1,0-.051.094.094,0,0,1,.032-.037l.12-.07h.035l.027.021a.067.067,0,0,0,.04.016.2.2,0,0,0,.08-.029l.048-.032c.019-.013.032-.029.048-.043a.34.34,0,0,0,.035-.051.121.121,0,0,0,0-.043Z" transform="translate(-130.051 -175.218)" fill="#455a64"/>
        <path id="Path_2261" data-name="Path 2261" d="M141.988,210.621a.147.147,0,0,0,.027.1c.016.021.048.016.1,0l.094-.053a.021.021,0,0,1,.029,0,.048.048,0,0,1,0,.037v.158a.124.124,0,0,1,0,.053.088.088,0,0,1-.029.037l-.115.067c-.1.056-.174.062-.227.021a.39.39,0,0,1-.078-.291v-.516l-.1.059a.024.024,0,0,1-.029,0,.053.053,0,0,1,0-.037v-.16a.136.136,0,0,1,0-.053.078.078,0,0,1,.029-.035l.1-.059v-.4a.1.1,0,0,1,.013-.053.072.072,0,0,1,.029-.037l.118-.067a.021.021,0,0,1,.029,0,.048.048,0,0,1,0,.037v.393l.2-.118h.029a.053.053,0,0,1,.013.037v.16a.12.12,0,0,1-.013.051.061.061,0,0,1-.029.037l-.2.118Z" transform="translate(-132.166 -172.988)" fill="#455a64"/>
        <path id="Path_2262" data-name="Path 2262" d="M144.835,210.119a.062.062,0,0,0,0-.037.045.045,0,0,0-.04,0,.3.3,0,0,0-.072.013l-.115.027a.246.246,0,0,1-.115,0,.112.112,0,0,1-.072-.043.169.169,0,0,1-.037-.086.624.624,0,0,1,0-.128.553.553,0,0,1,.021-.155.8.8,0,0,1,.061-.16.881.881,0,0,1,.1-.144.535.535,0,0,1,.136-.112.387.387,0,0,1,.136-.053.176.176,0,0,1,.1,0,.15.15,0,0,1,.067.062.235.235,0,0,1,.027.1.129.129,0,0,1,0,.054.115.115,0,0,1-.032.037l-.12.07h-.062a.053.053,0,0,0-.037,0,.214.214,0,0,0-.07.029.267.267,0,0,0-.083.07.142.142,0,0,0-.035.1.075.075,0,0,0,0,.04.037.037,0,0,0,.032,0h.067l.112-.027c.094-.024.158-.013.2.029a.3.3,0,0,1,.059.209.561.561,0,0,1-.024.155.7.7,0,0,1-.07.16.729.729,0,0,1-.107.15.677.677,0,0,1-.147.118.353.353,0,0,1-.147.053.171.171,0,0,1-.107-.016.142.142,0,0,1-.067-.07.211.211,0,0,1-.024-.1.1.1,0,0,1,0-.053.088.088,0,0,1,.029-.037l.123-.07h.035l.027.024a.056.056,0,0,0,.04,0,.163.163,0,0,0,.08-.029l.048-.032a.348.348,0,0,0,.045-.043.182.182,0,0,0,.035-.048A.11.11,0,0,0,144.835,210.119Z" transform="translate(-134.158 -172.873)" fill="#455a64"/>
        <path id="Path_2263" data-name="Path 2263" d="M166.024,195.123a.032.032,0,0,1,.037,0,.136.136,0,0,1,.021.048l.382,1.3v.016a.13.13,0,0,1,0,.053.088.088,0,0,1-.029.037l-.112.064c-.021,0-.037.013-.045,0a.064.064,0,0,1-.016-.029l-.067-.23-.495.286-.067.3a.219.219,0,0,1-.016.051.107.107,0,0,1-.045.045l-.112.064a.019.019,0,0,1-.029,0,.086.086,0,0,1-.013-.056l.382-1.741a.32.32,0,0,1,.021-.075.078.078,0,0,1,.037-.04Zm.086,1.008-.174-.586-.171.783Z" transform="translate(-149.58 -162.533)" fill="#455a64"/>
        <path id="Path_2264" data-name="Path 2264" d="M170.259,194.824a.3.3,0,0,0-.136.142.564.564,0,0,0-.043.233v.626a.136.136,0,0,1,0,.053.078.078,0,0,1-.029.035l-.12.07a.024.024,0,0,1-.029,0,.054.054,0,0,1,0-.037v-1.123a.136.136,0,0,1,0-.053.078.078,0,0,1,.029-.035l.12-.07a.024.024,0,0,1,.029,0,.053.053,0,0,1,0,.037v.056a.831.831,0,0,1,.088-.139.457.457,0,0,1,.12-.1l.072-.04a.024.024,0,0,1,.029,0,.053.053,0,0,1,0,.037v.16a.115.115,0,0,1,0,.051.072.072,0,0,1-.029.037Z" transform="translate(-152.863 -162.059)" fill="#455a64"/>
        <path id="Path_2265" data-name="Path 2265" d="M172.358,193.127a.158.158,0,0,0,.027.1c.016.019.048.016.1,0l.094-.053a.024.024,0,0,1,.032,0,.048.048,0,0,1,0,.037v.158a.121.121,0,0,1,0,.053.091.091,0,0,1-.032.037l-.115.067c-.1.056-.174.064-.225.021a.386.386,0,0,1-.08-.291v-.516l-.1.059a.027.027,0,0,1-.032,0,.053.053,0,0,1,0-.037v-.16a.115.115,0,0,1,0-.051c0-.019.019-.032.032-.037l.1-.059v-.406a.131.131,0,0,1,.013-.053.078.078,0,0,1,.029-.035l.118-.07a.021.021,0,0,1,.029,0v.431l.2-.118a.024.024,0,0,1,.029,0,.054.054,0,0,1,0,.037v.16a.137.137,0,0,1,0,.053.078.078,0,0,1-.029.035l-.2.118Z" transform="translate(-154.416 -160.167)" fill="#455a64"/>
        <path id="Path_2266" data-name="Path 2266" d="M175.036,190.546a.024.024,0,0,1,.029,0,.054.054,0,0,1,0,.037v.19a.115.115,0,0,1,0,.051.072.072,0,0,1-.029.037l-.126.07a.024.024,0,0,1-.029,0,.053.053,0,0,1,0-.037v-.187a.12.12,0,0,1,0-.053.088.088,0,0,1,.029-.037Zm.032,1.623a.121.121,0,0,1,0,.053.088.088,0,0,1-.029.037l-.12.07a.024.024,0,0,1-.029,0,.056.056,0,0,1,0-.04v-1.12a.128.128,0,0,1,0-.053.078.078,0,0,1,.029-.035l.12-.07a.021.021,0,0,1,.029,0,.053.053,0,0,1,0,.037Z" transform="translate(-156.511 -159.18)" fill="#455a64"/>
        <path id="Path_2267" data-name="Path 2267" d="M176.716,191.733a.027.027,0,0,0-.04-.037l-.072.013-.115.029a.289.289,0,0,1-.115,0,.126.126,0,0,1-.072-.043.168.168,0,0,1-.037-.088.535.535,0,0,1,0-.267.686.686,0,0,1,.061-.16.9.9,0,0,1,.1-.147.692.692,0,0,1,.136-.112.375.375,0,0,1,.136-.051.177.177,0,0,1,.1,0,.137.137,0,0,1,.067.062.235.235,0,0,1,.027.1.1.1,0,0,1,0,.053.078.078,0,0,1-.029.035l-.12.07h-.035l-.027-.016a.07.07,0,0,0-.037,0,.193.193,0,0,0-.07.027.347.347,0,0,0-.083.07.153.153,0,0,0-.037.1.073.073,0,0,0,0,.04.037.037,0,0,0,.032,0h.067l.112-.029a.216.216,0,0,1,.2.032.313.313,0,0,1,.059.209.535.535,0,0,1-.024.152.666.666,0,0,1-.07.163.65.65,0,0,1-.11.15.606.606,0,0,1-.144.118.4.4,0,0,1-.147.053.171.171,0,0,1-.107-.016.153.153,0,0,1-.067-.07.23.23,0,0,1-.024-.1.088.088,0,0,1,0-.051.072.072,0,0,1,.029-.037l.12-.07h.037l.024.021a.069.069,0,0,0,.043.016.2.2,0,0,0,.08-.029l.048-.032.045-.043a.214.214,0,0,0,.035-.051A.093.093,0,0,0,176.716,191.733Z" transform="translate(-157.499 -159.415)" fill="#455a64"/>
        <path id="Path_2268" data-name="Path 2268" d="M179.508,189.013a.163.163,0,0,0,.027.1c.019.021.048.016.1,0l.1-.053a.021.021,0,0,1,.029,0,.048.048,0,0,1,0,.037v.158a.12.12,0,0,1,0,.053.088.088,0,0,1-.029.037l-.118.067c-.1.056-.171.061-.225.021a.38.38,0,0,1-.08-.291v-.516l-.1.059a.024.024,0,0,1-.029,0,.053.053,0,0,1-.013-.037v-.16a.142.142,0,0,1,.013-.053.077.077,0,0,1,.029-.035l.1-.059v-.393a.131.131,0,0,1,.013-.053.088.088,0,0,1,.029-.037l.12-.067a.021.021,0,0,1,.029,0,.048.048,0,0,1,0,.037v.393l.2-.118a.024.024,0,0,1,.029,0,.054.054,0,0,1,0,.037v.16a.143.143,0,0,1,0,.053.078.078,0,0,1-.029.035l-.2.118Z" transform="translate(-159.648 -157.163)" fill="#455a64"/>
        <path id="Path_2269" data-name="Path 2269" d="M182.375,188.413a.026.026,0,1,0-.037-.037.3.3,0,0,0-.072,0l-.118.027a.236.236,0,0,1-.112,0,.12.12,0,0,1-.075-.04.243.243,0,0,1-.037-.088.622.622,0,0,1,0-.128.674.674,0,0,1,.021-.155.8.8,0,0,1,.064-.16.743.743,0,0,1,.1-.144.489.489,0,0,1,.134-.112.417.417,0,0,1,.139-.053.179.179,0,0,1,.1,0,.142.142,0,0,1,.064.062.2.2,0,0,1,.027.1.1.1,0,0,1,0,.053.088.088,0,0,1-.029.037l-.12.07h-.037l-.024-.013a.056.056,0,0,0-.037,0,.161.161,0,0,0-.072.027.337.337,0,0,0-.083.07.142.142,0,0,0-.035.1.075.075,0,0,0,0,.04.038.038,0,0,0,.032.013h.07l.11-.027c.094-.024.16-.013.2.029a.313.313,0,0,1,.056.209.562.562,0,0,1-.024.155.683.683,0,0,1-.067.16.743.743,0,0,1-.11.15.57.57,0,0,1-.147.118.345.345,0,0,1-.144.053A.171.171,0,0,1,182,188.9a.131.131,0,0,1-.067-.07.249.249,0,0,1-.027-.1.1.1,0,0,1,0-.053.088.088,0,0,1,.029-.037l.12-.07h.035l.027.024a.067.067,0,0,0,.043.013.166.166,0,0,0,.078-.029.25.25,0,0,0,.048-.032.367.367,0,0,0,.048-.043l.035-.048a.13.13,0,0,0,0-.045Z" transform="translate(-161.66 -156.961)" fill="#455a64"/>
        <path id="Path_2270" data-name="Path 2270" d="M204.371,173h.037a.115.115,0,0,1,.024.048l.382,1.3v.013a.12.12,0,0,1,0,.053.088.088,0,0,1-.029.037l-.112.064c-.021.013-.037.013-.045,0a.064.064,0,0,1-.016-.029l-.067-.23-.495.286-.067.308a.289.289,0,0,1-.019.048.088.088,0,0,1-.043.045l-.112.064a.021.021,0,0,1-.029,0,.056.056,0,0,1,0-.04.034.034,0,0,1,0-.016l.382-1.743a.363.363,0,0,1,.021-.075.091.091,0,0,1,.037-.04Zm.086,1.005-.171-.586-.171.783Z" transform="translate(-177.682 -146.329)" fill="#455a64"/>
        <path id="Path_2271" data-name="Path 2271" d="M208.38,172.964a.128.128,0,0,1,0,.053.1.1,0,0,1-.029.035l-.12.07a.024.024,0,0,1-.029,0,.053.053,0,0,1,0-.037V171.5a.12.12,0,0,1,0-.051.072.072,0,0,1,.029-.037l.12-.07a.024.024,0,0,1,.029,0,.053.053,0,0,1,0,.037Z" transform="translate(-180.921 -145.114)" fill="#455a64"/>
        <path id="Path_2272" data-name="Path 2272" d="M210.164,170.677a.214.214,0,0,1,.142-.035.163.163,0,0,1,.107.062.371.371,0,0,1,.072.142.832.832,0,0,1,.029.2v.168a1.387,1.387,0,0,1-.029.23,1.2,1.2,0,0,1-.072.222.853.853,0,0,1-.107.187.454.454,0,0,1-.142.128.3.3,0,0,1-.086.035.192.192,0,0,1-.067,0,.1.1,0,0,1-.051-.019.168.168,0,0,1-.032-.027v.053a.123.123,0,0,1,0,.053.072.072,0,0,1-.029.037l-.118.07h-.029a.045.045,0,0,1-.013-.04v-1.588a.1.1,0,0,1,.013-.053.064.064,0,0,1,.029-.035l.118-.07a.021.021,0,0,1,.029,0,.053.053,0,0,1,0,.037v.513a.72.72,0,0,1,.032-.067.535.535,0,0,1,.051-.075.434.434,0,0,1,.067-.075A.42.42,0,0,1,210.164,170.677Zm.147.5a.229.229,0,0,0-.064-.187.11.11,0,0,0-.128,0,.358.358,0,0,0-.131.147.575.575,0,0,0-.059.233v.091a.885.885,0,0,0,0,.091.224.224,0,0,0,.059.166.112.112,0,0,0,.131,0,.342.342,0,0,0,.128-.144.672.672,0,0,0,.064-.267A1.169,1.169,0,0,0,210.311,171.175Z" transform="translate(-182.05 -144.416)" fill="#455a64"/>
        <path id="Path_2273" data-name="Path 2273" d="M213.243,169.37a.1.1,0,0,1,.013-.053.072.072,0,0,1,.029-.037l.118-.067a.021.021,0,0,1,.029,0,.062.062,0,0,1,0,.04v.61a.409.409,0,0,0,.04.209c.027.043.07.048.131,0a.294.294,0,0,0,.126-.158.7.7,0,0,0,.043-.267v-.591a.141.141,0,0,1,.013-.053.077.077,0,0,1,.029-.035l.12-.07a.024.024,0,0,1,.029,0,.054.054,0,0,1,0,.037v1.123a.137.137,0,0,1,0,.053.078.078,0,0,1-.029.035l-.12.07a.024.024,0,0,1-.029,0,.053.053,0,0,1-.013-.037v-.056a1.121,1.121,0,0,1-.088.152.414.414,0,0,1-.128.118.267.267,0,0,1-.158.045.147.147,0,0,1-.1-.064.366.366,0,0,1-.053-.15,1.213,1.213,0,0,1-.016-.206Z" transform="translate(-184.608 -143.319)" fill="#455a64"/>
        <path id="Path_2274" data-name="Path 2274" d="M217.215,166.729a.66.66,0,0,1,.091-.16.385.385,0,0,1,.11-.1.214.214,0,0,1,.163-.037.182.182,0,0,1,.1.094.919.919,0,0,1,.051-.118c.021-.035.04-.07.064-.1a.491.491,0,0,1,.07-.078.4.4,0,0,1,.07-.056.267.267,0,0,1,.15-.04.16.16,0,0,1,.1.07.377.377,0,0,1,.051.147,1.286,1.286,0,0,1,.013.209v.647a.128.128,0,0,1,0,.053.078.078,0,0,1-.029.035l-.12.07a.024.024,0,0,1-.029,0,.053.053,0,0,1,0-.037v-.639a.321.321,0,0,0-.04-.2q-.04-.043-.112,0a.294.294,0,0,0-.11.123.564.564,0,0,0-.045.249v.647a.12.12,0,0,1-.013.051.072.072,0,0,1-.029.037l-.118.07a.027.027,0,0,1-.032,0,.053.053,0,0,1,0-.037v-.636a.337.337,0,0,0-.04-.206c-.029-.027-.067-.027-.115,0a.267.267,0,0,0-.11.128.6.6,0,0,0-.045.254v.634a.123.123,0,0,1,0,.053.072.072,0,0,1-.029.037l-.118.067a.021.021,0,0,1-.029,0,.056.056,0,0,1-.013-.04v-1.12a.131.131,0,0,1,.013-.053.088.088,0,0,1,.029-.037l.118-.067a.021.021,0,0,1,.029,0,.048.048,0,0,1,0,.037Z" transform="translate(-187.414 -141.296)" fill="#455a64"/>
        <path id="Path_2275" data-name="Path 2275" d="M222.588,165.18a.062.062,0,0,0,0-.037.056.056,0,0,0-.04,0h-.072l-.115.029a.246.246,0,0,1-.115,0,.126.126,0,0,1-.072-.043.169.169,0,0,1-.037-.086.624.624,0,0,1,0-.128.553.553,0,0,1,.021-.155.8.8,0,0,1,.061-.16.879.879,0,0,1,.1-.144.535.535,0,0,1,.136-.112.388.388,0,0,1,.136-.053.177.177,0,0,1,.1,0,.137.137,0,0,1,.067.062.235.235,0,0,1,.027.1.1.1,0,0,1-.013.053.088.088,0,0,1-.029.037l-.12.069h-.035l-.027-.016a.07.07,0,0,0-.037,0,.166.166,0,0,0-.07.029.267.267,0,0,0-.083.069.139.139,0,0,0-.037.1.072.072,0,0,0,0,.04.037.037,0,0,0,.032.013h.067l.112-.027c.094-.024.158-.013.2.029a.313.313,0,0,1,.059.209.562.562,0,0,1-.024.155.7.7,0,0,1-.07.16.653.653,0,0,1-.11.15.607.607,0,0,1-.144.118.353.353,0,0,1-.147.053.171.171,0,0,1-.107-.016.152.152,0,0,1-.067-.07.222.222,0,0,1-.024-.1.089.089,0,0,1,0-.051.072.072,0,0,1,.029-.037l.12-.07h.037l.024.021a.07.07,0,0,0,.043.016.163.163,0,0,0,.08-.029l.048-.032a.345.345,0,0,0,.045-.043.215.215,0,0,0,.035-.051A.094.094,0,0,0,222.588,165.18Z" transform="translate(-191.111 -139.943)" fill="#455a64"/>
        <path id="Path_2276" data-name="Path 2276" d="M123.15,219.672l6.578-3.8v.382l-6.578,3.8Z" transform="translate(-118.615 -177.736)" fill="#8fb99e"/>
        <path id="Path_2277" data-name="Path 2277" d="M123.478,232.715l5.348-3.094c.176-.1.321-.019.321.184V236a.709.709,0,0,1-.321.554l-5.348,3.1c-.176.1-.318.019-.318-.185v-6.19A.706.706,0,0,1,123.478,232.715Z" transform="translate(-118.622 -187.779)" fill="#455a64"/>
        <path id="Path_2278" data-name="Path 2278" d="M153.595,217.883l8.936-5.161c.294-.168.535-.032.535.307v.227a1.174,1.174,0,0,1-.535.923l-8.936,5.158c-.294.171-.535.032-.535-.307v-.225A1.174,1.174,0,0,1,153.595,217.883Z" transform="translate(-140.527 -175.377)" fill="#455a64"/>
        <path id="Path_2279" data-name="Path 2279" d="M153.391,231.132l6.361-3.671c.176-.1.318-.019.318.184v.061a.711.711,0,0,1-.318.556l-6.361,3.671c-.176.1-.321.019-.321-.184v-.061A.714.714,0,0,1,153.391,231.132Z" transform="translate(-140.535 -186.196)" fill="#e0e0e0"/>
        <path id="Path_2280" data-name="Path 2280" d="M123.478,267.275l5.348-3.094c.176-.1.321-.019.321.185v6.19a.709.709,0,0,1-.321.554l-5.348,3.1c-.176.1-.318.019-.318-.185v-6.177A.706.706,0,0,1,123.478,267.275Z" transform="translate(-118.622 -213.098)" fill="#8fb99e"/>
        <path id="Path_2281" data-name="Path 2281" d="M127.984,272.7a.267.267,0,0,0-.131.23V276.1a.632.632,0,0,0-.2.075,1.337,1.337,0,0,0-.61,1.056c0,.4.267.548.61.35a1.337,1.337,0,0,0,.61-1.054v-2.941l2.1-1.211h0v2.276a.574.574,0,0,0-.2.075,1.337,1.337,0,0,0-.61,1.054c0,.4.267.551.61.353a1.337,1.337,0,0,0,.61-1.056h0v-3.824a.091.091,0,0,0-.136-.078Z" transform="translate(-121.465 -218.245)" fill="#37474f"/>
        <path id="Path_2282" data-name="Path 2282" d="M153.595,252.443l8.936-5.161c.294-.168.535-.032.535.308v.227a1.174,1.174,0,0,1-.535.923l-8.936,5.158c-.294.171-.535.032-.535-.308v-.225A1.174,1.174,0,0,1,153.595,252.443Z" transform="translate(-140.527 -200.696)" fill="#455a64"/>
        <path id="Path_2283" data-name="Path 2283" d="M153.391,265.692l6.361-3.671c.176-.1.318-.019.318.184v.062a.711.711,0,0,1-.318.556l-6.361,3.671c-.176.1-.321.019-.321-.185v-.048a.714.714,0,0,1,.321-.57Z" transform="translate(-140.535 -211.515)" fill="#e0e0e0"/>
        <path id="Path_2284" data-name="Path 2284" d="M123.478,301.807l5.348-3.1c.176-.1.321-.019.321.185v6.193a.709.709,0,0,1-.321.553l-5.348,3.094c-.176.1-.318.019-.318-.185v-6.19A.7.7,0,0,1,123.478,301.807Z" transform="translate(-118.622 -238.395)" fill="#8fb99e"/>
        <path id="Path_2285" data-name="Path 2285" d="M123.478,301.807l5.348-3.1c.176-.1.321-.019.321.185v6.193a.709.709,0,0,1-.321.553l-5.348,3.094c-.176.1-.318.019-.318-.185v-6.19A.7.7,0,0,1,123.478,301.807Z" transform="translate(-118.622 -238.395)" opacity="0.2"/>
        <path id="Path_2286" data-name="Path 2286" d="M127.984,307.2a.267.267,0,0,0-.131.23v3.174a.574.574,0,0,0-.2.075,1.337,1.337,0,0,0-.61,1.054c0,.4.267.551.61.353a1.337,1.337,0,0,0,.61-1.056v-2.941l2.1-1.211h0v2.275a.631.631,0,0,0-.2.075,1.337,1.337,0,0,0-.61,1.056c0,.4.267.551.61.35a1.337,1.337,0,0,0,.61-1.053h0v-3.834a.091.091,0,0,0-.136-.08Z" transform="translate(-121.465 -243.513)" fill="#ebebeb"/>
        <path id="Path_2287" data-name="Path 2287" d="M153.595,286.962l8.936-5.163c.294-.171.535-.032.535.307v.227a1.179,1.179,0,0,1-.535.925l-8.936,5.158c-.294.171-.535.032-.535-.308v-.227A1.179,1.179,0,0,1,153.595,286.962Z" transform="translate(-140.527 -225.983)" fill="#8fb99e"/>
        <path id="Path_2288" data-name="Path 2288" d="M153.391,300.225l6.361-3.674c.176-.1.318-.019.318.187v.062a.706.706,0,0,1-.318.553l-6.361,3.674c-.176.1-.321.019-.321-.185v-.064A.709.709,0,0,1,153.391,300.225Z" transform="translate(-140.535 -236.812)" fill="#455a64"/>
        <path id="Path_2289" data-name="Path 2289" d="M123.478,336.4l5.348-3.094c.176-.1.321-.019.321.185v6.19a.709.709,0,0,1-.321.553l-5.348,3.1c-.176.1-.318.019-.318-.184V336.94a.706.706,0,0,1,.318-.535Z" transform="translate(-118.622 -263.743)" fill="#8fb99e"/>
        <path id="Path_2290" data-name="Path 2290" d="M123.478,336.4l5.348-3.094c.176-.1.321-.019.321.185v6.19a.709.709,0,0,1-.321.553l-5.348,3.1c-.176.1-.318.019-.318-.184V336.94a.706.706,0,0,1,.318-.535Z" transform="translate(-118.622 -263.743)" opacity="0.35"/>
        <path id="Path_2291" data-name="Path 2291" d="M127.984,341.783a.267.267,0,0,0-.131.23v3.171a.631.631,0,0,0-.2.075,1.337,1.337,0,0,0-.61,1.056c0,.4.267.548.61.35a1.337,1.337,0,0,0,.61-1.056v-2.941l2.1-1.211h0v2.278a.575.575,0,0,0-.2.075,1.337,1.337,0,0,0-.61,1.053c0,.4.267.551.61.353a1.337,1.337,0,0,0,.61-1.07h0v-3.813a.091.091,0,0,0-.136-.078Z" transform="translate(-121.465 -268.854)" fill="#8fb99e"/>
        <path id="Path_2292" data-name="Path 2292" d="M153.595,321.523l8.936-5.161c.294-.168.535-.032.535.307v.227a1.174,1.174,0,0,1-.535.922l-8.936,5.158c-.294.171-.535.032-.535-.307v-.225A1.174,1.174,0,0,1,153.595,321.523Z" transform="translate(-140.527 -251.305)" fill="#455a64"/>
        <path id="Path_2293" data-name="Path 2293" d="M153.391,334.822l6.361-3.671c.176-.1.318-.019.318.185v.062a.711.711,0,0,1-.318.556l-6.361,3.671c-.176.1-.321.019-.321-.185v-.083A.714.714,0,0,1,153.391,334.822Z" transform="translate(-140.535 -262.16)" fill="#e0e0e0"/>
        <path id="Path_2294" data-name="Path 2294" d="M131.878,242.428a.185.185,0,0,0-.251-.067l-.957.551v-1.578a.185.185,0,1,0-.369,0v1.792l-1.142.658a.187.187,0,0,0-.067.254.185.185,0,0,0,.16.091.2.2,0,0,0,.094-.024l.955-.551v1.567a.184.184,0,1,0,.369,0v-1.792l1.142-.658A.187.187,0,0,0,131.878,242.428Z" transform="translate(-122.95 -196.257)" fill="#e0e0e0"/>
        <path id="Path_2295" data-name="Path 2295" d="M117.4,153.554v-.4a.267.267,0,0,1,.078-.2l.021-.013c.043-.024.075.027.075.115v.4a.267.267,0,0,1-.075.2h-.021C117.434,153.693,117.4,153.642,117.4,153.554Z" transform="translate(-114.401 -131.624)" fill="#455a64"/>
        <path id="Path_2296" data-name="Path 2296" d="M118.709,152.022v-.7a.267.267,0,0,1,.078-.2h.021c.043-.027.078.027.078.112v.7a.267.267,0,0,1-.078.2l-.021.013C118.744,152.153,118.709,152.11,118.709,152.022Z" transform="translate(-115.361 -130.296)" fill="#455a64"/>
        <path id="Path_2297" data-name="Path 2297" d="M120,150.437v-1a.267.267,0,0,1,.078-.2h.021c.043-.024.078.027.078.115v.989a.267.267,0,0,1-.078.2l-.021.013C120.039,150.576,120,150.525,120,150.437Z" transform="translate(-116.307 -128.914)" fill="#455a64"/>
        <path id="Path_2298" data-name="Path 2298" d="M121.329,147.731v-1.714a.267.267,0,0,1,.078-.2h.021c.043-.024.078.027.078.112v1.714a.267.267,0,0,1-.078.2h-.021C121.364,147.867,121.329,147.816,121.329,147.731Z" transform="translate(-117.281 -126.408)" fill="#455a64"/>
        <path id="Path_2299" data-name="Path 2299" d="M123.722,147.16v-.3l-.393.227c-.021.013-.032,0-.032-.035v-.091a.246.246,0,0,1,0-.048v-.048l.417-1.142a.385.385,0,0,1,.021-.045.081.081,0,0,1,.027-.024l.056-.032h.035a.083.083,0,0,1,0,.053v.88l.088-.051h.035a.136.136,0,0,1,0,.056v.059a.208.208,0,0,1,0,.064.077.077,0,0,1-.035.037l-.088.051v.251a.147.147,0,0,1,0,.064.115.115,0,0,1-.035.037l-.067.037C123.751,147.168,123.727,147.168,123.722,147.16Zm0-.535V146l-.283.8Z" transform="translate(-118.722 -126.271)" fill="#455a64"/>
        <path id="Path_2300" data-name="Path 2300" d="M126.3,145.38a.848.848,0,0,1-.115-.513,1.626,1.626,0,0,1,.118-.647.775.775,0,0,1,.324-.393.479.479,0,0,1,.158-.059.166.166,0,0,1,.123.019v.021a.177.177,0,0,1,0,.029l-.035.131a.072.072,0,0,1-.016.029h-.016a.219.219,0,0,0-.2.032.535.535,0,0,0-.222.267,1.233,1.233,0,0,0-.08.479.639.639,0,0,0,.078.385c.051.064.123.072.214.019a.489.489,0,0,0,.1-.07.449.449,0,0,0,.078-.086v-.4l-.163.1h-.035a.083.083,0,0,1,0-.053v-.059a.147.147,0,0,1,0-.064.091.091,0,0,1,.035-.037l.267-.15h.037a.115.115,0,0,1,.013.064v.583a.268.268,0,0,1,0,.053.088.088,0,0,1-.016.037.834.834,0,0,1-.31.307C126.492,145.474,126.382,145.471,126.3,145.38Z" transform="translate(-120.839 -124.91)" fill="#455a64"/>
        <path id="Path_2301" data-name="Path 2301" d="M225.284,86.176c-.051-.072-.112-.094-.176-.056l-1.337.767a.666.666,0,0,0-.206.535v.995a.567.567,0,0,0,.078.316.163.163,0,0,0,.072.064.1.1,0,0,0,.1,0l1.337-.765a.677.677,0,0,0,.206-.535V86.492A.575.575,0,0,0,225.284,86.176ZM223.7,88.6a.267.267,0,0,1-.029-.144v-.995a.535.535,0,0,1,.158-.406l1.337-.767a.072.072,0,0,1,.056,0,.086.086,0,0,1,.024.021.281.281,0,0,1,.027.144v.992a.535.535,0,0,1-.155.412l-1.337.765a.056.056,0,0,1-.083-.021Z" transform="translate(-192.178 -82.667)" fill="#455a64"/>
        <path id="Path_2302" data-name="Path 2302" d="M225.179,88.81v1.174l-.717.414a.048.048,0,0,1-.024,0,.157.157,0,0,0,0-.037v-.888a.4.4,0,0,1,.118-.3Z" transform="translate(-192.82 -84.651)" fill="#455a64"/>
        <path id="Path_2303" data-name="Path 2303" d="M230.271,87.439c.051-.029.091.112.091.316v.185a.752.752,0,0,1-.091.431l-.091.062V87.49Z" transform="translate(-197.026 -83.644)" fill="#455a64"/>
        <path id="Path_2304" data-name="Path 2304" d="M133.8,143.807a.6.6,0,0,1-.227.481c-.128.072-.23-.024-.23-.219a.6.6,0,0,1,.23-.484C133.7,143.513,133.8,143.612,133.8,143.807Z" transform="translate(-126.08 -124.763)" fill="#455a64"/>
        <path id="Path_2305" data-name="Path 2305" d="M132.711,141.336a1.382,1.382,0,0,0-.535.8.171.171,0,0,0,.024.16h0c.043.027.107-.029.134-.118a.941.941,0,0,1,.374-.562.241.241,0,0,1,.372.131c.027.059.091.043.134-.035h0a.227.227,0,0,0,.024-.187.345.345,0,0,0-.527-.193Z" transform="translate(-125.221 -123.088)" fill="#455a64"/>
        <path id="Path_2306" data-name="Path 2306" d="M131.959,139.086a2.139,2.139,0,0,0-.8,1.16c-.027.075-.019.15.019.174h0c.043.027.1-.024.131-.11a1.73,1.73,0,0,1,.666-.949.439.439,0,0,1,.663.182c.029.051.091.035.131-.04h0a.222.222,0,0,0,.019-.2.535.535,0,0,0-.826-.219Z" transform="translate(-124.469 -121.4)" fill="#455a64"/>
        <path id="Path_2307" data-name="Path 2307" d="M168.315,123.011a.139.139,0,0,1,0,.056.112.112,0,0,1-.032.037l-.064.037a.027.027,0,0,1-.032,0,.056.056,0,0,1,0-.04v-1.356l-.267.452a.083.083,0,0,1-.032.035.029.029,0,0,1-.029,0l-.037-.053a.078.078,0,0,1,0-.045.128.128,0,0,1,.019-.053l.342-.6a.11.11,0,0,1,.024-.032l.027-.016.064-.037a.024.024,0,0,1,.032,0,.056.056,0,0,1,0,.04Z" transform="translate(-151.339 -108.517)" fill="#455a64"/>
        <path id="Path_2308" data-name="Path 2308" d="M170.682,122.546a.024.024,0,0,1,.029,0,.056.056,0,0,1,0,.04v.166a.128.128,0,0,1,0,.053.088.088,0,0,1-.029.037l-.11.062a.021.021,0,0,1-.029,0,.056.056,0,0,1-.013-.04V122.7a.145.145,0,0,1,.013-.056.078.078,0,0,1,.029-.035Zm0,.861a.024.024,0,0,1,.029,0,.056.056,0,0,1,0,.04v.166a.128.128,0,0,1,0,.053.088.088,0,0,1-.029.037l-.11.061a.021.021,0,0,1-.029,0,.056.056,0,0,1-.013-.04v-.163a.145.145,0,0,1,.013-.056.078.078,0,0,1,.029-.035Z" transform="translate(-153.326 -109.363)" fill="#455a64"/>
        <path id="Path_2309" data-name="Path 2309" d="M172.437,120.371a.024.024,0,0,1-.029,0,.056.056,0,0,1,0-.04v-.337l-.505.286a.027.027,0,0,1-.032,0,.056.056,0,0,1,0-.04v-.088a.132.132,0,0,1,0-.043.176.176,0,0,1,.016-.053l.505-1.31a.3.3,0,0,1,.027-.059.107.107,0,0,1,.035-.035l.064-.037a.021.021,0,0,1,.029,0,.043.043,0,0,1,.013.037v1.029l.136-.08a.027.027,0,0,1,.032,0,.056.056,0,0,1,.013.04v.088a.131.131,0,0,1-.013.053c0,.019-.019.032-.032.037l-.136.08v.337a.11.11,0,0,1-.013.056.088.088,0,0,1-.029.037Zm-.043-.6v-.7l-.345.9Z" transform="translate(-154.305 -106.481)" fill="#455a64"/>
        <path id="Path_2310" data-name="Path 2310" d="M175.641,117.944a.312.312,0,0,0,.024.064.088.088,0,0,0,.043.045.131.131,0,0,0,.075,0,.332.332,0,0,0,.123-.051.462.462,0,0,0,.094-.072.536.536,0,0,0,.08-.1.589.589,0,0,0,.051-.126.555.555,0,0,0,.016-.144.353.353,0,0,0-.019-.12.11.11,0,0,0-.051-.062.118.118,0,0,0-.08,0,.286.286,0,0,0-.1.04l-.134.078a.024.024,0,0,1-.029,0,.056.056,0,0,1-.013-.04v-.088a.135.135,0,0,1,0-.045l.019-.043.286-.644-.46.267a.024.024,0,0,1-.029,0,.056.056,0,0,1-.013-.04v-.1a.123.123,0,0,1,.013-.053.072.072,0,0,1,.029-.037l.631-.364h.029a.056.056,0,0,1,0,.04v.088a.147.147,0,0,1,0,.045.443.443,0,0,1-.021.053l-.283.634a.318.318,0,0,1,.147-.045.15.15,0,0,1,.112.035.246.246,0,0,1,.075.115.65.65,0,0,1,.024.193.933.933,0,0,1-.029.243,1.107,1.107,0,0,1-.086.217.917.917,0,0,1-.126.176.655.655,0,0,1-.155.126.468.468,0,0,1-.185.07.182.182,0,0,1-.128-.029.177.177,0,0,1-.075-.094.479.479,0,0,1-.027-.144.094.094,0,0,1,0-.045.031.031,0,0,1,.024-.029l.075-.043a.019.019,0,0,1,.027,0,.051.051,0,0,1,.043.04Z" transform="translate(-156.945 -104.79)" fill="#455a64"/>
      </g>
    </g>
    <g id="freepik--black-screen--inject-100" transform="translate(38.603 19.937)">
      <g id="freepik--playlist-window--inject-100">
        <g id="freepik--instagram-window--inject-100">
          <g id="freepik--dark-window--inject-100-2" data-name="freepik--dark-window--inject-100">
            <path id="Path_2311" data-name="Path 2311" d="M164.092,240.608V194.726h0V178.514a2.588,2.588,0,0,1,.382-1.273l-1.634-.941a2.639,2.639,0,0,0-.39,1.283v4.171h0v57.93a.9.9,0,0,0,.492.783l1.572.909A.89.89,0,0,1,164.092,240.608Z" transform="translate(-162.45 -157.444)" fill="#37474f" opacity="0.9"/>
            <path id="Path_2312" data-name="Path 2312" d="M202.053,110.028a.829.829,0,0,0-.021-.118.027.027,0,0,0,0-.024.383.383,0,0,0-.029-.115.6.6,0,0,0-.075-.163.193.193,0,0,0-.043-.067.23.23,0,0,0-.037-.048.42.42,0,0,0-.086-.083h0a.452.452,0,0,0-.11-.064.931.931,0,0,0-.864.11L169.862,127.2a2.842,2.842,0,0,0-1.283,2.222v62.094a.853.853,0,0,0,1.278.77h0l2.1-1.214h0l28.825-16.552a2.834,2.834,0,0,0,1.286-2.222V110.188C202.061,110.135,202.056,110.079,202.053,110.028Z" transform="translate(-166.939 -108.349)" fill="#455a64" opacity="0.8"/>
            <g id="Group_456" data-name="Group 456" transform="translate(0.393)" opacity="0.5">
              <path id="Path_2313" data-name="Path 2313" d="M197.365,106.879l-30.91,17.749a2.629,2.629,0,0,0-.9.952l-1.631-.944a2.554,2.554,0,0,1,.893-.936l30.913-17.749a.9.9,0,0,1,.933-.075c.23.139,1.294.746,1.564.89A.922.922,0,0,0,197.365,106.879Z" transform="translate(-163.92 -105.78)" fill="#37474f"/>
            </g>
          </g>
        </g>
        <path id="Path_2314" data-name="Path 2314" d="M209.808,163.492l12.731-7.34c.353-.2.642-.037.642.372v14.688a1.417,1.417,0,0,1-.639,1.11l-12.72,7.345c-.356.2-.642.037-.642-.372V164.6A1.417,1.417,0,0,1,209.808,163.492Z" transform="translate(-196.685 -142.62)" fill="#8fb99e"/>
        <path id="Path_2315" data-name="Path 2315" d="M209.808,163.492l12.731-7.34c.353-.2.642-.037.642.372v14.688a1.417,1.417,0,0,1-.639,1.11l-12.72,7.345c-.356.2-.642.037-.642-.372V164.6A1.417,1.417,0,0,1,209.808,163.492Z" transform="translate(-196.685 -142.62)" opacity="0.2"/>
        <path id="Path_2316" data-name="Path 2316" d="M220.3,176.512a.612.612,0,0,0-.307.535v7.321a1.366,1.366,0,0,0-.471.171,3.1,3.1,0,0,0-1.4,2.436c0,.914.612,1.267,1.4.8a3.107,3.107,0,0,0,1.406-2.436v-6.773l4.858-2.794h0v5.252a1.367,1.367,0,0,0-.471.171,3.1,3.1,0,0,0-1.4,2.436c0,.914.612,1.267,1.4.8A3.1,3.1,0,0,0,226.725,182h0v-8.827a.209.209,0,0,0-.313-.182Z" transform="translate(-203.234 -155.001)" fill="#f5f5f5"/>
        <path id="Path_2317" data-name="Path 2317" d="M183.146,268.35c.976-.535,1.719-.021,1.658,1.147a4.147,4.147,0,0,1-1.872,3.091c-.971.537-1.719.021-1.66-1.147A4.119,4.119,0,0,1,183.146,268.35Z" transform="translate(-176.236 -224.725)" fill="#8fb99e"/>
        <path id="Path_2318" data-name="Path 2318" d="M186.555,271.771c.251-.144.457-.027.457.267a1.006,1.006,0,0,1-.457.789c-.251.147-.455.029-.455-.267A1,1,0,0,1,186.555,271.771Z" transform="translate(-179.776 -227.342)" fill="#fafafa"/>
        <path id="Path_2319" data-name="Path 2319" d="M186.325,276.653c0-.479-.334-.69-.749-.452l-.267.15a1.65,1.65,0,0,0-.749,1.3v.128s.176.361.877-.053a1.96,1.96,0,0,0,.877-.96Z" transform="translate(-178.648 -230.56)" fill="#fafafa"/>
        <path id="Path_2320" data-name="Path 2320" d="M198.92,252.49c0,.337.238.473.535.3l8.18-4.722a1.168,1.168,0,0,0,.535-.917c0-.337-.238-.471-.535-.3l-8.18,4.722A1.174,1.174,0,0,0,198.92,252.49Z" transform="translate(-189.168 -209.076)" fill="#8fb99e"/>
        <path id="Path_2321" data-name="Path 2321" d="M198.92,266.795c0,.155.11.217.246.139l3.786-2.174a.535.535,0,0,0,.246-.422c0-.155-.11-.217-.246-.139l-3.773,2.179A.535.535,0,0,0,198.92,266.795Z" transform="translate(-189.168 -221.814)" fill="#e0e0e0"/>
        <path id="Path_2322" data-name="Path 2322" d="M267.037,219.2c.861-.471,1.516-.019,1.463,1.013a3.652,3.652,0,0,1-1.655,2.722c-.853.471-1.516.021-1.463-1.011A3.639,3.639,0,0,1,267.037,219.2Z" transform="translate(-237.856 -188.736)" fill="#8fb99e"/>
        <path id="Path_2323" data-name="Path 2323" d="M269.26,224.713v1.374c0,.1.056.123.123.045l1.267-1.465c.067-.078.04-.139-.064-.139h-1.128a.184.184,0,0,0-.2.184Z" transform="translate(-240.7 -192.776)" fill="#fff"/>
        <path id="Path_2324" data-name="Path 2324" d="M180.31,259.79l24.867-14.359c.588-.34,1.07-.064,1.07.615V248.2a2.356,2.356,0,0,1-1.07,1.845L180.31,264.408c-.588.342-1.07.064-1.07-.615v-2.155A2.358,2.358,0,0,1,180.31,259.79Z" transform="translate(-174.75 -207.984)" fill="#455a64"/>
        <path id="Path_2325" data-name="Path 2325" d="M183.32,301.431v1.808c0,.134.1.19.214.123l1.564-.9a.479.479,0,0,0,.214-.369v-1.808c0-.136-.1-.193-.214-.123l-1.564.9a.471.471,0,0,0-.214.369Z" transform="translate(-177.74 -248.161)" fill="#8fb99e"/>
        <path id="Path_2326" data-name="Path 2326" d="M183.32,301.431v1.808c0,.134.1.19.214.123l1.564-.9a.479.479,0,0,0,.214-.369v-1.808c0-.136-.1-.193-.214-.123l-1.564.9a.471.471,0,0,0-.214.369Z" transform="translate(-177.74 -248.161)" opacity="0.35"/>
        <path id="Path_2327" data-name="Path 2327" d="M195,285.742c0,.3.211.417.468.267l7.22-4.163a1.029,1.029,0,0,0,.468-.8c0-.3-.211-.414-.468-.267l-7.22,4.163A1.038,1.038,0,0,0,195,285.742Z" transform="translate(-186.296 -233.938)" fill="#e0e0e0"/>
        <path id="Path_2328" data-name="Path 2328" d="M195,298.353c0,.136.1.193.217.123l3.337-1.915a.473.473,0,0,0,.217-.372c0-.139-.1-.193-.217-.123l-3.326,1.92a.473.473,0,0,0-.227.366Z" transform="translate(-186.296 -245.164)" fill="#37474f"/>
        <path id="Path_2329" data-name="Path 2329" d="M264.867,259.512c.142-.083.254-.016.254.147a.562.562,0,0,1-.254.444c-.142.083-.267.016-.267-.147A.564.564,0,0,1,264.867,259.512Z" transform="translate(-237.286 -218.38)" fill="#e0e0e0"/>
        <path id="Path_2330" data-name="Path 2330" d="M268.607,257.352c.142-.083.267-.016.267.147a.562.562,0,0,1-.267.444c-.142.083-.267.016-.267-.147a.57.57,0,0,1,.267-.444Z" transform="translate(-240.026 -216.797)" fill="#e0e0e0"/>
        <path id="Path_2331" data-name="Path 2331" d="M272.347,255.192c.142-.083.254-.016.254.147a.562.562,0,0,1-.254.444c-.142.083-.267.016-.267-.147A.569.569,0,0,1,272.347,255.192Z" transform="translate(-242.766 -215.215)" fill="#e0e0e0"/>
        <path id="Path_2332" data-name="Path 2332" d="M180.31,315.931l24.867-14.359c.588-.34,1.07-.064,1.07.618v2.155a2.358,2.358,0,0,1-1.07,1.848L180.31,320.551c-.588.34-1.07.064-1.07-.615v-2.158A2.366,2.366,0,0,1,180.31,315.931Z" transform="translate(-174.75 -249.112)" fill="#455a64"/>
        <path id="Path_2333" data-name="Path 2333" d="M183.32,357.161v1.8c0,.136.1.193.214.123l1.564-.9a.479.479,0,0,0,.214-.372v-1.8c0-.136-.1-.193-.214-.123l-1.564.9A.479.479,0,0,0,183.32,357.161Z" transform="translate(-177.74 -288.99)" fill="#8fb99e"/>
        <path id="Path_2334" data-name="Path 2334" d="M183.32,357.161v1.8c0,.136.1.193.214.123l1.564-.9a.479.479,0,0,0,.214-.372v-1.8c0-.136-.1-.193-.214-.123l-1.564.9A.479.479,0,0,0,183.32,357.161Z" transform="translate(-177.74 -288.99)" opacity="0.2"/>
        <path id="Path_2335" data-name="Path 2335" d="M195,341.519c0,.3.211.417.468.267l7.22-4.163a1.029,1.029,0,0,0,.468-.8c0-.3-.211-.417-.468-.267l-7.22,4.163a1.037,1.037,0,0,0-.468.8Z" transform="translate(-186.296 -274.8)" fill="#e0e0e0"/>
        <path id="Path_2336" data-name="Path 2336" d="M195,354.116c0,.136.1.193.217.123l3.326-1.92a.473.473,0,0,0,.217-.372c0-.139-.1-.193-.217-.126l-3.326,1.923A.473.473,0,0,0,195,354.116Z" transform="translate(-186.296 -286.011)" fill="#37474f"/>
        <path id="Path_2337" data-name="Path 2337" d="M264.867,315.292c.142-.083.254-.016.254.147a.562.562,0,0,1-.254.444c-.142.083-.267.016-.267-.147A.564.564,0,0,1,264.867,315.292Z" transform="translate(-237.286 -259.245)" fill="#e0e0e0"/>
        <path id="Path_2338" data-name="Path 2338" d="M268.607,313.132c.142-.083.267-.016.267.147a.562.562,0,0,1-.267.444c-.142.083-.267.016-.267-.147A.564.564,0,0,1,268.607,313.132Z" transform="translate(-240.026 -257.662)" fill="#e0e0e0"/>
        <path id="Path_2339" data-name="Path 2339" d="M272.347,310.972c.142-.083.254-.016.254.147a.561.561,0,0,1-.254.444c-.142.083-.267.016-.267-.147a.57.57,0,0,1,.267-.444Z" transform="translate(-242.766 -256.08)" fill="#e0e0e0"/>
        <path id="Path_2340" data-name="Path 2340" d="M180.31,344.01l24.867-14.359c.588-.34,1.07-.064,1.07.615v2.158a2.356,2.356,0,0,1-1.07,1.845L180.31,348.628c-.588.34-1.07.064-1.07-.615v-2.158A2.356,2.356,0,0,1,180.31,344.01Z" transform="translate(-174.75 -269.684)" fill="#455a64"/>
        <path id="Path_2341" data-name="Path 2341" d="M183.32,385.434v1.808c0,.136.1.193.214.123l1.564-.9a.471.471,0,0,0,.214-.369v-1.808c0-.136-.1-.19-.214-.123l-1.564.9A.473.473,0,0,0,183.32,385.434Z" transform="translate(-177.74 -309.704)" fill="#8fb99e"/>
        <path id="Path_2342" data-name="Path 2342" d="M183.32,385.434v1.808c0,.136.1.193.214.123l1.564-.9a.471.471,0,0,0,.214-.369v-1.808c0-.136-.1-.19-.214-.123l-1.564.9A.473.473,0,0,0,183.32,385.434Z" transform="translate(-177.74 -309.704)" fill="#fff" opacity="0.5"/>
        <path id="Path_2343" data-name="Path 2343" d="M195,369.809c0,.3.211.414.468.267l7.22-4.163a1.029,1.029,0,0,0,.468-.8c0-.3-.211-.417-.468-.267l-7.22,4.163A1.038,1.038,0,0,0,195,369.809Z" transform="translate(-186.296 -295.525)" fill="#e0e0e0"/>
        <path id="Path_2344" data-name="Path 2344" d="M195,382.4c0,.136.1.193.217.123l3.326-1.92a.479.479,0,0,0,.217-.374c0-.136-.1-.193-.217-.123l-3.326,1.92A.478.478,0,0,0,195,382.4Z" transform="translate(-186.296 -306.733)" fill="#37474f"/>
        <path id="Path_2345" data-name="Path 2345" d="M264.867,343.577c.142-.08.254-.013.254.15a.567.567,0,0,1-.254.444c-.142.08-.267.016-.267-.15A.57.57,0,0,1,264.867,343.577Z" transform="translate(-237.286 -279.967)" fill="#e0e0e0"/>
        <path id="Path_2346" data-name="Path 2346" d="M268.607,341.422c.142-.083.267-.016.267.147a.567.567,0,0,1-.267.444c-.142.08-.267.016-.267-.147a.562.562,0,0,1,.267-.444Z" transform="translate(-240.026 -278.388)" fill="#e0e0e0"/>
        <path id="Path_2347" data-name="Path 2347" d="M272.347,339.262c.142-.083.254-.016.254.147a.567.567,0,0,1-.254.444c-.142.08-.267.016-.267-.147A.562.562,0,0,1,272.347,339.262Z" transform="translate(-242.766 -276.805)" fill="#e0e0e0"/>
        <path id="Path_2348" data-name="Path 2348" d="M207.263,274.772a.743.743,0,0,0-.316-.69l-1-.578a.751.751,0,0,0-.751.075l-24.867,14.359a2.358,2.358,0,0,0-1.07,1.848v2.155a.757.757,0,0,0,.31.69l1,.578a.749.749,0,0,0,.754-.072l24.867-14.359a2.361,2.361,0,0,0,1.07-1.848Z" transform="translate(-174.762 -228.607)" fill="#8fb99e"/>
        <g id="Group_457" data-name="Group 457" transform="translate(4.494 44.83)" opacity="0.2">
          <path id="Path_2349" data-name="Path 2349" d="M207.263,274.772a.743.743,0,0,0-.316-.69l-1-.578a.751.751,0,0,0-.751.075l-24.867,14.359a2.358,2.358,0,0,0-1.07,1.848v2.155a.757.757,0,0,0,.31.69l1,.578a.749.749,0,0,0,.754-.072l24.867-14.359a2.361,2.361,0,0,0,1.07-1.848Z" transform="translate(-179.256 -273.438)"/>
        </g>
        <path id="Path_2350" data-name="Path 2350" d="M180.248,332.22v2.155a.759.759,0,0,0,.294.679l-.984-.567a.749.749,0,0,1-.31-.69V331.64a2.155,2.155,0,0,1,.324-1.07l1,.575a2.165,2.165,0,0,0-.324,1.075Z" transform="translate(-174.753 -270.463)" fill="#8fb99e"/>
        <g id="Group_458" data-name="Group 458" transform="translate(4.491 60.107)" opacity="0.35">
          <path id="Path_2351" data-name="Path 2351" d="M180.248,332.22v2.155a.759.759,0,0,0,.294.679l-.984-.567a.749.749,0,0,1-.31-.69V331.64a2.155,2.155,0,0,1,.324-1.07l1,.575a2.165,2.165,0,0,0-.324,1.075Z" transform="translate(-179.244 -330.57)"/>
        </g>
        <path id="Path_2352" data-name="Path 2352" d="M184.07,290.09l24.867-14.359c.588-.34,1.07-.064,1.07.615V278.5a2.361,2.361,0,0,1-1.07,1.848L184.07,294.711c-.588.34-1.07.064-1.07-.618v-2.155A2.358,2.358,0,0,1,184.07,290.09Z" transform="translate(-177.505 -230.182)" fill="#455a64"/>
        <path id="Path_2353" data-name="Path 2353" d="M188.62,330.575v1.808c0,.136.1.193.214.123l1.564-.9a.471.471,0,0,0,.214-.369v-1.808c0-.134-.1-.19-.214-.123l-1.564.9A.479.479,0,0,0,188.62,330.575Z" transform="translate(-181.622 -269.514)" fill="#8fb99e"/>
        <path id="Path_2354" data-name="Path 2354" d="M190.9,333.938v.952c0,.07.037.083.086.029l.877-1.011c.045-.053.027-.1-.045-.1h-.8A.131.131,0,0,0,190.9,333.938Z" transform="translate(-183.293 -272.837)" fill="#fff"/>
        <path id="Path_2355" data-name="Path 2355" d="M200.34,314.939c0,.3.209.417.468.267l7.22-4.163a1.037,1.037,0,0,0,.468-.8c0-.3-.211-.417-.468-.267l-7.22,4.163A1.029,1.029,0,0,0,200.34,314.939Z" transform="translate(-190.209 -255.327)" fill="#8fb99e"/>
        <path id="Path_2356" data-name="Path 2356" d="M200.34,327.536c0,.136.1.193.217.123l3.326-1.92a.476.476,0,0,0,.217-.374c0-.136-.1-.19-.217-.123l-3.326,1.923A.471.471,0,0,0,200.34,327.536Z" transform="translate(-190.209 -266.538)" fill="#37474f"/>
        <path id="Path_2357" data-name="Path 2357" d="M270.194,288.712c.142-.083.267-.016.267.147a.57.57,0,0,1-.267.444c-.142.083-.254.016-.254-.147a.562.562,0,0,1,.254-.444Z" transform="translate(-241.198 -239.772)" fill="#e0e0e0"/>
        <path id="Path_2358" data-name="Path 2358" d="M273.934,286.552c.142-.083.267-.016.267.147a.57.57,0,0,1-.267.444c-.139.083-.254.016-.254-.147A.569.569,0,0,1,273.934,286.552Z" transform="translate(-243.938 -238.189)" fill="#e0e0e0"/>
        <path id="Path_2359" data-name="Path 2359" d="M277.674,284.392c.142-.083.267-.016.267.147a.564.564,0,0,1-.267.444c-.139.083-.254.016-.254-.147A.57.57,0,0,1,277.674,284.392Z" transform="translate(-246.678 -236.607)" fill="#e0e0e0"/>
      </g>
    </g>
    <g id="freepik--Character--inject-100" transform="translate(70.852 51.577)">
      <g id="freepik--character--inject-100-2" data-name="freepik--character--inject-100">
        <path id="freepik--shadow--inject-100-2" data-name="freepik--shadow--inject-100" d="M283.491,288.836c-.118,1.944-.2,4.177-.34,6.712-.056,1.019-.34,2.225.46,2.858,1.091.866,2.941-.187,4.011.7a3.369,3.369,0,0,1,.821,1.535,10.607,10.607,0,0,0,5.615,5.551,42.571,42.571,0,0,0,7.741,2.366,12.248,12.248,0,0,1,3.171,1.158,41.607,41.607,0,0,1,3.548,2.869c1.658,1.233,3.639,1.9,5.4,2.941.329.2.583.487.912.666.436.238.917.4,1.353.639a10.332,10.332,0,0,1,2.42,1.872,6.883,6.883,0,0,0,.9.866,2.626,2.626,0,0,0,1.409.5,1.771,1.771,0,0,0,1.46-3.1,8.4,8.4,0,0,0-1.508-.957,9.223,9.223,0,0,0-1.455-.821,14.655,14.655,0,0,1-3.519-2.171,38.6,38.6,0,0,1-3.035-3.209,30.511,30.511,0,0,0-5.824-4.971,4.305,4.305,0,0,1,3.129.909,18.7,18.7,0,0,0,2.781,1.842c1.254.551,2.369.663,3.452,1.567.345.289.9,1.112,1.235,1.412a4.153,4.153,0,0,0,3.31.995c.639,0,1.85-.455,1.821-.725,0-.088-1.484-.591-1.535-.66-2.6-3.57-6.308-6.169-10.094-8.45s-7.738-4.321-11.182-7.086c-3.276-2.645-5.032-10.126-8.356-12.693,0,0-4.332-.2-5.76.706S283.739,284.676,283.491,288.836Z" transform="translate(-283.057 -266.469)" fill="#263238" opacity="0.2"/>
        <g id="freepik--character--inject-100-3" data-name="freepik--character--inject-100" transform="translate(1.608)">
          <path id="Path_2360" data-name="Path 2360" d="M399.565,344.368a13.672,13.672,0,0,1-3.281-3.834c-.535-1-2.407-9.434-2.407-9.434S390,334.333,390,334.354c.562.856,2.463,4.334,2.645,5.792a2.72,2.72,0,0,1,0,.882,1.721,1.721,0,0,0,.476,1.9c.5.447,1.313.741,1.751,1.3.473.6.786,1.5,1.468,1.915a3.6,3.6,0,0,0,2.027.519,3.368,3.368,0,0,0,2.139-.666C401.185,345.349,400.161,344.857,399.565,344.368Z" transform="translate(-363.012 -302.492)" fill="#b16668"/>
          <path id="Path_2361" data-name="Path 2361" d="M399.069,374.55a1.267,1.267,0,0,0,.062.425,4.516,4.516,0,0,0,1.3.848,1.984,1.984,0,0,1,1.011,1.07,3.436,3.436,0,0,0,1.757,1.57,5.452,5.452,0,0,0,3.209.313c1.337-.251,1.444-1.043,1.444-1.043s.067-.746-.267-.861S399.069,374.55,399.069,374.55Z" transform="translate(-369.656 -334.324)" fill="#37474f"/>
          <path id="Path_2362" data-name="Path 2362" d="M399.037,362.22c-.035.016-.214.029-.2.219a5.758,5.758,0,0,1,.075,1.032,4.1,4.1,0,0,0-.045,1.6c.717.717,1.832.89,2.377,1.636a3.932,3.932,0,0,0,2.81,2.016c1.762.337,3.094-.227,3.417-.73s.021-.973-1.11-1.575a13.144,13.144,0,0,1-2.789-2.556,7.872,7.872,0,0,1-.6-.853,6.588,6.588,0,0,1-.39-.952.757.757,0,0,0-.267-.382.786.786,0,0,0-.465-.056,3.259,3.259,0,0,0-.754.118,1.139,1.139,0,0,0-.615.425c-.1.152-.158.334-.267.476a.661.661,0,0,1-.666.211.556.556,0,0,1-.463-.455Z" transform="translate(-369.456 -324.845)" fill="#455a64"/>
          <path id="Path_2363" data-name="Path 2363" d="M414.2,380.409a2.541,2.541,0,0,1,3.824-1.882c.484.345,1.179,1.07.762,1.6-.449.575-1.174.848-2.527.872A3.17,3.17,0,0,1,414.2,380.409Z" transform="translate(-380.741 -336.942)" fill="#f0f0f0"/>
          <path id="Path_2364" data-name="Path 2364" d="M406.878,368.177a.152.152,0,0,0,.12-.064,2.291,2.291,0,0,1,2.046-.749c.045-.107-.032-.217-.225-.332a2.718,2.718,0,0,0-2.072.917.139.139,0,0,0,.04.2A.158.158,0,0,0,406.878,368.177Z" transform="translate(-375.262 -328.812)" fill="#fafafa"/>
          <path id="Path_2365" data-name="Path 2365" d="M411.273,370.021a.463.463,0,0,0-.267-.321,2.791,2.791,0,0,0-1.949.922.142.142,0,0,0,.04.2.158.158,0,0,0,.211-.04A2.343,2.343,0,0,1,411.273,370.021Z" transform="translate(-376.954 -330.77)" fill="#fafafa"/>
          <path id="Path_2366" data-name="Path 2366" d="M416.139,375.45a.871.871,0,0,0-.42-.39,2.754,2.754,0,0,0-2.032.92.142.142,0,0,0,.04.2.139.139,0,0,0,.091.024.149.149,0,0,0,.12-.061A2.182,2.182,0,0,1,416.139,375.45Z" transform="translate(-380.346 -334.697)" fill="#fafafa"/>
          <path id="Path_2367" data-name="Path 2367" d="M411.506,373.522a.16.16,0,0,0,.12-.064,2.309,2.309,0,0,1,2.013-.754.535.535,0,0,0-.316-.334,2.792,2.792,0,0,0-1.952.925.142.142,0,0,0,.043.2A.158.158,0,0,0,411.506,373.522Z" transform="translate(-378.652 -332.727)" fill="#fafafa"/>
          <path id="Path_2368" data-name="Path 2368" d="M337.677,313.964c-.8-3.415-1.318-5.471-2.505-6.123-1.412-.775-2.35-1.07-8.811,1.987-1.623.767-4.813,2.329-4.813,2.329l-8.5,6.936a16.65,16.65,0,0,0,9.516,1.016c2.508-.4,4.278-2.139,6.193-3.564,2.917-2.182,3.706-2.9,3.706-2.9.064,1.8,1.31,3.936,2.893,6.7a4.855,4.855,0,0,0,3.412-1.364S338.335,316.771,337.677,313.964Z" transform="translate(-306.638 -285.072)" fill="#37474f"/>
          <path id="Path_2369" data-name="Path 2369" d="M341.337,335.189l-2.484-1.005a3.821,3.821,0,0,0-1.233-2.762,6.726,6.726,0,0,1,.484,2.674,5.973,5.973,0,0,0-3.874.57,6.465,6.465,0,0,1,3.8-.16l3.233,1.69a51.068,51.068,0,0,0,6.7-5.185A27.185,27.185,0,0,1,341.337,335.189Z" transform="translate(-322.155 -302.426)" fill="#263238"/>
          <path id="Path_2370" data-name="Path 2370" d="M349.183,352.357a1.045,1.045,0,0,0-.342-.016c-1.032.1-1.626,1.013-2.12,1.834-.321.535-.551.8-.995,1.452-.126.182-.658.784-.658.784s-1.254-.995-1.968-1.655c-.869-.8-3.564-3.412-5.166-5.024-2.457-2.473-3.209-3.209-5.257-4.366-2.024-1.241-8.725-4.449-10.8-5.725-1.92.955-4.1,1.043-5.1,2.759-.088,1.126,1.479,2.674,2.473,3.209,2.885,1.538,8.811,3.169,12.672,4.35,1.131,2.249,1.369,2.479,3.548,4.054,1.979,1.428,4.476,3.126,6.976,4.706a5.465,5.465,0,0,1,1.337,1.337c.115.171.214.361.316.535a1.584,1.584,0,0,0,1.628.92,2.1,2.1,0,0,0,1.337-.709c.717-.8.8-1.981,1.308-2.941.465-.882,1.308-1.439,1.505-2.457a5.037,5.037,0,0,0,.027-1.527,4.122,4.122,0,0,0-.158-.781,1.125,1.125,0,0,0-.382-.666A.663.663,0,0,0,349.183,352.357Z" transform="translate(-309.361 -308.748)" fill="#b16668"/>
          <path id="Path_2371" data-name="Path 2371" d="M416.385,395c-.2.377-1.048,1.505-1.364,1.431s-.642-.326-.931-.019c-.425.449-.706.925-.535,1.406s.385.9.15.885-.586-.409-.914.054-.439.623-.286.746a2.868,2.868,0,0,1,.906.786,2.938,2.938,0,0,0,1.123,1.313s-.318-.663.663-2.235,1.572-1.725,1.808-3.024S416.385,395,416.385,395Z" transform="translate(-379.45 -349.306)" fill="#455a64"/>
          <path id="Path_2372" data-name="Path 2372" d="M430.454,386.8a2.353,2.353,0,0,0-2.158.42,3.537,3.537,0,0,0-1.115,1.7,1.671,1.671,0,0,0,.487,1.337,7.262,7.262,0,0,1,.773-2.067A5.2,5.2,0,0,1,430.454,386.8Z" transform="translate(-390.246 -343.227)" fill="#f0f0f0"/>
          <path id="Path_2373" data-name="Path 2373" d="M425.53,387.315a1.523,1.523,0,0,0-1.754.053,3.476,3.476,0,0,0-1.54,2.032,6.249,6.249,0,0,1-.971,2.527,7.862,7.862,0,0,0-1.709,2.636,2.926,2.926,0,0,0-.051,1.07.535.535,0,0,0,.206.345l.449.345Z" transform="translate(-384.608 -343.492)" fill="#37474f"/>
          <path id="Path_2374" data-name="Path 2374" d="M421.188,396.728c-.471-.2-.417-1.476.425-2.733a10.485,10.485,0,0,0,1.671-2.693c.334-1.04.324-1.96,1.2-2.786s1.554-1.088,2.07-.8a1.491,1.491,0,0,1,.374,1.16,4.4,4.4,0,0,1-.845,2.484c-.757,1.091-1.257,1.337-1.6,2.353a5.612,5.612,0,0,1-1.337,2.556A1.861,1.861,0,0,1,421.188,396.728Z" transform="translate(-385.644 -343.886)" fill="#263238"/>
          <path id="Path_2375" data-name="Path 2375" d="M421.7,399.773a.583.583,0,0,0-.059.487s.179.1.31-.174a.976.976,0,0,1,.233-.666.741.741,0,0,0-.484.353Z" transform="translate(-386.173 -352.544)" fill="#fafafa"/>
          <path id="Path_2376" data-name="Path 2376" d="M423.925,397.551a.594.594,0,0,0,0,.489s.187.08.291-.206a.973.973,0,0,1,.163-.685A.735.735,0,0,0,423.925,397.551Z" transform="translate(-387.828 -350.881)" fill="#fafafa"/>
          <path id="Path_2377" data-name="Path 2377" d="M306.18,335.508c.735,4.011,1.714,5.372,4.832,6.952,3.3,1.682,13,3.848,13,3.848a8.622,8.622,0,0,0,2,2.46c1.794,1.283,4.348,3.008,4.348,3.008a4.011,4.011,0,0,1,2.784-3.281s-3.495-3.669-5.318-5.7a30.428,30.428,0,0,0-5.214-3.441c-1.941-1.053-4.182-2.107-5.867-3.1L313.549,334Z" transform="translate(-301.605 -304.616)" fill="#37474f"/>
          <path id="Path_2378" data-name="Path 2378" d="M328.28,276.471l1.123-.11a2.218,2.218,0,0,1,2.353.866c1.021,1.369,2.562,6.554,3.227,9.057.182.682-3.54,1.709-3.54,1.709l-1.142-4.011Z" transform="translate(-317.796 -262.372)" fill="#b16668"/>
          <path id="Path_2379" data-name="Path 2379" d="M304.218,277.224l-1.519.233s.789,1.11.439,3.637a4.687,4.687,0,0,1-1.107,2.471c-.374,2.246,1.177,6.824,1.177,6.824s2.048,1.31,6.022.505c3.489-.706,3.011-1.377,3.011-1.377l-1.021-2.559.329-2.064a27.833,27.833,0,0,0-.254-4.615,16.241,16.241,0,0,0-1.163-3.848l-2.407.233Z" transform="translate(-298.522 -262.44)" fill="#b16668"/>
          <path id="Path_2380" data-name="Path 2380" d="M303.645,306.022a6.24,6.24,0,0,0,2.548.717c.329-.249.364-.489-.353-.626-1.949-.366-2.107-2.032-2.31-3.185a28.433,28.433,0,0,1-.251-3.147,3.11,3.11,0,0,0,.324-2.011,17.219,17.219,0,0,1-.778,1.963l-.254,2.005h0a30.607,30.607,0,0,0,1.075,4.284Z" transform="translate(-298.96 -278.074)" fill="#9a4a4d"/>
          <path id="Path_2381" data-name="Path 2381" d="M313.5,289.782l-1.16-2.152-.1-1.858a3.346,3.346,0,0,0,.495-3.687,4.906,4.906,0,0,0-.562-1.035c-.267-.388-1.053-1.425-1.853-2.527a13.447,13.447,0,0,0-1.238-1.682l-.882.086s1.8,2.08,1.754,2.995-3.856,1.631-4.463.639-1.005-2.115-1.588-2.976l-1.128.174a6.413,6.413,0,0,1,1.281,4.909,4.011,4.011,0,0,1-1.685,2.452l-.294.23a58.959,58.959,0,0,0,.5,6.3,18.34,18.34,0,0,0,1.313,4.85,2.73,2.73,0,0,0,.765-2.2,8.412,8.412,0,0,0,7.257-1.808A3.983,3.983,0,0,0,313.5,289.782Z" transform="translate(-298.601 -262.74)" fill="#8fb99e"/>
          <path id="Path_2382" data-name="Path 2382" d="M313.5,289.782l-1.16-2.152-.1-1.858a3.346,3.346,0,0,0,.495-3.687,4.906,4.906,0,0,0-.562-1.035c-.267-.388-1.053-1.425-1.853-2.527a13.447,13.447,0,0,0-1.238-1.682l-.882.086s1.8,2.08,1.754,2.995-3.856,1.631-4.463.639-1.005-2.115-1.588-2.976l-1.128.174a6.413,6.413,0,0,1,1.281,4.909,4.011,4.011,0,0,1-1.685,2.452l-.294.23a58.959,58.959,0,0,0,.5,6.3,18.34,18.34,0,0,0,1.313,4.85,2.73,2.73,0,0,0,.765-2.2,8.412,8.412,0,0,0,7.257-1.808A3.983,3.983,0,0,0,313.5,289.782Z" transform="translate(-298.601 -262.74)" fill="#fff" opacity="0.6"/>
          <path id="Path_2383" data-name="Path 2383" d="M313.121,310.544c-1.8.326-8.351,1.455-8.987.773-.738-.789-.976-3.134-1.206-5.177h0a3.088,3.088,0,0,1-.553.444l-.294.23a58.951,58.951,0,0,0,.5,6.3c.182,1.07.366,1.941.551,2.65l6.728-1.909a3.41,3.41,0,0,0,2.046.107h0a4,4,0,0,0,1.583-2.711Z" transform="translate(-298.601 -284.206)" opacity="0.1"/>
          <path id="Path_2384" data-name="Path 2384" d="M298.146,228.484a2.436,2.436,0,0,0-1.286,1.6,4.979,4.979,0,0,0,1.316,4.489c.655.735,1.529,1.364,2.163,2.021l-.029-.989a3.933,3.933,0,0,0,1.936.441l1.045-.016a4.482,4.482,0,0,0,1.628-.329,2.575,2.575,0,0,0,1.139-.856,4.177,4.177,0,0,0,.687-1.281,4.029,4.029,0,0,0,.166-.727c0-.067.091-.663.032-.682a1.179,1.179,0,0,0,1-2.126.914.914,0,0,0-.307-1.775c.313-.115.329-.594.1-.834a1.358,1.358,0,0,0-.92-.318,1.182,1.182,0,0,0-.219-1.7c.067.045.062.286.056.356a.818.818,0,0,1-.123.385.84.84,0,0,1-.679.326.487.487,0,0,0,.267-.572.586.586,0,0,0-.511-.4.741.741,0,0,0-.612.267.878.878,0,0,0,0-.816.6.6,0,0,0-.535-.206,1.276,1.276,0,0,0-.535.166c-.171.1-.243.163-.425.291a.992.992,0,0,0-.091-.652.815.815,0,0,0-.535-.447,1.471,1.471,0,0,1-.11,1.091,2.155,2.155,0,0,1-.869.88,22.759,22.759,0,0,1-2.281.4,1.974,1.974,0,0,0-1.07.628A1.5,1.5,0,0,0,298.146,228.484Z" transform="translate(-294.689 -224.11)" fill="#8fb99e"/>
          <g id="Group_459" data-name="Group 459" transform="translate(2.051)" opacity="0.35">
            <path id="Path_2385" data-name="Path 2385" d="M298.146,228.484a2.436,2.436,0,0,0-1.286,1.6,4.979,4.979,0,0,0,1.316,4.489c.655.735,1.529,1.364,2.163,2.021l-.029-.989a3.933,3.933,0,0,0,1.936.441l1.045-.016a4.482,4.482,0,0,0,1.628-.329,2.575,2.575,0,0,0,1.139-.856,4.177,4.177,0,0,0,.687-1.281,4.029,4.029,0,0,0,.166-.727c0-.067.091-.663.032-.682a1.179,1.179,0,0,0,1-2.126.914.914,0,0,0-.307-1.775c.313-.115.329-.594.1-.834a1.358,1.358,0,0,0-.92-.318,1.182,1.182,0,0,0-.219-1.7c.067.045.062.286.056.356a.818.818,0,0,1-.123.385.84.84,0,0,1-.679.326.487.487,0,0,0,.267-.572.586.586,0,0,0-.511-.4.741.741,0,0,0-.612.267.878.878,0,0,0,0-.816.6.6,0,0,0-.535-.206,1.276,1.276,0,0,0-.535.166c-.171.1-.243.163-.425.291a.992.992,0,0,0-.091-.652.815.815,0,0,0-.535-.447,1.471,1.471,0,0,1-.11,1.091,2.155,2.155,0,0,1-.869.88,22.759,22.759,0,0,1-2.281.4,1.974,1.974,0,0,0-1.07.628A1.5,1.5,0,0,0,298.146,228.484Z" transform="translate(-296.74 -224.11)"/>
          </g>
          <path id="Path_2386" data-name="Path 2386" d="M310.066,240.47c.6.332,1.374,1.8,1.39,4.931,0,2.652-.832,3.329-1.257,3.53a4.584,4.584,0,0,1-2.072,0l.035,1.39s1.567,1.92,1.516,2.652-2.078,1.337-3.145.647a7.148,7.148,0,0,1-1.888-2.738l-.1-4.048a.989.989,0,0,1-1.289.032,1.48,1.48,0,0,1-.428-2.08,1.161,1.161,0,0,1,1.856.316,10.089,10.089,0,0,0,2.9-1.219A4.894,4.894,0,0,0,310.066,240.47Z" transform="translate(-298.95 -236.095)" fill="#b16668"/>
          <path id="Path_2387" data-name="Path 2387" d="M322.294,255.684a.332.332,0,1,1-.348-.334.34.34,0,0,1,.348.334Z" transform="translate(-312.922 -246.996)" fill="#263238"/>
          <path id="Path_2388" data-name="Path 2388" d="M323.7,264.14l1.1.364a.57.57,0,0,1-.719.4A.6.6,0,0,1,323.7,264.14Z" transform="translate(-314.419 -253.436)" fill="#9a4a4d"/>
          <path id="Path_2389" data-name="Path 2389" d="M332.548,251.084l-.668-.476a.393.393,0,0,1,.562-.11A.433.433,0,0,1,332.548,251.084Z" transform="translate(-320.433 -243.388)" fill="#263238"/>
          <path id="Path_2390" data-name="Path 2390" d="M331.938,254.894a.334.334,0,1,1-.348-.334.34.34,0,0,1,.348.334Z" transform="translate(-319.986 -246.418)" fill="#263238"/>
          <path id="Path_2391" data-name="Path 2391" d="M328.053,254.41l-.043,2.171,1.059-.315Z" transform="translate(-317.598 -246.308)" fill="#9a4a4d"/>
          <path id="Path_2392" data-name="Path 2392" d="M315.4,268.73c-.856-.088-2.623-.535-2.915-1.23a1.813,1.813,0,0,0,.639.869,9.24,9.24,0,0,0,2.289.89Z" transform="translate(-306.228 -255.898)" fill="#9a4a4d"/>
          <path id="Path_2393" data-name="Path 2393" d="M339.359,302.694h0l-.267-.214h0a.3.3,0,0,0-.267-.016l-2.853.928a1.07,1.07,0,0,0-.615.636l-1.767,6.086a.267.267,0,0,0,.053.3h0l.286.222h0a.294.294,0,0,0,.267.019l2.84-.931a1.069,1.069,0,0,0,.618-.636c.345-1.2,1.42-4.891,1.767-6.089C339.472,302.857,339.442,302.748,339.359,302.694Z" transform="translate(-321.666 -281.495)" fill="#8fb99e"/>
          <path id="Path_2394" data-name="Path 2394" d="M339.359,302.694h0l-.267-.214h0a.3.3,0,0,0-.267-.016l-2.853.928a1.07,1.07,0,0,0-.615.636l-1.767,6.086a.267.267,0,0,0,.053.3h0l.286.222h0a.294.294,0,0,0,.267.019l2.84-.931a1.069,1.069,0,0,0,.618-.636c.345-1.2,1.42-4.891,1.767-6.089C339.472,302.857,339.442,302.748,339.359,302.694Z" transform="translate(-321.666 -281.495)" opacity="0.15"/>
          <path id="Path_2395" data-name="Path 2395" d="M335.94,307a1.07,1.07,0,0,0-.31.457l-1.77,6.094a.284.284,0,0,0,.045.3l-.267-.206h0a.267.267,0,0,1-.056-.3l1.77-6.086a1.024,1.024,0,0,1,.286-.433Z" transform="translate(-321.661 -284.704)" fill="#8fb99e"/>
          <path id="Path_2396" data-name="Path 2396" d="M335.94,307a1.07,1.07,0,0,0-.31.457l-1.77,6.094a.284.284,0,0,0,.045.3l-.267-.206h0a.267.267,0,0,1-.056-.3l1.77-6.086a1.024,1.024,0,0,1,.286-.433Z" transform="translate(-321.661 -284.704)" opacity="0.45"/>
          <path id="Path_2397" data-name="Path 2397" d="M334.646,310.959l1.767-6.086a1.07,1.07,0,0,1,.618-.639l2.84-.931c.267-.086.414.061.337.326-.348,1.2-1.423,4.891-1.767,6.089a1.07,1.07,0,0,1-.618.636l-2.829.923C334.726,311.362,334.568,311.226,334.646,310.959Z" transform="translate(-322.445 -282.11)" fill="#8fb99e"/>
          <path id="Path_2398" data-name="Path 2398" d="M334.646,310.959l1.767-6.086a1.07,1.07,0,0,1,.618-.639l2.84-.931c.267-.086.414.061.337.326-.348,1.2-1.423,4.891-1.767,6.089a1.07,1.07,0,0,1-.618.636l-2.829.923C334.726,311.362,334.568,311.226,334.646,310.959Z" transform="translate(-322.445 -282.11)" opacity="0.3"/>
          <path id="Path_2399" data-name="Path 2399" d="M348.069,311.866c.5-.144.8.388.767,1.337s-.588,2.674-2.032,2.235c-.564-.171-.965-1.1-.377-1.521a9.514,9.514,0,0,0,1.369-1.1Z" transform="translate(-330.878 -288.383)" fill="#9a4a4d"/>
          <path id="Path_2400" data-name="Path 2400" d="M289.45,294.436a71.993,71.993,0,0,1-.38-8.238c0-3.433.35-3.821.995-4.679s1.939-1.07,3.182-1.249c1.045,1.468.623,3.139.535,4.163a4.345,4.345,0,0,1-.845,2.479l.209,4.933a44.083,44.083,0,0,0,6.843-.914,3.234,3.234,0,0,0,.765-.832,2.11,2.11,0,0,1,.727-.663c.369-.2.674-.313.939-.457l-.366,1.27c.029.072.2.091.267.115a4.585,4.585,0,0,0,1.754.214c1.235-.094,2.39-.995,2.153.1a3.114,3.114,0,0,1-.928,1.813c-.66.556-3.056.8-3.743,1.12a96.3,96.3,0,0,1-9.754,2.361C290.2,296.145,289.693,296.1,289.45,294.436Z" transform="translate(-289.07 -265.253)" fill="#b16668"/>
          <path id="Path_2401" data-name="Path 2401" d="M306.427,231.417c-1.219.647-2.856,2.751-1.992,7.4l-1.166.267a10.391,10.391,0,0,1-.139-4.468c.513-2.021,1.463-2.725,1.9-2.941A3,3,0,0,1,306.427,231.417Z" transform="translate(-299.226 -229.46)" fill="#263238"/>
          <path id="Path_2402" data-name="Path 2402" d="M303.188,254.676a1.857,1.857,0,0,0-1.714-1.786,1.24,1.24,0,0,0-.388.059c-.1.032-.717.267-.781.3a1.634,1.634,0,0,0-.936,1.7,1.856,1.856,0,0,0,1.711,1.786,1.272,1.272,0,0,0,.465-.086c.078-.027.668-.267.743-.294A1.644,1.644,0,0,0,303.188,254.676Z" transform="translate(-296.604 -245.194)" fill="#37474f"/>
          <path id="Path_2403" data-name="Path 2403" d="M302.534,255.679a1.859,1.859,0,0,0-1.714-1.789,1.544,1.544,0,0,0-1.428,1.8,1.852,1.852,0,0,0,1.711,1.786A1.548,1.548,0,0,0,302.534,255.679Z" transform="translate(-296.628 -245.927)" fill="#455a64"/>
          <path id="Path_2404" data-name="Path 2404" d="M303.757,257.906a1.016,1.016,0,0,0-.936-.976.848.848,0,0,0-.781.981,1.016,1.016,0,0,0,.936.976.845.845,0,0,0,.781-.981Z" transform="translate(-298.564 -248.154)" fill="#8fb99e"/>
        </g>
      </g>
    </g>
    <g id="freepik--musical-notes--inject-100" transform="translate(83.825 35.574)">
      <path id="freepik--musical-note--inject-100" d="M402.32,166.076l1.011,2.31a.69.69,0,0,0-.217.051.66.66,0,1,0,.869.34l-.9-2.072,1.845-1.46h0l.9,2.051a.629.629,0,0,0-.217.053.66.66,0,1,0,.869.34h0l-1.5-3.428Z" transform="translate(-383.403 -164.26)" fill="#8fb99e"/>
      <path id="freepik--musical-note--inject-100-2" data-name="freepik--musical-note--inject-100" d="M431.354,274.932l.8,3.177a.828.828,0,0,0-.291.019.858.858,0,1,0,1.046.618l-.722-2.845,2.674-1.481h0l.722,2.821a.829.829,0,0,0-.291.019.858.858,0,1,0,1.043.62h0l-1.2-4.709Z" transform="translate(-404.576 -244.048)" fill="#8fb99e"/>
      <path id="freepik--musical-note--inject-100-3" data-name="freepik--musical-note--inject-100" d="M377.851,214.4l-2.027,3.743a1.112,1.112,0,1,0,.16,1.275l1.818-3.361,3.864.936h0l-1.794,3.337a1.112,1.112,0,1,0,.16,1.275h0l2.995-5.57Z" transform="translate(-362.576 -200.993)" fill="#8fb99e"/>
      <path id="freepik--musical-note--inject-100-4" data-name="freepik--musical-note--inject-100" d="M372.982,272.383a1.189,1.189,0,0,1,.428-.254,2.64,2.64,0,0,1,.66-.12,4.5,4.5,0,0,0,.89-.107,1.115,1.115,0,0,0,.706-.513,1.155,1.155,0,0,1-.513.083,6.789,6.789,0,0,1-1.246-.441,1.979,1.979,0,0,0-1.666.348c.158.535.3,1.056.457,1.586l.361,1.241.147.567a1.147,1.147,0,0,0-.492.027.925.925,0,1,0,1.147.628Z" transform="translate(-361.226 -242.432)" fill="#8fb99e"/>
      <path id="freepik--musical-note--inject-100-5" data-name="freepik--musical-note--inject-100" d="M334.963,185.272a1.425,1.425,0,0,1,.6.037,3.057,3.057,0,0,1,.746.332,5.645,5.645,0,0,0,.971.5,1.337,1.337,0,0,0,1.07-.032,1.4,1.4,0,0,1-.575-.267,8.315,8.315,0,0,1-.949-1.3,2.5,2.5,0,0,0-1.915-.8c-.2.636-.417,1.27-.626,1.906-.163.5-.324,1-.487,1.495-.016.048-.241.674-.241.674a1.337,1.337,0,0,0-.513-.313,1.126,1.126,0,1,0,.722,1.417Z" transform="translate(-331.574 -178.531)" fill="#8fb99e"/>
      <path id="freepik--musical-note--inject-100-6" data-name="freepik--musical-note--inject-100" d="M444.667,209.689a1.255,1.255,0,0,1,.4-.369,2.771,2.771,0,0,1,.668-.267,4.979,4.979,0,0,0,.917-.324,1.214,1.214,0,0,0,.628-.709,1.257,1.257,0,0,1-.535.209,7.213,7.213,0,0,1-1.423-.176,2.176,2.176,0,0,0-1.679.762c.291.516.57,1.043.853,1.564l.671,1.23.291.567a1.211,1.211,0,0,0-.516.142,1,1,0,1,0,1.358.4Z" transform="translate(-413.674 -196.319)" fill="#8fb99e"/>
    </g>
    <g id="freepik--speech-bubble--inject-100" transform="translate(77.899 12.521)">
      <g id="freepik--sound-bubble--inject-100" transform="translate(0)">
        <path id="Path_2405" data-name="Path 2405" d="M346.245,82.395v8.53a1.155,1.155,0,0,1-.521.9l-18.34,10.6a.356.356,0,0,1-.174.051.29.29,0,0,1-.067,0l-.045-.013-.045-.024a.46.46,0,0,1-.136-.176.593.593,0,0,1-.056-.267V93.585a1.155,1.155,0,0,1,.535-.9l18.34-10.589a.372.372,0,0,1,.35-.043.187.187,0,0,1,.045.024h0a.13.13,0,0,1,.035.032l.013.019a.09.09,0,0,1,.019.029.19.19,0,0,1,.029.067.186.186,0,0,1,.013.045h0a.215.215,0,0,1,0,.048C346.243,82.349,346.245,82.373,346.245,82.395Z" transform="translate(-322.194 -80.961)" fill="#8fb99e"/>
        <path id="Path_2406" data-name="Path 2406" d="M321.825,129.574a.689.689,0,0,1-.056-.267v-6.693h0v-1.706a1.07,1.07,0,0,1,.155-.519l-1.856-1.07a1.07,1.07,0,0,0-.158.535v1.7h0v6.7a.642.642,0,0,0,.059.267.452.452,0,0,0,.16.179l1.765,1.019.064.037A.5.5,0,0,1,321.825,129.574Z" transform="translate(-317.103 -108.284)" fill="#8fb99e"/>
        <path id="Path_2407" data-name="Path 2407" d="M321.825,129.574a.689.689,0,0,1-.056-.267v-6.693h0v-1.706a1.07,1.07,0,0,1,.155-.519l-1.856-1.07a1.07,1.07,0,0,0-.158.535v1.7h0v6.7a.642.642,0,0,0,.059.267.452.452,0,0,0,.16.179l1.765,1.019.064.037A.5.5,0,0,1,321.825,129.574Z" transform="translate(-317.103 -108.284)" opacity="0.2"/>
        <path id="Path_2408" data-name="Path 2408" d="M341.072,79.179l-18.34,10.589a1.054,1.054,0,0,0-.369.388l-1.853-1.07a1.046,1.046,0,0,1,.364-.382l18.34-10.586a.369.369,0,0,1,.38-.032c.094.059,1.717.987,1.826,1.045A.385.385,0,0,0,341.072,79.179Z" transform="translate(-317.542 -78.048)" fill="#8fb99e"/>
        <path id="Path_2409" data-name="Path 2409" d="M341.072,79.179l-18.34,10.589a1.054,1.054,0,0,0-.369.388l-1.853-1.07a1.046,1.046,0,0,1,.364-.382l18.34-10.586a.369.369,0,0,1,.38-.032c.094.059,1.717.987,1.826,1.045A.385.385,0,0,0,341.072,79.179Z" transform="translate(-317.542 -78.048)" fill="#fff" opacity="0.4"/>
        <path id="Path_2410" data-name="Path 2410" d="M312.221,129.22l-2.69,2.658a.412.412,0,0,0,.086.647l1.856,1.07a.382.382,0,0,0,.267.048l2.334-.385v-2.963Z" transform="translate(-309.411 -115.537)" fill="#8fb99e"/>
        <path id="Path_2411" data-name="Path 2411" d="M314.2,130.31l-1.856-1.07-2.69,2.658a.459.459,0,0,0-.075.107l2.741,1.583,1.872-.31Z" transform="translate(-309.535 -115.552)" fill="#fff" opacity="0.4"/>
        <path id="Path_2412" data-name="Path 2412" d="M309.617,140.1l1.856,1.07a.382.382,0,0,0,.267.048l.455-.075-2.741-1.583A.414.414,0,0,0,309.617,140.1Z" transform="translate(-309.412 -123.112)" opacity="0.2"/>
        <path id="Path_2413" data-name="Path 2413" d="M319.167,133.24l-2.687,2.658a.406.406,0,0,0,.353.69l2.334-.385Z" transform="translate(-314.501 -118.482)" fill="#8fb99e"/>
        <g id="freepik--Audio--inject-100" transform="translate(6.086 5.282)">
          <path id="Path_2414" data-name="Path 2414" d="M332.3,137.74a.126.126,0,0,1-.126-.126v-.439a.126.126,0,0,1,.126-.126.128.128,0,0,1,.128.126v.439A.128.128,0,0,1,332.3,137.74Z" transform="translate(-332.17 -126.555)" fill="#fff"/>
          <path id="Path_2415" data-name="Path 2415" d="M334.656,134.219a.126.126,0,0,1-.126-.126v-2.917a.126.126,0,1,1,.251,0v2.917A.126.126,0,0,1,334.656,134.219Z" transform="translate(-333.899 -122.159)" fill="#fff"/>
          <path id="Path_2416" data-name="Path 2416" d="M337.026,133.986a.126.126,0,0,1-.126-.126v-1.6a.126.126,0,0,1,.251,0v1.6A.126.126,0,0,1,337.026,133.986Z" transform="translate(-335.635 -122.95)" fill="#fff"/>
          <path id="Path_2417" data-name="Path 2417" d="M341.746,132.017a.126.126,0,0,1-.126-.126v-.746a.126.126,0,1,1,.251,0v.746A.126.126,0,0,1,341.746,132.017Z" transform="translate(-339.093 -122.137)" fill="#fff"/>
          <path id="Path_2418" data-name="Path 2418" d="M344.119,129.707a.126.126,0,0,1-.12-.136V127.7a.128.128,0,0,1,.254,0v1.872a.126.126,0,0,1-.134.136Z" transform="translate(-340.836 -119.624)" fill="#fff"/>
          <path id="Path_2419" data-name="Path 2419" d="M346.476,125.945a.126.126,0,0,1-.126-.126v-4.594a.126.126,0,1,1,.251,0v4.594A.126.126,0,0,1,346.476,125.945Z" transform="translate(-342.558 -114.87)" fill="#fff"/>
          <path id="Path_2420" data-name="Path 2420" d="M348.836,125.423a.126.126,0,0,1-.126-.126v-3.642a.126.126,0,1,1,.251,0v3.65A.126.126,0,0,1,348.836,125.423Z" transform="translate(-344.287 -115.185)" fill="#fff"/>
          <path id="Path_2421" data-name="Path 2421" d="M351.2,122.646a.126.126,0,0,1-.126-.126v-5.254a.126.126,0,1,1,.251,0v5.254A.126.126,0,0,1,351.2,122.646Z" transform="translate(-346.016 -111.969)" fill="#fff"/>
          <path id="Path_2422" data-name="Path 2422" d="M353.556,123.653a.126.126,0,0,1-.126-.126v-2.521a.126.126,0,0,1,.251,0v2.521A.126.126,0,0,1,353.556,123.653Z" transform="translate(-347.745 -114.709)" fill="#fff"/>
          <path id="Path_2423" data-name="Path 2423" d="M355.926,123.963a.126.126,0,0,1-.126-.126v-.6a.126.126,0,1,1,.251,0v.6A.126.126,0,0,1,355.926,123.963Z" transform="translate(-349.482 -116.342)" fill="#fff"/>
          <path id="Path_2424" data-name="Path 2424" d="M360.656,118.761a.126.126,0,0,1-.126-.126v-3.449a.126.126,0,0,1,.251,0v3.449A.126.126,0,0,1,360.656,118.761Z" transform="translate(-352.947 -110.445)" fill="#fff"/>
          <path id="Path_2425" data-name="Path 2425" d="M365.366,114.477a.126.126,0,0,1-.126-.126v-5.236a.126.126,0,0,1,.251,0v5.225a.126.126,0,0,1-.126.136Z" transform="translate(-356.397 -105.998)" fill="#fff"/>
          <path id="Path_2426" data-name="Path 2426" d="M370.1,115.657a.126.126,0,0,1-.126-.126v-.746a.126.126,0,1,1,.251,0v.746A.126.126,0,0,1,370.1,115.657Z" transform="translate(-359.863 -110.152)" fill="#fff"/>
          <path id="Path_2427" data-name="Path 2427" d="M393.656,102.32a.126.126,0,0,1-.126-.126v-.439a.126.126,0,1,1,.251,0v.439A.126.126,0,0,1,393.656,102.32Z" transform="translate(-377.123 -100.606)" fill="#fff"/>
          <path id="Path_2428" data-name="Path 2428" d="M391.3,101.526a.126.126,0,0,1-.126-.126V98.486a.126.126,0,1,1,.251,0V101.4A.126.126,0,0,1,391.3,101.526Z" transform="translate(-375.394 -98.21)" fill="#fff"/>
          <path id="Path_2429" data-name="Path 2429" d="M388.936,104.016a.126.126,0,0,1-.126-.126v-1.6a.126.126,0,1,1,.251,0v1.6A.126.126,0,0,1,388.936,104.016Z" transform="translate(-373.665 -100.994)" fill="#fff"/>
          <path id="Path_2430" data-name="Path 2430" d="M384.206,107.522a.126.126,0,0,1-.126-.126v-.741a.126.126,0,1,1,.251,0v.746A.126.126,0,0,1,384.206,107.522Z" transform="translate(-370.2 -104.196)" fill="#fff"/>
          <path id="Path_2431" data-name="Path 2431" d="M381.846,107.9a.126.126,0,0,1-.126-.126v-1.872a.126.126,0,1,1,.251,0v1.872A.126.126,0,0,1,381.846,107.9Z" transform="translate(-368.471 -103.646)" fill="#fff"/>
          <path id="Path_2432" data-name="Path 2432" d="M379.486,106.885a.126.126,0,0,1-.126-.126v-4.594a.126.126,0,1,1,.251,0v4.594A.126.126,0,0,1,379.486,106.885Z" transform="translate(-366.742 -100.906)" fill="#fff"/>
          <path id="Path_2433" data-name="Path 2433" d="M374.758,109.036a.128.128,0,0,1-.128-.126v-5.254a.128.128,0,0,1,.128-.126.126.126,0,0,1,.126.126v5.254A.126.126,0,0,1,374.758,109.036Z" transform="translate(-363.277 -101.998)" fill="#fff"/>
          <path id="Path_2434" data-name="Path 2434" d="M372.4,113.269a.126.126,0,0,1-.126-.126v-1.957a.126.126,0,1,1,.251,0v1.957A.126.126,0,0,1,372.4,113.269Z" transform="translate(-361.548 -107.514)" fill="#fff"/>
          <path id="Path_2435" data-name="Path 2435" d="M339.386,129.965a.126.126,0,0,1-.126-.126v-4.674a.126.126,0,0,1,.251,0v4.677A.126.126,0,0,1,339.386,129.965Z" transform="translate(-337.364 -117.756)" fill="#fff"/>
          <path id="Path_2436" data-name="Path 2436" d="M358.286,122a.126.126,0,0,1-.126-.126V120.6a.126.126,0,1,1,.251,0v1.283A.126.126,0,0,1,358.286,122Z" transform="translate(-351.211 -114.408)" fill="#fff"/>
          <path id="Path_2437" data-name="Path 2437" d="M363.006,114.188a.126.126,0,0,1-.126-.126v-7.137a.126.126,0,0,1,.251,0v7.147a.126.126,0,0,1-.126.115Z" transform="translate(-354.668 -104.393)" fill="#fff"/>
          <path id="Path_2438" data-name="Path 2438" d="M367.736,115.543a.126.126,0,0,1-.126-.126v-2.441a.126.126,0,0,1,.251,0v2.441A.126.126,0,0,1,367.736,115.543Z" transform="translate(-358.134 -108.826)" fill="#fff"/>
          <path id="Path_2439" data-name="Path 2439" d="M386.576,102.725a.126.126,0,0,1-.126-.126V97.926a.126.126,0,1,1,.251,0V102.6A.126.126,0,0,1,386.576,102.725Z" transform="translate(-371.936 -97.8)" fill="#fff"/>
          <path id="Path_2440" data-name="Path 2440" d="M377.126,109.071a.126.126,0,0,1-.126-.126V105.3a.126.126,0,0,1,.251,0v3.65A.126.126,0,0,1,377.126,109.071Z" transform="translate(-365.013 -103.199)" fill="#fff"/>
        </g>
      </g>
    </g>
  </g>
</svg>
