<svg xmlns="http://www.w3.org/2000/svg" width="30.805" height="27.228" viewBox="0 0 30.805 27.228">
  <g id="Group_357" data-name="Group 357" transform="translate(0 -0.17)">
    <g id="Group_356" data-name="Group 356" transform="translate(0 0)">
      <circle id="Ellipse_90" data-name="Ellipse 90" cx="3.5" cy="3.5" r="3.5" transform="translate(11.866 0.17)" fill="#5d5e5d"/>
      <path id="Path_1189" data-name="Path 1189" d="M33.8,20.98V17.557a12.2,12.2,0,0,1-9.584-4.586l-2.293-2.738A3.388,3.388,0,0,0,19.309,9h-1.8a3.388,3.388,0,0,0-2.618,1.232L12.6,12.97A12.259,12.259,0,0,1,3,17.557V20.98a15.567,15.567,0,0,0,11.98-5.562v3.851L8.34,21.921a3.063,3.063,0,0,0,1.147,5.9h3.782v-.856a4.28,4.28,0,0,1,4.278-4.278h5.134a.856.856,0,0,1,0,1.711H17.547a2.564,2.564,0,0,0-2.567,2.567v.856H27.319a3.063,3.063,0,0,0,1.147-5.9l-6.64-2.653V15.418A15.567,15.567,0,0,0,33.8,20.98Z" transform="translate(-3 -0.428)" fill="#5d5e5d"/>
    </g>
  </g>
</svg>
