<svg xmlns="http://www.w3.org/2000/svg" width="25.646" height="23.682" viewBox="0 0 25.646 23.682">
  <g id="Icon_ionic-ios-book" data-name="Icon ionic-ios-book" transform="translate(-3.382 -4.5)">
    <path id="Path_57" data-name="Path 57" d="M9.42,4.507c3.337,0,6.168,1.721,6.168,5.058v.987h0V28.062a.121.121,0,0,1-.234.043V28.1a5.8,5.8,0,0,0-5.076-4.348,7.829,7.829,0,0,0-5.742,2.288.665.665,0,0,1-.407.179H3.851c-.228,0-.469-.167-.469-.376V7.967C3.376,5.987,6.084,4.507,9.42,4.507Z" transform="translate(0 -0.001)" fill="#5d5e5d"/>
    <path id="Path_58" data-name="Path 58" d="M24.871,4.5C21.534,4.5,18.7,6.221,18.7,9.558v.987h0V28.055a.121.121,0,0,0,.234.043v-.006a5.86,5.86,0,0,1,5.076-4.348,7.815,7.815,0,0,1,5.742,2.288.7.7,0,0,0,.407.179h.278c.228,0,.469-.167.469-.376V7.954C30.916,5.98,28.208,4.5,24.871,4.5Z" transform="translate(-1.881)" fill="#5d5e5d"/>
  </g>
</svg>
