<svg xmlns="http://www.w3.org/2000/svg" width="23.184" height="30.13" viewBox="0 0 23.184 30.13">
  <path id="Icon_ionic-ios-musical-notes" data-name="Icon ionic-ios-musical-notes" d="M29.224,3.389c-.34.065-14.63,2.839-14.935,2.9a.642.642,0,0,0-.587.579v17.39a2,2,0,0,1-.174.847,1.93,1.93,0,0,1-1.166.92c-.239.08-.565.152-.949.239-1.746.391-4.664,1.057-4.664,3.752a3.316,3.316,0,0,0,3.02,3.44,3.531,3.531,0,0,0,.514.051h0a8.94,8.94,0,0,0,3.708-.956,3.9,3.9,0,0,0,1.746-3.462V13.7a.575.575,0,0,1,.464-.565l11.009-2.224a.579.579,0,0,1,.7.565v9.481a2.076,2.076,0,0,1-.181.971,1.925,1.925,0,0,1-1.173.92c-.239.08-.637.152-1.021.239-1.746.391-4.664,1.05-4.664,3.744a3.322,3.322,0,0,0,3.027,3.5A5.985,5.985,0,0,0,25.3,30.26a8.3,8.3,0,0,0,2.644-.942,3.818,3.818,0,0,0,1.992-3.491V3.947A.574.574,0,0,0,29.224,3.389Z" transform="translate(-6.75 -3.375)" fill="#5d5e5d"/>
</svg>
