<svg id="noun_Frowning_Face_With_Open_Mouth_4106713" data-name="noun_Frowning Face With Open Mouth_4106713" xmlns="http://www.w3.org/2000/svg" width="35.238" height="35.238" viewBox="0 0 35.238 35.238">
  <path id="Path_1305" data-name="Path 1305" d="M23.119,7.48A15.639,15.639,0,1,1,7.48,23.119,15.639,15.639,0,0,1,23.119,7.48m0-1.98A17.619,17.619,0,1,0,40.738,23.119,17.619,17.619,0,0,0,23.119,5.5Z" transform="translate(-5.5 -5.5)"/>
  <ellipse id="Ellipse_102" data-name="Ellipse 102" cx="1.877" cy="1.877" rx="1.877" ry="1.877" transform="translate(9.832 10.23)"/>
  <ellipse id="Ellipse_103" data-name="Ellipse 103" cx="1.877" cy="1.877" rx="1.877" ry="1.877" transform="translate(21.652 10.23)"/>
  <path id="Path_1306" data-name="Path 1306" d="M39.381,53.08a6.381,6.381,0,0,1,6.381,6.381.938.938,0,0,1-.938.938H33.938A.938.938,0,0,1,33,59.461,6.381,6.381,0,0,1,39.381,53.08Zm4.407,5.442a4.5,4.5,0,0,0-8.813,0Z" transform="translate(-21.762 -33.967)"/>
</svg>
