<svg id="noun_frowning_face_4106720" data-name="noun_frowning face_4106720" xmlns="http://www.w3.org/2000/svg" width="35.238" height="35.238" viewBox="0 0 35.238 35.238">
  <path id="Path_1303" data-name="Path 1303" d="M23.119,7.48A15.639,15.639,0,1,1,7.48,23.119,15.639,15.639,0,0,1,23.119,7.48m0-1.98A17.619,17.619,0,1,0,40.738,23.119,17.619,17.619,0,0,0,23.119,5.5Z" transform="translate(-5.5 -5.5)"/>
  <path id="Path_1304" data-name="Path 1304" d="M39.381,53.08a6.381,6.381,0,0,1,6.381,6.381.938.938,0,0,1-1.877,0,4.5,4.5,0,0,0-9.008,0,.938.938,0,0,1-1.877,0,6.381,6.381,0,0,1,6.381-6.381Z" transform="translate(-21.762 -33.967)"/>
  <ellipse id="Ellipse_100" data-name="Ellipse 100" cx="1.877" cy="1.877" rx="1.877" ry="1.877" transform="translate(9.832 10.23)"/>
  <ellipse id="Ellipse_101" data-name="Ellipse 101" cx="1.877" cy="1.877" rx="1.877" ry="1.877" transform="translate(21.652 10.23)"/>
</svg>
