<svg id="noun_Expressionless_Face_4106719" data-name="noun_Expressionless Face_4106719" xmlns="http://www.w3.org/2000/svg" width="35.238" height="35.238" viewBox="0 0 35.238 35.238">
  <path id="Path_1299" data-name="Path 1299" d="M23.119,7.48A15.639,15.639,0,1,1,7.48,23.119,15.639,15.639,0,0,1,23.119,7.48m0-1.98A17.619,17.619,0,1,0,40.738,23.119,17.619,17.619,0,0,0,23.119,5.5Z" transform="translate(-5.5 -5.5)"/>
  <path id="Path_1300" data-name="Path 1300" d="M44.864,62.25H32.96a.96.96,0,0,1,0-1.92h11.9a.96.96,0,0,1,0,1.92Z" transform="translate(-21.293 -38.582)"/>
  <path id="Path_1301" data-name="Path 1301" d="M32.7,36.59H29.63a.96.96,0,0,1,0-1.92H32.7a.96.96,0,1,1,0,1.92Z" transform="translate(-19.449 -23.1)"/>
  <path id="Path_1302" data-name="Path 1302" d="M62.362,36.59H59.29a.96.96,0,1,1,0-1.92h3.072a.96.96,0,1,1,0,1.92Z" transform="translate(-37.305 -23.1)"/>
</svg>
