<svg id="noun_Squinting_Face_with_Open_Mouth_4106740" data-name="noun_Squinting Face with Open Mouth_4106740" xmlns="http://www.w3.org/2000/svg" width="35.238" height="35.238" viewBox="0 0 35.238 35.238">
  <path id="Path_1293" data-name="Path 1293" d="M23.119,7.48A15.639,15.639,0,1,1,7.48,23.119,15.639,15.639,0,0,1,23.119,7.48m0-1.98A17.619,17.619,0,1,0,40.738,23.119,17.619,17.619,0,0,0,23.119,5.5Z" transform="translate(-5.5 -5.5)"/>
  <path id="Path_1294" data-name="Path 1294" d="M40.107,54.9c3.165,0,4.653.765,5.017,1.045a5.017,5.017,0,0,1-10.033,0c.36-.28,1.848-1.045,5.017-1.045m0-2.09c-3.553,0-7.107.982-7.107,2.926a7.107,7.107,0,1,0,14.214,0C47.214,53.776,43.66,52.81,40.107,52.81Z" transform="translate(-22.488 -34.465)"/>
  <path id="Path_1295" data-name="Path 1295" d="M31.721,36.159a1.049,1.049,0,0,1-.74-1.785l.932-.932-.932-.936a1.045,1.045,0,0,1,1.476-1.476L34.129,32.7a1.041,1.041,0,0,1,0,1.476L32.456,35.85A1.028,1.028,0,0,1,31.721,36.159Z" transform="translate(-20.773 -20.856)"/>
  <path id="Path_1296" data-name="Path 1296" d="M63.051,30.67a1.045,1.045,0,0,1,.74,1.781l-.932.936.932.932A1.045,1.045,0,0,1,62.315,35.8l-1.672-1.672a1.041,1.041,0,0,1,0-1.476l1.672-1.672A1.024,1.024,0,0,1,63.051,30.67Z" transform="translate(-38.761 -20.799)"/>
</svg>
