<svg id="noun_smiling_face_4106745" data-name="noun_smiling face_4106745" xmlns="http://www.w3.org/2000/svg" width="35.235" height="35.235" viewBox="0 0 35.235 35.235">
  <path id="Path_1297" data-name="Path 1297" d="M23.118,7.48A15.638,15.638,0,1,1,7.48,23.118,15.638,15.638,0,0,1,23.118,7.48m0-1.98A17.618,17.618,0,1,0,40.735,23.118,17.618,17.618,0,0,0,23.118,5.5Z" transform="translate(-5.5 -5.5)"/>
  <ellipse id="Ellipse_98" data-name="Ellipse 98" cx="1.98" cy="1.98" rx="1.98" ry="1.98" transform="translate(9.767 10.163)"/>
  <ellipse id="Ellipse_99" data-name="Ellipse 99" cx="1.98" cy="1.98" rx="1.98" ry="1.98" transform="translate(21.509 10.163)"/>
  <path id="Path_1298" data-name="Path 1298" d="M39.73,62.8A6.73,6.73,0,0,1,33,56.07a.99.99,0,1,1,1.98,0,4.751,4.751,0,1,0,9.5,0,.99.99,0,1,1,1.98,0A6.73,6.73,0,0,1,39.73,62.8Z" transform="translate(-22.113 -35.451)"/>
</svg>
