<svg xmlns="http://www.w3.org/2000/svg" width="25.986" height="24" viewBox="0 0 25.986 24">
  <g id="noun_meditation_29971" transform="translate(-5 -6.897)">
    <g id="Group_360" data-name="Group 360" transform="translate(5 6.897)">
      <path id="Path_1196" data-name="Path 1196" d="M42.4,14.885A3.994,3.994,0,1,0,38.4,10.891,4,4,0,0,0,42.4,14.885Zm0-6.452a2.458,2.458,0,1,1-2.458,2.458A2.461,2.461,0,0,1,42.4,8.433Z" transform="translate(-29.278 -6.897)" fill="#5d5e5d"/>
      <path id="Path_1197" data-name="Path 1197" d="M29.344,40.217C28,40.047,26,38.052,24.486,35.367c-1.465-2.594-6.309-2.493-6.514-2.487a.721.721,0,0,0-.114.014.726.726,0,0,0-.112-.013c-.194-.006-4.781-.108-6.247,2.487-1.354,2.4-3.352,4.206-4.858,4.4a2.11,2.11,0,0,0-1.267.546,1.207,1.207,0,0,0-.359,1.068,2.207,2.207,0,0,0,2.62,1.458,8.6,8.6,0,0,0,5.809-3.3,4.649,4.649,0,0,1-1,4.171c-1.072-.152-3.242-.337-4.441.418A1.762,1.762,0,0,0,7.148,45.4a2.094,2.094,0,0,0,.63,1.936c.774.7,2.157.939,4.107.939,1.621,0,3.634-.163,6.013-.356l1.227-.1a.724.724,0,0,0,.2-.047,33.691,33.691,0,0,0,5.06.481c2.089,0,3.4-.381,4.012-1.167a1.866,1.866,0,0,0,.134-2c-.5-1.158-1.946-1.307-3.15-1.307-.379,0-.784.017-1.207.04a.615.615,0,0,0-.11-.115,4.644,4.644,0,0,1-1.344-3.915,8.774,8.774,0,0,0,5.631,3.5,2.817,2.817,0,0,0,1.757-.315,1.682,1.682,0,0,0,.863-1.143C31.078,41.166,30.615,40.378,29.344,40.217ZM8.736,46.508a1,1,0,0,1-.258-.971.59.59,0,0,1,.3-.448,6.239,6.239,0,0,1,3.31-.234,1.644,1.644,0,0,0,1.432,1.521c.349.088.653.187,1.005.3.239.078.5.162.794.251C12.011,47.17,9.525,47.223,8.736,46.508Zm18.544-1a.88.88,0,0,1,.014.907c-.19.244-.82.654-2.909.654a36.165,36.165,0,0,1-5.993-.657,21.685,21.685,0,0,1-3.4-.844c-.362-.118-.7-.23-1.1-.33-.3-.076-.484-.226-.459-.38.029-.184.38-.474,1.2-.474a5.575,5.575,0,0,1,1.634.287,13.554,13.554,0,0,0,4.048.526c1.02,0,2.039-.069,2.939-.13.774-.052,1.5-.1,2.13-.1C26.856,44.963,27.171,45.254,27.28,45.507Zm2.269-3.666a1.1,1.1,0,0,1-1.009.274c-2.045-.259-4.166-1.891-5.671-4.367a.7.7,0,0,0-.681-.306.645.645,0,0,0-.562.457c-.043.168-.929,3.779.878,6.027-.716.046-1.448.083-2.192.083a12.1,12.1,0,0,1-3.6-.458,7.056,7.056,0,0,0-2.079-.354c-.091,0-.179,0-.265.008a7.085,7.085,0,0,0-.033-5.387.665.665,0,0,0-.583-.38.687.687,0,0,0-.633.31,7.614,7.614,0,0,1-5.671,3.914,1.1,1.1,0,0,1-1.009-.274.269.269,0,0,1-.088-.252c.03-.067.175-.159.483-.2,2.4-.3,4.661-2.905,5.867-5.04,1.077-1.908,4.938-1.834,5-1.832a.773.773,0,0,0,.161-.013.775.775,0,0,0,.15.013c1.164-.032,4.373.236,5.274,1.832,1.4,2.474,3.672,5.216,5.867,5.494.308.039.452.131.483.2A.271.271,0,0,1,29.55,41.841Z" transform="translate(-5 -24.275)" fill="#5d5e5d"/>
    </g>
  </g>
</svg>
