<?xml version="1.0" encoding="UTF-8" standalone="no"?>
<!DOCTYPE svg PUBLIC "-//W3C//DTD SVG 1.1//EN" "http://www.w3.org/Graphics/SVG/1.1/DTD/svg11.dtd">
<svg xmlns="http://www.w3.org/2000/svg" version="1.1" viewBox="0 0 26 27" width="26" height="27">
<path fill="#5e5e5e" fill-opacity="0.996" d="
  M 12.81 0.00
  L 13.06 0.00
  Q 20.04 4.23 26.09 9.71
  L 26.00 27.00
  L 15.94 27.00
  C 13.56 24.17 22.67 25.25 23.83 25.25
  A 0.67 0.67 0.0 0 0 24.50 24.58
  L 24.50 11.50
  A 1.90 1.67 -74.1 0 0 23.80 10.03
  L 13.43 2.52
  A 0.74 0.69 -43.9 0 0 12.60 2.53
  L 1.97 10.03
  A 1.00 0.95 -18.0 0 0 1.55 10.80
  L 1.50 24.70
  A 0.56 0.55 0.0 0 0 2.06 25.25
  L 11.38 25.25
  A 0.85 0.77 89.3 0 0 12.15 24.38
  L 12.05 18.05
  A 0.82 0.74 -80.2 0 0 11.60 17.33
  Q 7.36 15.51 7.90 11.03
  A 1.02 1.02 7.8 0 1 9.08 10.14
  Q 14.32 10.98 13.82 15.75
  A 0.47 0.42 6.4 0 0 14.24 16.22
  L 17.57 16.55
  A 0.84 0.67 84.1 0 1 18.19 17.18
  Q 19.30 21.88 14.85 22.73
  A 1.48 1.47 -12.8 0 0 13.70 24.55
  Q 14.12 26.15 13.19 27.00
  L 0.00 27.00
  L 0.00 9.19
  Q 5.99 4.01 12.81 0.00
  Z
  M 11.9703 14.4646
  A 1.62 0.99 34.8 0 0 11.2050 12.7271
  A 1.62 0.99 34.8 0 0 9.3097 12.6154
  A 1.62 0.99 34.8 0 0 10.0750 14.3529
  A 1.62 0.99 34.8 0 0 11.9703 14.4646
  Z
  M 16.5945 18.7349
  A 1.67 0.92 -30.8 0 0 14.6889 18.7998
  A 1.67 0.92 -30.8 0 0 13.7255 20.4451
  A 1.67 0.92 -30.8 0 0 15.6311 20.3802
  A 1.67 0.92 -30.8 0 0 16.5945 18.7349
  Z"
/>
</svg>
