<svg id="Group_436" data-name="Group 436" xmlns="http://www.w3.org/2000/svg" xmlns:xlink="http://www.w3.org/1999/xlink" width="206.738" height="144.898" viewBox="0 0 206.738 144.898">
  <defs>
    <linearGradient id="linear-gradient" x1="-20.453" y1="1" x2="-20.453" gradientUnits="objectBoundingBox">
      <stop offset="0" stop-color="gray" stop-opacity="0.251"/>
      <stop offset="0.535" stop-color="gray" stop-opacity="0.122"/>
      <stop offset="1" stop-color="gray" stop-opacity="0.102"/>
    </linearGradient>
  </defs>
  <path id="Path_1878" data-name="Path 1878" d="M124.453,148.009H0V4L124.453,42.669Z" transform="translate(0 -3.111)" fill="#f2f2f2"/>
  <rect id="Rectangle_221" data-name="Rectangle 221" width="97.784" height="45.559" transform="translate(11.585 94.006)" fill="#3f3d56"/>
  <circle id="Ellipse_116" data-name="Ellipse 116" cx="13.598" cy="13.598" r="13.598" transform="translate(74.594 58.288)" fill="#3d5732"/>
  <line id="Line_7" data-name="Line 7" y1="24.666" x2="0.112" transform="translate(88.069 71.81)" fill="#3f3d56" stroke="#3f3d56" stroke-miterlimit="10" stroke-width="2"/>
  <circle id="Ellipse_117" data-name="Ellipse 117" cx="3.488" cy="3.488" r="3.488" transform="translate(84.692 68.322)" fill="#3f3d56"/>
  <path id="Path_1879" data-name="Path 1879" d="M494,481.885s-.45-10.719-10.671-9.52" transform="translate(-405.892 -394.873)" fill="#3f3d56"/>
  <circle id="Ellipse_118" data-name="Ellipse 118" cx="13.598" cy="13.598" r="13.598" transform="translate(17.632 30.988)" fill="#3d5732"/>
  <line id="Line_8" data-name="Line 8" y1="50.214" x2="0.782" transform="translate(30.46 44.57)" fill="#3f3d56" stroke="#3f3d56" stroke-miterlimit="10" stroke-width="2"/>
  <circle id="Ellipse_119" data-name="Ellipse 119" cx="3.488" cy="3.488" r="3.488" transform="translate(27.754 41.082)" fill="#3f3d56"/>
  <path id="Path_1880" data-name="Path 1880" d="M237.482,354.466s-.331-10.724-10.565-9.637" transform="translate(-206.462 -295.693)" fill="#3f3d56"/>
  <path id="Path_1881" data-name="Path 1881" d="M235.686,470s2.563-20.572-10.375-21.77" transform="translate(-205.212 -376.173)" fill="none" stroke="#3f3d56" stroke-miterlimit="10" stroke-width="2"/>
  <circle id="Ellipse_120" data-name="Ellipse 120" cx="3.488" cy="3.488" r="3.488" transform="translate(16.611 68.567)" fill="#3f3d56"/>
  <circle id="Ellipse_121" data-name="Ellipse 121" cx="13.598" cy="13.598" r="13.598" transform="translate(46.874 0.8)" fill="#3d5732"/>
  <line id="Line_9" data-name="Line 9" y1="82.273" transform="translate(60.48 14.448)" fill="#3f3d56" stroke="#3f3d56" stroke-miterlimit="10" stroke-width="2"/>
  <circle id="Ellipse_122" data-name="Ellipse 122" cx="3.488" cy="3.488" r="3.488" transform="translate(56.992 10.921)" fill="#3f3d56"/>
  <circle id="Ellipse_123" data-name="Ellipse 123" cx="3.488" cy="3.488" r="3.488" transform="translate(46.278 70.446)" fill="#3f3d56"/>
  <path id="Path_1882" data-name="Path 1882" d="M369.518,235.507s-.5-10.717-10.713-9.472" transform="translate(-309.039 -203.281)" fill="#3f3d56"/>
  <path id="Path_1883" data-name="Path 1883" d="M369.518,372.219s-.5-10.717-10.713-9.472" transform="translate(-309.039 -309.61)" fill="#3f3d56"/>
  <path id="Path_1884" data-name="Path 1884" d="M369.518,478.508s2.242-20.832-10.713-21.828" transform="translate(-309.039 -382.746)" fill="none" stroke="#3f3d56" stroke-miterlimit="10" stroke-width="2"/>
  <circle id="Ellipse_124" data-name="Ellipse 124" cx="3.488" cy="3.488" r="3.488" transform="translate(67.919 37.726)" fill="#3f3d56"/>
  <path id="Path_1885" data-name="Path 1885" d="M407.456,330.169s-2.242-19.72,10.713-20.717" transform="translate(-346.762 -268.238)" fill="none" stroke="#3f3d56" stroke-miterlimit="10" stroke-width="2"/>
  <path id="Path_1886" data-name="Path 1886" d="M520.76,239.778a4.889,4.889,0,1,1,4.889-4.889A4.889,4.889,0,0,1,520.76,239.778Zm0-9.334a4.445,4.445,0,1,0,4.445,4.445A4.445,4.445,0,0,0,520.76,230.444Z" transform="translate(-431.199 -206.443)" fill="#3f3d56"/>
  <path id="Path_1887" data-name="Path 1887" d="M174.76,133.778a4.889,4.889,0,1,1,4.889-4.889,4.889,4.889,0,0,1-4.889,4.889Zm0-9.334a4.445,4.445,0,1,0,4.445,4.445A4.445,4.445,0,0,0,174.76,124.444Z" transform="translate(-162.093 -124)" fill="#3f3d56"/>
  <path id="Path_1888" data-name="Path 1888" d="M677.76,459.778a4.889,4.889,0,1,1,4.889-4.889A4.889,4.889,0,0,1,677.76,459.778Zm0-9.334a4.445,4.445,0,1,0,4.445,4.445A4.445,4.445,0,0,0,677.76,450.444Z" transform="translate(-553.308 -377.551)" fill="#3f3d56"/>
  <circle id="Ellipse_125" data-name="Ellipse 125" cx="3" cy="3" r="3" transform="translate(101 37.991)" fill="#3f3d56"/>
  <ellipse id="Ellipse_126" data-name="Ellipse 126" cx="3" cy="2.5" rx="3" ry="2.5" transform="translate(123 90.991)" fill="#3f3d56"/>
  <path id="Path_1889" data-name="Path 1889" d="M259.323,597.892V547H238.655a43.114,43.114,0,0,1-86.228,0H134.871v50.892Z" transform="translate(-134.871 -452.994)" fill="#84a291"/>
  <path id="Path_1890" data-name="Path 1890" d="M256.985,590.114A43.114,43.114,0,0,0,300.1,547H213.871A43.114,43.114,0,0,0,256.985,590.114Z" transform="translate(-196.314 -452.994)" fill="#3d5732"/>
  <path id="Path_1891" data-name="Path 1891" d="M755.907,425.81a43.114,43.114,0,0,0,19.012-57.932L697.974,406.8A43.114,43.114,0,0,0,755.907,425.81Z" transform="translate(-572.832 -313.679)" fill="#84a291"/>
  <path id="Path_1892" data-name="Path 1892" d="M960.888,266.419c.143-.1.281-.2.416-.31a6.382,6.382,0,0,1-1.327,2.267h0c-.139.153-.288.3-.44.435,0-.035-.006-.07-.008-.105-.018-.34.007-.7.012-1.048A4.471,4.471,0,0,0,960.888,266.419Z" transform="translate(-776.254 -234.528)" fill="url(#linear-gradient)"/>
  <path id="Path_1893" data-name="Path 1893" d="M933.63,190.979a3.922,3.922,0,1,0-7.23-1.289,6.3,6.3,0,0,0-3.582,5.991,6.305,6.305,0,1,0,11.589,3.441c0-.1,0-.2-.008-.3A6.3,6.3,0,0,0,933.63,190.979Z" transform="translate(-746.912 -171.487)" fill="#2f2e41"/>
  <g id="Group_433" data-name="Group 433" transform="translate(174.883 16.97)" opacity="0.1">
    <path id="Path_1894" data-name="Path 1894" d="M942.28,200.614l.052-.027c-.013-.068-.021-.137-.03-.206,0,.014,0,.029-.006.043C942.288,200.488,942.284,200.551,942.28,200.614Z" transform="translate(-937.727 -200.377)"/>
    <path id="Path_1895" data-name="Path 1895" d="M935.373,229.439a6.279,6.279,0,0,1-.977,2.687c0,.1.008.2.008.3a6.3,6.3,0,0,1-12.589.508c-.014.17-.022.341-.022.514a6.306,6.306,0,1,0,12.612,0c0-.1,0-.2-.008-.3a6.286,6.286,0,0,0,1-3.959C935.389,229.272,935.383,229.355,935.373,229.439Z" transform="translate(-921.792 -222.783)"/>
    <path id="Path_1896" data-name="Path 1896" d="M975.566,200.362a3.906,3.906,0,0,1-.517,1.5c.11.113.214.232.316.353A3.923,3.923,0,0,0,975.566,200.362Z" transform="translate(-963.213 -200.362)"/>
  </g>
  <path id="Path_1897" data-name="Path 1897" d="M859.318,493.571a2.876,2.876,0,0,0,.287,1.032,1.141,1.141,0,0,0,.836.612,1.687,1.687,0,0,0,.922-.267,3.153,3.153,0,0,0,1.437-1.2,3.319,3.319,0,0,0,.195-1.8l-.377-4.808c-.908-.025-1.821-.025-2.728.025s-1.057.261-.932,1.138C859.208,490.049,859.086,491.823,859.318,493.571Z" transform="translate(-698.011 -406.424)" fill="#fbbebe"/>
  <path id="Path_1898" data-name="Path 1898" d="M969.088,510.414l2.161,3.491a.854.854,0,0,0,.47.442.738.738,0,0,0,.452-.078,5.64,5.64,0,0,0,1.8-1.495,3.338,3.338,0,0,0,.865-1.327,1.692,1.692,0,0,0-.432-1.591,5.23,5.23,0,0,0-.815-.582c-1.708-1.152-2.479-3.341-4.166-4.525a.658.658,0,0,0-.342-.147.707.707,0,0,0-.351.118l-2.305,1.264c-1,.546-.682.61.076,1.2A12.747,12.747,0,0,1,969.088,510.414Z" transform="translate(-781.136 -420.018)" fill="#fbbebe"/>
  <path id="Path_1899" data-name="Path 1899" d="M862.957,503.2a1.332,1.332,0,0,0-.97-.044,1.07,1.07,0,0,0-.505.8c-.06.321-.053.654-.142.968a3.274,3.274,0,0,1-.943,1.333,1.374,1.374,0,0,1-.592.412c-.311.08-.643-.066-.96-.011a1.045,1.045,0,0,0-.757.772,3.075,3.075,0,0,0-.037,1.132l.245,2.68a4.061,4.061,0,0,1,.01.985,10.423,10.423,0,0,1-.623,1.671,1.476,1.476,0,0,0,.3,1.646,1.191,1.191,0,0,0,1.138.1,2.644,2.644,0,0,0,.942-.715c1.455-1.587,2.105-3.737,3.237-5.569a10.846,10.846,0,0,0,.774-1.328c.155-.356.254-.733.38-1.1a10.983,10.983,0,0,1,.623-1.43c.135-.264.65-.9.542-1.194C865.431,503.8,863.448,503.354,862.957,503.2Z" transform="translate(-696.959 -418.834)" fill="#2f2e41"/>
  <path id="Path_1900" data-name="Path 1900" d="M992.087,523.885a2.77,2.77,0,0,1-1.531,1.312,1.381,1.381,0,0,0-.52.269.805.805,0,0,0-.091.883,2.831,2.831,0,0,0,.579.739,9.554,9.554,0,0,1,2.482,5,3.086,3.086,0,0,0,.411,1.364,2.056,2.056,0,0,0,2.564.276,1.658,1.658,0,0,0,.641-.52,2.085,2.085,0,0,0,.259-.791,10.91,10.91,0,0,0,.248-2.1,23.84,23.84,0,0,0-.756-3.917c-.339-1.86-.169-3.864-1.036-5.545a1.238,1.238,0,0,0-.4-.5,1.389,1.389,0,0,0-.7-.158q-1.174-.048-2.35-.021c-.22.005-.476.033-.59.221a.68.68,0,0,0,.088.637C991.871,521.988,992.657,522.747,992.087,523.885Z" transform="translate(-799.845 -432.127)" fill="#2f2e41"/>
  <path id="Path_1901" data-name="Path 1901" d="M846.393,382.321a1.209,1.209,0,0,0-.284,1.526c.174.288.485.555.417.884s-.491.457-.835.512a68.471,68.471,0,0,0-8.93,2.257l-3.086.929a9.2,9.2,0,0,0-2.564,1.065,4.615,4.615,0,0,0-1.613,1.927,9.523,9.523,0,0,0-.6,2.52,30.8,30.8,0,0,1-2.463,9.2l7.486,2.455a11,11,0,0,0,2.243.564,8.358,8.358,0,0,0,2.185-.106c-.047-1.671-.075-3.393-.121-5.065a14.2,14.2,0,0,0-.1-1.579c-.112-.8-.361-1.58-.438-2.385a1.9,1.9,0,0,1,1.295-.2,6.1,6.1,0,0,0,2.926-.793c.908-.468,1.753-1.051,2.656-1.529,1.5-.8,3.216-1.331,4.365-2.587-.585,2.23-1.967,4.173-2.235,6.463-.27,2.313.671,4.577,1.593,6.716l2.945,6.834c.325.755.758,1.6,1.56,1.783a2.356,2.356,0,0,0,1.478-.292c2.71-1.269,4.879-3.656,7.773-4.419-.216-1.433-1.348-2.618-1.989-3.917a23.118,23.118,0,0,1-1.078-3.5,4.648,4.648,0,0,0-2.069-2.907c-.517-.264-1.214-.493-1.262-1.071a1.212,1.212,0,0,1,.115-.538,7.013,7.013,0,0,1,1.761-2.564.78.78,0,0,0,.232-.29.875.875,0,0,0,.017-.345,4.054,4.054,0,0,1,1-2.549,9.48,9.48,0,0,0,1.512-2.338c.539-1.509,0-3.168-.529-4.68a4.731,4.731,0,0,0-.884-1.714,4.345,4.345,0,0,0-2.784-1.067C852.818,381.163,848.987,380.307,846.393,382.321Z" transform="translate(-672.743 -323.909)" fill="#2f2e41"/>
  <g id="Group_434" data-name="Group 434" transform="translate(173.31 58.309)" opacity="0.1">
    <path id="Path_1902" data-name="Path 1902" d="M914.713,386.926a.627.627,0,0,0,.473-.427.453.453,0,0,0,.008-.127c-.047.034-.094.067-.141.1a1.121,1.121,0,0,0-.34.451Z" transform="translate(-914.713 -386.372)"/>
  </g>
  <path id="Path_1903" data-name="Path 1903" d="M933.249,271.078a2.456,2.456,0,0,1-.759,2.022c-.184.154-.4.27-.574.431a1.552,1.552,0,0,0,.227,2.357,2.947,2.947,0,0,0,2.039.146,11.914,11.914,0,0,0,2.676-.7,4.441,4.441,0,0,0,2.109-1.728,2.6,2.6,0,0,1-1.2-2.148c-.045-.856.189-1.828-.353-2.492a2.2,2.2,0,0,0-2.3-.415c-.4.11-.786.263-1.187.371-.2.055-.873.056-1.005.205C932.679,269.4,933.226,270.646,933.249,271.078Z" transform="translate(-754.441 -236.323)" fill="#fbbebe"/>
  <path id="Path_1904" data-name="Path 1904" d="M933.249,271.078a2.456,2.456,0,0,1-.759,2.022c-.184.154-.4.27-.574.431a1.552,1.552,0,0,0,.227,2.357,2.947,2.947,0,0,0,2.039.146,11.914,11.914,0,0,0,2.676-.7,4.441,4.441,0,0,0,2.109-1.728,2.6,2.6,0,0,1-1.2-2.148c-.045-.856.189-1.828-.353-2.492a2.2,2.2,0,0,0-2.3-.415c-.4.11-.786.263-1.187.371-.2.055-.873.056-1.005.205C932.679,269.4,933.226,270.646,933.249,271.078Z" transform="translate(-754.441 -236.323)" opacity="0.1"/>
  <circle id="Ellipse_127" data-name="Ellipse 127" cx="4.431" cy="4.431" r="4.431" transform="translate(176.672 25.846)" fill="#fbbebe"/>
  <path id="Path_1905" data-name="Path 1905" d="M883.288,406.623a3.024,3.024,0,0,1-.417.984,4.609,4.609,0,0,0-.529,3.024,3.191,3.191,0,0,0,1.863,2.354,1.277,1.277,0,0,0,1.271-.079,4.264,4.264,0,0,1-.588-2.792.926.926,0,0,1,.124-.518.326.326,0,0,1,.468-.083,4.214,4.214,0,0,0,.346,1.779c.094.216.254.454.489.448.337-.009.429-.466.416-.8a8.934,8.934,0,0,0-.782-4.011,4.767,4.767,0,0,1-.658-1.35.8.8,0,0,0-.169-.473.6.6,0,0,0-.249-.116c-.381-.108-1.284-.443-1.6-.086C882.935,405.283,883.349,406.165,883.288,406.623Z" transform="translate(-716.177 -342.349)" fill="#fbbebe"/>
  <path id="Path_1906" data-name="Path 1906" d="M888.577,307.258c-.508-.057-.909.408-1.188.837a16.189,16.189,0,0,0-2.205,5.229,11.309,11.309,0,0,1-.8,2.8,2.71,2.71,0,0,0-.26.569,5.609,5.609,0,0,0-.041.917,14.661,14.661,0,0,1-.484,1.59c-.065.325-.052.661-.11.987a9.887,9.887,0,0,1-.616,1.623c-.353.958-.35,2.01-.61,3a1.037,1.037,0,0,1-.205.445,2.35,2.35,0,0,1-.689.365,1.493,1.493,0,0,0-.692,1.021,4.418,4.418,0,0,0-.024,1.268l.2,2.621c.21-.088.347-.326.522-.471a1.46,1.46,0,0,1,1.2-.132l.6.108a2.665,2.665,0,0,1,1.667.733c.311-.487.133-1.2.612-1.529.156-.105.348-.141.513-.233a1.144,1.144,0,0,0,.521-.92,3.379,3.379,0,0,0-.15-1.086,3.157,3.157,0,0,0,1.543-1.877,15.512,15.512,0,0,0,.713-2.9,74.148,74.148,0,0,0,1.389-11.774,5.654,5.654,0,0,0-.216-1.962C889.551,307.863,889.235,307.332,888.577,307.258Z" transform="translate(-714.886 -266.528)" fill="#d0cde1"/>
  <path id="Path_1907" data-name="Path 1907" d="M920.95,288.187a5.58,5.58,0,0,1-2.7,1.565,16.641,16.641,0,0,1-3.121.46,1.942,1.942,0,0,1-.965-.083.667.667,0,0,1-.4-.79.842.842,0,0,0,.116-.307c-.005-.27-.4-.292-.66-.212a6.668,6.668,0,0,0-4.129,3.175,9.594,9.594,0,0,0-.732,2.922,24.288,24.288,0,0,0-.244,7.916,25.632,25.632,0,0,1,.807,4.158c.018.792-.116,1.582-.11,2.375a1.194,1.194,0,0,0,.21.783c.123.143.308.232.393.4.143.28-.048.665.14.916.232.31.717.087,1.036-.131a8.247,8.247,0,0,1,5.483-1.38c2.322.249,4.63,1.487,6.882.868a3.319,3.319,0,0,1-.3-.536A15.68,15.68,0,0,1,923.295,299a14.024,14.024,0,0,0,1.556-3.616,6.885,6.885,0,0,0,.021-1.834,7.582,7.582,0,0,0-1.04-3.366A4.163,4.163,0,0,0,920.95,288.187Z" transform="translate(-736.087 -251.699)" fill="#d0cde1"/>
  <path id="Path_1908" data-name="Path 1908" d="M917.552,413.507a4.035,4.035,0,0,0-.255,1.508,8.825,8.825,0,0,0,.073,1.473,2.345,2.345,0,0,0,.43,1.157,1.059,1.059,0,0,0,1.106.393,1.161,1.161,0,0,0,.667-.742,6.8,6.8,0,0,0,.209-1.01,17.01,17.01,0,0,0,.732-2.974.838.838,0,0,0-.056-.356,2.019,2.019,0,0,0-1.593-.823C918.291,412.221,917.761,413.021,917.552,413.507Z" transform="translate(-743.409 -348.093)" fill="#fbbebe"/>
  <path id="Path_1909" data-name="Path 1909" d="M930.966,305.02c-.088.881.765,1.545,1.1,2.364a3.978,3.978,0,0,1,.232,1.189,56.96,56.96,0,0,1-.131,8.472,11.986,11.986,0,0,1-3.14,8.012,3.36,3.36,0,0,1-1.71,1.41l-3.934,1.906a7.611,7.611,0,0,0-1.4.8,3.822,3.822,0,0,0-1.157,1.506c-.763-.39-1.556-.74-2.319-1.13-.179-.091-.378-.21-.409-.409-.041-.266.237-.454.428-.643a3.85,3.85,0,0,0,.662-1.344c.633-1.518,2.226-2.49,2.8-4.032a6.149,6.149,0,0,1,.68-1.759,4.361,4.361,0,0,1,.751-.662,12.769,12.769,0,0,0,1.664-1.7,2.888,2.888,0,0,0,.544-.8,3.99,3.99,0,0,0,.129-1.4,17.748,17.748,0,0,1,1.151-4.453c.4-1.393.569-2.854,1.095-4.2A4.949,4.949,0,0,1,930.966,305.02Z" transform="translate(-744.036 -264.791)" opacity="0.1"/>
  <path id="Path_1910" data-name="Path 1910" d="M933.266,305.02c-.088.881.765,1.545,1.1,2.364a3.98,3.98,0,0,1,.233,1.189,56.985,56.985,0,0,1-.131,8.472,11.986,11.986,0,0,1-3.14,8.012,3.36,3.36,0,0,1-1.71,1.41l-3.934,1.906a7.617,7.617,0,0,0-1.4.8,3.824,3.824,0,0,0-1.157,1.506c-.763-.39-1.556-.74-2.319-1.13-.179-.091-.378-.21-.409-.409-.041-.266.237-.454.428-.643a3.852,3.852,0,0,0,.662-1.344c.633-1.518,2.226-2.49,2.8-4.032a6.148,6.148,0,0,1,.68-1.759,4.356,4.356,0,0,1,.751-.662,12.771,12.771,0,0,0,1.664-1.7,2.888,2.888,0,0,0,.544-.8,3.993,3.993,0,0,0,.129-1.4,17.74,17.74,0,0,1,1.151-4.453c.4-1.393.568-2.854,1.095-4.2A4.949,4.949,0,0,1,933.266,305.02Z" transform="translate(-745.825 -264.791)" fill="#d0cde1"/>
  <path id="Path_1911" data-name="Path 1911" d="M945.9,229.254a6.277,6.277,0,0,0-3.934.815c.175.007.351.018.527.04a6.305,6.305,0,0,1,2.422,11.706,6.3,6.3,0,0,0,.985-12.56Z" transform="translate(-762.6 -205.826)" fill="#2f2e41"/>
  <path id="Path_1912" data-name="Path 1912" d="M939.885,238.33a2.882,2.882,0,0,1,.05,2.209,2.822,2.822,0,0,0-.1-.269c-.779-1.734-3.18-2.452-5.363-1.6a4.395,4.395,0,0,0-2.59,2.468c-.556-1.677.573-3.6,2.644-4.408C936.7,235.878,939.106,236.6,939.885,238.33Z" transform="translate(-754.644 -211.397)" fill="#2f2e41"/>
  <g id="Group_435" data-name="Group 435" transform="translate(179.366 14.246)" opacity="0.1">
    <path id="Path_1913" data-name="Path 1913" d="M947.853,235.471a3.932,3.932,0,0,0-5.886-4.762c.175.007.35.018.527.04A6.307,6.307,0,0,1,947.853,235.471Z" transform="translate(-941.967 -220.713)"/>
    <path id="Path_1914" data-name="Path 1914" d="M952.454,214.765A3.932,3.932,0,0,0,946.568,210c.175.007.351.018.527.04A6.307,6.307,0,0,1,952.454,214.765Z" transform="translate(-945.545 -204.609)"/>
    <path id="Path_1915" data-name="Path 1915" d="M960.739,191.387a2.373,2.373,0,0,0-3.552-2.874c.106,0,.212.011.318.024A3.806,3.806,0,0,1,960.739,191.387Z" transform="translate(-953.804 -188.104)"/>
    <path id="Path_1916" data-name="Path 1916" d="M961.581,250.665a19.631,19.631,0,0,1-6.344,7.838,6.3,6.3,0,0,0,6.344-7.838Z" transform="translate(-952.287 -236.762)"/>
  </g>
  <line id="Line_10" data-name="Line 10" x1="0.815" y1="24.652" transform="translate(168.23 43.901)" fill="none" stroke="#3d5732" stroke-miterlimit="10" stroke-width="2"/>
  <circle id="Ellipse_128" data-name="Ellipse 128" cx="3.488" cy="3.488" r="3.488" transform="translate(164.742 40.413)" fill="#3d5732"/>
  <path id="Path_1917" data-name="Path 1917" d="M855.55,357.458s-.852-10.695-11.021-9.112" transform="translate(-686.817 -298.364)" fill="#3d5732"/>
</svg>
