<svg xmlns="http://www.w3.org/2000/svg" xmlns:xlink="http://www.w3.org/1999/xlink" width="208.888" height="218.847" viewBox="0 0 208.888 218.847">
  <defs>
    <linearGradient id="linear-gradient" x1="-0.396" y1="1" x2="-0.396" gradientUnits="objectBoundingBox">
      <stop offset="0" stop-color="gray" stop-opacity="0.251"/>
      <stop offset="0.535" stop-color="gray" stop-opacity="0.122"/>
      <stop offset="1" stop-color="gray" stop-opacity="0.102"/>
    </linearGradient>
  </defs>
  <g id="undraw_Crypto_flowers_bjmo" transform="matrix(1, -0.017, 0.017, 1, -0.676, 2.002)" opacity="0.95">
    <path id="Path_8" data-name="Path 8" d="M614.223,186.032c-13.161,48.653-58.242,78.785-58.242,78.785s-23.742-48.75-10.581-97.4,58.242-78.784,58.242-78.784S627.385,137.379,614.223,186.032Z" transform="translate(-464.684 -71.943)" fill="#3f3d56"/>
    <path id="Path_9" data-name="Path 9" d="M397.1,186.032c13.161,48.653,58.242,78.785,58.242,78.785s23.742-48.75,10.58-97.4-58.242-78.784-58.242-78.784S383.943,137.379,397.1,186.032Z" transform="translate(-349.538 -71.943)" fill="#a8c7a3"/>
    <path id="Path_10" data-name="Path 10" d="M288.385,268.991c36.115,35.157,40.527,89.2,40.527,89.2s-54.143-2.956-90.258-38.113-40.526-89.2-40.526-89.2S252.27,233.834,288.385,268.991Z" transform="translate(-198.127 -192.144)" fill="#3f3d56"/>
    <path id="Path_11" data-name="Path 11" d="M619.62,268.991c-36.115,35.157-40.526,89.2-40.526,89.2s54.143-2.956,90.258-38.113,40.526-89.2,40.526-89.2S655.736,233.834,619.62,268.991Z" transform="translate(-517.596 -192.144)" fill="#3f3d56"/>
    <circle id="Ellipse_7" data-name="Ellipse 7" cx="16.635" cy="16.635" r="16.635" transform="translate(81.469 0)" fill="#a8c7a3"/>
    <ellipse id="Ellipse_6" data-name="Ellipse 6" cx="52.173" cy="7.939" rx="52.173" ry="7.939" transform="translate(46.301 145.235)" opacity="0.1"/>
    <path id="Path_7" data-name="Path 7" d="M433.16,617.089h-8.317v70.319s53.685,17.391,105.857,0V617.089Z" transform="translate(-378.823 -482.287)" fill="#3f3d56"/>
    <path id="Path_12" data-name="Path 12" d="M266.186,383.153c1.18,4.28,5.278,6.884,5.278,6.884s2.186-4.335,1.006-8.615-5.277-6.884-5.277-6.884S265.007,378.873,266.186,383.153Z" transform="translate(-242.592 -286.968)" fill="#a8c7a3"/>
    <path id="Path_13" data-name="Path 13" d="M330.382,456.114c-1.27,4.254.824,8.635.824,8.635s4.152-2.517,5.422-6.771-.824-8.635-.824-8.635S331.652,451.86,330.382,456.114Z" transform="translate(-291.854 -342.179)" fill="#a8c7a3"/>
    <path id="Path_14" data-name="Path 14" d="M216.186,503.153c1.18,4.28,5.277,6.884,5.277,6.884s2.186-4.335,1.006-8.615-5.277-6.884-5.277-6.884S215.007,498.874,216.186,503.153Z" transform="translate(-209.757 -375.554)" fill="#a8c7a3"/>
    <path id="Path_23" data-name="Path 23" d="M817.034,504.326l1.6,4.564-1.232,7.666s-1.862,6.115-1.676,9.08,0,7.042,0,7.042-4.469,8.154-.745,11.489a1.358,1.358,0,0,0,2.191-.075,19.157,19.157,0,0,0,1.868.906l-3.128,12.141-2.979,5.93s-6.331,5.374-8.751,16.677c0,0-2.415,7.531-3.953,9.779a3.073,3.073,0,0,1-.229.3,12.7,12.7,0,0,1-.66-1.187l-2.793,7.412a69.4,69.4,0,0,0,9.5,4.447c3.91,1.3,8.379-.185,9.682-1.853s-2.607-3.521-5.4-4.633a4.67,4.67,0,0,1-2.5-3c-.036-.363-.066-.77-.078-1.211a10.783,10.783,0,0,1,2.018-7.1c3.165-3.891,8.006-13.527,8.006-13.527s4.841-5.188,5.958-7.227l6.7-11.191c3.719,4.215,7.447,14.156,7.447,14.156l1.49,9.08s4.841,12.971,6.33,14.268c.042.036.083.077.124.12l.038.041q.045.049.09.1l.036.044c.039.049.078.1.116.155l.028.041q.045.065.09.135l.042.067c.027.043.053.088.079.133l.037.063q.053.1.106.2l.037.073c.025.048.049.1.073.147l.042.087q.038.08.075.162l.031.068q.049.111.1.226l.037.089.066.163.036.092q.041.106.082.214l.02.053q.044.117.086.235l.031.088q.033.093.065.187l.027.079q.044.13.086.261l.012.036q.037.116.073.231l.024.078q.033.106.064.211l.016.054q.039.131.077.261l.015.053.058.206.021.075.054.2.015.057.06.223.028.108.028.107.034.132.009.036c.043.17.083.331.118.479l.044.185.02.087.006.024a6.919,6.919,0,0,1-.778-.6,21.182,21.182,0,0,1,0,3.706c-.186,1.853,1.676,4.447,1.676,4.447s16.757-4.077,17.688-6.856-2.979-2.409-4.1-2.038-6.7-.741-7.448-2.038a3.584,3.584,0,0,0-.5-.663,1.06,1.06,0,0,0-1.292-.213l-.042-.047-.049-.059-.033-.041-.06-.078,0-.006c-.041-.055-.082-.115-.123-.178l-.044-.068q-.112-.176-.226-.382l-.014-.026a47.16,47.16,0,0,1-2.761-7.646l-.007-.023-.024-.086-.009-.032-.007-.023-.012-.043,0-.01,0-.011-4.282-13.9c1.3-5,0-7.412,0-7.412l-2.42-11.3-1.366-5.119c.042-.044.063-.07.063-.07-1.113-3.115-1.987-9.719-2.53-14.824q-.053-.5-.1-.972l4.121,1.9s5.586,8.524,9.123,4.447-7.075-7.6-7.075-7.6l-6.688-4.437c-.01-.126-.015-.2-.015-.2l-.745-5.559s-2.048-6.671-1.117-11.118c.793-3.788-1.791-5.156-2.575-5.479a2.49,2.49,0,0,0-.379-.112,7.2,7.2,0,0,1-3.126-2.394,12.261,12.261,0,0,0-2.9-2.435,2.853,2.853,0,0,0,1.218-1.8,5.4,5.4,0,0,0-.4-2.543,22.711,22.711,0,0,1,1.319-2.7l.03,0q.117-.2.227-.376a8.049,8.049,0,0,0,6.142-11.891c.834-.289,1.635-.656,1.333-1.512a4.423,4.423,0,0,0-1.172-1.4c-1.122-1.18-1.464-2.951-2.637-4.08a4.012,4.012,0,0,0-1.16-.769,6.2,6.2,0,0,0-4.1-.509,51.669,51.669,0,0,0-4.959,1.546,38.176,38.176,0,0,0-4.4,1.24,10.81,10.81,0,0,0-5.341,5.435c-.977,2.073-1.43,4.369-2.5,6.4s-3.029,3.854-5.328,3.775a4.588,4.588,0,0,0-1.766.044,2.157,2.157,0,0,0-1.027.937c-1.263,2.056-.451,4.825-1.455,7.017-.747,1.631-2.356,2.661-3.675,3.881s-2.454,3.044-1.831,4.725a3.444,3.444,0,0,0,1.907,1.87,4.845,4.845,0,0,0,1.392.511,14.2,14.2,0,0,0,3.816.011c3.443-.243,7.209-.113,9.943-2.211a18.091,18.091,0,0,0,2.894-3.181,23.791,23.791,0,0,0,.583,5.084Zm4.958,11.653c.279.462.564.921.859,1.374,2.737,4.2-.976,9.951-.976,9.951a10.068,10.068,0,0,0-2.154,2.449,15.88,15.88,0,0,1,.851-5.228c.927-2.241,1.289-6.356,1.42-8.545Z" transform="translate(-662.314 -382.765)" fill="url(#linear-gradient)"/>
    <path id="Path_24" data-name="Path 24" d="M852.862,586l-1.455,9.05s-1.819,5.973-1.637,8.869,0,6.878,0,6.878-4.365,7.964-.727,11.221,4.728-10.316,4.728-10.316-.546-5.792.727-8.868,1.455-9.773,1.455-9.773Z" transform="translate(-686.974 -446.881)" fill="#ffcdd3"/>
    <path id="Path_25" data-name="Path 25" d="M852.862,586l-1.455,9.05s-1.819,5.973-1.637,8.869,0,6.878,0,6.878-4.365,7.964-.727,11.221,4.728-10.316,4.728-10.316-.546-5.792.727-8.868,1.455-9.773,1.455-9.773Z" transform="translate(-686.974 -446.881)" opacity="0.05"/>
    <path id="Path_26" data-name="Path 26" d="M893.288,676.645l2.516,9.423,2.364,11.04s1.273,2.353,0,7.24l4.182,13.574s2.364,8.688,3.819,8.869-1.455,6.878-1.455,6.878l-4-2.353s-1.091-5.43-2.546-6.7-6.183-13.936-6.183-13.936l-1.455-8.868s-4.546-12.126-8.547-15.022a15.353,15.353,0,0,1-5.274-7.6Z" transform="translate(-713.041 -521.397)" fill="#ffcdd3"/>
    <path id="Path_27" data-name="Path 27" d="M876.709,679.192a15.354,15.354,0,0,0,5.274,7.6c4,2.9,8.547,15.022,8.547,15.022l1.455,8.868s4.728,12.669,6.183,13.936c1.067.93,1.94,4.1,2.328,5.725.142.588.218.972.218.972l4,2.353s2.91-6.7,1.455-6.877c-.225-.027-.473-.261-.731-.633-1.4-2.031-3.088-8.235-3.088-8.235l-4.183-13.575c1.273-4.887,0-7.24,0-7.24l-2.364-11.04-2.515-9.422Z" transform="translate(-713.041 -521.399)" opacity="0.05"/>
    <path id="Path_28" data-name="Path 28" d="M808.9,732.849l1.455,3.439,6.547-.724a15.035,15.035,0,0,1-.335-2.841,10.533,10.533,0,0,1,1.971-6.932c3.092-3.8,7.82-13.212,7.82-13.212s4.728-5.068,5.819-7.059l9.1-15.2L841,688.958l2.455-2.262H828.181l-3.637,14.117-2.91,5.792s-6.183,5.249-8.547,16.289c0,0-2.359,7.356-3.861,9.551A2.646,2.646,0,0,1,808.9,732.849Z" transform="translate(-668.513 -527.998)" fill="#ffcdd3"/>
    <path id="Path_29" data-name="Path 29" d="M946,825.058c.142.588.218.972.218.972l4,2.353s2.91-6.7,1.455-6.878c-.225-.027-.473-.26-.731-.633a1.019,1.019,0,0,0-.466,1.128,2.806,2.806,0,0,0,.287.773c.546.9-1.818,2.353-1.818,2.353C948.147,826.144,946.854,825.606,946,825.058Z" transform="translate(-758.543 -616.111)" opacity="0.1"/>
    <path id="Path_30" data-name="Path 30" d="M949.31,822.739a1.057,1.057,0,0,1,1.8-.96,3.508,3.508,0,0,1,.489.647c.727,1.267,6.183,2.353,7.274,1.991s4.91-.724,4,1.991-17.276,6.7-17.276,6.7-1.818-2.534-1.637-4.344a20.674,20.674,0,0,0,0-3.62s2.546,2.353,3.819.724c0,0,2.364-1.448,1.819-2.353A2.794,2.794,0,0,1,949.31,822.739Z" transform="translate(-757.196 -616.49)" fill="#dce6f2"/>
    <path id="Path_32" data-name="Path 32" d="M808.665,818.738a.9.9,0,0,1,1.522.375,4.974,4.974,0,0,0,2.637,3.579c2.728,1.086,6.547,2.9,5.274,4.525s-5.638,3.077-9.456,1.81a67.746,67.746,0,0,1-9.274-4.344l2.728-7.24s1.455,3.077,2.546,2.715c0,0,2.364.543,3.092-.362C807.987,819.482,808.328,819.1,808.665,818.738Z" transform="translate(-653.892 -612.829)" fill="#dce6f2"/>
    <path id="Path_33" data-name="Path 33" d="M875.468,516.186s-4.364,5.973-3.273,10.135-8.729-2.715-8.729-2.715a14.426,14.426,0,0,0,4.182-11.945Z" transform="translate(-704.344 -388.268)" fill="#ffcdd3"/>
    <path id="Path_34" data-name="Path 34" d="M856.186,593.422c7.274,4.344,16,2.534,16,2.534l-.182-1.267.378.036c6.952.612,8.533-1.484,8.533-1.484-1.088-3.042-1.941-9.493-2.471-14.479-.076-.717-.146-1.4-.209-2.045-.144-1.453-.251-2.677-.32-3.5-.06-.728-.091-1.147-.091-1.147l-.727-5.43s-2-6.516-1.091-10.859c.775-3.7-1.749-5.036-2.515-5.351a2.449,2.449,0,0,0-.37-.109,7.027,7.027,0,0,1-3.053-2.339,12.263,12.263,0,0,0-5.1-3.464c-.915-.331-1.691-.682-1.691-.682-1.273-1.448-4.728-.543-4.728-.543-4.183,2.715-2,11.583-2,11.583l1.739,4.945a36.652,36.652,0,0,0,3.943,7.779c2.673,4.1-.953,9.719-.953,9.719C855.641,581.838,856.186,593.422,856.186,593.422Z" transform="translate(-699.429 -418.112)" fill="#ff8aa1"/>
    <path id="Path_35" data-name="Path 35" d="M901.871,649.487l.651,9.719c6.952.612,8.533-1.484,8.533-1.484-1.088-3.042-1.941-9.493-2.472-14.479-.076-.717-.145-1.4-.209-2.045Z" transform="translate(-729.565 -484.308)" opacity="0.05"/>
    <path id="Path_36" data-name="Path 36" d="M864.857,576.922s3.273,6.154,4.365,8.868,1.091,1.81,1.637,2.715,6.365,4.887,6.365,4.887l5.894,2.715c-.249-2.338-.429-4.357-.529-5.549l-5.547-3.682s-3.819-2.353-4-5.43-2.546-8.688-2.546-8.688-4.728-5.068-6.729-2.715S864.857,576.922,864.857,576.922Z" transform="translate(-704.099 -432.724)" opacity="0.1"/>
    <path id="Path_37" data-name="Path 37" d="M870.495,570.123s2.364,5.611,2.546,8.688,4,5.43,4,5.43l12,7.964s10.366,3.439,6.911,7.421-8.911-4.344-8.911-4.344l-9.82-4.525s-5.819-3.982-6.365-4.887-.546,0-1.637-2.715-4.365-8.868-4.365-8.868-3.091-4.525-1.091-6.878S870.495,570.123,870.495,570.123Z" transform="translate(-704.099 -432.074)" fill="#ffcdd3"/>
    <path id="Path_38" data-name="Path 38" d="M869.064,566.743a45.162,45.162,0,0,1-4.365-3.62,1.026,1.026,0,0,0-1.276-.15,5.757,5.757,0,0,1-2.7.444c-.8-.068-1.568-.023-1.478.43.182.9-.545-4.706-.545-4.706l3.092-1.086,4,2.172Z" transform="translate(-701.213 -421.393)" opacity="0.1"/>
    <path id="Path_39" data-name="Path 39" d="M869.064,565.689a45.159,45.159,0,0,1-4.365-3.62,1.026,1.026,0,0,0-1.276-.15,5.756,5.756,0,0,1-2.7.444c-.8-.068-1.568-.023-1.478.43.182.905-.545-4.706-.545-4.706L861.79,557l4,2.172Z" transform="translate(-701.213 -420.617)" fill="#ff8aa1"/>
    <path id="Path_40" data-name="Path 40" d="M905.979,582.843a4.48,4.48,0,0,1-4.109-.272" transform="translate(-729.564 -438.209)" opacity="0.1"/>
    <path id="Path_41" data-name="Path 41" d="M876.484,512.4c.136-1.082-1.21,1.165-1.364-.09l7.82,4.525s-.446.612-1.017,1.578a7.983,7.983,0,0,1-.892.051C878.677,518.46,877.933,514.02,876.484,512.4Z" transform="translate(-711.997 -387.24)" opacity="0.1"/>
    <ellipse id="Ellipse_5" data-name="Ellipse 5" cx="52.173" cy="7.939" rx="52.173" ry="7.939" transform="translate(46.301 145.235)" fill="#3f3d56"/>
    <ellipse id="Ellipse_8" data-name="Ellipse 8" cx="7.911" cy="7.873" rx="7.911" ry="7.873" transform="translate(161.304 116.118)" fill="#ffcdd3"/>
    <path id="Path_42" data-name="Path 42" d="M835.283,484.174a4.013,4.013,0,0,1-.285,1.455c-.331.614-1.044.894-1.64,1.259-2.416,1.482-3.133,4.815-2.363,7.534a6.646,6.646,0,0,1,.524,2.922c-.307,1.69-2.242,2.567-3.961,2.717s-3.519-.127-5.127.5c-2.7,1.049-3.89,4.2-6.186,5.963-2.67,2.049-6.348,1.922-9.711,2.159a13.87,13.87,0,0,1-3.727-.011,3.751,3.751,0,0,1-2.858-2.144c-.609-1.642.5-3.423,1.788-4.615s2.86-2.2,3.589-3.791c.98-2.141.188-4.846,1.421-6.854a2.107,2.107,0,0,1,1-.915,4.478,4.478,0,0,1,1.725-.043c2.246.077,4.161-1.706,5.2-3.687s1.486-4.223,2.44-6.248a10.559,10.559,0,0,1,5.217-5.309,37.266,37.266,0,0,1,4.3-1.211,50.467,50.467,0,0,1,4.844-1.51,5.462,5.462,0,0,1,4.77,1.068c1.146,1.1,1.48,2.832,2.576,3.985a4.324,4.324,0,0,1,1.145,1.37c.472,1.34-1.818,1.454-2.582,1.99A5,5,0,0,0,835.283,484.174Z" transform="translate(-662.519 -362.1)" opacity="0.1"/>
    <path id="Path_43" data-name="Path 43" d="M834.223,483.646a4.014,4.014,0,0,1-.285,1.456c-.331.614-1.044.894-1.64,1.259-2.416,1.482-3.133,4.815-2.363,7.534a6.645,6.645,0,0,1,.524,2.922c-.307,1.69-2.242,2.567-3.961,2.717s-3.519-.127-5.127.5c-2.7,1.048-3.89,4.2-6.185,5.963-2.67,2.049-6.348,1.922-9.711,2.159a13.87,13.87,0,0,1-3.727-.011A3.751,3.751,0,0,1,798.889,506c-.609-1.642.5-3.423,1.788-4.615s2.86-2.2,3.589-3.791c.98-2.141.188-4.846,1.421-6.854a2.107,2.107,0,0,1,1-.915,4.478,4.478,0,0,1,1.725-.043c2.246.077,4.161-1.706,5.2-3.687s1.486-4.223,2.44-6.248a10.558,10.558,0,0,1,5.217-5.309,37.3,37.3,0,0,1,4.3-1.211,50.509,50.509,0,0,1,4.844-1.51,5.462,5.462,0,0,1,4.77,1.068c1.146,1.1,1.48,2.832,2.576,3.985a4.321,4.321,0,0,1,1.145,1.37c.472,1.34-1.818,1.453-2.582,1.99A5,5,0,0,0,834.223,483.646Z" transform="translate(-661.823 -361.707)" fill="#a8c7a3"/>
  </g>
</svg>
