<svg xmlns="http://www.w3.org/2000/svg" width="84" height="97" viewBox="0 0 84 97">
  <g id="noun_notification_3267506" transform="translate(-31 -51)">
    <g id="Group_383" data-name="Group 383" transform="translate(31 51)">
      <path id="Path_1221" data-name="Path 1221" d="M60.856,61.1V86.8A10.418,10.418,0,0,1,50.281,97H10.575A10.418,10.418,0,0,1,0,86.8V10.2A10.427,10.427,0,0,1,10.575,0H50.281A10.425,10.425,0,0,1,60.856,10.2V25.532H77.872A6.032,6.032,0,0,1,84,31.443V55.185A6.032,6.032,0,0,1,77.872,61.1ZM3.5,77.886H57.353v-15.6L44.484,68.44a1.743,1.743,0,0,1-2.517-1.6l0-5.746H39.406a6.032,6.032,0,0,1-6.128-5.911V31.443a6.032,6.032,0,0,1,6.128-5.911H57.353V17.995H3.5Zm53.849,3.379H3.5V86.8a6.976,6.976,0,0,0,7.071,6.821H50.281A6.976,6.976,0,0,0,57.353,86.8ZM3.5,14.615H57.353V10.2a6.968,6.968,0,0,0-7.071-6.819H10.575A6.972,6.972,0,0,0,3.5,10.2v4.417Zm74.368,14.3H39.406a2.589,2.589,0,0,0-2.625,2.532V55.185a2.589,2.589,0,0,0,2.625,2.532h4.3a1.727,1.727,0,0,1,1.744,1.69l0,4.81,13.094-6.262a1.778,1.778,0,0,1,.893-.237h18.43A2.589,2.589,0,0,0,80.5,55.185V31.443a2.589,2.589,0,0,0-2.625-2.532Z" transform="translate(0 0)" fill="#313f2b"/>
      <path id="Path_1222" data-name="Path 1222" d="M233.855,189.55a1.465,1.465,0,0,1,0-2.93h14.758a1.465,1.465,0,0,1,0,2.93Z" transform="translate(-181.678 -149.211)" fill="#313f2b"/>
      <path id="Path_1223" data-name="Path 1223" d="M233.855,233.61a1.465,1.465,0,0,1,0-2.93h14.758a1.465,1.465,0,0,1,0,2.93Z" transform="translate(-181.678 -184.439)" fill="#313f2b"/>
      <circle id="Ellipse_93" data-name="Ellipse 93" cx="2.631" cy="2.631" r="2.631" transform="translate(27.644 85.76)" fill="#313f2b"/>
    </g>
  </g>
</svg>
