<svg xmlns="http://www.w3.org/2000/svg" width="84.671" height="99.665" viewBox="0 0 84.671 99.665">
  <g id="noun_greenhouse_3634675" transform="translate(-2 12.166)">
    <g id="Group_388" data-name="Group 388" transform="translate(2 -12.166)">
      <path id="Path_1224" data-name="Path 1224" d="M43.335.834,1,30.654V100.5H85.671V30.654ZM72.014,90.718V89.277c0-3.872,2.35-7.11,5.463-7.854v1.441C77.477,86.734,75.127,89.973,72.014,90.718ZM63.82,82.864V81.423c3.112.745,5.463,3.982,5.463,7.854v1.441C66.171,89.974,63.82,86.736,63.82,82.864Zm16.388,0v-4.81H78.843a9.385,9.385,0,0,0-8.194,5.472,9.385,9.385,0,0,0-8.194-5.472H61.089v4.81a12.2,12.2,0,0,0,2.883,8.016H58.358V62.022H82.94V90.88H77.325A12.2,12.2,0,0,0,80.208,82.864ZM44.7,90.718V89.277c0-3.872,2.35-7.11,5.463-7.854v1.441C50.164,86.734,47.813,89.973,44.7,90.718Zm-8.194-7.854V81.423c3.112.745,5.463,3.982,5.463,7.854v1.441C38.857,89.974,36.507,86.736,36.507,82.864Zm16.388,0v-4.81H51.529a9.385,9.385,0,0,0-8.194,5.472,9.385,9.385,0,0,0-8.194-5.472H33.776v4.81a12.2,12.2,0,0,0,2.883,8.016H31.045V62.022H55.626V90.88H50.012A12.2,12.2,0,0,0,52.9,82.864ZM17.388,90.718V89.277c0-3.872,2.35-7.11,5.463-7.854v1.441C22.851,86.734,20.5,89.973,17.388,90.718ZM9.194,82.864V81.423c3.112.745,5.463,3.982,5.463,7.854v1.441C11.544,89.974,9.194,86.736,9.194,82.864Zm16.388,0v-4.81H24.216a9.385,9.385,0,0,0-8.194,5.472,9.385,9.385,0,0,0-8.194-5.472H6.463v4.81A12.2,12.2,0,0,0,9.346,90.88H3.731V62.022H28.313V90.88H22.7A12.2,12.2,0,0,0,25.582,82.864Zm30.045-49.7V58.816H31.045V33.164ZM32,29.958,43.335,6,54.672,29.958Zm-3.123,0H7.3l32.369-22.8Zm-.563,3.206V58.816H3.731V33.164ZM58.358,58.816V33.164H82.94V58.816ZM57.8,29.958,47,7.157l32.369,22.8ZM3.731,97.293V94.086H82.94v3.206Z" transform="translate(-1 -0.834)"/>
      <rect id="Rectangle_153" data-name="Rectangle 153" width="2.731" height="17.382" transform="translate(9.959 39.011) rotate(-45)"/>
      <rect id="Rectangle_154" data-name="Rectangle 154" width="2.731" height="7.726" transform="translate(5.863 43.325) rotate(-45)"/>
      <rect id="Rectangle_155" data-name="Rectangle 155" width="2.731" height="17.382" transform="translate(37.272 39.011) rotate(-45)"/>
      <rect id="Rectangle_156" data-name="Rectangle 156" width="2.731" height="7.726" transform="translate(33.176 43.325) rotate(-45)"/>
      <rect id="Rectangle_157" data-name="Rectangle 157" width="2.731" height="17.382" transform="translate(64.585 39.012) rotate(-45)"/>
      <rect id="Rectangle_158" data-name="Rectangle 158" width="2.731" height="7.726" transform="translate(60.489 43.325) rotate(-45)"/>
    </g>
  </g>
</svg>
