<svg xmlns="http://www.w3.org/2000/svg" width="290.094" height="208.642" viewBox="0 0 290.094 208.642">
  <g id="Customer_Survey-pana" data-name="Customer Survey-pana" transform="translate(-92.9 -41.617)">
    <g id="freepik--background-complete--inject-3" transform="translate(94.59 92.061)">
      <path id="Path_1093" data-name="Path 1093" d="M475,193.352v21.723a7.09,7.09,0,0,0,7.12,6.967H560a7.12,7.12,0,0,0,7.134-7.115V196.565l9.7-10.189-94.7-.3A7.154,7.154,0,0,0,475,193.352Z" transform="translate(-288.427 -165.347)" fill="#f5f5f5"/>
      <path id="Path_1094" data-name="Path 1094" d="M565.868,210.223l-70.7-.33.01-2.173,70.693.33Z" transform="translate(-298.66 -176.325)" fill="#e0e0e0"/>
      <path id="Path_1095" data-name="Path 1095" d="M565.868,224.733l-70.7-.33.01-2.173,70.693.33Z" transform="translate(-298.66 -183.686)" fill="#e0e0e0"/>
      <rect id="Rectangle_95" data-name="Rectangle 95" width="2.173" height="27.971" transform="translate(239.228 47.874) rotate(-89.72)" fill="#e0e0e0"/>
      <path id="Path_1096" data-name="Path 1096" d="M158.546,348.2c10.894-7.612,13.362-21.738,12.933-34.44-.074-2.119.158-4.356-.847-6.213s-3.36-3.134-5.262-2.237c-1.572.739-2.257,2.572-3.139,4.085a12.4,12.4,0,0,1-4.971,4.75c-1.35.7-3.02,1.128-4.351.394-1.833-1.01-2.045-3.538-2.035-5.646l.074-11.785a20.65,20.65,0,0,0-.636-6.262,6.545,6.545,0,0,0-4.109-4.434,3.98,3.98,0,0,0-4.927,2.656,20.238,20.238,0,0,0-.064,2.626,2.226,2.226,0,0,1-1.3,2.089,2.533,2.533,0,0,1-2.316-.985,27.936,27.936,0,0,1-5.031-7.6,38.706,38.706,0,0,0-4.7-7.839,11.417,11.417,0,0,0-7.726-4.336c-3.02-.172-6.238,1.695-7,4.661s.985,5.986,2.853,8.376a47.109,47.109,0,0,0,9.8,9.361,4.021,4.021,0,0,1,1.641,1.759c.453,1.409-.877,2.8-2.262,3.267-1.572.522-3.281.36-4.927.552s-3.449.921-4.045,2.464c-.867,2.153.936,4.434,2.71,5.912a40.4,40.4,0,0,0,11.933,6.9,13.636,13.636,0,0,1,4.434,2.153c1.251,1.089,2.005,2.986,1.251,4.469s-2.7,1.971-4.321,1.66a29.285,29.285,0,0,1-4.626-1.764c-2.9-1.094-6.637-.9-8.494,1.611a6.707,6.707,0,0,0-.71,5.912,15.238,15.238,0,0,0,3.2,5.208A40.349,40.349,0,0,0,138.9,347.683c6.72,2.311,12.948,2.956,19.629.522" transform="translate(-104.772 -209.445)" fill="#f5f5f5"/>
      <path id="Path_1097" data-name="Path 1097" d="M162.041,359.459a92.352,92.352,0,0,0-3.449-17.373,187.929,187.929,0,0,0-7.5-20.339q-1.128-2.656-2.237-5.233c-.739-1.715-1.478-3.414-2.291-5.035a94.4,94.4,0,0,0-5.237-9.031c-1.808-2.794-3.621-5.38-5.341-7.785s-3.365-4.607-4.927-6.558a74.68,74.68,0,0,0-8.164-8.627c-1.04-.941-1.872-1.646-2.464-2.114l-.665-.537a1.409,1.409,0,0,0-.227-.168,1.721,1.721,0,0,0,.2.2l.626.562c.552.493,1.37,1.207,2.39,2.163a78.986,78.986,0,0,1,8.056,8.691q2.35,2.956,4.9,6.573c1.7,2.409,3.508,5,5.3,7.79a95.091,95.091,0,0,1,5.2,9.012c.813,1.611,1.537,3.3,2.276,5.016l2.237,5.228a193.416,193.416,0,0,1,7.514,20.29,94.209,94.209,0,0,1,3.513,17.3" transform="translate(-108.104 -211.298)" fill="#e0e0e0"/>
      <path id="Path_1098" data-name="Path 1098" d="M174.167,323.452a3.942,3.942,0,0,0,.207-.9c.113-.581.241-1.434.389-2.464.3-2.1.611-5.011.946-8.223s.685-6.115,1.015-8.2c.163-1.045.3-1.887.4-2.464a4.114,4.114,0,0,0,.118-.911,4.216,4.216,0,0,0-.266.882c-.148.572-.33,1.414-.527,2.464-.4,2.084-.8,4.991-1.128,8.213l-.833,8.228c-.1.985-.2,1.823-.266,2.493A4.306,4.306,0,0,0,174.167,323.452Z" transform="translate(-135.815 -223.285)" fill="#e0e0e0"/>
      <path id="Path_1099" data-name="Path 1099" d="M119.16,336.969a5.3,5.3,0,0,0,1.079.128c.695.064,1.7.148,2.956.291,2.464.271,5.912.759,9.647,1.478s7.11,1.5,9.524,2.143c1.207.315,2.183.591,2.858.783a6.076,6.076,0,0,0,1.054.256,5.813,5.813,0,0,0-.985-.4c-.665-.232-1.626-.552-2.833-.9-2.4-.709-5.765-1.547-9.524-2.262a94.734,94.734,0,0,0-9.687-1.355c-1.247-.108-2.262-.153-2.956-.163a5.849,5.849,0,0,0-1.133,0Z" transform="translate(-107.912 -241.877)" fill="#e0e0e0"/>
      <path id="Path_1100" data-name="Path 1100" d="M198.14,372.8a1.553,1.553,0,0,0,.182-.33c.128-.266.281-.591.463-.985.4-.857.946-2.1,1.6-3.661,1.311-3.1,2.981-7.45,4.76-12.268s3.41-9.179,4.651-12.318l1.478-3.7c.158-.4.286-.739.394-.985a1.148,1.148,0,0,0,.113-.365,1.533,1.533,0,0,0-.182.335c-.128.261-.281.586-.463.985-.4.857-.946,2.1-1.6,3.661-1.311,3.1-2.981,7.45-4.76,12.273s-3.41,9.174-4.651,12.318c-.611,1.522-1.109,2.774-1.478,3.7-.158.4-.286.739-.394,1.01a1.187,1.187,0,0,0-.113.33Z" transform="translate(-147.978 -242.512)" fill="#e0e0e0"/>
      <path id="Path_1101" data-name="Path 1101" d="M125,384.88a1.7,1.7,0,0,0,.36.143l1.045.355,3.858,1.247c3.257,1.059,7.735,2.567,12.687,4.242s9.45,3.148,12.731,4.139c1.636.493,2.956.882,3.892,1.128l1.069.281a1.72,1.72,0,0,0,.379.074,1.507,1.507,0,0,0-.36-.148l-1.045-.35-3.858-1.251c-3.257-1.054-7.74-2.567-12.687-4.242s-9.45-3.148-12.731-4.139c-1.636-.493-2.956-.882-3.892-1.128l-1.054-.291A1.285,1.285,0,0,0,125,384.88Z" transform="translate(-110.874 -266.197)" fill="#e0e0e0"/>
      <path id="Path_1102" data-name="Path 1102" d="M175.237,149.523v16.836a5.518,5.518,0,0,1-5.513,5.518H109.357a5.518,5.518,0,0,1-5.513-5.518V152.135l-7.514-7.883L169.708,144a5.513,5.513,0,0,1,5.528,5.523Z" transform="translate(-96.33 -144)" fill="#e0e0e0"/>
      <path id="Path_1103" data-name="Path 1103" d="M129.635,162.726l54.779-.251,0-1.685-54.779.251Z" transform="translate(-113.223 -152.517)" fill="#fafafa"/>
      <path id="Path_1104" data-name="Path 1104" d="M129.635,173.966l54.779-.251,0-1.685-54.779.256Z" transform="translate(-113.223 -158.219)" fill="#fafafa"/>
      <rect id="Rectangle_96" data-name="Rectangle 96" width="21.674" height="1.685" transform="translate(16.4 19.469) rotate(-0.28)" fill="#fafafa"/>
    </g>
    <g id="freepik--Character--inject-3" transform="translate(143.92 53.457)">
      <rect id="Rectangle_97" data-name="Rectangle 97" width="127.167" height="182.498" rx="11.55" transform="translate(0 196.674) rotate(-90)" fill="#263238"/>
      <rect id="Rectangle_98" data-name="Rectangle 98" width="119.151" height="152.408" transform="translate(12.485 192.668) rotate(-90)" fill="#fff"/>
      <circle id="Ellipse_80" data-name="Ellipse 80" cx="4.878" cy="4.878" r="4.878" transform="matrix(0.229, -0.973, 0.973, 0.229, 167.478, 136.74)" fill="#455a64"/>
      <rect id="Rectangle_99" data-name="Rectangle 99" width="38.303" height="2.015" rx="1.008" transform="translate(5.252 152.242) rotate(-90)" fill="#455a64"/>
      <circle id="Ellipse_81" data-name="Ellipse 81" cx="12.313" cy="12.313" r="12.313" transform="matrix(0.55, -0.835, 0.835, 0.55, 28.379, 140.174)" fill="#6d9b79"/>
      <circle id="Ellipse_82" data-name="Ellipse 82" cx="12.313" cy="12.313" r="12.313" transform="matrix(0.55, -0.835, 0.835, 0.55, 28.379, 140.174)" fill="#fff" opacity="0.3"/>
      <path id="Path_1105" data-name="Path 1105" d="M279.228,336.738c.463-.039.887.493.946,1.153s-.281,1.247-.749,1.286-.887-.493-.941-1.148S278.78,336.777,279.228,336.738Z" transform="translate(-238.063 -203.169)" fill="#263238"/>
      <path id="Path_1106" data-name="Path 1106" d="M294.995,336.41c-.463,0-.867.493-.9,1.192s.33,1.237.8,1.256.872-.493.9-1.187S295.463,336.43,294.995,336.41Z" transform="translate(-245.986 -203.004)" fill="#263238"/>
      <path id="Path_1107" data-name="Path 1107" d="M288.093,347.726a50.452,50.452,0,0,1-10.253,0,25.294,25.294,0,0,1,5.129-.266A24.4,24.4,0,0,1,288.093,347.726Z" transform="translate(-237.739 -208.61)" fill="#263238"/>
      <path id="Path_1108" data-name="Path 1108" d="M279.3,333.562c-.03.148-.616.143-1.3.251s-1.242.286-1.316.158.443-.552,1.237-.675S279.3,333.424,279.3,333.562Z" transform="translate(-237.148 -201.408)" fill="#263238"/>
      <path id="Path_1109" data-name="Path 1109" d="M297.756,334.057c-.089.118-.621-.158-1.306-.365s-1.276-.281-1.291-.434.655-.315,1.444-.069S297.85,333.953,297.756,334.057Z" transform="translate(-246.525 -201.306)" fill="#263238"/>
      <circle id="Ellipse_83" data-name="Ellipse 83" cx="12.761" cy="12.761" r="12.761" transform="translate(119.967 146.253) rotate(-80.95)" fill="#6d9b79"/>
      <circle id="Ellipse_84" data-name="Ellipse 84" cx="12.761" cy="12.761" r="12.761" transform="translate(119.967 146.253) rotate(-80.95)" opacity="0.3"/>
      <path id="Path_1110" data-name="Path 1110" d="M459.832,334.438c.493-.039.926.493.985,1.192s-.286,1.3-.769,1.335-.926-.493-.985-1.192S459.349,334.477,459.832,334.438Z" transform="translate(-329.669 -202.003)" fill="#263238"/>
      <path id="Path_1111" data-name="Path 1111" d="M476.139,334.1c-.493,0-.9.532-.931,1.232s.345,1.281.828,1.3.9-.532.931-1.232S476.627,334.12,476.139,334.1Z" transform="translate(-337.862 -201.832)" fill="#263238"/>
      <path id="Path_1112" data-name="Path 1112" d="M469.005,343.792a8.814,8.814,0,0,1-1.478-.779,8.243,8.243,0,0,0-3.8-.936,9.481,9.481,0,0,0-3.809.985,8.4,8.4,0,0,1-1.522.729c-.044-.069.439-.493,1.35-1.054a8.273,8.273,0,0,1,3.971-1.187,7.5,7.5,0,0,1,3.991,1.138A3.815,3.815,0,0,1,469.005,343.792Z" transform="translate(-329.333 -205.611)" fill="#263238"/>
      <path id="Path_1113" data-name="Path 1113" d="M459.83,331.436c.044.054-.039.217-.251.4a2.065,2.065,0,0,1-.985.493,1.892,1.892,0,0,1-1.109-.123c-.261-.118-.379-.256-.35-.32s.665.064,1.365-.074S459.737,331.317,459.83,331.436Z" transform="translate(-328.692 -200.468)" fill="#263238"/>
      <path id="Path_1114" data-name="Path 1114" d="M478.989,331.863c0,.064-.118.187-.4.276a1.872,1.872,0,0,1-1.143-.039,2.3,2.3,0,0,1-.941-.626c-.187-.217-.256-.389-.207-.438s.626.325,1.316.567S478.94,331.715,478.989,331.863Z" transform="translate(-338.406 -200.275)" fill="#263238"/>
      <path id="Path_1115" data-name="Path 1115" d="M418.21,403.678l2.956-1.463,2.887,1.606-.483-3.267,2.419-2.247-3.257-.552-1.389-3-1.527,2.927-3.276.394,2.306,2.36Z" transform="translate(-308.101 -232.605)" fill="#e0e0e0"/>
      <path id="Path_1116" data-name="Path 1116" d="M393.73,403.678l2.956-1.463,2.887,1.606-.483-3.267,2.419-2.247-3.257-.552-1.389-3-1.527,2.927-3.277.394,2.306,2.36Z" transform="translate(-295.682 -232.605)" fill="#6d9b79"/>
      <path id="Path_1117" data-name="Path 1117" d="M369.25,403.678l2.956-1.463,2.882,1.606-.478-3.267,2.419-2.247-3.257-.552-1.389-3-1.527,2.927-3.276.394,2.306,2.36Z" transform="translate(-283.263 -232.605)" fill="#6d9b79"/>
      <path id="Path_1118" data-name="Path 1118" d="M344.77,403.678l2.956-1.463,2.882,1.606-.478-3.267,2.419-2.247-3.257-.552-1.389-3-1.527,2.927-3.276.394,2.306,2.36Z" transform="translate(-270.845 -232.605)" fill="#6d9b79"/>
      <path id="Path_1119" data-name="Path 1119" d="M320.29,403.678l2.956-1.463,2.882,1.606-.478-3.267,2.419-2.247-3.257-.552-1.389-3-1.527,2.927-3.277.394,2.306,2.36Z" transform="translate(-258.426 -232.605)" fill="#6d9b79"/>
      <path id="Path_1120" data-name="Path 1120" d="M375.125,265.378c0,.074-13.234.133-29.562.133S316,265.452,316,265.378s13.229-.128,29.562-.128S375.125,265.309,375.125,265.378Z" transform="translate(-257.097 -166.905)" fill="#263238"/>
      <path id="Path_1121" data-name="Path 1121" d="M376.443,258.173c0,.074-6.533.133-14.594.133s-14.6-.059-14.6-.133,6.533-.133,14.6-.133S376.443,258.1,376.443,258.173Z" transform="translate(-272.95 -163.247)" fill="#263238"/>
      <circle id="Ellipse_85" data-name="Ellipse 85" cx="16.811" cy="16.811" r="16.811" transform="matrix(0.307, -0.952, 0.952, 0.307, 69.848, 143.57)" fill="#6d9b79"/>
      <path id="Path_1122" data-name="Path 1122" d="M368.307,326.4c.636-.049,1.212.65,1.291,1.572s-.379,1.7-1.015,1.759-1.217-.65-1.291-1.567S367.671,326.452,368.307,326.4Z" transform="translate(-283.113 -197.923)" fill="#263238"/>
      <path id="Path_1123" data-name="Path 1123" d="M389.79,326c-.636-.03-1.187.7-1.222,1.621s.448,1.69,1.084,1.715,1.187-.7,1.227-1.621S390.431,326,389.79,326Z" transform="translate(-293.91 -197.722)" fill="#263238"/>
      <path id="Path_1124" data-name="Path 1124" d="M380.356,337.14c.03.03-.108.2-.379.493a9.578,9.578,0,0,1-1.261,1.138,8.976,8.976,0,0,1-2.222,1.217,7.838,7.838,0,0,1-3.084.493,9,9,0,0,1-3.03-.7,12.938,12.938,0,0,1-2.232-1.168,6.756,6.756,0,0,1-1.788-1.478,19.408,19.408,0,0,1,1.971,1.143,15.626,15.626,0,0,0,2.212,1.04,9.422,9.422,0,0,0,2.882.626,7.924,7.924,0,0,0,2.9-.419,10.031,10.031,0,0,0,2.173-1.064c.572-.394,1.035-.724,1.335-.985S380.332,337.115,380.356,337.14Z" transform="translate(-282.643 -203.369)" fill="#263238"/>
      <path id="Path_1125" data-name="Path 1125" d="M367.222,318.4c-.03.148-.833.094-1.789.246s-1.7.443-1.779.31.636-.665,1.7-.828S367.271,318.264,367.222,318.4Z" transform="translate(-281.27 -193.707)" fill="#263238"/>
      <path id="Path_1126" data-name="Path 1126" d="M394.723,319.011c-.094.118-.8-.306-1.759-.591s-1.779-.345-1.784-.493.882-.335,1.941,0S394.816,318.908,394.723,319.011Z" transform="translate(-295.236 -193.533)" fill="#263238"/>
      <path id="Path_1127" data-name="Path 1127" d="M365.19,334.7c.064,0,.172.163.187.493a1.922,1.922,0,0,1-.365,1.163,1.9,1.9,0,0,1-.985.729c-.305.089-.493.044-.517,0,0-.148.621-.365,1.064-1.015S365.042,334.725,365.19,334.7Z" transform="translate(-281.199 -202.137)" fill="#263238"/>
      <path id="Path_1128" data-name="Path 1128" d="M395.669,336.435c0,.064-.128.168-.389.187a1.52,1.52,0,0,1-1.522-1.128c-.054-.256,0-.419.069-.424.148,0,.315.493.808.833S395.634,336.287,395.669,336.435Z" transform="translate(-296.532 -202.324)" fill="#263238"/>
      <path id="Path_1129" data-name="Path 1129" d="M379.695,313.1a2.963,2.963,0,0,0-.03-.34l-.064-.985c0-.217-.025-.463-.039-.729s-.089-.557-.133-.872-.1-.655-.163-1.015a11.505,11.505,0,0,0-.271-1.143,19.934,19.934,0,0,0-2.316-5.538,20.772,20.772,0,0,0-5.287-5.912l-.9-.665c-.315-.207-.645-.4-.985-.6a10.415,10.415,0,0,0-1.015-.586l-1.079-.517-.547-.261-.576-.207-1.173-.429c-.394-.133-.813-.217-1.222-.325a9.68,9.68,0,0,0-1.256-.286,19.211,19.211,0,0,0-2.626-.305c-.448,0-.9-.059-1.355-.049l-1.375.069a3.656,3.656,0,0,0-.695.044l-.695.108c-.458.074-.931.128-1.394.227a21.082,21.082,0,0,0-2.769.813,21.852,21.852,0,0,0-2.71,1.187c-.439.241-.857.517-1.291.774-.212.138-.438.251-.641.4l-.611.458a23.746,23.746,0,0,0-2.355,2l-1.054,1.163-.266.3-.241.315-.493.636-.493.636-.419.685-.419.69-.207.345-.177.36-.7,1.478-.562,1.537a20.556,20.556,0,0,0,0,13.1c.192.493.379,1.025.567,1.537s.468.985.7,1.478l.177.365.207.345.419.685.419.685.493.641.493.636.237.315.266.291,1.054,1.163a23.7,23.7,0,0,0,2.355,2.005l.616.453c.2.158.429.271.641.409.434.256.852.532,1.291.774a22.951,22.951,0,0,0,5.479,2c.463.1.936.153,1.4.227l.69.108c.232.03.463.03.695.044l1.375.069c.453,0,.907-.035,1.355-.049a19.121,19.121,0,0,0,2.626-.306,10.564,10.564,0,0,0,1.256-.286c.414-.108.828-.2,1.227-.325l1.168-.429.576-.207.547-.261,1.079-.517a11.317,11.317,0,0,0,1.015-.586c.33-.2.665-.394.985-.6l.9-.67a20.777,20.777,0,0,0,5.292-5.912,20.018,20.018,0,0,0,2.311-5.563,11.412,11.412,0,0,0,.271-1.138c.059-.36.113-.7.163-1.015s.1-.606.133-.872.03-.493.039-.729c.03-.429.049-.759.064-.985s.03-.34.03-.34v.34c0,.227-.025.562-.039.985a6.267,6.267,0,0,1-.03.734c-.03.241-.079.562-.118.877s-.1.66-.153,1.025a11.672,11.672,0,0,1-.261,1.143,19.779,19.779,0,0,1-2.281,5.6,20.817,20.817,0,0,1-5.3,5.972l-.907.68c-.315.212-.65.4-.985.611a8.79,8.79,0,0,1-1.025.591l-1.084.527-.552.281-.581.212-1.178.434c-.4.138-.823.222-1.237.335a10.846,10.846,0,0,1-1.271.3,19.465,19.465,0,0,1-2.656.31c-.448,0-.907.064-1.365.059l-1.389-.069a3.634,3.634,0,0,1-.7-.044l-.7-.108c-.468-.074-.946-.128-1.414-.227a22.639,22.639,0,0,1-2.8-.818,22.3,22.3,0,0,1-2.739-1.2c-.448-.241-.872-.522-1.311-.783a6.85,6.85,0,0,1-.65-.409l-.621-.463a23.531,23.531,0,0,1-2.385-2.02l-1.069-1.178-.271-.3-.241-.32-.493-.641-.493-.65-.424-.69-.424-.695-.212-.35-.177-.37-.714-1.478c-.192-.517-.379-1.04-.572-1.557a20.831,20.831,0,0,1,0-13.264l.572-1.557.714-1.478.182-.37.212-.35.424-.695.424-.69.493-.645.493-.645.241-.32.266-.3c.36-.389.714-.783,1.069-1.173a24.22,24.22,0,0,1,2.385-2.025l.621-.463c.207-.153.434-.271.65-.409.439-.256.867-.537,1.311-.778a22.3,22.3,0,0,1,2.739-1.2,22.62,22.62,0,0,1,2.8-.818c.468-.1.946-.153,1.414-.227l.7-.108c.232-.03.468-.03.7-.044l1.389-.069c.463,0,.916.039,1.37.059a19.457,19.457,0,0,1,2.656.31,12.184,12.184,0,0,1,1.271.291c.414.118.833.2,1.232.335l1.183.434.581.217.552.266,1.089.522c.365.168.685.4,1.02.6s.67.4.985.611l.907.68a20.817,20.817,0,0,1,5.3,5.962A19.812,19.812,0,0,1,379.1,308c.089.409.222.783.261,1.148s.1.7.153,1.025.094.606.118.877,0,.493.03.729c0,.434.03.764.039.985A2.25,2.25,0,0,1,379.695,313.1Z" transform="translate(-268.146 -180.541)" fill="#6d9b79"/>
      <rect id="Rectangle_100" data-name="Rectangle 100" width="152.408" height="7.602" transform="translate(12.485 73.518)" fill="#e0e0e0"/>
      <path id="Path_1130" data-name="Path 1130" d="M229.65,221.09a1.03,1.03,0,1,1-1.03-1.03A1.03,1.03,0,0,1,229.65,221.09Z" transform="translate(-212.247 -143.98)" fill="#fff"/>
      <path id="Path_1131" data-name="Path 1131" d="M236.59,221.09a1.03,1.03,0,1,1-1.03-1.03,1.03,1.03,0,0,1,1.03,1.03Z" transform="translate(-215.768 -143.98)" fill="#fff"/>
      <path id="Path_1132" data-name="Path 1132" d="M243.54,221.09a1.03,1.03,0,1,1-1.03-1.03A1.03,1.03,0,0,1,243.54,221.09Z" transform="translate(-219.294 -143.98)" fill="#fff"/>
      <path id="Path_1133" data-name="Path 1133" d="M375.376,277.548c0,.074-26.443.133-59.06.133s-59.065-.059-59.065-.133,26.443-.128,59.065-.128S375.376,277.479,375.376,277.548Z" transform="translate(-227.294 -173.079)" fill="#e0e0e0"/>
      <path id="Path_1134" data-name="Path 1134" d="M375.376,283.493c0,.069-26.443.128-59.06.128s-59.065-.059-59.065-.128,26.443-.133,59.065-.133S375.376,283.419,375.376,283.493Z" transform="translate(-227.294 -176.092)" fill="#e0e0e0"/>
      <path id="Path_1135" data-name="Path 1135" d="M335.084,180.885s-1.04-2.36-1.237-2.877c-.527-1.414-3.942-10.889-3.119-12.318,3.779-6.637,6.711-11.332,14.165-11.332l13.17-.089s12.475-2.542,21.27,25.837Z" transform="translate(-264.505 -110.575)" fill="#455a64"/>
      <path id="Path_1136" data-name="Path 1136" d="M280.944,183.209l17.245-3.715,20.27-10.657.074-14.55c-3.04-.838-8.869,1.271-19.339,6.607L283.63,168.93a9.214,9.214,0,0,0-2.685,14.288Z" transform="translate(-238.143 -110.524)" fill="#455a64"/>
      <path id="Path_1137" data-name="Path 1137" d="M349.8,262.436c-.251-.818-.079-1.345,1.113-.941,2.631.882,4.981.591,5.553.084s.049-1.478-.808-1.4a10.381,10.381,0,0,1-2.769-.384,6.77,6.77,0,0,1-2.064-.872c-.552-.35-1.025-.68-1.444-.985a13.588,13.588,0,0,1-3.188-3.163l-8.322,3.562,1.34,4.168a4.434,4.434,0,0,0,2.813,3.222,20.138,20.138,0,0,0,6.164.493c.695-.453,3.37,3.419,4.183,4.784s1.774,1.537,2.089.7c.212-.572-2.168-4.814-3-6.149a16.163,16.163,0,0,1-1.665-3.129" transform="translate(-268.192 -161.588)" fill="#b77153"/>
      <path id="Path_1138" data-name="Path 1138" d="M348.951,275.276c0,.03-.207,0-.493-.118a2.055,2.055,0,0,1-.872-.847,2.133,2.133,0,0,1-.271-1.187c.03-.315.128-.493.158-.493a2.749,2.749,0,0,0,1.478,2.631Z" transform="translate(-272.981 -170.649)" fill="#995037"/>
      <path id="Path_1139" data-name="Path 1139" d="M354.419,275.608c0,.03-.2,0-.463-.133a2.065,2.065,0,0,1-.813-.833,2.114,2.114,0,0,1-.256-1.138c.03-.3.113-.493.148-.458a3.888,3.888,0,0,0,.34,1.478A4,4,0,0,0,354.419,275.608Z" transform="translate(-275.808 -170.858)" fill="#995037"/>
      <path id="Path_1140" data-name="Path 1140" d="M282.32,201.347s26.419,30.36,26.384,29.858,11.825-9.361,11.825-9.361L294.647,191Z" transform="translate(-240.012 -129.238)" fill="#455a64"/>
      <path id="Path_1141" data-name="Path 1141" d="M314.84,199.92a2.067,2.067,0,0,1,.187.177l.493.552,1.774,2.05c1.478,1.734,3.533,4.149,5.779,6.824s4.272,5.109,5.725,6.9l1.71,2.1.458.581c.1.133.153.207.143.212a1.008,1.008,0,0,1-.182-.177l-.493-.552c-.448-.493-1.045-1.207-1.774-2.05-1.478-1.734-3.538-4.149-5.784-6.824s-4.267-5.109-5.725-6.9l-1.71-2.1c-.182-.232-.335-.424-.453-.581a1.094,1.094,0,0,1-.148-.212Z" transform="translate(-256.509 -133.763)" fill="#263238"/>
      <path id="Path_1142" data-name="Path 1142" d="M404.843,194.7a8.92,8.92,0,0,0,.315-1.971,5.819,5.819,0,0,0-1.724-4.257c-.64-.675-1.33-1.256-1.887-1.867a5.685,5.685,0,0,1-1.183-1.843,3.256,3.256,0,0,1-.217-1.478,1.36,1.36,0,0,1,.138-.527,3.7,3.7,0,0,0,.251,1.922,5.95,5.95,0,0,0,1.187,1.749c.552.586,1.242,1.158,1.9,1.848a6.036,6.036,0,0,1,1.424,2.276,5.834,5.834,0,0,1,.3,2.168,5.091,5.091,0,0,1-.281,1.449A1.745,1.745,0,0,1,404.843,194.7Z" transform="translate(-299.779 -125.058)" fill="#263238"/>
      <path id="Path_1143" data-name="Path 1143" d="M328.178,158.552s.133-.069.384-.182a10.971,10.971,0,0,1,1.143-.414,9.854,9.854,0,0,1,1.892-.384,6.435,6.435,0,0,1,2.552.236,5.947,5.947,0,0,1,2.606,1.675,6.9,6.9,0,0,1,1.587,3.208,12.17,12.17,0,0,1,.251,3.942,8.563,8.563,0,0,1-1.478,3.942,10.84,10.84,0,0,1-3.158,2.8c-1.158.729-2.321,1.32-3.424,1.9l-5.868,3.084-3.942,2.055-1.084.547a2.1,2.1,0,0,1-.389.172,3.22,3.22,0,0,1,.365-.222l1.059-.591,3.942-2.128,5.834-3.129c1.1-.586,2.266-1.187,3.4-1.912a10.706,10.706,0,0,0,3.084-2.735,8.292,8.292,0,0,0,1.419-3.838,12.1,12.1,0,0,0-.232-3.843,6.71,6.71,0,0,0-1.478-3.1,5.72,5.72,0,0,0-2.5-1.646,6.405,6.405,0,0,0-2.464-.271,10.159,10.159,0,0,0-1.877.34c-.493.143-.892.271-1.153.365a2.015,2.015,0,0,1-.473.123Z" transform="translate(-258.746 -112.261)" fill="#263238"/>
      <path id="Path_1144" data-name="Path 1144" d="M316.528,199.077a13.5,13.5,0,0,0-1.478-3.523,14.948,14.948,0,0,0-2.611-2.784,3.384,3.384,0,0,1,.985.6,8.465,8.465,0,0,1,2.956,4.572A3.333,3.333,0,0,1,316.528,199.077Z" transform="translate(-255.289 -130.136)" fill="#263238"/>
      <path id="Path_1145" data-name="Path 1145" d="M382.535,188.98a3.192,3.192,0,0,1-.562.153,5.72,5.72,0,0,1-1.665.074,6.188,6.188,0,0,1-2.5-.823,5.76,5.76,0,0,1-2.311-2.6,6.124,6.124,0,0,1-.32-4.193,3.449,3.449,0,0,1,1.394-1.931,1.729,1.729,0,0,1,1.261-.261,1.862,1.862,0,0,1,1.094.729,6.1,6.1,0,0,1,.591,5.257,6.238,6.238,0,0,1-1.478,2.464,5.7,5.7,0,0,1-2.567,1.478,5.873,5.873,0,0,1-5.518-1.32A5.76,5.76,0,0,1,368.3,183a4.991,4.991,0,0,1,.985-2.316,2.508,2.508,0,0,1,.985-.754,1.587,1.587,0,0,1,1.212,0,2.257,2.257,0,0,1,1.286,1.793,3.784,3.784,0,0,1-.4,2.01,9.632,9.632,0,0,1-2.1,2.8,9.947,9.947,0,0,1-2.153,1.522,9.285,9.285,0,0,1-1.537.645c-.177.059-.32.089-.414.113a.582.582,0,0,1-.148.03.492.492,0,0,1,.138-.054c.094-.035.232-.074.409-.143a10.346,10.346,0,0,0,1.5-.68,10.183,10.183,0,0,0,2.1-1.542,9.559,9.559,0,0,0,2.03-2.764,3.646,3.646,0,0,0,.365-1.912,2.06,2.06,0,0,0-1.168-1.616,1.37,1.37,0,0,0-1.045,0,2.261,2.261,0,0,0-.887.69,4.71,4.71,0,0,0-.946,2.212,5.513,5.513,0,0,0,1.586,4.779,5.612,5.612,0,0,0,5.262,1.227,5.38,5.38,0,0,0,2.464-1.38,5.967,5.967,0,0,0,1.434-2.34,6.4,6.4,0,0,0,.291-2.646,5.228,5.228,0,0,0-.271-1.266,3.651,3.651,0,0,0-.552-1.118,1.646,1.646,0,0,0-.956-.645,1.478,1.478,0,0,0-1.089.227,3.2,3.2,0,0,0-1.321,1.779,5.947,5.947,0,0,0,.276,4.055,5.6,5.6,0,0,0,2.222,2.547,6.08,6.08,0,0,0,2.439.847,6.735,6.735,0,0,0,2.227-.123Z" transform="translate(-282.472 -123.341)" fill="#fafafa"/>
      <path id="Path_1146" data-name="Path 1146" d="M402.29,135.075a5.972,5.972,0,0,1-1.178-2.34,1.567,1.567,0,0,1-.03-.852.65.65,0,0,1,.636-.493c.3,0,.493.3.655.552a12.721,12.721,0,0,1,1.212,2.306,1.744,1.744,0,0,1,.143.7.7.7,0,0,1-.34.6.729.729,0,0,1-.744-.1,2.2,2.2,0,0,1-.493-.6" transform="translate(-300.237 -98.998)" fill="#995037"/>
      <path id="Path_1147" data-name="Path 1147" d="M404.529,133.3l-1.3-2.73a2.192,2.192,0,0,1-.271-.847.739.739,0,0,1,.419-.729.729.729,0,0,1,.719.187,2.059,2.059,0,0,1,.439.641l.616,1.2a3.833,3.833,0,0,1,.4,1.015,1.31,1.31,0,0,1-.2,1.049.8.8,0,0,1-.985.232" transform="translate(-301.209 -97.767)" fill="#995037"/>
      <path id="Path_1148" data-name="Path 1148" d="M392.359,140.906s-1.813-2.35-1.971-3.587,1.355-3.449,4.612-3.942a7.962,7.962,0,0,0,3.35-1.143,1.05,1.05,0,0,0,.379-1.271,18.418,18.418,0,0,1-1.138-3.227c.153-.665.586-.65,1.71.985s2.429,3.321,2.178,4.08-4.222,3.109-4.222,3.109l1.084,1.749Z" transform="translate(-294.829 -96.935)" fill="#b77153"/>
      <path id="Path_1149" data-name="Path 1149" d="M403.39,174.071l-12.5-24.492,8.051-4.508,16.91,26.8s.892,1.715,2.138,3.72H403.814" transform="translate(-295.089 -105.938)" fill="#455a64"/>
      <path id="Path_1150" data-name="Path 1150" d="M398.569,145.07a1.159,1.159,0,0,1-.138.1l-.424.256-1.616.941-5.814,3.311.044-.148c1.217,2.464,2.8,5.346,4.39,8.465,2.37,4.607,4.434,8.829,5.863,11.9.719,1.537,1.291,2.789,1.68,3.651.182.419.33.749.439.985a1.793,1.793,0,0,1,.138.355,1.86,1.86,0,0,1-.187-.335c-.118-.246-.281-.572-.493-.985l-1.754-3.616c-1.478-3.05-3.557-7.258-5.912-11.864-1.591-3.114-3.163-5.986-4.36-8.479l-.044-.1.094-.054,5.858-3.227,1.651-.892.439-.227A.577.577,0,0,1,398.569,145.07Z" transform="translate(-294.83 -105.938)" fill="#263238"/>
      <path id="Path_1151" data-name="Path 1151" d="M337.554,202.425a15.141,15.141,0,0,1-2.084-5.755c.079,0,.419,1.311.985,2.892S337.623,202.39,337.554,202.425Z" transform="translate(-266.974 -132.114)" fill="#263238"/>
      <path id="Path_1152" data-name="Path 1152" d="M393.632,114.292a4.927,4.927,0,0,0,5.829-7.474,5.962,5.962,0,0,0,4.011-6.829,7.706,7.706,0,0,0-5.967-5.7,6.405,6.405,0,0,0-3.3.084,4.06,4.06,0,0,0-2.464,2.114" transform="translate(-295.52 -80.087)" fill="#263238"/>
      <path id="Path_1153" data-name="Path 1153" d="M391.272,121.947c0,.03-.365.1-.961.409a4.242,4.242,0,0,0-1.887,2.03,4.178,4.178,0,0,0,.315,3.971,3.982,3.982,0,0,0,.788.9,3.914,3.914,0,0,0,1.054.655,4.139,4.139,0,0,0,4.774-1.089,4.014,4.014,0,0,0,.665-1.049,4.084,4.084,0,0,0,.32-1.148,4.217,4.217,0,0,0-4.021-4.73c-.675-.025-1.045.084-1.049.049a1.03,1.03,0,0,1,.266-.074,3.577,3.577,0,0,1,.783-.079,4.329,4.329,0,0,1,4.282,4.858,3.891,3.891,0,0,1-.33,1.217,4.049,4.049,0,0,1-.7,1.118,4.375,4.375,0,0,1-5.07,1.158,4.188,4.188,0,0,1-1.113-.7,4.075,4.075,0,0,1-.828-.951,4.435,4.435,0,0,1-.685-2.207,4.316,4.316,0,0,1,2.409-4.016,3.36,3.36,0,0,1,.744-.271A1.083,1.083,0,0,1,391.272,121.947Z" transform="translate(-293.559 -94.128)" fill="#6d9b79"/>
      <path id="Path_1154" data-name="Path 1154" d="M361.157,85.7a4.843,4.843,0,0,0,2.276-8.952,6.016,6.016,0,0,0-8.982-7.041,7.982,7.982,0,0,0-14.781,2.365,7.716,7.716,0,0,0-9.9,10.47,5.978,5.978,0,1,0,1.015,11.914,5.272,5.272,0,0,0,7.992,5.912,5.775,5.775,0,0,0,10.376-1.192" transform="translate(-261.306 -65.647)" fill="#263238"/>
      <path id="Path_1155" data-name="Path 1155" d="M371.663,118.738c.1-2.4.232-4.572.232-4.572s5.366-.675,5.6-6.149-.315-18.077-.315-18.077l-9.854-4.74L356.7,93.753l1.665,25.128a6.671,6.671,0,0,0,6.962,6.218h0A6.661,6.661,0,0,0,371.663,118.738Z" transform="translate(-277.744 -75.566)" fill="#b77153"/>
      <path id="Path_1156" data-name="Path 1156" d="M394.938,113c-.089.094-.6-.335-1.335-.365s-1.281.345-1.355.246.049-.212.286-.389a1.734,1.734,0,0,1,1.089-.31,1.764,1.764,0,0,1,1.059.409C394.9,112.783,394.978,112.956,394.938,113Z" transform="translate(-295.767 -89.25)" fill="#263238"/>
      <path id="Path_1157" data-name="Path 1157" d="M378.416,113c-.089.094-.6-.335-1.335-.365s-1.276.345-1.355.246.049-.212.286-.389a1.734,1.734,0,0,1,1.089-.31,1.764,1.764,0,0,1,1.059.409C378.382,112.783,378.456,112.956,378.416,113Z" transform="translate(-287.384 -89.25)" fill="#263238"/>
      <path id="Path_1158" data-name="Path 1158" d="M386.563,118.282a4.385,4.385,0,0,1,1.2-.182c.187,0,.365-.049.4-.182a1.1,1.1,0,0,0-.113-.6q-.256-.739-.532-1.552a27.624,27.624,0,0,1-1.182-4.055,28.085,28.085,0,0,1,1.478,3.942l.493,1.562a1.291,1.291,0,0,1,.084.793.493.493,0,0,1-.315.281,1.079,1.079,0,0,1-.315.034,4.489,4.489,0,0,1-1.192-.039Z" transform="translate(-292.771 -89.014)" fill="#263238"/>
      <path id="Path_1159" data-name="Path 1159" d="M380.23,141.606a13.047,13.047,0,0,1-7.1-2.326s1.67,3.986,7.006,3.671Z" transform="translate(-286.079 -103.001)" fill="#995037"/>
      <path id="Path_1160" data-name="Path 1160" d="M370.755,84.934a7.233,7.233,0,0,0,.1,8.376,4.2,4.2,0,0,0,3.316,1.848,2.355,2.355,0,0,0,2.306-2.577,2.72,2.72,0,1,0,5.213.094,4.966,4.966,0,0,0,.616,1.675,1.66,1.66,0,0,0,1.513.8c.823-.108,1.3-.985,1.478-1.808A7.425,7.425,0,0,0,383.2,86.5a8.977,8.977,0,0,0-6.839-2.4,11.426,11.426,0,0,0-6.716,2.956" transform="translate(-284.221 -74.995)" fill="#263238"/>
      <path id="Path_1161" data-name="Path 1161" d="M361.089,89.74a12.692,12.692,0,0,1,1.1,4.927,6.587,6.587,0,0,1-1.774,4.612,4.479,4.479,0,0,1-4.656,1.118,5.183,5.183,0,0,1-.68,4.37,3.312,3.312,0,0,1-4.055,1.064,4.439,4.439,0,0,1-1.9-3.5,11.2,11.2,0,0,1,12.185-12.5" transform="translate(-273.861 -77.869)" fill="#263238"/>
      <path id="Path_1162" data-name="Path 1162" d="M356.531,116a1.917,1.917,0,0,0-2.306.552,3.148,3.148,0,0,0,3.134,5.164" transform="translate(-276.072 -91.091)" fill="#b77153"/>
      <path id="Path_1163" data-name="Path 1163" d="M357.544,121.761c0,.03-.241.064-.621-.039a1.66,1.66,0,0,1-1.123-.985,1.217,1.217,0,0,1,.03-.877,1.316,1.316,0,0,1,.453-.537c.34-.222.6-.217.6-.187s-.222.1-.493.335a1.079,1.079,0,0,0-.35,1.182,1.645,1.645,0,0,0,.941.911C357.342,121.687,357.549,121.722,357.544,121.761Z" transform="translate(-277.253 -92.774)" fill="#995037"/>
      <path id="Path_1164" data-name="Path 1164" d="M378.365,108.578c-.069.212-.872.133-1.823.177s-1.744.163-1.828-.044.69-.7,1.8-.744S378.438,108.376,378.365,108.578Z" transform="translate(-286.879 -87.115)" fill="#263238"/>
      <path id="Path_1165" data-name="Path 1165" d="M395.225,108.012c-.084.074-.246,0-.439-.025a1.9,1.9,0,0,0-.67-.039c-.286,0-.6.079-.842.074s-.409-.054-.439-.163.079-.236.281-.374a2.144,2.144,0,0,1,.931-.325,1.242,1.242,0,0,1,1.059.374C395.289,107.755,395.3,107.943,395.225,108.012Z" transform="translate(-296.073 -86.701)" fill="#263238"/>
      <path id="Path_1166" data-name="Path 1166" d="M383.817,127.615a1.665,1.665,0,0,1,1.385-.2,1.035,1.035,0,0,1,.685,1.133,1.1,1.1,0,0,1-.443.631,1.434,1.434,0,0,1-1.138.276,1.118,1.118,0,0,1-.852-.774.916.916,0,0,1,.448-1.025" transform="translate(-291.302 -96.947)" fill="#995037"/>
      <path id="Path_1167" data-name="Path 1167" d="M386.379,127.7a1.254,1.254,0,0,1-.527.227,2.36,2.36,0,0,1-1.389-.133,2.414,2.414,0,0,1-1.074-.892c-.2-.3-.236-.522-.207-.537s.138.172.355.429a2.848,2.848,0,0,0,1.025.759,2.8,2.8,0,0,0,1.261.192C386.157,127.724,386.364,127.665,386.379,127.7Z" transform="translate(-291.173 -96.451)" fill="#263238"/>
      <path id="Path_1168" data-name="Path 1168" d="M358.187,129.863a8.277,8.277,0,0,0-.187-1.035,4.227,4.227,0,0,0-1.557-2.286,4.148,4.148,0,0,0-1.759-.769,4.237,4.237,0,0,0-2.183.187,3.941,3.941,0,0,0-1.049.572,3.8,3.8,0,0,0-.872.882,4.129,4.129,0,0,0,0,4.893,3.8,3.8,0,0,0,.872.882,3.941,3.941,0,0,0,1.049.572,4.208,4.208,0,0,0,5.5-2.868c.172-.65.153-1.035.187-1.03a1.647,1.647,0,0,1,0,.271,3.38,3.38,0,0,1-.094.783,4.242,4.242,0,0,1-1.547,2.409,4.336,4.336,0,0,1-1.833.838,4.39,4.39,0,0,1-2.306-.177,4.129,4.129,0,0,1-1.114-.6,4.076,4.076,0,0,1-.931-.931,4.351,4.351,0,0,1,0-5.2,4.075,4.075,0,0,1,.931-.931,4.13,4.13,0,0,1,1.114-.6,4.326,4.326,0,0,1,4.139.66,4.242,4.242,0,0,1,1.547,2.409,3.38,3.38,0,0,1,.094.783A1.679,1.679,0,0,1,358.187,129.863Z" transform="translate(-274.092 -95.998)" fill="#6d9b79"/>
      <path id="Path_1169" data-name="Path 1169" d="M385.541,84.66a.4.4,0,0,1,.138.034,1.054,1.054,0,0,1,.345.222,1.591,1.591,0,0,1,.439,1.439,2.06,2.06,0,0,1-1.7,1.508,4.282,4.282,0,0,1-2.887-.69l-1.015-.586,1.114.365a1.207,1.207,0,0,1,.774.867A1.533,1.533,0,0,1,382.585,89a1.641,1.641,0,0,1-.985.709,2.331,2.331,0,0,1-1.247-.03,4.252,4.252,0,0,1-2.148-1.853l-.749-1.025.907.882a1.971,1.971,0,0,1,.493,1.862,2.02,2.02,0,0,1-1.094,1.384,2.641,2.641,0,0,1-2.8-.34,3.432,3.432,0,0,1-1.2-2.094.954.954,0,0,1,0-.177c.025,0,.054.236.212.645a3.405,3.405,0,0,0,1.079,1.478,2.493,2.493,0,0,0,2.606.271,1.808,1.808,0,0,0,.961-1.242,1.739,1.739,0,0,0-.429-1.626l.192-.163a4.04,4.04,0,0,0,2.005,1.744,1.734,1.734,0,0,0,1.971-.562,1.179,1.179,0,0,0-.458-1.68l.1-.222a4.114,4.114,0,0,0,2.72.7,1.907,1.907,0,0,0,1.606-1.36,1.557,1.557,0,0,0-.35-1.355,1.873,1.873,0,0,0-.429-.291Z" transform="translate(-286.394 -75.292)" fill="#455a64"/>
      <path id="Path_1170" data-name="Path 1170" d="M354.784,93.8s0,.034-.064.094a2.272,2.272,0,0,1-.232.246,3.212,3.212,0,0,1-1.1.655,3.134,3.134,0,0,1-1.971.03,3.291,3.291,0,0,1-1.971-1.69l.207-.03a3.188,3.188,0,1,1-5.361-2.8l.172.182a3.267,3.267,0,0,1-2.069.754,3.572,3.572,0,0,1-1.946-.532,2.956,2.956,0,0,1-1.168-1.37,3.478,3.478,0,0,1-.241-1.522,3.35,3.35,0,0,1,.808-2,2.138,2.138,0,0,1,.6-.493,3.515,3.515,0,0,0-1.251,2.528,3.336,3.336,0,0,0,.261,1.439,2.779,2.779,0,0,0,1.1,1.256,3.345,3.345,0,0,0,1.828.493,3.079,3.079,0,0,0,1.912-.7l.167.182a3.05,3.05,0,0,0-.626,3.316,3.015,3.015,0,0,0,3.291,1.67,3.065,3.065,0,0,0,2.306-2.4l.054-.345.153.315a3.133,3.133,0,0,0,1.813,1.616,3.005,3.005,0,0,0,1.9,0,3.281,3.281,0,0,0,1.094-.581C354.69,93.913,354.784,93.795,354.784,93.8Z" transform="translate(-268.783 -75.632)" fill="#455a64"/>
      <path id="Path_1171" data-name="Path 1171" d="M339.815,114.04a1.232,1.232,0,0,1-.429.256,2.9,2.9,0,0,1-1.365.212,2.813,2.813,0,0,1-1.877-.916,3.04,3.04,0,0,1-.744-2.528l.227.1a5.065,5.065,0,0,1-1.848,1.513,3.942,3.942,0,0,1-1.8.379,3.6,3.6,0,0,1-1.651-.453,2.922,2.922,0,0,1-1.572-2.33,2.788,2.788,0,0,1,.493-1.848,2.025,2.025,0,0,1,.37-.374.493.493,0,0,1,.158-.1,3.071,3.071,0,0,0-.443.532,2.779,2.779,0,0,0-.4,1.774,2.735,2.735,0,0,0,1.518,2.153,3.533,3.533,0,0,0,3.217.044,4.849,4.849,0,0,0,1.759-1.424l.32-.414-.094.493a2.843,2.843,0,0,0,.655,2.335,2.7,2.7,0,0,0,1.734.907,3.064,3.064,0,0,0,1.316-.133C339.652,114.114,339.8,114.025,339.815,114.04Z" transform="translate(-263.564 -87.107)" fill="#455a64"/>
      <path id="Path_1172" data-name="Path 1172" d="M404.045,98.65a1.7,1.7,0,0,1,.108.912,3.286,3.286,0,0,1-2.882,3.01,1.631,1.631,0,0,1-.911-.069c0-.044.35,0,.882-.113a3.385,3.385,0,0,0,2.725-2.853C404.055,99,404,98.655,404.045,98.65Z" transform="translate(-299.893 -82.389)" fill="#455a64"/>
      <path id="Path_1173" data-name="Path 1173" d="M407.608,109.12a.94.94,0,0,1,.123.374,2.133,2.133,0,0,1-.1,1.079,1.685,1.685,0,0,1-1.192,1.1,1.719,1.719,0,0,1-.985-.089,1.375,1.375,0,0,1-.783-.759l.246-.084a1.73,1.73,0,0,1,.064.493,1.971,1.971,0,0,1-1.237,1.754,1.636,1.636,0,0,1-.985.044,1.882,1.882,0,0,1-.739-.409,1.769,1.769,0,0,1-.6-1.035,1.082,1.082,0,0,1,0-.434,1.48,1.48,0,0,0,.084.414,1.842,1.842,0,0,0,.616.911,1.537,1.537,0,0,0,1.518.281,1.739,1.739,0,0,0,1.059-1.532,1.335,1.335,0,0,0-.054-.4l.251-.084a1.335,1.335,0,0,0,1.478.71,1.518,1.518,0,0,0,1.074-.931,2.252,2.252,0,0,0,.172-.985C407.608,109.258,407.564,109.125,407.608,109.12Z" transform="translate(-300.42 -87.701)" fill="#455a64"/>
      <path id="Path_1174" data-name="Path 1174" d="M382.166,124c.034,0,.054.113,0,.281a1.158,1.158,0,0,1-.985.808c-.172,0-.276-.03-.271-.064a3.067,3.067,0,0,0,.714-.4C381.959,124.335,382.092,124,382.166,124Z" transform="translate(-290.026 -95.249)" fill="#263238"/>
    </g>
    <g id="freepik--Floor--inject-3" transform="translate(92.9 250.003)">
      <path id="Path_1175" data-name="Path 1175" d="M376.836,464.688c0,.074-63.559.128-141.958.128S92.9,464.777,92.9,464.688s63.559-.128,141.978-.128S376.836,464.619,376.836,464.688Z" transform="translate(-92.9 -464.56)" fill="#263238"/>
    </g>
    <g id="freepik--Plant--inject-3" transform="translate(338.313 205.282)">
      <path id="Path_1176" data-name="Path 1176" d="M613.341,392.022c-1.232,1.754-3.621,1.173-4.73.1a8.94,8.94,0,0,1-2.005-4.109c-.985-3.385-1.971-6.937-1.232-10.386a5.758,5.758,0,0,1,1.33-2.823,3,3,0,0,1,2.853-.951,4.307,4.307,0,0,1,2.5,2.621,24.8,24.8,0,0,1,2.464,10.623,8.665,8.665,0,0,1-1.163,4.927" transform="translate(-598.159 -373.794)" fill="#6d9b79"/>
      <g id="Group_354" data-name="Group 354" transform="translate(6.958)" opacity="0.2">
        <path id="Path_1177" data-name="Path 1177" d="M613.341,392.022c-1.232,1.754-3.621,1.173-4.73.1a8.94,8.94,0,0,1-2.005-4.109c-.985-3.385-1.971-6.937-1.232-10.386a5.758,5.758,0,0,1,1.33-2.823,3,3,0,0,1,2.853-.951,4.307,4.307,0,0,1,2.5,2.621,24.8,24.8,0,0,1,2.464,10.623,8.665,8.665,0,0,1-1.163,4.927" transform="translate(-605.116 -373.794)"/>
      </g>
      <path id="Path_1178" data-name="Path 1178" d="M601.571,427.8a10.657,10.657,0,0,0-6.632-.808,5.42,5.42,0,0,0-3.267,1.478,2.35,2.35,0,0,0-.034,3.262,3.119,3.119,0,0,0,2.059.522c1.749,0,3.69-.325,5.085.724.8.6,1.33,1.6,2.281,1.9a2.261,2.261,0,0,0,2.464-1.1,3.858,3.858,0,0,0,.281-2.843,4.331,4.331,0,0,0-2.237-3.129Z" transform="translate(-590.995 -400.678)" fill="#6d9b79"/>
      <path id="Path_1179" data-name="Path 1179" d="M627.334,400.339a6.333,6.333,0,0,1-.985-5.878,11.332,11.332,0,0,1,3.483-5.055,18.722,18.722,0,0,1,6.238-3.68,6.562,6.562,0,0,1,2.808-.493,2.956,2.956,0,0,1,2.35,1.424c.66,1.251.03,2.769-.65,4.011a47.6,47.6,0,0,1-4.109,6.272,11.059,11.059,0,0,1-4.508,3.863c-1.872.714-3.814.631-4.809-.665" transform="translate(-608.772 -379.593)" fill="#6d9b79"/>
      <path id="Path_1180" data-name="Path 1180" d="M612.544,447.936a3.765,3.765,0,0,1-.113-.8c-.054-.576-.128-1.311-.212-2.178a31.472,31.472,0,0,0-.493-3.193,24.752,24.752,0,0,0-1.163-3.774,13.8,13.8,0,0,0-1.927-3.409,7.188,7.188,0,0,0-2.434-2.025,6.819,6.819,0,0,0-2.05-.64,3.833,3.833,0,0,1-.793-.113,3.371,3.371,0,0,1,.808,0,6.268,6.268,0,0,1,2.138.557,7.227,7.227,0,0,1,2.567,2.045,13.646,13.646,0,0,1,2,3.478,23.213,23.213,0,0,1,1.153,3.833,26.416,26.416,0,0,1,.424,3.237c.069.926.1,1.675.108,2.193A3.765,3.765,0,0,1,612.544,447.936Z" transform="translate(-597.268 -403.21)" fill="#263238"/>
      <path id="Path_1181" data-name="Path 1181" d="M617.465,424.087a1.967,1.967,0,0,1,0-.37v-1.059c0-.916,0-2.247-.049-3.892-.079-3.286-.365-7.819-.912-12.81s-1.281-9.47-1.941-12.687c-.158-.808-.315-1.532-.493-2.168s-.261-1.187-.379-1.631-.182-.759-.246-1.03a1.279,1.279,0,0,1-.064-.37,1.823,1.823,0,0,1,.128.35l.306,1.015c.138.439.276.985.439,1.621s.34,1.355.493,2.163a120.43,120.43,0,0,1,2.045,12.7c.547,5,.793,9.544.813,12.835,0,1.646,0,2.981-.054,3.9-.03.429-.049.778-.069,1.059a1.183,1.183,0,0,1-.015.37Z" transform="translate(-602.351 -381.036)" fill="#263238"/>
      <path id="Path_1182" data-name="Path 1182" d="M621.607,418.086a6.832,6.832,0,0,1,0-1.109c.044-.709.143-1.739.34-3a40.138,40.138,0,0,1,.985-4.37,38.972,38.972,0,0,1,1.813-5.168,27.592,27.592,0,0,1,5.361-8.351,13.886,13.886,0,0,1,1.266-1.173c.192-.163.365-.325.537-.453l.493-.34a7.181,7.181,0,0,1,.931-.6,34.484,34.484,0,0,0-3.05,2.725,28.932,28.932,0,0,0-5.228,8.346,45,45,0,0,0-2.872,9.445c-.241,1.242-.36,2.261-.443,2.956A6.816,6.816,0,0,1,621.607,418.086Z" transform="translate(-606.513 -383.806)" fill="#263238"/>
    </g>
    <g id="freepik--speech-bubble--inject-3" transform="translate(161.619 41.617)">
      <path id="Path_1183" data-name="Path 1183" d="M251.109,41.618a3.274,3.274,0,0,1-.345.044l-.985.084a10.921,10.921,0,0,0-1.616.232c-.32.069-.67.1-1.025.207s-.739.217-1.138.33a18.974,18.974,0,0,0-5.42,2.764,19.329,19.329,0,0,0-5.287,6.021,20.694,20.694,0,0,0-2.508,11.992c.03.453.128.9.192,1.36a10.312,10.312,0,0,0,.276,1.365,19.28,19.28,0,0,0,2.119,5.351,19.023,19.023,0,0,0,9.081,8.066,17.619,17.619,0,0,0,6.356,1.355,17.141,17.141,0,0,0,6.607-1.045l.645-.246.084-.03.079.034,9.361,4.622-.271.241-2.986-8.913-.034-.113.079-.084a19.846,19.846,0,0,0,4.794-8.179,20.413,20.413,0,0,0,.611-8.657,19.91,19.91,0,0,0-6.789-12.406,20.694,20.694,0,0,0-4.607-2.858,19.989,19.989,0,0,0-3.878-1.173l-1.449-.227-1.069-.064-.655-.044a1.1,1.1,0,0,1-.222-.025.941.941,0,0,1,.222,0h.655l1.079.03,1.478.2a19.564,19.564,0,0,1,3.942,1.128,20.324,20.324,0,0,1,4.686,2.848,19.954,19.954,0,0,1,4.351,5.134,20.25,20.25,0,0,1,2.606,7.391,20.693,20.693,0,0,1-.591,8.8,20.141,20.141,0,0,1-4.863,8.346l.034-.2c.985,2.858,1.971,5.839,3,8.908l.153.448-.424-.207-9.361-4.617h.163l-.66.251a17.417,17.417,0,0,1-6.755,1.049,17.964,17.964,0,0,1-6.494-1.384,19.4,19.4,0,0,1-9.248-8.248,19.606,19.606,0,0,1-2.153-5.42,9.612,9.612,0,0,1-.271-1.389c-.064-.463-.168-.916-.192-1.38a20.155,20.155,0,0,1-.069-2.72,20.893,20.893,0,0,1,.783-5.08,20.526,20.526,0,0,1,1.862-4.355,19.452,19.452,0,0,1,5.42-6.065,18.782,18.782,0,0,1,5.494-2.73l1.158-.315a10.224,10.224,0,0,1,1.03-.187,10.046,10.046,0,0,1,1.631-.2l1.01-.049Z" transform="translate(-232.374 -41.617)" fill="#263238"/>
      <path id="Path_1184" data-name="Path 1184" d="M267.558,69.458h-1.365l-3.025-4.114-.03-2.725s-2.109-.1-1.823,3.449,0,2.656,0,2.656-4.474.069-4.843.463c-.266.286-.34,4.735-.355,7.144a2.611,2.611,0,0,0,1.912,2.636,2.054,2.054,0,0,0,.493.059c1.118,0,6.809-.985,6.809-.985l2.36-.03Z" transform="translate(-244.417 -52.271)" fill="#6d9b79"/>
      <path id="Path_1185" data-name="Path 1185" d="M283.983,74.89l-.734,9.337-2.335.03-.1-9.14Z" transform="translate(-256.945 -58.496)" fill="#6d9b79"/>
    </g>
  </g>
</svg>
