<svg xmlns="http://www.w3.org/2000/svg" width="325.388" height="232.229" viewBox="0 0 325.388 232.229">
  <g id="Opened-bro" transform="translate(-43.756 -104.395)">
    <g id="freepik--background-simple--inject-88" transform="translate(43.756 104.395)">
      <path id="Path_1039" data-name="Path 1039" d="M353.185,333.7s23.952-56.28,13.169-128.129c-3.678-24.567-11.269-51.13-29.328-69.578-25.06-25.626-67.436-38.269-102.083-28.051-30.856,9.086-52.351,33.354-78.155,50.928-28.14,19.159-55.083,4.794-88.017,32.934s-26.345,78.413-19.159,96.4,16.976,36.232,45.633,44.162Z" transform="translate(-43.756 -104.395)" fill="#6d9b79"/>
      <path id="Path_1040" data-name="Path 1040" d="M353.185,333.7s23.952-56.28,13.169-128.129c-3.678-24.567-11.269-51.13-29.328-69.578-25.06-25.626-67.436-38.269-102.083-28.051-30.856,9.086-52.351,33.354-78.155,50.928-28.14,19.159-55.083,4.794-88.017,32.934s-26.345,78.413-19.159,96.4,16.976,36.232,45.633,44.162Z" transform="translate(-43.756 -104.395)" fill="#fff" opacity="0.7"/>
    </g>
    <g id="freepik--Store--inject-88" transform="translate(91.895 132.127)">
      <rect id="Rectangle_57" data-name="Rectangle 57" width="236.453" height="160.101" transform="translate(3.351 40.128)" fill="#fff" stroke="#263238" stroke-linecap="round" stroke-linejoin="round" stroke-width="1"/>
      <rect id="Rectangle_58" data-name="Rectangle 58" width="79.836" height="131.193" transform="translate(157.486 44.76)" fill="#fff" stroke="#263238" stroke-linecap="round" stroke-linejoin="round" stroke-width="1"/>
      <rect id="Rectangle_59" data-name="Rectangle 59" width="79.836" height="131.193" transform="translate(5.913 44.76)" fill="#fff" stroke="#263238" stroke-linecap="round" stroke-linejoin="round" stroke-width="1"/>
      <path id="Path_1041" data-name="Path 1041" d="M377.956,236.452,298.12,264.341V194.06h79.836Z" transform="translate(-140.634 -149.308)" fill="#2f3435" stroke="#263238" stroke-linecap="round" stroke-linejoin="round" stroke-width="1"/>
      <path id="Path_1042" data-name="Path 1042" d="M190.456,236.452,110.62,269.6V194.06h79.836Z" transform="translate(-104.707 -149.308)" fill="#2f3435" stroke="#263238" stroke-linecap="round" stroke-linejoin="round" stroke-width="1"/>
      <rect id="Rectangle_60" data-name="Rectangle 60" width="65.269" height="160.101" transform="translate(88.943 40.128)" fill="#6d9b79" stroke="#263238" stroke-linecap="round" stroke-linejoin="round" stroke-width="1"/>
      <path id="Path_1043" data-name="Path 1043" d="M217.9,277.206h57.88v66.619H217.9Zm0-81.4v66.619h57.88V195.81Z" transform="translate(-125.263 -149.643)" fill="#fff" stroke="#263238" stroke-linecap="round" stroke-linejoin="round" stroke-width="1"/>
      <path id="Path_1044" data-name="Path 1044" d="M279.862,367.565V359.36l-40.662,15.8h20.784Z" transform="translate(-129.344 -180.981)" fill="#263238"/>
      <path id="Path_1045" data-name="Path 1045" d="M217.9,243.076l57.88-25.262v-22H217.9Z" transform="translate(-125.263 -149.643)" fill="#2f3435"/>
      <path id="Path_1046" data-name="Path 1046" d="M256.324,274.369l23.265-8.892V258.12l-41.81,16.249Z" transform="translate(-129.072 -161.582)" fill="#263238"/>
      <path id="Path_1047" data-name="Path 1047" d="M217.9,353.305l57.88-23.742V296.5H217.9Z" transform="translate(-125.263 -168.937)" fill="#2f3435"/>
      <path id="Path_1048" data-name="Path 1048" d="M347.2,181.876H103.37L127.751,138.7H322.823Z" transform="translate(-103.317 -138.7)" fill="#6d9b79"/>
      <path id="Path_1049" data-name="Path 1049" d="M103.358,192.25c0,.3-.049.6-.049.9a13.516,13.516,0,1,0,27.024,0,6.665,6.665,0,0,0-.04-.9Z" transform="translate(-103.305 -148.961)" fill="#fff" stroke="#263238" stroke-linecap="round" stroke-linejoin="round" stroke-width="1"/>
      <path id="Path_1050" data-name="Path 1050" d="M136.858,192.25c0,.3-.048.6-.048.9a13.516,13.516,0,1,0,27.024,0,6.665,6.665,0,0,0-.04-.9Z" transform="translate(-109.724 -148.961)" fill="#6d9b79" stroke="#263238" stroke-linecap="round" stroke-linejoin="round" stroke-width="1"/>
      <path id="Path_1051" data-name="Path 1051" d="M170.358,192.25c0,.3-.048.6-.048.9a13.516,13.516,0,1,0,27.024,0,6.67,6.67,0,0,0-.04-.9Z" transform="translate(-116.143 -148.961)" fill="#fff" stroke="#263238" stroke-linecap="round" stroke-linejoin="round" stroke-width="1"/>
      <path id="Path_1052" data-name="Path 1052" d="M203.858,192.25c0,.3-.048.6-.048.9a13.516,13.516,0,1,0,27.024,0,6.67,6.67,0,0,0-.04-.9Z" transform="translate(-122.562 -148.961)" fill="#6d9b79" stroke="#263238" stroke-linecap="round" stroke-linejoin="round" stroke-width="1"/>
      <path id="Path_1053" data-name="Path 1053" d="M237.358,192.25c0,.3-.049.6-.049.9a13.516,13.516,0,1,0,27.024,0,6.66,6.66,0,0,0-.04-.9Z" transform="translate(-128.981 -148.961)" fill="#fff" stroke="#263238" stroke-linecap="round" stroke-linejoin="round" stroke-width="1"/>
      <path id="Path_1054" data-name="Path 1054" d="M270.858,192.25c0,.3-.049.6-.049.9a13.516,13.516,0,1,0,27.024,0,6.675,6.675,0,0,0-.04-.9Z" transform="translate(-135.4 -148.961)" fill="#6d9b79" stroke="#263238" stroke-linecap="round" stroke-linejoin="round" stroke-width="1"/>
      <path id="Path_1055" data-name="Path 1055" d="M304.358,192.25c0,.3-.049.6-.049.9a13.516,13.516,0,1,0,27.024,0,6.661,6.661,0,0,0-.04-.9Z" transform="translate(-141.819 -148.961)" fill="#fff" stroke="#263238" stroke-linecap="round" stroke-linejoin="round" stroke-width="1"/>
      <path id="Path_1056" data-name="Path 1056" d="M337.858,192.25c0,.3-.049.6-.049.9a13.516,13.516,0,1,0,27.024,0,6.665,6.665,0,0,0-.04-.9Z" transform="translate(-148.238 -148.961)" fill="#6d9b79" stroke="#263238" stroke-linecap="round" stroke-linejoin="round" stroke-width="1"/>
      <path id="Path_1057" data-name="Path 1057" d="M371.358,192.25c0,.3-.049.6-.049.9a13.516,13.516,0,1,0,27.024,0,6.67,6.67,0,0,0-.04-.9Z" transform="translate(-154.657 -148.961)" fill="#fff" stroke="#263238" stroke-linecap="round" stroke-linejoin="round" stroke-width="1"/>
      <path id="Path_1058" data-name="Path 1058" d="M229.63,230.289l19.522-10.509,19.393,10.509" transform="translate(-127.511 -154.236)" fill="none" stroke="#fff" stroke-linecap="round" stroke-linejoin="round" stroke-width="1"/>
      <path id="Path_1059" data-name="Path 1059" d="M255.236,219.328a1.908,1.908,0,1,0-1.908,1.908,1.908,1.908,0,0,0,1.908-1.908Z" transform="translate(-131.686 -153.784)" fill="#fff" stroke="#263238" stroke-linecap="round" stroke-linejoin="round" stroke-width="1"/>
      <rect id="Rectangle_61" data-name="Rectangle 61" width="52.658" height="19.256" transform="translate(94.844 76.053)" fill="#6d9b79" stroke="#263238" stroke-linecap="round" stroke-linejoin="round" stroke-width="1"/>
      <text id="GREENHOUSE" transform="translate(95.849 89.545)" fill="#263238" font-size="8" font-family="SegoeUIBlack, Segoe UI" letter-spacing="-0.051em"><tspan x="0" y="0">GREENHOUSE</tspan></text>
      <circle id="Ellipse_77" data-name="Ellipse 77" cx="3.961" cy="3.961" r="3.961" transform="translate(144.196 117.119)" fill="#fff" stroke="#263238" stroke-linecap="round" stroke-linejoin="round" stroke-width="1"/>
      <circle id="Ellipse_78" data-name="Ellipse 78" cx="1.01" cy="1.01" r="1.01" transform="translate(147.147 120.07)" fill="#fff" stroke="#263238" stroke-linecap="round" stroke-linejoin="round" stroke-width="1"/>
    </g>
    <g id="freepik--Ground--inject-88" transform="translate(64.163 331.232)">
      <path id="Path_1060" data-name="Path 1060" d="M364.869,390.392H71.716a2.7,2.7,0,0,1-2.716-2.7h0A2.692,2.692,0,0,1,71.716,385H364.869a2.692,2.692,0,0,1,2.692,2.692h0a2.7,2.7,0,0,1-2.692,2.7Z" transform="translate(-69 -385)" fill="#4e5559"/>
    </g>
    <g id="freepik--Plants--inject-88" transform="translate(98.115 204.563)">
      <path id="Path_1061" data-name="Path 1061" d="M124.548,231.838v5.449h-1.706v-5.974a2.554,2.554,0,0,0-2.555-2.563h0a2.563,2.563,0,0,0-2.563,2.563v7.421h-1.617V234.8a1.843,1.843,0,0,0-1.835-1.843h0a1.843,1.843,0,0,0-1.843,1.843v6.039h0a1.188,1.188,0,0,0,1.188,1.18h4.042v4.462h5.117V240.7h3.549a1.439,1.439,0,0,0,1.439-1.439h0v-7.421a1.617,1.617,0,0,0-1.617-1.617h0A1.617,1.617,0,0,0,124.548,231.838Z" transform="translate(-111.274 -228.391)" fill="#6d9b79"/>
      <rect id="Rectangle_62" data-name="Rectangle 62" width="8.997" height="8.343" transform="translate(4.567 17.731)" fill="#fff" stroke="#263238" stroke-linecap="round" stroke-linejoin="round" stroke-width="1"/>
      <rect id="Rectangle_63" data-name="Rectangle 63" width="10.064" height="2.684" transform="translate(4.026 15.75)" fill="#fff" stroke="#263238" stroke-linecap="round" stroke-linejoin="round" stroke-width="1"/>
      <path id="Path_1062" data-name="Path 1062" d="M123.5,284.732l-3.282-5.246,2.191.218-.218-3.064L124.6,279.7l.218-9.41,1.746,6.128,2.191-7.882.655,9.191,4.381-4.592-3.064,7.219,3.064-1.091-5.909,6.564Z" transform="translate(-112.767 -236.016)" fill="#6d9b79"/>
      <rect id="Rectangle_64" data-name="Rectangle 64" width="8.997" height="8.343" transform="translate(9.062 49.428)" fill="#fff" stroke="#263238" stroke-linecap="round" stroke-linejoin="round" stroke-width="1"/>
      <rect id="Rectangle_65" data-name="Rectangle 65" width="10.064" height="2.684" transform="translate(8.528 47.455)" fill="#fff" stroke="#263238" stroke-linecap="round" stroke-linejoin="round" stroke-width="1"/>
      <path id="Path_1063" data-name="Path 1063" d="M181.162,284.732l-3.282-5.246,2.183.218-.218-3.064,2.409,3.064.218-9.41,1.746,6.128,2.191-7.882.655,9.191,4.381-4.592-3.064,7.219,3.064-1.091-5.909,6.564Z" transform="translate(-123.815 -236.016)" fill="#6d9b79"/>
      <rect id="Rectangle_66" data-name="Rectangle 66" width="8.997" height="8.343" transform="translate(55.665 49.428)" fill="#fff" stroke="#263238" stroke-linecap="round" stroke-linejoin="round" stroke-width="1"/>
      <rect id="Rectangle_67" data-name="Rectangle 67" width="10.064" height="2.684" transform="translate(55.132 47.455)" fill="#fff" stroke="#263238" stroke-linecap="round" stroke-linejoin="round" stroke-width="1"/>
      <path id="Path_1064" data-name="Path 1064" d="M152.1,284.128a29.044,29.044,0,0,1-4.6-.437c-2.425-.437-2.846-1.972-1.746-2.425s4.81.218,4.81.218-4.81,0-5.465-2.846,1.746-2.627,2.425-1.964,2.425,1.964,2.425,1.964-3.719-3.719-3.719-5.909,2.425-1.964,3.064-.655,2.191,5.255,2.191,5.255-2.425-7,.655-5.909,2.425,4.373,2.425,5.036v2.837s3.064-5.9,4.163-4.592-1.536,3.719-1.536,3.719,1.536-5.659,5.255-5.473.218,2.846-.437,3.945a25.128,25.128,0,0,1-3.5,3.5s6.346-2.846,9.4-2.846.226,3.5-1.528,3.719-5.036.655-5.036.655,4.381,1.972,2.627,2.425-6.128-.437-6.128-.437Z" transform="translate(-117.513 -236.503)" fill="#6d9b79"/>
      <rect id="Rectangle_68" data-name="Rectangle 68" width="8.997" height="8.343" transform="translate(32.691 49.428)" fill="#fff" stroke="#263238" stroke-linecap="round" stroke-linejoin="round" stroke-width="1"/>
      <rect id="Rectangle_69" data-name="Rectangle 69" width="10.064" height="2.684" transform="translate(32.158 47.455)" fill="#fff" stroke="#263238" stroke-linecap="round" stroke-linejoin="round" stroke-width="1"/>
      <path id="Path_1065" data-name="Path 1065" d="M169.963,236.73v4.042h1.261v-4.43a1.9,1.9,0,0,1,1.9-1.892h0a1.892,1.892,0,0,1,1.892,1.892v5.5h1.172v-2.9a1.358,1.358,0,0,1,1.358-1.358h0a1.366,1.366,0,0,1,1.366,1.358v4.478h0a.881.881,0,0,1-.881.873h-3.015v3.306h-3.791v-4.276H168.6a1.075,1.075,0,0,1-1.067-1.075h0v-5.489a1.221,1.221,0,0,1,1.213-1.221h0a1.229,1.229,0,0,1,1.221,1.2Z" transform="translate(-121.832 -229.484)" fill="#6d9b79"/>
      <rect id="Rectangle_70" data-name="Rectangle 70" width="8.997" height="8.343" transform="translate(46.377 17.731)" fill="#fff" stroke="#263238" stroke-linecap="round" stroke-linejoin="round" stroke-width="1"/>
      <rect id="Rectangle_71" data-name="Rectangle 71" width="10.064" height="2.684" transform="translate(45.836 15.75)" fill="#fff" stroke="#263238" stroke-linecap="round" stroke-linejoin="round" stroke-width="1"/>
      <path id="Path_1066" data-name="Path 1066" d="M126.993,315.27v4.042h1.261v-4.43a1.892,1.892,0,0,1,1.892-1.892h0a1.9,1.9,0,0,1,1.9,1.892v5.5h1.164V317.46a1.366,1.366,0,0,1,1.366-1.358h0a1.358,1.358,0,0,1,1.358,1.358v4.47h0a.873.873,0,0,1-.873.881h-3.015v3.306h-3.791v-4.285h-2.627a1.067,1.067,0,0,1-1.067-1.067h0v-5.5a1.213,1.213,0,0,1,1.213-1.213h0A1.221,1.221,0,0,1,126.993,315.27Z" transform="translate(-113.598 -244.533)" fill="#6d9b79"/>
      <rect id="Rectangle_72" data-name="Rectangle 72" width="8.997" height="8.343" transform="translate(11.633 81.221)" fill="#fff" stroke="#263238" stroke-linecap="round" stroke-linejoin="round" stroke-width="1"/>
      <rect id="Rectangle_73" data-name="Rectangle 73" width="10.064" height="2.684" transform="translate(11.099 79.249)" fill="#fff" stroke="#263238" stroke-linecap="round" stroke-linejoin="round" stroke-width="1"/>
      <path id="Path_1067" data-name="Path 1067" d="M182.181,315.27v4.042h1.269v-4.43a1.892,1.892,0,0,1,1.892-1.892h0a1.9,1.9,0,0,1,1.9,1.892v5.5h1.164V317.46a1.366,1.366,0,0,1,1.366-1.358h0a1.358,1.358,0,0,1,1.358,1.358v4.47h0a.873.873,0,0,1-.873.881h-3.031v3.306h-3.791v-4.285h-2.627a1.067,1.067,0,0,1-1.067-1.067h0v-5.5a1.213,1.213,0,0,1,1.213-1.213h0a1.213,1.213,0,0,1,1.229,1.213Z" transform="translate(-124.172 -244.533)" fill="#6d9b79"/>
      <rect id="Rectangle_74" data-name="Rectangle 74" width="8.997" height="8.343" transform="translate(56.256 81.221)" fill="#fff" stroke="#263238" stroke-linecap="round" stroke-linejoin="round" stroke-width="1"/>
      <rect id="Rectangle_75" data-name="Rectangle 75" width="10.064" height="2.684" transform="translate(55.722 79.249)" fill="#fff" stroke="#263238" stroke-linecap="round" stroke-linejoin="round" stroke-width="1"/>
      <path id="Path_1068" data-name="Path 1068" d="M153.109,324.655a15.763,15.763,0,0,0-3.137-3.7c-1.989-1.714-2.563-5.7-2.563-5.7s.857-.283,2.563,1.423a17.785,17.785,0,0,1,2.846,3.985,48.342,48.342,0,0,1-1.14-6.548c0-1.706,2.854-5.974,2.854-5.974a26.039,26.039,0,0,1,.849,4.551v6.548a20.872,20.872,0,0,1,3.993-5.408,15.772,15.772,0,0,1,5.659-2.846s.283,3.419-.857,4.551-5.974,5.125-5.974,5.125l6.548-1.132-6.548,3.985s-1.229,1.617-2.28,1.14A5.505,5.505,0,0,0,153.109,324.655Z" transform="translate(-117.977 -243.604)" fill="#6d9b79"/>
      <rect id="Rectangle_76" data-name="Rectangle 76" width="8.997" height="8.343" transform="translate(32.424 81.221)" fill="#fff" stroke="#263238" stroke-linecap="round" stroke-linejoin="round" stroke-width="1"/>
      <rect id="Rectangle_77" data-name="Rectangle 77" width="10.064" height="2.684" transform="translate(31.891 79.249)" fill="#fff" stroke="#263238" stroke-linecap="round" stroke-linejoin="round" stroke-width="1"/>
      <path id="Path_1069" data-name="Path 1069" d="M187.891,244.226s-2.837-2.425-3.719-3.282-3.064-3.282-1.31-2.425a27.848,27.848,0,0,1,3.719,2.425s-1.528-4.592-1.528-5.909,2.183-.437,3.282,1.754,1.746,3.719,1.746,3.719-1.972-8.755-.218-9.191,2.191,5.659,2.191,5.659,1.528-10.719,3.719-8.318-1.536,8.755-1.536,8.755,4.381-3.064,3.5-.655a5.95,5.95,0,0,1-3.282,3.282s6.346-1.536,4.6.873-7.437,4.381-7.437,4.381Z" transform="translate(-124.643 -228.306)" fill="#6d9b79"/>
      <rect id="Rectangle_78" data-name="Rectangle 78" width="8.997" height="8.343" transform="translate(61.89 17.731)" fill="#fff" stroke="#263238" stroke-linecap="round" stroke-linejoin="round" stroke-width="1"/>
      <rect id="Rectangle_79" data-name="Rectangle 79" width="10.064" height="2.684" transform="translate(61.357 15.75)" fill="#fff" stroke="#263238" stroke-linecap="round" stroke-linejoin="round" stroke-width="1"/>
      <path id="Path_1070" data-name="Path 1070" d="M144.591,244.226s-2.846-2.425-3.719-3.282-3.064-3.282-1.318-2.425a27.26,27.26,0,0,1,3.719,2.425s-1.528-4.592-1.528-5.909,2.191-.437,3.282,1.754,1.746,3.719,1.746,3.719-1.964-8.755-.218-9.191,2.191,5.659,2.191,5.659,1.536-10.719,3.719-8.318-1.528,8.755-1.528,8.755,4.373-3.064,3.5-.655a5.974,5.974,0,0,1-3.282,3.282s6.346-1.536,4.592.873-7.437,4.381-7.437,4.381Z" transform="translate(-116.346 -228.306)" fill="#6d9b79"/>
      <rect id="Rectangle_80" data-name="Rectangle 80" width="8.997" height="8.343" transform="translate(26.879 17.731)" fill="#fff" stroke="#263238" stroke-linecap="round" stroke-linejoin="round" stroke-width="1"/>
      <rect id="Rectangle_81" data-name="Rectangle 81" width="10.064" height="2.684" transform="translate(26.345 15.75)" fill="#fff" stroke="#263238" stroke-linecap="round" stroke-linejoin="round" stroke-width="1"/>
      <rect id="Rectangle_82" data-name="Rectangle 82" width="80.03" height="4.042" transform="translate(0 25.621)" fill="#6d9b79" stroke="#263238" stroke-linecap="round" stroke-linejoin="round" stroke-width="1"/>
      <rect id="Rectangle_83" data-name="Rectangle 83" width="80.03" height="4.042" transform="translate(0 57.487)" fill="#6d9b79" stroke="#263238" stroke-linecap="round" stroke-linejoin="round" stroke-width="1"/>
      <rect id="Rectangle_84" data-name="Rectangle 84" width="80.03" height="4.042" transform="translate(0 89.354)" fill="#6d9b79" stroke="#263238" stroke-linecap="round" stroke-linejoin="round" stroke-width="1"/>
      <rect id="Rectangle_85" data-name="Rectangle 85" width="2.829" height="102.253" transform="translate(0 25.621)" fill="#6d9b79" stroke="#263238" stroke-linecap="round" stroke-linejoin="round" stroke-width="1"/>
      <rect id="Rectangle_86" data-name="Rectangle 86" width="2.829" height="102.253" transform="translate(77.201 25.621)" fill="#6d9b79" stroke="#263238" stroke-linecap="round" stroke-linejoin="round" stroke-width="1"/>
      <path id="Path_1071" data-name="Path 1071" d="M350.494,347.569a26.369,26.369,0,0,1-3.743-9.159,109.692,109.692,0,0,1-1.762-11.916c-.445-3.969-1.326-10.428-1.326-10.428s4.406,5.958,5.069,8.69a76.888,76.888,0,0,1,2.207,9.183c.445,3.476,1.1,5.707,1.318,7.2s.226,5.206.226,5.206.218-11.164-.445-16.378-1.318-9.434-1.1-13.4.218-4.713.437-7.195.445-7.2.445-7.2,2.643,8.189,3.743,13.4.663,6.952,1.107,11.414.663,5.465.218,7.7-.218,2.482-.881,5.465a15.863,15.863,0,0,1-1.1,3.719,110,110,0,0,0,3.961-12.126,49.7,49.7,0,0,1,3.088-9.7,27.476,27.476,0,0,1,2.207-4.22l3.525-5.95s.218,8.933-.881,12.126-1.544,5.707-2.87,8.69a18.594,18.594,0,0,0-1.762,6.467c-.218,1.989-.218,3.719-1.1,4.964s-1.1,2.975-1.762,3.719a11.089,11.089,0,0,1-1.762,1.5s5.287-8.189,6.613-10.178,1.318-2.482,3.306-3.727,3.08-1.981,3.08-1.981-3.961,8.933-5.069,10.671-1.762,3.969-3.306,5.214a22.35,22.35,0,0,0-2.425,2.231h-13s-2.643-3.476-3.088-6.7-.663-6.467-.663-6.467a41.228,41.228,0,0,1,3.533,3.234A69.475,69.475,0,0,1,350.494,347.569Z" transform="translate(-155.454 -242.46)" fill="#6d9b79"/>
      <rect id="Rectangle_87" data-name="Rectangle 87" width="22.449" height="18.884" transform="translate(188.241 108.901)" fill="#fff" stroke="#263238" stroke-linecap="round" stroke-linejoin="round" stroke-width="1"/>
      <rect id="Rectangle_88" data-name="Rectangle 88" width="25.125" height="4.099" transform="translate(186.907 106.411)" fill="#fff" stroke="#263238" stroke-linecap="round" stroke-linejoin="round" stroke-width="1"/>
      <path id="Path_1072" data-name="Path 1072" d="M380.7,281.183a10.064,10.064,0,0,0,5.877-4.7,10.59,10.59,0,0,0,1.2-7.178s-5.432,2.312-6.823,5.473a10.065,10.065,0,0,0-.808,4.042c-2.069-3.929-10.7-6.524-10.7-6.524s1.237,6.952,3.969,9.183c2.037,1.665,4.616,3.468,5.8,4.276V291.9a10.865,10.865,0,0,0-4.81-3.969c-3.234-1.245-8.69.986-8.69.986a10.509,10.509,0,0,0,5.958,4.22,10.04,10.04,0,0,0,7.542-.9v9.6a10.809,10.809,0,0,0-4.81-3.977c-3.233-1.245-8.69.994-8.69.994a10.582,10.582,0,0,0,5.958,4.22,10.072,10.072,0,0,0,7.542-.905v7.114a10.809,10.809,0,0,0-4.81-3.977c-3.234-1.245-8.69.994-8.69.994a10.582,10.582,0,0,0,5.958,4.22,10.072,10.072,0,0,0,7.542-.905v10.832a10.913,10.913,0,0,0-4.81-3.977c-3.234-1.237-8.69.994-8.69.994a10.51,10.51,0,0,0,5.958,4.22,10.081,10.081,0,0,0,7.542-.9v9.587a10.866,10.866,0,0,0-4.81-3.969c-3.234-1.245-8.69.986-8.69.986a10.509,10.509,0,0,0,5.958,4.22,10.04,10.04,0,0,0,7.542-.9v16.038a.4.4,0,0,0,.808,0v-60.8C380.311,285.476,380.877,284.15,380.7,281.183Z" transform="translate(-159.808 -236.161)" fill="#6d9b79"/>
      <path id="Path_1073" data-name="Path 1073" d="M388.493,292.23a10.881,10.881,0,0,0-4.964,4.22,10.056,10.056,0,0,0,7.7.986,10.509,10.509,0,0,0,5.958-4.22S391.719,290.986,388.493,292.23Z" transform="translate(-163.22 -240.483)" fill="#6d9b79"/>
      <path id="Path_1074" data-name="Path 1074" d="M388.493,304.2a10.938,10.938,0,0,0-4.964,4.22,10.08,10.08,0,0,0,7.7.994,10.581,10.581,0,0,0,5.958-4.22S391.719,302.965,388.493,304.2Z" transform="translate(-163.22 -242.777)" fill="#6d9b79"/>
      <path id="Path_1075" data-name="Path 1075" d="M388.493,313.414a10.938,10.938,0,0,0-4.964,4.22,10.081,10.081,0,0,0,7.7.994,10.581,10.581,0,0,0,5.958-4.22S391.719,312.2,388.493,313.414Z" transform="translate(-163.22 -244.544)" fill="#6d9b79"/>
      <path id="Path_1076" data-name="Path 1076" d="M388.493,327.531a10.938,10.938,0,0,0-4.964,4.22,10.04,10.04,0,0,0,7.7.994,10.509,10.509,0,0,0,5.958-4.22S391.719,326.295,388.493,327.531Z" transform="translate(-163.22 -247.248)" fill="#6d9b79"/>
      <path id="Path_1077" data-name="Path 1077" d="M388.493,339.82a10.881,10.881,0,0,0-4.964,4.22,10.056,10.056,0,0,0,7.7.986,10.509,10.509,0,0,0,5.958-4.22S391.719,338.576,388.493,339.82Z" transform="translate(-163.22 -249.602)" fill="#6d9b79"/>
      <g id="Group_353" data-name="Group 353" transform="translate(205.912 33.139)" opacity="0.5">
        <path id="Path_1078" data-name="Path 1078" d="M380.7,281.183a10.064,10.064,0,0,0,5.877-4.7,10.59,10.59,0,0,0,1.2-7.178s-5.432,2.312-6.823,5.473a10.065,10.065,0,0,0-.808,4.042c-2.069-3.929-10.7-6.524-10.7-6.524s1.237,6.952,3.969,9.183c2.037,1.665,4.616,3.468,5.8,4.276V291.9a10.865,10.865,0,0,0-4.81-3.969c-3.234-1.245-8.69.986-8.69.986a10.509,10.509,0,0,0,5.958,4.22,10.04,10.04,0,0,0,7.542-.9v9.6a10.809,10.809,0,0,0-4.81-3.977c-3.233-1.245-8.69.994-8.69.994a10.582,10.582,0,0,0,5.958,4.22,10.072,10.072,0,0,0,7.542-.905v7.114a10.809,10.809,0,0,0-4.81-3.977c-3.234-1.245-8.69.994-8.69.994a10.582,10.582,0,0,0,5.958,4.22,10.072,10.072,0,0,0,7.542-.905v10.832a10.913,10.913,0,0,0-4.81-3.977c-3.234-1.237-8.69.994-8.69.994a10.51,10.51,0,0,0,5.958,4.22,10.081,10.081,0,0,0,7.542-.9v9.587a10.866,10.866,0,0,0-4.81-3.969c-3.234-1.245-8.69.986-8.69.986a10.509,10.509,0,0,0,5.958,4.22,10.04,10.04,0,0,0,7.542-.9v16.038a.4.4,0,0,0,.808,0v-60.8C380.311,285.476,380.877,284.15,380.7,281.183Z" transform="translate(-365.72 -269.3)"/>
        <path id="Path_1079" data-name="Path 1079" d="M388.493,292.23a10.881,10.881,0,0,0-4.964,4.22,10.056,10.056,0,0,0,7.7.986,10.509,10.509,0,0,0,5.958-4.22S391.719,290.986,388.493,292.23Z" transform="translate(-369.132 -273.621)"/>
        <path id="Path_1080" data-name="Path 1080" d="M388.493,304.2a10.938,10.938,0,0,0-4.964,4.22,10.08,10.08,0,0,0,7.7.994,10.581,10.581,0,0,0,5.958-4.22S391.719,302.965,388.493,304.2Z" transform="translate(-369.132 -275.916)"/>
        <path id="Path_1081" data-name="Path 1081" d="M388.493,313.414a10.938,10.938,0,0,0-4.964,4.22,10.081,10.081,0,0,0,7.7.994,10.581,10.581,0,0,0,5.958-4.22S391.719,312.2,388.493,313.414Z" transform="translate(-369.132 -277.683)"/>
        <path id="Path_1082" data-name="Path 1082" d="M388.493,327.531a10.938,10.938,0,0,0-4.964,4.22,10.04,10.04,0,0,0,7.7.994,10.509,10.509,0,0,0,5.958-4.22S391.719,326.295,388.493,327.531Z" transform="translate(-369.132 -280.386)"/>
        <path id="Path_1083" data-name="Path 1083" d="M388.493,339.82a10.881,10.881,0,0,0-4.964,4.22,10.056,10.056,0,0,0,7.7.986,10.509,10.509,0,0,0,5.958-4.22S391.719,338.576,388.493,339.82Z" transform="translate(-369.132 -282.74)"/>
      </g>
      <rect id="Rectangle_89" data-name="Rectangle 89" width="8.997" height="18.884" transform="translate(215.993 108.901)" fill="#fff" stroke="#263238" stroke-linecap="round" stroke-linejoin="round" stroke-width="1"/>
      <rect id="Rectangle_90" data-name="Rectangle 90" width="10.064" height="4.099" transform="translate(215.459 106.411)" fill="#fff" stroke="#263238" stroke-linecap="round" stroke-linejoin="round" stroke-width="1"/>
      <rect id="Rectangle_91" data-name="Rectangle 91" width="22.449" height="18.884" transform="translate(154.208 108.901)" fill="#fff" stroke="#263238" stroke-linecap="round" stroke-linejoin="round" stroke-width="1"/>
      <rect id="Rectangle_92" data-name="Rectangle 92" width="25.125" height="4.099" transform="translate(152.874 106.411)" fill="#fff" stroke="#263238" stroke-linecap="round" stroke-linejoin="round" stroke-width="1"/>
      <path id="Path_1084" data-name="Path 1084" d="M303.232,317.176A7.089,7.089,0,0,0,300,313.207a55.713,55.713,0,0,0-8.2-3.727s-.243,1.487,1.989,4.22a48.471,48.471,0,0,0,6.952,6.208,39.982,39.982,0,0,1-4.964.243c-3.234,0-6.208,4.22-6.208,4.22s4.47.744,5.958.744,6.952-1.738,6.952-1.738-1.738,2.732-1.738,4.721a76.87,76.87,0,0,0,.986,7.7s2.983-1.245,3.727-3.727a56.375,56.375,0,0,0,1.245-7.7,8.5,8.5,0,0,0,2.482,2.482c1.981,1.487,7.445,3.476,7.445,3.476a17.162,17.162,0,0,0-2.732-6.208,11.819,11.819,0,0,0-6.208-4.212,4.2,4.2,0,0,0,2.983-1.5c1.237-1.487,3.234-6.7,3.234-6.7a7.356,7.356,0,0,0-4.964.5C306.457,313.473,303.232,317.176,303.232,317.176Z" transform="translate(-145.216 -243.86)" fill="#6d9b79"/>
      <path id="Path_1085" data-name="Path 1085" d="M303.232,317.176A7.089,7.089,0,0,0,300,313.207a55.713,55.713,0,0,0-8.2-3.727s-.243,1.487,1.989,4.22a48.471,48.471,0,0,0,6.952,6.208,39.982,39.982,0,0,1-4.964.243c-3.234,0-6.208,4.22-6.208,4.22s4.47.744,5.958.744,6.952-1.738,6.952-1.738-1.738,2.732-1.738,4.721a76.87,76.87,0,0,0,.986,7.7s2.983-1.245,3.727-3.727a56.375,56.375,0,0,0,1.245-7.7,8.5,8.5,0,0,0,2.482,2.482c1.981,1.487,7.445,3.476,7.445,3.476a17.162,17.162,0,0,0-2.732-6.208,11.819,11.819,0,0,0-6.208-4.212,4.2,4.2,0,0,0,2.983-1.5c1.237-1.487,3.234-6.7,3.234-6.7a7.356,7.356,0,0,0-4.964.5C306.457,313.473,303.232,317.176,303.232,317.176Z" transform="translate(-145.216 -243.86)" opacity="0.5"/>
      <path id="Path_1086" data-name="Path 1086" d="M319.082,342.149a4.349,4.349,0,0,0-1.964-2.425,33.335,33.335,0,0,0-4.98-2.263s-.154.905,1.2,2.563a29.3,29.3,0,0,0,4.228,3.775,23.378,23.378,0,0,1-3.015.154c-1.964,0-3.775,2.563-3.775,2.563s2.716.453,3.622.453a28.169,28.169,0,0,0,4.228-1.059,6.944,6.944,0,0,0-1.059,2.87,46.053,46.053,0,0,0,.606,4.672,4.252,4.252,0,0,0,2.264-2.263,35.079,35.079,0,0,0,.752-4.673,5.223,5.223,0,0,0,1.5,1.5,25.91,25.91,0,0,0,4.527,2.118,10.331,10.331,0,0,0-1.657-3.775,7.178,7.178,0,0,0-3.775-2.563,2.547,2.547,0,0,0,1.811-.905,22.63,22.63,0,0,0,1.964-4.042,4.487,4.487,0,0,0-3.015.3,15.668,15.668,0,0,0-3.468,3Z" transform="translate(-149.281 -249.222)" fill="#6d9b79"/>
      <path id="Path_1087" data-name="Path 1087" d="M319.082,342.149a4.349,4.349,0,0,0-1.964-2.425,33.335,33.335,0,0,0-4.98-2.263s-.154.905,1.2,2.563a29.3,29.3,0,0,0,4.228,3.775,23.378,23.378,0,0,1-3.015.154c-1.964,0-3.775,2.563-3.775,2.563s2.716.453,3.622.453a28.169,28.169,0,0,0,4.228-1.059,6.944,6.944,0,0,0-1.059,2.87,46.053,46.053,0,0,0,.606,4.672,4.252,4.252,0,0,0,2.264-2.263,35.079,35.079,0,0,0,.752-4.673,5.223,5.223,0,0,0,1.5,1.5,25.91,25.91,0,0,0,4.527,2.118,10.331,10.331,0,0,0-1.657-3.775,7.178,7.178,0,0,0-3.775-2.563,2.547,2.547,0,0,0,1.811-.905,22.63,22.63,0,0,0,1.964-4.042,4.487,4.487,0,0,0-3.015.3,15.668,15.668,0,0,0-3.468,3Z" transform="translate(-149.281 -249.222)" opacity="0.5"/>
      <path id="Path_1088" data-name="Path 1088" d="M309.758,353.549a5.2,5.2,0,0,0-2.377-2.918,40.88,40.88,0,0,0-6.022-2.74s-.186,1.091,1.455,3.1a36.433,36.433,0,0,0,5.117,4.567,29.494,29.494,0,0,1-3.654.178c-2.377,0-4.567,3.1-4.567,3.1s3.29.55,4.381.55a34.339,34.339,0,0,0,5.117-1.277,8.468,8.468,0,0,0-1.277,3.468,56.306,56.306,0,0,0,.727,5.659,5.165,5.165,0,0,0,2.74-2.74,40.989,40.989,0,0,0,.914-5.659,6.224,6.224,0,0,0,1.827,1.827,30.912,30.912,0,0,0,5.481,2.563,12.482,12.482,0,0,0-2.013-4.567,8.69,8.69,0,0,0-4.559-3.1,3.08,3.08,0,0,0,2.191-1.1,27.485,27.485,0,0,0,2.369-4.931,5.417,5.417,0,0,0-3.654.364A19.071,19.071,0,0,0,309.758,353.549Z" transform="translate(-147.159 -251.22)" fill="#6d9b79"/>
      <path id="Path_1089" data-name="Path 1089" d="M301.32,340.407a5.206,5.206,0,0,0-2.369-2.926,41.221,41.221,0,0,0-6.031-2.74s-.178,1.1,1.463,3.112a35.813,35.813,0,0,0,5.109,4.559,28.159,28.159,0,0,1-3.646.186c-2.377,0-4.567,3.1-4.567,3.1s3.282.55,4.381.55a33.613,33.613,0,0,0,5.093-1.277,8.384,8.384,0,0,0-1.285,3.468,55.477,55.477,0,0,0,.736,5.659,5.165,5.165,0,0,0,2.74-2.74,42.251,42.251,0,0,0,.913-5.659,6.346,6.346,0,0,0,1.827,1.827,30.447,30.447,0,0,0,5.473,2.555,12.546,12.546,0,0,0-2-4.567,8.755,8.755,0,0,0-4.567-3.1,3.088,3.088,0,0,0,2.191-1.091,27.93,27.93,0,0,0,2.377-4.931,5.416,5.416,0,0,0-3.654.364A19.259,19.259,0,0,0,301.32,340.407Z" transform="translate(-145.544 -248.701)" fill="#6d9b79"/>
      <path id="Path_1090" data-name="Path 1090" d="M316.227,328.819a5.222,5.222,0,0,0-3.719.582,41.015,41.015,0,0,0-5.408,3.824s.857.711,3.419.307a36.284,36.284,0,0,0,6.524-2.118,28.29,28.29,0,0,1-1.681,3.234c-1.2,2.053.38,5.513.38,5.513s2.126-2.563,2.684-3.508a33.359,33.359,0,0,0,1.471-5.06,8.521,8.521,0,0,0,2.352,2.854,55.61,55.61,0,0,0,5.254,2.215,5.148,5.148,0,0,0-.986-3.743,40.8,40.8,0,0,0-4.43-3.646,6.24,6.24,0,0,0,2.5-.655,30.8,30.8,0,0,0,4.972-3.444,12.457,12.457,0,0,0-4.955-.566,8.739,8.739,0,0,0-4.98,2.377,3.088,3.088,0,0,0,.154-2.425A28.974,28.974,0,0,0,316.72,320a5.416,5.416,0,0,0-1.52,3.339A18.577,18.577,0,0,0,316.227,328.819Z" transform="translate(-148.575 -245.876)" fill="#6d9b79"/>
      <rect id="Rectangle_93" data-name="Rectangle 93" width="30.331" height="12.91" transform="translate(170.222 114.883)" fill="#fff" stroke="#263238" stroke-linecap="round" stroke-linejoin="round" stroke-width="1"/>
      <rect id="Rectangle_94" data-name="Rectangle 94" width="33.944" height="2.797" transform="translate(168.419 113.177)" fill="#fff" stroke="#263238" stroke-linecap="round" stroke-linejoin="round" stroke-width="1"/>
      <path id="Path_1091" data-name="Path 1091" d="M331.57,360.71s1.5-.752-.986-2.49-3.234-1.73-3.234-1.73l2.482,4.22a20.213,20.213,0,0,0-4.963-.994,8.529,8.529,0,0,0-3.476.744l5.085,2.668s-5.335-.437-6.33-.437a18.593,18.593,0,0,0-3.719.994l3.719.744-5.707,1.738,5.958.493v2.482l3.719-2.231a6.983,6.983,0,0,0,.752,1.487c.493.744,2.231,2.732,2.231,2.732l2.231-3.476s.744,2.239,1.487,2.239a14.064,14.064,0,0,1,2.482.493l.574-3.185,3.646,2.692v-2.239l1.989,2.239,1.738-2.732.251,2.231,3.234-1.487,1.487,2.975.744-3.719,2.086.34.4-1.083.994.493a14.21,14.21,0,0,0,3.969.994,26.9,26.9,0,0,0-1.981-2.482,10.387,10.387,0,0,0-2.732-1.487l1.738-.744a26.316,26.316,0,0,0-4.47-1.245,7.882,7.882,0,0,0-2.732.994,6.928,6.928,0,0,0,1.989-1.989,21.032,21.032,0,0,0,.994-2.732s-3.727,0-4.22,1.245S341.5,362.7,341.5,362.7l-1.738-3.719a6.1,6.1,0,0,0-1.245,1.738,20.089,20.089,0,0,0-.493,1.98l-1.487-2.975a7.67,7.67,0,0,0-1.738-1.989,25.639,25.639,0,0,0-.251,2.732v1.738l-1.245-2.983V361.7Z" transform="translate(-149.982 -252.868)" fill="#6d9b79"/>
      <path id="Path_1092" data-name="Path 1092" d="M331.57,360.71s1.5-.752-.986-2.49-3.234-1.73-3.234-1.73l2.482,4.22a20.213,20.213,0,0,0-4.963-.994,8.529,8.529,0,0,0-3.476.744l5.085,2.668s-5.335-.437-6.33-.437a18.593,18.593,0,0,0-3.719.994l3.719.744-5.707,1.738,5.958.493v2.482l3.719-2.231a6.983,6.983,0,0,0,.752,1.487c.493.744,2.231,2.732,2.231,2.732l2.231-3.476s.744,2.239,1.487,2.239a14.064,14.064,0,0,1,2.482.493l.574-3.185,3.646,2.692v-2.239l1.989,2.239,1.738-2.732.251,2.231,3.234-1.487,1.487,2.975.744-3.719,2.086.34.4-1.083.994.493a14.21,14.21,0,0,0,3.969.994,26.9,26.9,0,0,0-1.981-2.482,10.387,10.387,0,0,0-2.732-1.487l1.738-.744a26.316,26.316,0,0,0-4.47-1.245,7.882,7.882,0,0,0-2.732.994,6.928,6.928,0,0,0,1.989-1.989,21.032,21.032,0,0,0,.994-2.732s-3.727,0-4.22,1.245S341.5,362.7,341.5,362.7l-1.738-3.719a6.1,6.1,0,0,0-1.245,1.738,20.089,20.089,0,0,0-.493,1.98l-1.487-2.975a7.67,7.67,0,0,0-1.738-1.989,25.639,25.639,0,0,0-.251,2.732v1.738l-1.245-2.983V361.7Z" transform="translate(-149.982 -252.868)" opacity="0.3"/>
    </g>
  </g>
</svg>
