<svg xmlns="http://www.w3.org/2000/svg" width="53.329" height="53.331" viewBox="0 0 53.329 53.331">
  <path id="Icon_awesome-sun" data-name="Icon awesome-sun" d="M26.666,16.666a10,10,0,1,0,10,10A10.016,10.016,0,0,0,26.666,16.666Zm25.666,8.385-9.864-4.927L45.956,9.666a1.8,1.8,0,0,0-2.281-2.281L33.217,10.875,28.28,1a1.8,1.8,0,0,0-3.229,0l-4.927,9.864L9.656,7.375A1.8,1.8,0,0,0,7.375,9.656l3.489,10.458L1,25.051A1.8,1.8,0,0,0,1,28.28l9.864,4.927L7.375,43.675a1.8,1.8,0,0,0,2.281,2.281l10.458-3.489,4.927,9.864a1.8,1.8,0,0,0,3.229,0L33.2,42.467l10.458,3.489a1.8,1.8,0,0,0,2.281-2.281L42.446,33.217,52.31,28.29a1.806,1.806,0,0,0,.021-3.239ZM36.092,36.092a13.331,13.331,0,1,1,0-18.853A13.347,13.347,0,0,1,36.092,36.092Z" fill="#efb736"/>
</svg>
